<?xml version="1.0" encoding="utf-8" standalone="no"?>
<!DOCTYPE svg PUBLIC "-//W3C//DTD SVG 1.1//EN"
  "http://www.w3.org/Graphics/SVG/1.1/DTD/svg11.dtd">
<svg xmlns:xlink="http://www.w3.org/1999/xlink" width="891.165625pt" height="357.95625pt" viewBox="0 0 891.165625 357.95625" xmlns="http://www.w3.org/2000/svg" version="1.1">
 <metadata>
  <rdf:RDF xmlns:dc="http://purl.org/dc/elements/1.1/" xmlns:cc="http://creativecommons.org/ns#" xmlns:rdf="http://www.w3.org/1999/02/22-rdf-syntax-ns#">
   <cc:Work>
    <dc:type rdf:resource="http://purl.org/dc/dcmitype/StillImage"/>
    <dc:date>2025-01-20T16:23:05.821479</dc:date>
    <dc:format>image/svg+xml</dc:format>
    <dc:creator>
     <cc:Agent>
      <dc:title>Matplotlib v3.9.2, https://matplotlib.org/</dc:title>
     </cc:Agent>
    </dc:creator>
   </cc:Work>
  </rdf:RDF>
 </metadata>
 <defs>
  <style type="text/css">*{stroke-linejoin: round; stroke-linecap: butt}</style>
 </defs>
 <g id="figure_1">
  <g id="patch_1">
   <path d="M 0 357.95625 
L 891.165625 357.95625 
L 891.165625 0 
L 0 0 
z
" style="fill: #ffffff"/>
  </g>
  <g id="axes_1">
   <g id="patch_2">
    <path d="M 46.965625 320.4 
L 427.42017 320.4 
L 427.42017 43.2 
L 46.965625 43.2 
z
" style="fill: #ffffff"/>
   </g>
   <g id="patch_3">
    <path d="M 64.259013 320.4 
L 71.317539 320.4 
L 71.317539 319.266953 
L 64.259013 319.266953 
z
" clip-path="url(#p4ce545b30b)" style="fill: #1f77b4"/>
   </g>
   <g id="patch_4">
    <path d="M 71.317539 320.4 
L 78.376065 320.4 
L 78.376065 320.4 
L 71.317539 320.4 
z
" clip-path="url(#p4ce545b30b)" style="fill: #1f77b4"/>
   </g>
   <g id="patch_5">
    <path d="M 78.376065 320.4 
L 85.434591 320.4 
L 85.434591 319.266953 
L 78.376065 319.266953 
z
" clip-path="url(#p4ce545b30b)" style="fill: #1f77b4"/>
   </g>
   <g id="patch_6">
    <path d="M 85.434591 320.4 
L 92.493117 320.4 
L 92.493117 320.4 
L 85.434591 320.4 
z
" clip-path="url(#p4ce545b30b)" style="fill: #1f77b4"/>
   </g>
   <g id="patch_7">
    <path d="M 92.493117 320.4 
L 99.551643 320.4 
L 99.551643 317.000858 
L 92.493117 317.000858 
z
" clip-path="url(#p4ce545b30b)" style="fill: #1f77b4"/>
   </g>
   <g id="patch_8">
    <path d="M 99.551643 320.4 
L 106.610169 320.4 
L 106.610169 319.266953 
L 99.551643 319.266953 
z
" clip-path="url(#p4ce545b30b)" style="fill: #1f77b4"/>
   </g>
   <g id="patch_9">
    <path d="M 106.610169 320.4 
L 113.668695 320.4 
L 113.668695 314.734764 
L 106.610169 314.734764 
z
" clip-path="url(#p4ce545b30b)" style="fill: #1f77b4"/>
   </g>
   <g id="patch_10">
    <path d="M 113.668695 320.4 
L 120.727221 320.4 
L 120.727221 315.867811 
L 113.668695 315.867811 
z
" clip-path="url(#p4ce545b30b)" style="fill: #1f77b4"/>
   </g>
   <g id="patch_11">
    <path d="M 120.727221 320.4 
L 127.785746 320.4 
L 127.785746 306.803433 
L 120.727221 306.803433 
z
" clip-path="url(#p4ce545b30b)" style="fill: #1f77b4"/>
   </g>
   <g id="patch_12">
    <path d="M 127.785746 320.4 
L 134.844272 320.4 
L 134.844272 307.936481 
L 127.785746 307.936481 
z
" clip-path="url(#p4ce545b30b)" style="fill: #1f77b4"/>
   </g>
   <g id="patch_13">
    <path d="M 134.844272 320.4 
L 141.902798 320.4 
L 141.902798 293.206867 
L 134.844272 293.206867 
z
" clip-path="url(#p4ce545b30b)" style="fill: #1f77b4"/>
   </g>
   <g id="patch_14">
    <path d="M 141.902798 320.4 
L 148.961324 320.4 
L 148.961324 289.807725 
L 141.902798 289.807725 
z
" clip-path="url(#p4ce545b30b)" style="fill: #1f77b4"/>
   </g>
   <g id="patch_15">
    <path d="M 148.961324 320.4 
L 156.01985 320.4 
L 156.01985 278.477253 
L 148.961324 278.477253 
z
" clip-path="url(#p4ce545b30b)" style="fill: #1f77b4"/>
   </g>
   <g id="patch_16">
    <path d="M 156.01985 320.4 
L 163.078376 320.4 
L 163.078376 275.078112 
L 156.01985 275.078112 
z
" clip-path="url(#p4ce545b30b)" style="fill: #1f77b4"/>
   </g>
   <g id="patch_17">
    <path d="M 163.078376 320.4 
L 170.136902 320.4 
L 170.136902 260.348498 
L 163.078376 260.348498 
z
" clip-path="url(#p4ce545b30b)" style="fill: #1f77b4"/>
   </g>
   <g id="patch_18">
    <path d="M 170.136902 320.4 
L 177.195428 320.4 
L 177.195428 220.691845 
L 170.136902 220.691845 
z
" clip-path="url(#p4ce545b30b)" style="fill: #1f77b4"/>
   </g>
   <g id="patch_19">
    <path d="M 177.195428 320.4 
L 184.253954 320.4 
L 184.253954 230.88927 
L 177.195428 230.88927 
z
" clip-path="url(#p4ce545b30b)" style="fill: #1f77b4"/>
   </g>
   <g id="patch_20">
    <path d="M 184.253954 320.4 
L 191.312479 320.4 
L 191.312479 195.764807 
L 184.253954 195.764807 
z
" clip-path="url(#p4ce545b30b)" style="fill: #1f77b4"/>
   </g>
   <g id="patch_21">
    <path d="M 191.312479 320.4 
L 198.371005 320.4 
L 198.371005 190.099571 
L 191.312479 190.099571 
z
" clip-path="url(#p4ce545b30b)" style="fill: #1f77b4"/>
   </g>
   <g id="patch_22">
    <path d="M 198.371005 320.4 
L 205.429531 320.4 
L 205.429531 142.511588 
L 198.371005 142.511588 
z
" clip-path="url(#p4ce545b30b)" style="fill: #1f77b4"/>
   </g>
   <g id="patch_23">
    <path d="M 205.429531 320.4 
L 212.488057 320.4 
L 212.488057 139.112446 
L 205.429531 139.112446 
z
" clip-path="url(#p4ce545b30b)" style="fill: #1f77b4"/>
   </g>
   <g id="patch_24">
    <path d="M 212.488057 320.4 
L 219.546583 320.4 
L 219.546583 118.717597 
L 212.488057 118.717597 
z
" clip-path="url(#p4ce545b30b)" style="fill: #1f77b4"/>
   </g>
   <g id="patch_25">
    <path d="M 219.546583 320.4 
L 226.605109 320.4 
L 226.605109 94.923605 
L 219.546583 94.923605 
z
" clip-path="url(#p4ce545b30b)" style="fill: #1f77b4"/>
   </g>
   <g id="patch_26">
    <path d="M 226.605109 320.4 
L 233.663635 320.4 
L 233.663635 91.524464 
L 226.605109 91.524464 
z
" clip-path="url(#p4ce545b30b)" style="fill: #1f77b4"/>
   </g>
   <g id="patch_27">
    <path d="M 233.663635 320.4 
L 240.722161 320.4 
L 240.722161 71.129614 
L 233.663635 71.129614 
z
" clip-path="url(#p4ce545b30b)" style="fill: #1f77b4"/>
   </g>
   <g id="patch_28">
    <path d="M 240.722161 320.4 
L 247.780687 320.4 
L 247.780687 56.4 
L 240.722161 56.4 
z
" clip-path="url(#p4ce545b30b)" style="fill: #1f77b4"/>
   </g>
   <g id="patch_29">
    <path d="M 247.780687 320.4 
L 254.839212 320.4 
L 254.839212 57.533047 
L 247.780687 57.533047 
z
" clip-path="url(#p4ce545b30b)" style="fill: #1f77b4"/>
   </g>
   <g id="patch_30">
    <path d="M 254.839212 320.4 
L 261.897738 320.4 
L 261.897738 275.078112 
L 254.839212 275.078112 
z
" clip-path="url(#p4ce545b30b)" style="fill: #1f77b4"/>
   </g>
   <g id="patch_31">
    <path d="M 261.897738 320.4 
L 268.956264 320.4 
L 268.956264 320.4 
L 261.897738 320.4 
z
" clip-path="url(#p4ce545b30b)" style="fill: #1f77b4"/>
   </g>
   <g id="patch_32">
    <path d="M 268.956264 320.4 
L 276.01479 320.4 
L 276.01479 320.4 
L 268.956264 320.4 
z
" clip-path="url(#p4ce545b30b)" style="fill: #1f77b4"/>
   </g>
   <g id="patch_33">
    <path d="M 276.01479 320.4 
L 283.073316 320.4 
L 283.073316 320.4 
L 276.01479 320.4 
z
" clip-path="url(#p4ce545b30b)" style="fill: #1f77b4"/>
   </g>
   <g id="patch_34">
    <path d="M 283.073316 320.4 
L 290.131842 320.4 
L 290.131842 320.4 
L 283.073316 320.4 
z
" clip-path="url(#p4ce545b30b)" style="fill: #1f77b4"/>
   </g>
   <g id="patch_35">
    <path d="M 290.131842 320.4 
L 297.190368 320.4 
L 297.190368 320.4 
L 290.131842 320.4 
z
" clip-path="url(#p4ce545b30b)" style="fill: #1f77b4"/>
   </g>
   <g id="patch_36">
    <path d="M 297.190368 320.4 
L 304.248894 320.4 
L 304.248894 320.4 
L 297.190368 320.4 
z
" clip-path="url(#p4ce545b30b)" style="fill: #1f77b4"/>
   </g>
   <g id="patch_37">
    <path d="M 304.248894 320.4 
L 311.30742 320.4 
L 311.30742 320.4 
L 304.248894 320.4 
z
" clip-path="url(#p4ce545b30b)" style="fill: #1f77b4"/>
   </g>
   <g id="patch_38">
    <path d="M 311.30742 320.4 
L 318.365945 320.4 
L 318.365945 320.4 
L 311.30742 320.4 
z
" clip-path="url(#p4ce545b30b)" style="fill: #1f77b4"/>
   </g>
   <g id="patch_39">
    <path d="M 318.365945 320.4 
L 325.424471 320.4 
L 325.424471 320.4 
L 318.365945 320.4 
z
" clip-path="url(#p4ce545b30b)" style="fill: #1f77b4"/>
   </g>
   <g id="patch_40">
    <path d="M 325.424471 320.4 
L 332.482997 320.4 
L 332.482997 320.4 
L 325.424471 320.4 
z
" clip-path="url(#p4ce545b30b)" style="fill: #1f77b4"/>
   </g>
   <g id="patch_41">
    <path d="M 332.482997 320.4 
L 339.541523 320.4 
L 339.541523 320.4 
L 332.482997 320.4 
z
" clip-path="url(#p4ce545b30b)" style="fill: #1f77b4"/>
   </g>
   <g id="patch_42">
    <path d="M 339.541523 320.4 
L 346.600049 320.4 
L 346.600049 320.4 
L 339.541523 320.4 
z
" clip-path="url(#p4ce545b30b)" style="fill: #1f77b4"/>
   </g>
   <g id="patch_43">
    <path d="M 346.600049 320.4 
L 353.658575 320.4 
L 353.658575 320.4 
L 346.600049 320.4 
z
" clip-path="url(#p4ce545b30b)" style="fill: #1f77b4"/>
   </g>
   <g id="patch_44">
    <path d="M 353.658575 320.4 
L 360.717101 320.4 
L 360.717101 320.4 
L 353.658575 320.4 
z
" clip-path="url(#p4ce545b30b)" style="fill: #1f77b4"/>
   </g>
   <g id="patch_45">
    <path d="M 360.717101 320.4 
L 367.775627 320.4 
L 367.775627 320.4 
L 360.717101 320.4 
z
" clip-path="url(#p4ce545b30b)" style="fill: #1f77b4"/>
   </g>
   <g id="patch_46">
    <path d="M 367.775627 320.4 
L 374.834153 320.4 
L 374.834153 320.4 
L 367.775627 320.4 
z
" clip-path="url(#p4ce545b30b)" style="fill: #1f77b4"/>
   </g>
   <g id="patch_47">
    <path d="M 374.834153 320.4 
L 381.892678 320.4 
L 381.892678 320.4 
L 374.834153 320.4 
z
" clip-path="url(#p4ce545b30b)" style="fill: #1f77b4"/>
   </g>
   <g id="patch_48">
    <path d="M 381.892678 320.4 
L 388.951204 320.4 
L 388.951204 320.4 
L 381.892678 320.4 
z
" clip-path="url(#p4ce545b30b)" style="fill: #1f77b4"/>
   </g>
   <g id="patch_49">
    <path d="M 388.951204 320.4 
L 396.00973 320.4 
L 396.00973 320.4 
L 388.951204 320.4 
z
" clip-path="url(#p4ce545b30b)" style="fill: #1f77b4"/>
   </g>
   <g id="patch_50">
    <path d="M 396.00973 320.4 
L 403.068256 320.4 
L 403.068256 320.4 
L 396.00973 320.4 
z
" clip-path="url(#p4ce545b30b)" style="fill: #1f77b4"/>
   </g>
   <g id="patch_51">
    <path d="M 403.068256 320.4 
L 410.126782 320.4 
L 410.126782 320.4 
L 403.068256 320.4 
z
" clip-path="url(#p4ce545b30b)" style="fill: #1f77b4"/>
   </g>
   <g id="patch_52">
    <path d="M 64.259013 320.4 
L 71.317539 320.4 
L 71.317539 320.4 
L 64.259013 320.4 
z
" clip-path="url(#p4ce545b30b)" style="fill: #1f77b4; opacity: 0.3"/>
   </g>
   <g id="patch_53">
    <path d="M 71.317539 320.4 
L 78.376065 320.4 
L 78.376065 320.4 
L 71.317539 320.4 
z
" clip-path="url(#p4ce545b30b)" style="fill: #1f77b4; opacity: 0.3"/>
   </g>
   <g id="patch_54">
    <path d="M 78.376065 320.4 
L 85.434591 320.4 
L 85.434591 320.4 
L 78.376065 320.4 
z
" clip-path="url(#p4ce545b30b)" style="fill: #1f77b4; opacity: 0.3"/>
   </g>
   <g id="patch_55">
    <path d="M 85.434591 320.4 
L 92.493117 320.4 
L 92.493117 320.4 
L 85.434591 320.4 
z
" clip-path="url(#p4ce545b30b)" style="fill: #1f77b4; opacity: 0.3"/>
   </g>
   <g id="patch_56">
    <path d="M 92.493117 320.4 
L 99.551643 320.4 
L 99.551643 320.4 
L 92.493117 320.4 
z
" clip-path="url(#p4ce545b30b)" style="fill: #1f77b4; opacity: 0.3"/>
   </g>
   <g id="patch_57">
    <path d="M 99.551643 320.4 
L 106.610169 320.4 
L 106.610169 320.4 
L 99.551643 320.4 
z
" clip-path="url(#p4ce545b30b)" style="fill: #1f77b4; opacity: 0.3"/>
   </g>
   <g id="patch_58">
    <path d="M 106.610169 320.4 
L 113.668695 320.4 
L 113.668695 320.4 
L 106.610169 320.4 
z
" clip-path="url(#p4ce545b30b)" style="fill: #1f77b4; opacity: 0.3"/>
   </g>
   <g id="patch_59">
    <path d="M 113.668695 320.4 
L 120.727221 320.4 
L 120.727221 320.4 
L 113.668695 320.4 
z
" clip-path="url(#p4ce545b30b)" style="fill: #1f77b4; opacity: 0.3"/>
   </g>
   <g id="patch_60">
    <path d="M 120.727221 320.4 
L 127.785746 320.4 
L 127.785746 320.4 
L 120.727221 320.4 
z
" clip-path="url(#p4ce545b30b)" style="fill: #1f77b4; opacity: 0.3"/>
   </g>
   <g id="patch_61">
    <path d="M 127.785746 320.4 
L 134.844272 320.4 
L 134.844272 320.4 
L 127.785746 320.4 
z
" clip-path="url(#p4ce545b30b)" style="fill: #1f77b4; opacity: 0.3"/>
   </g>
   <g id="patch_62">
    <path d="M 134.844272 320.4 
L 141.902798 320.4 
L 141.902798 320.4 
L 134.844272 320.4 
z
" clip-path="url(#p4ce545b30b)" style="fill: #1f77b4; opacity: 0.3"/>
   </g>
   <g id="patch_63">
    <path d="M 141.902798 320.4 
L 148.961324 320.4 
L 148.961324 320.4 
L 141.902798 320.4 
z
" clip-path="url(#p4ce545b30b)" style="fill: #1f77b4; opacity: 0.3"/>
   </g>
   <g id="patch_64">
    <path d="M 148.961324 320.4 
L 156.01985 320.4 
L 156.01985 320.4 
L 148.961324 320.4 
z
" clip-path="url(#p4ce545b30b)" style="fill: #1f77b4; opacity: 0.3"/>
   </g>
   <g id="patch_65">
    <path d="M 156.01985 320.4 
L 163.078376 320.4 
L 163.078376 320.4 
L 156.01985 320.4 
z
" clip-path="url(#p4ce545b30b)" style="fill: #1f77b4; opacity: 0.3"/>
   </g>
   <g id="patch_66">
    <path d="M 163.078376 320.4 
L 170.136902 320.4 
L 170.136902 320.4 
L 163.078376 320.4 
z
" clip-path="url(#p4ce545b30b)" style="fill: #1f77b4; opacity: 0.3"/>
   </g>
   <g id="patch_67">
    <path d="M 170.136902 320.4 
L 177.195428 320.4 
L 177.195428 320.4 
L 170.136902 320.4 
z
" clip-path="url(#p4ce545b30b)" style="fill: #1f77b4; opacity: 0.3"/>
   </g>
   <g id="patch_68">
    <path d="M 177.195428 320.4 
L 184.253954 320.4 
L 184.253954 320.4 
L 177.195428 320.4 
z
" clip-path="url(#p4ce545b30b)" style="fill: #1f77b4; opacity: 0.3"/>
   </g>
   <g id="patch_69">
    <path d="M 184.253954 320.4 
L 191.312479 320.4 
L 191.312479 320.4 
L 184.253954 320.4 
z
" clip-path="url(#p4ce545b30b)" style="fill: #1f77b4; opacity: 0.3"/>
   </g>
   <g id="patch_70">
    <path d="M 191.312479 320.4 
L 198.371005 320.4 
L 198.371005 320.4 
L 191.312479 320.4 
z
" clip-path="url(#p4ce545b30b)" style="fill: #1f77b4; opacity: 0.3"/>
   </g>
   <g id="patch_71">
    <path d="M 198.371005 320.4 
L 205.429531 320.4 
L 205.429531 320.4 
L 198.371005 320.4 
z
" clip-path="url(#p4ce545b30b)" style="fill: #1f77b4; opacity: 0.3"/>
   </g>
   <g id="patch_72">
    <path d="M 205.429531 320.4 
L 212.488057 320.4 
L 212.488057 320.4 
L 205.429531 320.4 
z
" clip-path="url(#p4ce545b30b)" style="fill: #1f77b4; opacity: 0.3"/>
   </g>
   <g id="patch_73">
    <path d="M 212.488057 320.4 
L 219.546583 320.4 
L 219.546583 320.4 
L 212.488057 320.4 
z
" clip-path="url(#p4ce545b30b)" style="fill: #1f77b4; opacity: 0.3"/>
   </g>
   <g id="patch_74">
    <path d="M 219.546583 320.4 
L 226.605109 320.4 
L 226.605109 320.4 
L 219.546583 320.4 
z
" clip-path="url(#p4ce545b30b)" style="fill: #1f77b4; opacity: 0.3"/>
   </g>
   <g id="patch_75">
    <path d="M 226.605109 320.4 
L 233.663635 320.4 
L 233.663635 320.4 
L 226.605109 320.4 
z
" clip-path="url(#p4ce545b30b)" style="fill: #1f77b4; opacity: 0.3"/>
   </g>
   <g id="patch_76">
    <path d="M 233.663635 320.4 
L 240.722161 320.4 
L 240.722161 320.4 
L 233.663635 320.4 
z
" clip-path="url(#p4ce545b30b)" style="fill: #1f77b4; opacity: 0.3"/>
   </g>
   <g id="patch_77">
    <path d="M 240.722161 320.4 
L 247.780687 320.4 
L 247.780687 320.4 
L 240.722161 320.4 
z
" clip-path="url(#p4ce545b30b)" style="fill: #1f77b4; opacity: 0.3"/>
   </g>
   <g id="patch_78">
    <path d="M 247.780687 320.4 
L 254.839212 320.4 
L 254.839212 320.4 
L 247.780687 320.4 
z
" clip-path="url(#p4ce545b30b)" style="fill: #1f77b4; opacity: 0.3"/>
   </g>
   <g id="patch_79">
    <path d="M 254.839212 320.4 
L 261.897738 320.4 
L 261.897738 96.056652 
L 254.839212 96.056652 
z
" clip-path="url(#p4ce545b30b)" style="fill: #1f77b4; opacity: 0.3"/>
   </g>
   <g id="patch_80">
    <path d="M 261.897738 320.4 
L 268.956264 320.4 
L 268.956264 69.996567 
L 261.897738 69.996567 
z
" clip-path="url(#p4ce545b30b)" style="fill: #1f77b4; opacity: 0.3"/>
   </g>
   <g id="patch_81">
    <path d="M 268.956264 320.4 
L 276.01479 320.4 
L 276.01479 91.524464 
L 268.956264 91.524464 
z
" clip-path="url(#p4ce545b30b)" style="fill: #1f77b4; opacity: 0.3"/>
   </g>
   <g id="patch_82">
    <path d="M 276.01479 320.4 
L 283.073316 320.4 
L 283.073316 97.1897 
L 276.01479 97.1897 
z
" clip-path="url(#p4ce545b30b)" style="fill: #1f77b4; opacity: 0.3"/>
   </g>
   <g id="patch_83">
    <path d="M 283.073316 320.4 
L 290.131842 320.4 
L 290.131842 106.254077 
L 283.073316 106.254077 
z
" clip-path="url(#p4ce545b30b)" style="fill: #1f77b4; opacity: 0.3"/>
   </g>
   <g id="patch_84">
    <path d="M 290.131842 320.4 
L 297.190368 320.4 
L 297.190368 120.983691 
L 290.131842 120.983691 
z
" clip-path="url(#p4ce545b30b)" style="fill: #1f77b4; opacity: 0.3"/>
   </g>
   <g id="patch_85">
    <path d="M 297.190368 320.4 
L 304.248894 320.4 
L 304.248894 148.176824 
L 297.190368 148.176824 
z
" clip-path="url(#p4ce545b30b)" style="fill: #1f77b4; opacity: 0.3"/>
   </g>
   <g id="patch_86">
    <path d="M 304.248894 320.4 
L 311.30742 320.4 
L 311.30742 192.365665 
L 304.248894 192.365665 
z
" clip-path="url(#p4ce545b30b)" style="fill: #1f77b4; opacity: 0.3"/>
   </g>
   <g id="patch_87">
    <path d="M 311.30742 320.4 
L 318.365945 320.4 
L 318.365945 232.022318 
L 311.30742 232.022318 
z
" clip-path="url(#p4ce545b30b)" style="fill: #1f77b4; opacity: 0.3"/>
   </g>
   <g id="patch_88">
    <path d="M 318.365945 320.4 
L 325.424471 320.4 
L 325.424471 255.816309 
L 318.365945 255.816309 
z
" clip-path="url(#p4ce545b30b)" style="fill: #1f77b4; opacity: 0.3"/>
   </g>
   <g id="patch_89">
    <path d="M 325.424471 320.4 
L 332.482997 320.4 
L 332.482997 263.747639 
L 325.424471 263.747639 
z
" clip-path="url(#p4ce545b30b)" style="fill: #1f77b4; opacity: 0.3"/>
   </g>
   <g id="patch_90">
    <path d="M 332.482997 320.4 
L 339.541523 320.4 
L 339.541523 273.945064 
L 332.482997 273.945064 
z
" clip-path="url(#p4ce545b30b)" style="fill: #1f77b4; opacity: 0.3"/>
   </g>
   <g id="patch_91">
    <path d="M 339.541523 320.4 
L 346.600049 320.4 
L 346.600049 286.408584 
L 339.541523 286.408584 
z
" clip-path="url(#p4ce545b30b)" style="fill: #1f77b4; opacity: 0.3"/>
   </g>
   <g id="patch_92">
    <path d="M 346.600049 320.4 
L 353.658575 320.4 
L 353.658575 305.670386 
L 346.600049 305.670386 
z
" clip-path="url(#p4ce545b30b)" style="fill: #1f77b4; opacity: 0.3"/>
   </g>
   <g id="patch_93">
    <path d="M 353.658575 320.4 
L 360.717101 320.4 
L 360.717101 298.872103 
L 353.658575 298.872103 
z
" clip-path="url(#p4ce545b30b)" style="fill: #1f77b4; opacity: 0.3"/>
   </g>
   <g id="patch_94">
    <path d="M 360.717101 320.4 
L 367.775627 320.4 
L 367.775627 310.202575 
L 360.717101 310.202575 
z
" clip-path="url(#p4ce545b30b)" style="fill: #1f77b4; opacity: 0.3"/>
   </g>
   <g id="patch_95">
    <path d="M 367.775627 320.4 
L 374.834153 320.4 
L 374.834153 313.601717 
L 367.775627 313.601717 
z
" clip-path="url(#p4ce545b30b)" style="fill: #1f77b4; opacity: 0.3"/>
   </g>
   <g id="patch_96">
    <path d="M 374.834153 320.4 
L 381.892678 320.4 
L 381.892678 312.46867 
L 374.834153 312.46867 
z
" clip-path="url(#p4ce545b30b)" style="fill: #1f77b4; opacity: 0.3"/>
   </g>
   <g id="patch_97">
    <path d="M 381.892678 320.4 
L 388.951204 320.4 
L 388.951204 315.867811 
L 381.892678 315.867811 
z
" clip-path="url(#p4ce545b30b)" style="fill: #1f77b4; opacity: 0.3"/>
   </g>
   <g id="patch_98">
    <path d="M 388.951204 320.4 
L 396.00973 320.4 
L 396.00973 315.867811 
L 388.951204 315.867811 
z
" clip-path="url(#p4ce545b30b)" style="fill: #1f77b4; opacity: 0.3"/>
   </g>
   <g id="patch_99">
    <path d="M 396.00973 320.4 
L 403.068256 320.4 
L 403.068256 320.4 
L 396.00973 320.4 
z
" clip-path="url(#p4ce545b30b)" style="fill: #1f77b4; opacity: 0.3"/>
   </g>
   <g id="patch_100">
    <path d="M 403.068256 320.4 
L 410.126782 320.4 
L 410.126782 318.133906 
L 403.068256 318.133906 
z
" clip-path="url(#p4ce545b30b)" style="fill: #1f77b4; opacity: 0.3"/>
   </g>
   <g id="matplotlib.axis_1">
    <g id="xtick_1">
     <g id="line2d_1">
      <defs>
       <path id="m40db730900" d="M 0 0 
L 0 3.5 
" style="stroke: #000000; stroke-width: 0.8"/>
      </defs>
      <g>
       <use xlink:href="#m40db730900" x="116.355321" y="320.4" style="stroke: #000000; stroke-width: 0.8"/>
      </g>
     </g>
     <g id="text_1">
      <!-- −0.4 -->
      <g transform="translate(104.213915 334.998437) scale(0.1 -0.1)">
       <defs>
        <path id="DejaVuSans-2212" d="M 678 2272 
L 4684 2272 
L 4684 1741 
L 678 1741 
L 678 2272 
z
" transform="scale(0.015625)"/>
        <path id="DejaVuSans-30" d="M 2034 4250 
Q 1547 4250 1301 3770 
Q 1056 3291 1056 2328 
Q 1056 1369 1301 889 
Q 1547 409 2034 409 
Q 2525 409 2770 889 
Q 3016 1369 3016 2328 
Q 3016 3291 2770 3770 
Q 2525 4250 2034 4250 
z
M 2034 4750 
Q 2819 4750 3233 4129 
Q 3647 3509 3647 2328 
Q 3647 1150 3233 529 
Q 2819 -91 2034 -91 
Q 1250 -91 836 529 
Q 422 1150 422 2328 
Q 422 3509 836 4129 
Q 1250 4750 2034 4750 
z
" transform="scale(0.015625)"/>
        <path id="DejaVuSans-2e" d="M 684 794 
L 1344 794 
L 1344 0 
L 684 0 
L 684 794 
z
" transform="scale(0.015625)"/>
        <path id="DejaVuSans-34" d="M 2419 4116 
L 825 1625 
L 2419 1625 
L 2419 4116 
z
M 2253 4666 
L 3047 4666 
L 3047 1625 
L 3713 1625 
L 3713 1100 
L 3047 1100 
L 3047 0 
L 2419 0 
L 2419 1100 
L 313 1100 
L 313 1709 
L 2253 4666 
z
" transform="scale(0.015625)"/>
       </defs>
       <use xlink:href="#DejaVuSans-2212"/>
       <use xlink:href="#DejaVuSans-30" x="83.789062"/>
       <use xlink:href="#DejaVuSans-2e" x="147.412109"/>
       <use xlink:href="#DejaVuSans-34" x="179.199219"/>
      </g>
     </g>
    </g>
    <g id="xtick_2">
     <g id="line2d_2">
      <g>
       <use xlink:href="#m40db730900" x="186.043806" y="320.4" style="stroke: #000000; stroke-width: 0.8"/>
      </g>
     </g>
     <g id="text_2">
      <!-- −0.2 -->
      <g transform="translate(173.902399 334.998437) scale(0.1 -0.1)">
       <defs>
        <path id="DejaVuSans-32" d="M 1228 531 
L 3431 531 
L 3431 0 
L 469 0 
L 469 531 
Q 828 903 1448 1529 
Q 2069 2156 2228 2338 
Q 2531 2678 2651 2914 
Q 2772 3150 2772 3378 
Q 2772 3750 2511 3984 
Q 2250 4219 1831 4219 
Q 1534 4219 1204 4116 
Q 875 4013 500 3803 
L 500 4441 
Q 881 4594 1212 4672 
Q 1544 4750 1819 4750 
Q 2544 4750 2975 4387 
Q 3406 4025 3406 3419 
Q 3406 3131 3298 2873 
Q 3191 2616 2906 2266 
Q 2828 2175 2409 1742 
Q 1991 1309 1228 531 
z
" transform="scale(0.015625)"/>
       </defs>
       <use xlink:href="#DejaVuSans-2212"/>
       <use xlink:href="#DejaVuSans-30" x="83.789062"/>
       <use xlink:href="#DejaVuSans-2e" x="147.412109"/>
       <use xlink:href="#DejaVuSans-32" x="179.199219"/>
      </g>
     </g>
    </g>
    <g id="xtick_3">
     <g id="line2d_3">
      <g>
       <use xlink:href="#m40db730900" x="255.73229" y="320.4" style="stroke: #000000; stroke-width: 0.8"/>
      </g>
     </g>
     <g id="text_3">
      <!-- 0.0 -->
      <g transform="translate(247.780727 334.998437) scale(0.1 -0.1)">
       <use xlink:href="#DejaVuSans-30"/>
       <use xlink:href="#DejaVuSans-2e" x="63.623047"/>
       <use xlink:href="#DejaVuSans-30" x="95.410156"/>
      </g>
     </g>
    </g>
    <g id="xtick_4">
     <g id="line2d_4">
      <g>
       <use xlink:href="#m40db730900" x="325.420774" y="320.4" style="stroke: #000000; stroke-width: 0.8"/>
      </g>
     </g>
     <g id="text_4">
      <!-- 0.2 -->
      <g transform="translate(317.469211 334.998437) scale(0.1 -0.1)">
       <use xlink:href="#DejaVuSans-30"/>
       <use xlink:href="#DejaVuSans-2e" x="63.623047"/>
       <use xlink:href="#DejaVuSans-32" x="95.410156"/>
      </g>
     </g>
    </g>
    <g id="xtick_5">
     <g id="line2d_5">
      <g>
       <use xlink:href="#m40db730900" x="395.109258" y="320.4" style="stroke: #000000; stroke-width: 0.8"/>
      </g>
     </g>
     <g id="text_5">
      <!-- 0.4 -->
      <g transform="translate(387.157696 334.998437) scale(0.1 -0.1)">
       <use xlink:href="#DejaVuSans-30"/>
       <use xlink:href="#DejaVuSans-2e" x="63.623047"/>
       <use xlink:href="#DejaVuSans-34" x="95.410156"/>
      </g>
     </g>
    </g>
    <g id="text_6">
     <!-- Age effect (logit scale probability) -->
     <g transform="translate(152.349929 348.676562) scale(0.1 -0.1)">
      <defs>
       <path id="DejaVuSans-41" d="M 2188 4044 
L 1331 1722 
L 3047 1722 
L 2188 4044 
z
M 1831 4666 
L 2547 4666 
L 4325 0 
L 3669 0 
L 3244 1197 
L 1141 1197 
L 716 0 
L 50 0 
L 1831 4666 
z
" transform="scale(0.015625)"/>
       <path id="DejaVuSans-67" d="M 2906 1791 
Q 2906 2416 2648 2759 
Q 2391 3103 1925 3103 
Q 1463 3103 1205 2759 
Q 947 2416 947 1791 
Q 947 1169 1205 825 
Q 1463 481 1925 481 
Q 2391 481 2648 825 
Q 2906 1169 2906 1791 
z
M 3481 434 
Q 3481 -459 3084 -895 
Q 2688 -1331 1869 -1331 
Q 1566 -1331 1297 -1286 
Q 1028 -1241 775 -1147 
L 775 -588 
Q 1028 -725 1275 -790 
Q 1522 -856 1778 -856 
Q 2344 -856 2625 -561 
Q 2906 -266 2906 331 
L 2906 616 
Q 2728 306 2450 153 
Q 2172 0 1784 0 
Q 1141 0 747 490 
Q 353 981 353 1791 
Q 353 2603 747 3093 
Q 1141 3584 1784 3584 
Q 2172 3584 2450 3431 
Q 2728 3278 2906 2969 
L 2906 3500 
L 3481 3500 
L 3481 434 
z
" transform="scale(0.015625)"/>
       <path id="DejaVuSans-65" d="M 3597 1894 
L 3597 1613 
L 953 1613 
Q 991 1019 1311 708 
Q 1631 397 2203 397 
Q 2534 397 2845 478 
Q 3156 559 3463 722 
L 3463 178 
Q 3153 47 2828 -22 
Q 2503 -91 2169 -91 
Q 1331 -91 842 396 
Q 353 884 353 1716 
Q 353 2575 817 3079 
Q 1281 3584 2069 3584 
Q 2775 3584 3186 3129 
Q 3597 2675 3597 1894 
z
M 3022 2063 
Q 3016 2534 2758 2815 
Q 2500 3097 2075 3097 
Q 1594 3097 1305 2825 
Q 1016 2553 972 2059 
L 3022 2063 
z
" transform="scale(0.015625)"/>
       <path id="DejaVuSans-20" transform="scale(0.015625)"/>
       <path id="DejaVuSans-66" d="M 2375 4863 
L 2375 4384 
L 1825 4384 
Q 1516 4384 1395 4259 
Q 1275 4134 1275 3809 
L 1275 3500 
L 2222 3500 
L 2222 3053 
L 1275 3053 
L 1275 0 
L 697 0 
L 697 3053 
L 147 3053 
L 147 3500 
L 697 3500 
L 697 3744 
Q 697 4328 969 4595 
Q 1241 4863 1831 4863 
L 2375 4863 
z
" transform="scale(0.015625)"/>
       <path id="DejaVuSans-63" d="M 3122 3366 
L 3122 2828 
Q 2878 2963 2633 3030 
Q 2388 3097 2138 3097 
Q 1578 3097 1268 2742 
Q 959 2388 959 1747 
Q 959 1106 1268 751 
Q 1578 397 2138 397 
Q 2388 397 2633 464 
Q 2878 531 3122 666 
L 3122 134 
Q 2881 22 2623 -34 
Q 2366 -91 2075 -91 
Q 1284 -91 818 406 
Q 353 903 353 1747 
Q 353 2603 823 3093 
Q 1294 3584 2113 3584 
Q 2378 3584 2631 3529 
Q 2884 3475 3122 3366 
z
" transform="scale(0.015625)"/>
       <path id="DejaVuSans-74" d="M 1172 4494 
L 1172 3500 
L 2356 3500 
L 2356 3053 
L 1172 3053 
L 1172 1153 
Q 1172 725 1289 603 
Q 1406 481 1766 481 
L 2356 481 
L 2356 0 
L 1766 0 
Q 1100 0 847 248 
Q 594 497 594 1153 
L 594 3053 
L 172 3053 
L 172 3500 
L 594 3500 
L 594 4494 
L 1172 4494 
z
" transform="scale(0.015625)"/>
       <path id="DejaVuSans-28" d="M 1984 4856 
Q 1566 4138 1362 3434 
Q 1159 2731 1159 2009 
Q 1159 1288 1364 580 
Q 1569 -128 1984 -844 
L 1484 -844 
Q 1016 -109 783 600 
Q 550 1309 550 2009 
Q 550 2706 781 3412 
Q 1013 4119 1484 4856 
L 1984 4856 
z
" transform="scale(0.015625)"/>
       <path id="DejaVuSans-6c" d="M 603 4863 
L 1178 4863 
L 1178 0 
L 603 0 
L 603 4863 
z
" transform="scale(0.015625)"/>
       <path id="DejaVuSans-6f" d="M 1959 3097 
Q 1497 3097 1228 2736 
Q 959 2375 959 1747 
Q 959 1119 1226 758 
Q 1494 397 1959 397 
Q 2419 397 2687 759 
Q 2956 1122 2956 1747 
Q 2956 2369 2687 2733 
Q 2419 3097 1959 3097 
z
M 1959 3584 
Q 2709 3584 3137 3096 
Q 3566 2609 3566 1747 
Q 3566 888 3137 398 
Q 2709 -91 1959 -91 
Q 1206 -91 779 398 
Q 353 888 353 1747 
Q 353 2609 779 3096 
Q 1206 3584 1959 3584 
z
" transform="scale(0.015625)"/>
       <path id="DejaVuSans-69" d="M 603 3500 
L 1178 3500 
L 1178 0 
L 603 0 
L 603 3500 
z
M 603 4863 
L 1178 4863 
L 1178 4134 
L 603 4134 
L 603 4863 
z
" transform="scale(0.015625)"/>
       <path id="DejaVuSans-73" d="M 2834 3397 
L 2834 2853 
Q 2591 2978 2328 3040 
Q 2066 3103 1784 3103 
Q 1356 3103 1142 2972 
Q 928 2841 928 2578 
Q 928 2378 1081 2264 
Q 1234 2150 1697 2047 
L 1894 2003 
Q 2506 1872 2764 1633 
Q 3022 1394 3022 966 
Q 3022 478 2636 193 
Q 2250 -91 1575 -91 
Q 1294 -91 989 -36 
Q 684 19 347 128 
L 347 722 
Q 666 556 975 473 
Q 1284 391 1588 391 
Q 1994 391 2212 530 
Q 2431 669 2431 922 
Q 2431 1156 2273 1281 
Q 2116 1406 1581 1522 
L 1381 1569 
Q 847 1681 609 1914 
Q 372 2147 372 2553 
Q 372 3047 722 3315 
Q 1072 3584 1716 3584 
Q 2034 3584 2315 3537 
Q 2597 3491 2834 3397 
z
" transform="scale(0.015625)"/>
       <path id="DejaVuSans-61" d="M 2194 1759 
Q 1497 1759 1228 1600 
Q 959 1441 959 1056 
Q 959 750 1161 570 
Q 1363 391 1709 391 
Q 2188 391 2477 730 
Q 2766 1069 2766 1631 
L 2766 1759 
L 2194 1759 
z
M 3341 1997 
L 3341 0 
L 2766 0 
L 2766 531 
Q 2569 213 2275 61 
Q 1981 -91 1556 -91 
Q 1019 -91 701 211 
Q 384 513 384 1019 
Q 384 1609 779 1909 
Q 1175 2209 1959 2209 
L 2766 2209 
L 2766 2266 
Q 2766 2663 2505 2880 
Q 2244 3097 1772 3097 
Q 1472 3097 1187 3025 
Q 903 2953 641 2809 
L 641 3341 
Q 956 3463 1253 3523 
Q 1550 3584 1831 3584 
Q 2591 3584 2966 3190 
Q 3341 2797 3341 1997 
z
" transform="scale(0.015625)"/>
       <path id="DejaVuSans-70" d="M 1159 525 
L 1159 -1331 
L 581 -1331 
L 581 3500 
L 1159 3500 
L 1159 2969 
Q 1341 3281 1617 3432 
Q 1894 3584 2278 3584 
Q 2916 3584 3314 3078 
Q 3713 2572 3713 1747 
Q 3713 922 3314 415 
Q 2916 -91 2278 -91 
Q 1894 -91 1617 61 
Q 1341 213 1159 525 
z
M 3116 1747 
Q 3116 2381 2855 2742 
Q 2594 3103 2138 3103 
Q 1681 3103 1420 2742 
Q 1159 2381 1159 1747 
Q 1159 1113 1420 752 
Q 1681 391 2138 391 
Q 2594 391 2855 752 
Q 3116 1113 3116 1747 
z
" transform="scale(0.015625)"/>
       <path id="DejaVuSans-72" d="M 2631 2963 
Q 2534 3019 2420 3045 
Q 2306 3072 2169 3072 
Q 1681 3072 1420 2755 
Q 1159 2438 1159 1844 
L 1159 0 
L 581 0 
L 581 3500 
L 1159 3500 
L 1159 2956 
Q 1341 3275 1631 3429 
Q 1922 3584 2338 3584 
Q 2397 3584 2469 3576 
Q 2541 3569 2628 3553 
L 2631 2963 
z
" transform="scale(0.015625)"/>
       <path id="DejaVuSans-62" d="M 3116 1747 
Q 3116 2381 2855 2742 
Q 2594 3103 2138 3103 
Q 1681 3103 1420 2742 
Q 1159 2381 1159 1747 
Q 1159 1113 1420 752 
Q 1681 391 2138 391 
Q 2594 391 2855 752 
Q 3116 1113 3116 1747 
z
M 1159 2969 
Q 1341 3281 1617 3432 
Q 1894 3584 2278 3584 
Q 2916 3584 3314 3078 
Q 3713 2572 3713 1747 
Q 3713 922 3314 415 
Q 2916 -91 2278 -91 
Q 1894 -91 1617 61 
Q 1341 213 1159 525 
L 1159 0 
L 581 0 
L 581 4863 
L 1159 4863 
L 1159 2969 
z
" transform="scale(0.015625)"/>
       <path id="DejaVuSans-79" d="M 2059 -325 
Q 1816 -950 1584 -1140 
Q 1353 -1331 966 -1331 
L 506 -1331 
L 506 -850 
L 844 -850 
Q 1081 -850 1212 -737 
Q 1344 -625 1503 -206 
L 1606 56 
L 191 3500 
L 800 3500 
L 1894 763 
L 2988 3500 
L 3597 3500 
L 2059 -325 
z
" transform="scale(0.015625)"/>
       <path id="DejaVuSans-29" d="M 513 4856 
L 1013 4856 
Q 1481 4119 1714 3412 
Q 1947 2706 1947 2009 
Q 1947 1309 1714 600 
Q 1481 -109 1013 -844 
L 513 -844 
Q 928 -128 1133 580 
Q 1338 1288 1338 2009 
Q 1338 2731 1133 3434 
Q 928 4138 513 4856 
z
" transform="scale(0.015625)"/>
      </defs>
      <use xlink:href="#DejaVuSans-41"/>
      <use xlink:href="#DejaVuSans-67" x="68.408203"/>
      <use xlink:href="#DejaVuSans-65" x="131.884766"/>
      <use xlink:href="#DejaVuSans-20" x="193.408203"/>
      <use xlink:href="#DejaVuSans-65" x="225.195312"/>
      <use xlink:href="#DejaVuSans-66" x="286.71875"/>
      <use xlink:href="#DejaVuSans-66" x="321.923828"/>
      <use xlink:href="#DejaVuSans-65" x="357.128906"/>
      <use xlink:href="#DejaVuSans-63" x="418.652344"/>
      <use xlink:href="#DejaVuSans-74" x="473.632812"/>
      <use xlink:href="#DejaVuSans-20" x="512.841797"/>
      <use xlink:href="#DejaVuSans-28" x="544.628906"/>
      <use xlink:href="#DejaVuSans-6c" x="583.642578"/>
      <use xlink:href="#DejaVuSans-6f" x="611.425781"/>
      <use xlink:href="#DejaVuSans-67" x="672.607422"/>
      <use xlink:href="#DejaVuSans-69" x="736.083984"/>
      <use xlink:href="#DejaVuSans-74" x="763.867188"/>
      <use xlink:href="#DejaVuSans-20" x="803.076172"/>
      <use xlink:href="#DejaVuSans-73" x="834.863281"/>
      <use xlink:href="#DejaVuSans-63" x="886.962891"/>
      <use xlink:href="#DejaVuSans-61" x="941.943359"/>
      <use xlink:href="#DejaVuSans-6c" x="1003.222656"/>
      <use xlink:href="#DejaVuSans-65" x="1031.005859"/>
      <use xlink:href="#DejaVuSans-20" x="1092.529297"/>
      <use xlink:href="#DejaVuSans-70" x="1124.316406"/>
      <use xlink:href="#DejaVuSans-72" x="1187.792969"/>
      <use xlink:href="#DejaVuSans-6f" x="1226.65625"/>
      <use xlink:href="#DejaVuSans-62" x="1287.837891"/>
      <use xlink:href="#DejaVuSans-61" x="1351.314453"/>
      <use xlink:href="#DejaVuSans-62" x="1412.59375"/>
      <use xlink:href="#DejaVuSans-69" x="1476.070312"/>
      <use xlink:href="#DejaVuSans-6c" x="1503.853516"/>
      <use xlink:href="#DejaVuSans-69" x="1531.636719"/>
      <use xlink:href="#DejaVuSans-74" x="1559.419922"/>
      <use xlink:href="#DejaVuSans-79" x="1598.628906"/>
      <use xlink:href="#DejaVuSans-29" x="1657.808594"/>
     </g>
    </g>
   </g>
   <g id="matplotlib.axis_2">
    <g id="ytick_1">
     <g id="line2d_6">
      <defs>
       <path id="m931f3183e0" d="M 0 0 
L -3.5 0 
" style="stroke: #000000; stroke-width: 0.8"/>
      </defs>
      <g>
       <use xlink:href="#m931f3183e0" x="46.965625" y="320.4" style="stroke: #000000; stroke-width: 0.8"/>
      </g>
     </g>
     <g id="text_7">
      <!-- 0 -->
      <g transform="translate(33.603125 324.199219) scale(0.1 -0.1)">
       <use xlink:href="#DejaVuSans-30"/>
      </g>
     </g>
    </g>
    <g id="ytick_2">
     <g id="line2d_7">
      <g>
       <use xlink:href="#m931f3183e0" x="46.965625" y="263.747639" style="stroke: #000000; stroke-width: 0.8"/>
      </g>
     </g>
     <g id="text_8">
      <!-- 50 -->
      <g transform="translate(27.240625 267.546858) scale(0.1 -0.1)">
       <defs>
        <path id="DejaVuSans-35" d="M 691 4666 
L 3169 4666 
L 3169 4134 
L 1269 4134 
L 1269 2991 
Q 1406 3038 1543 3061 
Q 1681 3084 1819 3084 
Q 2600 3084 3056 2656 
Q 3513 2228 3513 1497 
Q 3513 744 3044 326 
Q 2575 -91 1722 -91 
Q 1428 -91 1123 -41 
Q 819 9 494 109 
L 494 744 
Q 775 591 1075 516 
Q 1375 441 1709 441 
Q 2250 441 2565 725 
Q 2881 1009 2881 1497 
Q 2881 1984 2565 2268 
Q 2250 2553 1709 2553 
Q 1456 2553 1204 2497 
Q 953 2441 691 2322 
L 691 4666 
z
" transform="scale(0.015625)"/>
       </defs>
       <use xlink:href="#DejaVuSans-35"/>
       <use xlink:href="#DejaVuSans-30" x="63.623047"/>
      </g>
     </g>
    </g>
    <g id="ytick_3">
     <g id="line2d_8">
      <g>
       <use xlink:href="#m931f3183e0" x="46.965625" y="207.095279" style="stroke: #000000; stroke-width: 0.8"/>
      </g>
     </g>
     <g id="text_9">
      <!-- 100 -->
      <g transform="translate(20.878125 210.894498) scale(0.1 -0.1)">
       <defs>
        <path id="DejaVuSans-31" d="M 794 531 
L 1825 531 
L 1825 4091 
L 703 3866 
L 703 4441 
L 1819 4666 
L 2450 4666 
L 2450 531 
L 3481 531 
L 3481 0 
L 794 0 
L 794 531 
z
" transform="scale(0.015625)"/>
       </defs>
       <use xlink:href="#DejaVuSans-31"/>
       <use xlink:href="#DejaVuSans-30" x="63.623047"/>
       <use xlink:href="#DejaVuSans-30" x="127.246094"/>
      </g>
     </g>
    </g>
    <g id="ytick_4">
     <g id="line2d_9">
      <g>
       <use xlink:href="#m931f3183e0" x="46.965625" y="150.442918" style="stroke: #000000; stroke-width: 0.8"/>
      </g>
     </g>
     <g id="text_10">
      <!-- 150 -->
      <g transform="translate(20.878125 154.242137) scale(0.1 -0.1)">
       <use xlink:href="#DejaVuSans-31"/>
       <use xlink:href="#DejaVuSans-35" x="63.623047"/>
       <use xlink:href="#DejaVuSans-30" x="127.246094"/>
      </g>
     </g>
    </g>
    <g id="ytick_5">
     <g id="line2d_10">
      <g>
       <use xlink:href="#m931f3183e0" x="46.965625" y="93.790558" style="stroke: #000000; stroke-width: 0.8"/>
      </g>
     </g>
     <g id="text_11">
      <!-- 200 -->
      <g transform="translate(20.878125 97.589777) scale(0.1 -0.1)">
       <use xlink:href="#DejaVuSans-32"/>
       <use xlink:href="#DejaVuSans-30" x="63.623047"/>
       <use xlink:href="#DejaVuSans-30" x="127.246094"/>
      </g>
     </g>
    </g>
    <g id="text_12">
     <!-- Posterior samples -->
     <g transform="translate(14.798438 226.266406) rotate(-90) scale(0.1 -0.1)">
      <defs>
       <path id="DejaVuSans-50" d="M 1259 4147 
L 1259 2394 
L 2053 2394 
Q 2494 2394 2734 2622 
Q 2975 2850 2975 3272 
Q 2975 3691 2734 3919 
Q 2494 4147 2053 4147 
L 1259 4147 
z
M 628 4666 
L 2053 4666 
Q 2838 4666 3239 4311 
Q 3641 3956 3641 3272 
Q 3641 2581 3239 2228 
Q 2838 1875 2053 1875 
L 1259 1875 
L 1259 0 
L 628 0 
L 628 4666 
z
" transform="scale(0.015625)"/>
       <path id="DejaVuSans-6d" d="M 3328 2828 
Q 3544 3216 3844 3400 
Q 4144 3584 4550 3584 
Q 5097 3584 5394 3201 
Q 5691 2819 5691 2113 
L 5691 0 
L 5113 0 
L 5113 2094 
Q 5113 2597 4934 2840 
Q 4756 3084 4391 3084 
Q 3944 3084 3684 2787 
Q 3425 2491 3425 1978 
L 3425 0 
L 2847 0 
L 2847 2094 
Q 2847 2600 2669 2842 
Q 2491 3084 2119 3084 
Q 1678 3084 1418 2786 
Q 1159 2488 1159 1978 
L 1159 0 
L 581 0 
L 581 3500 
L 1159 3500 
L 1159 2956 
Q 1356 3278 1631 3431 
Q 1906 3584 2284 3584 
Q 2666 3584 2933 3390 
Q 3200 3197 3328 2828 
z
" transform="scale(0.015625)"/>
      </defs>
      <use xlink:href="#DejaVuSans-50"/>
      <use xlink:href="#DejaVuSans-6f" x="56.677734"/>
      <use xlink:href="#DejaVuSans-73" x="117.859375"/>
      <use xlink:href="#DejaVuSans-74" x="169.958984"/>
      <use xlink:href="#DejaVuSans-65" x="209.167969"/>
      <use xlink:href="#DejaVuSans-72" x="270.691406"/>
      <use xlink:href="#DejaVuSans-69" x="311.804688"/>
      <use xlink:href="#DejaVuSans-6f" x="339.587891"/>
      <use xlink:href="#DejaVuSans-72" x="400.769531"/>
      <use xlink:href="#DejaVuSans-20" x="441.882812"/>
      <use xlink:href="#DejaVuSans-73" x="473.669922"/>
      <use xlink:href="#DejaVuSans-61" x="525.769531"/>
      <use xlink:href="#DejaVuSans-6d" x="587.048828"/>
      <use xlink:href="#DejaVuSans-70" x="684.460938"/>
      <use xlink:href="#DejaVuSans-6c" x="747.9375"/>
      <use xlink:href="#DejaVuSans-65" x="775.720703"/>
      <use xlink:href="#DejaVuSans-73" x="837.244141"/>
     </g>
    </g>
   </g>
   <g id="line2d_11">
    <path d="M 255.73229 320.4 
L 255.73229 43.2 
" clip-path="url(#p4ce545b30b)" style="fill: none; stroke-dasharray: 5.55,2.4; stroke-dashoffset: 0; stroke: #000000; stroke-width: 1.5"/>
   </g>
   <g id="patch_101">
    <path d="M 46.965625 320.4 
L 46.965625 43.2 
" style="fill: none; stroke: #000000; stroke-width: 0.8; stroke-linejoin: miter; stroke-linecap: square"/>
   </g>
   <g id="patch_102">
    <path d="M 427.42017 320.4 
L 427.42017 43.2 
" style="fill: none; stroke: #000000; stroke-width: 0.8; stroke-linejoin: miter; stroke-linecap: square"/>
   </g>
   <g id="patch_103">
    <path d="M 46.965625 320.4 
L 427.42017 320.4 
" style="fill: none; stroke: #000000; stroke-width: 0.8; stroke-linejoin: miter; stroke-linecap: square"/>
   </g>
   <g id="patch_104">
    <path d="M 46.965625 43.2 
L 427.42017 43.2 
" style="fill: none; stroke: #000000; stroke-width: 0.8; stroke-linejoin: miter; stroke-linecap: square"/>
   </g>
   <g id="text_13">
    <!-- Pr(+ve effect): 0.44 -->
    <g transform="translate(273.154411 263.747639) scale(0.0833 -0.0833)">
     <defs>
      <path id="DejaVuSans-2b" d="M 2944 4013 
L 2944 2272 
L 4684 2272 
L 4684 1741 
L 2944 1741 
L 2944 0 
L 2419 0 
L 2419 1741 
L 678 1741 
L 678 2272 
L 2419 2272 
L 2419 4013 
L 2944 4013 
z
" transform="scale(0.015625)"/>
      <path id="DejaVuSans-76" d="M 191 3500 
L 800 3500 
L 1894 563 
L 2988 3500 
L 3597 3500 
L 2284 0 
L 1503 0 
L 191 3500 
z
" transform="scale(0.015625)"/>
      <path id="DejaVuSans-3a" d="M 750 794 
L 1409 794 
L 1409 0 
L 750 0 
L 750 794 
z
M 750 3309 
L 1409 3309 
L 1409 2516 
L 750 2516 
L 750 3309 
z
" transform="scale(0.015625)"/>
     </defs>
     <use xlink:href="#DejaVuSans-50"/>
     <use xlink:href="#DejaVuSans-72" x="58.552734"/>
     <use xlink:href="#DejaVuSans-28" x="99.666016"/>
     <use xlink:href="#DejaVuSans-2b" x="138.679688"/>
     <use xlink:href="#DejaVuSans-76" x="222.46875"/>
     <use xlink:href="#DejaVuSans-65" x="281.648438"/>
     <use xlink:href="#DejaVuSans-20" x="343.171875"/>
     <use xlink:href="#DejaVuSans-65" x="374.958984"/>
     <use xlink:href="#DejaVuSans-66" x="436.482422"/>
     <use xlink:href="#DejaVuSans-66" x="471.6875"/>
     <use xlink:href="#DejaVuSans-65" x="506.892578"/>
     <use xlink:href="#DejaVuSans-63" x="568.416016"/>
     <use xlink:href="#DejaVuSans-74" x="623.396484"/>
     <use xlink:href="#DejaVuSans-29" x="662.605469"/>
     <use xlink:href="#DejaVuSans-3a" x="701.619141"/>
     <use xlink:href="#DejaVuSans-20" x="735.310547"/>
     <use xlink:href="#DejaVuSans-30" x="767.097656"/>
     <use xlink:href="#DejaVuSans-2e" x="830.720703"/>
     <use xlink:href="#DejaVuSans-34" x="862.507812"/>
     <use xlink:href="#DejaVuSans-34" x="926.130859"/>
    </g>
   </g>
   <g id="text_14">
    <!-- Sphincter -->
    <g transform="translate(208.49321 37.2) scale(0.12 -0.12)">
     <defs>
      <path id="DejaVuSans-53" d="M 3425 4513 
L 3425 3897 
Q 3066 4069 2747 4153 
Q 2428 4238 2131 4238 
Q 1616 4238 1336 4038 
Q 1056 3838 1056 3469 
Q 1056 3159 1242 3001 
Q 1428 2844 1947 2747 
L 2328 2669 
Q 3034 2534 3370 2195 
Q 3706 1856 3706 1288 
Q 3706 609 3251 259 
Q 2797 -91 1919 -91 
Q 1588 -91 1214 -16 
Q 841 59 441 206 
L 441 856 
Q 825 641 1194 531 
Q 1563 422 1919 422 
Q 2459 422 2753 634 
Q 3047 847 3047 1241 
Q 3047 1584 2836 1778 
Q 2625 1972 2144 2069 
L 1759 2144 
Q 1053 2284 737 2584 
Q 422 2884 422 3419 
Q 422 4038 858 4394 
Q 1294 4750 2059 4750 
Q 2388 4750 2728 4690 
Q 3069 4631 3425 4513 
z
" transform="scale(0.015625)"/>
      <path id="DejaVuSans-68" d="M 3513 2113 
L 3513 0 
L 2938 0 
L 2938 2094 
Q 2938 2591 2744 2837 
Q 2550 3084 2163 3084 
Q 1697 3084 1428 2787 
Q 1159 2491 1159 1978 
L 1159 0 
L 581 0 
L 581 4863 
L 1159 4863 
L 1159 2956 
Q 1366 3272 1645 3428 
Q 1925 3584 2291 3584 
Q 2894 3584 3203 3211 
Q 3513 2838 3513 2113 
z
" transform="scale(0.015625)"/>
      <path id="DejaVuSans-6e" d="M 3513 2113 
L 3513 0 
L 2938 0 
L 2938 2094 
Q 2938 2591 2744 2837 
Q 2550 3084 2163 3084 
Q 1697 3084 1428 2787 
Q 1159 2491 1159 1978 
L 1159 0 
L 581 0 
L 581 3500 
L 1159 3500 
L 1159 2956 
Q 1366 3272 1645 3428 
Q 1925 3584 2291 3584 
Q 2894 3584 3203 3211 
Q 3513 2838 3513 2113 
z
" transform="scale(0.015625)"/>
     </defs>
     <use xlink:href="#DejaVuSans-53"/>
     <use xlink:href="#DejaVuSans-70" x="63.476562"/>
     <use xlink:href="#DejaVuSans-68" x="126.953125"/>
     <use xlink:href="#DejaVuSans-69" x="190.332031"/>
     <use xlink:href="#DejaVuSans-6e" x="218.115234"/>
     <use xlink:href="#DejaVuSans-63" x="281.494141"/>
     <use xlink:href="#DejaVuSans-74" x="336.474609"/>
     <use xlink:href="#DejaVuSans-65" x="375.683594"/>
     <use xlink:href="#DejaVuSans-72" x="437.207031"/>
    </g>
   </g>
  </g>
  <g id="axes_2">
   <g id="patch_105">
    <path d="M 503.51108 320.4 
L 883.965625 320.4 
L 883.965625 43.2 
L 503.51108 43.2 
z
" style="fill: #ffffff"/>
   </g>
   <g id="patch_106">
    <path d="M 554.13569 320.4 
L 560.513987 320.4 
L 560.513987 320.4 
L 554.13569 320.4 
z
" clip-path="url(#pca08b9331d)" style="fill: #1f77b4"/>
   </g>
   <g id="patch_107">
    <path d="M 560.513987 320.4 
L 566.892284 320.4 
L 566.892284 320.4 
L 560.513987 320.4 
z
" clip-path="url(#pca08b9331d)" style="fill: #1f77b4"/>
   </g>
   <g id="patch_108">
    <path d="M 566.892284 320.4 
L 573.270581 320.4 
L 573.270581 320.4 
L 566.892284 320.4 
z
" clip-path="url(#pca08b9331d)" style="fill: #1f77b4"/>
   </g>
   <g id="patch_109">
    <path d="M 573.270581 320.4 
L 579.648878 320.4 
L 579.648878 320.4 
L 573.270581 320.4 
z
" clip-path="url(#pca08b9331d)" style="fill: #1f77b4"/>
   </g>
   <g id="patch_110">
    <path d="M 579.648878 320.4 
L 586.027174 320.4 
L 586.027174 320.4 
L 579.648878 320.4 
z
" clip-path="url(#pca08b9331d)" style="fill: #1f77b4"/>
   </g>
   <g id="patch_111">
    <path d="M 586.027174 320.4 
L 592.405471 320.4 
L 592.405471 320.4 
L 586.027174 320.4 
z
" clip-path="url(#pca08b9331d)" style="fill: #1f77b4"/>
   </g>
   <g id="patch_112">
    <path d="M 592.405471 320.4 
L 598.783768 320.4 
L 598.783768 320.4 
L 592.405471 320.4 
z
" clip-path="url(#pca08b9331d)" style="fill: #1f77b4"/>
   </g>
   <g id="patch_113">
    <path d="M 598.783768 320.4 
L 605.162065 320.4 
L 605.162065 320.4 
L 598.783768 320.4 
z
" clip-path="url(#pca08b9331d)" style="fill: #1f77b4"/>
   </g>
   <g id="patch_114">
    <path d="M 605.162065 320.4 
L 611.540362 320.4 
L 611.540362 320.4 
L 605.162065 320.4 
z
" clip-path="url(#pca08b9331d)" style="fill: #1f77b4"/>
   </g>
   <g id="patch_115">
    <path d="M 611.540362 320.4 
L 617.918659 320.4 
L 617.918659 320.4 
L 611.540362 320.4 
z
" clip-path="url(#pca08b9331d)" style="fill: #1f77b4"/>
   </g>
   <g id="patch_116">
    <path d="M 617.918659 320.4 
L 624.296956 320.4 
L 624.296956 320.4 
L 617.918659 320.4 
z
" clip-path="url(#pca08b9331d)" style="fill: #1f77b4"/>
   </g>
   <g id="patch_117">
    <path d="M 624.296956 320.4 
L 630.675253 320.4 
L 630.675253 320.4 
L 624.296956 320.4 
z
" clip-path="url(#pca08b9331d)" style="fill: #1f77b4"/>
   </g>
   <g id="patch_118">
    <path d="M 630.675253 320.4 
L 637.053549 320.4 
L 637.053549 320.4 
L 630.675253 320.4 
z
" clip-path="url(#pca08b9331d)" style="fill: #1f77b4"/>
   </g>
   <g id="patch_119">
    <path d="M 637.053549 320.4 
L 643.431846 320.4 
L 643.431846 320.4 
L 637.053549 320.4 
z
" clip-path="url(#pca08b9331d)" style="fill: #1f77b4"/>
   </g>
   <g id="patch_120">
    <path d="M 643.431846 320.4 
L 649.810143 320.4 
L 649.810143 320.4 
L 643.431846 320.4 
z
" clip-path="url(#pca08b9331d)" style="fill: #1f77b4"/>
   </g>
   <g id="patch_121">
    <path d="M 649.810143 320.4 
L 656.18844 320.4 
L 656.18844 320.4 
L 649.810143 320.4 
z
" clip-path="url(#pca08b9331d)" style="fill: #1f77b4"/>
   </g>
   <g id="patch_122">
    <path d="M 656.18844 320.4 
L 662.566737 320.4 
L 662.566737 320.4 
L 656.18844 320.4 
z
" clip-path="url(#pca08b9331d)" style="fill: #1f77b4"/>
   </g>
   <g id="patch_123">
    <path d="M 662.566737 320.4 
L 668.945034 320.4 
L 668.945034 320.4 
L 662.566737 320.4 
z
" clip-path="url(#pca08b9331d)" style="fill: #1f77b4"/>
   </g>
   <g id="patch_124">
    <path d="M 668.945034 320.4 
L 675.323331 320.4 
L 675.323331 320.4 
L 668.945034 320.4 
z
" clip-path="url(#pca08b9331d)" style="fill: #1f77b4"/>
   </g>
   <g id="patch_125">
    <path d="M 675.323331 320.4 
L 681.701627 320.4 
L 681.701627 320.4 
L 675.323331 320.4 
z
" clip-path="url(#pca08b9331d)" style="fill: #1f77b4"/>
   </g>
   <g id="patch_126">
    <path d="M 681.701627 320.4 
L 688.079924 320.4 
L 688.079924 320.4 
L 681.701627 320.4 
z
" clip-path="url(#pca08b9331d)" style="fill: #1f77b4"/>
   </g>
   <g id="patch_127">
    <path d="M 688.079924 320.4 
L 694.458221 320.4 
L 694.458221 320.4 
L 688.079924 320.4 
z
" clip-path="url(#pca08b9331d)" style="fill: #1f77b4"/>
   </g>
   <g id="patch_128">
    <path d="M 694.458221 320.4 
L 700.836518 320.4 
L 700.836518 320.4 
L 694.458221 320.4 
z
" clip-path="url(#pca08b9331d)" style="fill: #1f77b4"/>
   </g>
   <g id="patch_129">
    <path d="M 700.836518 320.4 
L 707.214815 320.4 
L 707.214815 320.4 
L 700.836518 320.4 
z
" clip-path="url(#pca08b9331d)" style="fill: #1f77b4"/>
   </g>
   <g id="patch_130">
    <path d="M 707.214815 320.4 
L 713.593112 320.4 
L 713.593112 320.4 
L 707.214815 320.4 
z
" clip-path="url(#pca08b9331d)" style="fill: #1f77b4"/>
   </g>
   <g id="patch_131">
    <path d="M 713.593112 320.4 
L 719.971409 320.4 
L 719.971409 320.4 
L 713.593112 320.4 
z
" clip-path="url(#pca08b9331d)" style="fill: #1f77b4"/>
   </g>
   <g id="patch_132">
    <path d="M 719.971409 320.4 
L 726.349706 320.4 
L 726.349706 320.4 
L 719.971409 320.4 
z
" clip-path="url(#pca08b9331d)" style="fill: #1f77b4"/>
   </g>
   <g id="patch_133">
    <path d="M 726.349706 320.4 
L 732.728002 320.4 
L 732.728002 320.4 
L 726.349706 320.4 
z
" clip-path="url(#pca08b9331d)" style="fill: #1f77b4"/>
   </g>
   <g id="patch_134">
    <path d="M 732.728002 320.4 
L 739.106299 320.4 
L 739.106299 320.4 
L 732.728002 320.4 
z
" clip-path="url(#pca08b9331d)" style="fill: #1f77b4"/>
   </g>
   <g id="patch_135">
    <path d="M 739.106299 320.4 
L 745.484596 320.4 
L 745.484596 320.4 
L 739.106299 320.4 
z
" clip-path="url(#pca08b9331d)" style="fill: #1f77b4"/>
   </g>
   <g id="patch_136">
    <path d="M 745.484596 320.4 
L 751.862893 320.4 
L 751.862893 320.4 
L 745.484596 320.4 
z
" clip-path="url(#pca08b9331d)" style="fill: #1f77b4"/>
   </g>
   <g id="patch_137">
    <path d="M 751.862893 320.4 
L 758.24119 320.4 
L 758.24119 320.4 
L 751.862893 320.4 
z
" clip-path="url(#pca08b9331d)" style="fill: #1f77b4"/>
   </g>
   <g id="patch_138">
    <path d="M 758.24119 320.4 
L 764.619487 320.4 
L 764.619487 320.4 
L 758.24119 320.4 
z
" clip-path="url(#pca08b9331d)" style="fill: #1f77b4"/>
   </g>
   <g id="patch_139">
    <path d="M 764.619487 320.4 
L 770.997784 320.4 
L 770.997784 320.4 
L 764.619487 320.4 
z
" clip-path="url(#pca08b9331d)" style="fill: #1f77b4"/>
   </g>
   <g id="patch_140">
    <path d="M 770.997784 320.4 
L 777.37608 320.4 
L 777.37608 320.4 
L 770.997784 320.4 
z
" clip-path="url(#pca08b9331d)" style="fill: #1f77b4"/>
   </g>
   <g id="patch_141">
    <path d="M 777.37608 320.4 
L 783.754377 320.4 
L 783.754377 320.4 
L 777.37608 320.4 
z
" clip-path="url(#pca08b9331d)" style="fill: #1f77b4"/>
   </g>
   <g id="patch_142">
    <path d="M 783.754377 320.4 
L 790.132674 320.4 
L 790.132674 320.4 
L 783.754377 320.4 
z
" clip-path="url(#pca08b9331d)" style="fill: #1f77b4"/>
   </g>
   <g id="patch_143">
    <path d="M 790.132674 320.4 
L 796.510971 320.4 
L 796.510971 320.4 
L 790.132674 320.4 
z
" clip-path="url(#pca08b9331d)" style="fill: #1f77b4"/>
   </g>
   <g id="patch_144">
    <path d="M 796.510971 320.4 
L 802.889268 320.4 
L 802.889268 320.4 
L 796.510971 320.4 
z
" clip-path="url(#pca08b9331d)" style="fill: #1f77b4"/>
   </g>
   <g id="patch_145">
    <path d="M 802.889268 320.4 
L 809.267565 320.4 
L 809.267565 320.4 
L 802.889268 320.4 
z
" clip-path="url(#pca08b9331d)" style="fill: #1f77b4"/>
   </g>
   <g id="patch_146">
    <path d="M 809.267565 320.4 
L 815.645862 320.4 
L 815.645862 320.4 
L 809.267565 320.4 
z
" clip-path="url(#pca08b9331d)" style="fill: #1f77b4"/>
   </g>
   <g id="patch_147">
    <path d="M 815.645862 320.4 
L 822.024159 320.4 
L 822.024159 320.4 
L 815.645862 320.4 
z
" clip-path="url(#pca08b9331d)" style="fill: #1f77b4"/>
   </g>
   <g id="patch_148">
    <path d="M 822.024159 320.4 
L 828.402455 320.4 
L 828.402455 320.4 
L 822.024159 320.4 
z
" clip-path="url(#pca08b9331d)" style="fill: #1f77b4"/>
   </g>
   <g id="patch_149">
    <path d="M 828.402455 320.4 
L 834.780752 320.4 
L 834.780752 320.4 
L 828.402455 320.4 
z
" clip-path="url(#pca08b9331d)" style="fill: #1f77b4"/>
   </g>
   <g id="patch_150">
    <path d="M 834.780752 320.4 
L 841.159049 320.4 
L 841.159049 320.4 
L 834.780752 320.4 
z
" clip-path="url(#pca08b9331d)" style="fill: #1f77b4"/>
   </g>
   <g id="patch_151">
    <path d="M 841.159049 320.4 
L 847.537346 320.4 
L 847.537346 320.4 
L 841.159049 320.4 
z
" clip-path="url(#pca08b9331d)" style="fill: #1f77b4"/>
   </g>
   <g id="patch_152">
    <path d="M 847.537346 320.4 
L 853.915643 320.4 
L 853.915643 320.4 
L 847.537346 320.4 
z
" clip-path="url(#pca08b9331d)" style="fill: #1f77b4"/>
   </g>
   <g id="patch_153">
    <path d="M 853.915643 320.4 
L 860.29394 320.4 
L 860.29394 320.4 
L 853.915643 320.4 
z
" clip-path="url(#pca08b9331d)" style="fill: #1f77b4"/>
   </g>
   <g id="patch_154">
    <path d="M 860.29394 320.4 
L 866.672237 320.4 
L 866.672237 320.4 
L 860.29394 320.4 
z
" clip-path="url(#pca08b9331d)" style="fill: #1f77b4"/>
   </g>
   <g id="patch_155">
    <path d="M 554.13569 320.4 
L 560.513987 320.4 
L 560.513987 319.266953 
L 554.13569 319.266953 
z
" clip-path="url(#pca08b9331d)" style="fill: #1f77b4; opacity: 0.3"/>
   </g>
   <g id="patch_156">
    <path d="M 560.513987 320.4 
L 566.892284 320.4 
L 566.892284 320.4 
L 560.513987 320.4 
z
" clip-path="url(#pca08b9331d)" style="fill: #1f77b4; opacity: 0.3"/>
   </g>
   <g id="patch_157">
    <path d="M 566.892284 320.4 
L 573.270581 320.4 
L 573.270581 320.4 
L 566.892284 320.4 
z
" clip-path="url(#pca08b9331d)" style="fill: #1f77b4; opacity: 0.3"/>
   </g>
   <g id="patch_158">
    <path d="M 573.270581 320.4 
L 579.648878 320.4 
L 579.648878 318.133906 
L 573.270581 318.133906 
z
" clip-path="url(#pca08b9331d)" style="fill: #1f77b4; opacity: 0.3"/>
   </g>
   <g id="patch_159">
    <path d="M 579.648878 320.4 
L 586.027174 320.4 
L 586.027174 312.46867 
L 579.648878 312.46867 
z
" clip-path="url(#pca08b9331d)" style="fill: #1f77b4; opacity: 0.3"/>
   </g>
   <g id="patch_160">
    <path d="M 586.027174 320.4 
L 592.405471 320.4 
L 592.405471 318.133906 
L 586.027174 318.133906 
z
" clip-path="url(#pca08b9331d)" style="fill: #1f77b4; opacity: 0.3"/>
   </g>
   <g id="patch_161">
    <path d="M 592.405471 320.4 
L 598.783768 320.4 
L 598.783768 306.803433 
L 592.405471 306.803433 
z
" clip-path="url(#pca08b9331d)" style="fill: #1f77b4; opacity: 0.3"/>
   </g>
   <g id="patch_162">
    <path d="M 598.783768 320.4 
L 605.162065 320.4 
L 605.162065 311.335622 
L 598.783768 311.335622 
z
" clip-path="url(#pca08b9331d)" style="fill: #1f77b4; opacity: 0.3"/>
   </g>
   <g id="patch_163">
    <path d="M 605.162065 320.4 
L 611.540362 320.4 
L 611.540362 310.202575 
L 605.162065 310.202575 
z
" clip-path="url(#pca08b9331d)" style="fill: #1f77b4; opacity: 0.3"/>
   </g>
   <g id="patch_164">
    <path d="M 611.540362 320.4 
L 617.918659 320.4 
L 617.918659 309.069528 
L 611.540362 309.069528 
z
" clip-path="url(#pca08b9331d)" style="fill: #1f77b4; opacity: 0.3"/>
   </g>
   <g id="patch_165">
    <path d="M 617.918659 320.4 
L 624.296956 320.4 
L 624.296956 295.472961 
L 617.918659 295.472961 
z
" clip-path="url(#pca08b9331d)" style="fill: #1f77b4; opacity: 0.3"/>
   </g>
   <g id="patch_166">
    <path d="M 624.296956 320.4 
L 630.675253 320.4 
L 630.675253 287.541631 
L 624.296956 287.541631 
z
" clip-path="url(#pca08b9331d)" style="fill: #1f77b4; opacity: 0.3"/>
   </g>
   <g id="patch_167">
    <path d="M 630.675253 320.4 
L 637.053549 320.4 
L 637.053549 276.211159 
L 630.675253 276.211159 
z
" clip-path="url(#pca08b9331d)" style="fill: #1f77b4; opacity: 0.3"/>
   </g>
   <g id="patch_168">
    <path d="M 637.053549 320.4 
L 643.431846 320.4 
L 643.431846 245.618884 
L 637.053549 245.618884 
z
" clip-path="url(#pca08b9331d)" style="fill: #1f77b4; opacity: 0.3"/>
   </g>
   <g id="patch_169">
    <path d="M 643.431846 320.4 
L 649.810143 320.4 
L 649.810143 247.884979 
L 643.431846 247.884979 
z
" clip-path="url(#pca08b9331d)" style="fill: #1f77b4; opacity: 0.3"/>
   </g>
   <g id="patch_170">
    <path d="M 649.810143 320.4 
L 656.18844 320.4 
L 656.18844 224.090987 
L 649.810143 224.090987 
z
" clip-path="url(#pca08b9331d)" style="fill: #1f77b4; opacity: 0.3"/>
   </g>
   <g id="patch_171">
    <path d="M 656.18844 320.4 
L 662.566737 320.4 
L 662.566737 199.163948 
L 656.18844 199.163948 
z
" clip-path="url(#pca08b9331d)" style="fill: #1f77b4; opacity: 0.3"/>
   </g>
   <g id="patch_172">
    <path d="M 662.566737 320.4 
L 668.945034 320.4 
L 668.945034 193.498712 
L 662.566737 193.498712 
z
" clip-path="url(#pca08b9331d)" style="fill: #1f77b4; opacity: 0.3"/>
   </g>
   <g id="patch_173">
    <path d="M 668.945034 320.4 
L 675.323331 320.4 
L 675.323331 145.91073 
L 668.945034 145.91073 
z
" clip-path="url(#pca08b9331d)" style="fill: #1f77b4; opacity: 0.3"/>
   </g>
   <g id="patch_174">
    <path d="M 675.323331 320.4 
L 681.701627 320.4 
L 681.701627 125.51588 
L 675.323331 125.51588 
z
" clip-path="url(#pca08b9331d)" style="fill: #1f77b4; opacity: 0.3"/>
   </g>
   <g id="patch_175">
    <path d="M 681.701627 320.4 
L 688.079924 320.4 
L 688.079924 127.781974 
L 681.701627 127.781974 
z
" clip-path="url(#pca08b9331d)" style="fill: #1f77b4; opacity: 0.3"/>
   </g>
   <g id="patch_176">
    <path d="M 688.079924 320.4 
L 694.458221 320.4 
L 694.458221 84.72618 
L 688.079924 84.72618 
z
" clip-path="url(#pca08b9331d)" style="fill: #1f77b4; opacity: 0.3"/>
   </g>
   <g id="patch_177">
    <path d="M 694.458221 320.4 
L 700.836518 320.4 
L 700.836518 81.327039 
L 694.458221 81.327039 
z
" clip-path="url(#pca08b9331d)" style="fill: #1f77b4; opacity: 0.3"/>
   </g>
   <g id="patch_178">
    <path d="M 700.836518 320.4 
L 707.214815 320.4 
L 707.214815 84.72618 
L 700.836518 84.72618 
z
" clip-path="url(#pca08b9331d)" style="fill: #1f77b4; opacity: 0.3"/>
   </g>
   <g id="patch_179">
    <path d="M 707.214815 320.4 
L 713.593112 320.4 
L 713.593112 84.72618 
L 707.214815 84.72618 
z
" clip-path="url(#pca08b9331d)" style="fill: #1f77b4; opacity: 0.3"/>
   </g>
   <g id="patch_180">
    <path d="M 713.593112 320.4 
L 719.971409 320.4 
L 719.971409 66.597425 
L 713.593112 66.597425 
z
" clip-path="url(#pca08b9331d)" style="fill: #1f77b4; opacity: 0.3"/>
   </g>
   <g id="patch_181">
    <path d="M 719.971409 320.4 
L 726.349706 320.4 
L 726.349706 62.065236 
L 719.971409 62.065236 
z
" clip-path="url(#pca08b9331d)" style="fill: #1f77b4; opacity: 0.3"/>
   </g>
   <g id="patch_182">
    <path d="M 726.349706 320.4 
L 732.728002 320.4 
L 732.728002 62.065236 
L 726.349706 62.065236 
z
" clip-path="url(#pca08b9331d)" style="fill: #1f77b4; opacity: 0.3"/>
   </g>
   <g id="patch_183">
    <path d="M 732.728002 320.4 
L 739.106299 320.4 
L 739.106299 81.327039 
L 732.728002 81.327039 
z
" clip-path="url(#pca08b9331d)" style="fill: #1f77b4; opacity: 0.3"/>
   </g>
   <g id="patch_184">
    <path d="M 739.106299 320.4 
L 745.484596 320.4 
L 745.484596 91.524464 
L 739.106299 91.524464 
z
" clip-path="url(#pca08b9331d)" style="fill: #1f77b4; opacity: 0.3"/>
   </g>
   <g id="patch_185">
    <path d="M 745.484596 320.4 
L 751.862893 320.4 
L 751.862893 118.717597 
L 745.484596 118.717597 
z
" clip-path="url(#pca08b9331d)" style="fill: #1f77b4; opacity: 0.3"/>
   </g>
   <g id="patch_186">
    <path d="M 751.862893 320.4 
L 758.24119 320.4 
L 758.24119 148.176824 
L 751.862893 148.176824 
z
" clip-path="url(#pca08b9331d)" style="fill: #1f77b4; opacity: 0.3"/>
   </g>
   <g id="patch_187">
    <path d="M 758.24119 320.4 
L 764.619487 320.4 
L 764.619487 176.503004 
L 758.24119 176.503004 
z
" clip-path="url(#pca08b9331d)" style="fill: #1f77b4; opacity: 0.3"/>
   </g>
   <g id="patch_188">
    <path d="M 764.619487 320.4 
L 770.997784 320.4 
L 770.997784 185.567382 
L 764.619487 185.567382 
z
" clip-path="url(#pca08b9331d)" style="fill: #1f77b4; opacity: 0.3"/>
   </g>
   <g id="patch_189">
    <path d="M 770.997784 320.4 
L 777.37608 320.4 
L 777.37608 215.026609 
L 770.997784 215.026609 
z
" clip-path="url(#pca08b9331d)" style="fill: #1f77b4; opacity: 0.3"/>
   </g>
   <g id="patch_190">
    <path d="M 777.37608 320.4 
L 783.754377 320.4 
L 783.754377 224.090987 
L 777.37608 224.090987 
z
" clip-path="url(#pca08b9331d)" style="fill: #1f77b4; opacity: 0.3"/>
   </g>
   <g id="patch_191">
    <path d="M 783.754377 320.4 
L 790.132674 320.4 
L 790.132674 243.35279 
L 783.754377 243.35279 
z
" clip-path="url(#pca08b9331d)" style="fill: #1f77b4; opacity: 0.3"/>
   </g>
   <g id="patch_192">
    <path d="M 790.132674 320.4 
L 796.510971 320.4 
L 796.510971 269.412876 
L 790.132674 269.412876 
z
" clip-path="url(#pca08b9331d)" style="fill: #1f77b4; opacity: 0.3"/>
   </g>
   <g id="patch_193">
    <path d="M 796.510971 320.4 
L 802.889268 320.4 
L 802.889268 284.142489 
L 796.510971 284.142489 
z
" clip-path="url(#pca08b9331d)" style="fill: #1f77b4; opacity: 0.3"/>
   </g>
   <g id="patch_194">
    <path d="M 802.889268 320.4 
L 809.267565 320.4 
L 809.267565 283.009442 
L 802.889268 283.009442 
z
" clip-path="url(#pca08b9331d)" style="fill: #1f77b4; opacity: 0.3"/>
   </g>
   <g id="patch_195">
    <path d="M 809.267565 320.4 
L 815.645862 320.4 
L 815.645862 300.00515 
L 809.267565 300.00515 
z
" clip-path="url(#pca08b9331d)" style="fill: #1f77b4; opacity: 0.3"/>
   </g>
   <g id="patch_196">
    <path d="M 815.645862 320.4 
L 822.024159 320.4 
L 822.024159 297.739056 
L 815.645862 297.739056 
z
" clip-path="url(#pca08b9331d)" style="fill: #1f77b4; opacity: 0.3"/>
   </g>
   <g id="patch_197">
    <path d="M 822.024159 320.4 
L 828.402455 320.4 
L 828.402455 314.734764 
L 822.024159 314.734764 
z
" clip-path="url(#pca08b9331d)" style="fill: #1f77b4; opacity: 0.3"/>
   </g>
   <g id="patch_198">
    <path d="M 828.402455 320.4 
L 834.780752 320.4 
L 834.780752 314.734764 
L 828.402455 314.734764 
z
" clip-path="url(#pca08b9331d)" style="fill: #1f77b4; opacity: 0.3"/>
   </g>
   <g id="patch_199">
    <path d="M 834.780752 320.4 
L 841.159049 320.4 
L 841.159049 311.335622 
L 834.780752 311.335622 
z
" clip-path="url(#pca08b9331d)" style="fill: #1f77b4; opacity: 0.3"/>
   </g>
   <g id="patch_200">
    <path d="M 841.159049 320.4 
L 847.537346 320.4 
L 847.537346 313.601717 
L 841.159049 313.601717 
z
" clip-path="url(#pca08b9331d)" style="fill: #1f77b4; opacity: 0.3"/>
   </g>
   <g id="patch_201">
    <path d="M 847.537346 320.4 
L 853.915643 320.4 
L 853.915643 315.867811 
L 847.537346 315.867811 
z
" clip-path="url(#pca08b9331d)" style="fill: #1f77b4; opacity: 0.3"/>
   </g>
   <g id="patch_202">
    <path d="M 853.915643 320.4 
L 860.29394 320.4 
L 860.29394 319.266953 
L 853.915643 319.266953 
z
" clip-path="url(#pca08b9331d)" style="fill: #1f77b4; opacity: 0.3"/>
   </g>
   <g id="patch_203">
    <path d="M 860.29394 320.4 
L 866.672237 320.4 
L 866.672237 318.133906 
L 860.29394 318.133906 
z
" clip-path="url(#pca08b9331d)" style="fill: #1f77b4; opacity: 0.3"/>
   </g>
   <g id="matplotlib.axis_3">
    <g id="xtick_6">
     <g id="line2d_12">
      <g>
       <use xlink:href="#m40db730900" x="520.804468" y="320.4" style="stroke: #000000; stroke-width: 0.8"/>
      </g>
     </g>
     <g id="text_15">
      <!-- 0.0 -->
      <g transform="translate(512.852905 334.998437) scale(0.1 -0.1)">
       <use xlink:href="#DejaVuSans-30"/>
       <use xlink:href="#DejaVuSans-2e" x="63.623047"/>
       <use xlink:href="#DejaVuSans-30" x="95.410156"/>
      </g>
     </g>
    </g>
    <g id="xtick_7">
     <g id="line2d_13">
      <g>
       <use xlink:href="#m40db730900" x="582.022845" y="320.4" style="stroke: #000000; stroke-width: 0.8"/>
      </g>
     </g>
     <g id="text_16">
      <!-- 0.2 -->
      <g transform="translate(574.071282 334.998437) scale(0.1 -0.1)">
       <use xlink:href="#DejaVuSans-30"/>
       <use xlink:href="#DejaVuSans-2e" x="63.623047"/>
       <use xlink:href="#DejaVuSans-32" x="95.410156"/>
      </g>
     </g>
    </g>
    <g id="xtick_8">
     <g id="line2d_14">
      <g>
       <use xlink:href="#m40db730900" x="643.241221" y="320.4" style="stroke: #000000; stroke-width: 0.8"/>
      </g>
     </g>
     <g id="text_17">
      <!-- 0.4 -->
      <g transform="translate(635.289659 334.998437) scale(0.1 -0.1)">
       <use xlink:href="#DejaVuSans-30"/>
       <use xlink:href="#DejaVuSans-2e" x="63.623047"/>
       <use xlink:href="#DejaVuSans-34" x="95.410156"/>
      </g>
     </g>
    </g>
    <g id="xtick_9">
     <g id="line2d_15">
      <g>
       <use xlink:href="#m40db730900" x="704.459598" y="320.4" style="stroke: #000000; stroke-width: 0.8"/>
      </g>
     </g>
     <g id="text_18">
      <!-- 0.6 -->
      <g transform="translate(696.508035 334.998437) scale(0.1 -0.1)">
       <defs>
        <path id="DejaVuSans-36" d="M 2113 2584 
Q 1688 2584 1439 2293 
Q 1191 2003 1191 1497 
Q 1191 994 1439 701 
Q 1688 409 2113 409 
Q 2538 409 2786 701 
Q 3034 994 3034 1497 
Q 3034 2003 2786 2293 
Q 2538 2584 2113 2584 
z
M 3366 4563 
L 3366 3988 
Q 3128 4100 2886 4159 
Q 2644 4219 2406 4219 
Q 1781 4219 1451 3797 
Q 1122 3375 1075 2522 
Q 1259 2794 1537 2939 
Q 1816 3084 2150 3084 
Q 2853 3084 3261 2657 
Q 3669 2231 3669 1497 
Q 3669 778 3244 343 
Q 2819 -91 2113 -91 
Q 1303 -91 875 529 
Q 447 1150 447 2328 
Q 447 3434 972 4092 
Q 1497 4750 2381 4750 
Q 2619 4750 2861 4703 
Q 3103 4656 3366 4563 
z
" transform="scale(0.015625)"/>
       </defs>
       <use xlink:href="#DejaVuSans-30"/>
       <use xlink:href="#DejaVuSans-2e" x="63.623047"/>
       <use xlink:href="#DejaVuSans-36" x="95.410156"/>
      </g>
     </g>
    </g>
    <g id="xtick_10">
     <g id="line2d_16">
      <g>
       <use xlink:href="#m40db730900" x="765.677974" y="320.4" style="stroke: #000000; stroke-width: 0.8"/>
      </g>
     </g>
     <g id="text_19">
      <!-- 0.8 -->
      <g transform="translate(757.726412 334.998437) scale(0.1 -0.1)">
       <defs>
        <path id="DejaVuSans-38" d="M 2034 2216 
Q 1584 2216 1326 1975 
Q 1069 1734 1069 1313 
Q 1069 891 1326 650 
Q 1584 409 2034 409 
Q 2484 409 2743 651 
Q 3003 894 3003 1313 
Q 3003 1734 2745 1975 
Q 2488 2216 2034 2216 
z
M 1403 2484 
Q 997 2584 770 2862 
Q 544 3141 544 3541 
Q 544 4100 942 4425 
Q 1341 4750 2034 4750 
Q 2731 4750 3128 4425 
Q 3525 4100 3525 3541 
Q 3525 3141 3298 2862 
Q 3072 2584 2669 2484 
Q 3125 2378 3379 2068 
Q 3634 1759 3634 1313 
Q 3634 634 3220 271 
Q 2806 -91 2034 -91 
Q 1263 -91 848 271 
Q 434 634 434 1313 
Q 434 1759 690 2068 
Q 947 2378 1403 2484 
z
M 1172 3481 
Q 1172 3119 1398 2916 
Q 1625 2713 2034 2713 
Q 2441 2713 2670 2916 
Q 2900 3119 2900 3481 
Q 2900 3844 2670 4047 
Q 2441 4250 2034 4250 
Q 1625 4250 1398 4047 
Q 1172 3844 1172 3481 
z
" transform="scale(0.015625)"/>
       </defs>
       <use xlink:href="#DejaVuSans-30"/>
       <use xlink:href="#DejaVuSans-2e" x="63.623047"/>
       <use xlink:href="#DejaVuSans-38" x="95.410156"/>
      </g>
     </g>
    </g>
    <g id="xtick_11">
     <g id="line2d_17">
      <g>
       <use xlink:href="#m40db730900" x="826.896351" y="320.4" style="stroke: #000000; stroke-width: 0.8"/>
      </g>
     </g>
     <g id="text_20">
      <!-- 1.0 -->
      <g transform="translate(818.944789 334.998437) scale(0.1 -0.1)">
       <use xlink:href="#DejaVuSans-31"/>
       <use xlink:href="#DejaVuSans-2e" x="63.623047"/>
       <use xlink:href="#DejaVuSans-30" x="95.410156"/>
      </g>
     </g>
    </g>
    <g id="text_21">
     <!-- Age effect (logit scale probability) -->
     <g transform="translate(608.895384 348.676562) scale(0.1 -0.1)">
      <use xlink:href="#DejaVuSans-41"/>
      <use xlink:href="#DejaVuSans-67" x="68.408203"/>
      <use xlink:href="#DejaVuSans-65" x="131.884766"/>
      <use xlink:href="#DejaVuSans-20" x="193.408203"/>
      <use xlink:href="#DejaVuSans-65" x="225.195312"/>
      <use xlink:href="#DejaVuSans-66" x="286.71875"/>
      <use xlink:href="#DejaVuSans-66" x="321.923828"/>
      <use xlink:href="#DejaVuSans-65" x="357.128906"/>
      <use xlink:href="#DejaVuSans-63" x="418.652344"/>
      <use xlink:href="#DejaVuSans-74" x="473.632812"/>
      <use xlink:href="#DejaVuSans-20" x="512.841797"/>
      <use xlink:href="#DejaVuSans-28" x="544.628906"/>
      <use xlink:href="#DejaVuSans-6c" x="583.642578"/>
      <use xlink:href="#DejaVuSans-6f" x="611.425781"/>
      <use xlink:href="#DejaVuSans-67" x="672.607422"/>
      <use xlink:href="#DejaVuSans-69" x="736.083984"/>
      <use xlink:href="#DejaVuSans-74" x="763.867188"/>
      <use xlink:href="#DejaVuSans-20" x="803.076172"/>
      <use xlink:href="#DejaVuSans-73" x="834.863281"/>
      <use xlink:href="#DejaVuSans-63" x="886.962891"/>
      <use xlink:href="#DejaVuSans-61" x="941.943359"/>
      <use xlink:href="#DejaVuSans-6c" x="1003.222656"/>
      <use xlink:href="#DejaVuSans-65" x="1031.005859"/>
      <use xlink:href="#DejaVuSans-20" x="1092.529297"/>
      <use xlink:href="#DejaVuSans-70" x="1124.316406"/>
      <use xlink:href="#DejaVuSans-72" x="1187.792969"/>
      <use xlink:href="#DejaVuSans-6f" x="1226.65625"/>
      <use xlink:href="#DejaVuSans-62" x="1287.837891"/>
      <use xlink:href="#DejaVuSans-61" x="1351.314453"/>
      <use xlink:href="#DejaVuSans-62" x="1412.59375"/>
      <use xlink:href="#DejaVuSans-69" x="1476.070312"/>
      <use xlink:href="#DejaVuSans-6c" x="1503.853516"/>
      <use xlink:href="#DejaVuSans-69" x="1531.636719"/>
      <use xlink:href="#DejaVuSans-74" x="1559.419922"/>
      <use xlink:href="#DejaVuSans-79" x="1598.628906"/>
      <use xlink:href="#DejaVuSans-29" x="1657.808594"/>
     </g>
    </g>
   </g>
   <g id="matplotlib.axis_4">
    <g id="ytick_6">
     <g id="line2d_18">
      <g>
       <use xlink:href="#m931f3183e0" x="503.51108" y="320.4" style="stroke: #000000; stroke-width: 0.8"/>
      </g>
     </g>
    </g>
    <g id="ytick_7">
     <g id="line2d_19">
      <g>
       <use xlink:href="#m931f3183e0" x="503.51108" y="263.747639" style="stroke: #000000; stroke-width: 0.8"/>
      </g>
     </g>
    </g>
    <g id="ytick_8">
     <g id="line2d_20">
      <g>
       <use xlink:href="#m931f3183e0" x="503.51108" y="207.095279" style="stroke: #000000; stroke-width: 0.8"/>
      </g>
     </g>
    </g>
    <g id="ytick_9">
     <g id="line2d_21">
      <g>
       <use xlink:href="#m931f3183e0" x="503.51108" y="150.442918" style="stroke: #000000; stroke-width: 0.8"/>
      </g>
     </g>
    </g>
    <g id="ytick_10">
     <g id="line2d_22">
      <g>
       <use xlink:href="#m931f3183e0" x="503.51108" y="93.790558" style="stroke: #000000; stroke-width: 0.8"/>
      </g>
     </g>
    </g>
   </g>
   <g id="line2d_23">
    <path d="M 520.804468 320.4 
L 520.804468 43.2 
" clip-path="url(#pca08b9331d)" style="fill: none; stroke-dasharray: 5.55,2.4; stroke-dashoffset: 0; stroke: #000000; stroke-width: 1.5"/>
   </g>
   <g id="patch_204">
    <path d="M 503.51108 320.4 
L 503.51108 43.2 
" style="fill: none; stroke: #000000; stroke-width: 0.8; stroke-linejoin: miter; stroke-linecap: square"/>
   </g>
   <g id="patch_205">
    <path d="M 883.965625 320.4 
L 883.965625 43.2 
" style="fill: none; stroke: #000000; stroke-width: 0.8; stroke-linejoin: miter; stroke-linecap: square"/>
   </g>
   <g id="patch_206">
    <path d="M 503.51108 320.4 
L 883.965625 320.4 
" style="fill: none; stroke: #000000; stroke-width: 0.8; stroke-linejoin: miter; stroke-linecap: square"/>
   </g>
   <g id="patch_207">
    <path d="M 503.51108 43.2 
L 883.965625 43.2 
" style="fill: none; stroke: #000000; stroke-width: 0.8; stroke-linejoin: miter; stroke-linecap: square"/>
   </g>
   <g id="text_22">
    <!-- Pr(+ve effect): 1.0 -->
    <g transform="translate(536.109062 263.747639) scale(0.0833 -0.0833)">
     <use xlink:href="#DejaVuSans-50"/>
     <use xlink:href="#DejaVuSans-72" x="58.552734"/>
     <use xlink:href="#DejaVuSans-28" x="99.666016"/>
     <use xlink:href="#DejaVuSans-2b" x="138.679688"/>
     <use xlink:href="#DejaVuSans-76" x="222.46875"/>
     <use xlink:href="#DejaVuSans-65" x="281.648438"/>
     <use xlink:href="#DejaVuSans-20" x="343.171875"/>
     <use xlink:href="#DejaVuSans-65" x="374.958984"/>
     <use xlink:href="#DejaVuSans-66" x="436.482422"/>
     <use xlink:href="#DejaVuSans-66" x="471.6875"/>
     <use xlink:href="#DejaVuSans-65" x="506.892578"/>
     <use xlink:href="#DejaVuSans-63" x="568.416016"/>
     <use xlink:href="#DejaVuSans-74" x="623.396484"/>
     <use xlink:href="#DejaVuSans-29" x="662.605469"/>
     <use xlink:href="#DejaVuSans-3a" x="701.619141"/>
     <use xlink:href="#DejaVuSans-20" x="735.310547"/>
     <use xlink:href="#DejaVuSans-31" x="767.097656"/>
     <use xlink:href="#DejaVuSans-2e" x="830.720703"/>
     <use xlink:href="#DejaVuSans-30" x="862.507812"/>
    </g>
   </g>
   <g id="text_23">
    <!-- Bulb -->
    <g transform="translate(680.343352 37.2) scale(0.12 -0.12)">
     <defs>
      <path id="DejaVuSans-42" d="M 1259 2228 
L 1259 519 
L 2272 519 
Q 2781 519 3026 730 
Q 3272 941 3272 1375 
Q 3272 1813 3026 2020 
Q 2781 2228 2272 2228 
L 1259 2228 
z
M 1259 4147 
L 1259 2741 
L 2194 2741 
Q 2656 2741 2882 2914 
Q 3109 3088 3109 3444 
Q 3109 3797 2882 3972 
Q 2656 4147 2194 4147 
L 1259 4147 
z
M 628 4666 
L 2241 4666 
Q 2963 4666 3353 4366 
Q 3744 4066 3744 3513 
Q 3744 3084 3544 2831 
Q 3344 2578 2956 2516 
Q 3422 2416 3680 2098 
Q 3938 1781 3938 1306 
Q 3938 681 3513 340 
Q 3088 0 2303 0 
L 628 0 
L 628 4666 
z
" transform="scale(0.015625)"/>
      <path id="DejaVuSans-75" d="M 544 1381 
L 544 3500 
L 1119 3500 
L 1119 1403 
Q 1119 906 1312 657 
Q 1506 409 1894 409 
Q 2359 409 2629 706 
Q 2900 1003 2900 1516 
L 2900 3500 
L 3475 3500 
L 3475 0 
L 2900 0 
L 2900 538 
Q 2691 219 2414 64 
Q 2138 -91 1772 -91 
Q 1169 -91 856 284 
Q 544 659 544 1381 
z
M 1991 3584 
L 1991 3584 
z
" transform="scale(0.015625)"/>
     </defs>
     <use xlink:href="#DejaVuSans-42"/>
     <use xlink:href="#DejaVuSans-75" x="68.603516"/>
     <use xlink:href="#DejaVuSans-6c" x="131.982422"/>
     <use xlink:href="#DejaVuSans-62" x="159.765625"/>
    </g>
   </g>
  </g>
  <g id="text_24">
   <!-- Age effects on probability of a branchpoint having a sphincter or bulb -->
   <g transform="translate(242.66875 16.318125) scale(0.12 -0.12)">
    <use xlink:href="#DejaVuSans-41"/>
    <use xlink:href="#DejaVuSans-67" x="68.408203"/>
    <use xlink:href="#DejaVuSans-65" x="131.884766"/>
    <use xlink:href="#DejaVuSans-20" x="193.408203"/>
    <use xlink:href="#DejaVuSans-65" x="225.195312"/>
    <use xlink:href="#DejaVuSans-66" x="286.71875"/>
    <use xlink:href="#DejaVuSans-66" x="321.923828"/>
    <use xlink:href="#DejaVuSans-65" x="357.128906"/>
    <use xlink:href="#DejaVuSans-63" x="418.652344"/>
    <use xlink:href="#DejaVuSans-74" x="473.632812"/>
    <use xlink:href="#DejaVuSans-73" x="512.841797"/>
    <use xlink:href="#DejaVuSans-20" x="564.941406"/>
    <use xlink:href="#DejaVuSans-6f" x="596.728516"/>
    <use xlink:href="#DejaVuSans-6e" x="657.910156"/>
    <use xlink:href="#DejaVuSans-20" x="721.289062"/>
    <use xlink:href="#DejaVuSans-70" x="753.076172"/>
    <use xlink:href="#DejaVuSans-72" x="816.552734"/>
    <use xlink:href="#DejaVuSans-6f" x="855.416016"/>
    <use xlink:href="#DejaVuSans-62" x="916.597656"/>
    <use xlink:href="#DejaVuSans-61" x="980.074219"/>
    <use xlink:href="#DejaVuSans-62" x="1041.353516"/>
    <use xlink:href="#DejaVuSans-69" x="1104.830078"/>
    <use xlink:href="#DejaVuSans-6c" x="1132.613281"/>
    <use xlink:href="#DejaVuSans-69" x="1160.396484"/>
    <use xlink:href="#DejaVuSans-74" x="1188.179688"/>
    <use xlink:href="#DejaVuSans-79" x="1227.388672"/>
    <use xlink:href="#DejaVuSans-20" x="1286.568359"/>
    <use xlink:href="#DejaVuSans-6f" x="1318.355469"/>
    <use xlink:href="#DejaVuSans-66" x="1379.537109"/>
    <use xlink:href="#DejaVuSans-20" x="1414.742188"/>
    <use xlink:href="#DejaVuSans-61" x="1446.529297"/>
    <use xlink:href="#DejaVuSans-20" x="1507.808594"/>
    <use xlink:href="#DejaVuSans-62" x="1539.595703"/>
    <use xlink:href="#DejaVuSans-72" x="1603.072266"/>
    <use xlink:href="#DejaVuSans-61" x="1644.185547"/>
    <use xlink:href="#DejaVuSans-6e" x="1705.464844"/>
    <use xlink:href="#DejaVuSans-63" x="1768.84375"/>
    <use xlink:href="#DejaVuSans-68" x="1823.824219"/>
    <use xlink:href="#DejaVuSans-70" x="1887.203125"/>
    <use xlink:href="#DejaVuSans-6f" x="1950.679688"/>
    <use xlink:href="#DejaVuSans-69" x="2011.861328"/>
    <use xlink:href="#DejaVuSans-6e" x="2039.644531"/>
    <use xlink:href="#DejaVuSans-74" x="2103.023438"/>
    <use xlink:href="#DejaVuSans-20" x="2142.232422"/>
    <use xlink:href="#DejaVuSans-68" x="2174.019531"/>
    <use xlink:href="#DejaVuSans-61" x="2237.398438"/>
    <use xlink:href="#DejaVuSans-76" x="2298.677734"/>
    <use xlink:href="#DejaVuSans-69" x="2357.857422"/>
    <use xlink:href="#DejaVuSans-6e" x="2385.640625"/>
    <use xlink:href="#DejaVuSans-67" x="2449.019531"/>
    <use xlink:href="#DejaVuSans-20" x="2512.496094"/>
    <use xlink:href="#DejaVuSans-61" x="2544.283203"/>
    <use xlink:href="#DejaVuSans-20" x="2605.5625"/>
    <use xlink:href="#DejaVuSans-73" x="2637.349609"/>
    <use xlink:href="#DejaVuSans-70" x="2689.449219"/>
    <use xlink:href="#DejaVuSans-68" x="2752.925781"/>
    <use xlink:href="#DejaVuSans-69" x="2816.304688"/>
    <use xlink:href="#DejaVuSans-6e" x="2844.087891"/>
    <use xlink:href="#DejaVuSans-63" x="2907.466797"/>
    <use xlink:href="#DejaVuSans-74" x="2962.447266"/>
    <use xlink:href="#DejaVuSans-65" x="3001.65625"/>
    <use xlink:href="#DejaVuSans-72" x="3063.179688"/>
    <use xlink:href="#DejaVuSans-20" x="3104.292969"/>
    <use xlink:href="#DejaVuSans-6f" x="3136.080078"/>
    <use xlink:href="#DejaVuSans-72" x="3197.261719"/>
    <use xlink:href="#DejaVuSans-20" x="3238.375"/>
    <use xlink:href="#DejaVuSans-62" x="3270.162109"/>
    <use xlink:href="#DejaVuSans-75" x="3333.638672"/>
    <use xlink:href="#DejaVuSans-6c" x="3397.017578"/>
    <use xlink:href="#DejaVuSans-62" x="3424.800781"/>
   </g>
  </g>
 </g>
 <defs>
  <clipPath id="p4ce545b30b">
   <rect x="46.965625" y="43.2" width="380.454545" height="277.2"/>
  </clipPath>
  <clipPath id="pca08b9331d">
   <rect x="503.51108" y="43.2" width="380.454545" height="277.2"/>
  </clipPath>
 </defs>
</svg>
