<?xml version="1.0" encoding="utf-8" standalone="no"?>
<!DOCTYPE svg PUBLIC "-//W3C//DTD SVG 1.1//EN"
  "http://www.w3.org/Graphics/SVG/1.1/DTD/svg11.dtd">
<svg xmlns:xlink="http://www.w3.org/1999/xlink" width="891.165625pt" height="337.074375pt" viewBox="0 0 891.165625 337.074375" xmlns="http://www.w3.org/2000/svg" version="1.1">
 <metadata>
  <rdf:RDF xmlns:dc="http://purl.org/dc/elements/1.1/" xmlns:cc="http://creativecommons.org/ns#" xmlns:rdf="http://www.w3.org/1999/02/22-rdf-syntax-ns#">
   <cc:Work>
    <dc:type rdf:resource="http://purl.org/dc/dcmitype/StillImage"/>
    <dc:date>2025-02-07T14:42:48.329436</dc:date>
    <dc:format>image/svg+xml</dc:format>
    <dc:creator>
     <cc:Agent>
      <dc:title>Matplotlib v3.9.2, https://matplotlib.org/</dc:title>
     </cc:Agent>
    </dc:creator>
   </cc:Work>
  </rdf:RDF>
 </metadata>
 <defs>
  <style type="text/css">*{stroke-linejoin: round; stroke-linecap: butt}</style>
 </defs>
 <g id="figure_1">
  <g id="patch_1">
   <path d="M 0 337.074375 
L 891.165625 337.074375 
L 891.165625 0 
L 0 0 
z
" style="fill: #ffffff"/>
  </g>
  <g id="axes_1">
   <g id="patch_2">
    <path d="M 46.965625 299.518125 
L 427.42017 299.518125 
L 427.42017 22.318125 
L 46.965625 22.318125 
z
" style="fill: #ffffff"/>
   </g>
   <g id="line2d_1">
    <path d="M 105.676181 299.518125 
L 105.676181 22.318125 
" clip-path="url(#p03055902fa)" style="fill: none; stroke-dasharray: 1.85,0.8; stroke-dashoffset: 0; stroke: #000000; stroke-width: 0.5"/>
   </g>
   <g id="patch_3">
    <path d="M 190.925952 299.518125 
L 201.885993 299.518125 
L 201.885993 298.182543 
L 190.925952 298.182543 
z
" clip-path="url(#p03055902fa)" style="fill: #66c2a5; opacity: 0.6"/>
   </g>
   <g id="patch_4">
    <path d="M 201.885993 299.518125 
L 212.846035 299.518125 
L 212.846035 294.620992 
L 201.885993 294.620992 
z
" clip-path="url(#p03055902fa)" style="fill: #66c2a5; opacity: 0.6"/>
   </g>
   <g id="patch_5">
    <path d="M 212.846035 299.518125 
L 223.806076 299.518125 
L 223.806076 287.943083 
L 212.846035 287.943083 
z
" clip-path="url(#p03055902fa)" style="fill: #66c2a5; opacity: 0.6"/>
   </g>
   <g id="patch_6">
    <path d="M 223.806076 299.518125 
L 234.766118 299.518125 
L 234.766118 272.361295 
L 223.806076 272.361295 
z
" clip-path="url(#p03055902fa)" style="fill: #66c2a5; opacity: 0.6"/>
   </g>
   <g id="patch_7">
    <path d="M 234.766118 299.518125 
L 245.726159 299.518125 
L 245.726159 243.42369 
L 234.766118 243.42369 
z
" clip-path="url(#p03055902fa)" style="fill: #66c2a5; opacity: 0.6"/>
   </g>
   <g id="patch_8">
    <path d="M 245.726159 299.518125 
L 256.686201 299.518125 
L 256.686201 219.828412 
L 245.726159 219.828412 
z
" clip-path="url(#p03055902fa)" style="fill: #66c2a5; opacity: 0.6"/>
   </g>
   <g id="patch_9">
    <path d="M 256.686201 299.518125 
L 267.646242 299.518125 
L 267.646242 157.501262 
L 256.686201 157.501262 
z
" clip-path="url(#p03055902fa)" style="fill: #66c2a5; opacity: 0.6"/>
   </g>
   <g id="patch_10">
    <path d="M 267.646242 299.518125 
L 278.606284 299.518125 
L 278.606284 104.07799 
L 267.646242 104.07799 
z
" clip-path="url(#p03055902fa)" style="fill: #66c2a5; opacity: 0.6"/>
   </g>
   <g id="patch_11">
    <path d="M 278.606284 299.518125 
L 289.566325 299.518125 
L 289.566325 80.037518 
L 278.606284 80.037518 
z
" clip-path="url(#p03055902fa)" style="fill: #66c2a5; opacity: 0.6"/>
   </g>
   <g id="patch_12">
    <path d="M 289.566325 299.518125 
L 300.526367 299.518125 
L 300.526367 35.518125 
L 289.566325 35.518125 
z
" clip-path="url(#p03055902fa)" style="fill: #66c2a5; opacity: 0.6"/>
   </g>
   <g id="patch_13">
    <path d="M 300.526367 299.518125 
L 311.486408 299.518125 
L 311.486408 65.346118 
L 300.526367 65.346118 
z
" clip-path="url(#p03055902fa)" style="fill: #66c2a5; opacity: 0.6"/>
   </g>
   <g id="patch_14">
    <path d="M 311.486408 299.518125 
L 322.44645 299.518125 
L 322.44645 95.619305 
L 311.486408 95.619305 
z
" clip-path="url(#p03055902fa)" style="fill: #66c2a5; opacity: 0.6"/>
   </g>
   <g id="patch_15">
    <path d="M 322.44645 299.518125 
L 333.406491 299.518125 
L 333.406491 147.706995 
L 322.44645 147.706995 
z
" clip-path="url(#p03055902fa)" style="fill: #66c2a5; opacity: 0.6"/>
   </g>
   <g id="patch_16">
    <path d="M 333.406491 299.518125 
L 344.366533 299.518125 
L 344.366533 210.034145 
L 333.406491 210.034145 
z
" clip-path="url(#p03055902fa)" style="fill: #66c2a5; opacity: 0.6"/>
   </g>
   <g id="patch_17">
    <path d="M 344.366533 299.518125 
L 355.326574 299.518125 
L 355.326574 251.882375 
L 344.366533 251.882375 
z
" clip-path="url(#p03055902fa)" style="fill: #66c2a5; opacity: 0.6"/>
   </g>
   <g id="patch_18">
    <path d="M 355.326574 299.518125 
L 366.286616 299.518125 
L 366.286616 267.909356 
L 355.326574 267.909356 
z
" clip-path="url(#p03055902fa)" style="fill: #66c2a5; opacity: 0.6"/>
   </g>
   <g id="patch_19">
    <path d="M 366.286616 299.518125 
L 377.246657 299.518125 
L 377.246657 288.388277 
L 366.286616 288.388277 
z
" clip-path="url(#p03055902fa)" style="fill: #66c2a5; opacity: 0.6"/>
   </g>
   <g id="patch_20">
    <path d="M 377.246657 299.518125 
L 388.206699 299.518125 
L 388.206699 293.28541 
L 377.246657 293.28541 
z
" clip-path="url(#p03055902fa)" style="fill: #66c2a5; opacity: 0.6"/>
   </g>
   <g id="patch_21">
    <path d="M 388.206699 299.518125 
L 399.166741 299.518125 
L 399.166741 297.737349 
L 388.206699 297.737349 
z
" clip-path="url(#p03055902fa)" style="fill: #66c2a5; opacity: 0.6"/>
   </g>
   <g id="patch_22">
    <path d="M 399.166741 299.518125 
L 410.126782 299.518125 
L 410.126782 298.182543 
L 399.166741 298.182543 
z
" clip-path="url(#p03055902fa)" style="fill: #66c2a5; opacity: 0.6"/>
   </g>
   <g id="patch_23">
    <path d="M 64.259013 299.518125 
L 72.482229 299.518125 
L 72.482229 296.846961 
L 64.259013 296.846961 
z
" clip-path="url(#p03055902fa)" style="fill: #fc8d62; opacity: 0.6"/>
   </g>
   <g id="patch_24">
    <path d="M 72.482229 299.518125 
L 80.705445 299.518125 
L 80.705445 295.956574 
L 72.482229 295.956574 
z
" clip-path="url(#p03055902fa)" style="fill: #fc8d62; opacity: 0.6"/>
   </g>
   <g id="patch_25">
    <path d="M 80.705445 299.518125 
L 88.92866 299.518125 
L 88.92866 291.949828 
L 80.705445 291.949828 
z
" clip-path="url(#p03055902fa)" style="fill: #fc8d62; opacity: 0.6"/>
   </g>
   <g id="patch_26">
    <path d="M 88.92866 299.518125 
L 97.151876 299.518125 
L 97.151876 281.710368 
L 88.92866 281.710368 
z
" clip-path="url(#p03055902fa)" style="fill: #fc8d62; opacity: 0.6"/>
   </g>
   <g id="patch_27">
    <path d="M 97.151876 299.518125 
L 105.375092 299.518125 
L 105.375092 255.443926 
L 97.151876 255.443926 
z
" clip-path="url(#p03055902fa)" style="fill: #fc8d62; opacity: 0.6"/>
   </g>
   <g id="patch_28">
    <path d="M 105.375092 299.518125 
L 113.598307 299.518125 
L 113.598307 230.067872 
L 105.375092 230.067872 
z
" clip-path="url(#p03055902fa)" style="fill: #fc8d62; opacity: 0.6"/>
   </g>
   <g id="patch_29">
    <path d="M 113.598307 299.518125 
L 121.821523 299.518125 
L 121.821523 179.760958 
L 113.598307 179.760958 
z
" clip-path="url(#p03055902fa)" style="fill: #fc8d62; opacity: 0.6"/>
   </g>
   <g id="patch_30">
    <path d="M 121.821523 299.518125 
L 130.044738 299.518125 
L 130.044738 139.24831 
L 121.821523 139.24831 
z
" clip-path="url(#p03055902fa)" style="fill: #fc8d62; opacity: 0.6"/>
   </g>
   <g id="patch_31">
    <path d="M 130.044738 299.518125 
L 138.267954 299.518125 
L 138.267954 101.85202 
L 130.044738 101.85202 
z
" clip-path="url(#p03055902fa)" style="fill: #fc8d62; opacity: 0.6"/>
   </g>
   <g id="patch_32">
    <path d="M 138.267954 299.518125 
L 146.49117 299.518125 
L 146.49117 58.223015 
L 138.267954 58.223015 
z
" clip-path="url(#p03055902fa)" style="fill: #fc8d62; opacity: 0.6"/>
   </g>
   <g id="patch_33">
    <path d="M 146.49117 299.518125 
L 154.714385 299.518125 
L 154.714385 64.900924 
L 146.49117 64.900924 
z
" clip-path="url(#p03055902fa)" style="fill: #fc8d62; opacity: 0.6"/>
   </g>
   <g id="patch_34">
    <path d="M 154.714385 299.518125 
L 162.937601 299.518125 
L 162.937601 83.153875 
L 154.714385 83.153875 
z
" clip-path="url(#p03055902fa)" style="fill: #fc8d62; opacity: 0.6"/>
   </g>
   <g id="patch_35">
    <path d="M 162.937601 299.518125 
L 171.160817 299.518125 
L 171.160817 127.228074 
L 162.937601 127.228074 
z
" clip-path="url(#p03055902fa)" style="fill: #fc8d62; opacity: 0.6"/>
   </g>
   <g id="patch_36">
    <path d="M 171.160817 299.518125 
L 179.384032 299.518125 
L 179.384032 179.760958 
L 171.160817 179.760958 
z
" clip-path="url(#p03055902fa)" style="fill: #fc8d62; opacity: 0.6"/>
   </g>
   <g id="patch_37">
    <path d="M 179.384032 299.518125 
L 187.607248 299.518125 
L 187.607248 215.821666 
L 179.384032 215.821666 
z
" clip-path="url(#p03055902fa)" style="fill: #fc8d62; opacity: 0.6"/>
   </g>
   <g id="patch_38">
    <path d="M 187.607248 299.518125 
L 195.830464 299.518125 
L 195.830464 249.656405 
L 187.607248 249.656405 
z
" clip-path="url(#p03055902fa)" style="fill: #fc8d62; opacity: 0.6"/>
   </g>
   <g id="patch_39">
    <path d="M 195.830464 299.518125 
L 204.053679 299.518125 
L 204.053679 275.032459 
L 195.830464 275.032459 
z
" clip-path="url(#p03055902fa)" style="fill: #fc8d62; opacity: 0.6"/>
   </g>
   <g id="patch_40">
    <path d="M 204.053679 299.518125 
L 212.276895 299.518125 
L 212.276895 290.169052 
L 204.053679 290.169052 
z
" clip-path="url(#p03055902fa)" style="fill: #fc8d62; opacity: 0.6"/>
   </g>
   <g id="patch_41">
    <path d="M 212.276895 299.518125 
L 220.50011 299.518125 
L 220.50011 295.51138 
L 212.276895 295.51138 
z
" clip-path="url(#p03055902fa)" style="fill: #fc8d62; opacity: 0.6"/>
   </g>
   <g id="patch_42">
    <path d="M 220.50011 299.518125 
L 228.723326 299.518125 
L 228.723326 297.292155 
L 220.50011 297.292155 
z
" clip-path="url(#p03055902fa)" style="fill: #fc8d62; opacity: 0.6"/>
   </g>
   <g id="patch_43">
    <path d="M 152.839841 299.518125 
L 165.096226 299.518125 
L 165.096226 299.072931 
L 152.839841 299.072931 
z
" clip-path="url(#p03055902fa)" style="fill: #8da0cb; opacity: 0.6"/>
   </g>
   <g id="patch_44">
    <path d="M 165.096226 299.518125 
L 177.352611 299.518125 
L 177.352611 299.518125 
L 165.096226 299.518125 
z
" clip-path="url(#p03055902fa)" style="fill: #8da0cb; opacity: 0.6"/>
   </g>
   <g id="patch_45">
    <path d="M 177.352611 299.518125 
L 189.608996 299.518125 
L 189.608996 296.401767 
L 177.352611 296.401767 
z
" clip-path="url(#p03055902fa)" style="fill: #8da0cb; opacity: 0.6"/>
   </g>
   <g id="patch_46">
    <path d="M 189.608996 299.518125 
L 201.86538 299.518125 
L 201.86538 294.175798 
L 189.608996 294.175798 
z
" clip-path="url(#p03055902fa)" style="fill: #8da0cb; opacity: 0.6"/>
   </g>
   <g id="patch_47">
    <path d="M 201.86538 299.518125 
L 214.121765 299.518125 
L 214.121765 284.381531 
L 201.86538 284.381531 
z
" clip-path="url(#p03055902fa)" style="fill: #8da0cb; opacity: 0.6"/>
   </g>
   <g id="patch_48">
    <path d="M 214.121765 299.518125 
L 226.37815 299.518125 
L 226.37815 264.792999 
L 214.121765 264.792999 
z
" clip-path="url(#p03055902fa)" style="fill: #8da0cb; opacity: 0.6"/>
   </g>
   <g id="patch_49">
    <path d="M 226.37815 299.518125 
L 238.634535 299.518125 
L 238.634535 234.074617 
L 226.37815 234.074617 
z
" clip-path="url(#p03055902fa)" style="fill: #8da0cb; opacity: 0.6"/>
   </g>
   <g id="patch_50">
    <path d="M 238.634535 299.518125 
L 250.89092 299.518125 
L 250.89092 178.87057 
L 238.634535 178.87057 
z
" clip-path="url(#p03055902fa)" style="fill: #8da0cb; opacity: 0.6"/>
   </g>
   <g id="patch_51">
    <path d="M 250.89092 299.518125 
L 263.147304 299.518125 
L 263.147304 116.098226 
L 250.89092 116.098226 
z
" clip-path="url(#p03055902fa)" style="fill: #8da0cb; opacity: 0.6"/>
   </g>
   <g id="patch_52">
    <path d="M 263.147304 299.518125 
L 275.403689 299.518125 
L 275.403689 84.489457 
L 263.147304 84.489457 
z
" clip-path="url(#p03055902fa)" style="fill: #8da0cb; opacity: 0.6"/>
   </g>
   <g id="patch_53">
    <path d="M 275.403689 299.518125 
L 287.660074 299.518125 
L 287.660074 47.538361 
L 275.403689 47.538361 
z
" clip-path="url(#p03055902fa)" style="fill: #8da0cb; opacity: 0.6"/>
   </g>
   <g id="patch_54">
    <path d="M 287.660074 299.518125 
L 299.916459 299.518125 
L 299.916459 39.970064 
L 287.660074 39.970064 
z
" clip-path="url(#p03055902fa)" style="fill: #8da0cb; opacity: 0.6"/>
   </g>
   <g id="patch_55">
    <path d="M 299.916459 299.518125 
L 312.172844 299.518125 
L 312.172844 78.701936 
L 299.916459 78.701936 
z
" clip-path="url(#p03055902fa)" style="fill: #8da0cb; opacity: 0.6"/>
   </g>
   <g id="patch_56">
    <path d="M 312.172844 299.518125 
L 324.429229 299.518125 
L 324.429229 130.789626 
L 312.172844 130.789626 
z
" clip-path="url(#p03055902fa)" style="fill: #8da0cb; opacity: 0.6"/>
   </g>
   <g id="patch_57">
    <path d="M 324.429229 299.518125 
L 336.685613 299.518125 
L 336.685613 181.09654 
L 324.429229 181.09654 
z
" clip-path="url(#p03055902fa)" style="fill: #8da0cb; opacity: 0.6"/>
   </g>
   <g id="patch_58">
    <path d="M 336.685613 299.518125 
L 348.941998 299.518125 
L 348.941998 231.848648 
L 336.685613 231.848648 
z
" clip-path="url(#p03055902fa)" style="fill: #8da0cb; opacity: 0.6"/>
   </g>
   <g id="patch_59">
    <path d="M 348.941998 299.518125 
L 361.198383 299.518125 
L 361.198383 272.361295 
L 348.941998 272.361295 
z
" clip-path="url(#p03055902fa)" style="fill: #8da0cb; opacity: 0.6"/>
   </g>
   <g id="patch_60">
    <path d="M 361.198383 299.518125 
L 373.454768 299.518125 
L 373.454768 284.381531 
L 361.198383 284.381531 
z
" clip-path="url(#p03055902fa)" style="fill: #8da0cb; opacity: 0.6"/>
   </g>
   <g id="patch_61">
    <path d="M 373.454768 299.518125 
L 385.711153 299.518125 
L 385.711153 294.175798 
L 373.454768 294.175798 
z
" clip-path="url(#p03055902fa)" style="fill: #8da0cb; opacity: 0.6"/>
   </g>
   <g id="patch_62">
    <path d="M 385.711153 299.518125 
L 397.967537 299.518125 
L 397.967537 296.846961 
L 385.711153 296.846961 
z
" clip-path="url(#p03055902fa)" style="fill: #8da0cb; opacity: 0.6"/>
   </g>
   <g id="matplotlib.axis_1">
    <g id="xtick_1">
     <g id="line2d_2">
      <defs>
       <path id="mdaaa95c294" d="M 0 0 
L 0 3.5 
" style="stroke: #000000; stroke-width: 0.8"/>
      </defs>
      <g>
       <use xlink:href="#mdaaa95c294" x="55.783914" y="299.518125" style="stroke: #000000; stroke-width: 0.8"/>
      </g>
     </g>
     <g id="text_1">
      <!-- −0.1 -->
      <g transform="translate(43.642507 314.116563) scale(0.1 -0.1)">
       <defs>
        <path id="DejaVuSans-2212" d="M 678 2272 
L 4684 2272 
L 4684 1741 
L 678 1741 
L 678 2272 
z
" transform="scale(0.015625)"/>
        <path id="DejaVuSans-30" d="M 2034 4250 
Q 1547 4250 1301 3770 
Q 1056 3291 1056 2328 
Q 1056 1369 1301 889 
Q 1547 409 2034 409 
Q 2525 409 2770 889 
Q 3016 1369 3016 2328 
Q 3016 3291 2770 3770 
Q 2525 4250 2034 4250 
z
M 2034 4750 
Q 2819 4750 3233 4129 
Q 3647 3509 3647 2328 
Q 3647 1150 3233 529 
Q 2819 -91 2034 -91 
Q 1250 -91 836 529 
Q 422 1150 422 2328 
Q 422 3509 836 4129 
Q 1250 4750 2034 4750 
z
" transform="scale(0.015625)"/>
        <path id="DejaVuSans-2e" d="M 684 794 
L 1344 794 
L 1344 0 
L 684 0 
L 684 794 
z
" transform="scale(0.015625)"/>
        <path id="DejaVuSans-31" d="M 794 531 
L 1825 531 
L 1825 4091 
L 703 3866 
L 703 4441 
L 1819 4666 
L 2450 4666 
L 2450 531 
L 3481 531 
L 3481 0 
L 794 0 
L 794 531 
z
" transform="scale(0.015625)"/>
       </defs>
       <use xlink:href="#DejaVuSans-2212"/>
       <use xlink:href="#DejaVuSans-30" x="83.789062"/>
       <use xlink:href="#DejaVuSans-2e" x="147.412109"/>
       <use xlink:href="#DejaVuSans-31" x="179.199219"/>
      </g>
     </g>
    </g>
    <g id="xtick_2">
     <g id="line2d_3">
      <g>
       <use xlink:href="#mdaaa95c294" x="105.676181" y="299.518125" style="stroke: #000000; stroke-width: 0.8"/>
      </g>
     </g>
     <g id="text_2">
      <!-- 0.0 -->
      <g transform="translate(97.724619 314.116563) scale(0.1 -0.1)">
       <use xlink:href="#DejaVuSans-30"/>
       <use xlink:href="#DejaVuSans-2e" x="63.623047"/>
       <use xlink:href="#DejaVuSans-30" x="95.410156"/>
      </g>
     </g>
    </g>
    <g id="xtick_3">
     <g id="line2d_4">
      <g>
       <use xlink:href="#mdaaa95c294" x="155.568449" y="299.518125" style="stroke: #000000; stroke-width: 0.8"/>
      </g>
     </g>
     <g id="text_3">
      <!-- 0.1 -->
      <g transform="translate(147.616887 314.116563) scale(0.1 -0.1)">
       <use xlink:href="#DejaVuSans-30"/>
       <use xlink:href="#DejaVuSans-2e" x="63.623047"/>
       <use xlink:href="#DejaVuSans-31" x="95.410156"/>
      </g>
     </g>
    </g>
    <g id="xtick_4">
     <g id="line2d_5">
      <g>
       <use xlink:href="#mdaaa95c294" x="205.460717" y="299.518125" style="stroke: #000000; stroke-width: 0.8"/>
      </g>
     </g>
     <g id="text_4">
      <!-- 0.2 -->
      <g transform="translate(197.509154 314.116563) scale(0.1 -0.1)">
       <defs>
        <path id="DejaVuSans-32" d="M 1228 531 
L 3431 531 
L 3431 0 
L 469 0 
L 469 531 
Q 828 903 1448 1529 
Q 2069 2156 2228 2338 
Q 2531 2678 2651 2914 
Q 2772 3150 2772 3378 
Q 2772 3750 2511 3984 
Q 2250 4219 1831 4219 
Q 1534 4219 1204 4116 
Q 875 4013 500 3803 
L 500 4441 
Q 881 4594 1212 4672 
Q 1544 4750 1819 4750 
Q 2544 4750 2975 4387 
Q 3406 4025 3406 3419 
Q 3406 3131 3298 2873 
Q 3191 2616 2906 2266 
Q 2828 2175 2409 1742 
Q 1991 1309 1228 531 
z
" transform="scale(0.015625)"/>
       </defs>
       <use xlink:href="#DejaVuSans-30"/>
       <use xlink:href="#DejaVuSans-2e" x="63.623047"/>
       <use xlink:href="#DejaVuSans-32" x="95.410156"/>
      </g>
     </g>
    </g>
    <g id="xtick_5">
     <g id="line2d_6">
      <g>
       <use xlink:href="#mdaaa95c294" x="255.352985" y="299.518125" style="stroke: #000000; stroke-width: 0.8"/>
      </g>
     </g>
     <g id="text_5">
      <!-- 0.3 -->
      <g transform="translate(247.401422 314.116563) scale(0.1 -0.1)">
       <defs>
        <path id="DejaVuSans-33" d="M 2597 2516 
Q 3050 2419 3304 2112 
Q 3559 1806 3559 1356 
Q 3559 666 3084 287 
Q 2609 -91 1734 -91 
Q 1441 -91 1130 -33 
Q 819 25 488 141 
L 488 750 
Q 750 597 1062 519 
Q 1375 441 1716 441 
Q 2309 441 2620 675 
Q 2931 909 2931 1356 
Q 2931 1769 2642 2001 
Q 2353 2234 1838 2234 
L 1294 2234 
L 1294 2753 
L 1863 2753 
Q 2328 2753 2575 2939 
Q 2822 3125 2822 3475 
Q 2822 3834 2567 4026 
Q 2313 4219 1838 4219 
Q 1578 4219 1281 4162 
Q 984 4106 628 3988 
L 628 4550 
Q 988 4650 1302 4700 
Q 1616 4750 1894 4750 
Q 2613 4750 3031 4423 
Q 3450 4097 3450 3541 
Q 3450 3153 3228 2886 
Q 3006 2619 2597 2516 
z
" transform="scale(0.015625)"/>
       </defs>
       <use xlink:href="#DejaVuSans-30"/>
       <use xlink:href="#DejaVuSans-2e" x="63.623047"/>
       <use xlink:href="#DejaVuSans-33" x="95.410156"/>
      </g>
     </g>
    </g>
    <g id="xtick_6">
     <g id="line2d_7">
      <g>
       <use xlink:href="#mdaaa95c294" x="305.245252" y="299.518125" style="stroke: #000000; stroke-width: 0.8"/>
      </g>
     </g>
     <g id="text_6">
      <!-- 0.4 -->
      <g transform="translate(297.29369 314.116563) scale(0.1 -0.1)">
       <defs>
        <path id="DejaVuSans-34" d="M 2419 4116 
L 825 1625 
L 2419 1625 
L 2419 4116 
z
M 2253 4666 
L 3047 4666 
L 3047 1625 
L 3713 1625 
L 3713 1100 
L 3047 1100 
L 3047 0 
L 2419 0 
L 2419 1100 
L 313 1100 
L 313 1709 
L 2253 4666 
z
" transform="scale(0.015625)"/>
       </defs>
       <use xlink:href="#DejaVuSans-30"/>
       <use xlink:href="#DejaVuSans-2e" x="63.623047"/>
       <use xlink:href="#DejaVuSans-34" x="95.410156"/>
      </g>
     </g>
    </g>
    <g id="xtick_7">
     <g id="line2d_8">
      <g>
       <use xlink:href="#mdaaa95c294" x="355.13752" y="299.518125" style="stroke: #000000; stroke-width: 0.8"/>
      </g>
     </g>
     <g id="text_7">
      <!-- 0.5 -->
      <g transform="translate(347.185958 314.116563) scale(0.1 -0.1)">
       <defs>
        <path id="DejaVuSans-35" d="M 691 4666 
L 3169 4666 
L 3169 4134 
L 1269 4134 
L 1269 2991 
Q 1406 3038 1543 3061 
Q 1681 3084 1819 3084 
Q 2600 3084 3056 2656 
Q 3513 2228 3513 1497 
Q 3513 744 3044 326 
Q 2575 -91 1722 -91 
Q 1428 -91 1123 -41 
Q 819 9 494 109 
L 494 744 
Q 775 591 1075 516 
Q 1375 441 1709 441 
Q 2250 441 2565 725 
Q 2881 1009 2881 1497 
Q 2881 1984 2565 2268 
Q 2250 2553 1709 2553 
Q 1456 2553 1204 2497 
Q 953 2441 691 2322 
L 691 4666 
z
" transform="scale(0.015625)"/>
       </defs>
       <use xlink:href="#DejaVuSans-30"/>
       <use xlink:href="#DejaVuSans-2e" x="63.623047"/>
       <use xlink:href="#DejaVuSans-35" x="95.410156"/>
      </g>
     </g>
    </g>
    <g id="xtick_8">
     <g id="line2d_9">
      <g>
       <use xlink:href="#mdaaa95c294" x="405.029788" y="299.518125" style="stroke: #000000; stroke-width: 0.8"/>
      </g>
     </g>
     <g id="text_8">
      <!-- 0.6 -->
      <g transform="translate(397.078225 314.116563) scale(0.1 -0.1)">
       <defs>
        <path id="DejaVuSans-36" d="M 2113 2584 
Q 1688 2584 1439 2293 
Q 1191 2003 1191 1497 
Q 1191 994 1439 701 
Q 1688 409 2113 409 
Q 2538 409 2786 701 
Q 3034 994 3034 1497 
Q 3034 2003 2786 2293 
Q 2538 2584 2113 2584 
z
M 3366 4563 
L 3366 3988 
Q 3128 4100 2886 4159 
Q 2644 4219 2406 4219 
Q 1781 4219 1451 3797 
Q 1122 3375 1075 2522 
Q 1259 2794 1537 2939 
Q 1816 3084 2150 3084 
Q 2853 3084 3261 2657 
Q 3669 2231 3669 1497 
Q 3669 778 3244 343 
Q 2819 -91 2113 -91 
Q 1303 -91 875 529 
Q 447 1150 447 2328 
Q 447 3434 972 4092 
Q 1497 4750 2381 4750 
Q 2619 4750 2861 4703 
Q 3103 4656 3366 4563 
z
" transform="scale(0.015625)"/>
       </defs>
       <use xlink:href="#DejaVuSans-30"/>
       <use xlink:href="#DejaVuSans-2e" x="63.623047"/>
       <use xlink:href="#DejaVuSans-36" x="95.410156"/>
      </g>
     </g>
    </g>
    <g id="text_9">
     <!-- Treatment effect relative to nearest baseline -->
     <g transform="translate(125.714773 327.794688) scale(0.1 -0.1)">
      <defs>
       <path id="DejaVuSans-54" d="M -19 4666 
L 3928 4666 
L 3928 4134 
L 2272 4134 
L 2272 0 
L 1638 0 
L 1638 4134 
L -19 4134 
L -19 4666 
z
" transform="scale(0.015625)"/>
       <path id="DejaVuSans-72" d="M 2631 2963 
Q 2534 3019 2420 3045 
Q 2306 3072 2169 3072 
Q 1681 3072 1420 2755 
Q 1159 2438 1159 1844 
L 1159 0 
L 581 0 
L 581 3500 
L 1159 3500 
L 1159 2956 
Q 1341 3275 1631 3429 
Q 1922 3584 2338 3584 
Q 2397 3584 2469 3576 
Q 2541 3569 2628 3553 
L 2631 2963 
z
" transform="scale(0.015625)"/>
       <path id="DejaVuSans-65" d="M 3597 1894 
L 3597 1613 
L 953 1613 
Q 991 1019 1311 708 
Q 1631 397 2203 397 
Q 2534 397 2845 478 
Q 3156 559 3463 722 
L 3463 178 
Q 3153 47 2828 -22 
Q 2503 -91 2169 -91 
Q 1331 -91 842 396 
Q 353 884 353 1716 
Q 353 2575 817 3079 
Q 1281 3584 2069 3584 
Q 2775 3584 3186 3129 
Q 3597 2675 3597 1894 
z
M 3022 2063 
Q 3016 2534 2758 2815 
Q 2500 3097 2075 3097 
Q 1594 3097 1305 2825 
Q 1016 2553 972 2059 
L 3022 2063 
z
" transform="scale(0.015625)"/>
       <path id="DejaVuSans-61" d="M 2194 1759 
Q 1497 1759 1228 1600 
Q 959 1441 959 1056 
Q 959 750 1161 570 
Q 1363 391 1709 391 
Q 2188 391 2477 730 
Q 2766 1069 2766 1631 
L 2766 1759 
L 2194 1759 
z
M 3341 1997 
L 3341 0 
L 2766 0 
L 2766 531 
Q 2569 213 2275 61 
Q 1981 -91 1556 -91 
Q 1019 -91 701 211 
Q 384 513 384 1019 
Q 384 1609 779 1909 
Q 1175 2209 1959 2209 
L 2766 2209 
L 2766 2266 
Q 2766 2663 2505 2880 
Q 2244 3097 1772 3097 
Q 1472 3097 1187 3025 
Q 903 2953 641 2809 
L 641 3341 
Q 956 3463 1253 3523 
Q 1550 3584 1831 3584 
Q 2591 3584 2966 3190 
Q 3341 2797 3341 1997 
z
" transform="scale(0.015625)"/>
       <path id="DejaVuSans-74" d="M 1172 4494 
L 1172 3500 
L 2356 3500 
L 2356 3053 
L 1172 3053 
L 1172 1153 
Q 1172 725 1289 603 
Q 1406 481 1766 481 
L 2356 481 
L 2356 0 
L 1766 0 
Q 1100 0 847 248 
Q 594 497 594 1153 
L 594 3053 
L 172 3053 
L 172 3500 
L 594 3500 
L 594 4494 
L 1172 4494 
z
" transform="scale(0.015625)"/>
       <path id="DejaVuSans-6d" d="M 3328 2828 
Q 3544 3216 3844 3400 
Q 4144 3584 4550 3584 
Q 5097 3584 5394 3201 
Q 5691 2819 5691 2113 
L 5691 0 
L 5113 0 
L 5113 2094 
Q 5113 2597 4934 2840 
Q 4756 3084 4391 3084 
Q 3944 3084 3684 2787 
Q 3425 2491 3425 1978 
L 3425 0 
L 2847 0 
L 2847 2094 
Q 2847 2600 2669 2842 
Q 2491 3084 2119 3084 
Q 1678 3084 1418 2786 
Q 1159 2488 1159 1978 
L 1159 0 
L 581 0 
L 581 3500 
L 1159 3500 
L 1159 2956 
Q 1356 3278 1631 3431 
Q 1906 3584 2284 3584 
Q 2666 3584 2933 3390 
Q 3200 3197 3328 2828 
z
" transform="scale(0.015625)"/>
       <path id="DejaVuSans-6e" d="M 3513 2113 
L 3513 0 
L 2938 0 
L 2938 2094 
Q 2938 2591 2744 2837 
Q 2550 3084 2163 3084 
Q 1697 3084 1428 2787 
Q 1159 2491 1159 1978 
L 1159 0 
L 581 0 
L 581 3500 
L 1159 3500 
L 1159 2956 
Q 1366 3272 1645 3428 
Q 1925 3584 2291 3584 
Q 2894 3584 3203 3211 
Q 3513 2838 3513 2113 
z
" transform="scale(0.015625)"/>
       <path id="DejaVuSans-20" transform="scale(0.015625)"/>
       <path id="DejaVuSans-66" d="M 2375 4863 
L 2375 4384 
L 1825 4384 
Q 1516 4384 1395 4259 
Q 1275 4134 1275 3809 
L 1275 3500 
L 2222 3500 
L 2222 3053 
L 1275 3053 
L 1275 0 
L 697 0 
L 697 3053 
L 147 3053 
L 147 3500 
L 697 3500 
L 697 3744 
Q 697 4328 969 4595 
Q 1241 4863 1831 4863 
L 2375 4863 
z
" transform="scale(0.015625)"/>
       <path id="DejaVuSans-63" d="M 3122 3366 
L 3122 2828 
Q 2878 2963 2633 3030 
Q 2388 3097 2138 3097 
Q 1578 3097 1268 2742 
Q 959 2388 959 1747 
Q 959 1106 1268 751 
Q 1578 397 2138 397 
Q 2388 397 2633 464 
Q 2878 531 3122 666 
L 3122 134 
Q 2881 22 2623 -34 
Q 2366 -91 2075 -91 
Q 1284 -91 818 406 
Q 353 903 353 1747 
Q 353 2603 823 3093 
Q 1294 3584 2113 3584 
Q 2378 3584 2631 3529 
Q 2884 3475 3122 3366 
z
" transform="scale(0.015625)"/>
       <path id="DejaVuSans-6c" d="M 603 4863 
L 1178 4863 
L 1178 0 
L 603 0 
L 603 4863 
z
" transform="scale(0.015625)"/>
       <path id="DejaVuSans-69" d="M 603 3500 
L 1178 3500 
L 1178 0 
L 603 0 
L 603 3500 
z
M 603 4863 
L 1178 4863 
L 1178 4134 
L 603 4134 
L 603 4863 
z
" transform="scale(0.015625)"/>
       <path id="DejaVuSans-76" d="M 191 3500 
L 800 3500 
L 1894 563 
L 2988 3500 
L 3597 3500 
L 2284 0 
L 1503 0 
L 191 3500 
z
" transform="scale(0.015625)"/>
       <path id="DejaVuSans-6f" d="M 1959 3097 
Q 1497 3097 1228 2736 
Q 959 2375 959 1747 
Q 959 1119 1226 758 
Q 1494 397 1959 397 
Q 2419 397 2687 759 
Q 2956 1122 2956 1747 
Q 2956 2369 2687 2733 
Q 2419 3097 1959 3097 
z
M 1959 3584 
Q 2709 3584 3137 3096 
Q 3566 2609 3566 1747 
Q 3566 888 3137 398 
Q 2709 -91 1959 -91 
Q 1206 -91 779 398 
Q 353 888 353 1747 
Q 353 2609 779 3096 
Q 1206 3584 1959 3584 
z
" transform="scale(0.015625)"/>
       <path id="DejaVuSans-73" d="M 2834 3397 
L 2834 2853 
Q 2591 2978 2328 3040 
Q 2066 3103 1784 3103 
Q 1356 3103 1142 2972 
Q 928 2841 928 2578 
Q 928 2378 1081 2264 
Q 1234 2150 1697 2047 
L 1894 2003 
Q 2506 1872 2764 1633 
Q 3022 1394 3022 966 
Q 3022 478 2636 193 
Q 2250 -91 1575 -91 
Q 1294 -91 989 -36 
Q 684 19 347 128 
L 347 722 
Q 666 556 975 473 
Q 1284 391 1588 391 
Q 1994 391 2212 530 
Q 2431 669 2431 922 
Q 2431 1156 2273 1281 
Q 2116 1406 1581 1522 
L 1381 1569 
Q 847 1681 609 1914 
Q 372 2147 372 2553 
Q 372 3047 722 3315 
Q 1072 3584 1716 3584 
Q 2034 3584 2315 3537 
Q 2597 3491 2834 3397 
z
" transform="scale(0.015625)"/>
       <path id="DejaVuSans-62" d="M 3116 1747 
Q 3116 2381 2855 2742 
Q 2594 3103 2138 3103 
Q 1681 3103 1420 2742 
Q 1159 2381 1159 1747 
Q 1159 1113 1420 752 
Q 1681 391 2138 391 
Q 2594 391 2855 752 
Q 3116 1113 3116 1747 
z
M 1159 2969 
Q 1341 3281 1617 3432 
Q 1894 3584 2278 3584 
Q 2916 3584 3314 3078 
Q 3713 2572 3713 1747 
Q 3713 922 3314 415 
Q 2916 -91 2278 -91 
Q 1894 -91 1617 61 
Q 1341 213 1159 525 
L 1159 0 
L 581 0 
L 581 4863 
L 1159 4863 
L 1159 2969 
z
" transform="scale(0.015625)"/>
      </defs>
      <use xlink:href="#DejaVuSans-54"/>
      <use xlink:href="#DejaVuSans-72" x="46.333984"/>
      <use xlink:href="#DejaVuSans-65" x="85.197266"/>
      <use xlink:href="#DejaVuSans-61" x="146.720703"/>
      <use xlink:href="#DejaVuSans-74" x="208"/>
      <use xlink:href="#DejaVuSans-6d" x="247.208984"/>
      <use xlink:href="#DejaVuSans-65" x="344.621094"/>
      <use xlink:href="#DejaVuSans-6e" x="406.144531"/>
      <use xlink:href="#DejaVuSans-74" x="469.523438"/>
      <use xlink:href="#DejaVuSans-20" x="508.732422"/>
      <use xlink:href="#DejaVuSans-65" x="540.519531"/>
      <use xlink:href="#DejaVuSans-66" x="602.042969"/>
      <use xlink:href="#DejaVuSans-66" x="637.248047"/>
      <use xlink:href="#DejaVuSans-65" x="672.453125"/>
      <use xlink:href="#DejaVuSans-63" x="733.976562"/>
      <use xlink:href="#DejaVuSans-74" x="788.957031"/>
      <use xlink:href="#DejaVuSans-20" x="828.166016"/>
      <use xlink:href="#DejaVuSans-72" x="859.953125"/>
      <use xlink:href="#DejaVuSans-65" x="898.816406"/>
      <use xlink:href="#DejaVuSans-6c" x="960.339844"/>
      <use xlink:href="#DejaVuSans-61" x="988.123047"/>
      <use xlink:href="#DejaVuSans-74" x="1049.402344"/>
      <use xlink:href="#DejaVuSans-69" x="1088.611328"/>
      <use xlink:href="#DejaVuSans-76" x="1116.394531"/>
      <use xlink:href="#DejaVuSans-65" x="1175.574219"/>
      <use xlink:href="#DejaVuSans-20" x="1237.097656"/>
      <use xlink:href="#DejaVuSans-74" x="1268.884766"/>
      <use xlink:href="#DejaVuSans-6f" x="1308.09375"/>
      <use xlink:href="#DejaVuSans-20" x="1369.275391"/>
      <use xlink:href="#DejaVuSans-6e" x="1401.0625"/>
      <use xlink:href="#DejaVuSans-65" x="1464.441406"/>
      <use xlink:href="#DejaVuSans-61" x="1525.964844"/>
      <use xlink:href="#DejaVuSans-72" x="1587.244141"/>
      <use xlink:href="#DejaVuSans-65" x="1626.107422"/>
      <use xlink:href="#DejaVuSans-73" x="1687.630859"/>
      <use xlink:href="#DejaVuSans-74" x="1739.730469"/>
      <use xlink:href="#DejaVuSans-20" x="1778.939453"/>
      <use xlink:href="#DejaVuSans-62" x="1810.726562"/>
      <use xlink:href="#DejaVuSans-61" x="1874.203125"/>
      <use xlink:href="#DejaVuSans-73" x="1935.482422"/>
      <use xlink:href="#DejaVuSans-65" x="1987.582031"/>
      <use xlink:href="#DejaVuSans-6c" x="2049.105469"/>
      <use xlink:href="#DejaVuSans-69" x="2076.888672"/>
      <use xlink:href="#DejaVuSans-6e" x="2104.671875"/>
      <use xlink:href="#DejaVuSans-65" x="2168.050781"/>
     </g>
    </g>
   </g>
   <g id="matplotlib.axis_2">
    <g id="ytick_1">
     <g id="line2d_10">
      <defs>
       <path id="m539166cebb" d="M 0 0 
L -3.5 0 
" style="stroke: #000000; stroke-width: 0.8"/>
      </defs>
      <g>
       <use xlink:href="#m539166cebb" x="46.965625" y="299.518125" style="stroke: #000000; stroke-width: 0.8"/>
      </g>
     </g>
     <g id="text_10">
      <!-- 0 -->
      <g transform="translate(33.603125 303.317344) scale(0.1 -0.1)">
       <use xlink:href="#DejaVuSans-30"/>
      </g>
     </g>
    </g>
    <g id="ytick_2">
     <g id="line2d_11">
      <g>
       <use xlink:href="#m539166cebb" x="46.965625" y="254.998732" style="stroke: #000000; stroke-width: 0.8"/>
      </g>
     </g>
     <g id="text_11">
      <!-- 100 -->
      <g transform="translate(20.878125 258.797951) scale(0.1 -0.1)">
       <use xlink:href="#DejaVuSans-31"/>
       <use xlink:href="#DejaVuSans-30" x="63.623047"/>
       <use xlink:href="#DejaVuSans-30" x="127.246094"/>
      </g>
     </g>
    </g>
    <g id="ytick_3">
     <g id="line2d_12">
      <g>
       <use xlink:href="#m539166cebb" x="46.965625" y="210.479339" style="stroke: #000000; stroke-width: 0.8"/>
      </g>
     </g>
     <g id="text_12">
      <!-- 200 -->
      <g transform="translate(20.878125 214.278558) scale(0.1 -0.1)">
       <use xlink:href="#DejaVuSans-32"/>
       <use xlink:href="#DejaVuSans-30" x="63.623047"/>
       <use xlink:href="#DejaVuSans-30" x="127.246094"/>
      </g>
     </g>
    </g>
    <g id="ytick_4">
     <g id="line2d_13">
      <g>
       <use xlink:href="#m539166cebb" x="46.965625" y="165.959946" style="stroke: #000000; stroke-width: 0.8"/>
      </g>
     </g>
     <g id="text_13">
      <!-- 300 -->
      <g transform="translate(20.878125 169.759165) scale(0.1 -0.1)">
       <use xlink:href="#DejaVuSans-33"/>
       <use xlink:href="#DejaVuSans-30" x="63.623047"/>
       <use xlink:href="#DejaVuSans-30" x="127.246094"/>
      </g>
     </g>
    </g>
    <g id="ytick_5">
     <g id="line2d_14">
      <g>
       <use xlink:href="#m539166cebb" x="46.965625" y="121.440553" style="stroke: #000000; stroke-width: 0.8"/>
      </g>
     </g>
     <g id="text_14">
      <!-- 400 -->
      <g transform="translate(20.878125 125.239772) scale(0.1 -0.1)">
       <use xlink:href="#DejaVuSans-34"/>
       <use xlink:href="#DejaVuSans-30" x="63.623047"/>
       <use xlink:href="#DejaVuSans-30" x="127.246094"/>
      </g>
     </g>
    </g>
    <g id="ytick_6">
     <g id="line2d_15">
      <g>
       <use xlink:href="#m539166cebb" x="46.965625" y="76.92116" style="stroke: #000000; stroke-width: 0.8"/>
      </g>
     </g>
     <g id="text_15">
      <!-- 500 -->
      <g transform="translate(20.878125 80.720379) scale(0.1 -0.1)">
       <use xlink:href="#DejaVuSans-35"/>
       <use xlink:href="#DejaVuSans-30" x="63.623047"/>
       <use xlink:href="#DejaVuSans-30" x="127.246094"/>
      </g>
     </g>
    </g>
    <g id="ytick_7">
     <g id="line2d_16">
      <g>
       <use xlink:href="#m539166cebb" x="46.965625" y="32.401767" style="stroke: #000000; stroke-width: 0.8"/>
      </g>
     </g>
     <g id="text_16">
      <!-- 600 -->
      <g transform="translate(20.878125 36.200986) scale(0.1 -0.1)">
       <use xlink:href="#DejaVuSans-36"/>
       <use xlink:href="#DejaVuSans-30" x="63.623047"/>
       <use xlink:href="#DejaVuSans-30" x="127.246094"/>
      </g>
     </g>
    </g>
    <g id="text_17">
     <!-- posterior samples -->
     <g transform="translate(14.798438 205.725156) rotate(-90) scale(0.1 -0.1)">
      <defs>
       <path id="DejaVuSans-70" d="M 1159 525 
L 1159 -1331 
L 581 -1331 
L 581 3500 
L 1159 3500 
L 1159 2969 
Q 1341 3281 1617 3432 
Q 1894 3584 2278 3584 
Q 2916 3584 3314 3078 
Q 3713 2572 3713 1747 
Q 3713 922 3314 415 
Q 2916 -91 2278 -91 
Q 1894 -91 1617 61 
Q 1341 213 1159 525 
z
M 3116 1747 
Q 3116 2381 2855 2742 
Q 2594 3103 2138 3103 
Q 1681 3103 1420 2742 
Q 1159 2381 1159 1747 
Q 1159 1113 1420 752 
Q 1681 391 2138 391 
Q 2594 391 2855 752 
Q 3116 1113 3116 1747 
z
" transform="scale(0.015625)"/>
      </defs>
      <use xlink:href="#DejaVuSans-70"/>
      <use xlink:href="#DejaVuSans-6f" x="63.476562"/>
      <use xlink:href="#DejaVuSans-73" x="124.658203"/>
      <use xlink:href="#DejaVuSans-74" x="176.757812"/>
      <use xlink:href="#DejaVuSans-65" x="215.966797"/>
      <use xlink:href="#DejaVuSans-72" x="277.490234"/>
      <use xlink:href="#DejaVuSans-69" x="318.603516"/>
      <use xlink:href="#DejaVuSans-6f" x="346.386719"/>
      <use xlink:href="#DejaVuSans-72" x="407.568359"/>
      <use xlink:href="#DejaVuSans-20" x="448.681641"/>
      <use xlink:href="#DejaVuSans-73" x="480.46875"/>
      <use xlink:href="#DejaVuSans-61" x="532.568359"/>
      <use xlink:href="#DejaVuSans-6d" x="593.847656"/>
      <use xlink:href="#DejaVuSans-70" x="691.259766"/>
      <use xlink:href="#DejaVuSans-6c" x="754.736328"/>
      <use xlink:href="#DejaVuSans-65" x="782.519531"/>
      <use xlink:href="#DejaVuSans-73" x="844.042969"/>
     </g>
    </g>
   </g>
   <g id="patch_63">
    <path d="M 46.965625 299.518125 
L 46.965625 22.318125 
" style="fill: none; stroke: #000000; stroke-width: 0.8; stroke-linejoin: miter; stroke-linecap: square"/>
   </g>
   <g id="patch_64">
    <path d="M 427.42017 299.518125 
L 427.42017 22.318125 
" style="fill: none; stroke: #000000; stroke-width: 0.8; stroke-linejoin: miter; stroke-linecap: square"/>
   </g>
   <g id="patch_65">
    <path d="M 46.965625 299.518125 
L 427.42017 299.518125 
" style="fill: none; stroke: #000000; stroke-width: 0.8; stroke-linejoin: miter; stroke-linecap: square"/>
   </g>
   <g id="patch_66">
    <path d="M 46.965625 22.318125 
L 427.42017 22.318125 
" style="fill: none; stroke: #000000; stroke-width: 0.8; stroke-linejoin: miter; stroke-linecap: square"/>
   </g>
   <g id="text_18">
    <!-- Speed -->
    <g transform="translate(218.38196 16.318125) scale(0.12 -0.12)">
     <defs>
      <path id="DejaVuSans-53" d="M 3425 4513 
L 3425 3897 
Q 3066 4069 2747 4153 
Q 2428 4238 2131 4238 
Q 1616 4238 1336 4038 
Q 1056 3838 1056 3469 
Q 1056 3159 1242 3001 
Q 1428 2844 1947 2747 
L 2328 2669 
Q 3034 2534 3370 2195 
Q 3706 1856 3706 1288 
Q 3706 609 3251 259 
Q 2797 -91 1919 -91 
Q 1588 -91 1214 -16 
Q 841 59 441 206 
L 441 856 
Q 825 641 1194 531 
Q 1563 422 1919 422 
Q 2459 422 2753 634 
Q 3047 847 3047 1241 
Q 3047 1584 2836 1778 
Q 2625 1972 2144 2069 
L 1759 2144 
Q 1053 2284 737 2584 
Q 422 2884 422 3419 
Q 422 4038 858 4394 
Q 1294 4750 2059 4750 
Q 2388 4750 2728 4690 
Q 3069 4631 3425 4513 
z
" transform="scale(0.015625)"/>
      <path id="DejaVuSans-64" d="M 2906 2969 
L 2906 4863 
L 3481 4863 
L 3481 0 
L 2906 0 
L 2906 525 
Q 2725 213 2448 61 
Q 2172 -91 1784 -91 
Q 1150 -91 751 415 
Q 353 922 353 1747 
Q 353 2572 751 3078 
Q 1150 3584 1784 3584 
Q 2172 3584 2448 3432 
Q 2725 3281 2906 2969 
z
M 947 1747 
Q 947 1113 1208 752 
Q 1469 391 1925 391 
Q 2381 391 2643 752 
Q 2906 1113 2906 1747 
Q 2906 2381 2643 2742 
Q 2381 3103 1925 3103 
Q 1469 3103 1208 2742 
Q 947 2381 947 1747 
z
" transform="scale(0.015625)"/>
     </defs>
     <use xlink:href="#DejaVuSans-53"/>
     <use xlink:href="#DejaVuSans-70" x="63.476562"/>
     <use xlink:href="#DejaVuSans-65" x="126.953125"/>
     <use xlink:href="#DejaVuSans-65" x="188.476562"/>
     <use xlink:href="#DejaVuSans-64" x="250"/>
    </g>
   </g>
   <g id="legend_1">
    <g id="patch_67">
     <path d="M 55.965625 38.916563 
L 75.965625 38.916563 
L 75.965625 31.916563 
L 55.965625 31.916563 
z
" style="fill: #66c2a5; opacity: 0.6"/>
    </g>
    <g id="text_19">
     <!-- hyper: prob +ve 1.0 -->
     <g transform="translate(83.965625 38.916563) scale(0.1 -0.1)">
      <defs>
       <path id="DejaVuSans-68" d="M 3513 2113 
L 3513 0 
L 2938 0 
L 2938 2094 
Q 2938 2591 2744 2837 
Q 2550 3084 2163 3084 
Q 1697 3084 1428 2787 
Q 1159 2491 1159 1978 
L 1159 0 
L 581 0 
L 581 4863 
L 1159 4863 
L 1159 2956 
Q 1366 3272 1645 3428 
Q 1925 3584 2291 3584 
Q 2894 3584 3203 3211 
Q 3513 2838 3513 2113 
z
" transform="scale(0.015625)"/>
       <path id="DejaVuSans-79" d="M 2059 -325 
Q 1816 -950 1584 -1140 
Q 1353 -1331 966 -1331 
L 506 -1331 
L 506 -850 
L 844 -850 
Q 1081 -850 1212 -737 
Q 1344 -625 1503 -206 
L 1606 56 
L 191 3500 
L 800 3500 
L 1894 763 
L 2988 3500 
L 3597 3500 
L 2059 -325 
z
" transform="scale(0.015625)"/>
       <path id="DejaVuSans-3a" d="M 750 794 
L 1409 794 
L 1409 0 
L 750 0 
L 750 794 
z
M 750 3309 
L 1409 3309 
L 1409 2516 
L 750 2516 
L 750 3309 
z
" transform="scale(0.015625)"/>
       <path id="DejaVuSans-2b" d="M 2944 4013 
L 2944 2272 
L 4684 2272 
L 4684 1741 
L 2944 1741 
L 2944 0 
L 2419 0 
L 2419 1741 
L 678 1741 
L 678 2272 
L 2419 2272 
L 2419 4013 
L 2944 4013 
z
" transform="scale(0.015625)"/>
      </defs>
      <use xlink:href="#DejaVuSans-68"/>
      <use xlink:href="#DejaVuSans-79" x="63.378906"/>
      <use xlink:href="#DejaVuSans-70" x="122.558594"/>
      <use xlink:href="#DejaVuSans-65" x="186.035156"/>
      <use xlink:href="#DejaVuSans-72" x="247.558594"/>
      <use xlink:href="#DejaVuSans-3a" x="286.921875"/>
      <use xlink:href="#DejaVuSans-20" x="320.613281"/>
      <use xlink:href="#DejaVuSans-70" x="352.400391"/>
      <use xlink:href="#DejaVuSans-72" x="415.876953"/>
      <use xlink:href="#DejaVuSans-6f" x="454.740234"/>
      <use xlink:href="#DejaVuSans-62" x="515.921875"/>
      <use xlink:href="#DejaVuSans-20" x="579.398438"/>
      <use xlink:href="#DejaVuSans-2b" x="611.185547"/>
      <use xlink:href="#DejaVuSans-76" x="694.974609"/>
      <use xlink:href="#DejaVuSans-65" x="754.154297"/>
      <use xlink:href="#DejaVuSans-20" x="815.677734"/>
      <use xlink:href="#DejaVuSans-31" x="847.464844"/>
      <use xlink:href="#DejaVuSans-2e" x="911.087891"/>
      <use xlink:href="#DejaVuSans-30" x="942.875"/>
     </g>
    </g>
    <g id="patch_68">
     <path d="M 55.965625 53.594688 
L 75.965625 53.594688 
L 75.965625 46.594688 
L 55.965625 46.594688 
z
" style="fill: #fc8d62; opacity: 0.6"/>
    </g>
    <g id="text_20">
     <!-- after_ablation: prob +ve 0.956 -->
     <g transform="translate(83.965625 53.594688) scale(0.1 -0.1)">
      <defs>
       <path id="DejaVuSans-5f" d="M 3263 -1063 
L 3263 -1509 
L -63 -1509 
L -63 -1063 
L 3263 -1063 
z
" transform="scale(0.015625)"/>
       <path id="DejaVuSans-39" d="M 703 97 
L 703 672 
Q 941 559 1184 500 
Q 1428 441 1663 441 
Q 2288 441 2617 861 
Q 2947 1281 2994 2138 
Q 2813 1869 2534 1725 
Q 2256 1581 1919 1581 
Q 1219 1581 811 2004 
Q 403 2428 403 3163 
Q 403 3881 828 4315 
Q 1253 4750 1959 4750 
Q 2769 4750 3195 4129 
Q 3622 3509 3622 2328 
Q 3622 1225 3098 567 
Q 2575 -91 1691 -91 
Q 1453 -91 1209 -44 
Q 966 3 703 97 
z
M 1959 2075 
Q 2384 2075 2632 2365 
Q 2881 2656 2881 3163 
Q 2881 3666 2632 3958 
Q 2384 4250 1959 4250 
Q 1534 4250 1286 3958 
Q 1038 3666 1038 3163 
Q 1038 2656 1286 2365 
Q 1534 2075 1959 2075 
z
" transform="scale(0.015625)"/>
      </defs>
      <use xlink:href="#DejaVuSans-61"/>
      <use xlink:href="#DejaVuSans-66" x="61.279297"/>
      <use xlink:href="#DejaVuSans-74" x="94.734375"/>
      <use xlink:href="#DejaVuSans-65" x="133.943359"/>
      <use xlink:href="#DejaVuSans-72" x="195.466797"/>
      <use xlink:href="#DejaVuSans-5f" x="236.580078"/>
      <use xlink:href="#DejaVuSans-61" x="286.580078"/>
      <use xlink:href="#DejaVuSans-62" x="347.859375"/>
      <use xlink:href="#DejaVuSans-6c" x="411.335938"/>
      <use xlink:href="#DejaVuSans-61" x="439.119141"/>
      <use xlink:href="#DejaVuSans-74" x="500.398438"/>
      <use xlink:href="#DejaVuSans-69" x="539.607422"/>
      <use xlink:href="#DejaVuSans-6f" x="567.390625"/>
      <use xlink:href="#DejaVuSans-6e" x="628.572266"/>
      <use xlink:href="#DejaVuSans-3a" x="691.951172"/>
      <use xlink:href="#DejaVuSans-20" x="725.642578"/>
      <use xlink:href="#DejaVuSans-70" x="757.429688"/>
      <use xlink:href="#DejaVuSans-72" x="820.90625"/>
      <use xlink:href="#DejaVuSans-6f" x="859.769531"/>
      <use xlink:href="#DejaVuSans-62" x="920.951172"/>
      <use xlink:href="#DejaVuSans-20" x="984.427734"/>
      <use xlink:href="#DejaVuSans-2b" x="1016.214844"/>
      <use xlink:href="#DejaVuSans-76" x="1100.003906"/>
      <use xlink:href="#DejaVuSans-65" x="1159.183594"/>
      <use xlink:href="#DejaVuSans-20" x="1220.707031"/>
      <use xlink:href="#DejaVuSans-30" x="1252.494141"/>
      <use xlink:href="#DejaVuSans-2e" x="1316.117188"/>
      <use xlink:href="#DejaVuSans-39" x="1347.904297"/>
      <use xlink:href="#DejaVuSans-35" x="1411.527344"/>
      <use xlink:href="#DejaVuSans-36" x="1475.150391"/>
     </g>
    </g>
    <g id="patch_69">
     <path d="M 55.965625 68.550938 
L 75.965625 68.550938 
L 75.965625 61.550938 
L 55.965625 61.550938 
z
" style="fill: #8da0cb; opacity: 0.6"/>
    </g>
    <g id="text_21">
     <!-- hyper2: prob +ve 1.0 -->
     <g transform="translate(83.965625 68.550938) scale(0.1 -0.1)">
      <use xlink:href="#DejaVuSans-68"/>
      <use xlink:href="#DejaVuSans-79" x="63.378906"/>
      <use xlink:href="#DejaVuSans-70" x="122.558594"/>
      <use xlink:href="#DejaVuSans-65" x="186.035156"/>
      <use xlink:href="#DejaVuSans-72" x="247.558594"/>
      <use xlink:href="#DejaVuSans-32" x="288.671875"/>
      <use xlink:href="#DejaVuSans-3a" x="352.294922"/>
      <use xlink:href="#DejaVuSans-20" x="385.986328"/>
      <use xlink:href="#DejaVuSans-70" x="417.773438"/>
      <use xlink:href="#DejaVuSans-72" x="481.25"/>
      <use xlink:href="#DejaVuSans-6f" x="520.113281"/>
      <use xlink:href="#DejaVuSans-62" x="581.294922"/>
      <use xlink:href="#DejaVuSans-20" x="644.771484"/>
      <use xlink:href="#DejaVuSans-2b" x="676.558594"/>
      <use xlink:href="#DejaVuSans-76" x="760.347656"/>
      <use xlink:href="#DejaVuSans-65" x="819.527344"/>
      <use xlink:href="#DejaVuSans-20" x="881.050781"/>
      <use xlink:href="#DejaVuSans-31" x="912.837891"/>
      <use xlink:href="#DejaVuSans-2e" x="976.460938"/>
      <use xlink:href="#DejaVuSans-30" x="1008.248047"/>
     </g>
    </g>
   </g>
  </g>
  <g id="axes_2">
   <g id="patch_70">
    <path d="M 503.51108 299.518125 
L 883.965625 299.518125 
L 883.965625 22.318125 
L 503.51108 22.318125 
z
" style="fill: #ffffff"/>
   </g>
   <g id="line2d_17">
    <path d="M 557.488298 299.518125 
L 557.488298 22.318125 
" clip-path="url(#pf4683f61a9)" style="fill: none; stroke-dasharray: 1.85,0.8; stroke-dashoffset: 0; stroke: #000000; stroke-width: 0.5"/>
   </g>
   <g id="patch_71">
    <path d="M 628.061316 299.518125 
L 639.991862 299.518125 
L 639.991862 297.452397 
L 628.061316 297.452397 
z
" clip-path="url(#pf4683f61a9)" style="fill: #66c2a5; opacity: 0.6"/>
   </g>
   <g id="patch_72">
    <path d="M 639.991862 299.518125 
L 651.922408 299.518125 
L 651.922408 294.147233 
L 639.991862 294.147233 
z
" clip-path="url(#pf4683f61a9)" style="fill: #66c2a5; opacity: 0.6"/>
   </g>
   <g id="patch_73">
    <path d="M 651.922408 299.518125 
L 663.852954 299.518125 
L 663.852954 290.842069 
L 651.922408 290.842069 
z
" clip-path="url(#pf4683f61a9)" style="fill: #66c2a5; opacity: 0.6"/>
   </g>
   <g id="patch_74">
    <path d="M 663.852954 299.518125 
L 675.7835 299.518125 
L 675.7835 278.860848 
L 663.852954 278.860848 
z
" clip-path="url(#pf4683f61a9)" style="fill: #66c2a5; opacity: 0.6"/>
   </g>
   <g id="patch_75">
    <path d="M 675.7835 299.518125 
L 687.714046 299.518125 
L 687.714046 259.029862 
L 675.7835 259.029862 
z
" clip-path="url(#pf4683f61a9)" style="fill: #66c2a5; opacity: 0.6"/>
   </g>
   <g id="patch_76">
    <path d="M 687.714046 299.518125 
L 699.644592 299.518125 
L 699.644592 216.889017 
L 687.714046 216.889017 
z
" clip-path="url(#pf4683f61a9)" style="fill: #66c2a5; opacity: 0.6"/>
   </g>
   <g id="patch_77">
    <path d="M 699.644592 299.518125 
L 711.575138 299.518125 
L 711.575138 163.180097 
L 699.644592 163.180097 
z
" clip-path="url(#pf4683f61a9)" style="fill: #66c2a5; opacity: 0.6"/>
   </g>
   <g id="patch_78">
    <path d="M 711.575138 299.518125 
L 723.505684 299.518125 
L 723.505684 112.363195 
L 711.575138 112.363195 
z
" clip-path="url(#pf4683f61a9)" style="fill: #66c2a5; opacity: 0.6"/>
   </g>
   <g id="patch_79">
    <path d="M 723.505684 299.518125 
L 735.43623 299.518125 
L 735.43623 58.24113 
L 723.505684 58.24113 
z
" clip-path="url(#pf4683f61a9)" style="fill: #66c2a5; opacity: 0.6"/>
   </g>
   <g id="patch_80">
    <path d="M 735.43623 299.518125 
L 747.366776 299.518125 
L 747.366776 35.518125 
L 735.43623 35.518125 
z
" clip-path="url(#pf4683f61a9)" style="fill: #66c2a5; opacity: 0.6"/>
   </g>
   <g id="patch_81">
    <path d="M 747.366776 299.518125 
L 759.297322 299.518125 
L 759.297322 66.917186 
L 747.366776 66.917186 
z
" clip-path="url(#pf4683f61a9)" style="fill: #66c2a5; opacity: 0.6"/>
   </g>
   <g id="patch_82">
    <path d="M 759.297322 299.518125 
L 771.227868 299.518125 
L 771.227868 128.475871 
L 759.297322 128.475871 
z
" clip-path="url(#pf4683f61a9)" style="fill: #66c2a5; opacity: 0.6"/>
   </g>
   <g id="patch_83">
    <path d="M 771.227868 299.518125 
L 783.158414 299.518125 
L 783.158414 173.921881 
L 771.227868 173.921881 
z
" clip-path="url(#pf4683f61a9)" style="fill: #66c2a5; opacity: 0.6"/>
   </g>
   <g id="patch_84">
    <path d="M 783.158414 299.518125 
L 795.08896 299.518125 
L 795.08896 228.043947 
L 783.158414 228.043947 
z
" clip-path="url(#pf4683f61a9)" style="fill: #66c2a5; opacity: 0.6"/>
   </g>
   <g id="patch_85">
    <path d="M 795.08896 299.518125 
L 807.019506 299.518125 
L 807.019506 262.748172 
L 795.08896 262.748172 
z
" clip-path="url(#pf4683f61a9)" style="fill: #66c2a5; opacity: 0.6"/>
   </g>
   <g id="patch_86">
    <path d="M 807.019506 299.518125 
L 818.950052 299.518125 
L 818.950052 282.992303 
L 807.019506 282.992303 
z
" clip-path="url(#pf4683f61a9)" style="fill: #66c2a5; opacity: 0.6"/>
   </g>
   <g id="patch_87">
    <path d="M 818.950052 299.518125 
L 830.880598 299.518125 
L 830.880598 292.081505 
L 818.950052 292.081505 
z
" clip-path="url(#pf4683f61a9)" style="fill: #66c2a5; opacity: 0.6"/>
   </g>
   <g id="patch_88">
    <path d="M 830.880598 299.518125 
L 842.811144 299.518125 
L 842.811144 297.865543 
L 830.880598 297.865543 
z
" clip-path="url(#pf4683f61a9)" style="fill: #66c2a5; opacity: 0.6"/>
   </g>
   <g id="patch_89">
    <path d="M 842.811144 299.518125 
L 854.741691 299.518125 
L 854.741691 299.518125 
L 842.811144 299.518125 
z
" clip-path="url(#pf4683f61a9)" style="fill: #66c2a5; opacity: 0.6"/>
   </g>
   <g id="patch_90">
    <path d="M 854.741691 299.518125 
L 866.672237 299.518125 
L 866.672237 298.691834 
L 854.741691 298.691834 
z
" clip-path="url(#pf4683f61a9)" style="fill: #66c2a5; opacity: 0.6"/>
   </g>
   <g id="patch_91">
    <path d="M 520.804468 299.518125 
L 528.21936 299.518125 
L 528.21936 298.278688 
L 520.804468 298.278688 
z
" clip-path="url(#pf4683f61a9)" style="fill: #fc8d62; opacity: 0.6"/>
   </g>
   <g id="patch_92">
    <path d="M 528.21936 299.518125 
L 535.634251 299.518125 
L 535.634251 296.212961 
L 528.21936 296.212961 
z
" clip-path="url(#pf4683f61a9)" style="fill: #fc8d62; opacity: 0.6"/>
   </g>
   <g id="patch_93">
    <path d="M 535.634251 299.518125 
L 543.049143 299.518125 
L 543.049143 293.320942 
L 535.634251 293.320942 
z
" clip-path="url(#pf4683f61a9)" style="fill: #fc8d62; opacity: 0.6"/>
   </g>
   <g id="patch_94">
    <path d="M 543.049143 299.518125 
L 550.464034 299.518125 
L 550.464034 279.273994 
L 543.049143 279.273994 
z
" clip-path="url(#pf4683f61a9)" style="fill: #fc8d62; opacity: 0.6"/>
   </g>
   <g id="patch_95">
    <path d="M 550.464034 299.518125 
L 557.878926 299.518125 
L 557.878926 263.161317 
L 550.464034 263.161317 
z
" clip-path="url(#pf4683f61a9)" style="fill: #fc8d62; opacity: 0.6"/>
   </g>
   <g id="patch_96">
    <path d="M 557.878926 299.518125 
L 565.293817 299.518125 
L 565.293817 232.175402 
L 557.878926 232.175402 
z
" clip-path="url(#pf4683f61a9)" style="fill: #fc8d62; opacity: 0.6"/>
   </g>
   <g id="patch_97">
    <path d="M 565.293817 299.518125 
L 572.708709 299.518125 
L 572.708709 164.419533 
L 565.293817 164.419533 
z
" clip-path="url(#pf4683f61a9)" style="fill: #fc8d62; opacity: 0.6"/>
   </g>
   <g id="patch_98">
    <path d="M 572.708709 299.518125 
L 580.1236 299.518125 
L 580.1236 139.217656 
L 572.708709 139.217656 
z
" clip-path="url(#pf4683f61a9)" style="fill: #fc8d62; opacity: 0.6"/>
   </g>
   <g id="patch_99">
    <path d="M 580.1236 299.518125 
L 587.538492 299.518125 
L 587.538492 86.335026 
L 580.1236 86.335026 
z
" clip-path="url(#pf4683f61a9)" style="fill: #fc8d62; opacity: 0.6"/>
   </g>
   <g id="patch_100">
    <path d="M 587.538492 299.518125 
L 594.953383 299.518125 
L 594.953383 56.588548 
L 587.538492 56.588548 
z
" clip-path="url(#pf4683f61a9)" style="fill: #fc8d62; opacity: 0.6"/>
   </g>
   <g id="patch_101">
    <path d="M 594.953383 299.518125 
L 602.368275 299.518125 
L 602.368275 64.851458 
L 594.953383 64.851458 
z
" clip-path="url(#pf4683f61a9)" style="fill: #fc8d62; opacity: 0.6"/>
   </g>
   <g id="patch_102">
    <path d="M 602.368275 299.518125 
L 609.783166 299.518125 
L 609.783166 117.320942 
L 602.368275 117.320942 
z
" clip-path="url(#pf4683f61a9)" style="fill: #fc8d62; opacity: 0.6"/>
   </g>
   <g id="patch_103">
    <path d="M 609.783166 299.518125 
L 617.198058 299.518125 
L 617.198058 147.480566 
L 609.783166 147.480566 
z
" clip-path="url(#pf4683f61a9)" style="fill: #fc8d62; opacity: 0.6"/>
   </g>
   <g id="patch_104">
    <path d="M 617.198058 299.518125 
L 624.612949 299.518125 
L 624.612949 193.339721 
L 617.198058 193.339721 
z
" clip-path="url(#pf4683f61a9)" style="fill: #fc8d62; opacity: 0.6"/>
   </g>
   <g id="patch_105">
    <path d="M 624.612949 299.518125 
L 632.027841 299.518125 
L 632.027841 246.22235 
L 624.612949 246.22235 
z
" clip-path="url(#pf4683f61a9)" style="fill: #fc8d62; opacity: 0.6"/>
   </g>
   <g id="patch_106">
    <path d="M 632.027841 299.518125 
L 639.442732 299.518125 
L 639.442732 279.273994 
L 632.027841 279.273994 
z
" clip-path="url(#pf4683f61a9)" style="fill: #fc8d62; opacity: 0.6"/>
   </g>
   <g id="patch_107">
    <path d="M 639.442732 299.518125 
L 646.857624 299.518125 
L 646.857624 286.297468 
L 639.442732 286.297468 
z
" clip-path="url(#pf4683f61a9)" style="fill: #fc8d62; opacity: 0.6"/>
   </g>
   <g id="patch_108">
    <path d="M 646.857624 299.518125 
L 654.272516 299.518125 
L 654.272516 296.626106 
L 646.857624 296.626106 
z
" clip-path="url(#pf4683f61a9)" style="fill: #fc8d62; opacity: 0.6"/>
   </g>
   <g id="patch_109">
    <path d="M 654.272516 299.518125 
L 661.687407 299.518125 
L 661.687407 298.278688 
L 654.272516 298.278688 
z
" clip-path="url(#pf4683f61a9)" style="fill: #fc8d62; opacity: 0.6"/>
   </g>
   <g id="patch_110">
    <path d="M 661.687407 299.518125 
L 669.102299 299.518125 
L 669.102299 299.104979 
L 661.687407 299.104979 
z
" clip-path="url(#pf4683f61a9)" style="fill: #fc8d62; opacity: 0.6"/>
   </g>
   <g id="patch_111">
    <path d="M 531.785225 299.518125 
L 547.141448 299.518125 
L 547.141448 298.691834 
L 531.785225 298.691834 
z
" clip-path="url(#pf4683f61a9)" style="fill: #8da0cb; opacity: 0.6"/>
   </g>
   <g id="patch_112">
    <path d="M 547.141448 299.518125 
L 562.49767 299.518125 
L 562.49767 297.039252 
L 547.141448 297.039252 
z
" clip-path="url(#pf4683f61a9)" style="fill: #8da0cb; opacity: 0.6"/>
   </g>
   <g id="patch_113">
    <path d="M 562.49767 299.518125 
L 577.853892 299.518125 
L 577.853892 296.212961 
L 562.49767 296.212961 
z
" clip-path="url(#pf4683f61a9)" style="fill: #8da0cb; opacity: 0.6"/>
   </g>
   <g id="patch_114">
    <path d="M 577.853892 299.518125 
L 593.210114 299.518125 
L 593.210114 283.818594 
L 577.853892 283.818594 
z
" clip-path="url(#pf4683f61a9)" style="fill: #8da0cb; opacity: 0.6"/>
   </g>
   <g id="patch_115">
    <path d="M 593.210114 299.518125 
L 608.566337 299.518125 
L 608.566337 266.879627 
L 593.210114 266.879627 
z
" clip-path="url(#pf4683f61a9)" style="fill: #8da0cb; opacity: 0.6"/>
   </g>
   <g id="patch_116">
    <path d="M 608.566337 299.518125 
L 623.922559 299.518125 
L 623.922559 225.978219 
L 608.566337 225.978219 
z
" clip-path="url(#pf4683f61a9)" style="fill: #8da0cb; opacity: 0.6"/>
   </g>
   <g id="patch_117">
    <path d="M 623.922559 299.518125 
L 639.278781 299.518125 
L 639.278781 186.729393 
L 623.922559 186.729393 
z
" clip-path="url(#pf4683f61a9)" style="fill: #8da0cb; opacity: 0.6"/>
   </g>
   <g id="patch_118">
    <path d="M 639.278781 299.518125 
L 654.635003 299.518125 
L 654.635003 132.607327 
L 639.278781 132.607327 
z
" clip-path="url(#pf4683f61a9)" style="fill: #8da0cb; opacity: 0.6"/>
   </g>
   <g id="patch_119">
    <path d="M 654.635003 299.518125 
L 669.991226 299.518125 
L 669.991226 51.630801 
L 654.635003 51.630801 
z
" clip-path="url(#pf4683f61a9)" style="fill: #8da0cb; opacity: 0.6"/>
   </g>
   <g id="patch_120">
    <path d="M 669.991226 299.518125 
L 685.347448 299.518125 
L 685.347448 50.391364 
L 669.991226 50.391364 
z
" clip-path="url(#pf4683f61a9)" style="fill: #8da0cb; opacity: 0.6"/>
   </g>
   <g id="patch_121">
    <path d="M 685.347448 299.518125 
L 700.70367 299.518125 
L 700.70367 53.696529 
L 685.347448 53.696529 
z
" clip-path="url(#pf4683f61a9)" style="fill: #8da0cb; opacity: 0.6"/>
   </g>
   <g id="patch_122">
    <path d="M 700.70367 299.518125 
L 716.059893 299.518125 
L 716.059893 102.034557 
L 700.70367 102.034557 
z
" clip-path="url(#pf4683f61a9)" style="fill: #8da0cb; opacity: 0.6"/>
   </g>
   <g id="patch_123">
    <path d="M 716.059893 299.518125 
L 731.416115 299.518125 
L 731.416115 160.701224 
L 716.059893 160.701224 
z
" clip-path="url(#pf4683f61a9)" style="fill: #8da0cb; opacity: 0.6"/>
   </g>
   <g id="patch_124">
    <path d="M 731.416115 299.518125 
L 746.772337 299.518125 
L 746.772337 212.757562 
L 731.416115 212.757562 
z
" clip-path="url(#pf4683f61a9)" style="fill: #8da0cb; opacity: 0.6"/>
   </g>
   <g id="patch_125">
    <path d="M 746.772337 299.518125 
L 762.128559 299.518125 
L 762.128559 250.353806 
L 746.772337 250.353806 
z
" clip-path="url(#pf4683f61a9)" style="fill: #8da0cb; opacity: 0.6"/>
   </g>
   <g id="patch_126">
    <path d="M 762.128559 299.518125 
L 777.484782 299.518125 
L 777.484782 281.752867 
L 762.128559 281.752867 
z
" clip-path="url(#pf4683f61a9)" style="fill: #8da0cb; opacity: 0.6"/>
   </g>
   <g id="patch_127">
    <path d="M 777.484782 299.518125 
L 792.841004 299.518125 
L 792.841004 292.081505 
L 777.484782 292.081505 
z
" clip-path="url(#pf4683f61a9)" style="fill: #8da0cb; opacity: 0.6"/>
   </g>
   <g id="patch_128">
    <path d="M 792.841004 299.518125 
L 808.197226 299.518125 
L 808.197226 297.039252 
L 792.841004 297.039252 
z
" clip-path="url(#pf4683f61a9)" style="fill: #8da0cb; opacity: 0.6"/>
   </g>
   <g id="patch_129">
    <path d="M 808.197226 299.518125 
L 823.553449 299.518125 
L 823.553449 298.278688 
L 808.197226 298.278688 
z
" clip-path="url(#pf4683f61a9)" style="fill: #8da0cb; opacity: 0.6"/>
   </g>
   <g id="patch_130">
    <path d="M 823.553449 299.518125 
L 838.909671 299.518125 
L 838.909671 299.104979 
L 823.553449 299.104979 
z
" clip-path="url(#pf4683f61a9)" style="fill: #8da0cb; opacity: 0.6"/>
   </g>
   <g id="matplotlib.axis_3">
    <g id="xtick_9">
     <g id="line2d_18">
      <g>
       <use xlink:href="#mdaaa95c294" x="505.212918" y="299.518125" style="stroke: #000000; stroke-width: 0.8"/>
      </g>
     </g>
     <g id="text_22">
      <!-- −0.1 -->
      <g transform="translate(493.071511 314.116563) scale(0.1 -0.1)">
       <use xlink:href="#DejaVuSans-2212"/>
       <use xlink:href="#DejaVuSans-30" x="83.789062"/>
       <use xlink:href="#DejaVuSans-2e" x="147.412109"/>
       <use xlink:href="#DejaVuSans-31" x="179.199219"/>
      </g>
     </g>
    </g>
    <g id="xtick_10">
     <g id="line2d_19">
      <g>
       <use xlink:href="#mdaaa95c294" x="557.488298" y="299.518125" style="stroke: #000000; stroke-width: 0.8"/>
      </g>
     </g>
     <g id="text_23">
      <!-- 0.0 -->
      <g transform="translate(549.536735 314.116563) scale(0.1 -0.1)">
       <use xlink:href="#DejaVuSans-30"/>
       <use xlink:href="#DejaVuSans-2e" x="63.623047"/>
       <use xlink:href="#DejaVuSans-30" x="95.410156"/>
      </g>
     </g>
    </g>
    <g id="xtick_11">
     <g id="line2d_20">
      <g>
       <use xlink:href="#mdaaa95c294" x="609.763678" y="299.518125" style="stroke: #000000; stroke-width: 0.8"/>
      </g>
     </g>
     <g id="text_24">
      <!-- 0.1 -->
      <g transform="translate(601.812116 314.116563) scale(0.1 -0.1)">
       <use xlink:href="#DejaVuSans-30"/>
       <use xlink:href="#DejaVuSans-2e" x="63.623047"/>
       <use xlink:href="#DejaVuSans-31" x="95.410156"/>
      </g>
     </g>
    </g>
    <g id="xtick_12">
     <g id="line2d_21">
      <g>
       <use xlink:href="#mdaaa95c294" x="662.039058" y="299.518125" style="stroke: #000000; stroke-width: 0.8"/>
      </g>
     </g>
     <g id="text_25">
      <!-- 0.2 -->
      <g transform="translate(654.087496 314.116563) scale(0.1 -0.1)">
       <use xlink:href="#DejaVuSans-30"/>
       <use xlink:href="#DejaVuSans-2e" x="63.623047"/>
       <use xlink:href="#DejaVuSans-32" x="95.410156"/>
      </g>
     </g>
    </g>
    <g id="xtick_13">
     <g id="line2d_22">
      <g>
       <use xlink:href="#mdaaa95c294" x="714.314439" y="299.518125" style="stroke: #000000; stroke-width: 0.8"/>
      </g>
     </g>
     <g id="text_26">
      <!-- 0.3 -->
      <g transform="translate(706.362876 314.116563) scale(0.1 -0.1)">
       <use xlink:href="#DejaVuSans-30"/>
       <use xlink:href="#DejaVuSans-2e" x="63.623047"/>
       <use xlink:href="#DejaVuSans-33" x="95.410156"/>
      </g>
     </g>
    </g>
    <g id="xtick_14">
     <g id="line2d_23">
      <g>
       <use xlink:href="#mdaaa95c294" x="766.589819" y="299.518125" style="stroke: #000000; stroke-width: 0.8"/>
      </g>
     </g>
     <g id="text_27">
      <!-- 0.4 -->
      <g transform="translate(758.638256 314.116563) scale(0.1 -0.1)">
       <use xlink:href="#DejaVuSans-30"/>
       <use xlink:href="#DejaVuSans-2e" x="63.623047"/>
       <use xlink:href="#DejaVuSans-34" x="95.410156"/>
      </g>
     </g>
    </g>
    <g id="xtick_15">
     <g id="line2d_24">
      <g>
       <use xlink:href="#mdaaa95c294" x="818.865199" y="299.518125" style="stroke: #000000; stroke-width: 0.8"/>
      </g>
     </g>
     <g id="text_28">
      <!-- 0.5 -->
      <g transform="translate(810.913637 314.116563) scale(0.1 -0.1)">
       <use xlink:href="#DejaVuSans-30"/>
       <use xlink:href="#DejaVuSans-2e" x="63.623047"/>
       <use xlink:href="#DejaVuSans-35" x="95.410156"/>
      </g>
     </g>
    </g>
    <g id="xtick_16">
     <g id="line2d_25">
      <g>
       <use xlink:href="#mdaaa95c294" x="871.140579" y="299.518125" style="stroke: #000000; stroke-width: 0.8"/>
      </g>
     </g>
     <g id="text_29">
      <!-- 0.6 -->
      <g transform="translate(863.189017 314.116563) scale(0.1 -0.1)">
       <use xlink:href="#DejaVuSans-30"/>
       <use xlink:href="#DejaVuSans-2e" x="63.623047"/>
       <use xlink:href="#DejaVuSans-36" x="95.410156"/>
      </g>
     </g>
    </g>
    <g id="text_30">
     <!-- Treatment effect relative to nearest baseline -->
     <g transform="translate(582.260227 327.794688) scale(0.1 -0.1)">
      <use xlink:href="#DejaVuSans-54"/>
      <use xlink:href="#DejaVuSans-72" x="46.333984"/>
      <use xlink:href="#DejaVuSans-65" x="85.197266"/>
      <use xlink:href="#DejaVuSans-61" x="146.720703"/>
      <use xlink:href="#DejaVuSans-74" x="208"/>
      <use xlink:href="#DejaVuSans-6d" x="247.208984"/>
      <use xlink:href="#DejaVuSans-65" x="344.621094"/>
      <use xlink:href="#DejaVuSans-6e" x="406.144531"/>
      <use xlink:href="#DejaVuSans-74" x="469.523438"/>
      <use xlink:href="#DejaVuSans-20" x="508.732422"/>
      <use xlink:href="#DejaVuSans-65" x="540.519531"/>
      <use xlink:href="#DejaVuSans-66" x="602.042969"/>
      <use xlink:href="#DejaVuSans-66" x="637.248047"/>
      <use xlink:href="#DejaVuSans-65" x="672.453125"/>
      <use xlink:href="#DejaVuSans-63" x="733.976562"/>
      <use xlink:href="#DejaVuSans-74" x="788.957031"/>
      <use xlink:href="#DejaVuSans-20" x="828.166016"/>
      <use xlink:href="#DejaVuSans-72" x="859.953125"/>
      <use xlink:href="#DejaVuSans-65" x="898.816406"/>
      <use xlink:href="#DejaVuSans-6c" x="960.339844"/>
      <use xlink:href="#DejaVuSans-61" x="988.123047"/>
      <use xlink:href="#DejaVuSans-74" x="1049.402344"/>
      <use xlink:href="#DejaVuSans-69" x="1088.611328"/>
      <use xlink:href="#DejaVuSans-76" x="1116.394531"/>
      <use xlink:href="#DejaVuSans-65" x="1175.574219"/>
      <use xlink:href="#DejaVuSans-20" x="1237.097656"/>
      <use xlink:href="#DejaVuSans-74" x="1268.884766"/>
      <use xlink:href="#DejaVuSans-6f" x="1308.09375"/>
      <use xlink:href="#DejaVuSans-20" x="1369.275391"/>
      <use xlink:href="#DejaVuSans-6e" x="1401.0625"/>
      <use xlink:href="#DejaVuSans-65" x="1464.441406"/>
      <use xlink:href="#DejaVuSans-61" x="1525.964844"/>
      <use xlink:href="#DejaVuSans-72" x="1587.244141"/>
      <use xlink:href="#DejaVuSans-65" x="1626.107422"/>
      <use xlink:href="#DejaVuSans-73" x="1687.630859"/>
      <use xlink:href="#DejaVuSans-74" x="1739.730469"/>
      <use xlink:href="#DejaVuSans-20" x="1778.939453"/>
      <use xlink:href="#DejaVuSans-62" x="1810.726562"/>
      <use xlink:href="#DejaVuSans-61" x="1874.203125"/>
      <use xlink:href="#DejaVuSans-73" x="1935.482422"/>
      <use xlink:href="#DejaVuSans-65" x="1987.582031"/>
      <use xlink:href="#DejaVuSans-6c" x="2049.105469"/>
      <use xlink:href="#DejaVuSans-69" x="2076.888672"/>
      <use xlink:href="#DejaVuSans-6e" x="2104.671875"/>
      <use xlink:href="#DejaVuSans-65" x="2168.050781"/>
     </g>
    </g>
   </g>
   <g id="matplotlib.axis_4">
    <g id="ytick_8">
     <g id="line2d_26">
      <g>
       <use xlink:href="#m539166cebb" x="503.51108" y="299.518125" style="stroke: #000000; stroke-width: 0.8"/>
      </g>
     </g>
     <g id="text_31">
      <!-- 0 -->
      <g transform="translate(490.14858 303.317344) scale(0.1 -0.1)">
       <use xlink:href="#DejaVuSans-30"/>
      </g>
     </g>
    </g>
    <g id="ytick_9">
     <g id="line2d_27">
      <g>
       <use xlink:href="#m539166cebb" x="503.51108" y="258.203571" style="stroke: #000000; stroke-width: 0.8"/>
      </g>
     </g>
     <g id="text_32">
      <!-- 100 -->
      <g transform="translate(477.42358 262.00279) scale(0.1 -0.1)">
       <use xlink:href="#DejaVuSans-31"/>
       <use xlink:href="#DejaVuSans-30" x="63.623047"/>
       <use xlink:href="#DejaVuSans-30" x="127.246094"/>
      </g>
     </g>
    </g>
    <g id="ytick_10">
     <g id="line2d_28">
      <g>
       <use xlink:href="#m539166cebb" x="503.51108" y="216.889017" style="stroke: #000000; stroke-width: 0.8"/>
      </g>
     </g>
     <g id="text_33">
      <!-- 200 -->
      <g transform="translate(477.42358 220.688236) scale(0.1 -0.1)">
       <use xlink:href="#DejaVuSans-32"/>
       <use xlink:href="#DejaVuSans-30" x="63.623047"/>
       <use xlink:href="#DejaVuSans-30" x="127.246094"/>
      </g>
     </g>
    </g>
    <g id="ytick_11">
     <g id="line2d_29">
      <g>
       <use xlink:href="#m539166cebb" x="503.51108" y="175.574463" style="stroke: #000000; stroke-width: 0.8"/>
      </g>
     </g>
     <g id="text_34">
      <!-- 300 -->
      <g transform="translate(477.42358 179.373682) scale(0.1 -0.1)">
       <use xlink:href="#DejaVuSans-33"/>
       <use xlink:href="#DejaVuSans-30" x="63.623047"/>
       <use xlink:href="#DejaVuSans-30" x="127.246094"/>
      </g>
     </g>
    </g>
    <g id="ytick_12">
     <g id="line2d_30">
      <g>
       <use xlink:href="#m539166cebb" x="503.51108" y="134.259909" style="stroke: #000000; stroke-width: 0.8"/>
      </g>
     </g>
     <g id="text_35">
      <!-- 400 -->
      <g transform="translate(477.42358 138.059128) scale(0.1 -0.1)">
       <use xlink:href="#DejaVuSans-34"/>
       <use xlink:href="#DejaVuSans-30" x="63.623047"/>
       <use xlink:href="#DejaVuSans-30" x="127.246094"/>
      </g>
     </g>
    </g>
    <g id="ytick_13">
     <g id="line2d_31">
      <g>
       <use xlink:href="#m539166cebb" x="503.51108" y="92.945355" style="stroke: #000000; stroke-width: 0.8"/>
      </g>
     </g>
     <g id="text_36">
      <!-- 500 -->
      <g transform="translate(477.42358 96.744574) scale(0.1 -0.1)">
       <use xlink:href="#DejaVuSans-35"/>
       <use xlink:href="#DejaVuSans-30" x="63.623047"/>
       <use xlink:href="#DejaVuSans-30" x="127.246094"/>
      </g>
     </g>
    </g>
    <g id="ytick_14">
     <g id="line2d_32">
      <g>
       <use xlink:href="#m539166cebb" x="503.51108" y="51.630801" style="stroke: #000000; stroke-width: 0.8"/>
      </g>
     </g>
     <g id="text_37">
      <!-- 600 -->
      <g transform="translate(477.42358 55.43002) scale(0.1 -0.1)">
       <use xlink:href="#DejaVuSans-36"/>
       <use xlink:href="#DejaVuSans-30" x="63.623047"/>
       <use xlink:href="#DejaVuSans-30" x="127.246094"/>
      </g>
     </g>
    </g>
    <g id="text_38">
     <!-- posterior samples -->
     <g transform="translate(471.343892 205.725156) rotate(-90) scale(0.1 -0.1)">
      <use xlink:href="#DejaVuSans-70"/>
      <use xlink:href="#DejaVuSans-6f" x="63.476562"/>
      <use xlink:href="#DejaVuSans-73" x="124.658203"/>
      <use xlink:href="#DejaVuSans-74" x="176.757812"/>
      <use xlink:href="#DejaVuSans-65" x="215.966797"/>
      <use xlink:href="#DejaVuSans-72" x="277.490234"/>
      <use xlink:href="#DejaVuSans-69" x="318.603516"/>
      <use xlink:href="#DejaVuSans-6f" x="346.386719"/>
      <use xlink:href="#DejaVuSans-72" x="407.568359"/>
      <use xlink:href="#DejaVuSans-20" x="448.681641"/>
      <use xlink:href="#DejaVuSans-73" x="480.46875"/>
      <use xlink:href="#DejaVuSans-61" x="532.568359"/>
      <use xlink:href="#DejaVuSans-6d" x="593.847656"/>
      <use xlink:href="#DejaVuSans-70" x="691.259766"/>
      <use xlink:href="#DejaVuSans-6c" x="754.736328"/>
      <use xlink:href="#DejaVuSans-65" x="782.519531"/>
      <use xlink:href="#DejaVuSans-73" x="844.042969"/>
     </g>
    </g>
   </g>
   <g id="patch_131">
    <path d="M 503.51108 299.518125 
L 503.51108 22.318125 
" style="fill: none; stroke: #000000; stroke-width: 0.8; stroke-linejoin: miter; stroke-linecap: square"/>
   </g>
   <g id="patch_132">
    <path d="M 883.965625 299.518125 
L 883.965625 22.318125 
" style="fill: none; stroke: #000000; stroke-width: 0.8; stroke-linejoin: miter; stroke-linecap: square"/>
   </g>
   <g id="patch_133">
    <path d="M 503.51108 299.518125 
L 883.965625 299.518125 
" style="fill: none; stroke: #000000; stroke-width: 0.8; stroke-linejoin: miter; stroke-linecap: square"/>
   </g>
   <g id="patch_134">
    <path d="M 503.51108 22.318125 
L 883.965625 22.318125 
" style="fill: none; stroke: #000000; stroke-width: 0.8; stroke-linejoin: miter; stroke-linecap: square"/>
   </g>
   <g id="text_39">
    <!-- Flux -->
    <g transform="translate(681.26679 16.318125) scale(0.12 -0.12)">
     <defs>
      <path id="DejaVuSans-46" d="M 628 4666 
L 3309 4666 
L 3309 4134 
L 1259 4134 
L 1259 2759 
L 3109 2759 
L 3109 2228 
L 1259 2228 
L 1259 0 
L 628 0 
L 628 4666 
z
" transform="scale(0.015625)"/>
      <path id="DejaVuSans-75" d="M 544 1381 
L 544 3500 
L 1119 3500 
L 1119 1403 
Q 1119 906 1312 657 
Q 1506 409 1894 409 
Q 2359 409 2629 706 
Q 2900 1003 2900 1516 
L 2900 3500 
L 3475 3500 
L 3475 0 
L 2900 0 
L 2900 538 
Q 2691 219 2414 64 
Q 2138 -91 1772 -91 
Q 1169 -91 856 284 
Q 544 659 544 1381 
z
M 1991 3584 
L 1991 3584 
z
" transform="scale(0.015625)"/>
      <path id="DejaVuSans-78" d="M 3513 3500 
L 2247 1797 
L 3578 0 
L 2900 0 
L 1881 1375 
L 863 0 
L 184 0 
L 1544 1831 
L 300 3500 
L 978 3500 
L 1906 2253 
L 2834 3500 
L 3513 3500 
z
" transform="scale(0.015625)"/>
     </defs>
     <use xlink:href="#DejaVuSans-46"/>
     <use xlink:href="#DejaVuSans-6c" x="57.519531"/>
     <use xlink:href="#DejaVuSans-75" x="85.302734"/>
     <use xlink:href="#DejaVuSans-78" x="148.681641"/>
    </g>
   </g>
   <g id="legend_2">
    <g id="patch_135">
     <path d="M 699.448437 38.916563 
L 719.448437 38.916563 
L 719.448437 31.916563 
L 699.448437 31.916563 
z
" style="fill: #66c2a5; opacity: 0.6"/>
    </g>
    <g id="text_40">
     <!-- hyper: prob +ve 1.0 -->
     <g transform="translate(727.448437 38.916563) scale(0.1 -0.1)">
      <use xlink:href="#DejaVuSans-68"/>
      <use xlink:href="#DejaVuSans-79" x="63.378906"/>
      <use xlink:href="#DejaVuSans-70" x="122.558594"/>
      <use xlink:href="#DejaVuSans-65" x="186.035156"/>
      <use xlink:href="#DejaVuSans-72" x="247.558594"/>
      <use xlink:href="#DejaVuSans-3a" x="286.921875"/>
      <use xlink:href="#DejaVuSans-20" x="320.613281"/>
      <use xlink:href="#DejaVuSans-70" x="352.400391"/>
      <use xlink:href="#DejaVuSans-72" x="415.876953"/>
      <use xlink:href="#DejaVuSans-6f" x="454.740234"/>
      <use xlink:href="#DejaVuSans-62" x="515.921875"/>
      <use xlink:href="#DejaVuSans-20" x="579.398438"/>
      <use xlink:href="#DejaVuSans-2b" x="611.185547"/>
      <use xlink:href="#DejaVuSans-76" x="694.974609"/>
      <use xlink:href="#DejaVuSans-65" x="754.154297"/>
      <use xlink:href="#DejaVuSans-20" x="815.677734"/>
      <use xlink:href="#DejaVuSans-31" x="847.464844"/>
      <use xlink:href="#DejaVuSans-2e" x="911.087891"/>
      <use xlink:href="#DejaVuSans-30" x="942.875"/>
     </g>
    </g>
    <g id="patch_136">
     <path d="M 699.448437 53.594688 
L 719.448437 53.594688 
L 719.448437 46.594688 
L 699.448437 46.594688 
z
" style="fill: #fc8d62; opacity: 0.6"/>
    </g>
    <g id="text_41">
     <!-- after_ablation: prob +ve 0.96 -->
     <g transform="translate(727.448437 53.594688) scale(0.1 -0.1)">
      <use xlink:href="#DejaVuSans-61"/>
      <use xlink:href="#DejaVuSans-66" x="61.279297"/>
      <use xlink:href="#DejaVuSans-74" x="94.734375"/>
      <use xlink:href="#DejaVuSans-65" x="133.943359"/>
      <use xlink:href="#DejaVuSans-72" x="195.466797"/>
      <use xlink:href="#DejaVuSans-5f" x="236.580078"/>
      <use xlink:href="#DejaVuSans-61" x="286.580078"/>
      <use xlink:href="#DejaVuSans-62" x="347.859375"/>
      <use xlink:href="#DejaVuSans-6c" x="411.335938"/>
      <use xlink:href="#DejaVuSans-61" x="439.119141"/>
      <use xlink:href="#DejaVuSans-74" x="500.398438"/>
      <use xlink:href="#DejaVuSans-69" x="539.607422"/>
      <use xlink:href="#DejaVuSans-6f" x="567.390625"/>
      <use xlink:href="#DejaVuSans-6e" x="628.572266"/>
      <use xlink:href="#DejaVuSans-3a" x="691.951172"/>
      <use xlink:href="#DejaVuSans-20" x="725.642578"/>
      <use xlink:href="#DejaVuSans-70" x="757.429688"/>
      <use xlink:href="#DejaVuSans-72" x="820.90625"/>
      <use xlink:href="#DejaVuSans-6f" x="859.769531"/>
      <use xlink:href="#DejaVuSans-62" x="920.951172"/>
      <use xlink:href="#DejaVuSans-20" x="984.427734"/>
      <use xlink:href="#DejaVuSans-2b" x="1016.214844"/>
      <use xlink:href="#DejaVuSans-76" x="1100.003906"/>
      <use xlink:href="#DejaVuSans-65" x="1159.183594"/>
      <use xlink:href="#DejaVuSans-20" x="1220.707031"/>
      <use xlink:href="#DejaVuSans-30" x="1252.494141"/>
      <use xlink:href="#DejaVuSans-2e" x="1316.117188"/>
      <use xlink:href="#DejaVuSans-39" x="1347.904297"/>
      <use xlink:href="#DejaVuSans-36" x="1411.527344"/>
     </g>
    </g>
    <g id="patch_137">
     <path d="M 699.448437 68.550938 
L 719.448437 68.550938 
L 719.448437 61.550938 
L 699.448437 61.550938 
z
" style="fill: #8da0cb; opacity: 0.6"/>
    </g>
    <g id="text_42">
     <!-- hyper2: prob +ve 0.999 -->
     <g transform="translate(727.448437 68.550938) scale(0.1 -0.1)">
      <use xlink:href="#DejaVuSans-68"/>
      <use xlink:href="#DejaVuSans-79" x="63.378906"/>
      <use xlink:href="#DejaVuSans-70" x="122.558594"/>
      <use xlink:href="#DejaVuSans-65" x="186.035156"/>
      <use xlink:href="#DejaVuSans-72" x="247.558594"/>
      <use xlink:href="#DejaVuSans-32" x="288.671875"/>
      <use xlink:href="#DejaVuSans-3a" x="352.294922"/>
      <use xlink:href="#DejaVuSans-20" x="385.986328"/>
      <use xlink:href="#DejaVuSans-70" x="417.773438"/>
      <use xlink:href="#DejaVuSans-72" x="481.25"/>
      <use xlink:href="#DejaVuSans-6f" x="520.113281"/>
      <use xlink:href="#DejaVuSans-62" x="581.294922"/>
      <use xlink:href="#DejaVuSans-20" x="644.771484"/>
      <use xlink:href="#DejaVuSans-2b" x="676.558594"/>
      <use xlink:href="#DejaVuSans-76" x="760.347656"/>
      <use xlink:href="#DejaVuSans-65" x="819.527344"/>
      <use xlink:href="#DejaVuSans-20" x="881.050781"/>
      <use xlink:href="#DejaVuSans-30" x="912.837891"/>
      <use xlink:href="#DejaVuSans-2e" x="976.460938"/>
      <use xlink:href="#DejaVuSans-39" x="1008.248047"/>
      <use xlink:href="#DejaVuSans-39" x="1071.871094"/>
      <use xlink:href="#DejaVuSans-39" x="1135.494141"/>
     </g>
    </g>
   </g>
  </g>
 </g>
 <defs>
  <clipPath id="p03055902fa">
   <rect x="46.965625" y="22.318125" width="380.454545" height="277.2"/>
  </clipPath>
  <clipPath id="pf4683f61a9">
   <rect x="503.51108" y="22.318125" width="380.454545" height="277.2"/>
  </clipPath>
 </defs>
</svg>
