<?xml version="1.0" encoding="utf-8" standalone="no"?>
<!DOCTYPE svg PUBLIC "-//W3C//DTD SVG 1.1//EN"
  "http://www.w3.org/Graphics/SVG/1.1/DTD/svg11.dtd">
<svg xmlns:xlink="http://www.w3.org/1999/xlink" width="891.165625pt" height="337.074375pt" viewBox="0 0 891.165625 337.074375" xmlns="http://www.w3.org/2000/svg" version="1.1">
 <metadata>
  <rdf:RDF xmlns:dc="http://purl.org/dc/elements/1.1/" xmlns:cc="http://creativecommons.org/ns#" xmlns:rdf="http://www.w3.org/1999/02/22-rdf-syntax-ns#">
   <cc:Work>
    <dc:type rdf:resource="http://purl.org/dc/dcmitype/StillImage"/>
    <dc:date>2024-11-18T14:16:09.126473</dc:date>
    <dc:format>image/svg+xml</dc:format>
    <dc:creator>
     <cc:Agent>
      <dc:title>Matplotlib v3.9.2, https://matplotlib.org/</dc:title>
     </cc:Agent>
    </dc:creator>
   </cc:Work>
  </rdf:RDF>
 </metadata>
 <defs>
  <style type="text/css">*{stroke-linejoin: round; stroke-linecap: butt}</style>
 </defs>
 <g id="figure_1">
  <g id="patch_1">
   <path d="M 0 337.074375 
L 891.165625 337.074375 
L 891.165625 0 
L 0 0 
z
" style="fill: #ffffff"/>
  </g>
  <g id="axes_1">
   <g id="patch_2">
    <path d="M 46.965625 299.518125 
L 427.42017 299.518125 
L 427.42017 22.318125 
L 46.965625 22.318125 
z
" style="fill: #ffffff"/>
   </g>
   <g id="line2d_1">
    <path d="M 102.830729 299.518125 
L 102.830729 22.318125 
" clip-path="url(#p6763965d85)" style="fill: none; stroke-dasharray: 1.85,0.8; stroke-dashoffset: 0; stroke: #000000; stroke-width: 0.5"/>
   </g>
   <g id="patch_3">
    <path d="M 175.76931 299.518125 
L 187.487184 299.518125 
L 187.487184 298.649704 
L 175.76931 298.649704 
z
" clip-path="url(#p6763965d85)" style="fill: #66c2a5; opacity: 0.6"/>
   </g>
   <g id="patch_4">
    <path d="M 187.487184 299.518125 
L 199.205057 299.518125 
L 199.205057 297.781283 
L 187.487184 297.781283 
z
" clip-path="url(#p6763965d85)" style="fill: #66c2a5; opacity: 0.6"/>
   </g>
   <g id="patch_5">
    <path d="M 199.205057 299.518125 
L 210.922931 299.518125 
L 210.922931 294.307599 
L 199.205057 294.307599 
z
" clip-path="url(#p6763965d85)" style="fill: #66c2a5; opacity: 0.6"/>
   </g>
   <g id="patch_6">
    <path d="M 210.922931 299.518125 
L 222.640805 299.518125 
L 222.640805 288.662862 
L 210.922931 288.662862 
z
" clip-path="url(#p6763965d85)" style="fill: #66c2a5; opacity: 0.6"/>
   </g>
   <g id="patch_7">
    <path d="M 222.640805 299.518125 
L 234.358678 299.518125 
L 234.358678 268.254967 
L 222.640805 268.254967 
z
" clip-path="url(#p6763965d85)" style="fill: #66c2a5; opacity: 0.6"/>
   </g>
   <g id="patch_8">
    <path d="M 234.358678 299.518125 
L 246.076552 299.518125 
L 246.076552 236.557599 
L 234.358678 236.557599 
z
" clip-path="url(#p6763965d85)" style="fill: #66c2a5; opacity: 0.6"/>
   </g>
   <g id="patch_9">
    <path d="M 246.076552 299.518125 
L 257.794425 299.518125 
L 257.794425 187.92602 
L 246.076552 187.92602 
z
" clip-path="url(#p6763965d85)" style="fill: #66c2a5; opacity: 0.6"/>
   </g>
   <g id="patch_10">
    <path d="M 257.794425 299.518125 
L 269.512299 299.518125 
L 269.512299 118.452336 
L 257.794425 118.452336 
z
" clip-path="url(#p6763965d85)" style="fill: #66c2a5; opacity: 0.6"/>
   </g>
   <g id="patch_11">
    <path d="M 269.512299 299.518125 
L 281.230173 299.518125 
L 281.230173 62.004967 
L 269.512299 62.004967 
z
" clip-path="url(#p6763965d85)" style="fill: #66c2a5; opacity: 0.6"/>
   </g>
   <g id="patch_12">
    <path d="M 281.230173 299.518125 
L 292.948046 299.518125 
L 292.948046 45.504967 
L 281.230173 45.504967 
z
" clip-path="url(#p6763965d85)" style="fill: #66c2a5; opacity: 0.6"/>
   </g>
   <g id="patch_13">
    <path d="M 292.948046 299.518125 
L 304.66592 299.518125 
L 304.66592 35.518125 
L 292.948046 35.518125 
z
" clip-path="url(#p6763965d85)" style="fill: #66c2a5; opacity: 0.6"/>
   </g>
   <g id="patch_14">
    <path d="M 304.66592 299.518125 
L 316.383793 299.518125 
L 316.383793 74.162862 
L 304.66592 74.162862 
z
" clip-path="url(#p6763965d85)" style="fill: #66c2a5; opacity: 0.6"/>
   </g>
   <g id="patch_15">
    <path d="M 316.383793 299.518125 
L 328.101667 299.518125 
L 328.101667 143.202336 
L 316.383793 143.202336 
z
" clip-path="url(#p6763965d85)" style="fill: #66c2a5; opacity: 0.6"/>
   </g>
   <g id="patch_16">
    <path d="M 328.101667 299.518125 
L 339.81954 299.518125 
L 339.81954 203.991809 
L 328.101667 203.991809 
z
" clip-path="url(#p6763965d85)" style="fill: #66c2a5; opacity: 0.6"/>
   </g>
   <g id="patch_17">
    <path d="M 339.81954 299.518125 
L 351.537414 299.518125 
L 351.537414 239.162862 
L 339.81954 239.162862 
z
" clip-path="url(#p6763965d85)" style="fill: #66c2a5; opacity: 0.6"/>
   </g>
   <g id="patch_18">
    <path d="M 351.537414 299.518125 
L 363.255288 299.518125 
L 363.255288 274.768125 
L 351.537414 274.768125 
z
" clip-path="url(#p6763965d85)" style="fill: #66c2a5; opacity: 0.6"/>
   </g>
   <g id="patch_19">
    <path d="M 363.255288 299.518125 
L 374.973161 299.518125 
L 374.973161 291.702336 
L 363.255288 291.702336 
z
" clip-path="url(#p6763965d85)" style="fill: #66c2a5; opacity: 0.6"/>
   </g>
   <g id="patch_20">
    <path d="M 374.973161 299.518125 
L 386.691035 299.518125 
L 386.691035 296.044441 
L 374.973161 296.044441 
z
" clip-path="url(#p6763965d85)" style="fill: #66c2a5; opacity: 0.6"/>
   </g>
   <g id="patch_21">
    <path d="M 386.691035 299.518125 
L 398.408908 299.518125 
L 398.408908 297.781283 
L 386.691035 297.781283 
z
" clip-path="url(#p6763965d85)" style="fill: #66c2a5; opacity: 0.6"/>
   </g>
   <g id="patch_22">
    <path d="M 398.408908 299.518125 
L 410.126782 299.518125 
L 410.126782 299.083914 
L 398.408908 299.083914 
z
" clip-path="url(#p6763965d85)" style="fill: #66c2a5; opacity: 0.6"/>
   </g>
   <g id="patch_23">
    <path d="M 64.259013 299.518125 
L 72.157742 299.518125 
L 72.157742 297.781283 
L 64.259013 297.781283 
z
" clip-path="url(#p6763965d85)" style="fill: #fc8d62; opacity: 0.6"/>
   </g>
   <g id="patch_24">
    <path d="M 72.157742 299.518125 
L 80.056471 299.518125 
L 80.056471 293.873388 
L 72.157742 293.873388 
z
" clip-path="url(#p6763965d85)" style="fill: #fc8d62; opacity: 0.6"/>
   </g>
   <g id="patch_25">
    <path d="M 80.056471 299.518125 
L 87.9552 299.518125 
L 87.9552 284.320757 
L 80.056471 284.320757 
z
" clip-path="url(#p6763965d85)" style="fill: #fc8d62; opacity: 0.6"/>
   </g>
   <g id="patch_26">
    <path d="M 87.9552 299.518125 
L 95.853928 299.518125 
L 95.853928 280.412862 
L 87.9552 280.412862 
z
" clip-path="url(#p6763965d85)" style="fill: #fc8d62; opacity: 0.6"/>
   </g>
   <g id="patch_27">
    <path d="M 95.853928 299.518125 
L 103.752657 299.518125 
L 103.752657 256.097072 
L 95.853928 256.097072 
z
" clip-path="url(#p6763965d85)" style="fill: #fc8d62; opacity: 0.6"/>
   </g>
   <g id="patch_28">
    <path d="M 103.752657 299.518125 
L 111.651386 299.518125 
L 111.651386 230.912862 
L 103.752657 230.912862 
z
" clip-path="url(#p6763965d85)" style="fill: #fc8d62; opacity: 0.6"/>
   </g>
   <g id="patch_29">
    <path d="M 111.651386 299.518125 
L 119.550115 299.518125 
L 119.550115 170.557599 
L 111.651386 170.557599 
z
" clip-path="url(#p6763965d85)" style="fill: #fc8d62; opacity: 0.6"/>
   </g>
   <g id="patch_30">
    <path d="M 119.550115 299.518125 
L 127.448843 299.518125 
L 127.448843 146.241809 
L 119.550115 146.241809 
z
" clip-path="url(#p6763965d85)" style="fill: #fc8d62; opacity: 0.6"/>
   </g>
   <g id="patch_31">
    <path d="M 127.448843 299.518125 
L 135.347572 299.518125 
L 135.347572 84.583914 
L 127.448843 84.583914 
z
" clip-path="url(#p6763965d85)" style="fill: #fc8d62; opacity: 0.6"/>
   </g>
   <g id="patch_32">
    <path d="M 135.347572 299.518125 
L 143.246301 299.518125 
L 143.246301 92.833914 
L 135.347572 92.833914 
z
" clip-path="url(#p6763965d85)" style="fill: #fc8d62; opacity: 0.6"/>
   </g>
   <g id="patch_33">
    <path d="M 143.246301 299.518125 
L 151.14503 299.518125 
L 151.14503 78.504967 
L 143.246301 78.504967 
z
" clip-path="url(#p6763965d85)" style="fill: #fc8d62; opacity: 0.6"/>
   </g>
   <g id="patch_34">
    <path d="M 151.14503 299.518125 
L 159.043758 299.518125 
L 159.043758 114.11023 
L 151.14503 114.11023 
z
" clip-path="url(#p6763965d85)" style="fill: #fc8d62; opacity: 0.6"/>
   </g>
   <g id="patch_35">
    <path d="M 159.043758 299.518125 
L 166.942487 299.518125 
L 166.942487 132.347072 
L 159.043758 132.347072 
z
" clip-path="url(#p6763965d85)" style="fill: #fc8d62; opacity: 0.6"/>
   </g>
   <g id="patch_36">
    <path d="M 166.942487 299.518125 
L 174.841216 299.518125 
L 174.841216 172.294441 
L 166.942487 172.294441 
z
" clip-path="url(#p6763965d85)" style="fill: #fc8d62; opacity: 0.6"/>
   </g>
   <g id="patch_37">
    <path d="M 174.841216 299.518125 
L 182.739945 299.518125 
L 182.739945 215.281283 
L 174.841216 215.281283 
z
" clip-path="url(#p6763965d85)" style="fill: #fc8d62; opacity: 0.6"/>
   </g>
   <g id="patch_38">
    <path d="M 182.739945 299.518125 
L 190.638673 299.518125 
L 190.638673 252.189178 
L 182.739945 252.189178 
z
" clip-path="url(#p6763965d85)" style="fill: #fc8d62; opacity: 0.6"/>
   </g>
   <g id="patch_39">
    <path d="M 190.638673 299.518125 
L 198.537402 299.518125 
L 198.537402 274.333914 
L 190.638673 274.333914 
z
" clip-path="url(#p6763965d85)" style="fill: #fc8d62; opacity: 0.6"/>
   </g>
   <g id="patch_40">
    <path d="M 198.537402 299.518125 
L 206.436131 299.518125 
L 206.436131 286.92602 
L 198.537402 286.92602 
z
" clip-path="url(#p6763965d85)" style="fill: #fc8d62; opacity: 0.6"/>
   </g>
   <g id="patch_41">
    <path d="M 206.436131 299.518125 
L 214.33486 299.518125 
L 214.33486 292.570757 
L 206.436131 292.570757 
z
" clip-path="url(#p6763965d85)" style="fill: #fc8d62; opacity: 0.6"/>
   </g>
   <g id="patch_42">
    <path d="M 214.33486 299.518125 
L 222.233588 299.518125 
L 222.233588 297.347072 
L 214.33486 297.347072 
z
" clip-path="url(#p6763965d85)" style="fill: #fc8d62; opacity: 0.6"/>
   </g>
   <g id="patch_43">
    <path d="M 162.069877 299.518125 
L 173.228789 299.518125 
L 173.228789 297.347072 
L 162.069877 297.347072 
z
" clip-path="url(#p6763965d85)" style="fill: #8da0cb; opacity: 0.6"/>
   </g>
   <g id="patch_44">
    <path d="M 173.228789 299.518125 
L 184.3877 299.518125 
L 184.3877 296.912862 
L 173.228789 296.912862 
z
" clip-path="url(#p6763965d85)" style="fill: #8da0cb; opacity: 0.6"/>
   </g>
   <g id="patch_45">
    <path d="M 184.3877 299.518125 
L 195.546612 299.518125 
L 195.546612 294.307599 
L 184.3877 294.307599 
z
" clip-path="url(#p6763965d85)" style="fill: #8da0cb; opacity: 0.6"/>
   </g>
   <g id="patch_46">
    <path d="M 195.546612 299.518125 
L 206.705524 299.518125 
L 206.705524 284.754967 
L 195.546612 284.754967 
z
" clip-path="url(#p6763965d85)" style="fill: #8da0cb; opacity: 0.6"/>
   </g>
   <g id="patch_47">
    <path d="M 206.705524 299.518125 
L 217.864436 299.518125 
L 217.864436 280.412862 
L 206.705524 280.412862 
z
" clip-path="url(#p6763965d85)" style="fill: #8da0cb; opacity: 0.6"/>
   </g>
   <g id="patch_48">
    <path d="M 217.864436 299.518125 
L 229.023348 299.518125 
L 229.023348 260.873388 
L 217.864436 260.873388 
z
" clip-path="url(#p6763965d85)" style="fill: #8da0cb; opacity: 0.6"/>
   </g>
   <g id="patch_49">
    <path d="M 229.023348 299.518125 
L 240.182259 299.518125 
L 240.182259 225.268125 
L 229.023348 225.268125 
z
" clip-path="url(#p6763965d85)" style="fill: #8da0cb; opacity: 0.6"/>
   </g>
   <g id="patch_50">
    <path d="M 240.182259 299.518125 
L 251.341171 299.518125 
L 251.341171 170.123388 
L 240.182259 170.123388 
z
" clip-path="url(#p6763965d85)" style="fill: #8da0cb; opacity: 0.6"/>
   </g>
   <g id="patch_51">
    <path d="M 251.341171 299.518125 
L 262.500083 299.518125 
L 262.500083 130.17602 
L 251.341171 130.17602 
z
" clip-path="url(#p6763965d85)" style="fill: #8da0cb; opacity: 0.6"/>
   </g>
   <g id="patch_52">
    <path d="M 262.500083 299.518125 
L 273.658995 299.518125 
L 273.658995 91.531283 
L 262.500083 91.531283 
z
" clip-path="url(#p6763965d85)" style="fill: #8da0cb; opacity: 0.6"/>
   </g>
   <g id="patch_53">
    <path d="M 273.658995 299.518125 
L 284.817906 299.518125 
L 284.817906 74.597072 
L 273.658995 74.597072 
z
" clip-path="url(#p6763965d85)" style="fill: #8da0cb; opacity: 0.6"/>
   </g>
   <g id="patch_54">
    <path d="M 284.817906 299.518125 
L 295.976818 299.518125 
L 295.976818 55.92602 
L 284.817906 55.92602 
z
" clip-path="url(#p6763965d85)" style="fill: #8da0cb; opacity: 0.6"/>
   </g>
   <g id="patch_55">
    <path d="M 295.976818 299.518125 
L 307.13573 299.518125 
L 307.13573 95.004967 
L 295.976818 95.004967 
z
" clip-path="url(#p6763965d85)" style="fill: #8da0cb; opacity: 0.6"/>
   </g>
   <g id="patch_56">
    <path d="M 307.13573 299.518125 
L 318.294642 299.518125 
L 318.294642 142.333914 
L 307.13573 142.333914 
z
" clip-path="url(#p6763965d85)" style="fill: #8da0cb; opacity: 0.6"/>
   </g>
   <g id="patch_57">
    <path d="M 318.294642 299.518125 
L 329.453554 299.518125 
L 329.453554 193.570757 
L 318.294642 193.570757 
z
" clip-path="url(#p6763965d85)" style="fill: #8da0cb; opacity: 0.6"/>
   </g>
   <g id="patch_58">
    <path d="M 329.453554 299.518125 
L 340.612465 299.518125 
L 340.612465 235.254967 
L 329.453554 235.254967 
z
" clip-path="url(#p6763965d85)" style="fill: #8da0cb; opacity: 0.6"/>
   </g>
   <g id="patch_59">
    <path d="M 340.612465 299.518125 
L 351.771377 299.518125 
L 351.771377 265.649704 
L 340.612465 265.649704 
z
" clip-path="url(#p6763965d85)" style="fill: #8da0cb; opacity: 0.6"/>
   </g>
   <g id="patch_60">
    <path d="M 351.771377 299.518125 
L 362.930289 299.518125 
L 362.930289 276.504967 
L 351.771377 276.504967 
z
" clip-path="url(#p6763965d85)" style="fill: #8da0cb; opacity: 0.6"/>
   </g>
   <g id="patch_61">
    <path d="M 362.930289 299.518125 
L 374.089201 299.518125 
L 374.089201 289.531283 
L 362.930289 289.531283 
z
" clip-path="url(#p6763965d85)" style="fill: #8da0cb; opacity: 0.6"/>
   </g>
   <g id="patch_62">
    <path d="M 374.089201 299.518125 
L 385.248113 299.518125 
L 385.248113 293.439178 
L 374.089201 293.439178 
z
" clip-path="url(#p6763965d85)" style="fill: #8da0cb; opacity: 0.6"/>
   </g>
   <g id="matplotlib.axis_1">
    <g id="xtick_1">
     <g id="line2d_2">
      <defs>
       <path id="mff4d96e198" d="M 0 0 
L 0 3.5 
" style="stroke: #000000; stroke-width: 0.8"/>
      </defs>
      <g>
       <use xlink:href="#mff4d96e198" x="53.319954" y="299.518125" style="stroke: #000000; stroke-width: 0.8"/>
      </g>
     </g>
     <g id="text_1">
      <!-- −0.1 -->
      <g transform="translate(41.178548 314.116563) scale(0.1 -0.1)">
       <defs>
        <path id="DejaVuSans-2212" d="M 678 2272 
L 4684 2272 
L 4684 1741 
L 678 1741 
L 678 2272 
z
" transform="scale(0.015625)"/>
        <path id="DejaVuSans-30" d="M 2034 4250 
Q 1547 4250 1301 3770 
Q 1056 3291 1056 2328 
Q 1056 1369 1301 889 
Q 1547 409 2034 409 
Q 2525 409 2770 889 
Q 3016 1369 3016 2328 
Q 3016 3291 2770 3770 
Q 2525 4250 2034 4250 
z
M 2034 4750 
Q 2819 4750 3233 4129 
Q 3647 3509 3647 2328 
Q 3647 1150 3233 529 
Q 2819 -91 2034 -91 
Q 1250 -91 836 529 
Q 422 1150 422 2328 
Q 422 3509 836 4129 
Q 1250 4750 2034 4750 
z
" transform="scale(0.015625)"/>
        <path id="DejaVuSans-2e" d="M 684 794 
L 1344 794 
L 1344 0 
L 684 0 
L 684 794 
z
" transform="scale(0.015625)"/>
        <path id="DejaVuSans-31" d="M 794 531 
L 1825 531 
L 1825 4091 
L 703 3866 
L 703 4441 
L 1819 4666 
L 2450 4666 
L 2450 531 
L 3481 531 
L 3481 0 
L 794 0 
L 794 531 
z
" transform="scale(0.015625)"/>
       </defs>
       <use xlink:href="#DejaVuSans-2212"/>
       <use xlink:href="#DejaVuSans-30" x="83.789062"/>
       <use xlink:href="#DejaVuSans-2e" x="147.412109"/>
       <use xlink:href="#DejaVuSans-31" x="179.199219"/>
      </g>
     </g>
    </g>
    <g id="xtick_2">
     <g id="line2d_3">
      <g>
       <use xlink:href="#mff4d96e198" x="102.830729" y="299.518125" style="stroke: #000000; stroke-width: 0.8"/>
      </g>
     </g>
     <g id="text_2">
      <!-- 0.0 -->
      <g transform="translate(94.879167 314.116563) scale(0.1 -0.1)">
       <use xlink:href="#DejaVuSans-30"/>
       <use xlink:href="#DejaVuSans-2e" x="63.623047"/>
       <use xlink:href="#DejaVuSans-30" x="95.410156"/>
      </g>
     </g>
    </g>
    <g id="xtick_3">
     <g id="line2d_4">
      <g>
       <use xlink:href="#mff4d96e198" x="152.341505" y="299.518125" style="stroke: #000000; stroke-width: 0.8"/>
      </g>
     </g>
     <g id="text_3">
      <!-- 0.1 -->
      <g transform="translate(144.389942 314.116563) scale(0.1 -0.1)">
       <use xlink:href="#DejaVuSans-30"/>
       <use xlink:href="#DejaVuSans-2e" x="63.623047"/>
       <use xlink:href="#DejaVuSans-31" x="95.410156"/>
      </g>
     </g>
    </g>
    <g id="xtick_4">
     <g id="line2d_5">
      <g>
       <use xlink:href="#mff4d96e198" x="201.85228" y="299.518125" style="stroke: #000000; stroke-width: 0.8"/>
      </g>
     </g>
     <g id="text_4">
      <!-- 0.2 -->
      <g transform="translate(193.900717 314.116563) scale(0.1 -0.1)">
       <defs>
        <path id="DejaVuSans-32" d="M 1228 531 
L 3431 531 
L 3431 0 
L 469 0 
L 469 531 
Q 828 903 1448 1529 
Q 2069 2156 2228 2338 
Q 2531 2678 2651 2914 
Q 2772 3150 2772 3378 
Q 2772 3750 2511 3984 
Q 2250 4219 1831 4219 
Q 1534 4219 1204 4116 
Q 875 4013 500 3803 
L 500 4441 
Q 881 4594 1212 4672 
Q 1544 4750 1819 4750 
Q 2544 4750 2975 4387 
Q 3406 4025 3406 3419 
Q 3406 3131 3298 2873 
Q 3191 2616 2906 2266 
Q 2828 2175 2409 1742 
Q 1991 1309 1228 531 
z
" transform="scale(0.015625)"/>
       </defs>
       <use xlink:href="#DejaVuSans-30"/>
       <use xlink:href="#DejaVuSans-2e" x="63.623047"/>
       <use xlink:href="#DejaVuSans-32" x="95.410156"/>
      </g>
     </g>
    </g>
    <g id="xtick_5">
     <g id="line2d_6">
      <g>
       <use xlink:href="#mff4d96e198" x="251.363055" y="299.518125" style="stroke: #000000; stroke-width: 0.8"/>
      </g>
     </g>
     <g id="text_5">
      <!-- 0.3 -->
      <g transform="translate(243.411492 314.116563) scale(0.1 -0.1)">
       <defs>
        <path id="DejaVuSans-33" d="M 2597 2516 
Q 3050 2419 3304 2112 
Q 3559 1806 3559 1356 
Q 3559 666 3084 287 
Q 2609 -91 1734 -91 
Q 1441 -91 1130 -33 
Q 819 25 488 141 
L 488 750 
Q 750 597 1062 519 
Q 1375 441 1716 441 
Q 2309 441 2620 675 
Q 2931 909 2931 1356 
Q 2931 1769 2642 2001 
Q 2353 2234 1838 2234 
L 1294 2234 
L 1294 2753 
L 1863 2753 
Q 2328 2753 2575 2939 
Q 2822 3125 2822 3475 
Q 2822 3834 2567 4026 
Q 2313 4219 1838 4219 
Q 1578 4219 1281 4162 
Q 984 4106 628 3988 
L 628 4550 
Q 988 4650 1302 4700 
Q 1616 4750 1894 4750 
Q 2613 4750 3031 4423 
Q 3450 4097 3450 3541 
Q 3450 3153 3228 2886 
Q 3006 2619 2597 2516 
z
" transform="scale(0.015625)"/>
       </defs>
       <use xlink:href="#DejaVuSans-30"/>
       <use xlink:href="#DejaVuSans-2e" x="63.623047"/>
       <use xlink:href="#DejaVuSans-33" x="95.410156"/>
      </g>
     </g>
    </g>
    <g id="xtick_6">
     <g id="line2d_7">
      <g>
       <use xlink:href="#mff4d96e198" x="300.87383" y="299.518125" style="stroke: #000000; stroke-width: 0.8"/>
      </g>
     </g>
     <g id="text_6">
      <!-- 0.4 -->
      <g transform="translate(292.922268 314.116563) scale(0.1 -0.1)">
       <defs>
        <path id="DejaVuSans-34" d="M 2419 4116 
L 825 1625 
L 2419 1625 
L 2419 4116 
z
M 2253 4666 
L 3047 4666 
L 3047 1625 
L 3713 1625 
L 3713 1100 
L 3047 1100 
L 3047 0 
L 2419 0 
L 2419 1100 
L 313 1100 
L 313 1709 
L 2253 4666 
z
" transform="scale(0.015625)"/>
       </defs>
       <use xlink:href="#DejaVuSans-30"/>
       <use xlink:href="#DejaVuSans-2e" x="63.623047"/>
       <use xlink:href="#DejaVuSans-34" x="95.410156"/>
      </g>
     </g>
    </g>
    <g id="xtick_7">
     <g id="line2d_8">
      <g>
       <use xlink:href="#mff4d96e198" x="350.384605" y="299.518125" style="stroke: #000000; stroke-width: 0.8"/>
      </g>
     </g>
     <g id="text_7">
      <!-- 0.5 -->
      <g transform="translate(342.433043 314.116563) scale(0.1 -0.1)">
       <defs>
        <path id="DejaVuSans-35" d="M 691 4666 
L 3169 4666 
L 3169 4134 
L 1269 4134 
L 1269 2991 
Q 1406 3038 1543 3061 
Q 1681 3084 1819 3084 
Q 2600 3084 3056 2656 
Q 3513 2228 3513 1497 
Q 3513 744 3044 326 
Q 2575 -91 1722 -91 
Q 1428 -91 1123 -41 
Q 819 9 494 109 
L 494 744 
Q 775 591 1075 516 
Q 1375 441 1709 441 
Q 2250 441 2565 725 
Q 2881 1009 2881 1497 
Q 2881 1984 2565 2268 
Q 2250 2553 1709 2553 
Q 1456 2553 1204 2497 
Q 953 2441 691 2322 
L 691 4666 
z
" transform="scale(0.015625)"/>
       </defs>
       <use xlink:href="#DejaVuSans-30"/>
       <use xlink:href="#DejaVuSans-2e" x="63.623047"/>
       <use xlink:href="#DejaVuSans-35" x="95.410156"/>
      </g>
     </g>
    </g>
    <g id="xtick_8">
     <g id="line2d_9">
      <g>
       <use xlink:href="#mff4d96e198" x="399.89538" y="299.518125" style="stroke: #000000; stroke-width: 0.8"/>
      </g>
     </g>
     <g id="text_8">
      <!-- 0.6 -->
      <g transform="translate(391.943818 314.116563) scale(0.1 -0.1)">
       <defs>
        <path id="DejaVuSans-36" d="M 2113 2584 
Q 1688 2584 1439 2293 
Q 1191 2003 1191 1497 
Q 1191 994 1439 701 
Q 1688 409 2113 409 
Q 2538 409 2786 701 
Q 3034 994 3034 1497 
Q 3034 2003 2786 2293 
Q 2538 2584 2113 2584 
z
M 3366 4563 
L 3366 3988 
Q 3128 4100 2886 4159 
Q 2644 4219 2406 4219 
Q 1781 4219 1451 3797 
Q 1122 3375 1075 2522 
Q 1259 2794 1537 2939 
Q 1816 3084 2150 3084 
Q 2853 3084 3261 2657 
Q 3669 2231 3669 1497 
Q 3669 778 3244 343 
Q 2819 -91 2113 -91 
Q 1303 -91 875 529 
Q 447 1150 447 2328 
Q 447 3434 972 4092 
Q 1497 4750 2381 4750 
Q 2619 4750 2861 4703 
Q 3103 4656 3366 4563 
z
" transform="scale(0.015625)"/>
       </defs>
       <use xlink:href="#DejaVuSans-30"/>
       <use xlink:href="#DejaVuSans-2e" x="63.623047"/>
       <use xlink:href="#DejaVuSans-36" x="95.410156"/>
      </g>
     </g>
    </g>
    <g id="text_9">
     <!-- Treatment effect relative to nearest baseline -->
     <g transform="translate(125.714773 327.794688) scale(0.1 -0.1)">
      <defs>
       <path id="DejaVuSans-54" d="M -19 4666 
L 3928 4666 
L 3928 4134 
L 2272 4134 
L 2272 0 
L 1638 0 
L 1638 4134 
L -19 4134 
L -19 4666 
z
" transform="scale(0.015625)"/>
       <path id="DejaVuSans-72" d="M 2631 2963 
Q 2534 3019 2420 3045 
Q 2306 3072 2169 3072 
Q 1681 3072 1420 2755 
Q 1159 2438 1159 1844 
L 1159 0 
L 581 0 
L 581 3500 
L 1159 3500 
L 1159 2956 
Q 1341 3275 1631 3429 
Q 1922 3584 2338 3584 
Q 2397 3584 2469 3576 
Q 2541 3569 2628 3553 
L 2631 2963 
z
" transform="scale(0.015625)"/>
       <path id="DejaVuSans-65" d="M 3597 1894 
L 3597 1613 
L 953 1613 
Q 991 1019 1311 708 
Q 1631 397 2203 397 
Q 2534 397 2845 478 
Q 3156 559 3463 722 
L 3463 178 
Q 3153 47 2828 -22 
Q 2503 -91 2169 -91 
Q 1331 -91 842 396 
Q 353 884 353 1716 
Q 353 2575 817 3079 
Q 1281 3584 2069 3584 
Q 2775 3584 3186 3129 
Q 3597 2675 3597 1894 
z
M 3022 2063 
Q 3016 2534 2758 2815 
Q 2500 3097 2075 3097 
Q 1594 3097 1305 2825 
Q 1016 2553 972 2059 
L 3022 2063 
z
" transform="scale(0.015625)"/>
       <path id="DejaVuSans-61" d="M 2194 1759 
Q 1497 1759 1228 1600 
Q 959 1441 959 1056 
Q 959 750 1161 570 
Q 1363 391 1709 391 
Q 2188 391 2477 730 
Q 2766 1069 2766 1631 
L 2766 1759 
L 2194 1759 
z
M 3341 1997 
L 3341 0 
L 2766 0 
L 2766 531 
Q 2569 213 2275 61 
Q 1981 -91 1556 -91 
Q 1019 -91 701 211 
Q 384 513 384 1019 
Q 384 1609 779 1909 
Q 1175 2209 1959 2209 
L 2766 2209 
L 2766 2266 
Q 2766 2663 2505 2880 
Q 2244 3097 1772 3097 
Q 1472 3097 1187 3025 
Q 903 2953 641 2809 
L 641 3341 
Q 956 3463 1253 3523 
Q 1550 3584 1831 3584 
Q 2591 3584 2966 3190 
Q 3341 2797 3341 1997 
z
" transform="scale(0.015625)"/>
       <path id="DejaVuSans-74" d="M 1172 4494 
L 1172 3500 
L 2356 3500 
L 2356 3053 
L 1172 3053 
L 1172 1153 
Q 1172 725 1289 603 
Q 1406 481 1766 481 
L 2356 481 
L 2356 0 
L 1766 0 
Q 1100 0 847 248 
Q 594 497 594 1153 
L 594 3053 
L 172 3053 
L 172 3500 
L 594 3500 
L 594 4494 
L 1172 4494 
z
" transform="scale(0.015625)"/>
       <path id="DejaVuSans-6d" d="M 3328 2828 
Q 3544 3216 3844 3400 
Q 4144 3584 4550 3584 
Q 5097 3584 5394 3201 
Q 5691 2819 5691 2113 
L 5691 0 
L 5113 0 
L 5113 2094 
Q 5113 2597 4934 2840 
Q 4756 3084 4391 3084 
Q 3944 3084 3684 2787 
Q 3425 2491 3425 1978 
L 3425 0 
L 2847 0 
L 2847 2094 
Q 2847 2600 2669 2842 
Q 2491 3084 2119 3084 
Q 1678 3084 1418 2786 
Q 1159 2488 1159 1978 
L 1159 0 
L 581 0 
L 581 3500 
L 1159 3500 
L 1159 2956 
Q 1356 3278 1631 3431 
Q 1906 3584 2284 3584 
Q 2666 3584 2933 3390 
Q 3200 3197 3328 2828 
z
" transform="scale(0.015625)"/>
       <path id="DejaVuSans-6e" d="M 3513 2113 
L 3513 0 
L 2938 0 
L 2938 2094 
Q 2938 2591 2744 2837 
Q 2550 3084 2163 3084 
Q 1697 3084 1428 2787 
Q 1159 2491 1159 1978 
L 1159 0 
L 581 0 
L 581 3500 
L 1159 3500 
L 1159 2956 
Q 1366 3272 1645 3428 
Q 1925 3584 2291 3584 
Q 2894 3584 3203 3211 
Q 3513 2838 3513 2113 
z
" transform="scale(0.015625)"/>
       <path id="DejaVuSans-20" transform="scale(0.015625)"/>
       <path id="DejaVuSans-66" d="M 2375 4863 
L 2375 4384 
L 1825 4384 
Q 1516 4384 1395 4259 
Q 1275 4134 1275 3809 
L 1275 3500 
L 2222 3500 
L 2222 3053 
L 1275 3053 
L 1275 0 
L 697 0 
L 697 3053 
L 147 3053 
L 147 3500 
L 697 3500 
L 697 3744 
Q 697 4328 969 4595 
Q 1241 4863 1831 4863 
L 2375 4863 
z
" transform="scale(0.015625)"/>
       <path id="DejaVuSans-63" d="M 3122 3366 
L 3122 2828 
Q 2878 2963 2633 3030 
Q 2388 3097 2138 3097 
Q 1578 3097 1268 2742 
Q 959 2388 959 1747 
Q 959 1106 1268 751 
Q 1578 397 2138 397 
Q 2388 397 2633 464 
Q 2878 531 3122 666 
L 3122 134 
Q 2881 22 2623 -34 
Q 2366 -91 2075 -91 
Q 1284 -91 818 406 
Q 353 903 353 1747 
Q 353 2603 823 3093 
Q 1294 3584 2113 3584 
Q 2378 3584 2631 3529 
Q 2884 3475 3122 3366 
z
" transform="scale(0.015625)"/>
       <path id="DejaVuSans-6c" d="M 603 4863 
L 1178 4863 
L 1178 0 
L 603 0 
L 603 4863 
z
" transform="scale(0.015625)"/>
       <path id="DejaVuSans-69" d="M 603 3500 
L 1178 3500 
L 1178 0 
L 603 0 
L 603 3500 
z
M 603 4863 
L 1178 4863 
L 1178 4134 
L 603 4134 
L 603 4863 
z
" transform="scale(0.015625)"/>
       <path id="DejaVuSans-76" d="M 191 3500 
L 800 3500 
L 1894 563 
L 2988 3500 
L 3597 3500 
L 2284 0 
L 1503 0 
L 191 3500 
z
" transform="scale(0.015625)"/>
       <path id="DejaVuSans-6f" d="M 1959 3097 
Q 1497 3097 1228 2736 
Q 959 2375 959 1747 
Q 959 1119 1226 758 
Q 1494 397 1959 397 
Q 2419 397 2687 759 
Q 2956 1122 2956 1747 
Q 2956 2369 2687 2733 
Q 2419 3097 1959 3097 
z
M 1959 3584 
Q 2709 3584 3137 3096 
Q 3566 2609 3566 1747 
Q 3566 888 3137 398 
Q 2709 -91 1959 -91 
Q 1206 -91 779 398 
Q 353 888 353 1747 
Q 353 2609 779 3096 
Q 1206 3584 1959 3584 
z
" transform="scale(0.015625)"/>
       <path id="DejaVuSans-73" d="M 2834 3397 
L 2834 2853 
Q 2591 2978 2328 3040 
Q 2066 3103 1784 3103 
Q 1356 3103 1142 2972 
Q 928 2841 928 2578 
Q 928 2378 1081 2264 
Q 1234 2150 1697 2047 
L 1894 2003 
Q 2506 1872 2764 1633 
Q 3022 1394 3022 966 
Q 3022 478 2636 193 
Q 2250 -91 1575 -91 
Q 1294 -91 989 -36 
Q 684 19 347 128 
L 347 722 
Q 666 556 975 473 
Q 1284 391 1588 391 
Q 1994 391 2212 530 
Q 2431 669 2431 922 
Q 2431 1156 2273 1281 
Q 2116 1406 1581 1522 
L 1381 1569 
Q 847 1681 609 1914 
Q 372 2147 372 2553 
Q 372 3047 722 3315 
Q 1072 3584 1716 3584 
Q 2034 3584 2315 3537 
Q 2597 3491 2834 3397 
z
" transform="scale(0.015625)"/>
       <path id="DejaVuSans-62" d="M 3116 1747 
Q 3116 2381 2855 2742 
Q 2594 3103 2138 3103 
Q 1681 3103 1420 2742 
Q 1159 2381 1159 1747 
Q 1159 1113 1420 752 
Q 1681 391 2138 391 
Q 2594 391 2855 752 
Q 3116 1113 3116 1747 
z
M 1159 2969 
Q 1341 3281 1617 3432 
Q 1894 3584 2278 3584 
Q 2916 3584 3314 3078 
Q 3713 2572 3713 1747 
Q 3713 922 3314 415 
Q 2916 -91 2278 -91 
Q 1894 -91 1617 61 
Q 1341 213 1159 525 
L 1159 0 
L 581 0 
L 581 4863 
L 1159 4863 
L 1159 2969 
z
" transform="scale(0.015625)"/>
      </defs>
      <use xlink:href="#DejaVuSans-54"/>
      <use xlink:href="#DejaVuSans-72" x="46.333984"/>
      <use xlink:href="#DejaVuSans-65" x="85.197266"/>
      <use xlink:href="#DejaVuSans-61" x="146.720703"/>
      <use xlink:href="#DejaVuSans-74" x="208"/>
      <use xlink:href="#DejaVuSans-6d" x="247.208984"/>
      <use xlink:href="#DejaVuSans-65" x="344.621094"/>
      <use xlink:href="#DejaVuSans-6e" x="406.144531"/>
      <use xlink:href="#DejaVuSans-74" x="469.523438"/>
      <use xlink:href="#DejaVuSans-20" x="508.732422"/>
      <use xlink:href="#DejaVuSans-65" x="540.519531"/>
      <use xlink:href="#DejaVuSans-66" x="602.042969"/>
      <use xlink:href="#DejaVuSans-66" x="637.248047"/>
      <use xlink:href="#DejaVuSans-65" x="672.453125"/>
      <use xlink:href="#DejaVuSans-63" x="733.976562"/>
      <use xlink:href="#DejaVuSans-74" x="788.957031"/>
      <use xlink:href="#DejaVuSans-20" x="828.166016"/>
      <use xlink:href="#DejaVuSans-72" x="859.953125"/>
      <use xlink:href="#DejaVuSans-65" x="898.816406"/>
      <use xlink:href="#DejaVuSans-6c" x="960.339844"/>
      <use xlink:href="#DejaVuSans-61" x="988.123047"/>
      <use xlink:href="#DejaVuSans-74" x="1049.402344"/>
      <use xlink:href="#DejaVuSans-69" x="1088.611328"/>
      <use xlink:href="#DejaVuSans-76" x="1116.394531"/>
      <use xlink:href="#DejaVuSans-65" x="1175.574219"/>
      <use xlink:href="#DejaVuSans-20" x="1237.097656"/>
      <use xlink:href="#DejaVuSans-74" x="1268.884766"/>
      <use xlink:href="#DejaVuSans-6f" x="1308.09375"/>
      <use xlink:href="#DejaVuSans-20" x="1369.275391"/>
      <use xlink:href="#DejaVuSans-6e" x="1401.0625"/>
      <use xlink:href="#DejaVuSans-65" x="1464.441406"/>
      <use xlink:href="#DejaVuSans-61" x="1525.964844"/>
      <use xlink:href="#DejaVuSans-72" x="1587.244141"/>
      <use xlink:href="#DejaVuSans-65" x="1626.107422"/>
      <use xlink:href="#DejaVuSans-73" x="1687.630859"/>
      <use xlink:href="#DejaVuSans-74" x="1739.730469"/>
      <use xlink:href="#DejaVuSans-20" x="1778.939453"/>
      <use xlink:href="#DejaVuSans-62" x="1810.726562"/>
      <use xlink:href="#DejaVuSans-61" x="1874.203125"/>
      <use xlink:href="#DejaVuSans-73" x="1935.482422"/>
      <use xlink:href="#DejaVuSans-65" x="1987.582031"/>
      <use xlink:href="#DejaVuSans-6c" x="2049.105469"/>
      <use xlink:href="#DejaVuSans-69" x="2076.888672"/>
      <use xlink:href="#DejaVuSans-6e" x="2104.671875"/>
      <use xlink:href="#DejaVuSans-65" x="2168.050781"/>
     </g>
    </g>
   </g>
   <g id="matplotlib.axis_2">
    <g id="ytick_1">
     <g id="line2d_10">
      <defs>
       <path id="maa17ce5166" d="M 0 0 
L -3.5 0 
" style="stroke: #000000; stroke-width: 0.8"/>
      </defs>
      <g>
       <use xlink:href="#maa17ce5166" x="46.965625" y="299.518125" style="stroke: #000000; stroke-width: 0.8"/>
      </g>
     </g>
     <g id="text_10">
      <!-- 0 -->
      <g transform="translate(33.603125 303.317344) scale(0.1 -0.1)">
       <use xlink:href="#DejaVuSans-30"/>
      </g>
     </g>
    </g>
    <g id="ytick_2">
     <g id="line2d_11">
      <g>
       <use xlink:href="#maa17ce5166" x="46.965625" y="256.097072" style="stroke: #000000; stroke-width: 0.8"/>
      </g>
     </g>
     <g id="text_11">
      <!-- 100 -->
      <g transform="translate(20.878125 259.896291) scale(0.1 -0.1)">
       <use xlink:href="#DejaVuSans-31"/>
       <use xlink:href="#DejaVuSans-30" x="63.623047"/>
       <use xlink:href="#DejaVuSans-30" x="127.246094"/>
      </g>
     </g>
    </g>
    <g id="ytick_3">
     <g id="line2d_12">
      <g>
       <use xlink:href="#maa17ce5166" x="46.965625" y="212.67602" style="stroke: #000000; stroke-width: 0.8"/>
      </g>
     </g>
     <g id="text_12">
      <!-- 200 -->
      <g transform="translate(20.878125 216.475238) scale(0.1 -0.1)">
       <use xlink:href="#DejaVuSans-32"/>
       <use xlink:href="#DejaVuSans-30" x="63.623047"/>
       <use xlink:href="#DejaVuSans-30" x="127.246094"/>
      </g>
     </g>
    </g>
    <g id="ytick_4">
     <g id="line2d_13">
      <g>
       <use xlink:href="#maa17ce5166" x="46.965625" y="169.254967" style="stroke: #000000; stroke-width: 0.8"/>
      </g>
     </g>
     <g id="text_13">
      <!-- 300 -->
      <g transform="translate(20.878125 173.054186) scale(0.1 -0.1)">
       <use xlink:href="#DejaVuSans-33"/>
       <use xlink:href="#DejaVuSans-30" x="63.623047"/>
       <use xlink:href="#DejaVuSans-30" x="127.246094"/>
      </g>
     </g>
    </g>
    <g id="ytick_5">
     <g id="line2d_14">
      <g>
       <use xlink:href="#maa17ce5166" x="46.965625" y="125.833914" style="stroke: #000000; stroke-width: 0.8"/>
      </g>
     </g>
     <g id="text_14">
      <!-- 400 -->
      <g transform="translate(20.878125 129.633133) scale(0.1 -0.1)">
       <use xlink:href="#DejaVuSans-34"/>
       <use xlink:href="#DejaVuSans-30" x="63.623047"/>
       <use xlink:href="#DejaVuSans-30" x="127.246094"/>
      </g>
     </g>
    </g>
    <g id="ytick_6">
     <g id="line2d_15">
      <g>
       <use xlink:href="#maa17ce5166" x="46.965625" y="82.412862" style="stroke: #000000; stroke-width: 0.8"/>
      </g>
     </g>
     <g id="text_15">
      <!-- 500 -->
      <g transform="translate(20.878125 86.212081) scale(0.1 -0.1)">
       <use xlink:href="#DejaVuSans-35"/>
       <use xlink:href="#DejaVuSans-30" x="63.623047"/>
       <use xlink:href="#DejaVuSans-30" x="127.246094"/>
      </g>
     </g>
    </g>
    <g id="ytick_7">
     <g id="line2d_16">
      <g>
       <use xlink:href="#maa17ce5166" x="46.965625" y="38.991809" style="stroke: #000000; stroke-width: 0.8"/>
      </g>
     </g>
     <g id="text_16">
      <!-- 600 -->
      <g transform="translate(20.878125 42.791028) scale(0.1 -0.1)">
       <use xlink:href="#DejaVuSans-36"/>
       <use xlink:href="#DejaVuSans-30" x="63.623047"/>
       <use xlink:href="#DejaVuSans-30" x="127.246094"/>
      </g>
     </g>
    </g>
    <g id="text_17">
     <!-- posterior samples -->
     <g transform="translate(14.798438 205.725156) rotate(-90) scale(0.1 -0.1)">
      <defs>
       <path id="DejaVuSans-70" d="M 1159 525 
L 1159 -1331 
L 581 -1331 
L 581 3500 
L 1159 3500 
L 1159 2969 
Q 1341 3281 1617 3432 
Q 1894 3584 2278 3584 
Q 2916 3584 3314 3078 
Q 3713 2572 3713 1747 
Q 3713 922 3314 415 
Q 2916 -91 2278 -91 
Q 1894 -91 1617 61 
Q 1341 213 1159 525 
z
M 3116 1747 
Q 3116 2381 2855 2742 
Q 2594 3103 2138 3103 
Q 1681 3103 1420 2742 
Q 1159 2381 1159 1747 
Q 1159 1113 1420 752 
Q 1681 391 2138 391 
Q 2594 391 2855 752 
Q 3116 1113 3116 1747 
z
" transform="scale(0.015625)"/>
      </defs>
      <use xlink:href="#DejaVuSans-70"/>
      <use xlink:href="#DejaVuSans-6f" x="63.476562"/>
      <use xlink:href="#DejaVuSans-73" x="124.658203"/>
      <use xlink:href="#DejaVuSans-74" x="176.757812"/>
      <use xlink:href="#DejaVuSans-65" x="215.966797"/>
      <use xlink:href="#DejaVuSans-72" x="277.490234"/>
      <use xlink:href="#DejaVuSans-69" x="318.603516"/>
      <use xlink:href="#DejaVuSans-6f" x="346.386719"/>
      <use xlink:href="#DejaVuSans-72" x="407.568359"/>
      <use xlink:href="#DejaVuSans-20" x="448.681641"/>
      <use xlink:href="#DejaVuSans-73" x="480.46875"/>
      <use xlink:href="#DejaVuSans-61" x="532.568359"/>
      <use xlink:href="#DejaVuSans-6d" x="593.847656"/>
      <use xlink:href="#DejaVuSans-70" x="691.259766"/>
      <use xlink:href="#DejaVuSans-6c" x="754.736328"/>
      <use xlink:href="#DejaVuSans-65" x="782.519531"/>
      <use xlink:href="#DejaVuSans-73" x="844.042969"/>
     </g>
    </g>
   </g>
   <g id="patch_63">
    <path d="M 46.965625 299.518125 
L 46.965625 22.318125 
" style="fill: none; stroke: #000000; stroke-width: 0.8; stroke-linejoin: miter; stroke-linecap: square"/>
   </g>
   <g id="patch_64">
    <path d="M 427.42017 299.518125 
L 427.42017 22.318125 
" style="fill: none; stroke: #000000; stroke-width: 0.8; stroke-linejoin: miter; stroke-linecap: square"/>
   </g>
   <g id="patch_65">
    <path d="M 46.965625 299.518125 
L 427.42017 299.518125 
" style="fill: none; stroke: #000000; stroke-width: 0.8; stroke-linejoin: miter; stroke-linecap: square"/>
   </g>
   <g id="patch_66">
    <path d="M 46.965625 22.318125 
L 427.42017 22.318125 
" style="fill: none; stroke: #000000; stroke-width: 0.8; stroke-linejoin: miter; stroke-linecap: square"/>
   </g>
   <g id="text_18">
    <!-- Speed -->
    <g transform="translate(218.38196 16.318125) scale(0.12 -0.12)">
     <defs>
      <path id="DejaVuSans-53" d="M 3425 4513 
L 3425 3897 
Q 3066 4069 2747 4153 
Q 2428 4238 2131 4238 
Q 1616 4238 1336 4038 
Q 1056 3838 1056 3469 
Q 1056 3159 1242 3001 
Q 1428 2844 1947 2747 
L 2328 2669 
Q 3034 2534 3370 2195 
Q 3706 1856 3706 1288 
Q 3706 609 3251 259 
Q 2797 -91 1919 -91 
Q 1588 -91 1214 -16 
Q 841 59 441 206 
L 441 856 
Q 825 641 1194 531 
Q 1563 422 1919 422 
Q 2459 422 2753 634 
Q 3047 847 3047 1241 
Q 3047 1584 2836 1778 
Q 2625 1972 2144 2069 
L 1759 2144 
Q 1053 2284 737 2584 
Q 422 2884 422 3419 
Q 422 4038 858 4394 
Q 1294 4750 2059 4750 
Q 2388 4750 2728 4690 
Q 3069 4631 3425 4513 
z
" transform="scale(0.015625)"/>
      <path id="DejaVuSans-64" d="M 2906 2969 
L 2906 4863 
L 3481 4863 
L 3481 0 
L 2906 0 
L 2906 525 
Q 2725 213 2448 61 
Q 2172 -91 1784 -91 
Q 1150 -91 751 415 
Q 353 922 353 1747 
Q 353 2572 751 3078 
Q 1150 3584 1784 3584 
Q 2172 3584 2448 3432 
Q 2725 3281 2906 2969 
z
M 947 1747 
Q 947 1113 1208 752 
Q 1469 391 1925 391 
Q 2381 391 2643 752 
Q 2906 1113 2906 1747 
Q 2906 2381 2643 2742 
Q 2381 3103 1925 3103 
Q 1469 3103 1208 2742 
Q 947 2381 947 1747 
z
" transform="scale(0.015625)"/>
     </defs>
     <use xlink:href="#DejaVuSans-53"/>
     <use xlink:href="#DejaVuSans-70" x="63.476562"/>
     <use xlink:href="#DejaVuSans-65" x="126.953125"/>
     <use xlink:href="#DejaVuSans-65" x="188.476562"/>
     <use xlink:href="#DejaVuSans-64" x="250"/>
    </g>
   </g>
   <g id="legend_1">
    <g id="patch_67">
     <path d="M 55.965625 38.916563 
L 75.965625 38.916563 
L 75.965625 31.916563 
L 55.965625 31.916563 
z
" style="fill: #66c2a5; opacity: 0.6"/>
    </g>
    <g id="text_19">
     <!-- hyper: prob +ve 1.0 -->
     <g transform="translate(83.965625 38.916563) scale(0.1 -0.1)">
      <defs>
       <path id="DejaVuSans-68" d="M 3513 2113 
L 3513 0 
L 2938 0 
L 2938 2094 
Q 2938 2591 2744 2837 
Q 2550 3084 2163 3084 
Q 1697 3084 1428 2787 
Q 1159 2491 1159 1978 
L 1159 0 
L 581 0 
L 581 4863 
L 1159 4863 
L 1159 2956 
Q 1366 3272 1645 3428 
Q 1925 3584 2291 3584 
Q 2894 3584 3203 3211 
Q 3513 2838 3513 2113 
z
" transform="scale(0.015625)"/>
       <path id="DejaVuSans-79" d="M 2059 -325 
Q 1816 -950 1584 -1140 
Q 1353 -1331 966 -1331 
L 506 -1331 
L 506 -850 
L 844 -850 
Q 1081 -850 1212 -737 
Q 1344 -625 1503 -206 
L 1606 56 
L 191 3500 
L 800 3500 
L 1894 763 
L 2988 3500 
L 3597 3500 
L 2059 -325 
z
" transform="scale(0.015625)"/>
       <path id="DejaVuSans-3a" d="M 750 794 
L 1409 794 
L 1409 0 
L 750 0 
L 750 794 
z
M 750 3309 
L 1409 3309 
L 1409 2516 
L 750 2516 
L 750 3309 
z
" transform="scale(0.015625)"/>
       <path id="DejaVuSans-2b" d="M 2944 4013 
L 2944 2272 
L 4684 2272 
L 4684 1741 
L 2944 1741 
L 2944 0 
L 2419 0 
L 2419 1741 
L 678 1741 
L 678 2272 
L 2419 2272 
L 2419 4013 
L 2944 4013 
z
" transform="scale(0.015625)"/>
      </defs>
      <use xlink:href="#DejaVuSans-68"/>
      <use xlink:href="#DejaVuSans-79" x="63.378906"/>
      <use xlink:href="#DejaVuSans-70" x="122.558594"/>
      <use xlink:href="#DejaVuSans-65" x="186.035156"/>
      <use xlink:href="#DejaVuSans-72" x="247.558594"/>
      <use xlink:href="#DejaVuSans-3a" x="286.921875"/>
      <use xlink:href="#DejaVuSans-20" x="320.613281"/>
      <use xlink:href="#DejaVuSans-70" x="352.400391"/>
      <use xlink:href="#DejaVuSans-72" x="415.876953"/>
      <use xlink:href="#DejaVuSans-6f" x="454.740234"/>
      <use xlink:href="#DejaVuSans-62" x="515.921875"/>
      <use xlink:href="#DejaVuSans-20" x="579.398438"/>
      <use xlink:href="#DejaVuSans-2b" x="611.185547"/>
      <use xlink:href="#DejaVuSans-76" x="694.974609"/>
      <use xlink:href="#DejaVuSans-65" x="754.154297"/>
      <use xlink:href="#DejaVuSans-20" x="815.677734"/>
      <use xlink:href="#DejaVuSans-31" x="847.464844"/>
      <use xlink:href="#DejaVuSans-2e" x="911.087891"/>
      <use xlink:href="#DejaVuSans-30" x="942.875"/>
     </g>
    </g>
    <g id="patch_68">
     <path d="M 55.965625 53.594688 
L 75.965625 53.594688 
L 75.965625 46.594688 
L 55.965625 46.594688 
z
" style="fill: #fc8d62; opacity: 0.6"/>
    </g>
    <g id="text_20">
     <!-- after_ablation: prob +ve 0.954 -->
     <g transform="translate(83.965625 53.594688) scale(0.1 -0.1)">
      <defs>
       <path id="DejaVuSans-5f" d="M 3263 -1063 
L 3263 -1509 
L -63 -1509 
L -63 -1063 
L 3263 -1063 
z
" transform="scale(0.015625)"/>
       <path id="DejaVuSans-39" d="M 703 97 
L 703 672 
Q 941 559 1184 500 
Q 1428 441 1663 441 
Q 2288 441 2617 861 
Q 2947 1281 2994 2138 
Q 2813 1869 2534 1725 
Q 2256 1581 1919 1581 
Q 1219 1581 811 2004 
Q 403 2428 403 3163 
Q 403 3881 828 4315 
Q 1253 4750 1959 4750 
Q 2769 4750 3195 4129 
Q 3622 3509 3622 2328 
Q 3622 1225 3098 567 
Q 2575 -91 1691 -91 
Q 1453 -91 1209 -44 
Q 966 3 703 97 
z
M 1959 2075 
Q 2384 2075 2632 2365 
Q 2881 2656 2881 3163 
Q 2881 3666 2632 3958 
Q 2384 4250 1959 4250 
Q 1534 4250 1286 3958 
Q 1038 3666 1038 3163 
Q 1038 2656 1286 2365 
Q 1534 2075 1959 2075 
z
" transform="scale(0.015625)"/>
      </defs>
      <use xlink:href="#DejaVuSans-61"/>
      <use xlink:href="#DejaVuSans-66" x="61.279297"/>
      <use xlink:href="#DejaVuSans-74" x="94.734375"/>
      <use xlink:href="#DejaVuSans-65" x="133.943359"/>
      <use xlink:href="#DejaVuSans-72" x="195.466797"/>
      <use xlink:href="#DejaVuSans-5f" x="236.580078"/>
      <use xlink:href="#DejaVuSans-61" x="286.580078"/>
      <use xlink:href="#DejaVuSans-62" x="347.859375"/>
      <use xlink:href="#DejaVuSans-6c" x="411.335938"/>
      <use xlink:href="#DejaVuSans-61" x="439.119141"/>
      <use xlink:href="#DejaVuSans-74" x="500.398438"/>
      <use xlink:href="#DejaVuSans-69" x="539.607422"/>
      <use xlink:href="#DejaVuSans-6f" x="567.390625"/>
      <use xlink:href="#DejaVuSans-6e" x="628.572266"/>
      <use xlink:href="#DejaVuSans-3a" x="691.951172"/>
      <use xlink:href="#DejaVuSans-20" x="725.642578"/>
      <use xlink:href="#DejaVuSans-70" x="757.429688"/>
      <use xlink:href="#DejaVuSans-72" x="820.90625"/>
      <use xlink:href="#DejaVuSans-6f" x="859.769531"/>
      <use xlink:href="#DejaVuSans-62" x="920.951172"/>
      <use xlink:href="#DejaVuSans-20" x="984.427734"/>
      <use xlink:href="#DejaVuSans-2b" x="1016.214844"/>
      <use xlink:href="#DejaVuSans-76" x="1100.003906"/>
      <use xlink:href="#DejaVuSans-65" x="1159.183594"/>
      <use xlink:href="#DejaVuSans-20" x="1220.707031"/>
      <use xlink:href="#DejaVuSans-30" x="1252.494141"/>
      <use xlink:href="#DejaVuSans-2e" x="1316.117188"/>
      <use xlink:href="#DejaVuSans-39" x="1347.904297"/>
      <use xlink:href="#DejaVuSans-35" x="1411.527344"/>
      <use xlink:href="#DejaVuSans-34" x="1475.150391"/>
     </g>
    </g>
    <g id="patch_69">
     <path d="M 55.965625 68.550938 
L 75.965625 68.550938 
L 75.965625 61.550938 
L 55.965625 61.550938 
z
" style="fill: #8da0cb; opacity: 0.6"/>
    </g>
    <g id="text_21">
     <!-- hyper2: prob +ve 1.0 -->
     <g transform="translate(83.965625 68.550938) scale(0.1 -0.1)">
      <use xlink:href="#DejaVuSans-68"/>
      <use xlink:href="#DejaVuSans-79" x="63.378906"/>
      <use xlink:href="#DejaVuSans-70" x="122.558594"/>
      <use xlink:href="#DejaVuSans-65" x="186.035156"/>
      <use xlink:href="#DejaVuSans-72" x="247.558594"/>
      <use xlink:href="#DejaVuSans-32" x="288.671875"/>
      <use xlink:href="#DejaVuSans-3a" x="352.294922"/>
      <use xlink:href="#DejaVuSans-20" x="385.986328"/>
      <use xlink:href="#DejaVuSans-70" x="417.773438"/>
      <use xlink:href="#DejaVuSans-72" x="481.25"/>
      <use xlink:href="#DejaVuSans-6f" x="520.113281"/>
      <use xlink:href="#DejaVuSans-62" x="581.294922"/>
      <use xlink:href="#DejaVuSans-20" x="644.771484"/>
      <use xlink:href="#DejaVuSans-2b" x="676.558594"/>
      <use xlink:href="#DejaVuSans-76" x="760.347656"/>
      <use xlink:href="#DejaVuSans-65" x="819.527344"/>
      <use xlink:href="#DejaVuSans-20" x="881.050781"/>
      <use xlink:href="#DejaVuSans-31" x="912.837891"/>
      <use xlink:href="#DejaVuSans-2e" x="976.460938"/>
      <use xlink:href="#DejaVuSans-30" x="1008.248047"/>
     </g>
    </g>
   </g>
  </g>
  <g id="axes_2">
   <g id="patch_70">
    <path d="M 503.51108 299.518125 
L 883.965625 299.518125 
L 883.965625 22.318125 
L 503.51108 22.318125 
z
" style="fill: #ffffff"/>
   </g>
   <g id="line2d_17">
    <path d="M 557.137949 299.518125 
L 557.137949 22.318125 
" clip-path="url(#pcf40ee6160)" style="fill: none; stroke-dasharray: 1.85,0.8; stroke-dashoffset: 0; stroke: #000000; stroke-width: 0.5"/>
   </g>
   <g id="patch_71">
    <path d="M 627.064623 299.518125 
L 639.045004 299.518125 
L 639.045004 296.801144 
L 627.064623 296.801144 
z
" clip-path="url(#pcf40ee6160)" style="fill: #66c2a5; opacity: 0.6"/>
   </g>
   <g id="patch_72">
    <path d="M 639.045004 299.518125 
L 651.025385 299.518125 
L 651.025385 296.348314 
L 639.045004 296.348314 
z
" clip-path="url(#pcf40ee6160)" style="fill: #66c2a5; opacity: 0.6"/>
   </g>
   <g id="patch_73">
    <path d="M 651.025385 299.518125 
L 663.005765 299.518125 
L 663.005765 294.084163 
L 651.025385 294.084163 
z
" clip-path="url(#pcf40ee6160)" style="fill: #66c2a5; opacity: 0.6"/>
   </g>
   <g id="patch_74">
    <path d="M 663.005765 299.518125 
L 674.986146 299.518125 
L 674.986146 288.6502 
L 663.005765 288.6502 
z
" clip-path="url(#pcf40ee6160)" style="fill: #66c2a5; opacity: 0.6"/>
   </g>
   <g id="patch_75">
    <path d="M 674.986146 299.518125 
L 686.966527 299.518125 
L 686.966527 278.687936 
L 674.986146 278.687936 
z
" clip-path="url(#pcf40ee6160)" style="fill: #66c2a5; opacity: 0.6"/>
   </g>
   <g id="patch_76">
    <path d="M 686.966527 299.518125 
L 698.946907 299.518125 
L 698.946907 256.952087 
L 686.966527 256.952087 
z
" clip-path="url(#pcf40ee6160)" style="fill: #66c2a5; opacity: 0.6"/>
   </g>
   <g id="patch_77">
    <path d="M 698.946907 299.518125 
L 710.927288 299.518125 
L 710.927288 220.272842 
L 698.946907 220.272842 
z
" clip-path="url(#pcf40ee6160)" style="fill: #66c2a5; opacity: 0.6"/>
   </g>
   <g id="patch_78">
    <path d="M 710.927288 299.518125 
L 722.907669 299.518125 
L 722.907669 171.367182 
L 710.927288 171.367182 
z
" clip-path="url(#pcf40ee6160)" style="fill: #66c2a5; opacity: 0.6"/>
   </g>
   <g id="patch_79">
    <path d="M 722.907669 299.518125 
L 734.888049 299.518125 
L 734.888049 107.065295 
L 722.907669 107.065295 
z
" clip-path="url(#pcf40ee6160)" style="fill: #66c2a5; opacity: 0.6"/>
   </g>
   <g id="patch_80">
    <path d="M 734.888049 299.518125 
L 746.86843 299.518125 
L 746.86843 82.612465 
L 734.888049 82.612465 
z
" clip-path="url(#pcf40ee6160)" style="fill: #66c2a5; opacity: 0.6"/>
   </g>
   <g id="patch_81">
    <path d="M 746.86843 299.518125 
L 758.848811 299.518125 
L 758.848811 58.159634 
L 746.86843 58.159634 
z
" clip-path="url(#pcf40ee6160)" style="fill: #66c2a5; opacity: 0.6"/>
   </g>
   <g id="patch_82">
    <path d="M 758.848811 299.518125 
L 770.829191 299.518125 
L 770.829191 63.140767 
L 758.848811 63.140767 
z
" clip-path="url(#pcf40ee6160)" style="fill: #66c2a5; opacity: 0.6"/>
   </g>
   <g id="patch_83">
    <path d="M 770.829191 299.518125 
L 782.809572 299.518125 
L 782.809572 98.914351 
L 770.829191 98.914351 
z
" clip-path="url(#pcf40ee6160)" style="fill: #66c2a5; opacity: 0.6"/>
   </g>
   <g id="patch_84">
    <path d="M 782.809572 299.518125 
L 794.789953 299.518125 
L 794.789953 130.159634 
L 782.809572 130.159634 
z
" clip-path="url(#pcf40ee6160)" style="fill: #66c2a5; opacity: 0.6"/>
   </g>
   <g id="patch_85">
    <path d="M 794.789953 299.518125 
L 806.770333 299.518125 
L 806.770333 172.725672 
L 794.789953 172.725672 
z
" clip-path="url(#pcf40ee6160)" style="fill: #66c2a5; opacity: 0.6"/>
   </g>
   <g id="patch_86">
    <path d="M 806.770333 299.518125 
L 818.750714 299.518125 
L 818.750714 227.065295 
L 806.770333 227.065295 
z
" clip-path="url(#pcf40ee6160)" style="fill: #66c2a5; opacity: 0.6"/>
   </g>
   <g id="patch_87">
    <path d="M 818.750714 299.518125 
L 830.731095 299.518125 
L 830.731095 266.008691 
L 818.750714 266.008691 
z
" clip-path="url(#pcf40ee6160)" style="fill: #66c2a5; opacity: 0.6"/>
   </g>
   <g id="patch_88">
    <path d="M 830.731095 299.518125 
L 842.711475 299.518125 
L 842.711475 280.952087 
L 830.731095 280.952087 
z
" clip-path="url(#pcf40ee6160)" style="fill: #66c2a5; opacity: 0.6"/>
   </g>
   <g id="patch_89">
    <path d="M 842.711475 299.518125 
L 854.691856 299.518125 
L 854.691856 293.178502 
L 842.711475 293.178502 
z
" clip-path="url(#pcf40ee6160)" style="fill: #66c2a5; opacity: 0.6"/>
   </g>
   <g id="patch_90">
    <path d="M 854.691856 299.518125 
L 866.672237 299.518125 
L 866.672237 295.895483 
L 854.691856 295.895483 
z
" clip-path="url(#pcf40ee6160)" style="fill: #66c2a5; opacity: 0.6"/>
   </g>
   <g id="patch_91">
    <path d="M 520.804468 299.518125 
L 528.831407 299.518125 
L 528.831407 298.612465 
L 520.804468 298.612465 
z
" clip-path="url(#pcf40ee6160)" style="fill: #fc8d62; opacity: 0.6"/>
   </g>
   <g id="patch_92">
    <path d="M 528.831407 299.518125 
L 536.858345 299.518125 
L 536.858345 296.348314 
L 528.831407 296.348314 
z
" clip-path="url(#pcf40ee6160)" style="fill: #fc8d62; opacity: 0.6"/>
   </g>
   <g id="patch_93">
    <path d="M 536.858345 299.518125 
L 544.885284 299.518125 
L 544.885284 289.103031 
L 536.858345 289.103031 
z
" clip-path="url(#pcf40ee6160)" style="fill: #fc8d62; opacity: 0.6"/>
   </g>
   <g id="patch_94">
    <path d="M 544.885284 299.518125 
L 552.912222 299.518125 
L 552.912222 274.159634 
L 544.885284 274.159634 
z
" clip-path="url(#pcf40ee6160)" style="fill: #fc8d62; opacity: 0.6"/>
   </g>
   <g id="patch_95">
    <path d="M 552.912222 299.518125 
L 560.939161 299.518125 
L 560.939161 245.178502 
L 552.912222 245.178502 
z
" clip-path="url(#pcf40ee6160)" style="fill: #fc8d62; opacity: 0.6"/>
   </g>
   <g id="patch_96">
    <path d="M 560.939161 299.518125 
L 568.9661 299.518125 
L 568.9661 204.423785 
L 560.939161 204.423785 
z
" clip-path="url(#pcf40ee6160)" style="fill: #fc8d62; opacity: 0.6"/>
   </g>
   <g id="patch_97">
    <path d="M 568.9661 299.518125 
L 576.993038 299.518125 
L 576.993038 152.348314 
L 568.9661 152.348314 
z
" clip-path="url(#pcf40ee6160)" style="fill: #fc8d62; opacity: 0.6"/>
   </g>
   <g id="patch_98">
    <path d="M 576.993038 299.518125 
L 585.019977 299.518125 
L 585.019977 92.574729 
L 576.993038 92.574729 
z
" clip-path="url(#pcf40ee6160)" style="fill: #fc8d62; opacity: 0.6"/>
   </g>
   <g id="patch_99">
    <path d="M 585.019977 299.518125 
L 593.046915 299.518125 
L 593.046915 35.518125 
L 585.019977 35.518125 
z
" clip-path="url(#pcf40ee6160)" style="fill: #fc8d62; opacity: 0.6"/>
   </g>
   <g id="patch_100">
    <path d="M 593.046915 299.518125 
L 601.073854 299.518125 
L 601.073854 49.103031 
L 593.046915 49.103031 
z
" clip-path="url(#pcf40ee6160)" style="fill: #fc8d62; opacity: 0.6"/>
   </g>
   <g id="patch_101">
    <path d="M 601.073854 299.518125 
L 609.100793 299.518125 
L 609.100793 46.38605 
L 601.073854 46.38605 
z
" clip-path="url(#pcf40ee6160)" style="fill: #fc8d62; opacity: 0.6"/>
   </g>
   <g id="patch_102">
    <path d="M 609.100793 299.518125 
L 617.127731 299.518125 
L 617.127731 104.801144 
L 609.100793 104.801144 
z
" clip-path="url(#pcf40ee6160)" style="fill: #fc8d62; opacity: 0.6"/>
   </g>
   <g id="patch_103">
    <path d="M 617.127731 299.518125 
L 625.15467 299.518125 
L 625.15467 161.404917 
L 617.127731 161.404917 
z
" clip-path="url(#pcf40ee6160)" style="fill: #fc8d62; opacity: 0.6"/>
   </g>
   <g id="patch_104">
    <path d="M 625.15467 299.518125 
L 633.181609 299.518125 
L 633.181609 221.631333 
L 625.15467 221.631333 
z
" clip-path="url(#pcf40ee6160)" style="fill: #fc8d62; opacity: 0.6"/>
   </g>
   <g id="patch_105">
    <path d="M 633.181609 299.518125 
L 641.208547 299.518125 
L 641.208547 254.235106 
L 633.181609 254.235106 
z
" clip-path="url(#pcf40ee6160)" style="fill: #fc8d62; opacity: 0.6"/>
   </g>
   <g id="patch_106">
    <path d="M 641.208547 299.518125 
L 649.235486 299.518125 
L 649.235486 274.612465 
L 641.208547 274.612465 
z
" clip-path="url(#pcf40ee6160)" style="fill: #fc8d62; opacity: 0.6"/>
   </g>
   <g id="patch_107">
    <path d="M 649.235486 299.518125 
L 657.262424 299.518125 
L 657.262424 287.29171 
L 649.235486 287.29171 
z
" clip-path="url(#pcf40ee6160)" style="fill: #fc8d62; opacity: 0.6"/>
   </g>
   <g id="patch_108">
    <path d="M 657.262424 299.518125 
L 665.289363 299.518125 
L 665.289363 294.536993 
L 657.262424 294.536993 
z
" clip-path="url(#pcf40ee6160)" style="fill: #fc8d62; opacity: 0.6"/>
   </g>
   <g id="patch_109">
    <path d="M 665.289363 299.518125 
L 673.316302 299.518125 
L 673.316302 298.159634 
L 665.289363 298.159634 
z
" clip-path="url(#pcf40ee6160)" style="fill: #fc8d62; opacity: 0.6"/>
   </g>
   <g id="patch_110">
    <path d="M 673.316302 299.518125 
L 681.34324 299.518125 
L 681.34324 298.612465 
L 673.316302 298.612465 
z
" clip-path="url(#pcf40ee6160)" style="fill: #fc8d62; opacity: 0.6"/>
   </g>
   <g id="patch_111">
    <path d="M 545.790995 299.518125 
L 561.644758 299.518125 
L 561.644758 296.348314 
L 545.790995 296.348314 
z
" clip-path="url(#pcf40ee6160)" style="fill: #8da0cb; opacity: 0.6"/>
   </g>
   <g id="patch_112">
    <path d="M 561.644758 299.518125 
L 577.498522 299.518125 
L 577.498522 293.631333 
L 561.644758 293.631333 
z
" clip-path="url(#pcf40ee6160)" style="fill: #8da0cb; opacity: 0.6"/>
   </g>
   <g id="patch_113">
    <path d="M 577.498522 299.518125 
L 593.352285 299.518125 
L 593.352285 288.19737 
L 577.498522 288.19737 
z
" clip-path="url(#pcf40ee6160)" style="fill: #8da0cb; opacity: 0.6"/>
   </g>
   <g id="patch_114">
    <path d="M 593.352285 299.518125 
L 609.206049 299.518125 
L 609.206049 270.989823 
L 593.352285 270.989823 
z
" clip-path="url(#pcf40ee6160)" style="fill: #8da0cb; opacity: 0.6"/>
   </g>
   <g id="patch_115">
    <path d="M 609.206049 299.518125 
L 625.059812 299.518125 
L 625.059812 246.989823 
L 609.206049 246.989823 
z
" clip-path="url(#pcf40ee6160)" style="fill: #8da0cb; opacity: 0.6"/>
   </g>
   <g id="patch_116">
    <path d="M 625.059812 299.518125 
L 640.913576 299.518125 
L 640.913576 191.74454 
L 625.059812 191.74454 
z
" clip-path="url(#pcf40ee6160)" style="fill: #8da0cb; opacity: 0.6"/>
   </g>
   <g id="patch_117">
    <path d="M 640.913576 299.518125 
L 656.767339 299.518125 
L 656.767339 131.065295 
L 640.913576 131.065295 
z
" clip-path="url(#pcf40ee6160)" style="fill: #8da0cb; opacity: 0.6"/>
   </g>
   <g id="patch_118">
    <path d="M 656.767339 299.518125 
L 672.621103 299.518125 
L 672.621103 90.310578 
L 656.767339 90.310578 
z
" clip-path="url(#pcf40ee6160)" style="fill: #8da0cb; opacity: 0.6"/>
   </g>
   <g id="patch_119">
    <path d="M 672.621103 299.518125 
L 688.474866 299.518125 
L 688.474866 48.19737 
L 672.621103 48.19737 
z
" clip-path="url(#pcf40ee6160)" style="fill: #8da0cb; opacity: 0.6"/>
   </g>
   <g id="patch_120">
    <path d="M 688.474866 299.518125 
L 704.32863 299.518125 
L 704.32863 35.970955 
L 688.474866 35.970955 
z
" clip-path="url(#pcf40ee6160)" style="fill: #8da0cb; opacity: 0.6"/>
   </g>
   <g id="patch_121">
    <path d="M 704.32863 299.518125 
L 720.182393 299.518125 
L 720.182393 56.801144 
L 704.32863 56.801144 
z
" clip-path="url(#pcf40ee6160)" style="fill: #8da0cb; opacity: 0.6"/>
   </g>
   <g id="patch_122">
    <path d="M 720.182393 299.518125 
L 736.036157 299.518125 
L 736.036157 105.706804 
L 720.182393 105.706804 
z
" clip-path="url(#pcf40ee6160)" style="fill: #8da0cb; opacity: 0.6"/>
   </g>
   <g id="patch_123">
    <path d="M 736.036157 299.518125 
L 751.88992 299.518125 
L 751.88992 174.536993 
L 736.036157 174.536993 
z
" clip-path="url(#pcf40ee6160)" style="fill: #8da0cb; opacity: 0.6"/>
   </g>
   <g id="patch_124">
    <path d="M 751.88992 299.518125 
L 767.743684 299.518125 
L 767.743684 219.367182 
L 751.88992 219.367182 
z
" clip-path="url(#pcf40ee6160)" style="fill: #8da0cb; opacity: 0.6"/>
   </g>
   <g id="patch_125">
    <path d="M 767.743684 299.518125 
L 783.597447 299.518125 
L 783.597447 261.480389 
L 767.743684 261.480389 
z
" clip-path="url(#pcf40ee6160)" style="fill: #8da0cb; opacity: 0.6"/>
   </g>
   <g id="patch_126">
    <path d="M 783.597447 299.518125 
L 799.451211 299.518125 
L 799.451211 278.687936 
L 783.597447 278.687936 
z
" clip-path="url(#pcf40ee6160)" style="fill: #8da0cb; opacity: 0.6"/>
   </g>
   <g id="patch_127">
    <path d="M 799.451211 299.518125 
L 815.304974 299.518125 
L 815.304974 293.178502 
L 799.451211 293.178502 
z
" clip-path="url(#pcf40ee6160)" style="fill: #8da0cb; opacity: 0.6"/>
   </g>
   <g id="patch_128">
    <path d="M 815.304974 299.518125 
L 831.158738 299.518125 
L 831.158738 298.159634 
L 815.304974 298.159634 
z
" clip-path="url(#pcf40ee6160)" style="fill: #8da0cb; opacity: 0.6"/>
   </g>
   <g id="patch_129">
    <path d="M 831.158738 299.518125 
L 847.012501 299.518125 
L 847.012501 298.612465 
L 831.158738 298.612465 
z
" clip-path="url(#pcf40ee6160)" style="fill: #8da0cb; opacity: 0.6"/>
   </g>
   <g id="patch_130">
    <path d="M 847.012501 299.518125 
L 862.866265 299.518125 
L 862.866265 299.065295 
L 847.012501 299.065295 
z
" clip-path="url(#pcf40ee6160)" style="fill: #8da0cb; opacity: 0.6"/>
   </g>
   <g id="matplotlib.axis_3">
    <g id="xtick_9">
     <g id="line2d_18">
      <g>
       <use xlink:href="#mff4d96e198" x="557.137949" y="299.518125" style="stroke: #000000; stroke-width: 0.8"/>
      </g>
     </g>
     <g id="text_22">
      <!-- 0.0 -->
      <g transform="translate(549.186387 314.116563) scale(0.1 -0.1)">
       <use xlink:href="#DejaVuSans-30"/>
       <use xlink:href="#DejaVuSans-2e" x="63.623047"/>
       <use xlink:href="#DejaVuSans-30" x="95.410156"/>
      </g>
     </g>
    </g>
    <g id="xtick_10">
     <g id="line2d_19">
      <g>
       <use xlink:href="#mff4d96e198" x="614.31902" y="299.518125" style="stroke: #000000; stroke-width: 0.8"/>
      </g>
     </g>
     <g id="text_23">
      <!-- 0.1 -->
      <g transform="translate(606.367457 314.116563) scale(0.1 -0.1)">
       <use xlink:href="#DejaVuSans-30"/>
       <use xlink:href="#DejaVuSans-2e" x="63.623047"/>
       <use xlink:href="#DejaVuSans-31" x="95.410156"/>
      </g>
     </g>
    </g>
    <g id="xtick_11">
     <g id="line2d_20">
      <g>
       <use xlink:href="#mff4d96e198" x="671.500091" y="299.518125" style="stroke: #000000; stroke-width: 0.8"/>
      </g>
     </g>
     <g id="text_24">
      <!-- 0.2 -->
      <g transform="translate(663.548528 314.116563) scale(0.1 -0.1)">
       <use xlink:href="#DejaVuSans-30"/>
       <use xlink:href="#DejaVuSans-2e" x="63.623047"/>
       <use xlink:href="#DejaVuSans-32" x="95.410156"/>
      </g>
     </g>
    </g>
    <g id="xtick_12">
     <g id="line2d_21">
      <g>
       <use xlink:href="#mff4d96e198" x="728.681161" y="299.518125" style="stroke: #000000; stroke-width: 0.8"/>
      </g>
     </g>
     <g id="text_25">
      <!-- 0.3 -->
      <g transform="translate(720.729599 314.116563) scale(0.1 -0.1)">
       <use xlink:href="#DejaVuSans-30"/>
       <use xlink:href="#DejaVuSans-2e" x="63.623047"/>
       <use xlink:href="#DejaVuSans-33" x="95.410156"/>
      </g>
     </g>
    </g>
    <g id="xtick_13">
     <g id="line2d_22">
      <g>
       <use xlink:href="#mff4d96e198" x="785.862232" y="299.518125" style="stroke: #000000; stroke-width: 0.8"/>
      </g>
     </g>
     <g id="text_26">
      <!-- 0.4 -->
      <g transform="translate(777.91067 314.116563) scale(0.1 -0.1)">
       <use xlink:href="#DejaVuSans-30"/>
       <use xlink:href="#DejaVuSans-2e" x="63.623047"/>
       <use xlink:href="#DejaVuSans-34" x="95.410156"/>
      </g>
     </g>
    </g>
    <g id="xtick_14">
     <g id="line2d_23">
      <g>
       <use xlink:href="#mff4d96e198" x="843.043303" y="299.518125" style="stroke: #000000; stroke-width: 0.8"/>
      </g>
     </g>
     <g id="text_27">
      <!-- 0.5 -->
      <g transform="translate(835.09174 314.116563) scale(0.1 -0.1)">
       <use xlink:href="#DejaVuSans-30"/>
       <use xlink:href="#DejaVuSans-2e" x="63.623047"/>
       <use xlink:href="#DejaVuSans-35" x="95.410156"/>
      </g>
     </g>
    </g>
    <g id="text_28">
     <!-- Treatment effect relative to nearest baseline -->
     <g transform="translate(582.260227 327.794688) scale(0.1 -0.1)">
      <use xlink:href="#DejaVuSans-54"/>
      <use xlink:href="#DejaVuSans-72" x="46.333984"/>
      <use xlink:href="#DejaVuSans-65" x="85.197266"/>
      <use xlink:href="#DejaVuSans-61" x="146.720703"/>
      <use xlink:href="#DejaVuSans-74" x="208"/>
      <use xlink:href="#DejaVuSans-6d" x="247.208984"/>
      <use xlink:href="#DejaVuSans-65" x="344.621094"/>
      <use xlink:href="#DejaVuSans-6e" x="406.144531"/>
      <use xlink:href="#DejaVuSans-74" x="469.523438"/>
      <use xlink:href="#DejaVuSans-20" x="508.732422"/>
      <use xlink:href="#DejaVuSans-65" x="540.519531"/>
      <use xlink:href="#DejaVuSans-66" x="602.042969"/>
      <use xlink:href="#DejaVuSans-66" x="637.248047"/>
      <use xlink:href="#DejaVuSans-65" x="672.453125"/>
      <use xlink:href="#DejaVuSans-63" x="733.976562"/>
      <use xlink:href="#DejaVuSans-74" x="788.957031"/>
      <use xlink:href="#DejaVuSans-20" x="828.166016"/>
      <use xlink:href="#DejaVuSans-72" x="859.953125"/>
      <use xlink:href="#DejaVuSans-65" x="898.816406"/>
      <use xlink:href="#DejaVuSans-6c" x="960.339844"/>
      <use xlink:href="#DejaVuSans-61" x="988.123047"/>
      <use xlink:href="#DejaVuSans-74" x="1049.402344"/>
      <use xlink:href="#DejaVuSans-69" x="1088.611328"/>
      <use xlink:href="#DejaVuSans-76" x="1116.394531"/>
      <use xlink:href="#DejaVuSans-65" x="1175.574219"/>
      <use xlink:href="#DejaVuSans-20" x="1237.097656"/>
      <use xlink:href="#DejaVuSans-74" x="1268.884766"/>
      <use xlink:href="#DejaVuSans-6f" x="1308.09375"/>
      <use xlink:href="#DejaVuSans-20" x="1369.275391"/>
      <use xlink:href="#DejaVuSans-6e" x="1401.0625"/>
      <use xlink:href="#DejaVuSans-65" x="1464.441406"/>
      <use xlink:href="#DejaVuSans-61" x="1525.964844"/>
      <use xlink:href="#DejaVuSans-72" x="1587.244141"/>
      <use xlink:href="#DejaVuSans-65" x="1626.107422"/>
      <use xlink:href="#DejaVuSans-73" x="1687.630859"/>
      <use xlink:href="#DejaVuSans-74" x="1739.730469"/>
      <use xlink:href="#DejaVuSans-20" x="1778.939453"/>
      <use xlink:href="#DejaVuSans-62" x="1810.726562"/>
      <use xlink:href="#DejaVuSans-61" x="1874.203125"/>
      <use xlink:href="#DejaVuSans-73" x="1935.482422"/>
      <use xlink:href="#DejaVuSans-65" x="1987.582031"/>
      <use xlink:href="#DejaVuSans-6c" x="2049.105469"/>
      <use xlink:href="#DejaVuSans-69" x="2076.888672"/>
      <use xlink:href="#DejaVuSans-6e" x="2104.671875"/>
      <use xlink:href="#DejaVuSans-65" x="2168.050781"/>
     </g>
    </g>
   </g>
   <g id="matplotlib.axis_4">
    <g id="ytick_8">
     <g id="line2d_24">
      <g>
       <use xlink:href="#maa17ce5166" x="503.51108" y="299.518125" style="stroke: #000000; stroke-width: 0.8"/>
      </g>
     </g>
     <g id="text_29">
      <!-- 0 -->
      <g transform="translate(490.14858 303.317344) scale(0.1 -0.1)">
       <use xlink:href="#DejaVuSans-30"/>
      </g>
     </g>
    </g>
    <g id="ytick_9">
     <g id="line2d_25">
      <g>
       <use xlink:href="#maa17ce5166" x="503.51108" y="254.235106" style="stroke: #000000; stroke-width: 0.8"/>
      </g>
     </g>
     <g id="text_30">
      <!-- 100 -->
      <g transform="translate(477.42358 258.034325) scale(0.1 -0.1)">
       <use xlink:href="#DejaVuSans-31"/>
       <use xlink:href="#DejaVuSans-30" x="63.623047"/>
       <use xlink:href="#DejaVuSans-30" x="127.246094"/>
      </g>
     </g>
    </g>
    <g id="ytick_10">
     <g id="line2d_26">
      <g>
       <use xlink:href="#maa17ce5166" x="503.51108" y="208.952087" style="stroke: #000000; stroke-width: 0.8"/>
      </g>
     </g>
     <g id="text_31">
      <!-- 200 -->
      <g transform="translate(477.42358 212.751306) scale(0.1 -0.1)">
       <use xlink:href="#DejaVuSans-32"/>
       <use xlink:href="#DejaVuSans-30" x="63.623047"/>
       <use xlink:href="#DejaVuSans-30" x="127.246094"/>
      </g>
     </g>
    </g>
    <g id="ytick_11">
     <g id="line2d_27">
      <g>
       <use xlink:href="#maa17ce5166" x="503.51108" y="163.669068" style="stroke: #000000; stroke-width: 0.8"/>
      </g>
     </g>
     <g id="text_32">
      <!-- 300 -->
      <g transform="translate(477.42358 167.468287) scale(0.1 -0.1)">
       <use xlink:href="#DejaVuSans-33"/>
       <use xlink:href="#DejaVuSans-30" x="63.623047"/>
       <use xlink:href="#DejaVuSans-30" x="127.246094"/>
      </g>
     </g>
    </g>
    <g id="ytick_12">
     <g id="line2d_28">
      <g>
       <use xlink:href="#maa17ce5166" x="503.51108" y="118.38605" style="stroke: #000000; stroke-width: 0.8"/>
      </g>
     </g>
     <g id="text_33">
      <!-- 400 -->
      <g transform="translate(477.42358 122.185268) scale(0.1 -0.1)">
       <use xlink:href="#DejaVuSans-34"/>
       <use xlink:href="#DejaVuSans-30" x="63.623047"/>
       <use xlink:href="#DejaVuSans-30" x="127.246094"/>
      </g>
     </g>
    </g>
    <g id="ytick_13">
     <g id="line2d_29">
      <g>
       <use xlink:href="#maa17ce5166" x="503.51108" y="73.103031" style="stroke: #000000; stroke-width: 0.8"/>
      </g>
     </g>
     <g id="text_34">
      <!-- 500 -->
      <g transform="translate(477.42358 76.902249) scale(0.1 -0.1)">
       <use xlink:href="#DejaVuSans-35"/>
       <use xlink:href="#DejaVuSans-30" x="63.623047"/>
       <use xlink:href="#DejaVuSans-30" x="127.246094"/>
      </g>
     </g>
    </g>
    <g id="ytick_14">
     <g id="line2d_30">
      <g>
       <use xlink:href="#maa17ce5166" x="503.51108" y="27.820012" style="stroke: #000000; stroke-width: 0.8"/>
      </g>
     </g>
     <g id="text_35">
      <!-- 600 -->
      <g transform="translate(477.42358 31.619231) scale(0.1 -0.1)">
       <use xlink:href="#DejaVuSans-36"/>
       <use xlink:href="#DejaVuSans-30" x="63.623047"/>
       <use xlink:href="#DejaVuSans-30" x="127.246094"/>
      </g>
     </g>
    </g>
    <g id="text_36">
     <!-- posterior samples -->
     <g transform="translate(471.343892 205.725156) rotate(-90) scale(0.1 -0.1)">
      <use xlink:href="#DejaVuSans-70"/>
      <use xlink:href="#DejaVuSans-6f" x="63.476562"/>
      <use xlink:href="#DejaVuSans-73" x="124.658203"/>
      <use xlink:href="#DejaVuSans-74" x="176.757812"/>
      <use xlink:href="#DejaVuSans-65" x="215.966797"/>
      <use xlink:href="#DejaVuSans-72" x="277.490234"/>
      <use xlink:href="#DejaVuSans-69" x="318.603516"/>
      <use xlink:href="#DejaVuSans-6f" x="346.386719"/>
      <use xlink:href="#DejaVuSans-72" x="407.568359"/>
      <use xlink:href="#DejaVuSans-20" x="448.681641"/>
      <use xlink:href="#DejaVuSans-73" x="480.46875"/>
      <use xlink:href="#DejaVuSans-61" x="532.568359"/>
      <use xlink:href="#DejaVuSans-6d" x="593.847656"/>
      <use xlink:href="#DejaVuSans-70" x="691.259766"/>
      <use xlink:href="#DejaVuSans-6c" x="754.736328"/>
      <use xlink:href="#DejaVuSans-65" x="782.519531"/>
      <use xlink:href="#DejaVuSans-73" x="844.042969"/>
     </g>
    </g>
   </g>
   <g id="patch_131">
    <path d="M 503.51108 299.518125 
L 503.51108 22.318125 
" style="fill: none; stroke: #000000; stroke-width: 0.8; stroke-linejoin: miter; stroke-linecap: square"/>
   </g>
   <g id="patch_132">
    <path d="M 883.965625 299.518125 
L 883.965625 22.318125 
" style="fill: none; stroke: #000000; stroke-width: 0.8; stroke-linejoin: miter; stroke-linecap: square"/>
   </g>
   <g id="patch_133">
    <path d="M 503.51108 299.518125 
L 883.965625 299.518125 
" style="fill: none; stroke: #000000; stroke-width: 0.8; stroke-linejoin: miter; stroke-linecap: square"/>
   </g>
   <g id="patch_134">
    <path d="M 503.51108 22.318125 
L 883.965625 22.318125 
" style="fill: none; stroke: #000000; stroke-width: 0.8; stroke-linejoin: miter; stroke-linecap: square"/>
   </g>
   <g id="text_37">
    <!-- Flux -->
    <g transform="translate(681.26679 16.318125) scale(0.12 -0.12)">
     <defs>
      <path id="DejaVuSans-46" d="M 628 4666 
L 3309 4666 
L 3309 4134 
L 1259 4134 
L 1259 2759 
L 3109 2759 
L 3109 2228 
L 1259 2228 
L 1259 0 
L 628 0 
L 628 4666 
z
" transform="scale(0.015625)"/>
      <path id="DejaVuSans-75" d="M 544 1381 
L 544 3500 
L 1119 3500 
L 1119 1403 
Q 1119 906 1312 657 
Q 1506 409 1894 409 
Q 2359 409 2629 706 
Q 2900 1003 2900 1516 
L 2900 3500 
L 3475 3500 
L 3475 0 
L 2900 0 
L 2900 538 
Q 2691 219 2414 64 
Q 2138 -91 1772 -91 
Q 1169 -91 856 284 
Q 544 659 544 1381 
z
M 1991 3584 
L 1991 3584 
z
" transform="scale(0.015625)"/>
      <path id="DejaVuSans-78" d="M 3513 3500 
L 2247 1797 
L 3578 0 
L 2900 0 
L 1881 1375 
L 863 0 
L 184 0 
L 1544 1831 
L 300 3500 
L 978 3500 
L 1906 2253 
L 2834 3500 
L 3513 3500 
z
" transform="scale(0.015625)"/>
     </defs>
     <use xlink:href="#DejaVuSans-46"/>
     <use xlink:href="#DejaVuSans-6c" x="57.519531"/>
     <use xlink:href="#DejaVuSans-75" x="85.302734"/>
     <use xlink:href="#DejaVuSans-78" x="148.681641"/>
    </g>
   </g>
   <g id="legend_2">
    <g id="patch_135">
     <path d="M 693.085937 38.916563 
L 713.085937 38.916563 
L 713.085937 31.916563 
L 693.085937 31.916563 
z
" style="fill: #66c2a5; opacity: 0.6"/>
    </g>
    <g id="text_38">
     <!-- hyper: prob +ve 1.0 -->
     <g transform="translate(721.085937 38.916563) scale(0.1 -0.1)">
      <use xlink:href="#DejaVuSans-68"/>
      <use xlink:href="#DejaVuSans-79" x="63.378906"/>
      <use xlink:href="#DejaVuSans-70" x="122.558594"/>
      <use xlink:href="#DejaVuSans-65" x="186.035156"/>
      <use xlink:href="#DejaVuSans-72" x="247.558594"/>
      <use xlink:href="#DejaVuSans-3a" x="286.921875"/>
      <use xlink:href="#DejaVuSans-20" x="320.613281"/>
      <use xlink:href="#DejaVuSans-70" x="352.400391"/>
      <use xlink:href="#DejaVuSans-72" x="415.876953"/>
      <use xlink:href="#DejaVuSans-6f" x="454.740234"/>
      <use xlink:href="#DejaVuSans-62" x="515.921875"/>
      <use xlink:href="#DejaVuSans-20" x="579.398438"/>
      <use xlink:href="#DejaVuSans-2b" x="611.185547"/>
      <use xlink:href="#DejaVuSans-76" x="694.974609"/>
      <use xlink:href="#DejaVuSans-65" x="754.154297"/>
      <use xlink:href="#DejaVuSans-20" x="815.677734"/>
      <use xlink:href="#DejaVuSans-31" x="847.464844"/>
      <use xlink:href="#DejaVuSans-2e" x="911.087891"/>
      <use xlink:href="#DejaVuSans-30" x="942.875"/>
     </g>
    </g>
    <g id="patch_136">
     <path d="M 693.085937 53.594688 
L 713.085937 53.594688 
L 713.085937 46.594688 
L 693.085937 46.594688 
z
" style="fill: #fc8d62; opacity: 0.6"/>
    </g>
    <g id="text_39">
     <!-- after_ablation: prob +ve 0.963 -->
     <g transform="translate(721.085937 53.594688) scale(0.1 -0.1)">
      <use xlink:href="#DejaVuSans-61"/>
      <use xlink:href="#DejaVuSans-66" x="61.279297"/>
      <use xlink:href="#DejaVuSans-74" x="94.734375"/>
      <use xlink:href="#DejaVuSans-65" x="133.943359"/>
      <use xlink:href="#DejaVuSans-72" x="195.466797"/>
      <use xlink:href="#DejaVuSans-5f" x="236.580078"/>
      <use xlink:href="#DejaVuSans-61" x="286.580078"/>
      <use xlink:href="#DejaVuSans-62" x="347.859375"/>
      <use xlink:href="#DejaVuSans-6c" x="411.335938"/>
      <use xlink:href="#DejaVuSans-61" x="439.119141"/>
      <use xlink:href="#DejaVuSans-74" x="500.398438"/>
      <use xlink:href="#DejaVuSans-69" x="539.607422"/>
      <use xlink:href="#DejaVuSans-6f" x="567.390625"/>
      <use xlink:href="#DejaVuSans-6e" x="628.572266"/>
      <use xlink:href="#DejaVuSans-3a" x="691.951172"/>
      <use xlink:href="#DejaVuSans-20" x="725.642578"/>
      <use xlink:href="#DejaVuSans-70" x="757.429688"/>
      <use xlink:href="#DejaVuSans-72" x="820.90625"/>
      <use xlink:href="#DejaVuSans-6f" x="859.769531"/>
      <use xlink:href="#DejaVuSans-62" x="920.951172"/>
      <use xlink:href="#DejaVuSans-20" x="984.427734"/>
      <use xlink:href="#DejaVuSans-2b" x="1016.214844"/>
      <use xlink:href="#DejaVuSans-76" x="1100.003906"/>
      <use xlink:href="#DejaVuSans-65" x="1159.183594"/>
      <use xlink:href="#DejaVuSans-20" x="1220.707031"/>
      <use xlink:href="#DejaVuSans-30" x="1252.494141"/>
      <use xlink:href="#DejaVuSans-2e" x="1316.117188"/>
      <use xlink:href="#DejaVuSans-39" x="1347.904297"/>
      <use xlink:href="#DejaVuSans-36" x="1411.527344"/>
      <use xlink:href="#DejaVuSans-33" x="1475.150391"/>
     </g>
    </g>
    <g id="patch_137">
     <path d="M 693.085937 68.550938 
L 713.085937 68.550938 
L 713.085937 61.550938 
L 693.085937 61.550938 
z
" style="fill: #8da0cb; opacity: 0.6"/>
    </g>
    <g id="text_40">
     <!-- hyper2: prob +ve 0.999 -->
     <g transform="translate(721.085937 68.550938) scale(0.1 -0.1)">
      <use xlink:href="#DejaVuSans-68"/>
      <use xlink:href="#DejaVuSans-79" x="63.378906"/>
      <use xlink:href="#DejaVuSans-70" x="122.558594"/>
      <use xlink:href="#DejaVuSans-65" x="186.035156"/>
      <use xlink:href="#DejaVuSans-72" x="247.558594"/>
      <use xlink:href="#DejaVuSans-32" x="288.671875"/>
      <use xlink:href="#DejaVuSans-3a" x="352.294922"/>
      <use xlink:href="#DejaVuSans-20" x="385.986328"/>
      <use xlink:href="#DejaVuSans-70" x="417.773438"/>
      <use xlink:href="#DejaVuSans-72" x="481.25"/>
      <use xlink:href="#DejaVuSans-6f" x="520.113281"/>
      <use xlink:href="#DejaVuSans-62" x="581.294922"/>
      <use xlink:href="#DejaVuSans-20" x="644.771484"/>
      <use xlink:href="#DejaVuSans-2b" x="676.558594"/>
      <use xlink:href="#DejaVuSans-76" x="760.347656"/>
      <use xlink:href="#DejaVuSans-65" x="819.527344"/>
      <use xlink:href="#DejaVuSans-20" x="881.050781"/>
      <use xlink:href="#DejaVuSans-30" x="912.837891"/>
      <use xlink:href="#DejaVuSans-2e" x="976.460938"/>
      <use xlink:href="#DejaVuSans-39" x="1008.248047"/>
      <use xlink:href="#DejaVuSans-39" x="1071.871094"/>
      <use xlink:href="#DejaVuSans-39" x="1135.494141"/>
     </g>
    </g>
   </g>
  </g>
 </g>
 <defs>
  <clipPath id="p6763965d85">
   <rect x="46.965625" y="22.318125" width="380.454545" height="277.2"/>
  </clipPath>
  <clipPath id="pcf40ee6160">
   <rect x="503.51108" y="22.318125" width="380.454545" height="277.2"/>
  </clipPath>
 </defs>
</svg>
