<?xml version="1.0" encoding="utf-8" standalone="no"?>
<!DOCTYPE svg PUBLIC "-//W3C//DTD SVG 1.1//EN"
  "http://www.w3.org/Graphics/SVG/1.1/DTD/svg11.dtd">
<svg xmlns:xlink="http://www.w3.org/1999/xlink" width="783.37pt" height="213.011875pt" viewBox="0 0 783.37 213.011875" xmlns="http://www.w3.org/2000/svg" version="1.1">
 <metadata>
  <rdf:RDF xmlns:dc="http://purl.org/dc/elements/1.1/" xmlns:cc="http://creativecommons.org/ns#" xmlns:rdf="http://www.w3.org/1999/02/22-rdf-syntax-ns#">
   <cc:Work>
    <dc:type rdf:resource="http://purl.org/dc/dcmitype/StillImage"/>
    <dc:date>2025-01-20T16:02:21.036442</dc:date>
    <dc:format>image/svg+xml</dc:format>
    <dc:creator>
     <cc:Agent>
      <dc:title>Matplotlib v3.9.2, https://matplotlib.org/</dc:title>
     </cc:Agent>
    </dc:creator>
   </cc:Work>
  </rdf:RDF>
 </metadata>
 <defs>
  <style type="text/css">*{stroke-linejoin: round; stroke-linecap: butt}</style>
 </defs>
 <g id="figure_1">
  <g id="patch_1">
   <path d="M 0 213.011875 
L 783.37 213.011875 
L 783.37 0 
L 0 0 
z
" style="fill: #ffffff"/>
  </g>
  <g id="axes_1">
   <g id="patch_2">
    <path d="M 329.77 173.52 
L 776.17 173.52 
L 776.17 7.2 
L 329.77 7.2 
z
" style="fill: #ffffff"/>
   </g>
   <g id="matplotlib.axis_1">
    <g id="xtick_1">
     <g id="line2d_1">
      <defs>
       <path id="mec8b90b485" d="M 0 0 
L 0 3.5 
" style="stroke: #000000; stroke-width: 0.8"/>
      </defs>
      <g>
       <use xlink:href="#mec8b90b485" x="364.043229" y="173.52" style="stroke: #000000; stroke-width: 0.8"/>
      </g>
     </g>
     <g id="text_1">
      <!-- −0.4 -->
      <g transform="translate(349.473542 189.638125) scale(0.12 -0.12)">
       <defs>
        <path id="DejaVuSans-2212" d="M 678 2272 
L 4684 2272 
L 4684 1741 
L 678 1741 
L 678 2272 
z
" transform="scale(0.015625)"/>
        <path id="DejaVuSans-30" d="M 2034 4250 
Q 1547 4250 1301 3770 
Q 1056 3291 1056 2328 
Q 1056 1369 1301 889 
Q 1547 409 2034 409 
Q 2525 409 2770 889 
Q 3016 1369 3016 2328 
Q 3016 3291 2770 3770 
Q 2525 4250 2034 4250 
z
M 2034 4750 
Q 2819 4750 3233 4129 
Q 3647 3509 3647 2328 
Q 3647 1150 3233 529 
Q 2819 -91 2034 -91 
Q 1250 -91 836 529 
Q 422 1150 422 2328 
Q 422 3509 836 4129 
Q 1250 4750 2034 4750 
z
" transform="scale(0.015625)"/>
        <path id="DejaVuSans-2e" d="M 684 794 
L 1344 794 
L 1344 0 
L 684 0 
L 684 794 
z
" transform="scale(0.015625)"/>
        <path id="DejaVuSans-34" d="M 2419 4116 
L 825 1625 
L 2419 1625 
L 2419 4116 
z
M 2253 4666 
L 3047 4666 
L 3047 1625 
L 3713 1625 
L 3713 1100 
L 3047 1100 
L 3047 0 
L 2419 0 
L 2419 1100 
L 313 1100 
L 313 1709 
L 2253 4666 
z
" transform="scale(0.015625)"/>
       </defs>
       <use xlink:href="#DejaVuSans-2212"/>
       <use xlink:href="#DejaVuSans-30" x="83.789062"/>
       <use xlink:href="#DejaVuSans-2e" x="147.412109"/>
       <use xlink:href="#DejaVuSans-34" x="179.199219"/>
      </g>
     </g>
    </g>
    <g id="xtick_2">
     <g id="line2d_2">
      <g>
       <use xlink:href="#mec8b90b485" x="458.506615" y="173.52" style="stroke: #000000; stroke-width: 0.8"/>
      </g>
     </g>
     <g id="text_2">
      <!-- −0.2 -->
      <g transform="translate(443.936927 189.638125) scale(0.12 -0.12)">
       <defs>
        <path id="DejaVuSans-32" d="M 1228 531 
L 3431 531 
L 3431 0 
L 469 0 
L 469 531 
Q 828 903 1448 1529 
Q 2069 2156 2228 2338 
Q 2531 2678 2651 2914 
Q 2772 3150 2772 3378 
Q 2772 3750 2511 3984 
Q 2250 4219 1831 4219 
Q 1534 4219 1204 4116 
Q 875 4013 500 3803 
L 500 4441 
Q 881 4594 1212 4672 
Q 1544 4750 1819 4750 
Q 2544 4750 2975 4387 
Q 3406 4025 3406 3419 
Q 3406 3131 3298 2873 
Q 3191 2616 2906 2266 
Q 2828 2175 2409 1742 
Q 1991 1309 1228 531 
z
" transform="scale(0.015625)"/>
       </defs>
       <use xlink:href="#DejaVuSans-2212"/>
       <use xlink:href="#DejaVuSans-30" x="83.789062"/>
       <use xlink:href="#DejaVuSans-2e" x="147.412109"/>
       <use xlink:href="#DejaVuSans-32" x="179.199219"/>
      </g>
     </g>
    </g>
    <g id="xtick_3">
     <g id="line2d_3">
      <g>
       <use xlink:href="#mec8b90b485" x="552.97" y="173.52" style="stroke: #000000; stroke-width: 0.8"/>
      </g>
     </g>
     <g id="text_3">
      <!-- 0.0 -->
      <g transform="translate(543.428125 189.638125) scale(0.12 -0.12)">
       <use xlink:href="#DejaVuSans-30"/>
       <use xlink:href="#DejaVuSans-2e" x="63.623047"/>
       <use xlink:href="#DejaVuSans-30" x="95.410156"/>
      </g>
     </g>
    </g>
    <g id="xtick_4">
     <g id="line2d_4">
      <g>
       <use xlink:href="#mec8b90b485" x="647.433385" y="173.52" style="stroke: #000000; stroke-width: 0.8"/>
      </g>
     </g>
     <g id="text_4">
      <!-- 0.2 -->
      <g transform="translate(637.89151 189.638125) scale(0.12 -0.12)">
       <use xlink:href="#DejaVuSans-30"/>
       <use xlink:href="#DejaVuSans-2e" x="63.623047"/>
       <use xlink:href="#DejaVuSans-32" x="95.410156"/>
      </g>
     </g>
    </g>
    <g id="xtick_5">
     <g id="line2d_5">
      <g>
       <use xlink:href="#mec8b90b485" x="741.896771" y="173.52" style="stroke: #000000; stroke-width: 0.8"/>
      </g>
     </g>
     <g id="text_5">
      <!-- 0.4 -->
      <g transform="translate(732.354896 189.638125) scale(0.12 -0.12)">
       <use xlink:href="#DejaVuSans-30"/>
       <use xlink:href="#DejaVuSans-2e" x="63.623047"/>
       <use xlink:href="#DejaVuSans-34" x="95.410156"/>
      </g>
     </g>
    </g>
    <g id="text_6">
     <!-- Distribution of posterior samples -->
     <g transform="translate(470.996563 203.732188) scale(0.1 -0.1)">
      <defs>
       <path id="DejaVuSans-44" d="M 1259 4147 
L 1259 519 
L 2022 519 
Q 2988 519 3436 956 
Q 3884 1394 3884 2338 
Q 3884 3275 3436 3711 
Q 2988 4147 2022 4147 
L 1259 4147 
z
M 628 4666 
L 1925 4666 
Q 3281 4666 3915 4102 
Q 4550 3538 4550 2338 
Q 4550 1131 3912 565 
Q 3275 0 1925 0 
L 628 0 
L 628 4666 
z
" transform="scale(0.015625)"/>
       <path id="DejaVuSans-69" d="M 603 3500 
L 1178 3500 
L 1178 0 
L 603 0 
L 603 3500 
z
M 603 4863 
L 1178 4863 
L 1178 4134 
L 603 4134 
L 603 4863 
z
" transform="scale(0.015625)"/>
       <path id="DejaVuSans-73" d="M 2834 3397 
L 2834 2853 
Q 2591 2978 2328 3040 
Q 2066 3103 1784 3103 
Q 1356 3103 1142 2972 
Q 928 2841 928 2578 
Q 928 2378 1081 2264 
Q 1234 2150 1697 2047 
L 1894 2003 
Q 2506 1872 2764 1633 
Q 3022 1394 3022 966 
Q 3022 478 2636 193 
Q 2250 -91 1575 -91 
Q 1294 -91 989 -36 
Q 684 19 347 128 
L 347 722 
Q 666 556 975 473 
Q 1284 391 1588 391 
Q 1994 391 2212 530 
Q 2431 669 2431 922 
Q 2431 1156 2273 1281 
Q 2116 1406 1581 1522 
L 1381 1569 
Q 847 1681 609 1914 
Q 372 2147 372 2553 
Q 372 3047 722 3315 
Q 1072 3584 1716 3584 
Q 2034 3584 2315 3537 
Q 2597 3491 2834 3397 
z
" transform="scale(0.015625)"/>
       <path id="DejaVuSans-74" d="M 1172 4494 
L 1172 3500 
L 2356 3500 
L 2356 3053 
L 1172 3053 
L 1172 1153 
Q 1172 725 1289 603 
Q 1406 481 1766 481 
L 2356 481 
L 2356 0 
L 1766 0 
Q 1100 0 847 248 
Q 594 497 594 1153 
L 594 3053 
L 172 3053 
L 172 3500 
L 594 3500 
L 594 4494 
L 1172 4494 
z
" transform="scale(0.015625)"/>
       <path id="DejaVuSans-72" d="M 2631 2963 
Q 2534 3019 2420 3045 
Q 2306 3072 2169 3072 
Q 1681 3072 1420 2755 
Q 1159 2438 1159 1844 
L 1159 0 
L 581 0 
L 581 3500 
L 1159 3500 
L 1159 2956 
Q 1341 3275 1631 3429 
Q 1922 3584 2338 3584 
Q 2397 3584 2469 3576 
Q 2541 3569 2628 3553 
L 2631 2963 
z
" transform="scale(0.015625)"/>
       <path id="DejaVuSans-62" d="M 3116 1747 
Q 3116 2381 2855 2742 
Q 2594 3103 2138 3103 
Q 1681 3103 1420 2742 
Q 1159 2381 1159 1747 
Q 1159 1113 1420 752 
Q 1681 391 2138 391 
Q 2594 391 2855 752 
Q 3116 1113 3116 1747 
z
M 1159 2969 
Q 1341 3281 1617 3432 
Q 1894 3584 2278 3584 
Q 2916 3584 3314 3078 
Q 3713 2572 3713 1747 
Q 3713 922 3314 415 
Q 2916 -91 2278 -91 
Q 1894 -91 1617 61 
Q 1341 213 1159 525 
L 1159 0 
L 581 0 
L 581 4863 
L 1159 4863 
L 1159 2969 
z
" transform="scale(0.015625)"/>
       <path id="DejaVuSans-75" d="M 544 1381 
L 544 3500 
L 1119 3500 
L 1119 1403 
Q 1119 906 1312 657 
Q 1506 409 1894 409 
Q 2359 409 2629 706 
Q 2900 1003 2900 1516 
L 2900 3500 
L 3475 3500 
L 3475 0 
L 2900 0 
L 2900 538 
Q 2691 219 2414 64 
Q 2138 -91 1772 -91 
Q 1169 -91 856 284 
Q 544 659 544 1381 
z
M 1991 3584 
L 1991 3584 
z
" transform="scale(0.015625)"/>
       <path id="DejaVuSans-6f" d="M 1959 3097 
Q 1497 3097 1228 2736 
Q 959 2375 959 1747 
Q 959 1119 1226 758 
Q 1494 397 1959 397 
Q 2419 397 2687 759 
Q 2956 1122 2956 1747 
Q 2956 2369 2687 2733 
Q 2419 3097 1959 3097 
z
M 1959 3584 
Q 2709 3584 3137 3096 
Q 3566 2609 3566 1747 
Q 3566 888 3137 398 
Q 2709 -91 1959 -91 
Q 1206 -91 779 398 
Q 353 888 353 1747 
Q 353 2609 779 3096 
Q 1206 3584 1959 3584 
z
" transform="scale(0.015625)"/>
       <path id="DejaVuSans-6e" d="M 3513 2113 
L 3513 0 
L 2938 0 
L 2938 2094 
Q 2938 2591 2744 2837 
Q 2550 3084 2163 3084 
Q 1697 3084 1428 2787 
Q 1159 2491 1159 1978 
L 1159 0 
L 581 0 
L 581 3500 
L 1159 3500 
L 1159 2956 
Q 1366 3272 1645 3428 
Q 1925 3584 2291 3584 
Q 2894 3584 3203 3211 
Q 3513 2838 3513 2113 
z
" transform="scale(0.015625)"/>
       <path id="DejaVuSans-20" transform="scale(0.015625)"/>
       <path id="DejaVuSans-66" d="M 2375 4863 
L 2375 4384 
L 1825 4384 
Q 1516 4384 1395 4259 
Q 1275 4134 1275 3809 
L 1275 3500 
L 2222 3500 
L 2222 3053 
L 1275 3053 
L 1275 0 
L 697 0 
L 697 3053 
L 147 3053 
L 147 3500 
L 697 3500 
L 697 3744 
Q 697 4328 969 4595 
Q 1241 4863 1831 4863 
L 2375 4863 
z
" transform="scale(0.015625)"/>
       <path id="DejaVuSans-70" d="M 1159 525 
L 1159 -1331 
L 581 -1331 
L 581 3500 
L 1159 3500 
L 1159 2969 
Q 1341 3281 1617 3432 
Q 1894 3584 2278 3584 
Q 2916 3584 3314 3078 
Q 3713 2572 3713 1747 
Q 3713 922 3314 415 
Q 2916 -91 2278 -91 
Q 1894 -91 1617 61 
Q 1341 213 1159 525 
z
M 3116 1747 
Q 3116 2381 2855 2742 
Q 2594 3103 2138 3103 
Q 1681 3103 1420 2742 
Q 1159 2381 1159 1747 
Q 1159 1113 1420 752 
Q 1681 391 2138 391 
Q 2594 391 2855 752 
Q 3116 1113 3116 1747 
z
" transform="scale(0.015625)"/>
       <path id="DejaVuSans-65" d="M 3597 1894 
L 3597 1613 
L 953 1613 
Q 991 1019 1311 708 
Q 1631 397 2203 397 
Q 2534 397 2845 478 
Q 3156 559 3463 722 
L 3463 178 
Q 3153 47 2828 -22 
Q 2503 -91 2169 -91 
Q 1331 -91 842 396 
Q 353 884 353 1716 
Q 353 2575 817 3079 
Q 1281 3584 2069 3584 
Q 2775 3584 3186 3129 
Q 3597 2675 3597 1894 
z
M 3022 2063 
Q 3016 2534 2758 2815 
Q 2500 3097 2075 3097 
Q 1594 3097 1305 2825 
Q 1016 2553 972 2059 
L 3022 2063 
z
" transform="scale(0.015625)"/>
       <path id="DejaVuSans-61" d="M 2194 1759 
Q 1497 1759 1228 1600 
Q 959 1441 959 1056 
Q 959 750 1161 570 
Q 1363 391 1709 391 
Q 2188 391 2477 730 
Q 2766 1069 2766 1631 
L 2766 1759 
L 2194 1759 
z
M 3341 1997 
L 3341 0 
L 2766 0 
L 2766 531 
Q 2569 213 2275 61 
Q 1981 -91 1556 -91 
Q 1019 -91 701 211 
Q 384 513 384 1019 
Q 384 1609 779 1909 
Q 1175 2209 1959 2209 
L 2766 2209 
L 2766 2266 
Q 2766 2663 2505 2880 
Q 2244 3097 1772 3097 
Q 1472 3097 1187 3025 
Q 903 2953 641 2809 
L 641 3341 
Q 956 3463 1253 3523 
Q 1550 3584 1831 3584 
Q 2591 3584 2966 3190 
Q 3341 2797 3341 1997 
z
" transform="scale(0.015625)"/>
       <path id="DejaVuSans-6d" d="M 3328 2828 
Q 3544 3216 3844 3400 
Q 4144 3584 4550 3584 
Q 5097 3584 5394 3201 
Q 5691 2819 5691 2113 
L 5691 0 
L 5113 0 
L 5113 2094 
Q 5113 2597 4934 2840 
Q 4756 3084 4391 3084 
Q 3944 3084 3684 2787 
Q 3425 2491 3425 1978 
L 3425 0 
L 2847 0 
L 2847 2094 
Q 2847 2600 2669 2842 
Q 2491 3084 2119 3084 
Q 1678 3084 1418 2786 
Q 1159 2488 1159 1978 
L 1159 0 
L 581 0 
L 581 3500 
L 1159 3500 
L 1159 2956 
Q 1356 3278 1631 3431 
Q 1906 3584 2284 3584 
Q 2666 3584 2933 3390 
Q 3200 3197 3328 2828 
z
" transform="scale(0.015625)"/>
       <path id="DejaVuSans-6c" d="M 603 4863 
L 1178 4863 
L 1178 0 
L 603 0 
L 603 4863 
z
" transform="scale(0.015625)"/>
      </defs>
      <use xlink:href="#DejaVuSans-44"/>
      <use xlink:href="#DejaVuSans-69" x="77.001953"/>
      <use xlink:href="#DejaVuSans-73" x="104.785156"/>
      <use xlink:href="#DejaVuSans-74" x="156.884766"/>
      <use xlink:href="#DejaVuSans-72" x="196.09375"/>
      <use xlink:href="#DejaVuSans-69" x="237.207031"/>
      <use xlink:href="#DejaVuSans-62" x="264.990234"/>
      <use xlink:href="#DejaVuSans-75" x="328.466797"/>
      <use xlink:href="#DejaVuSans-74" x="391.845703"/>
      <use xlink:href="#DejaVuSans-69" x="431.054688"/>
      <use xlink:href="#DejaVuSans-6f" x="458.837891"/>
      <use xlink:href="#DejaVuSans-6e" x="520.019531"/>
      <use xlink:href="#DejaVuSans-20" x="583.398438"/>
      <use xlink:href="#DejaVuSans-6f" x="615.185547"/>
      <use xlink:href="#DejaVuSans-66" x="676.367188"/>
      <use xlink:href="#DejaVuSans-20" x="711.572266"/>
      <use xlink:href="#DejaVuSans-70" x="743.359375"/>
      <use xlink:href="#DejaVuSans-6f" x="806.835938"/>
      <use xlink:href="#DejaVuSans-73" x="868.017578"/>
      <use xlink:href="#DejaVuSans-74" x="920.117188"/>
      <use xlink:href="#DejaVuSans-65" x="959.326172"/>
      <use xlink:href="#DejaVuSans-72" x="1020.849609"/>
      <use xlink:href="#DejaVuSans-69" x="1061.962891"/>
      <use xlink:href="#DejaVuSans-6f" x="1089.746094"/>
      <use xlink:href="#DejaVuSans-72" x="1150.927734"/>
      <use xlink:href="#DejaVuSans-20" x="1192.041016"/>
      <use xlink:href="#DejaVuSans-73" x="1223.828125"/>
      <use xlink:href="#DejaVuSans-61" x="1275.927734"/>
      <use xlink:href="#DejaVuSans-6d" x="1337.207031"/>
      <use xlink:href="#DejaVuSans-70" x="1434.619141"/>
      <use xlink:href="#DejaVuSans-6c" x="1498.095703"/>
      <use xlink:href="#DejaVuSans-65" x="1525.878906"/>
      <use xlink:href="#DejaVuSans-73" x="1587.402344"/>
     </g>
    </g>
   </g>
   <g id="matplotlib.axis_2">
    <g id="ytick_1">
     <g id="text_7">
      <!-- Treatment effect difference: After ablation - Baseline -->
      <g transform="translate(7.2 150.359062) scale(0.12 -0.12)">
       <defs>
        <path id="DejaVuSans-54" d="M -19 4666 
L 3928 4666 
L 3928 4134 
L 2272 4134 
L 2272 0 
L 1638 0 
L 1638 4134 
L -19 4134 
L -19 4666 
z
" transform="scale(0.015625)"/>
        <path id="DejaVuSans-63" d="M 3122 3366 
L 3122 2828 
Q 2878 2963 2633 3030 
Q 2388 3097 2138 3097 
Q 1578 3097 1268 2742 
Q 959 2388 959 1747 
Q 959 1106 1268 751 
Q 1578 397 2138 397 
Q 2388 397 2633 464 
Q 2878 531 3122 666 
L 3122 134 
Q 2881 22 2623 -34 
Q 2366 -91 2075 -91 
Q 1284 -91 818 406 
Q 353 903 353 1747 
Q 353 2603 823 3093 
Q 1294 3584 2113 3584 
Q 2378 3584 2631 3529 
Q 2884 3475 3122 3366 
z
" transform="scale(0.015625)"/>
        <path id="DejaVuSans-64" d="M 2906 2969 
L 2906 4863 
L 3481 4863 
L 3481 0 
L 2906 0 
L 2906 525 
Q 2725 213 2448 61 
Q 2172 -91 1784 -91 
Q 1150 -91 751 415 
Q 353 922 353 1747 
Q 353 2572 751 3078 
Q 1150 3584 1784 3584 
Q 2172 3584 2448 3432 
Q 2725 3281 2906 2969 
z
M 947 1747 
Q 947 1113 1208 752 
Q 1469 391 1925 391 
Q 2381 391 2643 752 
Q 2906 1113 2906 1747 
Q 2906 2381 2643 2742 
Q 2381 3103 1925 3103 
Q 1469 3103 1208 2742 
Q 947 2381 947 1747 
z
" transform="scale(0.015625)"/>
        <path id="DejaVuSans-3a" d="M 750 794 
L 1409 794 
L 1409 0 
L 750 0 
L 750 794 
z
M 750 3309 
L 1409 3309 
L 1409 2516 
L 750 2516 
L 750 3309 
z
" transform="scale(0.015625)"/>
        <path id="DejaVuSans-41" d="M 2188 4044 
L 1331 1722 
L 3047 1722 
L 2188 4044 
z
M 1831 4666 
L 2547 4666 
L 4325 0 
L 3669 0 
L 3244 1197 
L 1141 1197 
L 716 0 
L 50 0 
L 1831 4666 
z
" transform="scale(0.015625)"/>
        <path id="DejaVuSans-2d" d="M 313 2009 
L 1997 2009 
L 1997 1497 
L 313 1497 
L 313 2009 
z
" transform="scale(0.015625)"/>
        <path id="DejaVuSans-42" d="M 1259 2228 
L 1259 519 
L 2272 519 
Q 2781 519 3026 730 
Q 3272 941 3272 1375 
Q 3272 1813 3026 2020 
Q 2781 2228 2272 2228 
L 1259 2228 
z
M 1259 4147 
L 1259 2741 
L 2194 2741 
Q 2656 2741 2882 2914 
Q 3109 3088 3109 3444 
Q 3109 3797 2882 3972 
Q 2656 4147 2194 4147 
L 1259 4147 
z
M 628 4666 
L 2241 4666 
Q 2963 4666 3353 4366 
Q 3744 4066 3744 3513 
Q 3744 3084 3544 2831 
Q 3344 2578 2956 2516 
Q 3422 2416 3680 2098 
Q 3938 1781 3938 1306 
Q 3938 681 3513 340 
Q 3088 0 2303 0 
L 628 0 
L 628 4666 
z
" transform="scale(0.015625)"/>
       </defs>
       <use xlink:href="#DejaVuSans-54"/>
       <use xlink:href="#DejaVuSans-72" x="46.333984"/>
       <use xlink:href="#DejaVuSans-65" x="85.197266"/>
       <use xlink:href="#DejaVuSans-61" x="146.720703"/>
       <use xlink:href="#DejaVuSans-74" x="208"/>
       <use xlink:href="#DejaVuSans-6d" x="247.208984"/>
       <use xlink:href="#DejaVuSans-65" x="344.621094"/>
       <use xlink:href="#DejaVuSans-6e" x="406.144531"/>
       <use xlink:href="#DejaVuSans-74" x="469.523438"/>
       <use xlink:href="#DejaVuSans-20" x="508.732422"/>
       <use xlink:href="#DejaVuSans-65" x="540.519531"/>
       <use xlink:href="#DejaVuSans-66" x="602.042969"/>
       <use xlink:href="#DejaVuSans-66" x="637.248047"/>
       <use xlink:href="#DejaVuSans-65" x="672.453125"/>
       <use xlink:href="#DejaVuSans-63" x="733.976562"/>
       <use xlink:href="#DejaVuSans-74" x="788.957031"/>
       <use xlink:href="#DejaVuSans-20" x="828.166016"/>
       <use xlink:href="#DejaVuSans-64" x="859.953125"/>
       <use xlink:href="#DejaVuSans-69" x="923.429688"/>
       <use xlink:href="#DejaVuSans-66" x="951.212891"/>
       <use xlink:href="#DejaVuSans-66" x="986.417969"/>
       <use xlink:href="#DejaVuSans-65" x="1021.623047"/>
       <use xlink:href="#DejaVuSans-72" x="1083.146484"/>
       <use xlink:href="#DejaVuSans-65" x="1122.009766"/>
       <use xlink:href="#DejaVuSans-6e" x="1183.533203"/>
       <use xlink:href="#DejaVuSans-63" x="1246.912109"/>
       <use xlink:href="#DejaVuSans-65" x="1301.892578"/>
       <use xlink:href="#DejaVuSans-3a" x="1363.416016"/>
       <use xlink:href="#DejaVuSans-20" x="1397.107422"/>
       <use xlink:href="#DejaVuSans-41" x="1428.894531"/>
       <use xlink:href="#DejaVuSans-66" x="1493.677734"/>
       <use xlink:href="#DejaVuSans-74" x="1527.132812"/>
       <use xlink:href="#DejaVuSans-65" x="1566.341797"/>
       <use xlink:href="#DejaVuSans-72" x="1627.865234"/>
       <use xlink:href="#DejaVuSans-20" x="1668.978516"/>
       <use xlink:href="#DejaVuSans-61" x="1700.765625"/>
       <use xlink:href="#DejaVuSans-62" x="1762.044922"/>
       <use xlink:href="#DejaVuSans-6c" x="1825.521484"/>
       <use xlink:href="#DejaVuSans-61" x="1853.304688"/>
       <use xlink:href="#DejaVuSans-74" x="1914.583984"/>
       <use xlink:href="#DejaVuSans-69" x="1953.792969"/>
       <use xlink:href="#DejaVuSans-6f" x="1981.576172"/>
       <use xlink:href="#DejaVuSans-6e" x="2042.757812"/>
       <use xlink:href="#DejaVuSans-20" x="2106.136719"/>
       <use xlink:href="#DejaVuSans-2d" x="2137.923828"/>
       <use xlink:href="#DejaVuSans-20" x="2174.007812"/>
       <use xlink:href="#DejaVuSans-42" x="2205.794922"/>
       <use xlink:href="#DejaVuSans-61" x="2274.398438"/>
       <use xlink:href="#DejaVuSans-73" x="2335.677734"/>
       <use xlink:href="#DejaVuSans-65" x="2387.777344"/>
       <use xlink:href="#DejaVuSans-6c" x="2449.300781"/>
       <use xlink:href="#DejaVuSans-69" x="2477.083984"/>
       <use xlink:href="#DejaVuSans-6e" x="2504.867188"/>
       <use xlink:href="#DejaVuSans-65" x="2568.246094"/>
      </g>
     </g>
    </g>
    <g id="ytick_2">
     <g id="text_8">
      <!-- Treatment effect difference: After hyper - Baseline -->
      <g transform="translate(21.2025 67.199063) scale(0.12 -0.12)">
       <defs>
        <path id="DejaVuSans-68" d="M 3513 2113 
L 3513 0 
L 2938 0 
L 2938 2094 
Q 2938 2591 2744 2837 
Q 2550 3084 2163 3084 
Q 1697 3084 1428 2787 
Q 1159 2491 1159 1978 
L 1159 0 
L 581 0 
L 581 4863 
L 1159 4863 
L 1159 2956 
Q 1366 3272 1645 3428 
Q 1925 3584 2291 3584 
Q 2894 3584 3203 3211 
Q 3513 2838 3513 2113 
z
" transform="scale(0.015625)"/>
        <path id="DejaVuSans-79" d="M 2059 -325 
Q 1816 -950 1584 -1140 
Q 1353 -1331 966 -1331 
L 506 -1331 
L 506 -850 
L 844 -850 
Q 1081 -850 1212 -737 
Q 1344 -625 1503 -206 
L 1606 56 
L 191 3500 
L 800 3500 
L 1894 763 
L 2988 3500 
L 3597 3500 
L 2059 -325 
z
" transform="scale(0.015625)"/>
       </defs>
       <use xlink:href="#DejaVuSans-54"/>
       <use xlink:href="#DejaVuSans-72" x="46.333984"/>
       <use xlink:href="#DejaVuSans-65" x="85.197266"/>
       <use xlink:href="#DejaVuSans-61" x="146.720703"/>
       <use xlink:href="#DejaVuSans-74" x="208"/>
       <use xlink:href="#DejaVuSans-6d" x="247.208984"/>
       <use xlink:href="#DejaVuSans-65" x="344.621094"/>
       <use xlink:href="#DejaVuSans-6e" x="406.144531"/>
       <use xlink:href="#DejaVuSans-74" x="469.523438"/>
       <use xlink:href="#DejaVuSans-20" x="508.732422"/>
       <use xlink:href="#DejaVuSans-65" x="540.519531"/>
       <use xlink:href="#DejaVuSans-66" x="602.042969"/>
       <use xlink:href="#DejaVuSans-66" x="637.248047"/>
       <use xlink:href="#DejaVuSans-65" x="672.453125"/>
       <use xlink:href="#DejaVuSans-63" x="733.976562"/>
       <use xlink:href="#DejaVuSans-74" x="788.957031"/>
       <use xlink:href="#DejaVuSans-20" x="828.166016"/>
       <use xlink:href="#DejaVuSans-64" x="859.953125"/>
       <use xlink:href="#DejaVuSans-69" x="923.429688"/>
       <use xlink:href="#DejaVuSans-66" x="951.212891"/>
       <use xlink:href="#DejaVuSans-66" x="986.417969"/>
       <use xlink:href="#DejaVuSans-65" x="1021.623047"/>
       <use xlink:href="#DejaVuSans-72" x="1083.146484"/>
       <use xlink:href="#DejaVuSans-65" x="1122.009766"/>
       <use xlink:href="#DejaVuSans-6e" x="1183.533203"/>
       <use xlink:href="#DejaVuSans-63" x="1246.912109"/>
       <use xlink:href="#DejaVuSans-65" x="1301.892578"/>
       <use xlink:href="#DejaVuSans-3a" x="1363.416016"/>
       <use xlink:href="#DejaVuSans-20" x="1397.107422"/>
       <use xlink:href="#DejaVuSans-41" x="1428.894531"/>
       <use xlink:href="#DejaVuSans-66" x="1493.677734"/>
       <use xlink:href="#DejaVuSans-74" x="1527.132812"/>
       <use xlink:href="#DejaVuSans-65" x="1566.341797"/>
       <use xlink:href="#DejaVuSans-72" x="1627.865234"/>
       <use xlink:href="#DejaVuSans-20" x="1668.978516"/>
       <use xlink:href="#DejaVuSans-68" x="1700.765625"/>
       <use xlink:href="#DejaVuSans-79" x="1764.144531"/>
       <use xlink:href="#DejaVuSans-70" x="1823.324219"/>
       <use xlink:href="#DejaVuSans-65" x="1886.800781"/>
       <use xlink:href="#DejaVuSans-72" x="1948.324219"/>
       <use xlink:href="#DejaVuSans-20" x="1989.4375"/>
       <use xlink:href="#DejaVuSans-2d" x="2021.224609"/>
       <use xlink:href="#DejaVuSans-20" x="2057.308594"/>
       <use xlink:href="#DejaVuSans-42" x="2089.095703"/>
       <use xlink:href="#DejaVuSans-61" x="2157.699219"/>
       <use xlink:href="#DejaVuSans-73" x="2218.978516"/>
       <use xlink:href="#DejaVuSans-65" x="2271.078125"/>
       <use xlink:href="#DejaVuSans-6c" x="2332.601562"/>
       <use xlink:href="#DejaVuSans-69" x="2360.384766"/>
       <use xlink:href="#DejaVuSans-6e" x="2388.167969"/>
       <use xlink:href="#DejaVuSans-65" x="2451.546875"/>
      </g>
     </g>
    </g>
   </g>
   <g id="LineCollection_1">
    <path d="M 340.398571 145.8 
L 411.098889 145.8 
" clip-path="url(#pfc35f7d2ef)" style="fill: none; stroke: #66c2a5; stroke-width: 3"/>
   </g>
   <g id="LineCollection_2">
    <path d="M 364.167224 145.8 
L 387.90716 145.8 
" clip-path="url(#pfc35f7d2ef)" style="fill: none; stroke: #66c2a5; stroke-width: 6"/>
   </g>
   <g id="line2d_6">
    <defs>
     <path id="mbfb38ddc3b" d="M 0 1.928571 
C 0.511463 1.928571 1.002047 1.725365 1.363706 1.363706 
C 1.725365 1.002047 1.928571 0.511463 1.928571 0 
C 1.928571 -0.511463 1.725365 -1.002047 1.363706 -1.363706 
C 1.002047 -1.725365 0.511463 -1.928571 0 -1.928571 
C -0.511463 -1.928571 -1.002047 -1.725365 -1.363706 -1.363706 
C -1.725365 -1.002047 -1.928571 -0.511463 -1.928571 0 
C -1.928571 0.511463 -1.725365 1.002047 -1.363706 1.363706 
C -1.002047 1.725365 -0.511463 1.928571 0 1.928571 
z
" style="stroke: #66c2a5"/>
    </defs>
    <g clip-path="url(#pfc35f7d2ef)">
     <use xlink:href="#mbfb38ddc3b" x="375.936146" y="145.8" style="fill: #ffffff; stroke: #66c2a5"/>
    </g>
   </g>
   <g id="LineCollection_3">
    <path d="M 406.426778 62.64 
L 483.140398 62.64 
" clip-path="url(#pfc35f7d2ef)" style="fill: none; stroke: #66c2a5; stroke-width: 3"/>
   </g>
   <g id="LineCollection_4">
    <path d="M 432.121798 62.64 
L 459.129612 62.64 
" clip-path="url(#pfc35f7d2ef)" style="fill: none; stroke: #66c2a5; stroke-width: 6"/>
   </g>
   <g id="line2d_7">
    <g clip-path="url(#pfc35f7d2ef)">
     <use xlink:href="#mbfb38ddc3b" x="445.646393" y="62.64" style="fill: #ffffff; stroke: #66c2a5"/>
    </g>
   </g>
   <g id="line2d_8">
    <path d="M 552.97 173.52 
L 552.97 7.2 
" clip-path="url(#pfc35f7d2ef)" style="fill: none; stroke-dasharray: 5.55,2.4; stroke-dashoffset: 0; stroke: #000000; stroke-width: 1.5"/>
   </g>
   <g id="patch_3">
    <path d="M 329.77 173.52 
L 776.17 173.52 
" style="fill: none; stroke: #000000; stroke-width: 0.8; stroke-linejoin: miter; stroke-linecap: square"/>
   </g>
   <g id="patch_4">
    <path d="M 329.77 7.2 
L 776.17 7.2 
" style="fill: none; stroke: #000000; stroke-width: 0.8; stroke-linejoin: miter; stroke-linecap: square"/>
   </g>
  </g>
 </g>
 <defs>
  <clipPath id="pfc35f7d2ef">
   <rect x="329.77" y="7.2" width="446.4" height="166.32"/>
  </clipPath>
 </defs>
</svg>
