<?xml version="1.0" encoding="utf-8" standalone="no"?>
<!DOCTYPE svg PUBLIC "-//W3C//DTD SVG 1.1//EN"
  "http://www.w3.org/Graphics/SVG/1.1/DTD/svg11.dtd">
<svg xmlns:xlink="http://www.w3.org/1999/xlink" width="780.0025pt" height="323.891875pt" viewBox="0 0 780.0025 323.891875" xmlns="http://www.w3.org/2000/svg" version="1.1">
 <metadata>
  <rdf:RDF xmlns:dc="http://purl.org/dc/elements/1.1/" xmlns:cc="http://creativecommons.org/ns#" xmlns:rdf="http://www.w3.org/1999/02/22-rdf-syntax-ns#">
   <cc:Work>
    <dc:type rdf:resource="http://purl.org/dc/dcmitype/StillImage"/>
    <dc:date>2025-01-20T16:34:27.146840</dc:date>
    <dc:format>image/svg+xml</dc:format>
    <dc:creator>
     <cc:Agent>
      <dc:title>Matplotlib v3.9.2, https://matplotlib.org/</dc:title>
     </cc:Agent>
    </dc:creator>
   </cc:Work>
  </rdf:RDF>
 </metadata>
 <defs>
  <style type="text/css">*{stroke-linejoin: round; stroke-linecap: butt}</style>
 </defs>
 <g id="figure_1">
  <g id="patch_1">
   <path d="M 0 323.891875 
L 780.0025 323.891875 
L 780.0025 0 
L 0 0 
z
" style="fill: #ffffff"/>
  </g>
  <g id="axes_1">
   <g id="patch_2">
    <path d="M 326.4025 284.4 
L 772.8025 284.4 
L 772.8025 7.2 
L 326.4025 7.2 
z
" style="fill: #ffffff"/>
   </g>
   <g id="matplotlib.axis_1">
    <g id="xtick_1">
     <g id="line2d_1">
      <defs>
       <path id="md3639da152" d="M 0 0 
L 0 3.5 
" style="stroke: #000000; stroke-width: 0.8"/>
      </defs>
      <g>
       <use xlink:href="#md3639da152" x="345.401622" y="284.4" style="stroke: #000000; stroke-width: 0.8"/>
      </g>
     </g>
     <g id="text_1">
      <!-- −0.6 -->
      <g transform="translate(330.831934 300.518125) scale(0.12 -0.12)">
       <defs>
        <path id="DejaVuSans-2212" d="M 678 2272 
L 4684 2272 
L 4684 1741 
L 678 1741 
L 678 2272 
z
" transform="scale(0.015625)"/>
        <path id="DejaVuSans-30" d="M 2034 4250 
Q 1547 4250 1301 3770 
Q 1056 3291 1056 2328 
Q 1056 1369 1301 889 
Q 1547 409 2034 409 
Q 2525 409 2770 889 
Q 3016 1369 3016 2328 
Q 3016 3291 2770 3770 
Q 2525 4250 2034 4250 
z
M 2034 4750 
Q 2819 4750 3233 4129 
Q 3647 3509 3647 2328 
Q 3647 1150 3233 529 
Q 2819 -91 2034 -91 
Q 1250 -91 836 529 
Q 422 1150 422 2328 
Q 422 3509 836 4129 
Q 1250 4750 2034 4750 
z
" transform="scale(0.015625)"/>
        <path id="DejaVuSans-2e" d="M 684 794 
L 1344 794 
L 1344 0 
L 684 0 
L 684 794 
z
" transform="scale(0.015625)"/>
        <path id="DejaVuSans-36" d="M 2113 2584 
Q 1688 2584 1439 2293 
Q 1191 2003 1191 1497 
Q 1191 994 1439 701 
Q 1688 409 2113 409 
Q 2538 409 2786 701 
Q 3034 994 3034 1497 
Q 3034 2003 2786 2293 
Q 2538 2584 2113 2584 
z
M 3366 4563 
L 3366 3988 
Q 3128 4100 2886 4159 
Q 2644 4219 2406 4219 
Q 1781 4219 1451 3797 
Q 1122 3375 1075 2522 
Q 1259 2794 1537 2939 
Q 1816 3084 2150 3084 
Q 2853 3084 3261 2657 
Q 3669 2231 3669 1497 
Q 3669 778 3244 343 
Q 2819 -91 2113 -91 
Q 1303 -91 875 529 
Q 447 1150 447 2328 
Q 447 3434 972 4092 
Q 1497 4750 2381 4750 
Q 2619 4750 2861 4703 
Q 3103 4656 3366 4563 
z
" transform="scale(0.015625)"/>
       </defs>
       <use xlink:href="#DejaVuSans-2212"/>
       <use xlink:href="#DejaVuSans-30" x="83.789062"/>
       <use xlink:href="#DejaVuSans-2e" x="147.412109"/>
       <use xlink:href="#DejaVuSans-36" x="179.199219"/>
      </g>
     </g>
    </g>
    <g id="xtick_2">
     <g id="line2d_2">
      <g>
       <use xlink:href="#md3639da152" x="413.468581" y="284.4" style="stroke: #000000; stroke-width: 0.8"/>
      </g>
     </g>
     <g id="text_2">
      <!-- −0.4 -->
      <g transform="translate(398.898894 300.518125) scale(0.12 -0.12)">
       <defs>
        <path id="DejaVuSans-34" d="M 2419 4116 
L 825 1625 
L 2419 1625 
L 2419 4116 
z
M 2253 4666 
L 3047 4666 
L 3047 1625 
L 3713 1625 
L 3713 1100 
L 3047 1100 
L 3047 0 
L 2419 0 
L 2419 1100 
L 313 1100 
L 313 1709 
L 2253 4666 
z
" transform="scale(0.015625)"/>
       </defs>
       <use xlink:href="#DejaVuSans-2212"/>
       <use xlink:href="#DejaVuSans-30" x="83.789062"/>
       <use xlink:href="#DejaVuSans-2e" x="147.412109"/>
       <use xlink:href="#DejaVuSans-34" x="179.199219"/>
      </g>
     </g>
    </g>
    <g id="xtick_3">
     <g id="line2d_3">
      <g>
       <use xlink:href="#md3639da152" x="481.535541" y="284.4" style="stroke: #000000; stroke-width: 0.8"/>
      </g>
     </g>
     <g id="text_3">
      <!-- −0.2 -->
      <g transform="translate(466.965853 300.518125) scale(0.12 -0.12)">
       <defs>
        <path id="DejaVuSans-32" d="M 1228 531 
L 3431 531 
L 3431 0 
L 469 0 
L 469 531 
Q 828 903 1448 1529 
Q 2069 2156 2228 2338 
Q 2531 2678 2651 2914 
Q 2772 3150 2772 3378 
Q 2772 3750 2511 3984 
Q 2250 4219 1831 4219 
Q 1534 4219 1204 4116 
Q 875 4013 500 3803 
L 500 4441 
Q 881 4594 1212 4672 
Q 1544 4750 1819 4750 
Q 2544 4750 2975 4387 
Q 3406 4025 3406 3419 
Q 3406 3131 3298 2873 
Q 3191 2616 2906 2266 
Q 2828 2175 2409 1742 
Q 1991 1309 1228 531 
z
" transform="scale(0.015625)"/>
       </defs>
       <use xlink:href="#DejaVuSans-2212"/>
       <use xlink:href="#DejaVuSans-30" x="83.789062"/>
       <use xlink:href="#DejaVuSans-2e" x="147.412109"/>
       <use xlink:href="#DejaVuSans-32" x="179.199219"/>
      </g>
     </g>
    </g>
    <g id="xtick_4">
     <g id="line2d_4">
      <g>
       <use xlink:href="#md3639da152" x="549.6025" y="284.4" style="stroke: #000000; stroke-width: 0.8"/>
      </g>
     </g>
     <g id="text_4">
      <!-- 0.0 -->
      <g transform="translate(540.060625 300.518125) scale(0.12 -0.12)">
       <use xlink:href="#DejaVuSans-30"/>
       <use xlink:href="#DejaVuSans-2e" x="63.623047"/>
       <use xlink:href="#DejaVuSans-30" x="95.410156"/>
      </g>
     </g>
    </g>
    <g id="xtick_5">
     <g id="line2d_5">
      <g>
       <use xlink:href="#md3639da152" x="617.669459" y="284.4" style="stroke: #000000; stroke-width: 0.8"/>
      </g>
     </g>
     <g id="text_5">
      <!-- 0.2 -->
      <g transform="translate(608.127584 300.518125) scale(0.12 -0.12)">
       <use xlink:href="#DejaVuSans-30"/>
       <use xlink:href="#DejaVuSans-2e" x="63.623047"/>
       <use xlink:href="#DejaVuSans-32" x="95.410156"/>
      </g>
     </g>
    </g>
    <g id="xtick_6">
     <g id="line2d_6">
      <g>
       <use xlink:href="#md3639da152" x="685.736419" y="284.4" style="stroke: #000000; stroke-width: 0.8"/>
      </g>
     </g>
     <g id="text_6">
      <!-- 0.4 -->
      <g transform="translate(676.194544 300.518125) scale(0.12 -0.12)">
       <use xlink:href="#DejaVuSans-30"/>
       <use xlink:href="#DejaVuSans-2e" x="63.623047"/>
       <use xlink:href="#DejaVuSans-34" x="95.410156"/>
      </g>
     </g>
    </g>
    <g id="xtick_7">
     <g id="line2d_7">
      <g>
       <use xlink:href="#md3639da152" x="753.803378" y="284.4" style="stroke: #000000; stroke-width: 0.8"/>
      </g>
     </g>
     <g id="text_7">
      <!-- 0.6 -->
      <g transform="translate(744.261503 300.518125) scale(0.12 -0.12)">
       <use xlink:href="#DejaVuSans-30"/>
       <use xlink:href="#DejaVuSans-2e" x="63.623047"/>
       <use xlink:href="#DejaVuSans-36" x="95.410156"/>
      </g>
     </g>
    </g>
    <g id="text_8">
     <!-- Distribution of posterior samples -->
     <g transform="translate(467.629062 314.612188) scale(0.1 -0.1)">
      <defs>
       <path id="DejaVuSans-44" d="M 1259 4147 
L 1259 519 
L 2022 519 
Q 2988 519 3436 956 
Q 3884 1394 3884 2338 
Q 3884 3275 3436 3711 
Q 2988 4147 2022 4147 
L 1259 4147 
z
M 628 4666 
L 1925 4666 
Q 3281 4666 3915 4102 
Q 4550 3538 4550 2338 
Q 4550 1131 3912 565 
Q 3275 0 1925 0 
L 628 0 
L 628 4666 
z
" transform="scale(0.015625)"/>
       <path id="DejaVuSans-69" d="M 603 3500 
L 1178 3500 
L 1178 0 
L 603 0 
L 603 3500 
z
M 603 4863 
L 1178 4863 
L 1178 4134 
L 603 4134 
L 603 4863 
z
" transform="scale(0.015625)"/>
       <path id="DejaVuSans-73" d="M 2834 3397 
L 2834 2853 
Q 2591 2978 2328 3040 
Q 2066 3103 1784 3103 
Q 1356 3103 1142 2972 
Q 928 2841 928 2578 
Q 928 2378 1081 2264 
Q 1234 2150 1697 2047 
L 1894 2003 
Q 2506 1872 2764 1633 
Q 3022 1394 3022 966 
Q 3022 478 2636 193 
Q 2250 -91 1575 -91 
Q 1294 -91 989 -36 
Q 684 19 347 128 
L 347 722 
Q 666 556 975 473 
Q 1284 391 1588 391 
Q 1994 391 2212 530 
Q 2431 669 2431 922 
Q 2431 1156 2273 1281 
Q 2116 1406 1581 1522 
L 1381 1569 
Q 847 1681 609 1914 
Q 372 2147 372 2553 
Q 372 3047 722 3315 
Q 1072 3584 1716 3584 
Q 2034 3584 2315 3537 
Q 2597 3491 2834 3397 
z
" transform="scale(0.015625)"/>
       <path id="DejaVuSans-74" d="M 1172 4494 
L 1172 3500 
L 2356 3500 
L 2356 3053 
L 1172 3053 
L 1172 1153 
Q 1172 725 1289 603 
Q 1406 481 1766 481 
L 2356 481 
L 2356 0 
L 1766 0 
Q 1100 0 847 248 
Q 594 497 594 1153 
L 594 3053 
L 172 3053 
L 172 3500 
L 594 3500 
L 594 4494 
L 1172 4494 
z
" transform="scale(0.015625)"/>
       <path id="DejaVuSans-72" d="M 2631 2963 
Q 2534 3019 2420 3045 
Q 2306 3072 2169 3072 
Q 1681 3072 1420 2755 
Q 1159 2438 1159 1844 
L 1159 0 
L 581 0 
L 581 3500 
L 1159 3500 
L 1159 2956 
Q 1341 3275 1631 3429 
Q 1922 3584 2338 3584 
Q 2397 3584 2469 3576 
Q 2541 3569 2628 3553 
L 2631 2963 
z
" transform="scale(0.015625)"/>
       <path id="DejaVuSans-62" d="M 3116 1747 
Q 3116 2381 2855 2742 
Q 2594 3103 2138 3103 
Q 1681 3103 1420 2742 
Q 1159 2381 1159 1747 
Q 1159 1113 1420 752 
Q 1681 391 2138 391 
Q 2594 391 2855 752 
Q 3116 1113 3116 1747 
z
M 1159 2969 
Q 1341 3281 1617 3432 
Q 1894 3584 2278 3584 
Q 2916 3584 3314 3078 
Q 3713 2572 3713 1747 
Q 3713 922 3314 415 
Q 2916 -91 2278 -91 
Q 1894 -91 1617 61 
Q 1341 213 1159 525 
L 1159 0 
L 581 0 
L 581 4863 
L 1159 4863 
L 1159 2969 
z
" transform="scale(0.015625)"/>
       <path id="DejaVuSans-75" d="M 544 1381 
L 544 3500 
L 1119 3500 
L 1119 1403 
Q 1119 906 1312 657 
Q 1506 409 1894 409 
Q 2359 409 2629 706 
Q 2900 1003 2900 1516 
L 2900 3500 
L 3475 3500 
L 3475 0 
L 2900 0 
L 2900 538 
Q 2691 219 2414 64 
Q 2138 -91 1772 -91 
Q 1169 -91 856 284 
Q 544 659 544 1381 
z
M 1991 3584 
L 1991 3584 
z
" transform="scale(0.015625)"/>
       <path id="DejaVuSans-6f" d="M 1959 3097 
Q 1497 3097 1228 2736 
Q 959 2375 959 1747 
Q 959 1119 1226 758 
Q 1494 397 1959 397 
Q 2419 397 2687 759 
Q 2956 1122 2956 1747 
Q 2956 2369 2687 2733 
Q 2419 3097 1959 3097 
z
M 1959 3584 
Q 2709 3584 3137 3096 
Q 3566 2609 3566 1747 
Q 3566 888 3137 398 
Q 2709 -91 1959 -91 
Q 1206 -91 779 398 
Q 353 888 353 1747 
Q 353 2609 779 3096 
Q 1206 3584 1959 3584 
z
" transform="scale(0.015625)"/>
       <path id="DejaVuSans-6e" d="M 3513 2113 
L 3513 0 
L 2938 0 
L 2938 2094 
Q 2938 2591 2744 2837 
Q 2550 3084 2163 3084 
Q 1697 3084 1428 2787 
Q 1159 2491 1159 1978 
L 1159 0 
L 581 0 
L 581 3500 
L 1159 3500 
L 1159 2956 
Q 1366 3272 1645 3428 
Q 1925 3584 2291 3584 
Q 2894 3584 3203 3211 
Q 3513 2838 3513 2113 
z
" transform="scale(0.015625)"/>
       <path id="DejaVuSans-20" transform="scale(0.015625)"/>
       <path id="DejaVuSans-66" d="M 2375 4863 
L 2375 4384 
L 1825 4384 
Q 1516 4384 1395 4259 
Q 1275 4134 1275 3809 
L 1275 3500 
L 2222 3500 
L 2222 3053 
L 1275 3053 
L 1275 0 
L 697 0 
L 697 3053 
L 147 3053 
L 147 3500 
L 697 3500 
L 697 3744 
Q 697 4328 969 4595 
Q 1241 4863 1831 4863 
L 2375 4863 
z
" transform="scale(0.015625)"/>
       <path id="DejaVuSans-70" d="M 1159 525 
L 1159 -1331 
L 581 -1331 
L 581 3500 
L 1159 3500 
L 1159 2969 
Q 1341 3281 1617 3432 
Q 1894 3584 2278 3584 
Q 2916 3584 3314 3078 
Q 3713 2572 3713 1747 
Q 3713 922 3314 415 
Q 2916 -91 2278 -91 
Q 1894 -91 1617 61 
Q 1341 213 1159 525 
z
M 3116 1747 
Q 3116 2381 2855 2742 
Q 2594 3103 2138 3103 
Q 1681 3103 1420 2742 
Q 1159 2381 1159 1747 
Q 1159 1113 1420 752 
Q 1681 391 2138 391 
Q 2594 391 2855 752 
Q 3116 1113 3116 1747 
z
" transform="scale(0.015625)"/>
       <path id="DejaVuSans-65" d="M 3597 1894 
L 3597 1613 
L 953 1613 
Q 991 1019 1311 708 
Q 1631 397 2203 397 
Q 2534 397 2845 478 
Q 3156 559 3463 722 
L 3463 178 
Q 3153 47 2828 -22 
Q 2503 -91 2169 -91 
Q 1331 -91 842 396 
Q 353 884 353 1716 
Q 353 2575 817 3079 
Q 1281 3584 2069 3584 
Q 2775 3584 3186 3129 
Q 3597 2675 3597 1894 
z
M 3022 2063 
Q 3016 2534 2758 2815 
Q 2500 3097 2075 3097 
Q 1594 3097 1305 2825 
Q 1016 2553 972 2059 
L 3022 2063 
z
" transform="scale(0.015625)"/>
       <path id="DejaVuSans-61" d="M 2194 1759 
Q 1497 1759 1228 1600 
Q 959 1441 959 1056 
Q 959 750 1161 570 
Q 1363 391 1709 391 
Q 2188 391 2477 730 
Q 2766 1069 2766 1631 
L 2766 1759 
L 2194 1759 
z
M 3341 1997 
L 3341 0 
L 2766 0 
L 2766 531 
Q 2569 213 2275 61 
Q 1981 -91 1556 -91 
Q 1019 -91 701 211 
Q 384 513 384 1019 
Q 384 1609 779 1909 
Q 1175 2209 1959 2209 
L 2766 2209 
L 2766 2266 
Q 2766 2663 2505 2880 
Q 2244 3097 1772 3097 
Q 1472 3097 1187 3025 
Q 903 2953 641 2809 
L 641 3341 
Q 956 3463 1253 3523 
Q 1550 3584 1831 3584 
Q 2591 3584 2966 3190 
Q 3341 2797 3341 1997 
z
" transform="scale(0.015625)"/>
       <path id="DejaVuSans-6d" d="M 3328 2828 
Q 3544 3216 3844 3400 
Q 4144 3584 4550 3584 
Q 5097 3584 5394 3201 
Q 5691 2819 5691 2113 
L 5691 0 
L 5113 0 
L 5113 2094 
Q 5113 2597 4934 2840 
Q 4756 3084 4391 3084 
Q 3944 3084 3684 2787 
Q 3425 2491 3425 1978 
L 3425 0 
L 2847 0 
L 2847 2094 
Q 2847 2600 2669 2842 
Q 2491 3084 2119 3084 
Q 1678 3084 1418 2786 
Q 1159 2488 1159 1978 
L 1159 0 
L 581 0 
L 581 3500 
L 1159 3500 
L 1159 2956 
Q 1356 3278 1631 3431 
Q 1906 3584 2284 3584 
Q 2666 3584 2933 3390 
Q 3200 3197 3328 2828 
z
" transform="scale(0.015625)"/>
       <path id="DejaVuSans-6c" d="M 603 4863 
L 1178 4863 
L 1178 0 
L 603 0 
L 603 4863 
z
" transform="scale(0.015625)"/>
      </defs>
      <use xlink:href="#DejaVuSans-44"/>
      <use xlink:href="#DejaVuSans-69" x="77.001953"/>
      <use xlink:href="#DejaVuSans-73" x="104.785156"/>
      <use xlink:href="#DejaVuSans-74" x="156.884766"/>
      <use xlink:href="#DejaVuSans-72" x="196.09375"/>
      <use xlink:href="#DejaVuSans-69" x="237.207031"/>
      <use xlink:href="#DejaVuSans-62" x="264.990234"/>
      <use xlink:href="#DejaVuSans-75" x="328.466797"/>
      <use xlink:href="#DejaVuSans-74" x="391.845703"/>
      <use xlink:href="#DejaVuSans-69" x="431.054688"/>
      <use xlink:href="#DejaVuSans-6f" x="458.837891"/>
      <use xlink:href="#DejaVuSans-6e" x="520.019531"/>
      <use xlink:href="#DejaVuSans-20" x="583.398438"/>
      <use xlink:href="#DejaVuSans-6f" x="615.185547"/>
      <use xlink:href="#DejaVuSans-66" x="676.367188"/>
      <use xlink:href="#DejaVuSans-20" x="711.572266"/>
      <use xlink:href="#DejaVuSans-70" x="743.359375"/>
      <use xlink:href="#DejaVuSans-6f" x="806.835938"/>
      <use xlink:href="#DejaVuSans-73" x="868.017578"/>
      <use xlink:href="#DejaVuSans-74" x="920.117188"/>
      <use xlink:href="#DejaVuSans-65" x="959.326172"/>
      <use xlink:href="#DejaVuSans-72" x="1020.849609"/>
      <use xlink:href="#DejaVuSans-69" x="1061.962891"/>
      <use xlink:href="#DejaVuSans-6f" x="1089.746094"/>
      <use xlink:href="#DejaVuSans-72" x="1150.927734"/>
      <use xlink:href="#DejaVuSans-20" x="1192.041016"/>
      <use xlink:href="#DejaVuSans-73" x="1223.828125"/>
      <use xlink:href="#DejaVuSans-61" x="1275.927734"/>
      <use xlink:href="#DejaVuSans-6d" x="1337.207031"/>
      <use xlink:href="#DejaVuSans-70" x="1434.619141"/>
      <use xlink:href="#DejaVuSans-6c" x="1498.095703"/>
      <use xlink:href="#DejaVuSans-65" x="1525.878906"/>
      <use xlink:href="#DejaVuSans-73" x="1587.402344"/>
     </g>
    </g>
   </g>
   <g id="matplotlib.axis_2">
    <g id="ytick_1">
     <g id="text_9">
      <!-- Treatment effect difference: Hyper 2 - After ablation -->
      <g transform="translate(7.2 265.859063) scale(0.12 -0.12)">
       <defs>
        <path id="DejaVuSans-54" d="M -19 4666 
L 3928 4666 
L 3928 4134 
L 2272 4134 
L 2272 0 
L 1638 0 
L 1638 4134 
L -19 4134 
L -19 4666 
z
" transform="scale(0.015625)"/>
        <path id="DejaVuSans-63" d="M 3122 3366 
L 3122 2828 
Q 2878 2963 2633 3030 
Q 2388 3097 2138 3097 
Q 1578 3097 1268 2742 
Q 959 2388 959 1747 
Q 959 1106 1268 751 
Q 1578 397 2138 397 
Q 2388 397 2633 464 
Q 2878 531 3122 666 
L 3122 134 
Q 2881 22 2623 -34 
Q 2366 -91 2075 -91 
Q 1284 -91 818 406 
Q 353 903 353 1747 
Q 353 2603 823 3093 
Q 1294 3584 2113 3584 
Q 2378 3584 2631 3529 
Q 2884 3475 3122 3366 
z
" transform="scale(0.015625)"/>
        <path id="DejaVuSans-64" d="M 2906 2969 
L 2906 4863 
L 3481 4863 
L 3481 0 
L 2906 0 
L 2906 525 
Q 2725 213 2448 61 
Q 2172 -91 1784 -91 
Q 1150 -91 751 415 
Q 353 922 353 1747 
Q 353 2572 751 3078 
Q 1150 3584 1784 3584 
Q 2172 3584 2448 3432 
Q 2725 3281 2906 2969 
z
M 947 1747 
Q 947 1113 1208 752 
Q 1469 391 1925 391 
Q 2381 391 2643 752 
Q 2906 1113 2906 1747 
Q 2906 2381 2643 2742 
Q 2381 3103 1925 3103 
Q 1469 3103 1208 2742 
Q 947 2381 947 1747 
z
" transform="scale(0.015625)"/>
        <path id="DejaVuSans-3a" d="M 750 794 
L 1409 794 
L 1409 0 
L 750 0 
L 750 794 
z
M 750 3309 
L 1409 3309 
L 1409 2516 
L 750 2516 
L 750 3309 
z
" transform="scale(0.015625)"/>
        <path id="DejaVuSans-48" d="M 628 4666 
L 1259 4666 
L 1259 2753 
L 3553 2753 
L 3553 4666 
L 4184 4666 
L 4184 0 
L 3553 0 
L 3553 2222 
L 1259 2222 
L 1259 0 
L 628 0 
L 628 4666 
z
" transform="scale(0.015625)"/>
        <path id="DejaVuSans-79" d="M 2059 -325 
Q 1816 -950 1584 -1140 
Q 1353 -1331 966 -1331 
L 506 -1331 
L 506 -850 
L 844 -850 
Q 1081 -850 1212 -737 
Q 1344 -625 1503 -206 
L 1606 56 
L 191 3500 
L 800 3500 
L 1894 763 
L 2988 3500 
L 3597 3500 
L 2059 -325 
z
" transform="scale(0.015625)"/>
        <path id="DejaVuSans-2d" d="M 313 2009 
L 1997 2009 
L 1997 1497 
L 313 1497 
L 313 2009 
z
" transform="scale(0.015625)"/>
        <path id="DejaVuSans-41" d="M 2188 4044 
L 1331 1722 
L 3047 1722 
L 2188 4044 
z
M 1831 4666 
L 2547 4666 
L 4325 0 
L 3669 0 
L 3244 1197 
L 1141 1197 
L 716 0 
L 50 0 
L 1831 4666 
z
" transform="scale(0.015625)"/>
       </defs>
       <use xlink:href="#DejaVuSans-54"/>
       <use xlink:href="#DejaVuSans-72" x="46.333984"/>
       <use xlink:href="#DejaVuSans-65" x="85.197266"/>
       <use xlink:href="#DejaVuSans-61" x="146.720703"/>
       <use xlink:href="#DejaVuSans-74" x="208"/>
       <use xlink:href="#DejaVuSans-6d" x="247.208984"/>
       <use xlink:href="#DejaVuSans-65" x="344.621094"/>
       <use xlink:href="#DejaVuSans-6e" x="406.144531"/>
       <use xlink:href="#DejaVuSans-74" x="469.523438"/>
       <use xlink:href="#DejaVuSans-20" x="508.732422"/>
       <use xlink:href="#DejaVuSans-65" x="540.519531"/>
       <use xlink:href="#DejaVuSans-66" x="602.042969"/>
       <use xlink:href="#DejaVuSans-66" x="637.248047"/>
       <use xlink:href="#DejaVuSans-65" x="672.453125"/>
       <use xlink:href="#DejaVuSans-63" x="733.976562"/>
       <use xlink:href="#DejaVuSans-74" x="788.957031"/>
       <use xlink:href="#DejaVuSans-20" x="828.166016"/>
       <use xlink:href="#DejaVuSans-64" x="859.953125"/>
       <use xlink:href="#DejaVuSans-69" x="923.429688"/>
       <use xlink:href="#DejaVuSans-66" x="951.212891"/>
       <use xlink:href="#DejaVuSans-66" x="986.417969"/>
       <use xlink:href="#DejaVuSans-65" x="1021.623047"/>
       <use xlink:href="#DejaVuSans-72" x="1083.146484"/>
       <use xlink:href="#DejaVuSans-65" x="1122.009766"/>
       <use xlink:href="#DejaVuSans-6e" x="1183.533203"/>
       <use xlink:href="#DejaVuSans-63" x="1246.912109"/>
       <use xlink:href="#DejaVuSans-65" x="1301.892578"/>
       <use xlink:href="#DejaVuSans-3a" x="1363.416016"/>
       <use xlink:href="#DejaVuSans-20" x="1397.107422"/>
       <use xlink:href="#DejaVuSans-48" x="1428.894531"/>
       <use xlink:href="#DejaVuSans-79" x="1504.089844"/>
       <use xlink:href="#DejaVuSans-70" x="1563.269531"/>
       <use xlink:href="#DejaVuSans-65" x="1626.746094"/>
       <use xlink:href="#DejaVuSans-72" x="1688.269531"/>
       <use xlink:href="#DejaVuSans-20" x="1729.382812"/>
       <use xlink:href="#DejaVuSans-32" x="1761.169922"/>
       <use xlink:href="#DejaVuSans-20" x="1824.792969"/>
       <use xlink:href="#DejaVuSans-2d" x="1856.580078"/>
       <use xlink:href="#DejaVuSans-20" x="1892.664062"/>
       <use xlink:href="#DejaVuSans-41" x="1924.451172"/>
       <use xlink:href="#DejaVuSans-66" x="1989.234375"/>
       <use xlink:href="#DejaVuSans-74" x="2022.689453"/>
       <use xlink:href="#DejaVuSans-65" x="2061.898438"/>
       <use xlink:href="#DejaVuSans-72" x="2123.421875"/>
       <use xlink:href="#DejaVuSans-20" x="2164.535156"/>
       <use xlink:href="#DejaVuSans-61" x="2196.322266"/>
       <use xlink:href="#DejaVuSans-62" x="2257.601562"/>
       <use xlink:href="#DejaVuSans-6c" x="2321.078125"/>
       <use xlink:href="#DejaVuSans-61" x="2348.861328"/>
       <use xlink:href="#DejaVuSans-74" x="2410.140625"/>
       <use xlink:href="#DejaVuSans-69" x="2449.349609"/>
       <use xlink:href="#DejaVuSans-6f" x="2477.132812"/>
       <use xlink:href="#DejaVuSans-6e" x="2538.314453"/>
      </g>
     </g>
    </g>
    <g id="ytick_2">
     <g id="text_10">
      <!-- Treatment effect difference: After hyper - baseline -->
      <g transform="translate(18.45 196.559062) scale(0.12 -0.12)">
       <defs>
        <path id="DejaVuSans-68" d="M 3513 2113 
L 3513 0 
L 2938 0 
L 2938 2094 
Q 2938 2591 2744 2837 
Q 2550 3084 2163 3084 
Q 1697 3084 1428 2787 
Q 1159 2491 1159 1978 
L 1159 0 
L 581 0 
L 581 4863 
L 1159 4863 
L 1159 2956 
Q 1366 3272 1645 3428 
Q 1925 3584 2291 3584 
Q 2894 3584 3203 3211 
Q 3513 2838 3513 2113 
z
" transform="scale(0.015625)"/>
       </defs>
       <use xlink:href="#DejaVuSans-54"/>
       <use xlink:href="#DejaVuSans-72" x="46.333984"/>
       <use xlink:href="#DejaVuSans-65" x="85.197266"/>
       <use xlink:href="#DejaVuSans-61" x="146.720703"/>
       <use xlink:href="#DejaVuSans-74" x="208"/>
       <use xlink:href="#DejaVuSans-6d" x="247.208984"/>
       <use xlink:href="#DejaVuSans-65" x="344.621094"/>
       <use xlink:href="#DejaVuSans-6e" x="406.144531"/>
       <use xlink:href="#DejaVuSans-74" x="469.523438"/>
       <use xlink:href="#DejaVuSans-20" x="508.732422"/>
       <use xlink:href="#DejaVuSans-65" x="540.519531"/>
       <use xlink:href="#DejaVuSans-66" x="602.042969"/>
       <use xlink:href="#DejaVuSans-66" x="637.248047"/>
       <use xlink:href="#DejaVuSans-65" x="672.453125"/>
       <use xlink:href="#DejaVuSans-63" x="733.976562"/>
       <use xlink:href="#DejaVuSans-74" x="788.957031"/>
       <use xlink:href="#DejaVuSans-20" x="828.166016"/>
       <use xlink:href="#DejaVuSans-64" x="859.953125"/>
       <use xlink:href="#DejaVuSans-69" x="923.429688"/>
       <use xlink:href="#DejaVuSans-66" x="951.212891"/>
       <use xlink:href="#DejaVuSans-66" x="986.417969"/>
       <use xlink:href="#DejaVuSans-65" x="1021.623047"/>
       <use xlink:href="#DejaVuSans-72" x="1083.146484"/>
       <use xlink:href="#DejaVuSans-65" x="1122.009766"/>
       <use xlink:href="#DejaVuSans-6e" x="1183.533203"/>
       <use xlink:href="#DejaVuSans-63" x="1246.912109"/>
       <use xlink:href="#DejaVuSans-65" x="1301.892578"/>
       <use xlink:href="#DejaVuSans-3a" x="1363.416016"/>
       <use xlink:href="#DejaVuSans-20" x="1397.107422"/>
       <use xlink:href="#DejaVuSans-41" x="1428.894531"/>
       <use xlink:href="#DejaVuSans-66" x="1493.677734"/>
       <use xlink:href="#DejaVuSans-74" x="1527.132812"/>
       <use xlink:href="#DejaVuSans-65" x="1566.341797"/>
       <use xlink:href="#DejaVuSans-72" x="1627.865234"/>
       <use xlink:href="#DejaVuSans-20" x="1668.978516"/>
       <use xlink:href="#DejaVuSans-68" x="1700.765625"/>
       <use xlink:href="#DejaVuSans-79" x="1764.144531"/>
       <use xlink:href="#DejaVuSans-70" x="1823.324219"/>
       <use xlink:href="#DejaVuSans-65" x="1886.800781"/>
       <use xlink:href="#DejaVuSans-72" x="1948.324219"/>
       <use xlink:href="#DejaVuSans-20" x="1989.4375"/>
       <use xlink:href="#DejaVuSans-2d" x="2021.224609"/>
       <use xlink:href="#DejaVuSans-20" x="2057.308594"/>
       <use xlink:href="#DejaVuSans-62" x="2089.095703"/>
       <use xlink:href="#DejaVuSans-61" x="2152.572266"/>
       <use xlink:href="#DejaVuSans-73" x="2213.851562"/>
       <use xlink:href="#DejaVuSans-65" x="2265.951172"/>
       <use xlink:href="#DejaVuSans-6c" x="2327.474609"/>
       <use xlink:href="#DejaVuSans-69" x="2355.257812"/>
       <use xlink:href="#DejaVuSans-6e" x="2383.041016"/>
       <use xlink:href="#DejaVuSans-65" x="2446.419922"/>
      </g>
     </g>
    </g>
    <g id="ytick_3">
     <g id="text_11">
      <!-- Treatment effect difference: Ablation - After hyper -->
      <g transform="translate(19.213125 127.259062) scale(0.12 -0.12)">
       <use xlink:href="#DejaVuSans-54"/>
       <use xlink:href="#DejaVuSans-72" x="46.333984"/>
       <use xlink:href="#DejaVuSans-65" x="85.197266"/>
       <use xlink:href="#DejaVuSans-61" x="146.720703"/>
       <use xlink:href="#DejaVuSans-74" x="208"/>
       <use xlink:href="#DejaVuSans-6d" x="247.208984"/>
       <use xlink:href="#DejaVuSans-65" x="344.621094"/>
       <use xlink:href="#DejaVuSans-6e" x="406.144531"/>
       <use xlink:href="#DejaVuSans-74" x="469.523438"/>
       <use xlink:href="#DejaVuSans-20" x="508.732422"/>
       <use xlink:href="#DejaVuSans-65" x="540.519531"/>
       <use xlink:href="#DejaVuSans-66" x="602.042969"/>
       <use xlink:href="#DejaVuSans-66" x="637.248047"/>
       <use xlink:href="#DejaVuSans-65" x="672.453125"/>
       <use xlink:href="#DejaVuSans-63" x="733.976562"/>
       <use xlink:href="#DejaVuSans-74" x="788.957031"/>
       <use xlink:href="#DejaVuSans-20" x="828.166016"/>
       <use xlink:href="#DejaVuSans-64" x="859.953125"/>
       <use xlink:href="#DejaVuSans-69" x="923.429688"/>
       <use xlink:href="#DejaVuSans-66" x="951.212891"/>
       <use xlink:href="#DejaVuSans-66" x="986.417969"/>
       <use xlink:href="#DejaVuSans-65" x="1021.623047"/>
       <use xlink:href="#DejaVuSans-72" x="1083.146484"/>
       <use xlink:href="#DejaVuSans-65" x="1122.009766"/>
       <use xlink:href="#DejaVuSans-6e" x="1183.533203"/>
       <use xlink:href="#DejaVuSans-63" x="1246.912109"/>
       <use xlink:href="#DejaVuSans-65" x="1301.892578"/>
       <use xlink:href="#DejaVuSans-3a" x="1363.416016"/>
       <use xlink:href="#DejaVuSans-20" x="1397.107422"/>
       <use xlink:href="#DejaVuSans-41" x="1428.894531"/>
       <use xlink:href="#DejaVuSans-62" x="1497.302734"/>
       <use xlink:href="#DejaVuSans-6c" x="1560.779297"/>
       <use xlink:href="#DejaVuSans-61" x="1588.5625"/>
       <use xlink:href="#DejaVuSans-74" x="1649.841797"/>
       <use xlink:href="#DejaVuSans-69" x="1689.050781"/>
       <use xlink:href="#DejaVuSans-6f" x="1716.833984"/>
       <use xlink:href="#DejaVuSans-6e" x="1778.015625"/>
       <use xlink:href="#DejaVuSans-20" x="1841.394531"/>
       <use xlink:href="#DejaVuSans-2d" x="1873.181641"/>
       <use xlink:href="#DejaVuSans-20" x="1909.265625"/>
       <use xlink:href="#DejaVuSans-41" x="1941.052734"/>
       <use xlink:href="#DejaVuSans-66" x="2005.835938"/>
       <use xlink:href="#DejaVuSans-74" x="2039.291016"/>
       <use xlink:href="#DejaVuSans-65" x="2078.5"/>
       <use xlink:href="#DejaVuSans-72" x="2140.023438"/>
       <use xlink:href="#DejaVuSans-20" x="2181.136719"/>
       <use xlink:href="#DejaVuSans-68" x="2212.923828"/>
       <use xlink:href="#DejaVuSans-79" x="2276.302734"/>
       <use xlink:href="#DejaVuSans-70" x="2335.482422"/>
       <use xlink:href="#DejaVuSans-65" x="2398.958984"/>
       <use xlink:href="#DejaVuSans-72" x="2460.482422"/>
      </g>
     </g>
    </g>
    <g id="ytick_4">
     <g id="text_12">
      <!-- Age effect difference: Adult - Old -->
      <g transform="translate(122.15625 57.959062) scale(0.12 -0.12)">
       <defs>
        <path id="DejaVuSans-67" d="M 2906 1791 
Q 2906 2416 2648 2759 
Q 2391 3103 1925 3103 
Q 1463 3103 1205 2759 
Q 947 2416 947 1791 
Q 947 1169 1205 825 
Q 1463 481 1925 481 
Q 2391 481 2648 825 
Q 2906 1169 2906 1791 
z
M 3481 434 
Q 3481 -459 3084 -895 
Q 2688 -1331 1869 -1331 
Q 1566 -1331 1297 -1286 
Q 1028 -1241 775 -1147 
L 775 -588 
Q 1028 -725 1275 -790 
Q 1522 -856 1778 -856 
Q 2344 -856 2625 -561 
Q 2906 -266 2906 331 
L 2906 616 
Q 2728 306 2450 153 
Q 2172 0 1784 0 
Q 1141 0 747 490 
Q 353 981 353 1791 
Q 353 2603 747 3093 
Q 1141 3584 1784 3584 
Q 2172 3584 2450 3431 
Q 2728 3278 2906 2969 
L 2906 3500 
L 3481 3500 
L 3481 434 
z
" transform="scale(0.015625)"/>
        <path id="DejaVuSans-4f" d="M 2522 4238 
Q 1834 4238 1429 3725 
Q 1025 3213 1025 2328 
Q 1025 1447 1429 934 
Q 1834 422 2522 422 
Q 3209 422 3611 934 
Q 4013 1447 4013 2328 
Q 4013 3213 3611 3725 
Q 3209 4238 2522 4238 
z
M 2522 4750 
Q 3503 4750 4090 4092 
Q 4678 3434 4678 2328 
Q 4678 1225 4090 567 
Q 3503 -91 2522 -91 
Q 1538 -91 948 565 
Q 359 1222 359 2328 
Q 359 3434 948 4092 
Q 1538 4750 2522 4750 
z
" transform="scale(0.015625)"/>
       </defs>
       <use xlink:href="#DejaVuSans-41"/>
       <use xlink:href="#DejaVuSans-67" x="68.408203"/>
       <use xlink:href="#DejaVuSans-65" x="131.884766"/>
       <use xlink:href="#DejaVuSans-20" x="193.408203"/>
       <use xlink:href="#DejaVuSans-65" x="225.195312"/>
       <use xlink:href="#DejaVuSans-66" x="286.71875"/>
       <use xlink:href="#DejaVuSans-66" x="321.923828"/>
       <use xlink:href="#DejaVuSans-65" x="357.128906"/>
       <use xlink:href="#DejaVuSans-63" x="418.652344"/>
       <use xlink:href="#DejaVuSans-74" x="473.632812"/>
       <use xlink:href="#DejaVuSans-20" x="512.841797"/>
       <use xlink:href="#DejaVuSans-64" x="544.628906"/>
       <use xlink:href="#DejaVuSans-69" x="608.105469"/>
       <use xlink:href="#DejaVuSans-66" x="635.888672"/>
       <use xlink:href="#DejaVuSans-66" x="671.09375"/>
       <use xlink:href="#DejaVuSans-65" x="706.298828"/>
       <use xlink:href="#DejaVuSans-72" x="767.822266"/>
       <use xlink:href="#DejaVuSans-65" x="806.685547"/>
       <use xlink:href="#DejaVuSans-6e" x="868.208984"/>
       <use xlink:href="#DejaVuSans-63" x="931.587891"/>
       <use xlink:href="#DejaVuSans-65" x="986.568359"/>
       <use xlink:href="#DejaVuSans-3a" x="1048.091797"/>
       <use xlink:href="#DejaVuSans-20" x="1081.783203"/>
       <use xlink:href="#DejaVuSans-41" x="1113.570312"/>
       <use xlink:href="#DejaVuSans-64" x="1180.228516"/>
       <use xlink:href="#DejaVuSans-75" x="1243.705078"/>
       <use xlink:href="#DejaVuSans-6c" x="1307.083984"/>
       <use xlink:href="#DejaVuSans-74" x="1334.867188"/>
       <use xlink:href="#DejaVuSans-20" x="1374.076172"/>
       <use xlink:href="#DejaVuSans-2d" x="1405.863281"/>
       <use xlink:href="#DejaVuSans-20" x="1441.947266"/>
       <use xlink:href="#DejaVuSans-4f" x="1473.734375"/>
       <use xlink:href="#DejaVuSans-6c" x="1552.445312"/>
       <use xlink:href="#DejaVuSans-64" x="1580.228516"/>
      </g>
     </g>
    </g>
   </g>
   <g id="LineCollection_1">
    <path d="M 346.533916 261.3 
L 579.249643 261.3 
" clip-path="url(#p8587b173c9)" style="fill: none; stroke: #66c2a5; stroke-width: 3"/>
   </g>
   <g id="LineCollection_2">
    <path d="M 431.89218 261.3 
L 516.565648 261.3 
" clip-path="url(#p8587b173c9)" style="fill: none; stroke: #66c2a5; stroke-width: 6"/>
   </g>
   <g id="line2d_8">
    <defs>
     <path id="m98f5ddfee3" d="M 0 1.928571 
C 0.511463 1.928571 1.002047 1.725365 1.363706 1.363706 
C 1.725365 1.002047 1.928571 0.511463 1.928571 0 
C 1.928571 -0.511463 1.725365 -1.002047 1.363706 -1.363706 
C 1.002047 -1.725365 0.511463 -1.928571 0 -1.928571 
C -0.511463 -1.928571 -1.002047 -1.725365 -1.363706 -1.363706 
C -1.725365 -1.002047 -1.928571 -0.511463 -1.928571 0 
C -1.928571 0.511463 -1.725365 1.002047 -1.363706 1.363706 
C -1.002047 1.725365 -0.511463 1.928571 0 1.928571 
z
" style="stroke: #66c2a5"/>
    </defs>
    <g clip-path="url(#p8587b173c9)">
     <use xlink:href="#m98f5ddfee3" x="476.874622" y="261.3" style="fill: #ffffff; stroke: #66c2a5"/>
    </g>
   </g>
   <g id="LineCollection_3">
    <path d="M 538.006885 192 
L 720.561857 192 
" clip-path="url(#p8587b173c9)" style="fill: none; stroke: #66c2a5; stroke-width: 3"/>
   </g>
   <g id="LineCollection_4">
    <path d="M 585.868202 192 
L 654.05735 192 
" clip-path="url(#p8587b173c9)" style="fill: none; stroke: #66c2a5; stroke-width: 6"/>
   </g>
   <g id="line2d_9">
    <g clip-path="url(#p8587b173c9)">
     <use xlink:href="#m98f5ddfee3" x="618.718882" y="192" style="fill: #ffffff; stroke: #66c2a5"/>
    </g>
   </g>
   <g id="LineCollection_5">
    <path d="M 542.694078 122.7 
L 695.774594 122.7 
" clip-path="url(#p8587b173c9)" style="fill: none; stroke: #66c2a5; stroke-width: 3"/>
   </g>
   <g id="LineCollection_6">
    <path d="M 589.315427 122.7 
L 645.569008 122.7 
" clip-path="url(#p8587b173c9)" style="fill: none; stroke: #66c2a5; stroke-width: 6"/>
   </g>
   <g id="line2d_10">
    <g clip-path="url(#p8587b173c9)">
     <use xlink:href="#m98f5ddfee3" x="616.482389" y="122.7" style="fill: #ffffff; stroke: #66c2a5"/>
    </g>
   </g>
   <g id="LineCollection_7">
    <path d="M 638.145702 53.4 
L 749.162232 53.4 
" clip-path="url(#p8587b173c9)" style="fill: none; stroke: #66c2a5; stroke-width: 3"/>
   </g>
   <g id="LineCollection_8">
    <path d="M 672.615236 53.4 
L 710.901965 53.4 
" clip-path="url(#p8587b173c9)" style="fill: none; stroke: #66c2a5; stroke-width: 6"/>
   </g>
   <g id="line2d_11">
    <g clip-path="url(#p8587b173c9)">
     <use xlink:href="#m98f5ddfee3" x="692.102551" y="53.4" style="fill: #ffffff; stroke: #66c2a5"/>
    </g>
   </g>
   <g id="line2d_12">
    <path d="M 549.6025 284.4 
L 549.6025 7.2 
" clip-path="url(#p8587b173c9)" style="fill: none; stroke-dasharray: 5.55,2.4; stroke-dashoffset: 0; stroke: #000000; stroke-width: 1.5"/>
   </g>
   <g id="patch_3">
    <path d="M 326.4025 284.4 
L 772.8025 284.4 
" style="fill: none; stroke: #000000; stroke-width: 0.8; stroke-linejoin: miter; stroke-linecap: square"/>
   </g>
   <g id="patch_4">
    <path d="M 326.4025 7.2 
L 772.8025 7.2 
" style="fill: none; stroke: #000000; stroke-width: 0.8; stroke-linejoin: miter; stroke-linecap: square"/>
   </g>
  </g>
 </g>
 <defs>
  <clipPath id="p8587b173c9">
   <rect x="326.4025" y="7.2" width="446.4" height="277.2"/>
  </clipPath>
 </defs>
</svg>
