<?xml version="1.0" encoding="utf-8" standalone="no"?>
<!DOCTYPE svg PUBLIC "-//W3C//DTD SVG 1.1//EN"
  "http://www.w3.org/Graphics/SVG/1.1/DTD/svg11.dtd">
<svg xmlns:xlink="http://www.w3.org/1999/xlink" width="712.410482pt" height="357.95625pt" viewBox="0 0 712.410482 357.95625" xmlns="http://www.w3.org/2000/svg" version="1.1">
 <metadata>
  <rdf:RDF xmlns:dc="http://purl.org/dc/elements/1.1/" xmlns:cc="http://creativecommons.org/ns#" xmlns:rdf="http://www.w3.org/1999/02/22-rdf-syntax-ns#">
   <cc:Work>
    <dc:type rdf:resource="http://purl.org/dc/dcmitype/StillImage"/>
    <dc:date>2024-11-15T11:50:46.982475</dc:date>
    <dc:format>image/svg+xml</dc:format>
    <dc:creator>
     <cc:Agent>
      <dc:title>Matplotlib v3.9.2, https://matplotlib.org/</dc:title>
     </cc:Agent>
    </dc:creator>
   </cc:Work>
  </rdf:RDF>
 </metadata>
 <defs>
  <style type="text/css">*{stroke-linejoin: round; stroke-linecap: butt}</style>
 </defs>
 <g id="figure_1">
  <g id="patch_1">
   <path d="M 0 357.95625 
L 712.410482 357.95625 
L 712.410482 0 
L 0 0 
z
" style="fill: #ffffff"/>
  </g>
  <g id="axes_1">
   <g id="patch_2">
    <path d="M 33.2875 320.4 
L 337.651136 320.4 
L 337.651136 43.2 
L 33.2875 43.2 
z
" style="fill: #ffffff"/>
   </g>
   <g id="patch_3">
    <path d="M 179.998789 320.4 
L 184.786416 320.4 
L 184.786416 319.210811 
L 179.998789 319.210811 
z
" clip-path="url(#p030c9a4cb1)" style="fill: #66c2a5; opacity: 0.6"/>
   </g>
   <g id="patch_4">
    <path d="M 184.786416 320.4 
L 189.574043 320.4 
L 189.574043 319.805405 
L 184.786416 319.805405 
z
" clip-path="url(#p030c9a4cb1)" style="fill: #66c2a5; opacity: 0.6"/>
   </g>
   <g id="patch_5">
    <path d="M 189.574043 320.4 
L 194.361671 320.4 
L 194.361671 313.859459 
L 189.574043 313.859459 
z
" clip-path="url(#p030c9a4cb1)" style="fill: #66c2a5; opacity: 0.6"/>
   </g>
   <g id="patch_6">
    <path d="M 194.361671 320.4 
L 199.149298 320.4 
L 199.149298 315.048649 
L 194.361671 315.048649 
z
" clip-path="url(#p030c9a4cb1)" style="fill: #66c2a5; opacity: 0.6"/>
   </g>
   <g id="patch_7">
    <path d="M 199.149298 320.4 
L 203.936925 320.4 
L 203.936925 307.913514 
L 199.149298 307.913514 
z
" clip-path="url(#p030c9a4cb1)" style="fill: #66c2a5; opacity: 0.6"/>
   </g>
   <g id="patch_8">
    <path d="M 203.936925 320.4 
L 208.724552 320.4 
L 208.724552 293.643243 
L 203.936925 293.643243 
z
" clip-path="url(#p030c9a4cb1)" style="fill: #66c2a5; opacity: 0.6"/>
   </g>
   <g id="patch_9">
    <path d="M 208.724552 320.4 
L 213.512179 320.4 
L 213.512179 273.427027 
L 208.724552 273.427027 
z
" clip-path="url(#p030c9a4cb1)" style="fill: #66c2a5; opacity: 0.6"/>
   </g>
   <g id="patch_10">
    <path d="M 213.512179 320.4 
L 218.299807 320.4 
L 218.299807 260.345946 
L 213.512179 260.345946 
z
" clip-path="url(#p030c9a4cb1)" style="fill: #66c2a5; opacity: 0.6"/>
   </g>
   <g id="patch_11">
    <path d="M 218.299807 320.4 
L 223.087434 320.4 
L 223.087434 227.643243 
L 218.299807 227.643243 
z
" clip-path="url(#p030c9a4cb1)" style="fill: #66c2a5; opacity: 0.6"/>
   </g>
   <g id="patch_12">
    <path d="M 223.087434 320.4 
L 227.875061 320.4 
L 227.875061 208.616216 
L 223.087434 208.616216 
z
" clip-path="url(#p030c9a4cb1)" style="fill: #66c2a5; opacity: 0.6"/>
   </g>
   <g id="patch_13">
    <path d="M 227.875061 320.4 
L 232.662688 320.4 
L 232.662688 175.318919 
L 227.875061 175.318919 
z
" clip-path="url(#p030c9a4cb1)" style="fill: #66c2a5; opacity: 0.6"/>
   </g>
   <g id="patch_14">
    <path d="M 232.662688 320.4 
L 237.450315 320.4 
L 237.450315 161.643243 
L 232.662688 161.643243 
z
" clip-path="url(#p030c9a4cb1)" style="fill: #66c2a5; opacity: 0.6"/>
   </g>
   <g id="patch_15">
    <path d="M 237.450315 320.4 
L 242.237943 320.4 
L 242.237943 138.454054 
L 237.450315 138.454054 
z
" clip-path="url(#p030c9a4cb1)" style="fill: #66c2a5; opacity: 0.6"/>
   </g>
   <g id="patch_16">
    <path d="M 242.237943 320.4 
L 247.02557 320.4 
L 247.02557 99.805405 
L 242.237943 99.805405 
z
" clip-path="url(#p030c9a4cb1)" style="fill: #66c2a5; opacity: 0.6"/>
   </g>
   <g id="patch_17">
    <path d="M 247.02557 320.4 
L 251.813197 320.4 
L 251.813197 114.075676 
L 247.02557 114.075676 
z
" clip-path="url(#p030c9a4cb1)" style="fill: #66c2a5; opacity: 0.6"/>
   </g>
   <g id="patch_18">
    <path d="M 251.813197 320.4 
L 256.600824 320.4 
L 256.600824 112.886486 
L 251.813197 112.886486 
z
" clip-path="url(#p030c9a4cb1)" style="fill: #66c2a5; opacity: 0.6"/>
   </g>
   <g id="patch_19">
    <path d="M 256.600824 320.4 
L 261.388451 320.4 
L 261.388451 108.12973 
L 256.600824 108.12973 
z
" clip-path="url(#p030c9a4cb1)" style="fill: #66c2a5; opacity: 0.6"/>
   </g>
   <g id="patch_20">
    <path d="M 261.388451 320.4 
L 266.176079 320.4 
L 266.176079 155.102703 
L 261.388451 155.102703 
z
" clip-path="url(#p030c9a4cb1)" style="fill: #66c2a5; opacity: 0.6"/>
   </g>
   <g id="patch_21">
    <path d="M 266.176079 320.4 
L 270.963706 320.4 
L 270.963706 179.481081 
L 266.176079 179.481081 
z
" clip-path="url(#p030c9a4cb1)" style="fill: #66c2a5; opacity: 0.6"/>
   </g>
   <g id="patch_22">
    <path d="M 270.963706 320.4 
L 275.751333 320.4 
L 275.751333 202.67027 
L 270.963706 202.67027 
z
" clip-path="url(#p030c9a4cb1)" style="fill: #66c2a5; opacity: 0.6"/>
   </g>
   <g id="patch_23">
    <path d="M 275.751333 320.4 
L 280.53896 320.4 
L 280.53896 230.021622 
L 275.751333 230.021622 
z
" clip-path="url(#p030c9a4cb1)" style="fill: #66c2a5; opacity: 0.6"/>
   </g>
   <g id="patch_24">
    <path d="M 280.53896 320.4 
L 285.326587 320.4 
L 285.326587 260.345946 
L 280.53896 260.345946 
z
" clip-path="url(#p030c9a4cb1)" style="fill: #66c2a5; opacity: 0.6"/>
   </g>
   <g id="patch_25">
    <path d="M 285.326587 320.4 
L 290.114215 320.4 
L 290.114215 283.535135 
L 285.326587 283.535135 
z
" clip-path="url(#p030c9a4cb1)" style="fill: #66c2a5; opacity: 0.6"/>
   </g>
   <g id="patch_26">
    <path d="M 290.114215 320.4 
L 294.901842 320.4 
L 294.901842 285.318919 
L 290.114215 285.318919 
z
" clip-path="url(#p030c9a4cb1)" style="fill: #66c2a5; opacity: 0.6"/>
   </g>
   <g id="patch_27">
    <path d="M 294.901842 320.4 
L 299.689469 320.4 
L 299.689469 307.913514 
L 294.901842 307.913514 
z
" clip-path="url(#p030c9a4cb1)" style="fill: #66c2a5; opacity: 0.6"/>
   </g>
   <g id="patch_28">
    <path d="M 299.689469 320.4 
L 304.477096 320.4 
L 304.477096 309.102703 
L 299.689469 309.102703 
z
" clip-path="url(#p030c9a4cb1)" style="fill: #66c2a5; opacity: 0.6"/>
   </g>
   <g id="patch_29">
    <path d="M 304.477096 320.4 
L 309.264723 320.4 
L 309.264723 314.454054 
L 304.477096 314.454054 
z
" clip-path="url(#p030c9a4cb1)" style="fill: #66c2a5; opacity: 0.6"/>
   </g>
   <g id="patch_30">
    <path d="M 309.264723 320.4 
L 314.052351 320.4 
L 314.052351 317.427027 
L 309.264723 317.427027 
z
" clip-path="url(#p030c9a4cb1)" style="fill: #66c2a5; opacity: 0.6"/>
   </g>
   <g id="patch_31">
    <path d="M 314.052351 320.4 
L 318.839978 320.4 
L 318.839978 318.021622 
L 314.052351 318.021622 
z
" clip-path="url(#p030c9a4cb1)" style="fill: #66c2a5; opacity: 0.6"/>
   </g>
   <g id="patch_32">
    <path d="M 138.322297 320.4 
L 144.718646 320.4 
L 144.718646 319.805405 
L 138.322297 319.805405 
z
" clip-path="url(#p030c9a4cb1)" style="fill: #fc8d62; opacity: 0.6"/>
   </g>
   <g id="patch_33">
    <path d="M 144.718646 320.4 
L 151.114995 320.4 
L 151.114995 319.210811 
L 144.718646 319.210811 
z
" clip-path="url(#p030c9a4cb1)" style="fill: #fc8d62; opacity: 0.6"/>
   </g>
   <g id="patch_34">
    <path d="M 151.114995 320.4 
L 157.511344 320.4 
L 157.511344 319.210811 
L 151.114995 319.210811 
z
" clip-path="url(#p030c9a4cb1)" style="fill: #fc8d62; opacity: 0.6"/>
   </g>
   <g id="patch_35">
    <path d="M 157.511344 320.4 
L 163.907694 320.4 
L 163.907694 318.021622 
L 157.511344 318.021622 
z
" clip-path="url(#p030c9a4cb1)" style="fill: #fc8d62; opacity: 0.6"/>
   </g>
   <g id="patch_36">
    <path d="M 163.907694 320.4 
L 170.304043 320.4 
L 170.304043 315.643243 
L 163.907694 315.643243 
z
" clip-path="url(#p030c9a4cb1)" style="fill: #fc8d62; opacity: 0.6"/>
   </g>
   <g id="patch_37">
    <path d="M 170.304043 320.4 
L 176.700392 320.4 
L 176.700392 307.913514 
L 170.304043 307.913514 
z
" clip-path="url(#p030c9a4cb1)" style="fill: #fc8d62; opacity: 0.6"/>
   </g>
   <g id="patch_38">
    <path d="M 176.700392 320.4 
L 183.096741 320.4 
L 183.096741 298.994595 
L 176.700392 298.994595 
z
" clip-path="url(#p030c9a4cb1)" style="fill: #fc8d62; opacity: 0.6"/>
   </g>
   <g id="patch_39">
    <path d="M 183.096741 320.4 
L 189.493091 320.4 
L 189.493091 281.751351 
L 183.096741 281.751351 
z
" clip-path="url(#p030c9a4cb1)" style="fill: #fc8d62; opacity: 0.6"/>
   </g>
   <g id="patch_40">
    <path d="M 189.493091 320.4 
L 195.88944 320.4 
L 195.88944 259.751351 
L 189.493091 259.751351 
z
" clip-path="url(#p030c9a4cb1)" style="fill: #fc8d62; opacity: 0.6"/>
   </g>
   <g id="patch_41">
    <path d="M 195.88944 320.4 
L 202.285789 320.4 
L 202.285789 231.210811 
L 195.88944 231.210811 
z
" clip-path="url(#p030c9a4cb1)" style="fill: #fc8d62; opacity: 0.6"/>
   </g>
   <g id="patch_42">
    <path d="M 202.285789 320.4 
L 208.682139 320.4 
L 208.682139 187.210811 
L 202.285789 187.210811 
z
" clip-path="url(#p030c9a4cb1)" style="fill: #fc8d62; opacity: 0.6"/>
   </g>
   <g id="patch_43">
    <path d="M 208.682139 320.4 
L 215.078488 320.4 
L 215.078488 96.832432 
L 208.682139 96.832432 
z
" clip-path="url(#p030c9a4cb1)" style="fill: #fc8d62; opacity: 0.6"/>
   </g>
   <g id="patch_44">
    <path d="M 215.078488 320.4 
L 221.474837 320.4 
L 221.474837 64.12973 
L 215.078488 64.12973 
z
" clip-path="url(#p030c9a4cb1)" style="fill: #fc8d62; opacity: 0.6"/>
   </g>
   <g id="patch_45">
    <path d="M 221.474837 320.4 
L 227.871186 320.4 
L 227.871186 58.183784 
L 221.474837 58.183784 
z
" clip-path="url(#p030c9a4cb1)" style="fill: #fc8d62; opacity: 0.6"/>
   </g>
   <g id="patch_46">
    <path d="M 227.871186 320.4 
L 234.267536 320.4 
L 234.267536 56.4 
L 227.871186 56.4 
z
" clip-path="url(#p030c9a4cb1)" style="fill: #fc8d62; opacity: 0.6"/>
   </g>
   <g id="patch_47">
    <path d="M 234.267536 320.4 
L 240.663885 320.4 
L 240.663885 95.643243 
L 234.267536 95.643243 
z
" clip-path="url(#p030c9a4cb1)" style="fill: #fc8d62; opacity: 0.6"/>
   </g>
   <g id="patch_48">
    <path d="M 240.663885 320.4 
L 247.060234 320.4 
L 247.060234 95.048649 
L 240.663885 95.048649 
z
" clip-path="url(#p030c9a4cb1)" style="fill: #fc8d62; opacity: 0.6"/>
   </g>
   <g id="patch_49">
    <path d="M 247.060234 320.4 
L 253.456584 320.4 
L 253.456584 155.102703 
L 247.060234 155.102703 
z
" clip-path="url(#p030c9a4cb1)" style="fill: #fc8d62; opacity: 0.6"/>
   </g>
   <g id="patch_50">
    <path d="M 253.456584 320.4 
L 259.852933 320.4 
L 259.852933 203.859459 
L 253.456584 203.859459 
z
" clip-path="url(#p030c9a4cb1)" style="fill: #fc8d62; opacity: 0.6"/>
   </g>
   <g id="patch_51">
    <path d="M 259.852933 320.4 
L 266.249282 320.4 
L 266.249282 212.183784 
L 259.852933 212.183784 
z
" clip-path="url(#p030c9a4cb1)" style="fill: #fc8d62; opacity: 0.6"/>
   </g>
   <g id="patch_52">
    <path d="M 266.249282 320.4 
L 272.645631 320.4 
L 272.645631 256.778378 
L 266.249282 256.778378 
z
" clip-path="url(#p030c9a4cb1)" style="fill: #fc8d62; opacity: 0.6"/>
   </g>
   <g id="patch_53">
    <path d="M 272.645631 320.4 
L 279.041981 320.4 
L 279.041981 280.562162 
L 272.645631 280.562162 
z
" clip-path="url(#p030c9a4cb1)" style="fill: #fc8d62; opacity: 0.6"/>
   </g>
   <g id="patch_54">
    <path d="M 279.041981 320.4 
L 285.43833 320.4 
L 285.43833 294.832432 
L 279.041981 294.832432 
z
" clip-path="url(#p030c9a4cb1)" style="fill: #fc8d62; opacity: 0.6"/>
   </g>
   <g id="patch_55">
    <path d="M 285.43833 320.4 
L 291.834679 320.4 
L 291.834679 302.562162 
L 285.43833 302.562162 
z
" clip-path="url(#p030c9a4cb1)" style="fill: #fc8d62; opacity: 0.6"/>
   </g>
   <g id="patch_56">
    <path d="M 291.834679 320.4 
L 298.231029 320.4 
L 298.231029 310.886486 
L 291.834679 310.886486 
z
" clip-path="url(#p030c9a4cb1)" style="fill: #fc8d62; opacity: 0.6"/>
   </g>
   <g id="patch_57">
    <path d="M 298.231029 320.4 
L 304.627378 320.4 
L 304.627378 315.048649 
L 298.231029 315.048649 
z
" clip-path="url(#p030c9a4cb1)" style="fill: #fc8d62; opacity: 0.6"/>
   </g>
   <g id="patch_58">
    <path d="M 304.627378 320.4 
L 311.023727 320.4 
L 311.023727 319.210811 
L 304.627378 319.210811 
z
" clip-path="url(#p030c9a4cb1)" style="fill: #fc8d62; opacity: 0.6"/>
   </g>
   <g id="patch_59">
    <path d="M 311.023727 320.4 
L 317.420076 320.4 
L 317.420076 319.210811 
L 311.023727 319.210811 
z
" clip-path="url(#p030c9a4cb1)" style="fill: #fc8d62; opacity: 0.6"/>
   </g>
   <g id="patch_60">
    <path d="M 317.420076 320.4 
L 323.816426 320.4 
L 323.816426 318.021622 
L 317.420076 318.021622 
z
" clip-path="url(#p030c9a4cb1)" style="fill: #fc8d62; opacity: 0.6"/>
   </g>
   <g id="patch_61">
    <path d="M 81.430757 320.4 
L 88.342597 320.4 
L 88.342597 319.210811 
L 81.430757 319.210811 
z
" clip-path="url(#p030c9a4cb1)" style="fill: #8da0cb; opacity: 0.6"/>
   </g>
   <g id="patch_62">
    <path d="M 88.342597 320.4 
L 95.254437 320.4 
L 95.254437 320.4 
L 88.342597 320.4 
z
" clip-path="url(#p030c9a4cb1)" style="fill: #8da0cb; opacity: 0.6"/>
   </g>
   <g id="patch_63">
    <path d="M 95.254437 320.4 
L 102.166276 320.4 
L 102.166276 316.832432 
L 95.254437 316.832432 
z
" clip-path="url(#p030c9a4cb1)" style="fill: #8da0cb; opacity: 0.6"/>
   </g>
   <g id="patch_64">
    <path d="M 102.166276 320.4 
L 109.078116 320.4 
L 109.078116 312.075676 
L 102.166276 312.075676 
z
" clip-path="url(#p030c9a4cb1)" style="fill: #8da0cb; opacity: 0.6"/>
   </g>
   <g id="patch_65">
    <path d="M 109.078116 320.4 
L 115.989955 320.4 
L 115.989955 309.697297 
L 109.078116 309.697297 
z
" clip-path="url(#p030c9a4cb1)" style="fill: #8da0cb; opacity: 0.6"/>
   </g>
   <g id="patch_66">
    <path d="M 115.989955 320.4 
L 122.901795 320.4 
L 122.901795 304.940541 
L 115.989955 304.940541 
z
" clip-path="url(#p030c9a4cb1)" style="fill: #8da0cb; opacity: 0.6"/>
   </g>
   <g id="patch_67">
    <path d="M 122.901795 320.4 
L 129.813635 320.4 
L 129.813635 285.913514 
L 122.901795 285.913514 
z
" clip-path="url(#p030c9a4cb1)" style="fill: #8da0cb; opacity: 0.6"/>
   </g>
   <g id="patch_68">
    <path d="M 129.813635 320.4 
L 136.725474 320.4 
L 136.725474 287.697297 
L 129.813635 287.697297 
z
" clip-path="url(#p030c9a4cb1)" style="fill: #8da0cb; opacity: 0.6"/>
   </g>
   <g id="patch_69">
    <path d="M 136.725474 320.4 
L 143.637314 320.4 
L 143.637314 272.832432 
L 136.725474 272.832432 
z
" clip-path="url(#p030c9a4cb1)" style="fill: #8da0cb; opacity: 0.6"/>
   </g>
   <g id="patch_70">
    <path d="M 143.637314 320.4 
L 150.549153 320.4 
L 150.549153 244.886486 
L 143.637314 244.886486 
z
" clip-path="url(#p030c9a4cb1)" style="fill: #8da0cb; opacity: 0.6"/>
   </g>
   <g id="patch_71">
    <path d="M 150.549153 320.4 
L 157.460993 320.4 
L 157.460993 226.454054 
L 150.549153 226.454054 
z
" clip-path="url(#p030c9a4cb1)" style="fill: #8da0cb; opacity: 0.6"/>
   </g>
   <g id="patch_72">
    <path d="M 157.460993 320.4 
L 164.372833 320.4 
L 164.372833 197.318919 
L 157.460993 197.318919 
z
" clip-path="url(#p030c9a4cb1)" style="fill: #8da0cb; opacity: 0.6"/>
   </g>
   <g id="patch_73">
    <path d="M 164.372833 320.4 
L 171.284672 320.4 
L 171.284672 183.048649 
L 164.372833 183.048649 
z
" clip-path="url(#p030c9a4cb1)" style="fill: #8da0cb; opacity: 0.6"/>
   </g>
   <g id="patch_74">
    <path d="M 171.284672 320.4 
L 178.196512 320.4 
L 178.196512 146.778378 
L 171.284672 146.778378 
z
" clip-path="url(#p030c9a4cb1)" style="fill: #8da0cb; opacity: 0.6"/>
   </g>
   <g id="patch_75">
    <path d="M 178.196512 320.4 
L 185.108351 320.4 
L 185.108351 121.210811 
L 178.196512 121.210811 
z
" clip-path="url(#p030c9a4cb1)" style="fill: #8da0cb; opacity: 0.6"/>
   </g>
   <g id="patch_76">
    <path d="M 185.108351 320.4 
L 192.020191 320.4 
L 192.020191 113.481081 
L 185.108351 113.481081 
z
" clip-path="url(#p030c9a4cb1)" style="fill: #8da0cb; opacity: 0.6"/>
   </g>
   <g id="patch_77">
    <path d="M 192.020191 320.4 
L 198.93203 320.4 
L 198.93203 81.372973 
L 192.020191 81.372973 
z
" clip-path="url(#p030c9a4cb1)" style="fill: #8da0cb; opacity: 0.6"/>
   </g>
   <g id="patch_78">
    <path d="M 198.93203 320.4 
L 205.84387 320.4 
L 205.84387 99.805405 
L 198.93203 99.805405 
z
" clip-path="url(#p030c9a4cb1)" style="fill: #8da0cb; opacity: 0.6"/>
   </g>
   <g id="patch_79">
    <path d="M 205.84387 320.4 
L 212.75571 320.4 
L 212.75571 92.67027 
L 205.84387 92.67027 
z
" clip-path="url(#p030c9a4cb1)" style="fill: #8da0cb; opacity: 0.6"/>
   </g>
   <g id="patch_80">
    <path d="M 212.75571 320.4 
L 219.667549 320.4 
L 219.667549 120.616216 
L 212.75571 120.616216 
z
" clip-path="url(#p030c9a4cb1)" style="fill: #8da0cb; opacity: 0.6"/>
   </g>
   <g id="patch_81">
    <path d="M 219.667549 320.4 
L 226.579389 320.4 
L 226.579389 184.832432 
L 219.667549 184.832432 
z
" clip-path="url(#p030c9a4cb1)" style="fill: #8da0cb; opacity: 0.6"/>
   </g>
   <g id="patch_82">
    <path d="M 226.579389 320.4 
L 233.491228 320.4 
L 233.491228 237.156757 
L 226.579389 237.156757 
z
" clip-path="url(#p030c9a4cb1)" style="fill: #8da0cb; opacity: 0.6"/>
   </g>
   <g id="patch_83">
    <path d="M 233.491228 320.4 
L 240.403068 320.4 
L 240.403068 266.886486 
L 233.491228 266.886486 
z
" clip-path="url(#p030c9a4cb1)" style="fill: #8da0cb; opacity: 0.6"/>
   </g>
   <g id="patch_84">
    <path d="M 240.403068 320.4 
L 247.314908 320.4 
L 247.314908 294.832432 
L 240.403068 294.832432 
z
" clip-path="url(#p030c9a4cb1)" style="fill: #8da0cb; opacity: 0.6"/>
   </g>
   <g id="patch_85">
    <path d="M 247.314908 320.4 
L 254.226747 320.4 
L 254.226747 306.12973 
L 247.314908 306.12973 
z
" clip-path="url(#p030c9a4cb1)" style="fill: #8da0cb; opacity: 0.6"/>
   </g>
   <g id="patch_86">
    <path d="M 254.226747 320.4 
L 261.138587 320.4 
L 261.138587 313.264865 
L 254.226747 313.264865 
z
" clip-path="url(#p030c9a4cb1)" style="fill: #8da0cb; opacity: 0.6"/>
   </g>
   <g id="patch_87">
    <path d="M 261.138587 320.4 
L 268.050426 320.4 
L 268.050426 313.859459 
L 261.138587 313.859459 
z
" clip-path="url(#p030c9a4cb1)" style="fill: #8da0cb; opacity: 0.6"/>
   </g>
   <g id="patch_88">
    <path d="M 268.050426 320.4 
L 274.962266 320.4 
L 274.962266 319.805405 
L 268.050426 319.805405 
z
" clip-path="url(#p030c9a4cb1)" style="fill: #8da0cb; opacity: 0.6"/>
   </g>
   <g id="patch_89">
    <path d="M 274.962266 320.4 
L 281.874105 320.4 
L 281.874105 319.210811 
L 274.962266 319.210811 
z
" clip-path="url(#p030c9a4cb1)" style="fill: #8da0cb; opacity: 0.6"/>
   </g>
   <g id="matplotlib.axis_1">
    <g id="xtick_1">
     <g id="line2d_1">
      <defs>
       <path id="m7329e87adb" d="M 0 0 
L 0 3.5 
" style="stroke: #000000; stroke-width: 0.8"/>
      </defs>
      <g>
       <use xlink:href="#m7329e87adb" x="54.871358" y="320.4" style="stroke: #000000; stroke-width: 0.8"/>
      </g>
     </g>
     <g id="text_1">
      <!-- −0.4 -->
      <g transform="translate(42.729952 334.998437) scale(0.1 -0.1)">
       <defs>
        <path id="DejaVuSans-2212" d="M 678 2272 
L 4684 2272 
L 4684 1741 
L 678 1741 
L 678 2272 
z
" transform="scale(0.015625)"/>
        <path id="DejaVuSans-30" d="M 2034 4250 
Q 1547 4250 1301 3770 
Q 1056 3291 1056 2328 
Q 1056 1369 1301 889 
Q 1547 409 2034 409 
Q 2525 409 2770 889 
Q 3016 1369 3016 2328 
Q 3016 3291 2770 3770 
Q 2525 4250 2034 4250 
z
M 2034 4750 
Q 2819 4750 3233 4129 
Q 3647 3509 3647 2328 
Q 3647 1150 3233 529 
Q 2819 -91 2034 -91 
Q 1250 -91 836 529 
Q 422 1150 422 2328 
Q 422 3509 836 4129 
Q 1250 4750 2034 4750 
z
" transform="scale(0.015625)"/>
        <path id="DejaVuSans-2e" d="M 684 794 
L 1344 794 
L 1344 0 
L 684 0 
L 684 794 
z
" transform="scale(0.015625)"/>
        <path id="DejaVuSans-34" d="M 2419 4116 
L 825 1625 
L 2419 1625 
L 2419 4116 
z
M 2253 4666 
L 3047 4666 
L 3047 1625 
L 3713 1625 
L 3713 1100 
L 3047 1100 
L 3047 0 
L 2419 0 
L 2419 1100 
L 313 1100 
L 313 1709 
L 2253 4666 
z
" transform="scale(0.015625)"/>
       </defs>
       <use xlink:href="#DejaVuSans-2212"/>
       <use xlink:href="#DejaVuSans-30" x="83.789062"/>
       <use xlink:href="#DejaVuSans-2e" x="147.412109"/>
       <use xlink:href="#DejaVuSans-34" x="179.199219"/>
      </g>
     </g>
    </g>
    <g id="xtick_2">
     <g id="line2d_2">
      <g>
       <use xlink:href="#m7329e87adb" x="94.464386" y="320.4" style="stroke: #000000; stroke-width: 0.8"/>
      </g>
     </g>
     <g id="text_2">
      <!-- −0.3 -->
      <g transform="translate(82.32298 334.998437) scale(0.1 -0.1)">
       <defs>
        <path id="DejaVuSans-33" d="M 2597 2516 
Q 3050 2419 3304 2112 
Q 3559 1806 3559 1356 
Q 3559 666 3084 287 
Q 2609 -91 1734 -91 
Q 1441 -91 1130 -33 
Q 819 25 488 141 
L 488 750 
Q 750 597 1062 519 
Q 1375 441 1716 441 
Q 2309 441 2620 675 
Q 2931 909 2931 1356 
Q 2931 1769 2642 2001 
Q 2353 2234 1838 2234 
L 1294 2234 
L 1294 2753 
L 1863 2753 
Q 2328 2753 2575 2939 
Q 2822 3125 2822 3475 
Q 2822 3834 2567 4026 
Q 2313 4219 1838 4219 
Q 1578 4219 1281 4162 
Q 984 4106 628 3988 
L 628 4550 
Q 988 4650 1302 4700 
Q 1616 4750 1894 4750 
Q 2613 4750 3031 4423 
Q 3450 4097 3450 3541 
Q 3450 3153 3228 2886 
Q 3006 2619 2597 2516 
z
" transform="scale(0.015625)"/>
       </defs>
       <use xlink:href="#DejaVuSans-2212"/>
       <use xlink:href="#DejaVuSans-30" x="83.789062"/>
       <use xlink:href="#DejaVuSans-2e" x="147.412109"/>
       <use xlink:href="#DejaVuSans-33" x="179.199219"/>
      </g>
     </g>
    </g>
    <g id="xtick_3">
     <g id="line2d_3">
      <g>
       <use xlink:href="#m7329e87adb" x="134.057415" y="320.4" style="stroke: #000000; stroke-width: 0.8"/>
      </g>
     </g>
     <g id="text_3">
      <!-- −0.2 -->
      <g transform="translate(121.916008 334.998437) scale(0.1 -0.1)">
       <defs>
        <path id="DejaVuSans-32" d="M 1228 531 
L 3431 531 
L 3431 0 
L 469 0 
L 469 531 
Q 828 903 1448 1529 
Q 2069 2156 2228 2338 
Q 2531 2678 2651 2914 
Q 2772 3150 2772 3378 
Q 2772 3750 2511 3984 
Q 2250 4219 1831 4219 
Q 1534 4219 1204 4116 
Q 875 4013 500 3803 
L 500 4441 
Q 881 4594 1212 4672 
Q 1544 4750 1819 4750 
Q 2544 4750 2975 4387 
Q 3406 4025 3406 3419 
Q 3406 3131 3298 2873 
Q 3191 2616 2906 2266 
Q 2828 2175 2409 1742 
Q 1991 1309 1228 531 
z
" transform="scale(0.015625)"/>
       </defs>
       <use xlink:href="#DejaVuSans-2212"/>
       <use xlink:href="#DejaVuSans-30" x="83.789062"/>
       <use xlink:href="#DejaVuSans-2e" x="147.412109"/>
       <use xlink:href="#DejaVuSans-32" x="179.199219"/>
      </g>
     </g>
    </g>
    <g id="xtick_4">
     <g id="line2d_4">
      <g>
       <use xlink:href="#m7329e87adb" x="173.650443" y="320.4" style="stroke: #000000; stroke-width: 0.8"/>
      </g>
     </g>
     <g id="text_4">
      <!-- −0.1 -->
      <g transform="translate(161.509037 334.998437) scale(0.1 -0.1)">
       <defs>
        <path id="DejaVuSans-31" d="M 794 531 
L 1825 531 
L 1825 4091 
L 703 3866 
L 703 4441 
L 1819 4666 
L 2450 4666 
L 2450 531 
L 3481 531 
L 3481 0 
L 794 0 
L 794 531 
z
" transform="scale(0.015625)"/>
       </defs>
       <use xlink:href="#DejaVuSans-2212"/>
       <use xlink:href="#DejaVuSans-30" x="83.789062"/>
       <use xlink:href="#DejaVuSans-2e" x="147.412109"/>
       <use xlink:href="#DejaVuSans-31" x="179.199219"/>
      </g>
     </g>
    </g>
    <g id="xtick_5">
     <g id="line2d_5">
      <g>
       <use xlink:href="#m7329e87adb" x="213.243471" y="320.4" style="stroke: #000000; stroke-width: 0.8"/>
      </g>
     </g>
     <g id="text_5">
      <!-- 0.0 -->
      <g transform="translate(205.291909 334.998437) scale(0.1 -0.1)">
       <use xlink:href="#DejaVuSans-30"/>
       <use xlink:href="#DejaVuSans-2e" x="63.623047"/>
       <use xlink:href="#DejaVuSans-30" x="95.410156"/>
      </g>
     </g>
    </g>
    <g id="xtick_6">
     <g id="line2d_6">
      <g>
       <use xlink:href="#m7329e87adb" x="252.836499" y="320.4" style="stroke: #000000; stroke-width: 0.8"/>
      </g>
     </g>
     <g id="text_6">
      <!-- 0.1 -->
      <g transform="translate(244.884937 334.998437) scale(0.1 -0.1)">
       <use xlink:href="#DejaVuSans-30"/>
       <use xlink:href="#DejaVuSans-2e" x="63.623047"/>
       <use xlink:href="#DejaVuSans-31" x="95.410156"/>
      </g>
     </g>
    </g>
    <g id="xtick_7">
     <g id="line2d_7">
      <g>
       <use xlink:href="#m7329e87adb" x="292.429528" y="320.4" style="stroke: #000000; stroke-width: 0.8"/>
      </g>
     </g>
     <g id="text_7">
      <!-- 0.2 -->
      <g transform="translate(284.477965 334.998437) scale(0.1 -0.1)">
       <use xlink:href="#DejaVuSans-30"/>
       <use xlink:href="#DejaVuSans-2e" x="63.623047"/>
       <use xlink:href="#DejaVuSans-32" x="95.410156"/>
      </g>
     </g>
    </g>
    <g id="xtick_8">
     <g id="line2d_8">
      <g>
       <use xlink:href="#m7329e87adb" x="332.022556" y="320.4" style="stroke: #000000; stroke-width: 0.8"/>
      </g>
     </g>
     <g id="text_8">
      <!-- 0.3 -->
      <g transform="translate(324.070993 334.998437) scale(0.1 -0.1)">
       <use xlink:href="#DejaVuSans-30"/>
       <use xlink:href="#DejaVuSans-2e" x="63.623047"/>
       <use xlink:href="#DejaVuSans-33" x="95.410156"/>
      </g>
     </g>
    </g>
    <g id="text_9">
     <!-- Difference (treatment minus baseline, arbitrary units) -->
     <g transform="translate(50.890412 348.676562) scale(0.1 -0.1)">
      <defs>
       <path id="DejaVuSans-44" d="M 1259 4147 
L 1259 519 
L 2022 519 
Q 2988 519 3436 956 
Q 3884 1394 3884 2338 
Q 3884 3275 3436 3711 
Q 2988 4147 2022 4147 
L 1259 4147 
z
M 628 4666 
L 1925 4666 
Q 3281 4666 3915 4102 
Q 4550 3538 4550 2338 
Q 4550 1131 3912 565 
Q 3275 0 1925 0 
L 628 0 
L 628 4666 
z
" transform="scale(0.015625)"/>
       <path id="DejaVuSans-69" d="M 603 3500 
L 1178 3500 
L 1178 0 
L 603 0 
L 603 3500 
z
M 603 4863 
L 1178 4863 
L 1178 4134 
L 603 4134 
L 603 4863 
z
" transform="scale(0.015625)"/>
       <path id="DejaVuSans-66" d="M 2375 4863 
L 2375 4384 
L 1825 4384 
Q 1516 4384 1395 4259 
Q 1275 4134 1275 3809 
L 1275 3500 
L 2222 3500 
L 2222 3053 
L 1275 3053 
L 1275 0 
L 697 0 
L 697 3053 
L 147 3053 
L 147 3500 
L 697 3500 
L 697 3744 
Q 697 4328 969 4595 
Q 1241 4863 1831 4863 
L 2375 4863 
z
" transform="scale(0.015625)"/>
       <path id="DejaVuSans-65" d="M 3597 1894 
L 3597 1613 
L 953 1613 
Q 991 1019 1311 708 
Q 1631 397 2203 397 
Q 2534 397 2845 478 
Q 3156 559 3463 722 
L 3463 178 
Q 3153 47 2828 -22 
Q 2503 -91 2169 -91 
Q 1331 -91 842 396 
Q 353 884 353 1716 
Q 353 2575 817 3079 
Q 1281 3584 2069 3584 
Q 2775 3584 3186 3129 
Q 3597 2675 3597 1894 
z
M 3022 2063 
Q 3016 2534 2758 2815 
Q 2500 3097 2075 3097 
Q 1594 3097 1305 2825 
Q 1016 2553 972 2059 
L 3022 2063 
z
" transform="scale(0.015625)"/>
       <path id="DejaVuSans-72" d="M 2631 2963 
Q 2534 3019 2420 3045 
Q 2306 3072 2169 3072 
Q 1681 3072 1420 2755 
Q 1159 2438 1159 1844 
L 1159 0 
L 581 0 
L 581 3500 
L 1159 3500 
L 1159 2956 
Q 1341 3275 1631 3429 
Q 1922 3584 2338 3584 
Q 2397 3584 2469 3576 
Q 2541 3569 2628 3553 
L 2631 2963 
z
" transform="scale(0.015625)"/>
       <path id="DejaVuSans-6e" d="M 3513 2113 
L 3513 0 
L 2938 0 
L 2938 2094 
Q 2938 2591 2744 2837 
Q 2550 3084 2163 3084 
Q 1697 3084 1428 2787 
Q 1159 2491 1159 1978 
L 1159 0 
L 581 0 
L 581 3500 
L 1159 3500 
L 1159 2956 
Q 1366 3272 1645 3428 
Q 1925 3584 2291 3584 
Q 2894 3584 3203 3211 
Q 3513 2838 3513 2113 
z
" transform="scale(0.015625)"/>
       <path id="DejaVuSans-63" d="M 3122 3366 
L 3122 2828 
Q 2878 2963 2633 3030 
Q 2388 3097 2138 3097 
Q 1578 3097 1268 2742 
Q 959 2388 959 1747 
Q 959 1106 1268 751 
Q 1578 397 2138 397 
Q 2388 397 2633 464 
Q 2878 531 3122 666 
L 3122 134 
Q 2881 22 2623 -34 
Q 2366 -91 2075 -91 
Q 1284 -91 818 406 
Q 353 903 353 1747 
Q 353 2603 823 3093 
Q 1294 3584 2113 3584 
Q 2378 3584 2631 3529 
Q 2884 3475 3122 3366 
z
" transform="scale(0.015625)"/>
       <path id="DejaVuSans-20" transform="scale(0.015625)"/>
       <path id="DejaVuSans-28" d="M 1984 4856 
Q 1566 4138 1362 3434 
Q 1159 2731 1159 2009 
Q 1159 1288 1364 580 
Q 1569 -128 1984 -844 
L 1484 -844 
Q 1016 -109 783 600 
Q 550 1309 550 2009 
Q 550 2706 781 3412 
Q 1013 4119 1484 4856 
L 1984 4856 
z
" transform="scale(0.015625)"/>
       <path id="DejaVuSans-74" d="M 1172 4494 
L 1172 3500 
L 2356 3500 
L 2356 3053 
L 1172 3053 
L 1172 1153 
Q 1172 725 1289 603 
Q 1406 481 1766 481 
L 2356 481 
L 2356 0 
L 1766 0 
Q 1100 0 847 248 
Q 594 497 594 1153 
L 594 3053 
L 172 3053 
L 172 3500 
L 594 3500 
L 594 4494 
L 1172 4494 
z
" transform="scale(0.015625)"/>
       <path id="DejaVuSans-61" d="M 2194 1759 
Q 1497 1759 1228 1600 
Q 959 1441 959 1056 
Q 959 750 1161 570 
Q 1363 391 1709 391 
Q 2188 391 2477 730 
Q 2766 1069 2766 1631 
L 2766 1759 
L 2194 1759 
z
M 3341 1997 
L 3341 0 
L 2766 0 
L 2766 531 
Q 2569 213 2275 61 
Q 1981 -91 1556 -91 
Q 1019 -91 701 211 
Q 384 513 384 1019 
Q 384 1609 779 1909 
Q 1175 2209 1959 2209 
L 2766 2209 
L 2766 2266 
Q 2766 2663 2505 2880 
Q 2244 3097 1772 3097 
Q 1472 3097 1187 3025 
Q 903 2953 641 2809 
L 641 3341 
Q 956 3463 1253 3523 
Q 1550 3584 1831 3584 
Q 2591 3584 2966 3190 
Q 3341 2797 3341 1997 
z
" transform="scale(0.015625)"/>
       <path id="DejaVuSans-6d" d="M 3328 2828 
Q 3544 3216 3844 3400 
Q 4144 3584 4550 3584 
Q 5097 3584 5394 3201 
Q 5691 2819 5691 2113 
L 5691 0 
L 5113 0 
L 5113 2094 
Q 5113 2597 4934 2840 
Q 4756 3084 4391 3084 
Q 3944 3084 3684 2787 
Q 3425 2491 3425 1978 
L 3425 0 
L 2847 0 
L 2847 2094 
Q 2847 2600 2669 2842 
Q 2491 3084 2119 3084 
Q 1678 3084 1418 2786 
Q 1159 2488 1159 1978 
L 1159 0 
L 581 0 
L 581 3500 
L 1159 3500 
L 1159 2956 
Q 1356 3278 1631 3431 
Q 1906 3584 2284 3584 
Q 2666 3584 2933 3390 
Q 3200 3197 3328 2828 
z
" transform="scale(0.015625)"/>
       <path id="DejaVuSans-75" d="M 544 1381 
L 544 3500 
L 1119 3500 
L 1119 1403 
Q 1119 906 1312 657 
Q 1506 409 1894 409 
Q 2359 409 2629 706 
Q 2900 1003 2900 1516 
L 2900 3500 
L 3475 3500 
L 3475 0 
L 2900 0 
L 2900 538 
Q 2691 219 2414 64 
Q 2138 -91 1772 -91 
Q 1169 -91 856 284 
Q 544 659 544 1381 
z
M 1991 3584 
L 1991 3584 
z
" transform="scale(0.015625)"/>
       <path id="DejaVuSans-73" d="M 2834 3397 
L 2834 2853 
Q 2591 2978 2328 3040 
Q 2066 3103 1784 3103 
Q 1356 3103 1142 2972 
Q 928 2841 928 2578 
Q 928 2378 1081 2264 
Q 1234 2150 1697 2047 
L 1894 2003 
Q 2506 1872 2764 1633 
Q 3022 1394 3022 966 
Q 3022 478 2636 193 
Q 2250 -91 1575 -91 
Q 1294 -91 989 -36 
Q 684 19 347 128 
L 347 722 
Q 666 556 975 473 
Q 1284 391 1588 391 
Q 1994 391 2212 530 
Q 2431 669 2431 922 
Q 2431 1156 2273 1281 
Q 2116 1406 1581 1522 
L 1381 1569 
Q 847 1681 609 1914 
Q 372 2147 372 2553 
Q 372 3047 722 3315 
Q 1072 3584 1716 3584 
Q 2034 3584 2315 3537 
Q 2597 3491 2834 3397 
z
" transform="scale(0.015625)"/>
       <path id="DejaVuSans-62" d="M 3116 1747 
Q 3116 2381 2855 2742 
Q 2594 3103 2138 3103 
Q 1681 3103 1420 2742 
Q 1159 2381 1159 1747 
Q 1159 1113 1420 752 
Q 1681 391 2138 391 
Q 2594 391 2855 752 
Q 3116 1113 3116 1747 
z
M 1159 2969 
Q 1341 3281 1617 3432 
Q 1894 3584 2278 3584 
Q 2916 3584 3314 3078 
Q 3713 2572 3713 1747 
Q 3713 922 3314 415 
Q 2916 -91 2278 -91 
Q 1894 -91 1617 61 
Q 1341 213 1159 525 
L 1159 0 
L 581 0 
L 581 4863 
L 1159 4863 
L 1159 2969 
z
" transform="scale(0.015625)"/>
       <path id="DejaVuSans-6c" d="M 603 4863 
L 1178 4863 
L 1178 0 
L 603 0 
L 603 4863 
z
" transform="scale(0.015625)"/>
       <path id="DejaVuSans-2c" d="M 750 794 
L 1409 794 
L 1409 256 
L 897 -744 
L 494 -744 
L 750 256 
L 750 794 
z
" transform="scale(0.015625)"/>
       <path id="DejaVuSans-79" d="M 2059 -325 
Q 1816 -950 1584 -1140 
Q 1353 -1331 966 -1331 
L 506 -1331 
L 506 -850 
L 844 -850 
Q 1081 -850 1212 -737 
Q 1344 -625 1503 -206 
L 1606 56 
L 191 3500 
L 800 3500 
L 1894 763 
L 2988 3500 
L 3597 3500 
L 2059 -325 
z
" transform="scale(0.015625)"/>
       <path id="DejaVuSans-29" d="M 513 4856 
L 1013 4856 
Q 1481 4119 1714 3412 
Q 1947 2706 1947 2009 
Q 1947 1309 1714 600 
Q 1481 -109 1013 -844 
L 513 -844 
Q 928 -128 1133 580 
Q 1338 1288 1338 2009 
Q 1338 2731 1133 3434 
Q 928 4138 513 4856 
z
" transform="scale(0.015625)"/>
      </defs>
      <use xlink:href="#DejaVuSans-44"/>
      <use xlink:href="#DejaVuSans-69" x="77.001953"/>
      <use xlink:href="#DejaVuSans-66" x="104.785156"/>
      <use xlink:href="#DejaVuSans-66" x="139.990234"/>
      <use xlink:href="#DejaVuSans-65" x="175.195312"/>
      <use xlink:href="#DejaVuSans-72" x="236.71875"/>
      <use xlink:href="#DejaVuSans-65" x="275.582031"/>
      <use xlink:href="#DejaVuSans-6e" x="337.105469"/>
      <use xlink:href="#DejaVuSans-63" x="400.484375"/>
      <use xlink:href="#DejaVuSans-65" x="455.464844"/>
      <use xlink:href="#DejaVuSans-20" x="516.988281"/>
      <use xlink:href="#DejaVuSans-28" x="548.775391"/>
      <use xlink:href="#DejaVuSans-74" x="587.789062"/>
      <use xlink:href="#DejaVuSans-72" x="626.998047"/>
      <use xlink:href="#DejaVuSans-65" x="665.861328"/>
      <use xlink:href="#DejaVuSans-61" x="727.384766"/>
      <use xlink:href="#DejaVuSans-74" x="788.664062"/>
      <use xlink:href="#DejaVuSans-6d" x="827.873047"/>
      <use xlink:href="#DejaVuSans-65" x="925.285156"/>
      <use xlink:href="#DejaVuSans-6e" x="986.808594"/>
      <use xlink:href="#DejaVuSans-74" x="1050.1875"/>
      <use xlink:href="#DejaVuSans-20" x="1089.396484"/>
      <use xlink:href="#DejaVuSans-6d" x="1121.183594"/>
      <use xlink:href="#DejaVuSans-69" x="1218.595703"/>
      <use xlink:href="#DejaVuSans-6e" x="1246.378906"/>
      <use xlink:href="#DejaVuSans-75" x="1309.757812"/>
      <use xlink:href="#DejaVuSans-73" x="1373.136719"/>
      <use xlink:href="#DejaVuSans-20" x="1425.236328"/>
      <use xlink:href="#DejaVuSans-62" x="1457.023438"/>
      <use xlink:href="#DejaVuSans-61" x="1520.5"/>
      <use xlink:href="#DejaVuSans-73" x="1581.779297"/>
      <use xlink:href="#DejaVuSans-65" x="1633.878906"/>
      <use xlink:href="#DejaVuSans-6c" x="1695.402344"/>
      <use xlink:href="#DejaVuSans-69" x="1723.185547"/>
      <use xlink:href="#DejaVuSans-6e" x="1750.96875"/>
      <use xlink:href="#DejaVuSans-65" x="1814.347656"/>
      <use xlink:href="#DejaVuSans-2c" x="1875.871094"/>
      <use xlink:href="#DejaVuSans-20" x="1907.658203"/>
      <use xlink:href="#DejaVuSans-61" x="1939.445312"/>
      <use xlink:href="#DejaVuSans-72" x="2000.724609"/>
      <use xlink:href="#DejaVuSans-62" x="2041.837891"/>
      <use xlink:href="#DejaVuSans-69" x="2105.314453"/>
      <use xlink:href="#DejaVuSans-74" x="2133.097656"/>
      <use xlink:href="#DejaVuSans-72" x="2172.306641"/>
      <use xlink:href="#DejaVuSans-61" x="2213.419922"/>
      <use xlink:href="#DejaVuSans-72" x="2274.699219"/>
      <use xlink:href="#DejaVuSans-79" x="2315.8125"/>
      <use xlink:href="#DejaVuSans-20" x="2374.992188"/>
      <use xlink:href="#DejaVuSans-75" x="2406.779297"/>
      <use xlink:href="#DejaVuSans-6e" x="2470.158203"/>
      <use xlink:href="#DejaVuSans-69" x="2533.537109"/>
      <use xlink:href="#DejaVuSans-74" x="2561.320312"/>
      <use xlink:href="#DejaVuSans-73" x="2600.529297"/>
      <use xlink:href="#DejaVuSans-29" x="2652.628906"/>
     </g>
    </g>
   </g>
   <g id="matplotlib.axis_2">
    <g id="ytick_1">
     <g id="line2d_9">
      <defs>
       <path id="m44ff07edf4" d="M 0 0 
L -3.5 0 
" style="stroke: #000000; stroke-width: 0.8"/>
      </defs>
      <g>
       <use xlink:href="#m44ff07edf4" x="33.2875" y="320.4" style="stroke: #000000; stroke-width: 0.8"/>
      </g>
     </g>
     <g id="text_10">
      <!-- 0 -->
      <g transform="translate(19.925 324.199219) scale(0.1 -0.1)">
       <use xlink:href="#DejaVuSans-30"/>
      </g>
     </g>
    </g>
    <g id="ytick_2">
     <g id="line2d_10">
      <g>
       <use xlink:href="#m44ff07edf4" x="33.2875" y="260.940541" style="stroke: #000000; stroke-width: 0.8"/>
      </g>
     </g>
     <g id="text_11">
      <!-- 100 -->
      <g transform="translate(7.2 264.739759) scale(0.1 -0.1)">
       <use xlink:href="#DejaVuSans-31"/>
       <use xlink:href="#DejaVuSans-30" x="63.623047"/>
       <use xlink:href="#DejaVuSans-30" x="127.246094"/>
      </g>
     </g>
    </g>
    <g id="ytick_3">
     <g id="line2d_11">
      <g>
       <use xlink:href="#m44ff07edf4" x="33.2875" y="201.481081" style="stroke: #000000; stroke-width: 0.8"/>
      </g>
     </g>
     <g id="text_12">
      <!-- 200 -->
      <g transform="translate(7.2 205.2803) scale(0.1 -0.1)">
       <use xlink:href="#DejaVuSans-32"/>
       <use xlink:href="#DejaVuSans-30" x="63.623047"/>
       <use xlink:href="#DejaVuSans-30" x="127.246094"/>
      </g>
     </g>
    </g>
    <g id="ytick_4">
     <g id="line2d_12">
      <g>
       <use xlink:href="#m44ff07edf4" x="33.2875" y="142.021622" style="stroke: #000000; stroke-width: 0.8"/>
      </g>
     </g>
     <g id="text_13">
      <!-- 300 -->
      <g transform="translate(7.2 145.82084) scale(0.1 -0.1)">
       <use xlink:href="#DejaVuSans-33"/>
       <use xlink:href="#DejaVuSans-30" x="63.623047"/>
       <use xlink:href="#DejaVuSans-30" x="127.246094"/>
      </g>
     </g>
    </g>
    <g id="ytick_5">
     <g id="line2d_13">
      <g>
       <use xlink:href="#m44ff07edf4" x="33.2875" y="82.562162" style="stroke: #000000; stroke-width: 0.8"/>
      </g>
     </g>
     <g id="text_14">
      <!-- 400 -->
      <g transform="translate(7.2 86.361381) scale(0.1 -0.1)">
       <use xlink:href="#DejaVuSans-34"/>
       <use xlink:href="#DejaVuSans-30" x="63.623047"/>
       <use xlink:href="#DejaVuSans-30" x="127.246094"/>
      </g>
     </g>
    </g>
   </g>
   <g id="line2d_14">
    <path d="M 213.243471 320.4 
L 213.243471 43.2 
" clip-path="url(#p030c9a4cb1)" style="fill: none; stroke-dasharray: 1.85,0.8; stroke-dashoffset: 0; stroke: #000000; stroke-width: 0.5"/>
   </g>
   <g id="patch_90">
    <path d="M 33.2875 320.4 
L 33.2875 43.2 
" style="fill: none; stroke: #000000; stroke-width: 0.8; stroke-linejoin: miter; stroke-linecap: square"/>
   </g>
   <g id="patch_91">
    <path d="M 337.651136 320.4 
L 337.651136 43.2 
" style="fill: none; stroke: #000000; stroke-width: 0.8; stroke-linejoin: miter; stroke-linecap: square"/>
   </g>
   <g id="patch_92">
    <path d="M 33.2875 320.4 
L 337.651136 320.4 
" style="fill: none; stroke: #000000; stroke-width: 0.8; stroke-linejoin: miter; stroke-linecap: square"/>
   </g>
   <g id="patch_93">
    <path d="M 33.2875 43.2 
L 337.651136 43.2 
" style="fill: none; stroke: #000000; stroke-width: 0.8; stroke-linejoin: miter; stroke-linecap: square"/>
   </g>
   <g id="text_15">
    <!-- Diameter -->
    <g transform="translate(157.458693 37.2) scale(0.12 -0.12)">
     <use xlink:href="#DejaVuSans-44"/>
     <use xlink:href="#DejaVuSans-69" x="77.001953"/>
     <use xlink:href="#DejaVuSans-61" x="104.785156"/>
     <use xlink:href="#DejaVuSans-6d" x="166.064453"/>
     <use xlink:href="#DejaVuSans-65" x="263.476562"/>
     <use xlink:href="#DejaVuSans-74" x="325"/>
     <use xlink:href="#DejaVuSans-65" x="364.208984"/>
     <use xlink:href="#DejaVuSans-72" x="425.732422"/>
    </g>
   </g>
   <g id="legend_1">
    <g id="patch_94">
     <path d="M 42.2875 66.57625 
L 62.2875 66.57625 
L 62.2875 59.57625 
L 42.2875 59.57625 
z
" style="fill: #66c2a5; opacity: 0.6"/>
    </g>
    <g id="text_16">
     <!-- after_ablation -->
     <g transform="translate(70.2875 59.798437) scale(0.1 -0.1)">
      <defs>
       <path id="DejaVuSans-5f" d="M 3263 -1063 
L 3263 -1509 
L -63 -1509 
L -63 -1063 
L 3263 -1063 
z
" transform="scale(0.015625)"/>
       <path id="DejaVuSans-6f" d="M 1959 3097 
Q 1497 3097 1228 2736 
Q 959 2375 959 1747 
Q 959 1119 1226 758 
Q 1494 397 1959 397 
Q 2419 397 2687 759 
Q 2956 1122 2956 1747 
Q 2956 2369 2687 2733 
Q 2419 3097 1959 3097 
z
M 1959 3584 
Q 2709 3584 3137 3096 
Q 3566 2609 3566 1747 
Q 3566 888 3137 398 
Q 2709 -91 1959 -91 
Q 1206 -91 779 398 
Q 353 888 353 1747 
Q 353 2609 779 3096 
Q 1206 3584 1959 3584 
z
" transform="scale(0.015625)"/>
      </defs>
      <use xlink:href="#DejaVuSans-61"/>
      <use xlink:href="#DejaVuSans-66" x="61.279297"/>
      <use xlink:href="#DejaVuSans-74" x="94.734375"/>
      <use xlink:href="#DejaVuSans-65" x="133.943359"/>
      <use xlink:href="#DejaVuSans-72" x="195.466797"/>
      <use xlink:href="#DejaVuSans-5f" x="236.580078"/>
      <use xlink:href="#DejaVuSans-61" x="286.580078"/>
      <use xlink:href="#DejaVuSans-62" x="347.859375"/>
      <use xlink:href="#DejaVuSans-6c" x="411.335938"/>
      <use xlink:href="#DejaVuSans-61" x="439.119141"/>
      <use xlink:href="#DejaVuSans-74" x="500.398438"/>
      <use xlink:href="#DejaVuSans-69" x="539.607422"/>
      <use xlink:href="#DejaVuSans-6f" x="567.390625"/>
      <use xlink:href="#DejaVuSans-6e" x="628.572266"/>
     </g>
     <!-- prob +ve: 0.96 -->
     <g transform="translate(70.2875 71.274375) scale(0.1 -0.1)">
      <defs>
       <path id="DejaVuSans-70" d="M 1159 525 
L 1159 -1331 
L 581 -1331 
L 581 3500 
L 1159 3500 
L 1159 2969 
Q 1341 3281 1617 3432 
Q 1894 3584 2278 3584 
Q 2916 3584 3314 3078 
Q 3713 2572 3713 1747 
Q 3713 922 3314 415 
Q 2916 -91 2278 -91 
Q 1894 -91 1617 61 
Q 1341 213 1159 525 
z
M 3116 1747 
Q 3116 2381 2855 2742 
Q 2594 3103 2138 3103 
Q 1681 3103 1420 2742 
Q 1159 2381 1159 1747 
Q 1159 1113 1420 752 
Q 1681 391 2138 391 
Q 2594 391 2855 752 
Q 3116 1113 3116 1747 
z
" transform="scale(0.015625)"/>
       <path id="DejaVuSans-2b" d="M 2944 4013 
L 2944 2272 
L 4684 2272 
L 4684 1741 
L 2944 1741 
L 2944 0 
L 2419 0 
L 2419 1741 
L 678 1741 
L 678 2272 
L 2419 2272 
L 2419 4013 
L 2944 4013 
z
" transform="scale(0.015625)"/>
       <path id="DejaVuSans-76" d="M 191 3500 
L 800 3500 
L 1894 563 
L 2988 3500 
L 3597 3500 
L 2284 0 
L 1503 0 
L 191 3500 
z
" transform="scale(0.015625)"/>
       <path id="DejaVuSans-3a" d="M 750 794 
L 1409 794 
L 1409 0 
L 750 0 
L 750 794 
z
M 750 3309 
L 1409 3309 
L 1409 2516 
L 750 2516 
L 750 3309 
z
" transform="scale(0.015625)"/>
       <path id="DejaVuSans-39" d="M 703 97 
L 703 672 
Q 941 559 1184 500 
Q 1428 441 1663 441 
Q 2288 441 2617 861 
Q 2947 1281 2994 2138 
Q 2813 1869 2534 1725 
Q 2256 1581 1919 1581 
Q 1219 1581 811 2004 
Q 403 2428 403 3163 
Q 403 3881 828 4315 
Q 1253 4750 1959 4750 
Q 2769 4750 3195 4129 
Q 3622 3509 3622 2328 
Q 3622 1225 3098 567 
Q 2575 -91 1691 -91 
Q 1453 -91 1209 -44 
Q 966 3 703 97 
z
M 1959 2075 
Q 2384 2075 2632 2365 
Q 2881 2656 2881 3163 
Q 2881 3666 2632 3958 
Q 2384 4250 1959 4250 
Q 1534 4250 1286 3958 
Q 1038 3666 1038 3163 
Q 1038 2656 1286 2365 
Q 1534 2075 1959 2075 
z
" transform="scale(0.015625)"/>
       <path id="DejaVuSans-36" d="M 2113 2584 
Q 1688 2584 1439 2293 
Q 1191 2003 1191 1497 
Q 1191 994 1439 701 
Q 1688 409 2113 409 
Q 2538 409 2786 701 
Q 3034 994 3034 1497 
Q 3034 2003 2786 2293 
Q 2538 2584 2113 2584 
z
M 3366 4563 
L 3366 3988 
Q 3128 4100 2886 4159 
Q 2644 4219 2406 4219 
Q 1781 4219 1451 3797 
Q 1122 3375 1075 2522 
Q 1259 2794 1537 2939 
Q 1816 3084 2150 3084 
Q 2853 3084 3261 2657 
Q 3669 2231 3669 1497 
Q 3669 778 3244 343 
Q 2819 -91 2113 -91 
Q 1303 -91 875 529 
Q 447 1150 447 2328 
Q 447 3434 972 4092 
Q 1497 4750 2381 4750 
Q 2619 4750 2861 4703 
Q 3103 4656 3366 4563 
z
" transform="scale(0.015625)"/>
      </defs>
      <use xlink:href="#DejaVuSans-70"/>
      <use xlink:href="#DejaVuSans-72" x="63.476562"/>
      <use xlink:href="#DejaVuSans-6f" x="102.339844"/>
      <use xlink:href="#DejaVuSans-62" x="163.521484"/>
      <use xlink:href="#DejaVuSans-20" x="226.998047"/>
      <use xlink:href="#DejaVuSans-2b" x="258.785156"/>
      <use xlink:href="#DejaVuSans-76" x="342.574219"/>
      <use xlink:href="#DejaVuSans-65" x="401.753906"/>
      <use xlink:href="#DejaVuSans-3a" x="463.277344"/>
      <use xlink:href="#DejaVuSans-20" x="496.96875"/>
      <use xlink:href="#DejaVuSans-30" x="528.755859"/>
      <use xlink:href="#DejaVuSans-2e" x="592.378906"/>
      <use xlink:href="#DejaVuSans-39" x="624.166016"/>
      <use xlink:href="#DejaVuSans-36" x="687.789062"/>
     </g>
    </g>
    <g id="patch_95">
     <path d="M 42.2875 92.59125 
L 62.2875 92.59125 
L 62.2875 85.59125 
L 42.2875 85.59125 
z
" style="fill: #fc8d62; opacity: 0.6"/>
    </g>
    <g id="text_17">
     <!-- hyper -->
     <g transform="translate(70.2875 85.9525) scale(0.1 -0.1)">
      <defs>
       <path id="DejaVuSans-68" d="M 3513 2113 
L 3513 0 
L 2938 0 
L 2938 2094 
Q 2938 2591 2744 2837 
Q 2550 3084 2163 3084 
Q 1697 3084 1428 2787 
Q 1159 2491 1159 1978 
L 1159 0 
L 581 0 
L 581 4863 
L 1159 4863 
L 1159 2956 
Q 1366 3272 1645 3428 
Q 1925 3584 2291 3584 
Q 2894 3584 3203 3211 
Q 3513 2838 3513 2113 
z
" transform="scale(0.015625)"/>
      </defs>
      <use xlink:href="#DejaVuSans-68"/>
      <use xlink:href="#DejaVuSans-79" x="63.378906"/>
      <use xlink:href="#DejaVuSans-70" x="122.558594"/>
      <use xlink:href="#DejaVuSans-65" x="186.035156"/>
      <use xlink:href="#DejaVuSans-72" x="247.558594"/>
     </g>
     <!-- prob +ve: 0.78 -->
     <g transform="translate(70.2875 97.150312) scale(0.1 -0.1)">
      <defs>
       <path id="DejaVuSans-37" d="M 525 4666 
L 3525 4666 
L 3525 4397 
L 1831 0 
L 1172 0 
L 2766 4134 
L 525 4134 
L 525 4666 
z
" transform="scale(0.015625)"/>
       <path id="DejaVuSans-38" d="M 2034 2216 
Q 1584 2216 1326 1975 
Q 1069 1734 1069 1313 
Q 1069 891 1326 650 
Q 1584 409 2034 409 
Q 2484 409 2743 651 
Q 3003 894 3003 1313 
Q 3003 1734 2745 1975 
Q 2488 2216 2034 2216 
z
M 1403 2484 
Q 997 2584 770 2862 
Q 544 3141 544 3541 
Q 544 4100 942 4425 
Q 1341 4750 2034 4750 
Q 2731 4750 3128 4425 
Q 3525 4100 3525 3541 
Q 3525 3141 3298 2862 
Q 3072 2584 2669 2484 
Q 3125 2378 3379 2068 
Q 3634 1759 3634 1313 
Q 3634 634 3220 271 
Q 2806 -91 2034 -91 
Q 1263 -91 848 271 
Q 434 634 434 1313 
Q 434 1759 690 2068 
Q 947 2378 1403 2484 
z
M 1172 3481 
Q 1172 3119 1398 2916 
Q 1625 2713 2034 2713 
Q 2441 2713 2670 2916 
Q 2900 3119 2900 3481 
Q 2900 3844 2670 4047 
Q 2441 4250 2034 4250 
Q 1625 4250 1398 4047 
Q 1172 3844 1172 3481 
z
" transform="scale(0.015625)"/>
      </defs>
      <use xlink:href="#DejaVuSans-70"/>
      <use xlink:href="#DejaVuSans-72" x="63.476562"/>
      <use xlink:href="#DejaVuSans-6f" x="102.339844"/>
      <use xlink:href="#DejaVuSans-62" x="163.521484"/>
      <use xlink:href="#DejaVuSans-20" x="226.998047"/>
      <use xlink:href="#DejaVuSans-2b" x="258.785156"/>
      <use xlink:href="#DejaVuSans-76" x="342.574219"/>
      <use xlink:href="#DejaVuSans-65" x="401.753906"/>
      <use xlink:href="#DejaVuSans-3a" x="463.277344"/>
      <use xlink:href="#DejaVuSans-20" x="496.96875"/>
      <use xlink:href="#DejaVuSans-30" x="528.755859"/>
      <use xlink:href="#DejaVuSans-2e" x="592.378906"/>
      <use xlink:href="#DejaVuSans-37" x="624.166016"/>
      <use xlink:href="#DejaVuSans-38" x="687.789062"/>
     </g>
    </g>
    <g id="patch_96">
     <path d="M 42.2875 118.467187 
L 62.2875 118.467187 
L 62.2875 111.467187 
L 42.2875 111.467187 
z
" style="fill: #8da0cb; opacity: 0.6"/>
    </g>
    <g id="text_18">
     <!-- hyper2 -->
     <g transform="translate(70.2875 111.828437) scale(0.1 -0.1)">
      <use xlink:href="#DejaVuSans-68"/>
      <use xlink:href="#DejaVuSans-79" x="63.378906"/>
      <use xlink:href="#DejaVuSans-70" x="122.558594"/>
      <use xlink:href="#DejaVuSans-65" x="186.035156"/>
      <use xlink:href="#DejaVuSans-72" x="247.558594"/>
      <use xlink:href="#DejaVuSans-32" x="288.671875"/>
     </g>
     <!-- prob +ve: 0.22 -->
     <g transform="translate(70.2875 123.02625) scale(0.1 -0.1)">
      <use xlink:href="#DejaVuSans-70"/>
      <use xlink:href="#DejaVuSans-72" x="63.476562"/>
      <use xlink:href="#DejaVuSans-6f" x="102.339844"/>
      <use xlink:href="#DejaVuSans-62" x="163.521484"/>
      <use xlink:href="#DejaVuSans-20" x="226.998047"/>
      <use xlink:href="#DejaVuSans-2b" x="258.785156"/>
      <use xlink:href="#DejaVuSans-76" x="342.574219"/>
      <use xlink:href="#DejaVuSans-65" x="401.753906"/>
      <use xlink:href="#DejaVuSans-3a" x="463.277344"/>
      <use xlink:href="#DejaVuSans-20" x="496.96875"/>
      <use xlink:href="#DejaVuSans-30" x="528.755859"/>
      <use xlink:href="#DejaVuSans-2e" x="592.378906"/>
      <use xlink:href="#DejaVuSans-32" x="624.166016"/>
      <use xlink:href="#DejaVuSans-32" x="687.789062"/>
     </g>
    </g>
   </g>
  </g>
  <g id="axes_2">
   <g id="patch_97">
    <path d="M 398.523864 320.4 
L 702.8875 320.4 
L 702.8875 43.2 
L 398.523864 43.2 
z
" style="fill: #ffffff"/>
   </g>
   <g id="patch_98">
    <path d="M 530.392795 320.4 
L 535.511622 320.4 
L 535.511622 319.643553 
L 530.392795 319.643553 
z
" clip-path="url(#p982df254da)" style="fill: #66c2a5; opacity: 0.6"/>
   </g>
   <g id="patch_99">
    <path d="M 535.511622 320.4 
L 540.630449 320.4 
L 540.630449 318.130659 
L 535.511622 318.130659 
z
" clip-path="url(#p982df254da)" style="fill: #66c2a5; opacity: 0.6"/>
   </g>
   <g id="patch_100">
    <path d="M 540.630449 320.4 
L 545.749276 320.4 
L 545.749276 316.995989 
L 540.630449 316.995989 
z
" clip-path="url(#p982df254da)" style="fill: #66c2a5; opacity: 0.6"/>
   </g>
   <g id="patch_101">
    <path d="M 545.749276 320.4 
L 550.868103 320.4 
L 550.868103 315.861318 
L 545.749276 315.861318 
z
" clip-path="url(#p982df254da)" style="fill: #66c2a5; opacity: 0.6"/>
   </g>
   <g id="patch_102">
    <path d="M 550.868103 320.4 
L 555.98693 320.4 
L 555.98693 309.809742 
L 550.868103 309.809742 
z
" clip-path="url(#p982df254da)" style="fill: #66c2a5; opacity: 0.6"/>
   </g>
   <g id="patch_103">
    <path d="M 555.98693 320.4 
L 561.105757 320.4 
L 561.105757 304.13639 
L 555.98693 304.13639 
z
" clip-path="url(#p982df254da)" style="fill: #66c2a5; opacity: 0.6"/>
   </g>
   <g id="patch_104">
    <path d="M 561.105757 320.4 
L 566.224584 320.4 
L 566.224584 279.173639 
L 561.105757 279.173639 
z
" clip-path="url(#p982df254da)" style="fill: #66c2a5; opacity: 0.6"/>
   </g>
   <g id="patch_105">
    <path d="M 566.224584 320.4 
L 571.343411 320.4 
L 571.343411 269.718052 
L 566.224584 269.718052 
z
" clip-path="url(#p982df254da)" style="fill: #66c2a5; opacity: 0.6"/>
   </g>
   <g id="patch_106">
    <path d="M 571.343411 320.4 
L 576.462238 320.4 
L 576.462238 212.984527 
L 571.343411 212.984527 
z
" clip-path="url(#p982df254da)" style="fill: #66c2a5; opacity: 0.6"/>
   </g>
   <g id="patch_107">
    <path d="M 576.462238 320.4 
L 581.581065 320.4 
L 581.581065 124.480229 
L 576.462238 124.480229 
z
" clip-path="url(#p982df254da)" style="fill: #66c2a5; opacity: 0.6"/>
   </g>
   <g id="patch_108">
    <path d="M 581.581065 320.4 
L 586.699892 320.4 
L 586.699892 175.540401 
L 581.581065 175.540401 
z
" clip-path="url(#p982df254da)" style="fill: #66c2a5; opacity: 0.6"/>
   </g>
   <g id="patch_109">
    <path d="M 586.699892 320.4 
L 591.818719 320.4 
L 591.818719 180.83553 
L 586.699892 180.83553 
z
" clip-path="url(#p982df254da)" style="fill: #66c2a5; opacity: 0.6"/>
   </g>
   <g id="patch_110">
    <path d="M 591.818719 320.4 
L 596.937546 320.4 
L 596.937546 180.457307 
L 591.818719 180.457307 
z
" clip-path="url(#p982df254da)" style="fill: #66c2a5; opacity: 0.6"/>
   </g>
   <g id="patch_111">
    <path d="M 596.937546 320.4 
L 602.056373 320.4 
L 602.056373 197.09914 
L 596.937546 197.09914 
z
" clip-path="url(#p982df254da)" style="fill: #66c2a5; opacity: 0.6"/>
   </g>
   <g id="patch_112">
    <path d="M 602.056373 320.4 
L 607.1752 320.4 
L 607.1752 219.414327 
L 602.056373 219.414327 
z
" clip-path="url(#p982df254da)" style="fill: #66c2a5; opacity: 0.6"/>
   </g>
   <g id="patch_113">
    <path d="M 607.1752 320.4 
L 612.294027 320.4 
L 612.294027 230.761032 
L 607.1752 230.761032 
z
" clip-path="url(#p982df254da)" style="fill: #66c2a5; opacity: 0.6"/>
   </g>
   <g id="patch_114">
    <path d="M 612.294027 320.4 
L 617.412854 320.4 
L 617.412854 230.004585 
L 612.294027 230.004585 
z
" clip-path="url(#p982df254da)" style="fill: #66c2a5; opacity: 0.6"/>
   </g>
   <g id="patch_115">
    <path d="M 617.412854 320.4 
L 622.531681 320.4 
L 622.531681 257.6149 
L 617.412854 257.6149 
z
" clip-path="url(#p982df254da)" style="fill: #66c2a5; opacity: 0.6"/>
   </g>
   <g id="patch_116">
    <path d="M 622.531681 320.4 
L 627.650508 320.4 
L 627.650508 259.884241 
L 622.531681 259.884241 
z
" clip-path="url(#p982df254da)" style="fill: #66c2a5; opacity: 0.6"/>
   </g>
   <g id="patch_117">
    <path d="M 627.650508 320.4 
L 632.769335 320.4 
L 632.769335 281.44298 
L 627.650508 281.44298 
z
" clip-path="url(#p982df254da)" style="fill: #66c2a5; opacity: 0.6"/>
   </g>
   <g id="patch_118">
    <path d="M 632.769335 320.4 
L 637.888162 320.4 
L 637.888162 287.494556 
L 632.769335 287.494556 
z
" clip-path="url(#p982df254da)" style="fill: #66c2a5; opacity: 0.6"/>
   </g>
   <g id="patch_119">
    <path d="M 637.888162 320.4 
L 643.006989 320.4 
L 643.006989 294.680802 
L 637.888162 294.680802 
z
" clip-path="url(#p982df254da)" style="fill: #66c2a5; opacity: 0.6"/>
   </g>
   <g id="patch_120">
    <path d="M 643.006989 320.4 
L 648.125816 320.4 
L 648.125816 306.027507 
L 643.006989 306.027507 
z
" clip-path="url(#p982df254da)" style="fill: #66c2a5; opacity: 0.6"/>
   </g>
   <g id="patch_121">
    <path d="M 648.125816 320.4 
L 653.244643 320.4 
L 653.244643 315.104871 
L 648.125816 315.104871 
z
" clip-path="url(#p982df254da)" style="fill: #66c2a5; opacity: 0.6"/>
   </g>
   <g id="patch_122">
    <path d="M 653.244643 320.4 
L 658.36347 320.4 
L 658.36347 316.239542 
L 653.244643 316.239542 
z
" clip-path="url(#p982df254da)" style="fill: #66c2a5; opacity: 0.6"/>
   </g>
   <g id="patch_123">
    <path d="M 658.36347 320.4 
L 663.482297 320.4 
L 663.482297 315.861318 
L 658.36347 315.861318 
z
" clip-path="url(#p982df254da)" style="fill: #66c2a5; opacity: 0.6"/>
   </g>
   <g id="patch_124">
    <path d="M 663.482297 320.4 
L 668.601124 320.4 
L 668.601124 320.021777 
L 663.482297 320.021777 
z
" clip-path="url(#p982df254da)" style="fill: #66c2a5; opacity: 0.6"/>
   </g>
   <g id="patch_125">
    <path d="M 668.601124 320.4 
L 673.719951 320.4 
L 673.719951 320.021777 
L 668.601124 320.021777 
z
" clip-path="url(#p982df254da)" style="fill: #66c2a5; opacity: 0.6"/>
   </g>
   <g id="patch_126">
    <path d="M 673.719951 320.4 
L 678.838778 320.4 
L 678.838778 319.26533 
L 673.719951 319.26533 
z
" clip-path="url(#p982df254da)" style="fill: #66c2a5; opacity: 0.6"/>
   </g>
   <g id="patch_127">
    <path d="M 442.239829 320.4 
L 449.416208 320.4 
L 449.416208 320.021777 
L 442.239829 320.021777 
z
" clip-path="url(#p982df254da)" style="fill: #fc8d62; opacity: 0.6"/>
   </g>
   <g id="patch_128">
    <path d="M 449.416208 320.4 
L 456.592588 320.4 
L 456.592588 320.021777 
L 449.416208 320.021777 
z
" clip-path="url(#p982df254da)" style="fill: #fc8d62; opacity: 0.6"/>
   </g>
   <g id="patch_129">
    <path d="M 456.592588 320.4 
L 463.768968 320.4 
L 463.768968 318.508883 
L 456.592588 318.508883 
z
" clip-path="url(#p982df254da)" style="fill: #fc8d62; opacity: 0.6"/>
   </g>
   <g id="patch_130">
    <path d="M 463.768968 320.4 
L 470.945348 320.4 
L 470.945348 318.130659 
L 463.768968 318.130659 
z
" clip-path="url(#p982df254da)" style="fill: #fc8d62; opacity: 0.6"/>
   </g>
   <g id="patch_131">
    <path d="M 470.945348 320.4 
L 478.121727 320.4 
L 478.121727 318.887106 
L 470.945348 318.887106 
z
" clip-path="url(#p982df254da)" style="fill: #fc8d62; opacity: 0.6"/>
   </g>
   <g id="patch_132">
    <path d="M 478.121727 320.4 
L 485.298107 320.4 
L 485.298107 313.213754 
L 478.121727 313.213754 
z
" clip-path="url(#p982df254da)" style="fill: #fc8d62; opacity: 0.6"/>
   </g>
   <g id="patch_133">
    <path d="M 485.298107 320.4 
L 492.474487 320.4 
L 492.474487 313.591977 
L 485.298107 313.591977 
z
" clip-path="url(#p982df254da)" style="fill: #fc8d62; opacity: 0.6"/>
   </g>
   <g id="patch_134">
    <path d="M 492.474487 320.4 
L 499.650866 320.4 
L 499.650866 305.27106 
L 492.474487 305.27106 
z
" clip-path="url(#p982df254da)" style="fill: #fc8d62; opacity: 0.6"/>
   </g>
   <g id="patch_135">
    <path d="M 499.650866 320.4 
L 506.827246 320.4 
L 506.827246 303.001719 
L 499.650866 303.001719 
z
" clip-path="url(#p982df254da)" style="fill: #fc8d62; opacity: 0.6"/>
   </g>
   <g id="patch_136">
    <path d="M 506.827246 320.4 
L 514.003626 320.4 
L 514.003626 291.276791 
L 506.827246 291.276791 
z
" clip-path="url(#p982df254da)" style="fill: #fc8d62; opacity: 0.6"/>
   </g>
   <g id="patch_137">
    <path d="M 514.003626 320.4 
L 521.180006 320.4 
L 521.180006 286.359885 
L 514.003626 286.359885 
z
" clip-path="url(#p982df254da)" style="fill: #fc8d62; opacity: 0.6"/>
   </g>
   <g id="patch_138">
    <path d="M 521.180006 320.4 
L 528.356385 320.4 
L 528.356385 254.210888 
L 521.180006 254.210888 
z
" clip-path="url(#p982df254da)" style="fill: #fc8d62; opacity: 0.6"/>
   </g>
   <g id="patch_139">
    <path d="M 528.356385 320.4 
L 535.532765 320.4 
L 535.532765 245.889971 
L 528.356385 245.889971 
z
" clip-path="url(#p982df254da)" style="fill: #fc8d62; opacity: 0.6"/>
   </g>
   <g id="patch_140">
    <path d="M 535.532765 320.4 
L 542.709145 320.4 
L 542.709145 237.947278 
L 535.532765 237.947278 
z
" clip-path="url(#p982df254da)" style="fill: #fc8d62; opacity: 0.6"/>
   </g>
   <g id="patch_141">
    <path d="M 542.709145 320.4 
L 549.885525 320.4 
L 549.885525 212.984527 
L 542.709145 212.984527 
z
" clip-path="url(#p982df254da)" style="fill: #fc8d62; opacity: 0.6"/>
   </g>
   <g id="patch_142">
    <path d="M 549.885525 320.4 
L 557.061904 320.4 
L 557.061904 195.208023 
L 549.885525 195.208023 
z
" clip-path="url(#p982df254da)" style="fill: #fc8d62; opacity: 0.6"/>
   </g>
   <g id="patch_143">
    <path d="M 557.061904 320.4 
L 564.238284 320.4 
L 564.238284 178.187966 
L 557.061904 178.187966 
z
" clip-path="url(#p982df254da)" style="fill: #fc8d62; opacity: 0.6"/>
   </g>
   <g id="patch_144">
    <path d="M 564.238284 320.4 
L 571.414664 320.4 
L 571.414664 149.44298 
L 564.238284 149.44298 
z
" clip-path="url(#p982df254da)" style="fill: #fc8d62; opacity: 0.6"/>
   </g>
   <g id="patch_145">
    <path d="M 571.414664 320.4 
L 578.591043 320.4 
L 578.591043 91.953009 
L 571.414664 91.953009 
z
" clip-path="url(#p982df254da)" style="fill: #fc8d62; opacity: 0.6"/>
   </g>
   <g id="patch_146">
    <path d="M 578.591043 320.4 
L 585.767423 320.4 
L 585.767423 122.967335 
L 578.591043 122.967335 
z
" clip-path="url(#p982df254da)" style="fill: #fc8d62; opacity: 0.6"/>
   </g>
   <g id="patch_147">
    <path d="M 585.767423 320.4 
L 592.943803 320.4 
L 592.943803 221.305444 
L 585.767423 221.305444 
z
" clip-path="url(#p982df254da)" style="fill: #fc8d62; opacity: 0.6"/>
   </g>
   <g id="patch_148">
    <path d="M 592.943803 320.4 
L 600.120183 320.4 
L 600.120183 268.961605 
L 592.943803 268.961605 
z
" clip-path="url(#p982df254da)" style="fill: #fc8d62; opacity: 0.6"/>
   </g>
   <g id="patch_149">
    <path d="M 600.120183 320.4 
L 607.296562 320.4 
L 607.296562 296.193696 
L 600.120183 296.193696 
z
" clip-path="url(#p982df254da)" style="fill: #fc8d62; opacity: 0.6"/>
   </g>
   <g id="patch_150">
    <path d="M 607.296562 320.4 
L 614.472942 320.4 
L 614.472942 308.296848 
L 607.296562 308.296848 
z
" clip-path="url(#p982df254da)" style="fill: #fc8d62; opacity: 0.6"/>
   </g>
   <g id="patch_151">
    <path d="M 614.472942 320.4 
L 621.649322 320.4 
L 621.649322 313.213754 
L 614.472942 313.213754 
z
" clip-path="url(#p982df254da)" style="fill: #fc8d62; opacity: 0.6"/>
   </g>
   <g id="patch_152">
    <path d="M 621.649322 320.4 
L 628.825701 320.4 
L 628.825701 315.104871 
L 621.649322 315.104871 
z
" clip-path="url(#p982df254da)" style="fill: #fc8d62; opacity: 0.6"/>
   </g>
   <g id="patch_153">
    <path d="M 628.825701 320.4 
L 636.002081 320.4 
L 636.002081 319.26533 
L 628.825701 319.26533 
z
" clip-path="url(#p982df254da)" style="fill: #fc8d62; opacity: 0.6"/>
   </g>
   <g id="patch_154">
    <path d="M 636.002081 320.4 
L 643.178461 320.4 
L 643.178461 319.26533 
L 636.002081 319.26533 
z
" clip-path="url(#p982df254da)" style="fill: #fc8d62; opacity: 0.6"/>
   </g>
   <g id="patch_155">
    <path d="M 643.178461 320.4 
L 650.354841 320.4 
L 650.354841 320.021777 
L 643.178461 320.021777 
z
" clip-path="url(#p982df254da)" style="fill: #fc8d62; opacity: 0.6"/>
   </g>
   <g id="patch_156">
    <path d="M 412.358574 320.4 
L 420.417746 320.4 
L 420.417746 318.887106 
L 412.358574 318.887106 
z
" clip-path="url(#p982df254da)" style="fill: #8da0cb; opacity: 0.6"/>
   </g>
   <g id="patch_157">
    <path d="M 420.417746 320.4 
L 428.476918 320.4 
L 428.476918 319.26533 
L 420.417746 319.26533 
z
" clip-path="url(#p982df254da)" style="fill: #8da0cb; opacity: 0.6"/>
   </g>
   <g id="patch_158">
    <path d="M 428.476918 320.4 
L 436.53609 320.4 
L 436.53609 317.752436 
L 428.476918 317.752436 
z
" clip-path="url(#p982df254da)" style="fill: #8da0cb; opacity: 0.6"/>
   </g>
   <g id="patch_159">
    <path d="M 436.53609 320.4 
L 444.595262 320.4 
L 444.595262 318.130659 
L 436.53609 318.130659 
z
" clip-path="url(#p982df254da)" style="fill: #8da0cb; opacity: 0.6"/>
   </g>
   <g id="patch_160">
    <path d="M 444.595262 320.4 
L 452.654433 320.4 
L 452.654433 315.483095 
L 444.595262 315.483095 
z
" clip-path="url(#p982df254da)" style="fill: #8da0cb; opacity: 0.6"/>
   </g>
   <g id="patch_161">
    <path d="M 452.654433 320.4 
L 460.713605 320.4 
L 460.713605 312.83553 
L 452.654433 312.83553 
z
" clip-path="url(#p982df254da)" style="fill: #8da0cb; opacity: 0.6"/>
   </g>
   <g id="patch_162">
    <path d="M 460.713605 320.4 
L 468.772777 320.4 
L 468.772777 310.187966 
L 460.713605 310.187966 
z
" clip-path="url(#p982df254da)" style="fill: #8da0cb; opacity: 0.6"/>
   </g>
   <g id="patch_163">
    <path d="M 468.772777 320.4 
L 476.831949 320.4 
L 476.831949 301.488825 
L 468.772777 301.488825 
z
" clip-path="url(#p982df254da)" style="fill: #8da0cb; opacity: 0.6"/>
   </g>
   <g id="patch_164">
    <path d="M 476.831949 320.4 
L 484.891121 320.4 
L 484.891121 303.001719 
L 476.831949 303.001719 
z
" clip-path="url(#p982df254da)" style="fill: #8da0cb; opacity: 0.6"/>
   </g>
   <g id="patch_165">
    <path d="M 484.891121 320.4 
L 492.950293 320.4 
L 492.950293 294.302579 
L 484.891121 294.302579 
z
" clip-path="url(#p982df254da)" style="fill: #8da0cb; opacity: 0.6"/>
   </g>
   <g id="patch_166">
    <path d="M 492.950293 320.4 
L 501.009464 320.4 
L 501.009464 286.359885 
L 492.950293 286.359885 
z
" clip-path="url(#p982df254da)" style="fill: #8da0cb; opacity: 0.6"/>
   </g>
   <g id="patch_167">
    <path d="M 501.009464 320.4 
L 509.068636 320.4 
L 509.068636 271.609169 
L 501.009464 271.609169 
z
" clip-path="url(#p982df254da)" style="fill: #8da0cb; opacity: 0.6"/>
   </g>
   <g id="patch_168">
    <path d="M 509.068636 320.4 
L 517.127808 320.4 
L 517.127808 257.236676 
L 509.068636 257.236676 
z
" clip-path="url(#p982df254da)" style="fill: #8da0cb; opacity: 0.6"/>
   </g>
   <g id="patch_169">
    <path d="M 517.127808 320.4 
L 525.18698 320.4 
L 525.18698 252.319771 
L 517.127808 252.319771 
z
" clip-path="url(#p982df254da)" style="fill: #8da0cb; opacity: 0.6"/>
   </g>
   <g id="patch_170">
    <path d="M 525.18698 320.4 
L 533.246152 320.4 
L 533.246152 249.672206 
L 525.18698 249.672206 
z
" clip-path="url(#p982df254da)" style="fill: #8da0cb; opacity: 0.6"/>
   </g>
   <g id="patch_171">
    <path d="M 533.246152 320.4 
L 541.305323 320.4 
L 541.305323 212.22808 
L 533.246152 212.22808 
z
" clip-path="url(#p982df254da)" style="fill: #8da0cb; opacity: 0.6"/>
   </g>
   <g id="patch_172">
    <path d="M 541.305323 320.4 
L 549.364495 320.4 
L 549.364495 216.388539 
L 541.305323 216.388539 
z
" clip-path="url(#p982df254da)" style="fill: #8da0cb; opacity: 0.6"/>
   </g>
   <g id="patch_173">
    <path d="M 549.364495 320.4 
L 557.423667 320.4 
L 557.423667 187.26533 
L 549.364495 187.26533 
z
" clip-path="url(#p982df254da)" style="fill: #8da0cb; opacity: 0.6"/>
   </g>
   <g id="patch_174">
    <path d="M 557.423667 320.4 
L 565.482839 320.4 
L 565.482839 177.809742 
L 557.423667 177.809742 
z
" clip-path="url(#p982df254da)" style="fill: #8da0cb; opacity: 0.6"/>
   </g>
   <g id="patch_175">
    <path d="M 565.482839 320.4 
L 573.542011 320.4 
L 573.542011 144.147851 
L 565.482839 144.147851 
z
" clip-path="url(#p982df254da)" style="fill: #8da0cb; opacity: 0.6"/>
   </g>
   <g id="patch_176">
    <path d="M 573.542011 320.4 
L 581.601183 320.4 
L 581.601183 56.4 
L 573.542011 56.4 
z
" clip-path="url(#p982df254da)" style="fill: #8da0cb; opacity: 0.6"/>
   </g>
   <g id="patch_177">
    <path d="M 581.601183 320.4 
L 589.660354 320.4 
L 589.660354 215.632092 
L 581.601183 215.632092 
z
" clip-path="url(#p982df254da)" style="fill: #8da0cb; opacity: 0.6"/>
   </g>
   <g id="patch_178">
    <path d="M 589.660354 320.4 
L 597.719526 320.4 
L 597.719526 267.826934 
L 589.660354 267.826934 
z
" clip-path="url(#p982df254da)" style="fill: #8da0cb; opacity: 0.6"/>
   </g>
   <g id="patch_179">
    <path d="M 597.719526 320.4 
L 605.778698 320.4 
L 605.778698 294.302579 
L 597.719526 294.302579 
z
" clip-path="url(#p982df254da)" style="fill: #8da0cb; opacity: 0.6"/>
   </g>
   <g id="patch_180">
    <path d="M 605.778698 320.4 
L 613.83787 320.4 
L 613.83787 305.27106 
L 605.778698 305.27106 
z
" clip-path="url(#p982df254da)" style="fill: #8da0cb; opacity: 0.6"/>
   </g>
   <g id="patch_181">
    <path d="M 613.83787 320.4 
L 621.897042 320.4 
L 621.897042 313.970201 
L 613.83787 313.970201 
z
" clip-path="url(#p982df254da)" style="fill: #8da0cb; opacity: 0.6"/>
   </g>
   <g id="patch_182">
    <path d="M 621.897042 320.4 
L 629.956213 320.4 
L 629.956213 320.021777 
L 621.897042 320.021777 
z
" clip-path="url(#p982df254da)" style="fill: #8da0cb; opacity: 0.6"/>
   </g>
   <g id="patch_183">
    <path d="M 629.956213 320.4 
L 638.015385 320.4 
L 638.015385 319.643553 
L 629.956213 319.643553 
z
" clip-path="url(#p982df254da)" style="fill: #8da0cb; opacity: 0.6"/>
   </g>
   <g id="patch_184">
    <path d="M 638.015385 320.4 
L 646.074557 320.4 
L 646.074557 319.26533 
L 638.015385 319.26533 
z
" clip-path="url(#p982df254da)" style="fill: #8da0cb; opacity: 0.6"/>
   </g>
   <g id="matplotlib.axis_3">
    <g id="xtick_9">
     <g id="line2d_15">
      <g>
       <use xlink:href="#m7329e87adb" x="420.107722" y="320.4" style="stroke: #000000; stroke-width: 0.8"/>
      </g>
     </g>
     <g id="text_19">
      <!-- −0.4 -->
      <g transform="translate(407.966316 334.998437) scale(0.1 -0.1)">
       <use xlink:href="#DejaVuSans-2212"/>
       <use xlink:href="#DejaVuSans-30" x="83.789062"/>
       <use xlink:href="#DejaVuSans-2e" x="147.412109"/>
       <use xlink:href="#DejaVuSans-34" x="179.199219"/>
      </g>
     </g>
    </g>
    <g id="xtick_10">
     <g id="line2d_16">
      <g>
       <use xlink:href="#m7329e87adb" x="459.70075" y="320.4" style="stroke: #000000; stroke-width: 0.8"/>
      </g>
     </g>
     <g id="text_20">
      <!-- −0.3 -->
      <g transform="translate(447.559344 334.998437) scale(0.1 -0.1)">
       <use xlink:href="#DejaVuSans-2212"/>
       <use xlink:href="#DejaVuSans-30" x="83.789062"/>
       <use xlink:href="#DejaVuSans-2e" x="147.412109"/>
       <use xlink:href="#DejaVuSans-33" x="179.199219"/>
      </g>
     </g>
    </g>
    <g id="xtick_11">
     <g id="line2d_17">
      <g>
       <use xlink:href="#m7329e87adb" x="499.293778" y="320.4" style="stroke: #000000; stroke-width: 0.8"/>
      </g>
     </g>
     <g id="text_21">
      <!-- −0.2 -->
      <g transform="translate(487.152372 334.998437) scale(0.1 -0.1)">
       <use xlink:href="#DejaVuSans-2212"/>
       <use xlink:href="#DejaVuSans-30" x="83.789062"/>
       <use xlink:href="#DejaVuSans-2e" x="147.412109"/>
       <use xlink:href="#DejaVuSans-32" x="179.199219"/>
      </g>
     </g>
    </g>
    <g id="xtick_12">
     <g id="line2d_18">
      <g>
       <use xlink:href="#m7329e87adb" x="538.886807" y="320.4" style="stroke: #000000; stroke-width: 0.8"/>
      </g>
     </g>
     <g id="text_22">
      <!-- −0.1 -->
      <g transform="translate(526.7454 334.998437) scale(0.1 -0.1)">
       <use xlink:href="#DejaVuSans-2212"/>
       <use xlink:href="#DejaVuSans-30" x="83.789062"/>
       <use xlink:href="#DejaVuSans-2e" x="147.412109"/>
       <use xlink:href="#DejaVuSans-31" x="179.199219"/>
      </g>
     </g>
    </g>
    <g id="xtick_13">
     <g id="line2d_19">
      <g>
       <use xlink:href="#m7329e87adb" x="578.479835" y="320.4" style="stroke: #000000; stroke-width: 0.8"/>
      </g>
     </g>
     <g id="text_23">
      <!-- 0.0 -->
      <g transform="translate(570.528272 334.998437) scale(0.1 -0.1)">
       <use xlink:href="#DejaVuSans-30"/>
       <use xlink:href="#DejaVuSans-2e" x="63.623047"/>
       <use xlink:href="#DejaVuSans-30" x="95.410156"/>
      </g>
     </g>
    </g>
    <g id="xtick_14">
     <g id="line2d_20">
      <g>
       <use xlink:href="#m7329e87adb" x="618.072863" y="320.4" style="stroke: #000000; stroke-width: 0.8"/>
      </g>
     </g>
     <g id="text_24">
      <!-- 0.1 -->
      <g transform="translate(610.121301 334.998437) scale(0.1 -0.1)">
       <use xlink:href="#DejaVuSans-30"/>
       <use xlink:href="#DejaVuSans-2e" x="63.623047"/>
       <use xlink:href="#DejaVuSans-31" x="95.410156"/>
      </g>
     </g>
    </g>
    <g id="xtick_15">
     <g id="line2d_21">
      <g>
       <use xlink:href="#m7329e87adb" x="657.665891" y="320.4" style="stroke: #000000; stroke-width: 0.8"/>
      </g>
     </g>
     <g id="text_25">
      <!-- 0.2 -->
      <g transform="translate(649.714329 334.998437) scale(0.1 -0.1)">
       <use xlink:href="#DejaVuSans-30"/>
       <use xlink:href="#DejaVuSans-2e" x="63.623047"/>
       <use xlink:href="#DejaVuSans-32" x="95.410156"/>
      </g>
     </g>
    </g>
    <g id="xtick_16">
     <g id="line2d_22">
      <g>
       <use xlink:href="#m7329e87adb" x="697.258919" y="320.4" style="stroke: #000000; stroke-width: 0.8"/>
      </g>
     </g>
     <g id="text_26">
      <!-- 0.3 -->
      <g transform="translate(689.307357 334.998437) scale(0.1 -0.1)">
       <use xlink:href="#DejaVuSans-30"/>
       <use xlink:href="#DejaVuSans-2e" x="63.623047"/>
       <use xlink:href="#DejaVuSans-33" x="95.410156"/>
      </g>
     </g>
    </g>
    <g id="text_27">
     <!-- Difference (treatment minus baseline, arbitrary units) -->
     <g transform="translate(416.126776 348.676562) scale(0.1 -0.1)">
      <use xlink:href="#DejaVuSans-44"/>
      <use xlink:href="#DejaVuSans-69" x="77.001953"/>
      <use xlink:href="#DejaVuSans-66" x="104.785156"/>
      <use xlink:href="#DejaVuSans-66" x="139.990234"/>
      <use xlink:href="#DejaVuSans-65" x="175.195312"/>
      <use xlink:href="#DejaVuSans-72" x="236.71875"/>
      <use xlink:href="#DejaVuSans-65" x="275.582031"/>
      <use xlink:href="#DejaVuSans-6e" x="337.105469"/>
      <use xlink:href="#DejaVuSans-63" x="400.484375"/>
      <use xlink:href="#DejaVuSans-65" x="455.464844"/>
      <use xlink:href="#DejaVuSans-20" x="516.988281"/>
      <use xlink:href="#DejaVuSans-28" x="548.775391"/>
      <use xlink:href="#DejaVuSans-74" x="587.789062"/>
      <use xlink:href="#DejaVuSans-72" x="626.998047"/>
      <use xlink:href="#DejaVuSans-65" x="665.861328"/>
      <use xlink:href="#DejaVuSans-61" x="727.384766"/>
      <use xlink:href="#DejaVuSans-74" x="788.664062"/>
      <use xlink:href="#DejaVuSans-6d" x="827.873047"/>
      <use xlink:href="#DejaVuSans-65" x="925.285156"/>
      <use xlink:href="#DejaVuSans-6e" x="986.808594"/>
      <use xlink:href="#DejaVuSans-74" x="1050.1875"/>
      <use xlink:href="#DejaVuSans-20" x="1089.396484"/>
      <use xlink:href="#DejaVuSans-6d" x="1121.183594"/>
      <use xlink:href="#DejaVuSans-69" x="1218.595703"/>
      <use xlink:href="#DejaVuSans-6e" x="1246.378906"/>
      <use xlink:href="#DejaVuSans-75" x="1309.757812"/>
      <use xlink:href="#DejaVuSans-73" x="1373.136719"/>
      <use xlink:href="#DejaVuSans-20" x="1425.236328"/>
      <use xlink:href="#DejaVuSans-62" x="1457.023438"/>
      <use xlink:href="#DejaVuSans-61" x="1520.5"/>
      <use xlink:href="#DejaVuSans-73" x="1581.779297"/>
      <use xlink:href="#DejaVuSans-65" x="1633.878906"/>
      <use xlink:href="#DejaVuSans-6c" x="1695.402344"/>
      <use xlink:href="#DejaVuSans-69" x="1723.185547"/>
      <use xlink:href="#DejaVuSans-6e" x="1750.96875"/>
      <use xlink:href="#DejaVuSans-65" x="1814.347656"/>
      <use xlink:href="#DejaVuSans-2c" x="1875.871094"/>
      <use xlink:href="#DejaVuSans-20" x="1907.658203"/>
      <use xlink:href="#DejaVuSans-61" x="1939.445312"/>
      <use xlink:href="#DejaVuSans-72" x="2000.724609"/>
      <use xlink:href="#DejaVuSans-62" x="2041.837891"/>
      <use xlink:href="#DejaVuSans-69" x="2105.314453"/>
      <use xlink:href="#DejaVuSans-74" x="2133.097656"/>
      <use xlink:href="#DejaVuSans-72" x="2172.306641"/>
      <use xlink:href="#DejaVuSans-61" x="2213.419922"/>
      <use xlink:href="#DejaVuSans-72" x="2274.699219"/>
      <use xlink:href="#DejaVuSans-79" x="2315.8125"/>
      <use xlink:href="#DejaVuSans-20" x="2374.992188"/>
      <use xlink:href="#DejaVuSans-75" x="2406.779297"/>
      <use xlink:href="#DejaVuSans-6e" x="2470.158203"/>
      <use xlink:href="#DejaVuSans-69" x="2533.537109"/>
      <use xlink:href="#DejaVuSans-74" x="2561.320312"/>
      <use xlink:href="#DejaVuSans-73" x="2600.529297"/>
      <use xlink:href="#DejaVuSans-29" x="2652.628906"/>
     </g>
    </g>
   </g>
   <g id="matplotlib.axis_4">
    <g id="ytick_6">
     <g id="line2d_23">
      <g>
       <use xlink:href="#m44ff07edf4" x="398.523864" y="320.4" style="stroke: #000000; stroke-width: 0.8"/>
      </g>
     </g>
     <g id="text_28">
      <!-- 0 -->
      <g transform="translate(385.161364 324.199219) scale(0.1 -0.1)">
       <use xlink:href="#DejaVuSans-30"/>
      </g>
     </g>
    </g>
    <g id="ytick_7">
     <g id="line2d_24">
      <g>
       <use xlink:href="#m44ff07edf4" x="398.523864" y="282.57765" style="stroke: #000000; stroke-width: 0.8"/>
      </g>
     </g>
     <g id="text_29">
      <!-- 100 -->
      <g transform="translate(372.436364 286.376869) scale(0.1 -0.1)">
       <use xlink:href="#DejaVuSans-31"/>
       <use xlink:href="#DejaVuSans-30" x="63.623047"/>
       <use xlink:href="#DejaVuSans-30" x="127.246094"/>
      </g>
     </g>
    </g>
    <g id="ytick_8">
     <g id="line2d_25">
      <g>
       <use xlink:href="#m44ff07edf4" x="398.523864" y="244.755301" style="stroke: #000000; stroke-width: 0.8"/>
      </g>
     </g>
     <g id="text_30">
      <!-- 200 -->
      <g transform="translate(372.436364 248.55452) scale(0.1 -0.1)">
       <use xlink:href="#DejaVuSans-32"/>
       <use xlink:href="#DejaVuSans-30" x="63.623047"/>
       <use xlink:href="#DejaVuSans-30" x="127.246094"/>
      </g>
     </g>
    </g>
    <g id="ytick_9">
     <g id="line2d_26">
      <g>
       <use xlink:href="#m44ff07edf4" x="398.523864" y="206.932951" style="stroke: #000000; stroke-width: 0.8"/>
      </g>
     </g>
     <g id="text_31">
      <!-- 300 -->
      <g transform="translate(372.436364 210.73217) scale(0.1 -0.1)">
       <use xlink:href="#DejaVuSans-33"/>
       <use xlink:href="#DejaVuSans-30" x="63.623047"/>
       <use xlink:href="#DejaVuSans-30" x="127.246094"/>
      </g>
     </g>
    </g>
    <g id="ytick_10">
     <g id="line2d_27">
      <g>
       <use xlink:href="#m44ff07edf4" x="398.523864" y="169.110602" style="stroke: #000000; stroke-width: 0.8"/>
      </g>
     </g>
     <g id="text_32">
      <!-- 400 -->
      <g transform="translate(372.436364 172.90982) scale(0.1 -0.1)">
       <use xlink:href="#DejaVuSans-34"/>
       <use xlink:href="#DejaVuSans-30" x="63.623047"/>
       <use xlink:href="#DejaVuSans-30" x="127.246094"/>
      </g>
     </g>
    </g>
    <g id="ytick_11">
     <g id="line2d_28">
      <g>
       <use xlink:href="#m44ff07edf4" x="398.523864" y="131.288252" style="stroke: #000000; stroke-width: 0.8"/>
      </g>
     </g>
     <g id="text_33">
      <!-- 500 -->
      <g transform="translate(372.436364 135.087471) scale(0.1 -0.1)">
       <defs>
        <path id="DejaVuSans-35" d="M 691 4666 
L 3169 4666 
L 3169 4134 
L 1269 4134 
L 1269 2991 
Q 1406 3038 1543 3061 
Q 1681 3084 1819 3084 
Q 2600 3084 3056 2656 
Q 3513 2228 3513 1497 
Q 3513 744 3044 326 
Q 2575 -91 1722 -91 
Q 1428 -91 1123 -41 
Q 819 9 494 109 
L 494 744 
Q 775 591 1075 516 
Q 1375 441 1709 441 
Q 2250 441 2565 725 
Q 2881 1009 2881 1497 
Q 2881 1984 2565 2268 
Q 2250 2553 1709 2553 
Q 1456 2553 1204 2497 
Q 953 2441 691 2322 
L 691 4666 
z
" transform="scale(0.015625)"/>
       </defs>
       <use xlink:href="#DejaVuSans-35"/>
       <use xlink:href="#DejaVuSans-30" x="63.623047"/>
       <use xlink:href="#DejaVuSans-30" x="127.246094"/>
      </g>
     </g>
    </g>
    <g id="ytick_12">
     <g id="line2d_29">
      <g>
       <use xlink:href="#m44ff07edf4" x="398.523864" y="93.465903" style="stroke: #000000; stroke-width: 0.8"/>
      </g>
     </g>
     <g id="text_34">
      <!-- 600 -->
      <g transform="translate(372.436364 97.265121) scale(0.1 -0.1)">
       <use xlink:href="#DejaVuSans-36"/>
       <use xlink:href="#DejaVuSans-30" x="63.623047"/>
       <use xlink:href="#DejaVuSans-30" x="127.246094"/>
      </g>
     </g>
    </g>
    <g id="ytick_13">
     <g id="line2d_30">
      <g>
       <use xlink:href="#m44ff07edf4" x="398.523864" y="55.643553" style="stroke: #000000; stroke-width: 0.8"/>
      </g>
     </g>
     <g id="text_35">
      <!-- 700 -->
      <g transform="translate(372.436364 59.442772) scale(0.1 -0.1)">
       <use xlink:href="#DejaVuSans-37"/>
       <use xlink:href="#DejaVuSans-30" x="63.623047"/>
       <use xlink:href="#DejaVuSans-30" x="127.246094"/>
      </g>
     </g>
    </g>
   </g>
   <g id="line2d_31">
    <path d="M 578.479835 320.4 
L 578.479835 43.2 
" clip-path="url(#p982df254da)" style="fill: none; stroke-dasharray: 1.85,0.8; stroke-dashoffset: 0; stroke: #000000; stroke-width: 0.5"/>
   </g>
   <g id="patch_185">
    <path d="M 398.523864 320.4 
L 398.523864 43.2 
" style="fill: none; stroke: #000000; stroke-width: 0.8; stroke-linejoin: miter; stroke-linecap: square"/>
   </g>
   <g id="patch_186">
    <path d="M 702.8875 320.4 
L 702.8875 43.2 
" style="fill: none; stroke: #000000; stroke-width: 0.8; stroke-linejoin: miter; stroke-linecap: square"/>
   </g>
   <g id="patch_187">
    <path d="M 398.523864 320.4 
L 702.8875 320.4 
" style="fill: none; stroke: #000000; stroke-width: 0.8; stroke-linejoin: miter; stroke-linecap: square"/>
   </g>
   <g id="patch_188">
    <path d="M 398.523864 43.2 
L 702.8875 43.2 
" style="fill: none; stroke: #000000; stroke-width: 0.8; stroke-linejoin: miter; stroke-linecap: square"/>
   </g>
   <g id="text_36">
    <!-- Center -->
    <g transform="translate(530.510994 37.2) scale(0.12 -0.12)">
     <defs>
      <path id="DejaVuSans-43" d="M 4122 4306 
L 4122 3641 
Q 3803 3938 3442 4084 
Q 3081 4231 2675 4231 
Q 1875 4231 1450 3742 
Q 1025 3253 1025 2328 
Q 1025 1406 1450 917 
Q 1875 428 2675 428 
Q 3081 428 3442 575 
Q 3803 722 4122 1019 
L 4122 359 
Q 3791 134 3420 21 
Q 3050 -91 2638 -91 
Q 1578 -91 968 557 
Q 359 1206 359 2328 
Q 359 3453 968 4101 
Q 1578 4750 2638 4750 
Q 3056 4750 3426 4639 
Q 3797 4528 4122 4306 
z
" transform="scale(0.015625)"/>
     </defs>
     <use xlink:href="#DejaVuSans-43"/>
     <use xlink:href="#DejaVuSans-65" x="69.824219"/>
     <use xlink:href="#DejaVuSans-6e" x="131.347656"/>
     <use xlink:href="#DejaVuSans-74" x="194.726562"/>
     <use xlink:href="#DejaVuSans-65" x="233.935547"/>
     <use xlink:href="#DejaVuSans-72" x="295.458984"/>
    </g>
   </g>
   <g id="legend_2">
    <g id="patch_189">
     <path d="M 590.74375 66.57625 
L 610.74375 66.57625 
L 610.74375 59.57625 
L 590.74375 59.57625 
z
" style="fill: #66c2a5; opacity: 0.6"/>
    </g>
    <g id="text_37">
     <!-- after_ablation -->
     <g transform="translate(618.74375 59.798437) scale(0.1 -0.1)">
      <use xlink:href="#DejaVuSans-61"/>
      <use xlink:href="#DejaVuSans-66" x="61.279297"/>
      <use xlink:href="#DejaVuSans-74" x="94.734375"/>
      <use xlink:href="#DejaVuSans-65" x="133.943359"/>
      <use xlink:href="#DejaVuSans-72" x="195.466797"/>
      <use xlink:href="#DejaVuSans-5f" x="236.580078"/>
      <use xlink:href="#DejaVuSans-61" x="286.580078"/>
      <use xlink:href="#DejaVuSans-62" x="347.859375"/>
      <use xlink:href="#DejaVuSans-6c" x="411.335938"/>
      <use xlink:href="#DejaVuSans-61" x="439.119141"/>
      <use xlink:href="#DejaVuSans-74" x="500.398438"/>
      <use xlink:href="#DejaVuSans-69" x="539.607422"/>
      <use xlink:href="#DejaVuSans-6f" x="567.390625"/>
      <use xlink:href="#DejaVuSans-6e" x="628.572266"/>
     </g>
     <!-- prob +ve: 0.79 -->
     <g transform="translate(618.74375 71.274375) scale(0.1 -0.1)">
      <use xlink:href="#DejaVuSans-70"/>
      <use xlink:href="#DejaVuSans-72" x="63.476562"/>
      <use xlink:href="#DejaVuSans-6f" x="102.339844"/>
      <use xlink:href="#DejaVuSans-62" x="163.521484"/>
      <use xlink:href="#DejaVuSans-20" x="226.998047"/>
      <use xlink:href="#DejaVuSans-2b" x="258.785156"/>
      <use xlink:href="#DejaVuSans-76" x="342.574219"/>
      <use xlink:href="#DejaVuSans-65" x="401.753906"/>
      <use xlink:href="#DejaVuSans-3a" x="463.277344"/>
      <use xlink:href="#DejaVuSans-20" x="496.96875"/>
      <use xlink:href="#DejaVuSans-30" x="528.755859"/>
      <use xlink:href="#DejaVuSans-2e" x="592.378906"/>
      <use xlink:href="#DejaVuSans-37" x="624.166016"/>
      <use xlink:href="#DejaVuSans-39" x="687.789062"/>
     </g>
    </g>
    <g id="patch_190">
     <path d="M 590.74375 92.59125 
L 610.74375 92.59125 
L 610.74375 85.59125 
L 590.74375 85.59125 
z
" style="fill: #fc8d62; opacity: 0.6"/>
    </g>
    <g id="text_38">
     <!-- hyper -->
     <g transform="translate(618.74375 85.9525) scale(0.1 -0.1)">
      <use xlink:href="#DejaVuSans-68"/>
      <use xlink:href="#DejaVuSans-79" x="63.378906"/>
      <use xlink:href="#DejaVuSans-70" x="122.558594"/>
      <use xlink:href="#DejaVuSans-65" x="186.035156"/>
      <use xlink:href="#DejaVuSans-72" x="247.558594"/>
     </g>
     <!-- prob +ve: 0.27 -->
     <g transform="translate(618.74375 97.150312) scale(0.1 -0.1)">
      <use xlink:href="#DejaVuSans-70"/>
      <use xlink:href="#DejaVuSans-72" x="63.476562"/>
      <use xlink:href="#DejaVuSans-6f" x="102.339844"/>
      <use xlink:href="#DejaVuSans-62" x="163.521484"/>
      <use xlink:href="#DejaVuSans-20" x="226.998047"/>
      <use xlink:href="#DejaVuSans-2b" x="258.785156"/>
      <use xlink:href="#DejaVuSans-76" x="342.574219"/>
      <use xlink:href="#DejaVuSans-65" x="401.753906"/>
      <use xlink:href="#DejaVuSans-3a" x="463.277344"/>
      <use xlink:href="#DejaVuSans-20" x="496.96875"/>
      <use xlink:href="#DejaVuSans-30" x="528.755859"/>
      <use xlink:href="#DejaVuSans-2e" x="592.378906"/>
      <use xlink:href="#DejaVuSans-32" x="624.166016"/>
      <use xlink:href="#DejaVuSans-37" x="687.789062"/>
     </g>
    </g>
    <g id="patch_191">
     <path d="M 590.74375 118.467187 
L 610.74375 118.467187 
L 610.74375 111.467187 
L 590.74375 111.467187 
z
" style="fill: #8da0cb; opacity: 0.6"/>
    </g>
    <g id="text_39">
     <!-- hyper2 -->
     <g transform="translate(618.74375 111.828437) scale(0.1 -0.1)">
      <use xlink:href="#DejaVuSans-68"/>
      <use xlink:href="#DejaVuSans-79" x="63.378906"/>
      <use xlink:href="#DejaVuSans-70" x="122.558594"/>
      <use xlink:href="#DejaVuSans-65" x="186.035156"/>
      <use xlink:href="#DejaVuSans-72" x="247.558594"/>
      <use xlink:href="#DejaVuSans-32" x="288.671875"/>
     </g>
     <!-- prob +ve: 0.21 -->
     <g transform="translate(618.74375 123.02625) scale(0.1 -0.1)">
      <use xlink:href="#DejaVuSans-70"/>
      <use xlink:href="#DejaVuSans-72" x="63.476562"/>
      <use xlink:href="#DejaVuSans-6f" x="102.339844"/>
      <use xlink:href="#DejaVuSans-62" x="163.521484"/>
      <use xlink:href="#DejaVuSans-20" x="226.998047"/>
      <use xlink:href="#DejaVuSans-2b" x="258.785156"/>
      <use xlink:href="#DejaVuSans-76" x="342.574219"/>
      <use xlink:href="#DejaVuSans-65" x="401.753906"/>
      <use xlink:href="#DejaVuSans-3a" x="463.277344"/>
      <use xlink:href="#DejaVuSans-20" x="496.96875"/>
      <use xlink:href="#DejaVuSans-30" x="528.755859"/>
      <use xlink:href="#DejaVuSans-2e" x="592.378906"/>
      <use xlink:href="#DejaVuSans-32" x="624.166016"/>
      <use xlink:href="#DejaVuSans-31" x="687.789062"/>
     </g>
    </g>
   </g>
  </g>
  <g id="text_40">
   <!-- Treatment effect differences relative to baseline (basic model with full dataset) -->
   <g transform="translate(119.712813 16.318125) scale(0.12 -0.12)">
    <defs>
     <path id="DejaVuSans-54" d="M -19 4666 
L 3928 4666 
L 3928 4134 
L 2272 4134 
L 2272 0 
L 1638 0 
L 1638 4134 
L -19 4134 
L -19 4666 
z
" transform="scale(0.015625)"/>
     <path id="DejaVuSans-64" d="M 2906 2969 
L 2906 4863 
L 3481 4863 
L 3481 0 
L 2906 0 
L 2906 525 
Q 2725 213 2448 61 
Q 2172 -91 1784 -91 
Q 1150 -91 751 415 
Q 353 922 353 1747 
Q 353 2572 751 3078 
Q 1150 3584 1784 3584 
Q 2172 3584 2448 3432 
Q 2725 3281 2906 2969 
z
M 947 1747 
Q 947 1113 1208 752 
Q 1469 391 1925 391 
Q 2381 391 2643 752 
Q 2906 1113 2906 1747 
Q 2906 2381 2643 2742 
Q 2381 3103 1925 3103 
Q 1469 3103 1208 2742 
Q 947 2381 947 1747 
z
" transform="scale(0.015625)"/>
     <path id="DejaVuSans-77" d="M 269 3500 
L 844 3500 
L 1563 769 
L 2278 3500 
L 2956 3500 
L 3675 769 
L 4391 3500 
L 4966 3500 
L 4050 0 
L 3372 0 
L 2619 2869 
L 1863 0 
L 1184 0 
L 269 3500 
z
" transform="scale(0.015625)"/>
    </defs>
    <use xlink:href="#DejaVuSans-54"/>
    <use xlink:href="#DejaVuSans-72" x="46.333984"/>
    <use xlink:href="#DejaVuSans-65" x="85.197266"/>
    <use xlink:href="#DejaVuSans-61" x="146.720703"/>
    <use xlink:href="#DejaVuSans-74" x="208"/>
    <use xlink:href="#DejaVuSans-6d" x="247.208984"/>
    <use xlink:href="#DejaVuSans-65" x="344.621094"/>
    <use xlink:href="#DejaVuSans-6e" x="406.144531"/>
    <use xlink:href="#DejaVuSans-74" x="469.523438"/>
    <use xlink:href="#DejaVuSans-20" x="508.732422"/>
    <use xlink:href="#DejaVuSans-65" x="540.519531"/>
    <use xlink:href="#DejaVuSans-66" x="602.042969"/>
    <use xlink:href="#DejaVuSans-66" x="637.248047"/>
    <use xlink:href="#DejaVuSans-65" x="672.453125"/>
    <use xlink:href="#DejaVuSans-63" x="733.976562"/>
    <use xlink:href="#DejaVuSans-74" x="788.957031"/>
    <use xlink:href="#DejaVuSans-20" x="828.166016"/>
    <use xlink:href="#DejaVuSans-64" x="859.953125"/>
    <use xlink:href="#DejaVuSans-69" x="923.429688"/>
    <use xlink:href="#DejaVuSans-66" x="951.212891"/>
    <use xlink:href="#DejaVuSans-66" x="986.417969"/>
    <use xlink:href="#DejaVuSans-65" x="1021.623047"/>
    <use xlink:href="#DejaVuSans-72" x="1083.146484"/>
    <use xlink:href="#DejaVuSans-65" x="1122.009766"/>
    <use xlink:href="#DejaVuSans-6e" x="1183.533203"/>
    <use xlink:href="#DejaVuSans-63" x="1246.912109"/>
    <use xlink:href="#DejaVuSans-65" x="1301.892578"/>
    <use xlink:href="#DejaVuSans-73" x="1363.416016"/>
    <use xlink:href="#DejaVuSans-20" x="1415.515625"/>
    <use xlink:href="#DejaVuSans-72" x="1447.302734"/>
    <use xlink:href="#DejaVuSans-65" x="1486.166016"/>
    <use xlink:href="#DejaVuSans-6c" x="1547.689453"/>
    <use xlink:href="#DejaVuSans-61" x="1575.472656"/>
    <use xlink:href="#DejaVuSans-74" x="1636.751953"/>
    <use xlink:href="#DejaVuSans-69" x="1675.960938"/>
    <use xlink:href="#DejaVuSans-76" x="1703.744141"/>
    <use xlink:href="#DejaVuSans-65" x="1762.923828"/>
    <use xlink:href="#DejaVuSans-20" x="1824.447266"/>
    <use xlink:href="#DejaVuSans-74" x="1856.234375"/>
    <use xlink:href="#DejaVuSans-6f" x="1895.443359"/>
    <use xlink:href="#DejaVuSans-20" x="1956.625"/>
    <use xlink:href="#DejaVuSans-62" x="1988.412109"/>
    <use xlink:href="#DejaVuSans-61" x="2051.888672"/>
    <use xlink:href="#DejaVuSans-73" x="2113.167969"/>
    <use xlink:href="#DejaVuSans-65" x="2165.267578"/>
    <use xlink:href="#DejaVuSans-6c" x="2226.791016"/>
    <use xlink:href="#DejaVuSans-69" x="2254.574219"/>
    <use xlink:href="#DejaVuSans-6e" x="2282.357422"/>
    <use xlink:href="#DejaVuSans-65" x="2345.736328"/>
    <use xlink:href="#DejaVuSans-20" x="2407.259766"/>
    <use xlink:href="#DejaVuSans-28" x="2439.046875"/>
    <use xlink:href="#DejaVuSans-62" x="2478.060547"/>
    <use xlink:href="#DejaVuSans-61" x="2541.537109"/>
    <use xlink:href="#DejaVuSans-73" x="2602.816406"/>
    <use xlink:href="#DejaVuSans-69" x="2654.916016"/>
    <use xlink:href="#DejaVuSans-63" x="2682.699219"/>
    <use xlink:href="#DejaVuSans-20" x="2737.679688"/>
    <use xlink:href="#DejaVuSans-6d" x="2769.466797"/>
    <use xlink:href="#DejaVuSans-6f" x="2866.878906"/>
    <use xlink:href="#DejaVuSans-64" x="2928.060547"/>
    <use xlink:href="#DejaVuSans-65" x="2991.537109"/>
    <use xlink:href="#DejaVuSans-6c" x="3053.060547"/>
    <use xlink:href="#DejaVuSans-20" x="3080.84375"/>
    <use xlink:href="#DejaVuSans-77" x="3112.630859"/>
    <use xlink:href="#DejaVuSans-69" x="3194.417969"/>
    <use xlink:href="#DejaVuSans-74" x="3222.201172"/>
    <use xlink:href="#DejaVuSans-68" x="3261.410156"/>
    <use xlink:href="#DejaVuSans-20" x="3324.789062"/>
    <use xlink:href="#DejaVuSans-66" x="3356.576172"/>
    <use xlink:href="#DejaVuSans-75" x="3391.78125"/>
    <use xlink:href="#DejaVuSans-6c" x="3455.160156"/>
    <use xlink:href="#DejaVuSans-6c" x="3482.943359"/>
    <use xlink:href="#DejaVuSans-20" x="3510.726562"/>
    <use xlink:href="#DejaVuSans-64" x="3542.513672"/>
    <use xlink:href="#DejaVuSans-61" x="3605.990234"/>
    <use xlink:href="#DejaVuSans-74" x="3667.269531"/>
    <use xlink:href="#DejaVuSans-61" x="3706.478516"/>
    <use xlink:href="#DejaVuSans-73" x="3767.757812"/>
    <use xlink:href="#DejaVuSans-65" x="3819.857422"/>
    <use xlink:href="#DejaVuSans-74" x="3881.380859"/>
    <use xlink:href="#DejaVuSans-29" x="3920.589844"/>
   </g>
  </g>
 </g>
 <defs>
  <clipPath id="p030c9a4cb1">
   <rect x="33.2875" y="43.2" width="304.363636" height="277.2"/>
  </clipPath>
  <clipPath id="p982df254da">
   <rect x="398.523864" y="43.2" width="304.363636" height="277.2"/>
  </clipPath>
 </defs>
</svg>
