<?xml version="1.0" encoding="utf-8" standalone="no"?>
<!DOCTYPE svg PUBLIC "-//W3C//DTD SVG 1.1//EN"
  "http://www.w3.org/Graphics/SVG/1.1/DTD/svg11.dtd">
<svg xmlns:xlink="http://www.w3.org/1999/xlink" width="710.0875pt" height="357.95625pt" viewBox="0 0 710.0875 357.95625" xmlns="http://www.w3.org/2000/svg" version="1.1">
 <metadata>
  <rdf:RDF xmlns:dc="http://purl.org/dc/elements/1.1/" xmlns:cc="http://creativecommons.org/ns#" xmlns:rdf="http://www.w3.org/1999/02/22-rdf-syntax-ns#">
   <cc:Work>
    <dc:type rdf:resource="http://purl.org/dc/dcmitype/StillImage"/>
    <dc:date>2024-11-18T14:15:34.758108</dc:date>
    <dc:format>image/svg+xml</dc:format>
    <dc:creator>
     <cc:Agent>
      <dc:title>Matplotlib v3.9.2, https://matplotlib.org/</dc:title>
     </cc:Agent>
    </dc:creator>
   </cc:Work>
  </rdf:RDF>
 </metadata>
 <defs>
  <style type="text/css">*{stroke-linejoin: round; stroke-linecap: butt}</style>
 </defs>
 <g id="figure_1">
  <g id="patch_1">
   <path d="M 0 357.95625 
L 710.0875 357.95625 
L 710.0875 0 
L 0 0 
z
" style="fill: #ffffff"/>
  </g>
  <g id="axes_1">
   <g id="patch_2">
    <path d="M 33.2875 320.4 
L 337.651136 320.4 
L 337.651136 43.2 
L 33.2875 43.2 
z
" style="fill: #ffffff"/>
   </g>
   <g id="patch_3">
    <path d="M 183.250207 320.4 
L 187.818377 320.4 
L 187.818377 319.306832 
L 183.250207 319.306832 
z
" clip-path="url(#pa070a116ea)" style="fill: #66c2a5; opacity: 0.6"/>
   </g>
   <g id="patch_4">
    <path d="M 187.818377 320.4 
L 192.386546 320.4 
L 192.386546 318.760248 
L 187.818377 318.760248 
z
" clip-path="url(#pa070a116ea)" style="fill: #66c2a5; opacity: 0.6"/>
   </g>
   <g id="patch_5">
    <path d="M 192.386546 320.4 
L 196.954716 320.4 
L 196.954716 314.934161 
L 192.386546 314.934161 
z
" clip-path="url(#pa070a116ea)" style="fill: #66c2a5; opacity: 0.6"/>
   </g>
   <g id="patch_6">
    <path d="M 196.954716 320.4 
L 201.522885 320.4 
L 201.522885 312.747826 
L 196.954716 312.747826 
z
" clip-path="url(#pa070a116ea)" style="fill: #66c2a5; opacity: 0.6"/>
   </g>
   <g id="patch_7">
    <path d="M 201.522885 320.4 
L 206.091054 320.4 
L 206.091054 304.549068 
L 201.522885 304.549068 
z
" clip-path="url(#pa070a116ea)" style="fill: #66c2a5; opacity: 0.6"/>
   </g>
   <g id="patch_8">
    <path d="M 206.091054 320.4 
L 210.659224 320.4 
L 210.659224 277.76646 
L 206.091054 277.76646 
z
" clip-path="url(#pa070a116ea)" style="fill: #66c2a5; opacity: 0.6"/>
   </g>
   <g id="patch_9">
    <path d="M 210.659224 320.4 
L 215.227393 320.4 
L 215.227393 258.089441 
L 210.659224 258.089441 
z
" clip-path="url(#pa070a116ea)" style="fill: #66c2a5; opacity: 0.6"/>
   </g>
   <g id="patch_10">
    <path d="M 215.227393 320.4 
L 219.795563 320.4 
L 219.795563 239.50559 
L 215.227393 239.50559 
z
" clip-path="url(#pa070a116ea)" style="fill: #66c2a5; opacity: 0.6"/>
   </g>
   <g id="patch_11">
    <path d="M 219.795563 320.4 
L 224.363732 320.4 
L 224.363732 228.573913 
L 219.795563 228.573913 
z
" clip-path="url(#pa070a116ea)" style="fill: #66c2a5; opacity: 0.6"/>
   </g>
   <g id="patch_12">
    <path d="M 224.363732 320.4 
L 228.931902 320.4 
L 228.931902 196.325466 
L 224.363732 196.325466 
z
" clip-path="url(#pa070a116ea)" style="fill: #66c2a5; opacity: 0.6"/>
   </g>
   <g id="patch_13">
    <path d="M 228.931902 320.4 
L 233.500071 320.4 
L 233.500071 181.567702 
L 228.931902 181.567702 
z
" clip-path="url(#pa070a116ea)" style="fill: #66c2a5; opacity: 0.6"/>
   </g>
   <g id="patch_14">
    <path d="M 233.500071 320.4 
L 238.06824 320.4 
L 238.06824 141.120497 
L 233.500071 141.120497 
z
" clip-path="url(#pa070a116ea)" style="fill: #66c2a5; opacity: 0.6"/>
   </g>
   <g id="patch_15">
    <path d="M 238.06824 320.4 
L 242.63641 320.4 
L 242.63641 124.722981 
L 238.06824 124.722981 
z
" clip-path="url(#pa070a116ea)" style="fill: #66c2a5; opacity: 0.6"/>
   </g>
   <g id="patch_16">
    <path d="M 242.63641 320.4 
L 247.204579 320.4 
L 247.204579 116.524224 
L 242.63641 116.524224 
z
" clip-path="url(#pa070a116ea)" style="fill: #66c2a5; opacity: 0.6"/>
   </g>
   <g id="patch_17">
    <path d="M 247.204579 320.4 
L 251.772749 320.4 
L 251.772749 109.965217 
L 247.204579 109.965217 
z
" clip-path="url(#pa070a116ea)" style="fill: #66c2a5; opacity: 0.6"/>
   </g>
   <g id="patch_18">
    <path d="M 251.772749 320.4 
L 256.340918 320.4 
L 256.340918 134.561491 
L 251.772749 134.561491 
z
" clip-path="url(#pa070a116ea)" style="fill: #66c2a5; opacity: 0.6"/>
   </g>
   <g id="patch_19">
    <path d="M 256.340918 320.4 
L 260.909087 320.4 
L 260.909087 135.654658 
L 256.340918 135.654658 
z
" clip-path="url(#pa070a116ea)" style="fill: #66c2a5; opacity: 0.6"/>
   </g>
   <g id="patch_20">
    <path d="M 260.909087 320.4 
L 265.477257 320.4 
L 265.477257 183.207453 
L 260.909087 183.207453 
z
" clip-path="url(#pa070a116ea)" style="fill: #66c2a5; opacity: 0.6"/>
   </g>
   <g id="patch_21">
    <path d="M 265.477257 320.4 
L 270.045426 320.4 
L 270.045426 223.654658 
L 265.477257 223.654658 
z
" clip-path="url(#pa070a116ea)" style="fill: #66c2a5; opacity: 0.6"/>
   </g>
   <g id="patch_22">
    <path d="M 270.045426 320.4 
L 274.613596 320.4 
L 274.613596 243.331677 
L 270.045426 243.331677 
z
" clip-path="url(#pa070a116ea)" style="fill: #66c2a5; opacity: 0.6"/>
   </g>
   <g id="patch_23">
    <path d="M 274.613596 320.4 
L 279.181765 320.4 
L 279.181765 271.207453 
L 274.613596 271.207453 
z
" clip-path="url(#pa070a116ea)" style="fill: #66c2a5; opacity: 0.6"/>
   </g>
   <g id="patch_24">
    <path d="M 279.181765 320.4 
L 283.749935 320.4 
L 283.749935 282.685714 
L 279.181765 282.685714 
z
" clip-path="url(#pa070a116ea)" style="fill: #66c2a5; opacity: 0.6"/>
   </g>
   <g id="patch_25">
    <path d="M 283.749935 320.4 
L 288.318104 320.4 
L 288.318104 294.710559 
L 283.749935 294.710559 
z
" clip-path="url(#pa070a116ea)" style="fill: #66c2a5; opacity: 0.6"/>
   </g>
   <g id="patch_26">
    <path d="M 288.318104 320.4 
L 292.886273 320.4 
L 292.886273 308.921739 
L 288.318104 308.921739 
z
" clip-path="url(#pa070a116ea)" style="fill: #66c2a5; opacity: 0.6"/>
   </g>
   <g id="patch_27">
    <path d="M 292.886273 320.4 
L 297.454443 320.4 
L 297.454443 311.654658 
L 292.886273 311.654658 
z
" clip-path="url(#pa070a116ea)" style="fill: #66c2a5; opacity: 0.6"/>
   </g>
   <g id="patch_28">
    <path d="M 297.454443 320.4 
L 302.022612 320.4 
L 302.022612 317.667081 
L 297.454443 317.667081 
z
" clip-path="url(#pa070a116ea)" style="fill: #66c2a5; opacity: 0.6"/>
   </g>
   <g id="patch_29">
    <path d="M 302.022612 320.4 
L 306.590782 320.4 
L 306.590782 317.667081 
L 302.022612 317.667081 
z
" clip-path="url(#pa070a116ea)" style="fill: #66c2a5; opacity: 0.6"/>
   </g>
   <g id="patch_30">
    <path d="M 306.590782 320.4 
L 311.158951 320.4 
L 311.158951 316.573913 
L 306.590782 316.573913 
z
" clip-path="url(#pa070a116ea)" style="fill: #66c2a5; opacity: 0.6"/>
   </g>
   <g id="patch_31">
    <path d="M 311.158951 320.4 
L 315.72712 320.4 
L 315.72712 319.306832 
L 311.158951 319.306832 
z
" clip-path="url(#pa070a116ea)" style="fill: #66c2a5; opacity: 0.6"/>
   </g>
   <g id="patch_32">
    <path d="M 141.281986 320.4 
L 147.576277 320.4 
L 147.576277 318.760248 
L 141.281986 318.760248 
z
" clip-path="url(#pa070a116ea)" style="fill: #fc8d62; opacity: 0.6"/>
   </g>
   <g id="patch_33">
    <path d="M 147.576277 320.4 
L 153.870568 320.4 
L 153.870568 320.4 
L 147.576277 320.4 
z
" clip-path="url(#pa070a116ea)" style="fill: #fc8d62; opacity: 0.6"/>
   </g>
   <g id="patch_34">
    <path d="M 153.870568 320.4 
L 160.164859 320.4 
L 160.164859 320.4 
L 153.870568 320.4 
z
" clip-path="url(#pa070a116ea)" style="fill: #fc8d62; opacity: 0.6"/>
   </g>
   <g id="patch_35">
    <path d="M 160.164859 320.4 
L 166.45915 320.4 
L 166.45915 318.213665 
L 160.164859 318.213665 
z
" clip-path="url(#pa070a116ea)" style="fill: #fc8d62; opacity: 0.6"/>
   </g>
   <g id="patch_36">
    <path d="M 166.45915 320.4 
L 172.753441 320.4 
L 172.753441 314.934161 
L 166.45915 314.934161 
z
" clip-path="url(#pa070a116ea)" style="fill: #fc8d62; opacity: 0.6"/>
   </g>
   <g id="patch_37">
    <path d="M 172.753441 320.4 
L 179.047732 320.4 
L 179.047732 307.828571 
L 172.753441 307.828571 
z
" clip-path="url(#pa070a116ea)" style="fill: #fc8d62; opacity: 0.6"/>
   </g>
   <g id="patch_38">
    <path d="M 179.047732 320.4 
L 185.342023 320.4 
L 185.342023 298.536646 
L 179.047732 298.536646 
z
" clip-path="url(#pa070a116ea)" style="fill: #fc8d62; opacity: 0.6"/>
   </g>
   <g id="patch_39">
    <path d="M 185.342023 320.4 
L 191.636314 320.4 
L 191.636314 271.754037 
L 185.342023 271.754037 
z
" clip-path="url(#pa070a116ea)" style="fill: #fc8d62; opacity: 0.6"/>
   </g>
   <g id="patch_40">
    <path d="M 191.636314 320.4 
L 197.930605 320.4 
L 197.930605 247.157764 
L 191.636314 247.157764 
z
" clip-path="url(#pa070a116ea)" style="fill: #fc8d62; opacity: 0.6"/>
   </g>
   <g id="patch_41">
    <path d="M 197.930605 320.4 
L 204.224896 320.4 
L 204.224896 199.604969 
L 197.930605 199.604969 
z
" clip-path="url(#pa070a116ea)" style="fill: #fc8d62; opacity: 0.6"/>
   </g>
   <g id="patch_42">
    <path d="M 204.224896 320.4 
L 210.519187 320.4 
L 210.519187 132.375155 
L 204.224896 132.375155 
z
" clip-path="url(#pa070a116ea)" style="fill: #fc8d62; opacity: 0.6"/>
   </g>
   <g id="patch_43">
    <path d="M 210.519187 320.4 
L 216.813478 320.4 
L 216.813478 91.92795 
L 210.519187 91.92795 
z
" clip-path="url(#pa070a116ea)" style="fill: #fc8d62; opacity: 0.6"/>
   </g>
   <g id="patch_44">
    <path d="M 216.813478 320.4 
L 223.107769 320.4 
L 223.107769 56.4 
L 216.813478 56.4 
z
" clip-path="url(#pa070a116ea)" style="fill: #fc8d62; opacity: 0.6"/>
   </g>
   <g id="patch_45">
    <path d="M 223.107769 320.4 
L 229.40206 320.4 
L 229.40206 56.4 
L 223.107769 56.4 
z
" clip-path="url(#pa070a116ea)" style="fill: #fc8d62; opacity: 0.6"/>
   </g>
   <g id="patch_46">
    <path d="M 229.40206 320.4 
L 235.696351 320.4 
L 235.696351 88.648447 
L 229.40206 88.648447 
z
" clip-path="url(#pa070a116ea)" style="fill: #fc8d62; opacity: 0.6"/>
   </g>
   <g id="patch_47">
    <path d="M 235.696351 320.4 
L 241.990642 320.4 
L 241.990642 100.126708 
L 235.696351 100.126708 
z
" clip-path="url(#pa070a116ea)" style="fill: #fc8d62; opacity: 0.6"/>
   </g>
   <g id="patch_48">
    <path d="M 241.990642 320.4 
L 248.284933 320.4 
L 248.284933 149.319255 
L 241.990642 149.319255 
z
" clip-path="url(#pa070a116ea)" style="fill: #fc8d62; opacity: 0.6"/>
   </g>
   <g id="patch_49">
    <path d="M 248.284933 320.4 
L 254.579224 320.4 
L 254.579224 197.418634 
L 248.284933 197.418634 
z
" clip-path="url(#pa070a116ea)" style="fill: #fc8d62; opacity: 0.6"/>
   </g>
   <g id="patch_50">
    <path d="M 254.579224 320.4 
L 260.873515 320.4 
L 260.873515 241.691925 
L 254.579224 241.691925 
z
" clip-path="url(#pa070a116ea)" style="fill: #fc8d62; opacity: 0.6"/>
   </g>
   <g id="patch_51">
    <path d="M 260.873515 320.4 
L 267.167806 320.4 
L 267.167806 269.021118 
L 260.873515 269.021118 
z
" clip-path="url(#pa070a116ea)" style="fill: #fc8d62; opacity: 0.6"/>
   </g>
   <g id="patch_52">
    <path d="M 267.167806 320.4 
L 273.462097 320.4 
L 273.462097 282.685714 
L 267.167806 282.685714 
z
" clip-path="url(#pa070a116ea)" style="fill: #fc8d62; opacity: 0.6"/>
   </g>
   <g id="patch_53">
    <path d="M 273.462097 320.4 
L 279.756388 320.4 
L 279.756388 300.176398 
L 273.462097 300.176398 
z
" clip-path="url(#pa070a116ea)" style="fill: #fc8d62; opacity: 0.6"/>
   </g>
   <g id="patch_54">
    <path d="M 279.756388 320.4 
L 286.050679 320.4 
L 286.050679 310.561491 
L 279.756388 310.561491 
z
" clip-path="url(#pa070a116ea)" style="fill: #fc8d62; opacity: 0.6"/>
   </g>
   <g id="patch_55">
    <path d="M 286.050679 320.4 
L 292.34497 320.4 
L 292.34497 312.747826 
L 286.050679 312.747826 
z
" clip-path="url(#pa070a116ea)" style="fill: #fc8d62; opacity: 0.6"/>
   </g>
   <g id="patch_56">
    <path d="M 292.34497 320.4 
L 298.639261 320.4 
L 298.639261 318.213665 
L 292.34497 318.213665 
z
" clip-path="url(#pa070a116ea)" style="fill: #fc8d62; opacity: 0.6"/>
   </g>
   <g id="patch_57">
    <path d="M 298.639261 320.4 
L 304.933553 320.4 
L 304.933553 319.853416 
L 298.639261 319.853416 
z
" clip-path="url(#pa070a116ea)" style="fill: #fc8d62; opacity: 0.6"/>
   </g>
   <g id="patch_58">
    <path d="M 304.933553 320.4 
L 311.227844 320.4 
L 311.227844 319.853416 
L 304.933553 319.853416 
z
" clip-path="url(#pa070a116ea)" style="fill: #fc8d62; opacity: 0.6"/>
   </g>
   <g id="patch_59">
    <path d="M 311.227844 320.4 
L 317.522135 320.4 
L 317.522135 320.4 
L 311.227844 320.4 
z
" clip-path="url(#pa070a116ea)" style="fill: #fc8d62; opacity: 0.6"/>
   </g>
   <g id="patch_60">
    <path d="M 317.522135 320.4 
L 323.816426 320.4 
L 323.816426 319.853416 
L 317.522135 319.853416 
z
" clip-path="url(#pa070a116ea)" style="fill: #fc8d62; opacity: 0.6"/>
   </g>
   <g id="patch_61">
    <path d="M 71.099249 320.4 
L 78.008899 320.4 
L 78.008899 319.853416 
L 71.099249 319.853416 
z
" clip-path="url(#pa070a116ea)" style="fill: #8da0cb; opacity: 0.6"/>
   </g>
   <g id="patch_62">
    <path d="M 78.008899 320.4 
L 84.918548 320.4 
L 84.918548 319.853416 
L 78.008899 319.853416 
z
" clip-path="url(#pa070a116ea)" style="fill: #8da0cb; opacity: 0.6"/>
   </g>
   <g id="patch_63">
    <path d="M 84.918548 320.4 
L 91.828197 320.4 
L 91.828197 320.4 
L 84.918548 320.4 
z
" clip-path="url(#pa070a116ea)" style="fill: #8da0cb; opacity: 0.6"/>
   </g>
   <g id="patch_64">
    <path d="M 91.828197 320.4 
L 98.737847 320.4 
L 98.737847 317.667081 
L 91.828197 317.667081 
z
" clip-path="url(#pa070a116ea)" style="fill: #8da0cb; opacity: 0.6"/>
   </g>
   <g id="patch_65">
    <path d="M 98.737847 320.4 
L 105.647496 320.4 
L 105.647496 316.027329 
L 98.737847 316.027329 
z
" clip-path="url(#pa070a116ea)" style="fill: #8da0cb; opacity: 0.6"/>
   </g>
   <g id="patch_66">
    <path d="M 105.647496 320.4 
L 112.557146 320.4 
L 112.557146 313.29441 
L 105.647496 313.29441 
z
" clip-path="url(#pa070a116ea)" style="fill: #8da0cb; opacity: 0.6"/>
   </g>
   <g id="patch_67">
    <path d="M 112.557146 320.4 
L 119.466795 320.4 
L 119.466795 310.561491 
L 112.557146 310.561491 
z
" clip-path="url(#pa070a116ea)" style="fill: #8da0cb; opacity: 0.6"/>
   </g>
   <g id="patch_68">
    <path d="M 119.466795 320.4 
L 126.376444 320.4 
L 126.376444 304.002484 
L 119.466795 304.002484 
z
" clip-path="url(#pa070a116ea)" style="fill: #8da0cb; opacity: 0.6"/>
   </g>
   <g id="patch_69">
    <path d="M 126.376444 320.4 
L 133.286094 320.4 
L 133.286094 294.163975 
L 126.376444 294.163975 
z
" clip-path="url(#pa070a116ea)" style="fill: #8da0cb; opacity: 0.6"/>
   </g>
   <g id="patch_70">
    <path d="M 133.286094 320.4 
L 140.195743 320.4 
L 140.195743 285.418634 
L 133.286094 285.418634 
z
" clip-path="url(#pa070a116ea)" style="fill: #8da0cb; opacity: 0.6"/>
   </g>
   <g id="patch_71">
    <path d="M 140.195743 320.4 
L 147.105393 320.4 
L 147.105393 254.263354 
L 140.195743 254.263354 
z
" clip-path="url(#pa070a116ea)" style="fill: #8da0cb; opacity: 0.6"/>
   </g>
   <g id="patch_72">
    <path d="M 147.105393 320.4 
L 154.015042 320.4 
L 154.015042 238.959006 
L 147.105393 238.959006 
z
" clip-path="url(#pa070a116ea)" style="fill: #8da0cb; opacity: 0.6"/>
   </g>
   <g id="patch_73">
    <path d="M 154.015042 320.4 
L 160.924691 320.4 
L 160.924691 217.642236 
L 154.015042 217.642236 
z
" clip-path="url(#pa070a116ea)" style="fill: #8da0cb; opacity: 0.6"/>
   </g>
   <g id="patch_74">
    <path d="M 160.924691 320.4 
L 167.834341 320.4 
L 167.834341 195.232298 
L 160.924691 195.232298 
z
" clip-path="url(#pa070a116ea)" style="fill: #8da0cb; opacity: 0.6"/>
   </g>
   <g id="patch_75">
    <path d="M 167.834341 320.4 
L 174.74399 320.4 
L 174.74399 153.691925 
L 167.834341 153.691925 
z
" clip-path="url(#pa070a116ea)" style="fill: #8da0cb; opacity: 0.6"/>
   </g>
   <g id="patch_76">
    <path d="M 174.74399 320.4 
L 181.65364 320.4 
L 181.65364 133.468323 
L 174.74399 133.468323 
z
" clip-path="url(#pa070a116ea)" style="fill: #8da0cb; opacity: 0.6"/>
   </g>
   <g id="patch_77">
    <path d="M 181.65364 320.4 
L 188.563289 320.4 
L 188.563289 110.511801 
L 181.65364 110.511801 
z
" clip-path="url(#pa070a116ea)" style="fill: #8da0cb; opacity: 0.6"/>
   </g>
   <g id="patch_78">
    <path d="M 188.563289 320.4 
L 195.472938 320.4 
L 195.472938 99.03354 
L 188.563289 99.03354 
z
" clip-path="url(#pa070a116ea)" style="fill: #8da0cb; opacity: 0.6"/>
   </g>
   <g id="patch_79">
    <path d="M 195.472938 320.4 
L 202.382588 320.4 
L 202.382588 89.195031 
L 195.472938 89.195031 
z
" clip-path="url(#pa070a116ea)" style="fill: #8da0cb; opacity: 0.6"/>
   </g>
   <g id="patch_80">
    <path d="M 202.382588 320.4 
L 209.292237 320.4 
L 209.292237 112.151553 
L 202.382588 112.151553 
z
" clip-path="url(#pa070a116ea)" style="fill: #8da0cb; opacity: 0.6"/>
   </g>
   <g id="patch_81">
    <path d="M 209.292237 320.4 
L 216.201887 320.4 
L 216.201887 128.549068 
L 209.292237 128.549068 
z
" clip-path="url(#pa070a116ea)" style="fill: #8da0cb; opacity: 0.6"/>
   </g>
   <g id="patch_82">
    <path d="M 216.201887 320.4 
L 223.111536 320.4 
L 223.111536 191.406211 
L 216.201887 191.406211 
z
" clip-path="url(#pa070a116ea)" style="fill: #8da0cb; opacity: 0.6"/>
   </g>
   <g id="patch_83">
    <path d="M 223.111536 320.4 
L 230.021185 320.4 
L 230.021185 249.890683 
L 223.111536 249.890683 
z
" clip-path="url(#pa070a116ea)" style="fill: #8da0cb; opacity: 0.6"/>
   </g>
   <g id="patch_84">
    <path d="M 230.021185 320.4 
L 236.930835 320.4 
L 236.930835 274.486957 
L 230.021185 274.486957 
z
" clip-path="url(#pa070a116ea)" style="fill: #8da0cb; opacity: 0.6"/>
   </g>
   <g id="patch_85">
    <path d="M 236.930835 320.4 
L 243.840484 320.4 
L 243.840484 298.536646 
L 236.930835 298.536646 
z
" clip-path="url(#pa070a116ea)" style="fill: #8da0cb; opacity: 0.6"/>
   </g>
   <g id="patch_86">
    <path d="M 243.840484 320.4 
L 250.750134 320.4 
L 250.750134 307.281988 
L 243.840484 307.281988 
z
" clip-path="url(#pa070a116ea)" style="fill: #8da0cb; opacity: 0.6"/>
   </g>
   <g id="patch_87">
    <path d="M 250.750134 320.4 
L 257.659783 320.4 
L 257.659783 314.387578 
L 250.750134 314.387578 
z
" clip-path="url(#pa070a116ea)" style="fill: #8da0cb; opacity: 0.6"/>
   </g>
   <g id="patch_88">
    <path d="M 257.659783 320.4 
L 264.569432 320.4 
L 264.569432 318.213665 
L 257.659783 318.213665 
z
" clip-path="url(#pa070a116ea)" style="fill: #8da0cb; opacity: 0.6"/>
   </g>
   <g id="patch_89">
    <path d="M 264.569432 320.4 
L 271.479082 320.4 
L 271.479082 317.120497 
L 264.569432 317.120497 
z
" clip-path="url(#pa070a116ea)" style="fill: #8da0cb; opacity: 0.6"/>
   </g>
   <g id="matplotlib.axis_1">
    <g id="xtick_1">
     <g id="line2d_1">
      <defs>
       <path id="md1ab3c2b35" d="M 0 0 
L 0 3.5 
" style="stroke: #000000; stroke-width: 0.8"/>
      </defs>
      <g>
       <use xlink:href="#md1ab3c2b35" x="61.618937" y="320.4" style="stroke: #000000; stroke-width: 0.8"/>
      </g>
     </g>
     <g id="text_1">
      <!-- −0.4 -->
      <g transform="translate(49.47753 334.998437) scale(0.1 -0.1)">
       <defs>
        <path id="DejaVuSans-2212" d="M 678 2272 
L 4684 2272 
L 4684 1741 
L 678 1741 
L 678 2272 
z
" transform="scale(0.015625)"/>
        <path id="DejaVuSans-30" d="M 2034 4250 
Q 1547 4250 1301 3770 
Q 1056 3291 1056 2328 
Q 1056 1369 1301 889 
Q 1547 409 2034 409 
Q 2525 409 2770 889 
Q 3016 1369 3016 2328 
Q 3016 3291 2770 3770 
Q 2525 4250 2034 4250 
z
M 2034 4750 
Q 2819 4750 3233 4129 
Q 3647 3509 3647 2328 
Q 3647 1150 3233 529 
Q 2819 -91 2034 -91 
Q 1250 -91 836 529 
Q 422 1150 422 2328 
Q 422 3509 836 4129 
Q 1250 4750 2034 4750 
z
" transform="scale(0.015625)"/>
        <path id="DejaVuSans-2e" d="M 684 794 
L 1344 794 
L 1344 0 
L 684 0 
L 684 794 
z
" transform="scale(0.015625)"/>
        <path id="DejaVuSans-34" d="M 2419 4116 
L 825 1625 
L 2419 1625 
L 2419 4116 
z
M 2253 4666 
L 3047 4666 
L 3047 1625 
L 3713 1625 
L 3713 1100 
L 3047 1100 
L 3047 0 
L 2419 0 
L 2419 1100 
L 313 1100 
L 313 1709 
L 2253 4666 
z
" transform="scale(0.015625)"/>
       </defs>
       <use xlink:href="#DejaVuSans-2212"/>
       <use xlink:href="#DejaVuSans-30" x="83.789062"/>
       <use xlink:href="#DejaVuSans-2e" x="147.412109"/>
       <use xlink:href="#DejaVuSans-34" x="179.199219"/>
      </g>
     </g>
    </g>
    <g id="xtick_2">
     <g id="line2d_2">
      <g>
       <use xlink:href="#md1ab3c2b35" x="98.72533" y="320.4" style="stroke: #000000; stroke-width: 0.8"/>
      </g>
     </g>
     <g id="text_2">
      <!-- −0.3 -->
      <g transform="translate(86.583924 334.998437) scale(0.1 -0.1)">
       <defs>
        <path id="DejaVuSans-33" d="M 2597 2516 
Q 3050 2419 3304 2112 
Q 3559 1806 3559 1356 
Q 3559 666 3084 287 
Q 2609 -91 1734 -91 
Q 1441 -91 1130 -33 
Q 819 25 488 141 
L 488 750 
Q 750 597 1062 519 
Q 1375 441 1716 441 
Q 2309 441 2620 675 
Q 2931 909 2931 1356 
Q 2931 1769 2642 2001 
Q 2353 2234 1838 2234 
L 1294 2234 
L 1294 2753 
L 1863 2753 
Q 2328 2753 2575 2939 
Q 2822 3125 2822 3475 
Q 2822 3834 2567 4026 
Q 2313 4219 1838 4219 
Q 1578 4219 1281 4162 
Q 984 4106 628 3988 
L 628 4550 
Q 988 4650 1302 4700 
Q 1616 4750 1894 4750 
Q 2613 4750 3031 4423 
Q 3450 4097 3450 3541 
Q 3450 3153 3228 2886 
Q 3006 2619 2597 2516 
z
" transform="scale(0.015625)"/>
       </defs>
       <use xlink:href="#DejaVuSans-2212"/>
       <use xlink:href="#DejaVuSans-30" x="83.789062"/>
       <use xlink:href="#DejaVuSans-2e" x="147.412109"/>
       <use xlink:href="#DejaVuSans-33" x="179.199219"/>
      </g>
     </g>
    </g>
    <g id="xtick_3">
     <g id="line2d_3">
      <g>
       <use xlink:href="#md1ab3c2b35" x="135.831724" y="320.4" style="stroke: #000000; stroke-width: 0.8"/>
      </g>
     </g>
     <g id="text_3">
      <!-- −0.2 -->
      <g transform="translate(123.690318 334.998437) scale(0.1 -0.1)">
       <defs>
        <path id="DejaVuSans-32" d="M 1228 531 
L 3431 531 
L 3431 0 
L 469 0 
L 469 531 
Q 828 903 1448 1529 
Q 2069 2156 2228 2338 
Q 2531 2678 2651 2914 
Q 2772 3150 2772 3378 
Q 2772 3750 2511 3984 
Q 2250 4219 1831 4219 
Q 1534 4219 1204 4116 
Q 875 4013 500 3803 
L 500 4441 
Q 881 4594 1212 4672 
Q 1544 4750 1819 4750 
Q 2544 4750 2975 4387 
Q 3406 4025 3406 3419 
Q 3406 3131 3298 2873 
Q 3191 2616 2906 2266 
Q 2828 2175 2409 1742 
Q 1991 1309 1228 531 
z
" transform="scale(0.015625)"/>
       </defs>
       <use xlink:href="#DejaVuSans-2212"/>
       <use xlink:href="#DejaVuSans-30" x="83.789062"/>
       <use xlink:href="#DejaVuSans-2e" x="147.412109"/>
       <use xlink:href="#DejaVuSans-32" x="179.199219"/>
      </g>
     </g>
    </g>
    <g id="xtick_4">
     <g id="line2d_4">
      <g>
       <use xlink:href="#md1ab3c2b35" x="172.938118" y="320.4" style="stroke: #000000; stroke-width: 0.8"/>
      </g>
     </g>
     <g id="text_4">
      <!-- −0.1 -->
      <g transform="translate(160.796712 334.998437) scale(0.1 -0.1)">
       <defs>
        <path id="DejaVuSans-31" d="M 794 531 
L 1825 531 
L 1825 4091 
L 703 3866 
L 703 4441 
L 1819 4666 
L 2450 4666 
L 2450 531 
L 3481 531 
L 3481 0 
L 794 0 
L 794 531 
z
" transform="scale(0.015625)"/>
       </defs>
       <use xlink:href="#DejaVuSans-2212"/>
       <use xlink:href="#DejaVuSans-30" x="83.789062"/>
       <use xlink:href="#DejaVuSans-2e" x="147.412109"/>
       <use xlink:href="#DejaVuSans-31" x="179.199219"/>
      </g>
     </g>
    </g>
    <g id="xtick_5">
     <g id="line2d_5">
      <g>
       <use xlink:href="#md1ab3c2b35" x="210.044512" y="320.4" style="stroke: #000000; stroke-width: 0.8"/>
      </g>
     </g>
     <g id="text_5">
      <!-- 0.0 -->
      <g transform="translate(202.092949 334.998437) scale(0.1 -0.1)">
       <use xlink:href="#DejaVuSans-30"/>
       <use xlink:href="#DejaVuSans-2e" x="63.623047"/>
       <use xlink:href="#DejaVuSans-30" x="95.410156"/>
      </g>
     </g>
    </g>
    <g id="xtick_6">
     <g id="line2d_6">
      <g>
       <use xlink:href="#md1ab3c2b35" x="247.150905" y="320.4" style="stroke: #000000; stroke-width: 0.8"/>
      </g>
     </g>
     <g id="text_6">
      <!-- 0.1 -->
      <g transform="translate(239.199343 334.998437) scale(0.1 -0.1)">
       <use xlink:href="#DejaVuSans-30"/>
       <use xlink:href="#DejaVuSans-2e" x="63.623047"/>
       <use xlink:href="#DejaVuSans-31" x="95.410156"/>
      </g>
     </g>
    </g>
    <g id="xtick_7">
     <g id="line2d_7">
      <g>
       <use xlink:href="#md1ab3c2b35" x="284.257299" y="320.4" style="stroke: #000000; stroke-width: 0.8"/>
      </g>
     </g>
     <g id="text_7">
      <!-- 0.2 -->
      <g transform="translate(276.305737 334.998437) scale(0.1 -0.1)">
       <use xlink:href="#DejaVuSans-30"/>
       <use xlink:href="#DejaVuSans-2e" x="63.623047"/>
       <use xlink:href="#DejaVuSans-32" x="95.410156"/>
      </g>
     </g>
    </g>
    <g id="xtick_8">
     <g id="line2d_8">
      <g>
       <use xlink:href="#md1ab3c2b35" x="321.363693" y="320.4" style="stroke: #000000; stroke-width: 0.8"/>
      </g>
     </g>
     <g id="text_8">
      <!-- 0.3 -->
      <g transform="translate(313.41213 334.998437) scale(0.1 -0.1)">
       <use xlink:href="#DejaVuSans-30"/>
       <use xlink:href="#DejaVuSans-2e" x="63.623047"/>
       <use xlink:href="#DejaVuSans-33" x="95.410156"/>
      </g>
     </g>
    </g>
    <g id="text_9">
     <!-- Difference (treatment minus baseline, arbitrary units) -->
     <g transform="translate(50.890412 348.676562) scale(0.1 -0.1)">
      <defs>
       <path id="DejaVuSans-44" d="M 1259 4147 
L 1259 519 
L 2022 519 
Q 2988 519 3436 956 
Q 3884 1394 3884 2338 
Q 3884 3275 3436 3711 
Q 2988 4147 2022 4147 
L 1259 4147 
z
M 628 4666 
L 1925 4666 
Q 3281 4666 3915 4102 
Q 4550 3538 4550 2338 
Q 4550 1131 3912 565 
Q 3275 0 1925 0 
L 628 0 
L 628 4666 
z
" transform="scale(0.015625)"/>
       <path id="DejaVuSans-69" d="M 603 3500 
L 1178 3500 
L 1178 0 
L 603 0 
L 603 3500 
z
M 603 4863 
L 1178 4863 
L 1178 4134 
L 603 4134 
L 603 4863 
z
" transform="scale(0.015625)"/>
       <path id="DejaVuSans-66" d="M 2375 4863 
L 2375 4384 
L 1825 4384 
Q 1516 4384 1395 4259 
Q 1275 4134 1275 3809 
L 1275 3500 
L 2222 3500 
L 2222 3053 
L 1275 3053 
L 1275 0 
L 697 0 
L 697 3053 
L 147 3053 
L 147 3500 
L 697 3500 
L 697 3744 
Q 697 4328 969 4595 
Q 1241 4863 1831 4863 
L 2375 4863 
z
" transform="scale(0.015625)"/>
       <path id="DejaVuSans-65" d="M 3597 1894 
L 3597 1613 
L 953 1613 
Q 991 1019 1311 708 
Q 1631 397 2203 397 
Q 2534 397 2845 478 
Q 3156 559 3463 722 
L 3463 178 
Q 3153 47 2828 -22 
Q 2503 -91 2169 -91 
Q 1331 -91 842 396 
Q 353 884 353 1716 
Q 353 2575 817 3079 
Q 1281 3584 2069 3584 
Q 2775 3584 3186 3129 
Q 3597 2675 3597 1894 
z
M 3022 2063 
Q 3016 2534 2758 2815 
Q 2500 3097 2075 3097 
Q 1594 3097 1305 2825 
Q 1016 2553 972 2059 
L 3022 2063 
z
" transform="scale(0.015625)"/>
       <path id="DejaVuSans-72" d="M 2631 2963 
Q 2534 3019 2420 3045 
Q 2306 3072 2169 3072 
Q 1681 3072 1420 2755 
Q 1159 2438 1159 1844 
L 1159 0 
L 581 0 
L 581 3500 
L 1159 3500 
L 1159 2956 
Q 1341 3275 1631 3429 
Q 1922 3584 2338 3584 
Q 2397 3584 2469 3576 
Q 2541 3569 2628 3553 
L 2631 2963 
z
" transform="scale(0.015625)"/>
       <path id="DejaVuSans-6e" d="M 3513 2113 
L 3513 0 
L 2938 0 
L 2938 2094 
Q 2938 2591 2744 2837 
Q 2550 3084 2163 3084 
Q 1697 3084 1428 2787 
Q 1159 2491 1159 1978 
L 1159 0 
L 581 0 
L 581 3500 
L 1159 3500 
L 1159 2956 
Q 1366 3272 1645 3428 
Q 1925 3584 2291 3584 
Q 2894 3584 3203 3211 
Q 3513 2838 3513 2113 
z
" transform="scale(0.015625)"/>
       <path id="DejaVuSans-63" d="M 3122 3366 
L 3122 2828 
Q 2878 2963 2633 3030 
Q 2388 3097 2138 3097 
Q 1578 3097 1268 2742 
Q 959 2388 959 1747 
Q 959 1106 1268 751 
Q 1578 397 2138 397 
Q 2388 397 2633 464 
Q 2878 531 3122 666 
L 3122 134 
Q 2881 22 2623 -34 
Q 2366 -91 2075 -91 
Q 1284 -91 818 406 
Q 353 903 353 1747 
Q 353 2603 823 3093 
Q 1294 3584 2113 3584 
Q 2378 3584 2631 3529 
Q 2884 3475 3122 3366 
z
" transform="scale(0.015625)"/>
       <path id="DejaVuSans-20" transform="scale(0.015625)"/>
       <path id="DejaVuSans-28" d="M 1984 4856 
Q 1566 4138 1362 3434 
Q 1159 2731 1159 2009 
Q 1159 1288 1364 580 
Q 1569 -128 1984 -844 
L 1484 -844 
Q 1016 -109 783 600 
Q 550 1309 550 2009 
Q 550 2706 781 3412 
Q 1013 4119 1484 4856 
L 1984 4856 
z
" transform="scale(0.015625)"/>
       <path id="DejaVuSans-74" d="M 1172 4494 
L 1172 3500 
L 2356 3500 
L 2356 3053 
L 1172 3053 
L 1172 1153 
Q 1172 725 1289 603 
Q 1406 481 1766 481 
L 2356 481 
L 2356 0 
L 1766 0 
Q 1100 0 847 248 
Q 594 497 594 1153 
L 594 3053 
L 172 3053 
L 172 3500 
L 594 3500 
L 594 4494 
L 1172 4494 
z
" transform="scale(0.015625)"/>
       <path id="DejaVuSans-61" d="M 2194 1759 
Q 1497 1759 1228 1600 
Q 959 1441 959 1056 
Q 959 750 1161 570 
Q 1363 391 1709 391 
Q 2188 391 2477 730 
Q 2766 1069 2766 1631 
L 2766 1759 
L 2194 1759 
z
M 3341 1997 
L 3341 0 
L 2766 0 
L 2766 531 
Q 2569 213 2275 61 
Q 1981 -91 1556 -91 
Q 1019 -91 701 211 
Q 384 513 384 1019 
Q 384 1609 779 1909 
Q 1175 2209 1959 2209 
L 2766 2209 
L 2766 2266 
Q 2766 2663 2505 2880 
Q 2244 3097 1772 3097 
Q 1472 3097 1187 3025 
Q 903 2953 641 2809 
L 641 3341 
Q 956 3463 1253 3523 
Q 1550 3584 1831 3584 
Q 2591 3584 2966 3190 
Q 3341 2797 3341 1997 
z
" transform="scale(0.015625)"/>
       <path id="DejaVuSans-6d" d="M 3328 2828 
Q 3544 3216 3844 3400 
Q 4144 3584 4550 3584 
Q 5097 3584 5394 3201 
Q 5691 2819 5691 2113 
L 5691 0 
L 5113 0 
L 5113 2094 
Q 5113 2597 4934 2840 
Q 4756 3084 4391 3084 
Q 3944 3084 3684 2787 
Q 3425 2491 3425 1978 
L 3425 0 
L 2847 0 
L 2847 2094 
Q 2847 2600 2669 2842 
Q 2491 3084 2119 3084 
Q 1678 3084 1418 2786 
Q 1159 2488 1159 1978 
L 1159 0 
L 581 0 
L 581 3500 
L 1159 3500 
L 1159 2956 
Q 1356 3278 1631 3431 
Q 1906 3584 2284 3584 
Q 2666 3584 2933 3390 
Q 3200 3197 3328 2828 
z
" transform="scale(0.015625)"/>
       <path id="DejaVuSans-75" d="M 544 1381 
L 544 3500 
L 1119 3500 
L 1119 1403 
Q 1119 906 1312 657 
Q 1506 409 1894 409 
Q 2359 409 2629 706 
Q 2900 1003 2900 1516 
L 2900 3500 
L 3475 3500 
L 3475 0 
L 2900 0 
L 2900 538 
Q 2691 219 2414 64 
Q 2138 -91 1772 -91 
Q 1169 -91 856 284 
Q 544 659 544 1381 
z
M 1991 3584 
L 1991 3584 
z
" transform="scale(0.015625)"/>
       <path id="DejaVuSans-73" d="M 2834 3397 
L 2834 2853 
Q 2591 2978 2328 3040 
Q 2066 3103 1784 3103 
Q 1356 3103 1142 2972 
Q 928 2841 928 2578 
Q 928 2378 1081 2264 
Q 1234 2150 1697 2047 
L 1894 2003 
Q 2506 1872 2764 1633 
Q 3022 1394 3022 966 
Q 3022 478 2636 193 
Q 2250 -91 1575 -91 
Q 1294 -91 989 -36 
Q 684 19 347 128 
L 347 722 
Q 666 556 975 473 
Q 1284 391 1588 391 
Q 1994 391 2212 530 
Q 2431 669 2431 922 
Q 2431 1156 2273 1281 
Q 2116 1406 1581 1522 
L 1381 1569 
Q 847 1681 609 1914 
Q 372 2147 372 2553 
Q 372 3047 722 3315 
Q 1072 3584 1716 3584 
Q 2034 3584 2315 3537 
Q 2597 3491 2834 3397 
z
" transform="scale(0.015625)"/>
       <path id="DejaVuSans-62" d="M 3116 1747 
Q 3116 2381 2855 2742 
Q 2594 3103 2138 3103 
Q 1681 3103 1420 2742 
Q 1159 2381 1159 1747 
Q 1159 1113 1420 752 
Q 1681 391 2138 391 
Q 2594 391 2855 752 
Q 3116 1113 3116 1747 
z
M 1159 2969 
Q 1341 3281 1617 3432 
Q 1894 3584 2278 3584 
Q 2916 3584 3314 3078 
Q 3713 2572 3713 1747 
Q 3713 922 3314 415 
Q 2916 -91 2278 -91 
Q 1894 -91 1617 61 
Q 1341 213 1159 525 
L 1159 0 
L 581 0 
L 581 4863 
L 1159 4863 
L 1159 2969 
z
" transform="scale(0.015625)"/>
       <path id="DejaVuSans-6c" d="M 603 4863 
L 1178 4863 
L 1178 0 
L 603 0 
L 603 4863 
z
" transform="scale(0.015625)"/>
       <path id="DejaVuSans-2c" d="M 750 794 
L 1409 794 
L 1409 256 
L 897 -744 
L 494 -744 
L 750 256 
L 750 794 
z
" transform="scale(0.015625)"/>
       <path id="DejaVuSans-79" d="M 2059 -325 
Q 1816 -950 1584 -1140 
Q 1353 -1331 966 -1331 
L 506 -1331 
L 506 -850 
L 844 -850 
Q 1081 -850 1212 -737 
Q 1344 -625 1503 -206 
L 1606 56 
L 191 3500 
L 800 3500 
L 1894 763 
L 2988 3500 
L 3597 3500 
L 2059 -325 
z
" transform="scale(0.015625)"/>
       <path id="DejaVuSans-29" d="M 513 4856 
L 1013 4856 
Q 1481 4119 1714 3412 
Q 1947 2706 1947 2009 
Q 1947 1309 1714 600 
Q 1481 -109 1013 -844 
L 513 -844 
Q 928 -128 1133 580 
Q 1338 1288 1338 2009 
Q 1338 2731 1133 3434 
Q 928 4138 513 4856 
z
" transform="scale(0.015625)"/>
      </defs>
      <use xlink:href="#DejaVuSans-44"/>
      <use xlink:href="#DejaVuSans-69" x="77.001953"/>
      <use xlink:href="#DejaVuSans-66" x="104.785156"/>
      <use xlink:href="#DejaVuSans-66" x="139.990234"/>
      <use xlink:href="#DejaVuSans-65" x="175.195312"/>
      <use xlink:href="#DejaVuSans-72" x="236.71875"/>
      <use xlink:href="#DejaVuSans-65" x="275.582031"/>
      <use xlink:href="#DejaVuSans-6e" x="337.105469"/>
      <use xlink:href="#DejaVuSans-63" x="400.484375"/>
      <use xlink:href="#DejaVuSans-65" x="455.464844"/>
      <use xlink:href="#DejaVuSans-20" x="516.988281"/>
      <use xlink:href="#DejaVuSans-28" x="548.775391"/>
      <use xlink:href="#DejaVuSans-74" x="587.789062"/>
      <use xlink:href="#DejaVuSans-72" x="626.998047"/>
      <use xlink:href="#DejaVuSans-65" x="665.861328"/>
      <use xlink:href="#DejaVuSans-61" x="727.384766"/>
      <use xlink:href="#DejaVuSans-74" x="788.664062"/>
      <use xlink:href="#DejaVuSans-6d" x="827.873047"/>
      <use xlink:href="#DejaVuSans-65" x="925.285156"/>
      <use xlink:href="#DejaVuSans-6e" x="986.808594"/>
      <use xlink:href="#DejaVuSans-74" x="1050.1875"/>
      <use xlink:href="#DejaVuSans-20" x="1089.396484"/>
      <use xlink:href="#DejaVuSans-6d" x="1121.183594"/>
      <use xlink:href="#DejaVuSans-69" x="1218.595703"/>
      <use xlink:href="#DejaVuSans-6e" x="1246.378906"/>
      <use xlink:href="#DejaVuSans-75" x="1309.757812"/>
      <use xlink:href="#DejaVuSans-73" x="1373.136719"/>
      <use xlink:href="#DejaVuSans-20" x="1425.236328"/>
      <use xlink:href="#DejaVuSans-62" x="1457.023438"/>
      <use xlink:href="#DejaVuSans-61" x="1520.5"/>
      <use xlink:href="#DejaVuSans-73" x="1581.779297"/>
      <use xlink:href="#DejaVuSans-65" x="1633.878906"/>
      <use xlink:href="#DejaVuSans-6c" x="1695.402344"/>
      <use xlink:href="#DejaVuSans-69" x="1723.185547"/>
      <use xlink:href="#DejaVuSans-6e" x="1750.96875"/>
      <use xlink:href="#DejaVuSans-65" x="1814.347656"/>
      <use xlink:href="#DejaVuSans-2c" x="1875.871094"/>
      <use xlink:href="#DejaVuSans-20" x="1907.658203"/>
      <use xlink:href="#DejaVuSans-61" x="1939.445312"/>
      <use xlink:href="#DejaVuSans-72" x="2000.724609"/>
      <use xlink:href="#DejaVuSans-62" x="2041.837891"/>
      <use xlink:href="#DejaVuSans-69" x="2105.314453"/>
      <use xlink:href="#DejaVuSans-74" x="2133.097656"/>
      <use xlink:href="#DejaVuSans-72" x="2172.306641"/>
      <use xlink:href="#DejaVuSans-61" x="2213.419922"/>
      <use xlink:href="#DejaVuSans-72" x="2274.699219"/>
      <use xlink:href="#DejaVuSans-79" x="2315.8125"/>
      <use xlink:href="#DejaVuSans-20" x="2374.992188"/>
      <use xlink:href="#DejaVuSans-75" x="2406.779297"/>
      <use xlink:href="#DejaVuSans-6e" x="2470.158203"/>
      <use xlink:href="#DejaVuSans-69" x="2533.537109"/>
      <use xlink:href="#DejaVuSans-74" x="2561.320312"/>
      <use xlink:href="#DejaVuSans-73" x="2600.529297"/>
      <use xlink:href="#DejaVuSans-29" x="2652.628906"/>
     </g>
    </g>
   </g>
   <g id="matplotlib.axis_2">
    <g id="ytick_1">
     <g id="line2d_9">
      <defs>
       <path id="m25c095feea" d="M 0 0 
L -3.5 0 
" style="stroke: #000000; stroke-width: 0.8"/>
      </defs>
      <g>
       <use xlink:href="#m25c095feea" x="33.2875" y="320.4" style="stroke: #000000; stroke-width: 0.8"/>
      </g>
     </g>
     <g id="text_10">
      <!-- 0 -->
      <g transform="translate(19.925 324.199219) scale(0.1 -0.1)">
       <use xlink:href="#DejaVuSans-30"/>
      </g>
     </g>
    </g>
    <g id="ytick_2">
     <g id="line2d_10">
      <g>
       <use xlink:href="#m25c095feea" x="33.2875" y="265.741615" style="stroke: #000000; stroke-width: 0.8"/>
      </g>
     </g>
     <g id="text_11">
      <!-- 100 -->
      <g transform="translate(7.2 269.540834) scale(0.1 -0.1)">
       <use xlink:href="#DejaVuSans-31"/>
       <use xlink:href="#DejaVuSans-30" x="63.623047"/>
       <use xlink:href="#DejaVuSans-30" x="127.246094"/>
      </g>
     </g>
    </g>
    <g id="ytick_3">
     <g id="line2d_11">
      <g>
       <use xlink:href="#m25c095feea" x="33.2875" y="211.08323" style="stroke: #000000; stroke-width: 0.8"/>
      </g>
     </g>
     <g id="text_12">
      <!-- 200 -->
      <g transform="translate(7.2 214.882449) scale(0.1 -0.1)">
       <use xlink:href="#DejaVuSans-32"/>
       <use xlink:href="#DejaVuSans-30" x="63.623047"/>
       <use xlink:href="#DejaVuSans-30" x="127.246094"/>
      </g>
     </g>
    </g>
    <g id="ytick_4">
     <g id="line2d_12">
      <g>
       <use xlink:href="#m25c095feea" x="33.2875" y="156.424845" style="stroke: #000000; stroke-width: 0.8"/>
      </g>
     </g>
     <g id="text_13">
      <!-- 300 -->
      <g transform="translate(7.2 160.224063) scale(0.1 -0.1)">
       <use xlink:href="#DejaVuSans-33"/>
       <use xlink:href="#DejaVuSans-30" x="63.623047"/>
       <use xlink:href="#DejaVuSans-30" x="127.246094"/>
      </g>
     </g>
    </g>
    <g id="ytick_5">
     <g id="line2d_13">
      <g>
       <use xlink:href="#m25c095feea" x="33.2875" y="101.76646" style="stroke: #000000; stroke-width: 0.8"/>
      </g>
     </g>
     <g id="text_14">
      <!-- 400 -->
      <g transform="translate(7.2 105.565678) scale(0.1 -0.1)">
       <use xlink:href="#DejaVuSans-34"/>
       <use xlink:href="#DejaVuSans-30" x="63.623047"/>
       <use xlink:href="#DejaVuSans-30" x="127.246094"/>
      </g>
     </g>
    </g>
    <g id="ytick_6">
     <g id="line2d_14">
      <g>
       <use xlink:href="#m25c095feea" x="33.2875" y="47.108075" style="stroke: #000000; stroke-width: 0.8"/>
      </g>
     </g>
     <g id="text_15">
      <!-- 500 -->
      <g transform="translate(7.2 50.907293) scale(0.1 -0.1)">
       <defs>
        <path id="DejaVuSans-35" d="M 691 4666 
L 3169 4666 
L 3169 4134 
L 1269 4134 
L 1269 2991 
Q 1406 3038 1543 3061 
Q 1681 3084 1819 3084 
Q 2600 3084 3056 2656 
Q 3513 2228 3513 1497 
Q 3513 744 3044 326 
Q 2575 -91 1722 -91 
Q 1428 -91 1123 -41 
Q 819 9 494 109 
L 494 744 
Q 775 591 1075 516 
Q 1375 441 1709 441 
Q 2250 441 2565 725 
Q 2881 1009 2881 1497 
Q 2881 1984 2565 2268 
Q 2250 2553 1709 2553 
Q 1456 2553 1204 2497 
Q 953 2441 691 2322 
L 691 4666 
z
" transform="scale(0.015625)"/>
       </defs>
       <use xlink:href="#DejaVuSans-35"/>
       <use xlink:href="#DejaVuSans-30" x="63.623047"/>
       <use xlink:href="#DejaVuSans-30" x="127.246094"/>
      </g>
     </g>
    </g>
   </g>
   <g id="line2d_15">
    <path d="M 210.044512 320.4 
L 210.044512 43.2 
" clip-path="url(#pa070a116ea)" style="fill: none; stroke-dasharray: 1.85,0.8; stroke-dashoffset: 0; stroke: #000000; stroke-width: 0.5"/>
   </g>
   <g id="patch_90">
    <path d="M 33.2875 320.4 
L 33.2875 43.2 
" style="fill: none; stroke: #000000; stroke-width: 0.8; stroke-linejoin: miter; stroke-linecap: square"/>
   </g>
   <g id="patch_91">
    <path d="M 337.651136 320.4 
L 337.651136 43.2 
" style="fill: none; stroke: #000000; stroke-width: 0.8; stroke-linejoin: miter; stroke-linecap: square"/>
   </g>
   <g id="patch_92">
    <path d="M 33.2875 320.4 
L 337.651136 320.4 
" style="fill: none; stroke: #000000; stroke-width: 0.8; stroke-linejoin: miter; stroke-linecap: square"/>
   </g>
   <g id="patch_93">
    <path d="M 33.2875 43.2 
L 337.651136 43.2 
" style="fill: none; stroke: #000000; stroke-width: 0.8; stroke-linejoin: miter; stroke-linecap: square"/>
   </g>
   <g id="text_16">
    <!-- Diameter -->
    <g transform="translate(157.458693 37.2) scale(0.12 -0.12)">
     <use xlink:href="#DejaVuSans-44"/>
     <use xlink:href="#DejaVuSans-69" x="77.001953"/>
     <use xlink:href="#DejaVuSans-61" x="104.785156"/>
     <use xlink:href="#DejaVuSans-6d" x="166.064453"/>
     <use xlink:href="#DejaVuSans-65" x="263.476562"/>
     <use xlink:href="#DejaVuSans-74" x="325"/>
     <use xlink:href="#DejaVuSans-65" x="364.208984"/>
     <use xlink:href="#DejaVuSans-72" x="425.732422"/>
    </g>
   </g>
   <g id="legend_1">
    <g id="patch_94">
     <path d="M 42.2875 66.57625 
L 62.2875 66.57625 
L 62.2875 59.57625 
L 42.2875 59.57625 
z
" style="fill: #66c2a5; opacity: 0.6"/>
    </g>
    <g id="text_17">
     <!-- after_ablation -->
     <g transform="translate(70.2875 59.798437) scale(0.1 -0.1)">
      <defs>
       <path id="DejaVuSans-5f" d="M 3263 -1063 
L 3263 -1509 
L -63 -1509 
L -63 -1063 
L 3263 -1063 
z
" transform="scale(0.015625)"/>
       <path id="DejaVuSans-6f" d="M 1959 3097 
Q 1497 3097 1228 2736 
Q 959 2375 959 1747 
Q 959 1119 1226 758 
Q 1494 397 1959 397 
Q 2419 397 2687 759 
Q 2956 1122 2956 1747 
Q 2956 2369 2687 2733 
Q 2419 3097 1959 3097 
z
M 1959 3584 
Q 2709 3584 3137 3096 
Q 3566 2609 3566 1747 
Q 3566 888 3137 398 
Q 2709 -91 1959 -91 
Q 1206 -91 779 398 
Q 353 888 353 1747 
Q 353 2609 779 3096 
Q 1206 3584 1959 3584 
z
" transform="scale(0.015625)"/>
      </defs>
      <use xlink:href="#DejaVuSans-61"/>
      <use xlink:href="#DejaVuSans-66" x="61.279297"/>
      <use xlink:href="#DejaVuSans-74" x="94.734375"/>
      <use xlink:href="#DejaVuSans-65" x="133.943359"/>
      <use xlink:href="#DejaVuSans-72" x="195.466797"/>
      <use xlink:href="#DejaVuSans-5f" x="236.580078"/>
      <use xlink:href="#DejaVuSans-61" x="286.580078"/>
      <use xlink:href="#DejaVuSans-62" x="347.859375"/>
      <use xlink:href="#DejaVuSans-6c" x="411.335938"/>
      <use xlink:href="#DejaVuSans-61" x="439.119141"/>
      <use xlink:href="#DejaVuSans-74" x="500.398438"/>
      <use xlink:href="#DejaVuSans-69" x="539.607422"/>
      <use xlink:href="#DejaVuSans-6f" x="567.390625"/>
      <use xlink:href="#DejaVuSans-6e" x="628.572266"/>
     </g>
     <!-- prob +ve: 0.97 -->
     <g transform="translate(70.2875 71.274375) scale(0.1 -0.1)">
      <defs>
       <path id="DejaVuSans-70" d="M 1159 525 
L 1159 -1331 
L 581 -1331 
L 581 3500 
L 1159 3500 
L 1159 2969 
Q 1341 3281 1617 3432 
Q 1894 3584 2278 3584 
Q 2916 3584 3314 3078 
Q 3713 2572 3713 1747 
Q 3713 922 3314 415 
Q 2916 -91 2278 -91 
Q 1894 -91 1617 61 
Q 1341 213 1159 525 
z
M 3116 1747 
Q 3116 2381 2855 2742 
Q 2594 3103 2138 3103 
Q 1681 3103 1420 2742 
Q 1159 2381 1159 1747 
Q 1159 1113 1420 752 
Q 1681 391 2138 391 
Q 2594 391 2855 752 
Q 3116 1113 3116 1747 
z
" transform="scale(0.015625)"/>
       <path id="DejaVuSans-2b" d="M 2944 4013 
L 2944 2272 
L 4684 2272 
L 4684 1741 
L 2944 1741 
L 2944 0 
L 2419 0 
L 2419 1741 
L 678 1741 
L 678 2272 
L 2419 2272 
L 2419 4013 
L 2944 4013 
z
" transform="scale(0.015625)"/>
       <path id="DejaVuSans-76" d="M 191 3500 
L 800 3500 
L 1894 563 
L 2988 3500 
L 3597 3500 
L 2284 0 
L 1503 0 
L 191 3500 
z
" transform="scale(0.015625)"/>
       <path id="DejaVuSans-3a" d="M 750 794 
L 1409 794 
L 1409 0 
L 750 0 
L 750 794 
z
M 750 3309 
L 1409 3309 
L 1409 2516 
L 750 2516 
L 750 3309 
z
" transform="scale(0.015625)"/>
       <path id="DejaVuSans-39" d="M 703 97 
L 703 672 
Q 941 559 1184 500 
Q 1428 441 1663 441 
Q 2288 441 2617 861 
Q 2947 1281 2994 2138 
Q 2813 1869 2534 1725 
Q 2256 1581 1919 1581 
Q 1219 1581 811 2004 
Q 403 2428 403 3163 
Q 403 3881 828 4315 
Q 1253 4750 1959 4750 
Q 2769 4750 3195 4129 
Q 3622 3509 3622 2328 
Q 3622 1225 3098 567 
Q 2575 -91 1691 -91 
Q 1453 -91 1209 -44 
Q 966 3 703 97 
z
M 1959 2075 
Q 2384 2075 2632 2365 
Q 2881 2656 2881 3163 
Q 2881 3666 2632 3958 
Q 2384 4250 1959 4250 
Q 1534 4250 1286 3958 
Q 1038 3666 1038 3163 
Q 1038 2656 1286 2365 
Q 1534 2075 1959 2075 
z
" transform="scale(0.015625)"/>
       <path id="DejaVuSans-37" d="M 525 4666 
L 3525 4666 
L 3525 4397 
L 1831 0 
L 1172 0 
L 2766 4134 
L 525 4134 
L 525 4666 
z
" transform="scale(0.015625)"/>
      </defs>
      <use xlink:href="#DejaVuSans-70"/>
      <use xlink:href="#DejaVuSans-72" x="63.476562"/>
      <use xlink:href="#DejaVuSans-6f" x="102.339844"/>
      <use xlink:href="#DejaVuSans-62" x="163.521484"/>
      <use xlink:href="#DejaVuSans-20" x="226.998047"/>
      <use xlink:href="#DejaVuSans-2b" x="258.785156"/>
      <use xlink:href="#DejaVuSans-76" x="342.574219"/>
      <use xlink:href="#DejaVuSans-65" x="401.753906"/>
      <use xlink:href="#DejaVuSans-3a" x="463.277344"/>
      <use xlink:href="#DejaVuSans-20" x="496.96875"/>
      <use xlink:href="#DejaVuSans-30" x="528.755859"/>
      <use xlink:href="#DejaVuSans-2e" x="592.378906"/>
      <use xlink:href="#DejaVuSans-39" x="624.166016"/>
      <use xlink:href="#DejaVuSans-37" x="687.789062"/>
     </g>
    </g>
    <g id="patch_95">
     <path d="M 42.2875 92.59125 
L 62.2875 92.59125 
L 62.2875 85.59125 
L 42.2875 85.59125 
z
" style="fill: #fc8d62; opacity: 0.6"/>
    </g>
    <g id="text_18">
     <!-- hyper -->
     <g transform="translate(70.2875 85.9525) scale(0.1 -0.1)">
      <defs>
       <path id="DejaVuSans-68" d="M 3513 2113 
L 3513 0 
L 2938 0 
L 2938 2094 
Q 2938 2591 2744 2837 
Q 2550 3084 2163 3084 
Q 1697 3084 1428 2787 
Q 1159 2491 1159 1978 
L 1159 0 
L 581 0 
L 581 4863 
L 1159 4863 
L 1159 2956 
Q 1366 3272 1645 3428 
Q 1925 3584 2291 3584 
Q 2894 3584 3203 3211 
Q 3513 2838 3513 2113 
z
" transform="scale(0.015625)"/>
      </defs>
      <use xlink:href="#DejaVuSans-68"/>
      <use xlink:href="#DejaVuSans-79" x="63.378906"/>
      <use xlink:href="#DejaVuSans-70" x="122.558594"/>
      <use xlink:href="#DejaVuSans-65" x="186.035156"/>
      <use xlink:href="#DejaVuSans-72" x="247.558594"/>
     </g>
     <!-- prob +ve: 0.79 -->
     <g transform="translate(70.2875 97.150312) scale(0.1 -0.1)">
      <use xlink:href="#DejaVuSans-70"/>
      <use xlink:href="#DejaVuSans-72" x="63.476562"/>
      <use xlink:href="#DejaVuSans-6f" x="102.339844"/>
      <use xlink:href="#DejaVuSans-62" x="163.521484"/>
      <use xlink:href="#DejaVuSans-20" x="226.998047"/>
      <use xlink:href="#DejaVuSans-2b" x="258.785156"/>
      <use xlink:href="#DejaVuSans-76" x="342.574219"/>
      <use xlink:href="#DejaVuSans-65" x="401.753906"/>
      <use xlink:href="#DejaVuSans-3a" x="463.277344"/>
      <use xlink:href="#DejaVuSans-20" x="496.96875"/>
      <use xlink:href="#DejaVuSans-30" x="528.755859"/>
      <use xlink:href="#DejaVuSans-2e" x="592.378906"/>
      <use xlink:href="#DejaVuSans-37" x="624.166016"/>
      <use xlink:href="#DejaVuSans-39" x="687.789062"/>
     </g>
    </g>
    <g id="patch_96">
     <path d="M 42.2875 118.467187 
L 62.2875 118.467187 
L 62.2875 111.467187 
L 42.2875 111.467187 
z
" style="fill: #8da0cb; opacity: 0.6"/>
    </g>
    <g id="text_19">
     <!-- hyper2 -->
     <g transform="translate(70.2875 111.828437) scale(0.1 -0.1)">
      <use xlink:href="#DejaVuSans-68"/>
      <use xlink:href="#DejaVuSans-79" x="63.378906"/>
      <use xlink:href="#DejaVuSans-70" x="122.558594"/>
      <use xlink:href="#DejaVuSans-65" x="186.035156"/>
      <use xlink:href="#DejaVuSans-72" x="247.558594"/>
      <use xlink:href="#DejaVuSans-32" x="288.671875"/>
     </g>
     <!-- prob +ve: 0.21 -->
     <g transform="translate(70.2875 123.02625) scale(0.1 -0.1)">
      <use xlink:href="#DejaVuSans-70"/>
      <use xlink:href="#DejaVuSans-72" x="63.476562"/>
      <use xlink:href="#DejaVuSans-6f" x="102.339844"/>
      <use xlink:href="#DejaVuSans-62" x="163.521484"/>
      <use xlink:href="#DejaVuSans-20" x="226.998047"/>
      <use xlink:href="#DejaVuSans-2b" x="258.785156"/>
      <use xlink:href="#DejaVuSans-76" x="342.574219"/>
      <use xlink:href="#DejaVuSans-65" x="401.753906"/>
      <use xlink:href="#DejaVuSans-3a" x="463.277344"/>
      <use xlink:href="#DejaVuSans-20" x="496.96875"/>
      <use xlink:href="#DejaVuSans-30" x="528.755859"/>
      <use xlink:href="#DejaVuSans-2e" x="592.378906"/>
      <use xlink:href="#DejaVuSans-32" x="624.166016"/>
      <use xlink:href="#DejaVuSans-31" x="687.789062"/>
     </g>
    </g>
   </g>
  </g>
  <g id="axes_2">
   <g id="patch_97">
    <path d="M 398.523864 320.4 
L 702.8875 320.4 
L 702.8875 43.2 
L 398.523864 43.2 
z
" style="fill: #ffffff"/>
   </g>
   <g id="patch_98">
    <path d="M 532.977731 320.4 
L 537.661211 320.4 
L 537.661211 319.160563 
L 532.977731 319.160563 
z
" clip-path="url(#p873121bc4a)" style="fill: #66c2a5; opacity: 0.6"/>
   </g>
   <g id="patch_99">
    <path d="M 537.661211 320.4 
L 542.34469 320.4 
L 542.34469 318.747418 
L 537.661211 318.747418 
z
" clip-path="url(#p873121bc4a)" style="fill: #66c2a5; opacity: 0.6"/>
   </g>
   <g id="patch_100">
    <path d="M 542.34469 320.4 
L 547.028169 320.4 
L 547.028169 317.507981 
L 542.34469 317.507981 
z
" clip-path="url(#p873121bc4a)" style="fill: #66c2a5; opacity: 0.6"/>
   </g>
   <g id="patch_101">
    <path d="M 547.028169 320.4 
L 551.711649 320.4 
L 551.711649 310.484507 
L 547.028169 310.484507 
z
" clip-path="url(#p873121bc4a)" style="fill: #66c2a5; opacity: 0.6"/>
   </g>
   <g id="patch_102">
    <path d="M 551.711649 320.4 
L 556.395128 320.4 
L 556.395128 303.874178 
L 551.711649 303.874178 
z
" clip-path="url(#p873121bc4a)" style="fill: #66c2a5; opacity: 0.6"/>
   </g>
   <g id="patch_103">
    <path d="M 556.395128 320.4 
L 561.078608 320.4 
L 561.078608 298.916432 
L 556.395128 298.916432 
z
" clip-path="url(#p873121bc4a)" style="fill: #66c2a5; opacity: 0.6"/>
   </g>
   <g id="patch_104">
    <path d="M 561.078608 320.4 
L 565.762087 320.4 
L 565.762087 273.301408 
L 561.078608 273.301408 
z
" clip-path="url(#p873121bc4a)" style="fill: #66c2a5; opacity: 0.6"/>
   </g>
   <g id="patch_105">
    <path d="M 565.762087 320.4 
L 570.445567 320.4 
L 570.445567 252.644131 
L 565.762087 252.644131 
z
" clip-path="url(#p873121bc4a)" style="fill: #66c2a5; opacity: 0.6"/>
   </g>
   <g id="patch_106">
    <path d="M 570.445567 320.4 
L 575.129046 320.4 
L 575.129046 160.512676 
L 570.445567 160.512676 
z
" clip-path="url(#p873121bc4a)" style="fill: #66c2a5; opacity: 0.6"/>
   </g>
   <g id="patch_107">
    <path d="M 575.129046 320.4 
L 579.812526 320.4 
L 579.812526 110.935211 
L 575.129046 110.935211 
z
" clip-path="url(#p873121bc4a)" style="fill: #66c2a5; opacity: 0.6"/>
   </g>
   <g id="patch_108">
    <path d="M 579.812526 320.4 
L 584.496005 320.4 
L 584.496005 171.667606 
L 579.812526 171.667606 
z
" clip-path="url(#p873121bc4a)" style="fill: #66c2a5; opacity: 0.6"/>
   </g>
   <g id="patch_109">
    <path d="M 584.496005 320.4 
L 589.179485 320.4 
L 589.179485 177.451643 
L 584.496005 177.451643 
z
" clip-path="url(#p873121bc4a)" style="fill: #66c2a5; opacity: 0.6"/>
   </g>
   <g id="patch_110">
    <path d="M 589.179485 320.4 
L 593.862964 320.4 
L 593.862964 186.953991 
L 589.179485 186.953991 
z
" clip-path="url(#p873121bc4a)" style="fill: #66c2a5; opacity: 0.6"/>
   </g>
   <g id="patch_111">
    <path d="M 593.862964 320.4 
L 598.546443 320.4 
L 598.546443 189.019718 
L 593.862964 189.019718 
z
" clip-path="url(#p873121bc4a)" style="fill: #66c2a5; opacity: 0.6"/>
   </g>
   <g id="patch_112">
    <path d="M 598.546443 320.4 
L 603.229923 320.4 
L 603.229923 196.456338 
L 598.546443 196.456338 
z
" clip-path="url(#p873121bc4a)" style="fill: #66c2a5; opacity: 0.6"/>
   </g>
   <g id="patch_113">
    <path d="M 603.229923 320.4 
L 607.913402 320.4 
L 607.913402 215.461033 
L 603.229923 215.461033 
z
" clip-path="url(#p873121bc4a)" style="fill: #66c2a5; opacity: 0.6"/>
   </g>
   <g id="patch_114">
    <path d="M 607.913402 320.4 
L 612.596882 320.4 
L 612.596882 241.902347 
L 607.913402 241.902347 
z
" clip-path="url(#p873121bc4a)" style="fill: #66c2a5; opacity: 0.6"/>
   </g>
   <g id="patch_115">
    <path d="M 612.596882 320.4 
L 617.280361 320.4 
L 617.280361 253.057277 
L 612.596882 253.057277 
z
" clip-path="url(#p873121bc4a)" style="fill: #66c2a5; opacity: 0.6"/>
   </g>
   <g id="patch_116">
    <path d="M 617.280361 320.4 
L 621.963841 320.4 
L 621.963841 267.104225 
L 617.280361 267.104225 
z
" clip-path="url(#p873121bc4a)" style="fill: #66c2a5; opacity: 0.6"/>
   </g>
   <g id="patch_117">
    <path d="M 621.963841 320.4 
L 626.64732 320.4 
L 626.64732 280.324883 
L 621.963841 280.324883 
z
" clip-path="url(#p873121bc4a)" style="fill: #66c2a5; opacity: 0.6"/>
   </g>
   <g id="patch_118">
    <path d="M 626.64732 320.4 
L 631.3308 320.4 
L 631.3308 284.456338 
L 626.64732 284.456338 
z
" clip-path="url(#p873121bc4a)" style="fill: #66c2a5; opacity: 0.6"/>
   </g>
   <g id="patch_119">
    <path d="M 631.3308 320.4 
L 636.014279 320.4 
L 636.014279 304.287324 
L 631.3308 304.287324 
z
" clip-path="url(#p873121bc4a)" style="fill: #66c2a5; opacity: 0.6"/>
   </g>
   <g id="patch_120">
    <path d="M 636.014279 320.4 
L 640.697759 320.4 
L 640.697759 303.461033 
L 636.014279 303.461033 
z
" clip-path="url(#p873121bc4a)" style="fill: #66c2a5; opacity: 0.6"/>
   </g>
   <g id="patch_121">
    <path d="M 640.697759 320.4 
L 645.381238 320.4 
L 645.381238 312.137089 
L 640.697759 312.137089 
z
" clip-path="url(#p873121bc4a)" style="fill: #66c2a5; opacity: 0.6"/>
   </g>
   <g id="patch_122">
    <path d="M 645.381238 320.4 
L 650.064717 320.4 
L 650.064717 313.789671 
L 645.381238 313.789671 
z
" clip-path="url(#p873121bc4a)" style="fill: #66c2a5; opacity: 0.6"/>
   </g>
   <g id="patch_123">
    <path d="M 650.064717 320.4 
L 654.748197 320.4 
L 654.748197 316.68169 
L 650.064717 316.68169 
z
" clip-path="url(#p873121bc4a)" style="fill: #66c2a5; opacity: 0.6"/>
   </g>
   <g id="patch_124">
    <path d="M 654.748197 320.4 
L 659.431676 320.4 
L 659.431676 319.986854 
L 654.748197 319.986854 
z
" clip-path="url(#p873121bc4a)" style="fill: #66c2a5; opacity: 0.6"/>
   </g>
   <g id="patch_125">
    <path d="M 659.431676 320.4 
L 664.115156 320.4 
L 664.115156 319.986854 
L 659.431676 319.986854 
z
" clip-path="url(#p873121bc4a)" style="fill: #66c2a5; opacity: 0.6"/>
   </g>
   <g id="patch_126">
    <path d="M 664.115156 320.4 
L 668.798635 320.4 
L 668.798635 318.747418 
L 664.115156 318.747418 
z
" clip-path="url(#p873121bc4a)" style="fill: #66c2a5; opacity: 0.6"/>
   </g>
   <g id="patch_127">
    <path d="M 459.434343 320.4 
L 465.423868 320.4 
L 465.423868 319.573709 
L 459.434343 319.573709 
z
" clip-path="url(#p873121bc4a)" style="fill: #fc8d62; opacity: 0.6"/>
   </g>
   <g id="patch_128">
    <path d="M 465.423868 320.4 
L 471.413392 320.4 
L 471.413392 319.986854 
L 465.423868 319.986854 
z
" clip-path="url(#p873121bc4a)" style="fill: #fc8d62; opacity: 0.6"/>
   </g>
   <g id="patch_129">
    <path d="M 471.413392 320.4 
L 477.402917 320.4 
L 477.402917 318.334272 
L 471.413392 318.334272 
z
" clip-path="url(#p873121bc4a)" style="fill: #fc8d62; opacity: 0.6"/>
   </g>
   <g id="patch_130">
    <path d="M 477.402917 320.4 
L 483.392442 320.4 
L 483.392442 314.202817 
L 477.402917 314.202817 
z
" clip-path="url(#p873121bc4a)" style="fill: #fc8d62; opacity: 0.6"/>
   </g>
   <g id="patch_131">
    <path d="M 483.392442 320.4 
L 489.381967 320.4 
L 489.381967 313.376526 
L 483.392442 313.376526 
z
" clip-path="url(#p873121bc4a)" style="fill: #fc8d62; opacity: 0.6"/>
   </g>
   <g id="patch_132">
    <path d="M 489.381967 320.4 
L 495.371491 320.4 
L 495.371491 310.071362 
L 489.381967 310.071362 
z
" clip-path="url(#p873121bc4a)" style="fill: #fc8d62; opacity: 0.6"/>
   </g>
   <g id="patch_133">
    <path d="M 495.371491 320.4 
L 501.361016 320.4 
L 501.361016 306.766197 
L 495.371491 306.766197 
z
" clip-path="url(#p873121bc4a)" style="fill: #fc8d62; opacity: 0.6"/>
   </g>
   <g id="patch_134">
    <path d="M 501.361016 320.4 
L 507.350541 320.4 
L 507.350541 304.287324 
L 501.361016 304.287324 
z
" clip-path="url(#p873121bc4a)" style="fill: #fc8d62; opacity: 0.6"/>
   </g>
   <g id="patch_135">
    <path d="M 507.350541 320.4 
L 513.340065 320.4 
L 513.340065 293.54554 
L 507.350541 293.54554 
z
" clip-path="url(#p873121bc4a)" style="fill: #fc8d62; opacity: 0.6"/>
   </g>
   <g id="patch_136">
    <path d="M 513.340065 320.4 
L 519.32959 320.4 
L 519.32959 280.738028 
L 513.340065 280.738028 
z
" clip-path="url(#p873121bc4a)" style="fill: #fc8d62; opacity: 0.6"/>
   </g>
   <g id="patch_137">
    <path d="M 519.32959 320.4 
L 525.319115 320.4 
L 525.319115 273.301408 
L 519.32959 273.301408 
z
" clip-path="url(#p873121bc4a)" style="fill: #fc8d62; opacity: 0.6"/>
   </g>
   <g id="patch_138">
    <path d="M 525.319115 320.4 
L 531.308639 320.4 
L 531.308639 268.756808 
L 525.319115 268.756808 
z
" clip-path="url(#p873121bc4a)" style="fill: #fc8d62; opacity: 0.6"/>
   </g>
   <g id="patch_139">
    <path d="M 531.308639 320.4 
L 537.298164 320.4 
L 537.298164 234.878873 
L 531.308639 234.878873 
z
" clip-path="url(#p873121bc4a)" style="fill: #fc8d62; opacity: 0.6"/>
   </g>
   <g id="patch_140">
    <path d="M 537.298164 320.4 
L 543.287689 320.4 
L 543.287689 220.831925 
L 537.298164 220.831925 
z
" clip-path="url(#p873121bc4a)" style="fill: #fc8d62; opacity: 0.6"/>
   </g>
   <g id="patch_141">
    <path d="M 543.287689 320.4 
L 549.277214 320.4 
L 549.277214 212.155869 
L 543.287689 212.155869 
z
" clip-path="url(#p873121bc4a)" style="fill: #fc8d62; opacity: 0.6"/>
   </g>
   <g id="patch_142">
    <path d="M 549.277214 320.4 
L 555.266738 320.4 
L 555.266738 198.10892 
L 549.277214 198.10892 
z
" clip-path="url(#p873121bc4a)" style="fill: #fc8d62; opacity: 0.6"/>
   </g>
   <g id="patch_143">
    <path d="M 555.266738 320.4 
L 561.256263 320.4 
L 561.256263 186.953991 
L 555.266738 186.953991 
z
" clip-path="url(#p873121bc4a)" style="fill: #fc8d62; opacity: 0.6"/>
   </g>
   <g id="patch_144">
    <path d="M 561.256263 320.4 
L 567.245788 320.4 
L 567.245788 159.686385 
L 561.256263 159.686385 
z
" clip-path="url(#p873121bc4a)" style="fill: #fc8d62; opacity: 0.6"/>
   </g>
   <g id="patch_145">
    <path d="M 567.245788 320.4 
L 573.235312 320.4 
L 573.235312 125.808451 
L 567.245788 125.808451 
z
" clip-path="url(#p873121bc4a)" style="fill: #fc8d62; opacity: 0.6"/>
   </g>
   <g id="patch_146">
    <path d="M 573.235312 320.4 
L 579.224837 320.4 
L 579.224837 73.338967 
L 573.235312 73.338967 
z
" clip-path="url(#p873121bc4a)" style="fill: #fc8d62; opacity: 0.6"/>
   </g>
   <g id="patch_147">
    <path d="M 579.224837 320.4 
L 585.214362 320.4 
L 585.214362 207.611268 
L 579.224837 207.611268 
z
" clip-path="url(#p873121bc4a)" style="fill: #fc8d62; opacity: 0.6"/>
   </g>
   <g id="patch_148">
    <path d="M 585.214362 320.4 
L 591.203887 320.4 
L 591.203887 248.099531 
L 585.214362 248.099531 
z
" clip-path="url(#p873121bc4a)" style="fill: #fc8d62; opacity: 0.6"/>
   </g>
   <g id="patch_149">
    <path d="M 591.203887 320.4 
L 597.193411 320.4 
L 597.193411 280.324883 
L 591.203887 280.324883 
z
" clip-path="url(#p873121bc4a)" style="fill: #fc8d62; opacity: 0.6"/>
   </g>
   <g id="patch_150">
    <path d="M 597.193411 320.4 
L 603.182936 320.4 
L 603.182936 296.024413 
L 597.193411 296.024413 
z
" clip-path="url(#p873121bc4a)" style="fill: #fc8d62; opacity: 0.6"/>
   </g>
   <g id="patch_151">
    <path d="M 603.182936 320.4 
L 609.172461 320.4 
L 609.172461 308.005634 
L 603.182936 308.005634 
z
" clip-path="url(#p873121bc4a)" style="fill: #fc8d62; opacity: 0.6"/>
   </g>
   <g id="patch_152">
    <path d="M 609.172461 320.4 
L 615.161985 320.4 
L 615.161985 313.376526 
L 609.172461 313.376526 
z
" clip-path="url(#p873121bc4a)" style="fill: #fc8d62; opacity: 0.6"/>
   </g>
   <g id="patch_153">
    <path d="M 615.161985 320.4 
L 621.15151 320.4 
L 621.15151 316.268545 
L 615.161985 316.268545 
z
" clip-path="url(#p873121bc4a)" style="fill: #fc8d62; opacity: 0.6"/>
   </g>
   <g id="patch_154">
    <path d="M 621.15151 320.4 
L 627.141035 320.4 
L 627.141035 316.268545 
L 621.15151 316.268545 
z
" clip-path="url(#p873121bc4a)" style="fill: #fc8d62; opacity: 0.6"/>
   </g>
   <g id="patch_155">
    <path d="M 627.141035 320.4 
L 633.13056 320.4 
L 633.13056 318.334272 
L 627.141035 318.334272 
z
" clip-path="url(#p873121bc4a)" style="fill: #fc8d62; opacity: 0.6"/>
   </g>
   <g id="patch_156">
    <path d="M 412.358574 320.4 
L 420.378901 320.4 
L 420.378901 319.986854 
L 412.358574 319.986854 
z
" clip-path="url(#p873121bc4a)" style="fill: #8da0cb; opacity: 0.6"/>
   </g>
   <g id="patch_157">
    <path d="M 420.378901 320.4 
L 428.399228 320.4 
L 428.399228 318.747418 
L 420.378901 318.747418 
z
" clip-path="url(#p873121bc4a)" style="fill: #8da0cb; opacity: 0.6"/>
   </g>
   <g id="patch_158">
    <path d="M 428.399228 320.4 
L 436.419555 320.4 
L 436.419555 319.986854 
L 428.399228 319.986854 
z
" clip-path="url(#p873121bc4a)" style="fill: #8da0cb; opacity: 0.6"/>
   </g>
   <g id="patch_159">
    <path d="M 436.419555 320.4 
L 444.439882 320.4 
L 444.439882 318.334272 
L 436.419555 318.334272 
z
" clip-path="url(#p873121bc4a)" style="fill: #8da0cb; opacity: 0.6"/>
   </g>
   <g id="patch_160">
    <path d="M 444.439882 320.4 
L 452.460209 320.4 
L 452.460209 313.376526 
L 444.439882 313.376526 
z
" clip-path="url(#p873121bc4a)" style="fill: #8da0cb; opacity: 0.6"/>
   </g>
   <g id="patch_161">
    <path d="M 452.460209 320.4 
L 460.480536 320.4 
L 460.480536 315.029108 
L 452.460209 315.029108 
z
" clip-path="url(#p873121bc4a)" style="fill: #8da0cb; opacity: 0.6"/>
   </g>
   <g id="patch_162">
    <path d="M 460.480536 320.4 
L 468.500863 320.4 
L 468.500863 313.376526 
L 460.480536 313.376526 
z
" clip-path="url(#p873121bc4a)" style="fill: #8da0cb; opacity: 0.6"/>
   </g>
   <g id="patch_163">
    <path d="M 468.500863 320.4 
L 476.52119 320.4 
L 476.52119 308.418779 
L 468.500863 308.418779 
z
" clip-path="url(#p873121bc4a)" style="fill: #8da0cb; opacity: 0.6"/>
   </g>
   <g id="patch_164">
    <path d="M 476.52119 320.4 
L 484.541517 320.4 
L 484.541517 297.26385 
L 476.52119 297.26385 
z
" clip-path="url(#p873121bc4a)" style="fill: #8da0cb; opacity: 0.6"/>
   </g>
   <g id="patch_165">
    <path d="M 484.541517 320.4 
L 492.561844 320.4 
L 492.561844 289.000939 
L 484.541517 289.000939 
z
" clip-path="url(#p873121bc4a)" style="fill: #8da0cb; opacity: 0.6"/>
   </g>
   <g id="patch_166">
    <path d="M 492.561844 320.4 
L 500.582171 320.4 
L 500.582171 281.977465 
L 492.561844 281.977465 
z
" clip-path="url(#p873121bc4a)" style="fill: #8da0cb; opacity: 0.6"/>
   </g>
   <g id="patch_167">
    <path d="M 500.582171 320.4 
L 508.602498 320.4 
L 508.602498 269.583099 
L 500.582171 269.583099 
z
" clip-path="url(#p873121bc4a)" style="fill: #8da0cb; opacity: 0.6"/>
   </g>
   <g id="patch_168">
    <path d="M 508.602498 320.4 
L 516.622825 320.4 
L 516.622825 246.860094 
L 508.602498 246.860094 
z
" clip-path="url(#p873121bc4a)" style="fill: #8da0cb; opacity: 0.6"/>
   </g>
   <g id="patch_169">
    <path d="M 516.622825 320.4 
L 524.643151 320.4 
L 524.643151 240.662911 
L 516.622825 240.662911 
z
" clip-path="url(#p873121bc4a)" style="fill: #8da0cb; opacity: 0.6"/>
   </g>
   <g id="patch_170">
    <path d="M 524.643151 320.4 
L 532.663478 320.4 
L 532.663478 213.395305 
L 524.643151 213.395305 
z
" clip-path="url(#p873121bc4a)" style="fill: #8da0cb; opacity: 0.6"/>
   </g>
   <g id="patch_171">
    <path d="M 532.663478 320.4 
L 540.683805 320.4 
L 540.683805 203.479812 
L 532.663478 203.479812 
z
" clip-path="url(#p873121bc4a)" style="fill: #8da0cb; opacity: 0.6"/>
   </g>
   <g id="patch_172">
    <path d="M 540.683805 320.4 
L 548.704132 320.4 
L 548.704132 197.282629 
L 540.683805 197.282629 
z
" clip-path="url(#p873121bc4a)" style="fill: #8da0cb; opacity: 0.6"/>
   </g>
   <g id="patch_173">
    <path d="M 548.704132 320.4 
L 556.724459 320.4 
L 556.724459 174.97277 
L 548.704132 174.97277 
z
" clip-path="url(#p873121bc4a)" style="fill: #8da0cb; opacity: 0.6"/>
   </g>
   <g id="patch_174">
    <path d="M 556.724459 320.4 
L 564.744786 320.4 
L 564.744786 157.620657 
L 556.724459 157.620657 
z
" clip-path="url(#p873121bc4a)" style="fill: #8da0cb; opacity: 0.6"/>
   </g>
   <g id="patch_175">
    <path d="M 564.744786 320.4 
L 572.765113 320.4 
L 572.765113 96.888263 
L 564.744786 96.888263 
z
" clip-path="url(#p873121bc4a)" style="fill: #8da0cb; opacity: 0.6"/>
   </g>
   <g id="patch_176">
    <path d="M 572.765113 320.4 
L 580.78544 320.4 
L 580.78544 56.4 
L 572.765113 56.4 
z
" clip-path="url(#p873121bc4a)" style="fill: #8da0cb; opacity: 0.6"/>
   </g>
   <g id="patch_177">
    <path d="M 580.78544 320.4 
L 588.805767 320.4 
L 588.805767 227.855399 
L 580.78544 227.855399 
z
" clip-path="url(#p873121bc4a)" style="fill: #8da0cb; opacity: 0.6"/>
   </g>
   <g id="patch_178">
    <path d="M 588.805767 320.4 
L 596.826094 320.4 
L 596.826094 277.432864 
L 588.805767 277.432864 
z
" clip-path="url(#p873121bc4a)" style="fill: #8da0cb; opacity: 0.6"/>
   </g>
   <g id="patch_179">
    <path d="M 596.826094 320.4 
L 604.846421 320.4 
L 604.846421 294.784977 
L 596.826094 294.784977 
z
" clip-path="url(#p873121bc4a)" style="fill: #8da0cb; opacity: 0.6"/>
   </g>
   <g id="patch_180">
    <path d="M 604.846421 320.4 
L 612.866748 320.4 
L 612.866748 312.137089 
L 604.846421 312.137089 
z
" clip-path="url(#p873121bc4a)" style="fill: #8da0cb; opacity: 0.6"/>
   </g>
   <g id="patch_181">
    <path d="M 612.866748 320.4 
L 620.887075 320.4 
L 620.887075 316.268545 
L 612.866748 316.268545 
z
" clip-path="url(#p873121bc4a)" style="fill: #8da0cb; opacity: 0.6"/>
   </g>
   <g id="patch_182">
    <path d="M 620.887075 320.4 
L 628.907402 320.4 
L 628.907402 318.334272 
L 620.887075 318.334272 
z
" clip-path="url(#p873121bc4a)" style="fill: #8da0cb; opacity: 0.6"/>
   </g>
   <g id="patch_183">
    <path d="M 628.907402 320.4 
L 636.927728 320.4 
L 636.927728 319.573709 
L 628.907402 319.573709 
z
" clip-path="url(#p873121bc4a)" style="fill: #8da0cb; opacity: 0.6"/>
   </g>
   <g id="patch_184">
    <path d="M 636.927728 320.4 
L 644.948055 320.4 
L 644.948055 319.986854 
L 636.927728 319.986854 
z
" clip-path="url(#p873121bc4a)" style="fill: #8da0cb; opacity: 0.6"/>
   </g>
   <g id="matplotlib.axis_3">
    <g id="xtick_9">
     <g id="line2d_16">
      <g>
       <use xlink:href="#md1ab3c2b35" x="426.8553" y="320.4" style="stroke: #000000; stroke-width: 0.8"/>
      </g>
     </g>
     <g id="text_20">
      <!-- −0.4 -->
      <g transform="translate(414.713894 334.998437) scale(0.1 -0.1)">
       <use xlink:href="#DejaVuSans-2212"/>
       <use xlink:href="#DejaVuSans-30" x="83.789062"/>
       <use xlink:href="#DejaVuSans-2e" x="147.412109"/>
       <use xlink:href="#DejaVuSans-34" x="179.199219"/>
      </g>
     </g>
    </g>
    <g id="xtick_10">
     <g id="line2d_17">
      <g>
       <use xlink:href="#md1ab3c2b35" x="463.961694" y="320.4" style="stroke: #000000; stroke-width: 0.8"/>
      </g>
     </g>
     <g id="text_21">
      <!-- −0.3 -->
      <g transform="translate(451.820288 334.998437) scale(0.1 -0.1)">
       <use xlink:href="#DejaVuSans-2212"/>
       <use xlink:href="#DejaVuSans-30" x="83.789062"/>
       <use xlink:href="#DejaVuSans-2e" x="147.412109"/>
       <use xlink:href="#DejaVuSans-33" x="179.199219"/>
      </g>
     </g>
    </g>
    <g id="xtick_11">
     <g id="line2d_18">
      <g>
       <use xlink:href="#md1ab3c2b35" x="501.068088" y="320.4" style="stroke: #000000; stroke-width: 0.8"/>
      </g>
     </g>
     <g id="text_22">
      <!-- −0.2 -->
      <g transform="translate(488.926682 334.998437) scale(0.1 -0.1)">
       <use xlink:href="#DejaVuSans-2212"/>
       <use xlink:href="#DejaVuSans-30" x="83.789062"/>
       <use xlink:href="#DejaVuSans-2e" x="147.412109"/>
       <use xlink:href="#DejaVuSans-32" x="179.199219"/>
      </g>
     </g>
    </g>
    <g id="xtick_12">
     <g id="line2d_19">
      <g>
       <use xlink:href="#md1ab3c2b35" x="538.174482" y="320.4" style="stroke: #000000; stroke-width: 0.8"/>
      </g>
     </g>
     <g id="text_23">
      <!-- −0.1 -->
      <g transform="translate(526.033075 334.998437) scale(0.1 -0.1)">
       <use xlink:href="#DejaVuSans-2212"/>
       <use xlink:href="#DejaVuSans-30" x="83.789062"/>
       <use xlink:href="#DejaVuSans-2e" x="147.412109"/>
       <use xlink:href="#DejaVuSans-31" x="179.199219"/>
      </g>
     </g>
    </g>
    <g id="xtick_13">
     <g id="line2d_20">
      <g>
       <use xlink:href="#md1ab3c2b35" x="575.280875" y="320.4" style="stroke: #000000; stroke-width: 0.8"/>
      </g>
     </g>
     <g id="text_24">
      <!-- 0.0 -->
      <g transform="translate(567.329313 334.998437) scale(0.1 -0.1)">
       <use xlink:href="#DejaVuSans-30"/>
       <use xlink:href="#DejaVuSans-2e" x="63.623047"/>
       <use xlink:href="#DejaVuSans-30" x="95.410156"/>
      </g>
     </g>
    </g>
    <g id="xtick_14">
     <g id="line2d_21">
      <g>
       <use xlink:href="#md1ab3c2b35" x="612.387269" y="320.4" style="stroke: #000000; stroke-width: 0.8"/>
      </g>
     </g>
     <g id="text_25">
      <!-- 0.1 -->
      <g transform="translate(604.435707 334.998437) scale(0.1 -0.1)">
       <use xlink:href="#DejaVuSans-30"/>
       <use xlink:href="#DejaVuSans-2e" x="63.623047"/>
       <use xlink:href="#DejaVuSans-31" x="95.410156"/>
      </g>
     </g>
    </g>
    <g id="xtick_15">
     <g id="line2d_22">
      <g>
       <use xlink:href="#md1ab3c2b35" x="649.493663" y="320.4" style="stroke: #000000; stroke-width: 0.8"/>
      </g>
     </g>
     <g id="text_26">
      <!-- 0.2 -->
      <g transform="translate(641.5421 334.998437) scale(0.1 -0.1)">
       <use xlink:href="#DejaVuSans-30"/>
       <use xlink:href="#DejaVuSans-2e" x="63.623047"/>
       <use xlink:href="#DejaVuSans-32" x="95.410156"/>
      </g>
     </g>
    </g>
    <g id="xtick_16">
     <g id="line2d_23">
      <g>
       <use xlink:href="#md1ab3c2b35" x="686.600057" y="320.4" style="stroke: #000000; stroke-width: 0.8"/>
      </g>
     </g>
     <g id="text_27">
      <!-- 0.3 -->
      <g transform="translate(678.648494 334.998437) scale(0.1 -0.1)">
       <use xlink:href="#DejaVuSans-30"/>
       <use xlink:href="#DejaVuSans-2e" x="63.623047"/>
       <use xlink:href="#DejaVuSans-33" x="95.410156"/>
      </g>
     </g>
    </g>
    <g id="text_28">
     <!-- Difference (treatment minus baseline, arbitrary units) -->
     <g transform="translate(416.126776 348.676562) scale(0.1 -0.1)">
      <use xlink:href="#DejaVuSans-44"/>
      <use xlink:href="#DejaVuSans-69" x="77.001953"/>
      <use xlink:href="#DejaVuSans-66" x="104.785156"/>
      <use xlink:href="#DejaVuSans-66" x="139.990234"/>
      <use xlink:href="#DejaVuSans-65" x="175.195312"/>
      <use xlink:href="#DejaVuSans-72" x="236.71875"/>
      <use xlink:href="#DejaVuSans-65" x="275.582031"/>
      <use xlink:href="#DejaVuSans-6e" x="337.105469"/>
      <use xlink:href="#DejaVuSans-63" x="400.484375"/>
      <use xlink:href="#DejaVuSans-65" x="455.464844"/>
      <use xlink:href="#DejaVuSans-20" x="516.988281"/>
      <use xlink:href="#DejaVuSans-28" x="548.775391"/>
      <use xlink:href="#DejaVuSans-74" x="587.789062"/>
      <use xlink:href="#DejaVuSans-72" x="626.998047"/>
      <use xlink:href="#DejaVuSans-65" x="665.861328"/>
      <use xlink:href="#DejaVuSans-61" x="727.384766"/>
      <use xlink:href="#DejaVuSans-74" x="788.664062"/>
      <use xlink:href="#DejaVuSans-6d" x="827.873047"/>
      <use xlink:href="#DejaVuSans-65" x="925.285156"/>
      <use xlink:href="#DejaVuSans-6e" x="986.808594"/>
      <use xlink:href="#DejaVuSans-74" x="1050.1875"/>
      <use xlink:href="#DejaVuSans-20" x="1089.396484"/>
      <use xlink:href="#DejaVuSans-6d" x="1121.183594"/>
      <use xlink:href="#DejaVuSans-69" x="1218.595703"/>
      <use xlink:href="#DejaVuSans-6e" x="1246.378906"/>
      <use xlink:href="#DejaVuSans-75" x="1309.757812"/>
      <use xlink:href="#DejaVuSans-73" x="1373.136719"/>
      <use xlink:href="#DejaVuSans-20" x="1425.236328"/>
      <use xlink:href="#DejaVuSans-62" x="1457.023438"/>
      <use xlink:href="#DejaVuSans-61" x="1520.5"/>
      <use xlink:href="#DejaVuSans-73" x="1581.779297"/>
      <use xlink:href="#DejaVuSans-65" x="1633.878906"/>
      <use xlink:href="#DejaVuSans-6c" x="1695.402344"/>
      <use xlink:href="#DejaVuSans-69" x="1723.185547"/>
      <use xlink:href="#DejaVuSans-6e" x="1750.96875"/>
      <use xlink:href="#DejaVuSans-65" x="1814.347656"/>
      <use xlink:href="#DejaVuSans-2c" x="1875.871094"/>
      <use xlink:href="#DejaVuSans-20" x="1907.658203"/>
      <use xlink:href="#DejaVuSans-61" x="1939.445312"/>
      <use xlink:href="#DejaVuSans-72" x="2000.724609"/>
      <use xlink:href="#DejaVuSans-62" x="2041.837891"/>
      <use xlink:href="#DejaVuSans-69" x="2105.314453"/>
      <use xlink:href="#DejaVuSans-74" x="2133.097656"/>
      <use xlink:href="#DejaVuSans-72" x="2172.306641"/>
      <use xlink:href="#DejaVuSans-61" x="2213.419922"/>
      <use xlink:href="#DejaVuSans-72" x="2274.699219"/>
      <use xlink:href="#DejaVuSans-79" x="2315.8125"/>
      <use xlink:href="#DejaVuSans-20" x="2374.992188"/>
      <use xlink:href="#DejaVuSans-75" x="2406.779297"/>
      <use xlink:href="#DejaVuSans-6e" x="2470.158203"/>
      <use xlink:href="#DejaVuSans-69" x="2533.537109"/>
      <use xlink:href="#DejaVuSans-74" x="2561.320312"/>
      <use xlink:href="#DejaVuSans-73" x="2600.529297"/>
      <use xlink:href="#DejaVuSans-29" x="2652.628906"/>
     </g>
    </g>
   </g>
   <g id="matplotlib.axis_4">
    <g id="ytick_7">
     <g id="line2d_24">
      <g>
       <use xlink:href="#m25c095feea" x="398.523864" y="320.4" style="stroke: #000000; stroke-width: 0.8"/>
      </g>
     </g>
     <g id="text_29">
      <!-- 0 -->
      <g transform="translate(385.161364 324.199219) scale(0.1 -0.1)">
       <use xlink:href="#DejaVuSans-30"/>
      </g>
     </g>
    </g>
    <g id="ytick_8">
     <g id="line2d_25">
      <g>
       <use xlink:href="#m25c095feea" x="398.523864" y="279.085446" style="stroke: #000000; stroke-width: 0.8"/>
      </g>
     </g>
     <g id="text_30">
      <!-- 100 -->
      <g transform="translate(372.436364 282.884665) scale(0.1 -0.1)">
       <use xlink:href="#DejaVuSans-31"/>
       <use xlink:href="#DejaVuSans-30" x="63.623047"/>
       <use xlink:href="#DejaVuSans-30" x="127.246094"/>
      </g>
     </g>
    </g>
    <g id="ytick_9">
     <g id="line2d_26">
      <g>
       <use xlink:href="#m25c095feea" x="398.523864" y="237.770892" style="stroke: #000000; stroke-width: 0.8"/>
      </g>
     </g>
     <g id="text_31">
      <!-- 200 -->
      <g transform="translate(372.436364 241.570111) scale(0.1 -0.1)">
       <use xlink:href="#DejaVuSans-32"/>
       <use xlink:href="#DejaVuSans-30" x="63.623047"/>
       <use xlink:href="#DejaVuSans-30" x="127.246094"/>
      </g>
     </g>
    </g>
    <g id="ytick_10">
     <g id="line2d_27">
      <g>
       <use xlink:href="#m25c095feea" x="398.523864" y="196.456338" style="stroke: #000000; stroke-width: 0.8"/>
      </g>
     </g>
     <g id="text_32">
      <!-- 300 -->
      <g transform="translate(372.436364 200.255557) scale(0.1 -0.1)">
       <use xlink:href="#DejaVuSans-33"/>
       <use xlink:href="#DejaVuSans-30" x="63.623047"/>
       <use xlink:href="#DejaVuSans-30" x="127.246094"/>
      </g>
     </g>
    </g>
    <g id="ytick_11">
     <g id="line2d_28">
      <g>
       <use xlink:href="#m25c095feea" x="398.523864" y="155.141784" style="stroke: #000000; stroke-width: 0.8"/>
      </g>
     </g>
     <g id="text_33">
      <!-- 400 -->
      <g transform="translate(372.436364 158.941003) scale(0.1 -0.1)">
       <use xlink:href="#DejaVuSans-34"/>
       <use xlink:href="#DejaVuSans-30" x="63.623047"/>
       <use xlink:href="#DejaVuSans-30" x="127.246094"/>
      </g>
     </g>
    </g>
    <g id="ytick_12">
     <g id="line2d_29">
      <g>
       <use xlink:href="#m25c095feea" x="398.523864" y="113.82723" style="stroke: #000000; stroke-width: 0.8"/>
      </g>
     </g>
     <g id="text_34">
      <!-- 500 -->
      <g transform="translate(372.436364 117.626449) scale(0.1 -0.1)">
       <use xlink:href="#DejaVuSans-35"/>
       <use xlink:href="#DejaVuSans-30" x="63.623047"/>
       <use xlink:href="#DejaVuSans-30" x="127.246094"/>
      </g>
     </g>
    </g>
    <g id="ytick_13">
     <g id="line2d_30">
      <g>
       <use xlink:href="#m25c095feea" x="398.523864" y="72.512676" style="stroke: #000000; stroke-width: 0.8"/>
      </g>
     </g>
     <g id="text_35">
      <!-- 600 -->
      <g transform="translate(372.436364 76.311895) scale(0.1 -0.1)">
       <defs>
        <path id="DejaVuSans-36" d="M 2113 2584 
Q 1688 2584 1439 2293 
Q 1191 2003 1191 1497 
Q 1191 994 1439 701 
Q 1688 409 2113 409 
Q 2538 409 2786 701 
Q 3034 994 3034 1497 
Q 3034 2003 2786 2293 
Q 2538 2584 2113 2584 
z
M 3366 4563 
L 3366 3988 
Q 3128 4100 2886 4159 
Q 2644 4219 2406 4219 
Q 1781 4219 1451 3797 
Q 1122 3375 1075 2522 
Q 1259 2794 1537 2939 
Q 1816 3084 2150 3084 
Q 2853 3084 3261 2657 
Q 3669 2231 3669 1497 
Q 3669 778 3244 343 
Q 2819 -91 2113 -91 
Q 1303 -91 875 529 
Q 447 1150 447 2328 
Q 447 3434 972 4092 
Q 1497 4750 2381 4750 
Q 2619 4750 2861 4703 
Q 3103 4656 3366 4563 
z
" transform="scale(0.015625)"/>
       </defs>
       <use xlink:href="#DejaVuSans-36"/>
       <use xlink:href="#DejaVuSans-30" x="63.623047"/>
       <use xlink:href="#DejaVuSans-30" x="127.246094"/>
      </g>
     </g>
    </g>
   </g>
   <g id="line2d_31">
    <path d="M 575.280875 320.4 
L 575.280875 43.2 
" clip-path="url(#p873121bc4a)" style="fill: none; stroke-dasharray: 1.85,0.8; stroke-dashoffset: 0; stroke: #000000; stroke-width: 0.5"/>
   </g>
   <g id="patch_185">
    <path d="M 398.523864 320.4 
L 398.523864 43.2 
" style="fill: none; stroke: #000000; stroke-width: 0.8; stroke-linejoin: miter; stroke-linecap: square"/>
   </g>
   <g id="patch_186">
    <path d="M 702.8875 320.4 
L 702.8875 43.2 
" style="fill: none; stroke: #000000; stroke-width: 0.8; stroke-linejoin: miter; stroke-linecap: square"/>
   </g>
   <g id="patch_187">
    <path d="M 398.523864 320.4 
L 702.8875 320.4 
" style="fill: none; stroke: #000000; stroke-width: 0.8; stroke-linejoin: miter; stroke-linecap: square"/>
   </g>
   <g id="patch_188">
    <path d="M 398.523864 43.2 
L 702.8875 43.2 
" style="fill: none; stroke: #000000; stroke-width: 0.8; stroke-linejoin: miter; stroke-linecap: square"/>
   </g>
   <g id="text_36">
    <!-- Center -->
    <g transform="translate(530.510994 37.2) scale(0.12 -0.12)">
     <defs>
      <path id="DejaVuSans-43" d="M 4122 4306 
L 4122 3641 
Q 3803 3938 3442 4084 
Q 3081 4231 2675 4231 
Q 1875 4231 1450 3742 
Q 1025 3253 1025 2328 
Q 1025 1406 1450 917 
Q 1875 428 2675 428 
Q 3081 428 3442 575 
Q 3803 722 4122 1019 
L 4122 359 
Q 3791 134 3420 21 
Q 3050 -91 2638 -91 
Q 1578 -91 968 557 
Q 359 1206 359 2328 
Q 359 3453 968 4101 
Q 1578 4750 2638 4750 
Q 3056 4750 3426 4639 
Q 3797 4528 4122 4306 
z
" transform="scale(0.015625)"/>
     </defs>
     <use xlink:href="#DejaVuSans-43"/>
     <use xlink:href="#DejaVuSans-65" x="69.824219"/>
     <use xlink:href="#DejaVuSans-6e" x="131.347656"/>
     <use xlink:href="#DejaVuSans-74" x="194.726562"/>
     <use xlink:href="#DejaVuSans-65" x="233.935547"/>
     <use xlink:href="#DejaVuSans-72" x="295.458984"/>
    </g>
   </g>
   <g id="legend_2">
    <g id="patch_189">
     <path d="M 590.74375 66.57625 
L 610.74375 66.57625 
L 610.74375 59.57625 
L 590.74375 59.57625 
z
" style="fill: #66c2a5; opacity: 0.6"/>
    </g>
    <g id="text_37">
     <!-- after_ablation -->
     <g transform="translate(618.74375 59.798437) scale(0.1 -0.1)">
      <use xlink:href="#DejaVuSans-61"/>
      <use xlink:href="#DejaVuSans-66" x="61.279297"/>
      <use xlink:href="#DejaVuSans-74" x="94.734375"/>
      <use xlink:href="#DejaVuSans-65" x="133.943359"/>
      <use xlink:href="#DejaVuSans-72" x="195.466797"/>
      <use xlink:href="#DejaVuSans-5f" x="236.580078"/>
      <use xlink:href="#DejaVuSans-61" x="286.580078"/>
      <use xlink:href="#DejaVuSans-62" x="347.859375"/>
      <use xlink:href="#DejaVuSans-6c" x="411.335938"/>
      <use xlink:href="#DejaVuSans-61" x="439.119141"/>
      <use xlink:href="#DejaVuSans-74" x="500.398438"/>
      <use xlink:href="#DejaVuSans-69" x="539.607422"/>
      <use xlink:href="#DejaVuSans-6f" x="567.390625"/>
      <use xlink:href="#DejaVuSans-6e" x="628.572266"/>
     </g>
     <!-- prob +ve: 0.8 -->
     <g transform="translate(618.74375 71.274375) scale(0.1 -0.1)">
      <defs>
       <path id="DejaVuSans-38" d="M 2034 2216 
Q 1584 2216 1326 1975 
Q 1069 1734 1069 1313 
Q 1069 891 1326 650 
Q 1584 409 2034 409 
Q 2484 409 2743 651 
Q 3003 894 3003 1313 
Q 3003 1734 2745 1975 
Q 2488 2216 2034 2216 
z
M 1403 2484 
Q 997 2584 770 2862 
Q 544 3141 544 3541 
Q 544 4100 942 4425 
Q 1341 4750 2034 4750 
Q 2731 4750 3128 4425 
Q 3525 4100 3525 3541 
Q 3525 3141 3298 2862 
Q 3072 2584 2669 2484 
Q 3125 2378 3379 2068 
Q 3634 1759 3634 1313 
Q 3634 634 3220 271 
Q 2806 -91 2034 -91 
Q 1263 -91 848 271 
Q 434 634 434 1313 
Q 434 1759 690 2068 
Q 947 2378 1403 2484 
z
M 1172 3481 
Q 1172 3119 1398 2916 
Q 1625 2713 2034 2713 
Q 2441 2713 2670 2916 
Q 2900 3119 2900 3481 
Q 2900 3844 2670 4047 
Q 2441 4250 2034 4250 
Q 1625 4250 1398 4047 
Q 1172 3844 1172 3481 
z
" transform="scale(0.015625)"/>
      </defs>
      <use xlink:href="#DejaVuSans-70"/>
      <use xlink:href="#DejaVuSans-72" x="63.476562"/>
      <use xlink:href="#DejaVuSans-6f" x="102.339844"/>
      <use xlink:href="#DejaVuSans-62" x="163.521484"/>
      <use xlink:href="#DejaVuSans-20" x="226.998047"/>
      <use xlink:href="#DejaVuSans-2b" x="258.785156"/>
      <use xlink:href="#DejaVuSans-76" x="342.574219"/>
      <use xlink:href="#DejaVuSans-65" x="401.753906"/>
      <use xlink:href="#DejaVuSans-3a" x="463.277344"/>
      <use xlink:href="#DejaVuSans-20" x="496.96875"/>
      <use xlink:href="#DejaVuSans-30" x="528.755859"/>
      <use xlink:href="#DejaVuSans-2e" x="592.378906"/>
      <use xlink:href="#DejaVuSans-38" x="624.166016"/>
     </g>
    </g>
    <g id="patch_190">
     <path d="M 590.74375 92.59125 
L 610.74375 92.59125 
L 610.74375 85.59125 
L 590.74375 85.59125 
z
" style="fill: #fc8d62; opacity: 0.6"/>
    </g>
    <g id="text_38">
     <!-- hyper -->
     <g transform="translate(618.74375 85.9525) scale(0.1 -0.1)">
      <use xlink:href="#DejaVuSans-68"/>
      <use xlink:href="#DejaVuSans-79" x="63.378906"/>
      <use xlink:href="#DejaVuSans-70" x="122.558594"/>
      <use xlink:href="#DejaVuSans-65" x="186.035156"/>
      <use xlink:href="#DejaVuSans-72" x="247.558594"/>
     </g>
     <!-- prob +ve: 0.26 -->
     <g transform="translate(618.74375 97.150312) scale(0.1 -0.1)">
      <use xlink:href="#DejaVuSans-70"/>
      <use xlink:href="#DejaVuSans-72" x="63.476562"/>
      <use xlink:href="#DejaVuSans-6f" x="102.339844"/>
      <use xlink:href="#DejaVuSans-62" x="163.521484"/>
      <use xlink:href="#DejaVuSans-20" x="226.998047"/>
      <use xlink:href="#DejaVuSans-2b" x="258.785156"/>
      <use xlink:href="#DejaVuSans-76" x="342.574219"/>
      <use xlink:href="#DejaVuSans-65" x="401.753906"/>
      <use xlink:href="#DejaVuSans-3a" x="463.277344"/>
      <use xlink:href="#DejaVuSans-20" x="496.96875"/>
      <use xlink:href="#DejaVuSans-30" x="528.755859"/>
      <use xlink:href="#DejaVuSans-2e" x="592.378906"/>
      <use xlink:href="#DejaVuSans-32" x="624.166016"/>
      <use xlink:href="#DejaVuSans-36" x="687.789062"/>
     </g>
    </g>
    <g id="patch_191">
     <path d="M 590.74375 118.467187 
L 610.74375 118.467187 
L 610.74375 111.467187 
L 590.74375 111.467187 
z
" style="fill: #8da0cb; opacity: 0.6"/>
    </g>
    <g id="text_39">
     <!-- hyper2 -->
     <g transform="translate(618.74375 111.828437) scale(0.1 -0.1)">
      <use xlink:href="#DejaVuSans-68"/>
      <use xlink:href="#DejaVuSans-79" x="63.378906"/>
      <use xlink:href="#DejaVuSans-70" x="122.558594"/>
      <use xlink:href="#DejaVuSans-65" x="186.035156"/>
      <use xlink:href="#DejaVuSans-72" x="247.558594"/>
      <use xlink:href="#DejaVuSans-32" x="288.671875"/>
     </g>
     <!-- prob +ve: 0.2 -->
     <g transform="translate(618.74375 123.02625) scale(0.1 -0.1)">
      <use xlink:href="#DejaVuSans-70"/>
      <use xlink:href="#DejaVuSans-72" x="63.476562"/>
      <use xlink:href="#DejaVuSans-6f" x="102.339844"/>
      <use xlink:href="#DejaVuSans-62" x="163.521484"/>
      <use xlink:href="#DejaVuSans-20" x="226.998047"/>
      <use xlink:href="#DejaVuSans-2b" x="258.785156"/>
      <use xlink:href="#DejaVuSans-76" x="342.574219"/>
      <use xlink:href="#DejaVuSans-65" x="401.753906"/>
      <use xlink:href="#DejaVuSans-3a" x="463.277344"/>
      <use xlink:href="#DejaVuSans-20" x="496.96875"/>
      <use xlink:href="#DejaVuSans-30" x="528.755859"/>
      <use xlink:href="#DejaVuSans-2e" x="592.378906"/>
      <use xlink:href="#DejaVuSans-32" x="624.166016"/>
     </g>
    </g>
   </g>
  </g>
  <g id="text_40">
   <!-- Treatment effect differences relative to baseline (basic model with full dataset) -->
   <g transform="translate(119.712813 16.318125) scale(0.12 -0.12)">
    <defs>
     <path id="DejaVuSans-54" d="M -19 4666 
L 3928 4666 
L 3928 4134 
L 2272 4134 
L 2272 0 
L 1638 0 
L 1638 4134 
L -19 4134 
L -19 4666 
z
" transform="scale(0.015625)"/>
     <path id="DejaVuSans-64" d="M 2906 2969 
L 2906 4863 
L 3481 4863 
L 3481 0 
L 2906 0 
L 2906 525 
Q 2725 213 2448 61 
Q 2172 -91 1784 -91 
Q 1150 -91 751 415 
Q 353 922 353 1747 
Q 353 2572 751 3078 
Q 1150 3584 1784 3584 
Q 2172 3584 2448 3432 
Q 2725 3281 2906 2969 
z
M 947 1747 
Q 947 1113 1208 752 
Q 1469 391 1925 391 
Q 2381 391 2643 752 
Q 2906 1113 2906 1747 
Q 2906 2381 2643 2742 
Q 2381 3103 1925 3103 
Q 1469 3103 1208 2742 
Q 947 2381 947 1747 
z
" transform="scale(0.015625)"/>
     <path id="DejaVuSans-77" d="M 269 3500 
L 844 3500 
L 1563 769 
L 2278 3500 
L 2956 3500 
L 3675 769 
L 4391 3500 
L 4966 3500 
L 4050 0 
L 3372 0 
L 2619 2869 
L 1863 0 
L 1184 0 
L 269 3500 
z
" transform="scale(0.015625)"/>
    </defs>
    <use xlink:href="#DejaVuSans-54"/>
    <use xlink:href="#DejaVuSans-72" x="46.333984"/>
    <use xlink:href="#DejaVuSans-65" x="85.197266"/>
    <use xlink:href="#DejaVuSans-61" x="146.720703"/>
    <use xlink:href="#DejaVuSans-74" x="208"/>
    <use xlink:href="#DejaVuSans-6d" x="247.208984"/>
    <use xlink:href="#DejaVuSans-65" x="344.621094"/>
    <use xlink:href="#DejaVuSans-6e" x="406.144531"/>
    <use xlink:href="#DejaVuSans-74" x="469.523438"/>
    <use xlink:href="#DejaVuSans-20" x="508.732422"/>
    <use xlink:href="#DejaVuSans-65" x="540.519531"/>
    <use xlink:href="#DejaVuSans-66" x="602.042969"/>
    <use xlink:href="#DejaVuSans-66" x="637.248047"/>
    <use xlink:href="#DejaVuSans-65" x="672.453125"/>
    <use xlink:href="#DejaVuSans-63" x="733.976562"/>
    <use xlink:href="#DejaVuSans-74" x="788.957031"/>
    <use xlink:href="#DejaVuSans-20" x="828.166016"/>
    <use xlink:href="#DejaVuSans-64" x="859.953125"/>
    <use xlink:href="#DejaVuSans-69" x="923.429688"/>
    <use xlink:href="#DejaVuSans-66" x="951.212891"/>
    <use xlink:href="#DejaVuSans-66" x="986.417969"/>
    <use xlink:href="#DejaVuSans-65" x="1021.623047"/>
    <use xlink:href="#DejaVuSans-72" x="1083.146484"/>
    <use xlink:href="#DejaVuSans-65" x="1122.009766"/>
    <use xlink:href="#DejaVuSans-6e" x="1183.533203"/>
    <use xlink:href="#DejaVuSans-63" x="1246.912109"/>
    <use xlink:href="#DejaVuSans-65" x="1301.892578"/>
    <use xlink:href="#DejaVuSans-73" x="1363.416016"/>
    <use xlink:href="#DejaVuSans-20" x="1415.515625"/>
    <use xlink:href="#DejaVuSans-72" x="1447.302734"/>
    <use xlink:href="#DejaVuSans-65" x="1486.166016"/>
    <use xlink:href="#DejaVuSans-6c" x="1547.689453"/>
    <use xlink:href="#DejaVuSans-61" x="1575.472656"/>
    <use xlink:href="#DejaVuSans-74" x="1636.751953"/>
    <use xlink:href="#DejaVuSans-69" x="1675.960938"/>
    <use xlink:href="#DejaVuSans-76" x="1703.744141"/>
    <use xlink:href="#DejaVuSans-65" x="1762.923828"/>
    <use xlink:href="#DejaVuSans-20" x="1824.447266"/>
    <use xlink:href="#DejaVuSans-74" x="1856.234375"/>
    <use xlink:href="#DejaVuSans-6f" x="1895.443359"/>
    <use xlink:href="#DejaVuSans-20" x="1956.625"/>
    <use xlink:href="#DejaVuSans-62" x="1988.412109"/>
    <use xlink:href="#DejaVuSans-61" x="2051.888672"/>
    <use xlink:href="#DejaVuSans-73" x="2113.167969"/>
    <use xlink:href="#DejaVuSans-65" x="2165.267578"/>
    <use xlink:href="#DejaVuSans-6c" x="2226.791016"/>
    <use xlink:href="#DejaVuSans-69" x="2254.574219"/>
    <use xlink:href="#DejaVuSans-6e" x="2282.357422"/>
    <use xlink:href="#DejaVuSans-65" x="2345.736328"/>
    <use xlink:href="#DejaVuSans-20" x="2407.259766"/>
    <use xlink:href="#DejaVuSans-28" x="2439.046875"/>
    <use xlink:href="#DejaVuSans-62" x="2478.060547"/>
    <use xlink:href="#DejaVuSans-61" x="2541.537109"/>
    <use xlink:href="#DejaVuSans-73" x="2602.816406"/>
    <use xlink:href="#DejaVuSans-69" x="2654.916016"/>
    <use xlink:href="#DejaVuSans-63" x="2682.699219"/>
    <use xlink:href="#DejaVuSans-20" x="2737.679688"/>
    <use xlink:href="#DejaVuSans-6d" x="2769.466797"/>
    <use xlink:href="#DejaVuSans-6f" x="2866.878906"/>
    <use xlink:href="#DejaVuSans-64" x="2928.060547"/>
    <use xlink:href="#DejaVuSans-65" x="2991.537109"/>
    <use xlink:href="#DejaVuSans-6c" x="3053.060547"/>
    <use xlink:href="#DejaVuSans-20" x="3080.84375"/>
    <use xlink:href="#DejaVuSans-77" x="3112.630859"/>
    <use xlink:href="#DejaVuSans-69" x="3194.417969"/>
    <use xlink:href="#DejaVuSans-74" x="3222.201172"/>
    <use xlink:href="#DejaVuSans-68" x="3261.410156"/>
    <use xlink:href="#DejaVuSans-20" x="3324.789062"/>
    <use xlink:href="#DejaVuSans-66" x="3356.576172"/>
    <use xlink:href="#DejaVuSans-75" x="3391.78125"/>
    <use xlink:href="#DejaVuSans-6c" x="3455.160156"/>
    <use xlink:href="#DejaVuSans-6c" x="3482.943359"/>
    <use xlink:href="#DejaVuSans-20" x="3510.726562"/>
    <use xlink:href="#DejaVuSans-64" x="3542.513672"/>
    <use xlink:href="#DejaVuSans-61" x="3605.990234"/>
    <use xlink:href="#DejaVuSans-74" x="3667.269531"/>
    <use xlink:href="#DejaVuSans-61" x="3706.478516"/>
    <use xlink:href="#DejaVuSans-73" x="3767.757812"/>
    <use xlink:href="#DejaVuSans-65" x="3819.857422"/>
    <use xlink:href="#DejaVuSans-74" x="3881.380859"/>
    <use xlink:href="#DejaVuSans-29" x="3920.589844"/>
   </g>
  </g>
 </g>
 <defs>
  <clipPath id="pa070a116ea">
   <rect x="33.2875" y="43.2" width="304.363636" height="277.2"/>
  </clipPath>
  <clipPath id="p873121bc4a">
   <rect x="398.523864" y="43.2" width="304.363636" height="277.2"/>
  </clipPath>
 </defs>
</svg>
