<?xml version="1.0" encoding="utf-8" standalone="no"?>
<!DOCTYPE svg PUBLIC "-//W3C//DTD SVG 1.1//EN"
  "http://www.w3.org/Graphics/SVG/1.1/DTD/svg11.dtd">
<svg xmlns:xlink="http://www.w3.org/1999/xlink" width="613.6875pt" height="296.207585pt" viewBox="0 0 613.6875 296.207585" xmlns="http://www.w3.org/2000/svg" version="1.1">
 <metadata>
  <rdf:RDF xmlns:dc="http://purl.org/dc/elements/1.1/" xmlns:cc="http://creativecommons.org/ns#" xmlns:rdf="http://www.w3.org/1999/02/22-rdf-syntax-ns#">
   <cc:Work>
    <dc:type rdf:resource="http://purl.org/dc/dcmitype/StillImage"/>
    <dc:date>2025-03-31T11:04:16.213119</dc:date>
    <dc:format>image/svg+xml</dc:format>
    <dc:creator>
     <cc:Agent>
      <dc:title>Matplotlib v3.9.2, https://matplotlib.org/</dc:title>
     </cc:Agent>
    </dc:creator>
   </cc:Work>
  </rdf:RDF>
 </metadata>
 <defs>
  <style type="text/css">*{stroke-linejoin: round; stroke-linecap: butt}</style>
 </defs>
 <g id="figure_1">
  <g id="patch_1">
   <path d="M 0 296.207585 
L 613.6875 296.207585 
L 613.6875 0 
L 0 0 
z
" style="fill: #ffffff"/>
  </g>
  <g id="axes_1">
   <g id="patch_2">
    <path d="M 48.4875 284.4 
L 606.4875 284.4 
L 606.4875 7.2 
L 48.4875 7.2 
z
" style="fill: #ffffff"/>
   </g>
   <g id="LineCollection_1">
    <path d="M 73.851136 268.852669 
L 73.851136 254.258468 
" clip-path="url(#pcae196d011)" style="fill: none; stroke: #dcdcdc; stroke-width: 1.5"/>
    <path d="M 78.592003 271.483826 
L 78.592003 258.522495 
" clip-path="url(#pcae196d011)" style="fill: none; stroke: #dcdcdc; stroke-width: 1.5"/>
    <path d="M 83.33287 271.688592 
L 83.33287 258.239324 
" clip-path="url(#pcae196d011)" style="fill: none; stroke: #dcdcdc; stroke-width: 1.5"/>
    <path d="M 88.073736 271.8 
L 88.073736 257.815385 
" clip-path="url(#pcae196d011)" style="fill: none; stroke: #dcdcdc; stroke-width: 1.5"/>
    <path d="M 92.814603 271.476733 
L 92.814603 258.013701 
" clip-path="url(#pcae196d011)" style="fill: none; stroke: #dcdcdc; stroke-width: 1.5"/>
    <path d="M 97.555469 268.763083 
L 97.555469 253.523313 
" clip-path="url(#pcae196d011)" style="fill: none; stroke: #dcdcdc; stroke-width: 1.5"/>
    <path d="M 102.296336 268.869035 
L 102.296336 253.297463 
" clip-path="url(#pcae196d011)" style="fill: none; stroke: #dcdcdc; stroke-width: 1.5"/>
    <path d="M 107.037203 268.832987 
L 107.037203 253.505325 
" clip-path="url(#pcae196d011)" style="fill: none; stroke: #dcdcdc; stroke-width: 1.5"/>
    <path d="M 111.778069 269.096892 
L 111.778069 253.271085 
" clip-path="url(#pcae196d011)" style="fill: none; stroke: #dcdcdc; stroke-width: 1.5"/>
   </g>
   <g id="LineCollection_2">
    <path d="M 116.518936 258.4181 
L 116.518936 235.787826 
" clip-path="url(#pcae196d011)" style="fill: none; stroke: #dcdcdc; stroke-width: 1.5"/>
    <path d="M 121.259802 258.712217 
L 121.259802 235.630673 
" clip-path="url(#pcae196d011)" style="fill: none; stroke: #dcdcdc; stroke-width: 1.5"/>
    <path d="M 126.000669 265.415262 
L 126.000669 247.50981 
" clip-path="url(#pcae196d011)" style="fill: none; stroke: #dcdcdc; stroke-width: 1.5"/>
    <path d="M 130.741536 258.490867 
L 130.741536 235.73836 
" clip-path="url(#pcae196d011)" style="fill: none; stroke: #dcdcdc; stroke-width: 1.5"/>
    <path d="M 135.482402 265.800282 
L 135.482402 247.737924 
" clip-path="url(#pcae196d011)" style="fill: none; stroke: #dcdcdc; stroke-width: 1.5"/>
    <path d="M 140.223269 265.58178 
L 140.223269 247.280089 
" clip-path="url(#pcae196d011)" style="fill: none; stroke: #dcdcdc; stroke-width: 1.5"/>
    <path d="M 144.964136 265.416425 
L 144.964136 248.168588 
" clip-path="url(#pcae196d011)" style="fill: none; stroke: #dcdcdc; stroke-width: 1.5"/>
    <path d="M 149.705002 258.605543 
L 149.705002 235.918887 
" clip-path="url(#pcae196d011)" style="fill: none; stroke: #dcdcdc; stroke-width: 1.5"/>
    <path d="M 154.445869 258.307434 
L 154.445869 235.65877 
" clip-path="url(#pcae196d011)" style="fill: none; stroke: #dcdcdc; stroke-width: 1.5"/>
   </g>
   <g id="LineCollection_3">
    <path d="M 159.186735 237.382798 
L 159.186735 200.640167 
" clip-path="url(#pcae196d011)" style="fill: none; stroke: #dcdcdc; stroke-width: 1.5"/>
    <path d="M 163.927602 247.789832 
L 163.927602 217.23902 
" clip-path="url(#pcae196d011)" style="fill: none; stroke: #dcdcdc; stroke-width: 1.5"/>
    <path d="M 168.668469 247.818697 
L 168.668469 217.516414 
" clip-path="url(#pcae196d011)" style="fill: none; stroke: #dcdcdc; stroke-width: 1.5"/>
    <path d="M 173.409335 238.467595 
L 173.409335 199.810088 
" clip-path="url(#pcae196d011)" style="fill: none; stroke: #dcdcdc; stroke-width: 1.5"/>
    <path d="M 178.150202 247.21406 
L 178.150202 218.734887 
" clip-path="url(#pcae196d011)" style="fill: none; stroke: #dcdcdc; stroke-width: 1.5"/>
    <path d="M 182.891068 238.192379 
L 182.891068 199.840864 
" clip-path="url(#pcae196d011)" style="fill: none; stroke: #dcdcdc; stroke-width: 1.5"/>
    <path d="M 187.631935 238.414241 
L 187.631935 200.20155 
" clip-path="url(#pcae196d011)" style="fill: none; stroke: #dcdcdc; stroke-width: 1.5"/>
    <path d="M 192.372802 247.937766 
L 192.372802 217.468916 
" clip-path="url(#pcae196d011)" style="fill: none; stroke: #dcdcdc; stroke-width: 1.5"/>
    <path d="M 197.113668 237.807745 
L 197.113668 201.178181 
" clip-path="url(#pcae196d011)" style="fill: none; stroke: #dcdcdc; stroke-width: 1.5"/>
   </g>
   <g id="LineCollection_4">
    <path d="M 201.854535 202.31933 
L 201.854535 146.660776 
" clip-path="url(#pcae196d011)" style="fill: none; stroke: #dcdcdc; stroke-width: 1.5"/>
    <path d="M 206.595401 203.104534 
L 206.595401 147.417375 
" clip-path="url(#pcae196d011)" style="fill: none; stroke: #dcdcdc; stroke-width: 1.5"/>
    <path d="M 211.336268 218.847373 
L 211.336268 171.741178 
" clip-path="url(#pcae196d011)" style="fill: none; stroke: #dcdcdc; stroke-width: 1.5"/>
    <path d="M 216.077135 218.791996 
L 216.077135 172.312774 
" clip-path="url(#pcae196d011)" style="fill: none; stroke: #dcdcdc; stroke-width: 1.5"/>
    <path d="M 220.818001 202.557136 
L 220.818001 145.887628 
" clip-path="url(#pcae196d011)" style="fill: none; stroke: #dcdcdc; stroke-width: 1.5"/>
    <path d="M 225.558868 201.893954 
L 225.558868 147.559951 
" clip-path="url(#pcae196d011)" style="fill: none; stroke: #dcdcdc; stroke-width: 1.5"/>
    <path d="M 230.299734 218.447723 
L 230.299734 172.651208 
" clip-path="url(#pcae196d011)" style="fill: none; stroke: #dcdcdc; stroke-width: 1.5"/>
    <path d="M 235.040601 202.647091 
L 235.040601 146.425503 
" clip-path="url(#pcae196d011)" style="fill: none; stroke: #dcdcdc; stroke-width: 1.5"/>
    <path d="M 239.781468 218.266545 
L 239.781468 172.106347 
" clip-path="url(#pcae196d011)" style="fill: none; stroke: #dcdcdc; stroke-width: 1.5"/>
   </g>
   <g id="LineCollection_5">
    <path d="M 244.522334 181.502161 
L 244.522334 114.507786 
" clip-path="url(#pcae196d011)" style="fill: none; stroke: #dcdcdc; stroke-width: 1.5"/>
    <path d="M 249.263201 156.966179 
L 249.263201 83.60591 
" clip-path="url(#pcae196d011)" style="fill: none; stroke: #dcdcdc; stroke-width: 1.5"/>
    <path d="M 254.004068 158.587642 
L 254.004068 81.378418 
" clip-path="url(#pcae196d011)" style="fill: none; stroke: #dcdcdc; stroke-width: 1.5"/>
    <path d="M 258.744934 182.116118 
L 258.744934 116.339774 
" clip-path="url(#pcae196d011)" style="fill: none; stroke: #dcdcdc; stroke-width: 1.5"/>
    <path d="M 263.485801 157.480943 
L 263.485801 82.75191 
" clip-path="url(#pcae196d011)" style="fill: none; stroke: #dcdcdc; stroke-width: 1.5"/>
    <path d="M 268.226667 180.875057 
L 268.226667 113.724256 
" clip-path="url(#pcae196d011)" style="fill: none; stroke: #dcdcdc; stroke-width: 1.5"/>
    <path d="M 272.967534 179.960666 
L 272.967534 116.315477 
" clip-path="url(#pcae196d011)" style="fill: none; stroke: #dcdcdc; stroke-width: 1.5"/>
    <path d="M 277.708401 158.830834 
L 277.708401 81.022436 
" clip-path="url(#pcae196d011)" style="fill: none; stroke: #dcdcdc; stroke-width: 1.5"/>
    <path d="M 282.449267 158.236642 
L 282.449267 83.601582 
" clip-path="url(#pcae196d011)" style="fill: none; stroke: #dcdcdc; stroke-width: 1.5"/>
   </g>
   <g id="LineCollection_6">
    <path d="M 287.190134 135.329363 
L 287.190134 38.833683 
" clip-path="url(#pcae196d011)" style="fill: none; stroke: #dcdcdc; stroke-width: 1.5"/>
    <path d="M 291.931 154.886319 
L 291.931 64.419449 
" clip-path="url(#pcae196d011)" style="fill: none; stroke: #dcdcdc; stroke-width: 1.5"/>
    <path d="M 296.671867 155.036806 
L 296.671867 62.127999 
" clip-path="url(#pcae196d011)" style="fill: none; stroke: #dcdcdc; stroke-width: 1.5"/>
    <path d="M 301.412734 156.256449 
L 301.412734 61.889208 
" clip-path="url(#pcae196d011)" style="fill: none; stroke: #dcdcdc; stroke-width: 1.5"/>
    <path d="M 306.1536 134.621416 
L 306.1536 37.245713 
" clip-path="url(#pcae196d011)" style="fill: none; stroke: #dcdcdc; stroke-width: 1.5"/>
    <path d="M 310.894467 135.089059 
L 310.894467 40.732935 
" clip-path="url(#pcae196d011)" style="fill: none; stroke: #dcdcdc; stroke-width: 1.5"/>
    <path d="M 315.635333 133.781176 
L 315.635333 37.811248 
" clip-path="url(#pcae196d011)" style="fill: none; stroke: #dcdcdc; stroke-width: 1.5"/>
    <path d="M 320.3762 135.530072 
L 320.3762 38.465373 
" clip-path="url(#pcae196d011)" style="fill: none; stroke: #dcdcdc; stroke-width: 1.5"/>
    <path d="M 325.117067 155.990154 
L 325.117067 62.406344 
" clip-path="url(#pcae196d011)" style="fill: none; stroke: #dcdcdc; stroke-width: 1.5"/>
   </g>
   <g id="LineCollection_7">
    <path d="M 329.857933 153.679781 
L 329.857933 42.110935 
" clip-path="url(#pcae196d011)" style="fill: none; stroke: #dcdcdc; stroke-width: 1.5"/>
    <path d="M 334.5988 138.953557 
L 334.5988 20.061853 
" clip-path="url(#pcae196d011)" style="fill: none; stroke: #dcdcdc; stroke-width: 1.5"/>
    <path d="M 339.339667 138.27448 
L 339.339667 19.8 
" clip-path="url(#pcae196d011)" style="fill: none; stroke: #dcdcdc; stroke-width: 1.5"/>
    <path d="M 344.080533 153.635776 
L 344.080533 48.558622 
" clip-path="url(#pcae196d011)" style="fill: none; stroke: #dcdcdc; stroke-width: 1.5"/>
    <path d="M 348.8214 153.773207 
L 348.8214 44.810185 
" clip-path="url(#pcae196d011)" style="fill: none; stroke: #dcdcdc; stroke-width: 1.5"/>
    <path d="M 353.562266 137.554638 
L 353.562266 24.073803 
" clip-path="url(#pcae196d011)" style="fill: none; stroke: #dcdcdc; stroke-width: 1.5"/>
    <path d="M 358.303133 154.16381 
L 358.303133 44.13272 
" clip-path="url(#pcae196d011)" style="fill: none; stroke: #dcdcdc; stroke-width: 1.5"/>
    <path d="M 363.044 136.958327 
L 363.044 22.609879 
" clip-path="url(#pcae196d011)" style="fill: none; stroke: #dcdcdc; stroke-width: 1.5"/>
    <path d="M 367.784866 135.458007 
L 367.784866 19.929626 
" clip-path="url(#pcae196d011)" style="fill: none; stroke: #dcdcdc; stroke-width: 1.5"/>
   </g>
   <g id="LineCollection_8">
    <path d="M 372.525733 174.055346 
L 372.525733 49.152487 
" clip-path="url(#pcae196d011)" style="fill: none; stroke: #dcdcdc; stroke-width: 1.5"/>
    <path d="M 377.266599 176.830972 
L 377.266599 53.67165 
" clip-path="url(#pcae196d011)" style="fill: none; stroke: #dcdcdc; stroke-width: 1.5"/>
    <path d="M 382.007466 174.090401 
L 382.007466 47.664037 
" clip-path="url(#pcae196d011)" style="fill: none; stroke: #dcdcdc; stroke-width: 1.5"/>
    <path d="M 386.748333 173.478931 
L 386.748333 53.413699 
" clip-path="url(#pcae196d011)" style="fill: none; stroke: #dcdcdc; stroke-width: 1.5"/>
    <path d="M 391.489199 174.067119 
L 391.489199 55.170449 
" clip-path="url(#pcae196d011)" style="fill: none; stroke: #dcdcdc; stroke-width: 1.5"/>
    <path d="M 396.230066 175.855094 
L 396.230066 48.546007 
" clip-path="url(#pcae196d011)" style="fill: none; stroke: #dcdcdc; stroke-width: 1.5"/>
    <path d="M 400.970932 173.430934 
L 400.970932 57.775357 
" clip-path="url(#pcae196d011)" style="fill: none; stroke: #dcdcdc; stroke-width: 1.5"/>
    <path d="M 405.711799 172.815063 
L 405.711799 44.358266 
" clip-path="url(#pcae196d011)" style="fill: none; stroke: #dcdcdc; stroke-width: 1.5"/>
    <path d="M 410.452666 173.050966 
L 410.452666 52.621923 
" clip-path="url(#pcae196d011)" style="fill: none; stroke: #dcdcdc; stroke-width: 1.5"/>
   </g>
   <g id="LineCollection_9">
    <path d="M 415.193532 203.605796 
L 415.193532 65.148666 
" clip-path="url(#pcae196d011)" style="fill: none; stroke: #dcdcdc; stroke-width: 1.5"/>
    <path d="M 419.934399 204.373054 
L 419.934399 66.250096 
" clip-path="url(#pcae196d011)" style="fill: none; stroke: #dcdcdc; stroke-width: 1.5"/>
    <path d="M 424.675266 204.042324 
L 424.675266 70.245987 
" clip-path="url(#pcae196d011)" style="fill: none; stroke: #dcdcdc; stroke-width: 1.5"/>
    <path d="M 429.416132 217.375706 
L 429.416132 107.228842 
" clip-path="url(#pcae196d011)" style="fill: none; stroke: #dcdcdc; stroke-width: 1.5"/>
    <path d="M 434.156999 218.787611 
L 434.156999 105.082046 
" clip-path="url(#pcae196d011)" style="fill: none; stroke: #dcdcdc; stroke-width: 1.5"/>
    <path d="M 438.897865 203.397141 
L 438.897865 70.86338 
" clip-path="url(#pcae196d011)" style="fill: none; stroke: #dcdcdc; stroke-width: 1.5"/>
    <path d="M 443.638732 219.069028 
L 443.638732 108.461199 
" clip-path="url(#pcae196d011)" style="fill: none; stroke: #dcdcdc; stroke-width: 1.5"/>
    <path d="M 448.379599 219.289121 
L 448.379599 111.511955 
" clip-path="url(#pcae196d011)" style="fill: none; stroke: #dcdcdc; stroke-width: 1.5"/>
    <path d="M 453.120465 218.999166 
L 453.120465 110.541247 
" clip-path="url(#pcae196d011)" style="fill: none; stroke: #dcdcdc; stroke-width: 1.5"/>
   </g>
   <g id="LineCollection_10">
    <path d="M 457.861332 243.435135 
L 457.861332 152.767591 
" clip-path="url(#pcae196d011)" style="fill: none; stroke: #dcdcdc; stroke-width: 1.5"/>
    <path d="M 462.602198 244.230705 
L 462.602198 152.472008 
" clip-path="url(#pcae196d011)" style="fill: none; stroke: #dcdcdc; stroke-width: 1.5"/>
    <path d="M 467.343065 226.27706 
L 467.343065 89.277086 
" clip-path="url(#pcae196d011)" style="fill: none; stroke: #dcdcdc; stroke-width: 1.5"/>
    <path d="M 472.083932 227.833484 
L 472.083932 99.529247 
" clip-path="url(#pcae196d011)" style="fill: none; stroke: #dcdcdc; stroke-width: 1.5"/>
    <path d="M 476.824798 243.399893 
L 476.824798 153.578723 
" clip-path="url(#pcae196d011)" style="fill: none; stroke: #dcdcdc; stroke-width: 1.5"/>
    <path d="M 481.565665 244.430258 
L 481.565665 157.454356 
" clip-path="url(#pcae196d011)" style="fill: none; stroke: #dcdcdc; stroke-width: 1.5"/>
    <path d="M 486.306531 244.372115 
L 486.306531 154.576248 
" clip-path="url(#pcae196d011)" style="fill: none; stroke: #dcdcdc; stroke-width: 1.5"/>
    <path d="M 491.047398 227.981131 
L 491.047398 94.919088 
" clip-path="url(#pcae196d011)" style="fill: none; stroke: #dcdcdc; stroke-width: 1.5"/>
    <path d="M 495.788265 228.470233 
L 495.788265 90.386713 
" clip-path="url(#pcae196d011)" style="fill: none; stroke: #dcdcdc; stroke-width: 1.5"/>
   </g>
   <g id="LineCollection_11">
    <path d="M 500.529131 243.922998 
L 500.529131 128.387152 
" clip-path="url(#pcae196d011)" style="fill: none; stroke: #dcdcdc; stroke-width: 1.5"/>
    <path d="M 505.269998 262.178165 
L 505.269998 195.293247 
" clip-path="url(#pcae196d011)" style="fill: none; stroke: #dcdcdc; stroke-width: 1.5"/>
    <path d="M 510.010864 245.52018 
L 510.010864 123.895926 
" clip-path="url(#pcae196d011)" style="fill: none; stroke: #dcdcdc; stroke-width: 1.5"/>
    <path d="M 514.751731 246.42106 
L 514.751731 119.506511 
" clip-path="url(#pcae196d011)" style="fill: none; stroke: #dcdcdc; stroke-width: 1.5"/>
    <path d="M 519.492598 261.673016 
L 519.492598 196.567964 
" clip-path="url(#pcae196d011)" style="fill: none; stroke: #dcdcdc; stroke-width: 1.5"/>
    <path d="M 524.233464 245.635869 
L 524.233464 124.196385 
" clip-path="url(#pcae196d011)" style="fill: none; stroke: #dcdcdc; stroke-width: 1.5"/>
    <path d="M 528.974331 261.734544 
L 528.974331 198.387772 
" clip-path="url(#pcae196d011)" style="fill: none; stroke: #dcdcdc; stroke-width: 1.5"/>
    <path d="M 533.715198 261.945639 
L 533.715198 196.046107 
" clip-path="url(#pcae196d011)" style="fill: none; stroke: #dcdcdc; stroke-width: 1.5"/>
    <path d="M 538.456064 261.577104 
L 538.456064 196.188192 
" clip-path="url(#pcae196d011)" style="fill: none; stroke: #dcdcdc; stroke-width: 1.5"/>
   </g>
   <g id="LineCollection_12">
    <path d="M 543.196931 256.923696 
L 543.196931 138.092595 
" clip-path="url(#pcae196d011)" style="fill: none; stroke: #dcdcdc; stroke-width: 1.5"/>
    <path d="M 547.937797 256.586836 
L 547.937797 138.610599 
" clip-path="url(#pcae196d011)" style="fill: none; stroke: #dcdcdc; stroke-width: 1.5"/>
    <path d="M 552.678664 256.65934 
L 552.678664 132.366559 
" clip-path="url(#pcae196d011)" style="fill: none; stroke: #dcdcdc; stroke-width: 1.5"/>
    <path d="M 557.419531 269.880407 
L 557.419531 212.326472 
" clip-path="url(#pcae196d011)" style="fill: none; stroke: #dcdcdc; stroke-width: 1.5"/>
    <path d="M 562.160397 257.558249 
L 562.160397 132.433323 
" clip-path="url(#pcae196d011)" style="fill: none; stroke: #dcdcdc; stroke-width: 1.5"/>
    <path d="M 566.901264 270.140985 
L 566.901264 212.769617 
" clip-path="url(#pcae196d011)" style="fill: none; stroke: #dcdcdc; stroke-width: 1.5"/>
    <path d="M 571.64213 269.818491 
L 571.64213 216.034441 
" clip-path="url(#pcae196d011)" style="fill: none; stroke: #dcdcdc; stroke-width: 1.5"/>
    <path d="M 576.382997 270.101926 
L 576.382997 213.406072 
" clip-path="url(#pcae196d011)" style="fill: none; stroke: #dcdcdc; stroke-width: 1.5"/>
    <path d="M 581.123864 269.936206 
L 581.123864 214.020804 
" clip-path="url(#pcae196d011)" style="fill: none; stroke: #dcdcdc; stroke-width: 1.5"/>
   </g>
   <g id="PathCollection_1">
    <defs>
     <path id="m44a77a1dcc" d="M 0 3 
C 0.795609 3 1.55874 2.683901 2.12132 2.12132 
C 2.683901 1.55874 3 0.795609 3 0 
C 3 -0.795609 2.683901 -1.55874 2.12132 -2.12132 
C 1.55874 -2.683901 0.795609 -3 0 -3 
C -0.795609 -3 -1.55874 -2.683901 -2.12132 -2.12132 
C -2.683901 -1.55874 -3 -0.795609 -3 0 
C -3 0.795609 -2.683901 1.55874 -2.12132 2.12132 
C -1.55874 2.683901 -0.795609 3 0 3 
z
" style="stroke: #66c2a5"/>
    </defs>
    <g clip-path="url(#pcae196d011)">
     <use xlink:href="#m44a77a1dcc" x="73.851136" y="266.027819" style="fill: #66c2a5; stroke: #66c2a5"/>
     <use xlink:href="#m44a77a1dcc" x="97.555469" y="264.441946" style="fill: #66c2a5; stroke: #66c2a5"/>
     <use xlink:href="#m44a77a1dcc" x="107.037203" y="268.343501" style="fill: #66c2a5; stroke: #66c2a5"/>
     <use xlink:href="#m44a77a1dcc" x="83.33287" y="267.249479" style="fill: #66c2a5; stroke: #66c2a5"/>
     <use xlink:href="#m44a77a1dcc" x="111.778069" y="251.707772" style="fill: #66c2a5; stroke: #66c2a5"/>
     <use xlink:href="#m44a77a1dcc" x="78.592003" y="265.204815" style="fill: #66c2a5; stroke: #66c2a5"/>
     <use xlink:href="#m44a77a1dcc" x="88.073736" y="268.168942" style="fill: #66c2a5; stroke: #66c2a5"/>
     <use xlink:href="#m44a77a1dcc" x="92.814603" y="267.13413" style="fill: #66c2a5; stroke: #66c2a5"/>
     <use xlink:href="#m44a77a1dcc" x="102.296336" y="262.874141" style="fill: #66c2a5; stroke: #66c2a5"/>
    </g>
   </g>
   <g id="PathCollection_2">
    <defs>
     <path id="mbaba8e2ad9" d="M 0 3 
C 0.795609 3 1.55874 2.683901 2.12132 2.12132 
C 2.683901 1.55874 3 0.795609 3 0 
C 3 -0.795609 2.683901 -1.55874 2.12132 -2.12132 
C 1.55874 -2.683901 0.795609 -3 0 -3 
C -0.795609 -3 -1.55874 -2.683901 -2.12132 -2.12132 
C -2.683901 -1.55874 -3 -0.795609 -3 0 
C -3 0.795609 -2.683901 1.55874 -2.12132 2.12132 
C -1.55874 2.683901 -0.795609 3 0 3 
z
" style="stroke: #fc8d62"/>
    </defs>
    <g clip-path="url(#pcae196d011)">
     <use xlink:href="#mbaba8e2ad9" x="121.259802" y="253.100389" style="fill: #fc8d62; stroke: #fc8d62"/>
     <use xlink:href="#mbaba8e2ad9" x="130.741536" y="255.775226" style="fill: #fc8d62; stroke: #fc8d62"/>
     <use xlink:href="#mbaba8e2ad9" x="149.705002" y="253.337867" style="fill: #fc8d62; stroke: #fc8d62"/>
     <use xlink:href="#mbaba8e2ad9" x="135.482402" y="259.750108" style="fill: #fc8d62; stroke: #fc8d62"/>
     <use xlink:href="#mbaba8e2ad9" x="154.445869" y="229.954159" style="fill: #fc8d62; stroke: #fc8d62"/>
     <use xlink:href="#mbaba8e2ad9" x="126.000669" y="256.741874" style="fill: #fc8d62; stroke: #fc8d62"/>
     <use xlink:href="#mbaba8e2ad9" x="140.223269" y="257.308839" style="fill: #fc8d62; stroke: #fc8d62"/>
     <use xlink:href="#mbaba8e2ad9" x="144.964136" y="259.332416" style="fill: #fc8d62; stroke: #fc8d62"/>
     <use xlink:href="#mbaba8e2ad9" x="116.518936" y="248.792799" style="fill: #fc8d62; stroke: #fc8d62"/>
    </g>
   </g>
   <g id="PathCollection_3">
    <defs>
     <path id="m571136678e" d="M 0 3 
C 0.795609 3 1.55874 2.683901 2.12132 2.12132 
C 2.683901 1.55874 3 0.795609 3 0 
C 3 -0.795609 2.683901 -1.55874 2.12132 -2.12132 
C 1.55874 -2.683901 0.795609 -3 0 -3 
C -0.795609 -3 -1.55874 -2.683901 -2.12132 -2.12132 
C -2.683901 -1.55874 -3 -0.795609 -3 0 
C -3 0.795609 -2.683901 1.55874 -2.12132 2.12132 
C -1.55874 2.683901 -0.795609 3 0 3 
z
" style="stroke: #8da0cb"/>
    </defs>
    <g clip-path="url(#pcae196d011)">
     <use xlink:href="#m571136678e" x="173.409335" y="227.569378" style="fill: #8da0cb; stroke: #8da0cb"/>
     <use xlink:href="#m571136678e" x="197.113668" y="231.799949" style="fill: #8da0cb; stroke: #8da0cb"/>
     <use xlink:href="#m571136678e" x="182.891068" y="227.086891" style="fill: #8da0cb; stroke: #8da0cb"/>
     <use xlink:href="#m571136678e" x="168.668469" y="225.534782" style="fill: #8da0cb; stroke: #8da0cb"/>
     <use xlink:href="#m571136678e" x="159.186735" y="195.635315" style="fill: #8da0cb; stroke: #8da0cb"/>
     <use xlink:href="#m571136678e" x="163.927602" y="231.990978" style="fill: #8da0cb; stroke: #8da0cb"/>
     <use xlink:href="#m571136678e" x="178.150202" y="238.543881" style="fill: #8da0cb; stroke: #8da0cb"/>
     <use xlink:href="#m571136678e" x="192.372802" y="242.012473" style="fill: #8da0cb; stroke: #8da0cb"/>
     <use xlink:href="#m571136678e" x="187.631935" y="220.194954" style="fill: #8da0cb; stroke: #8da0cb"/>
    </g>
   </g>
   <g id="PathCollection_4">
    <defs>
     <path id="md29ce8b1db" d="M 0 3 
C 0.795609 3 1.55874 2.683901 2.12132 2.12132 
C 2.683901 1.55874 3 0.795609 3 0 
C 3 -0.795609 2.683901 -1.55874 2.12132 -2.12132 
C 1.55874 -2.683901 0.795609 -3 0 -3 
C -0.795609 -3 -1.55874 -2.683901 -2.12132 -2.12132 
C -2.683901 -1.55874 -3 -0.795609 -3 0 
C -3 0.795609 -2.683901 1.55874 -2.12132 2.12132 
C -1.55874 2.683901 -0.795609 3 0 3 
z
" style="stroke: #e78ac3"/>
    </defs>
    <g clip-path="url(#pcae196d011)">
     <use xlink:href="#md29ce8b1db" x="220.818001" y="196.513663" style="fill: #e78ac3; stroke: #e78ac3"/>
     <use xlink:href="#md29ce8b1db" x="235.040601" y="192.109229" style="fill: #e78ac3; stroke: #e78ac3"/>
     <use xlink:href="#md29ce8b1db" x="201.854535" y="180.211619" style="fill: #e78ac3; stroke: #e78ac3"/>
     <use xlink:href="#md29ce8b1db" x="239.781468" y="194.504435" style="fill: #e78ac3; stroke: #e78ac3"/>
     <use xlink:href="#md29ce8b1db" x="225.558868" y="143.379524" style="fill: #e78ac3; stroke: #e78ac3"/>
     <use xlink:href="#md29ce8b1db" x="230.299734" y="196.02766" style="fill: #e78ac3; stroke: #e78ac3"/>
     <use xlink:href="#md29ce8b1db" x="211.336268" y="200.861086" style="fill: #e78ac3; stroke: #e78ac3"/>
     <use xlink:href="#md29ce8b1db" x="216.077135" y="200.593921" style="fill: #e78ac3; stroke: #e78ac3"/>
     <use xlink:href="#md29ce8b1db" x="206.595401" y="168.638702" style="fill: #e78ac3; stroke: #e78ac3"/>
    </g>
   </g>
   <g id="PathCollection_5">
    <defs>
     <path id="md9c5c2c183" d="M 0 3 
C 0.795609 3 1.55874 2.683901 2.12132 2.12132 
C 2.683901 1.55874 3 0.795609 3 0 
C 3 -0.795609 2.683901 -1.55874 2.12132 -2.12132 
C 1.55874 -2.683901 0.795609 -3 0 -3 
C -0.795609 -3 -1.55874 -2.683901 -2.12132 -2.12132 
C -2.683901 -1.55874 -3 -0.795609 -3 0 
C -3 0.795609 -2.683901 1.55874 -2.12132 2.12132 
C -1.55874 2.683901 -0.795609 3 0 3 
z
" style="stroke: #a6d854"/>
    </defs>
    <g clip-path="url(#pcae196d011)">
     <use xlink:href="#md9c5c2c183" x="277.708401" y="133.439622" style="fill: #a6d854; stroke: #a6d854"/>
     <use xlink:href="#md9c5c2c183" x="282.449267" y="146.79693" style="fill: #a6d854; stroke: #a6d854"/>
     <use xlink:href="#md9c5c2c183" x="263.485801" y="118.487344" style="fill: #a6d854; stroke: #a6d854"/>
     <use xlink:href="#md9c5c2c183" x="258.744934" y="145.798702" style="fill: #a6d854; stroke: #a6d854"/>
     <use xlink:href="#md9c5c2c183" x="254.004068" y="87.348056" style="fill: #a6d854; stroke: #a6d854"/>
     <use xlink:href="#md9c5c2c183" x="272.967534" y="147.899891" style="fill: #a6d854; stroke: #a6d854"/>
     <use xlink:href="#md9c5c2c183" x="268.226667" y="152.069197" style="fill: #a6d854; stroke: #a6d854"/>
     <use xlink:href="#md9c5c2c183" x="244.522334" y="158.151614" style="fill: #a6d854; stroke: #a6d854"/>
     <use xlink:href="#md9c5c2c183" x="249.263201" y="123.221392" style="fill: #a6d854; stroke: #a6d854"/>
    </g>
   </g>
   <g id="PathCollection_6">
    <defs>
     <path id="mf7dffa7d75" d="M 0 3 
C 0.795609 3 1.55874 2.683901 2.12132 2.12132 
C 2.683901 1.55874 3 0.795609 3 0 
C 3 -0.795609 2.683901 -1.55874 2.12132 -2.12132 
C 1.55874 -2.683901 0.795609 -3 0 -3 
C -0.795609 -3 -1.55874 -2.683901 -2.12132 -2.12132 
C -2.683901 -1.55874 -3 -0.795609 -3 0 
C -3 0.795609 -2.683901 1.55874 -2.12132 2.12132 
C -1.55874 2.683901 -0.795609 3 0 3 
z
" style="stroke: #ffd92f"/>
    </defs>
    <g clip-path="url(#pcae196d011)">
     <use xlink:href="#mf7dffa7d75" x="320.3762" y="96.776218" style="fill: #ffd92f; stroke: #ffd92f"/>
     <use xlink:href="#mf7dffa7d75" x="310.894467" y="131.094827" style="fill: #ffd92f; stroke: #ffd92f"/>
     <use xlink:href="#mf7dffa7d75" x="315.635333" y="83.232106" style="fill: #ffd92f; stroke: #ffd92f"/>
     <use xlink:href="#mf7dffa7d75" x="325.117067" y="97.171834" style="fill: #ffd92f; stroke: #ffd92f"/>
     <use xlink:href="#mf7dffa7d75" x="306.1536" y="68.572842" style="fill: #ffd92f; stroke: #ffd92f"/>
     <use xlink:href="#mf7dffa7d75" x="296.671867" y="86.414395" style="fill: #ffd92f; stroke: #ffd92f"/>
     <use xlink:href="#mf7dffa7d75" x="301.412734" y="127.489891" style="fill: #ffd92f; stroke: #ffd92f"/>
     <use xlink:href="#mf7dffa7d75" x="291.931" y="136.714658" style="fill: #ffd92f; stroke: #ffd92f"/>
     <use xlink:href="#mf7dffa7d75" x="287.190134" y="74.915709" style="fill: #ffd92f; stroke: #ffd92f"/>
    </g>
   </g>
   <g id="PathCollection_7">
    <defs>
     <path id="mc1d44d33f3" d="M 0 3 
C 0.795609 3 1.55874 2.683901 2.12132 2.12132 
C 2.683901 1.55874 3 0.795609 3 0 
C 3 -0.795609 2.683901 -1.55874 2.12132 -2.12132 
C 1.55874 -2.683901 0.795609 -3 0 -3 
C -0.795609 -3 -1.55874 -2.683901 -2.12132 -2.12132 
C -2.683901 -1.55874 -3 -0.795609 -3 0 
C -3 0.795609 -2.683901 1.55874 -2.12132 2.12132 
C -1.55874 2.683901 -0.795609 3 0 3 
z
" style="stroke: #e5c494"/>
    </defs>
    <g clip-path="url(#pcae196d011)">
     <use xlink:href="#mc1d44d33f3" x="363.044" y="87.642723" style="fill: #e5c494; stroke: #e5c494"/>
     <use xlink:href="#mc1d44d33f3" x="334.5988" y="127.63084" style="fill: #e5c494; stroke: #e5c494"/>
     <use xlink:href="#mc1d44d33f3" x="339.339667" y="60.51101" style="fill: #e5c494; stroke: #e5c494"/>
     <use xlink:href="#mc1d44d33f3" x="358.303133" y="84.92834" style="fill: #e5c494; stroke: #e5c494"/>
     <use xlink:href="#mc1d44d33f3" x="367.784866" y="68.612571" style="fill: #e5c494; stroke: #e5c494"/>
     <use xlink:href="#mc1d44d33f3" x="348.8214" y="78.184814" style="fill: #e5c494; stroke: #e5c494"/>
     <use xlink:href="#mc1d44d33f3" x="329.857933" y="121.538441" style="fill: #e5c494; stroke: #e5c494"/>
     <use xlink:href="#mc1d44d33f3" x="344.080533" y="134.61605" style="fill: #e5c494; stroke: #e5c494"/>
     <use xlink:href="#mc1d44d33f3" x="353.562266" y="73.005933" style="fill: #e5c494; stroke: #e5c494"/>
    </g>
   </g>
   <g id="PathCollection_8">
    <defs>
     <path id="mcb4ee36ead" d="M 0 3 
C 0.795609 3 1.55874 2.683901 2.12132 2.12132 
C 2.683901 1.55874 3 0.795609 3 0 
C 3 -0.795609 2.683901 -1.55874 2.12132 -2.12132 
C 1.55874 -2.683901 0.795609 -3 0 -3 
C -0.795609 -3 -1.55874 -2.683901 -2.12132 -2.12132 
C -2.683901 -1.55874 -3 -0.795609 -3 0 
C -3 0.795609 -2.683901 1.55874 -2.12132 2.12132 
C -1.55874 2.683901 -0.795609 3 0 3 
z
" style="stroke: #b3b3b3"/>
    </defs>
    <g clip-path="url(#pcae196d011)">
     <use xlink:href="#mcb4ee36ead" x="396.230066" y="133.709029" style="fill: #b3b3b3; stroke: #b3b3b3"/>
     <use xlink:href="#mcb4ee36ead" x="377.266599" y="146.437185" style="fill: #b3b3b3; stroke: #b3b3b3"/>
     <use xlink:href="#mcb4ee36ead" x="391.489199" y="87.369498" style="fill: #b3b3b3; stroke: #b3b3b3"/>
     <use xlink:href="#mcb4ee36ead" x="386.748333" y="84.015081" style="fill: #b3b3b3; stroke: #b3b3b3"/>
     <use xlink:href="#mcb4ee36ead" x="400.970932" y="143.888353" style="fill: #b3b3b3; stroke: #b3b3b3"/>
     <use xlink:href="#mcb4ee36ead" x="410.452666" y="74.902538" style="fill: #b3b3b3; stroke: #b3b3b3"/>
     <use xlink:href="#mcb4ee36ead" x="382.007466" y="145.601881" style="fill: #b3b3b3; stroke: #b3b3b3"/>
     <use xlink:href="#mcb4ee36ead" x="405.711799" y="162.702454" style="fill: #b3b3b3; stroke: #b3b3b3"/>
     <use xlink:href="#mcb4ee36ead" x="372.525733" y="95.702453" style="fill: #b3b3b3; stroke: #b3b3b3"/>
    </g>
   </g>
   <g id="PathCollection_9">
    <g clip-path="url(#pcae196d011)">
     <use xlink:href="#m44a77a1dcc" x="443.638732" y="201.927804" style="fill: #66c2a5; stroke: #66c2a5"/>
     <use xlink:href="#m44a77a1dcc" x="434.156999" y="173.904287" style="fill: #66c2a5; stroke: #66c2a5"/>
     <use xlink:href="#m44a77a1dcc" x="453.120465" y="135.805739" style="fill: #66c2a5; stroke: #66c2a5"/>
     <use xlink:href="#m44a77a1dcc" x="424.675266" y="105.828909" style="fill: #66c2a5; stroke: #66c2a5"/>
     <use xlink:href="#m44a77a1dcc" x="448.379599" y="205.284042" style="fill: #66c2a5; stroke: #66c2a5"/>
     <use xlink:href="#m44a77a1dcc" x="415.193532" y="103.288203" style="fill: #66c2a5; stroke: #66c2a5"/>
     <use xlink:href="#m44a77a1dcc" x="438.897865" y="158.300067" style="fill: #66c2a5; stroke: #66c2a5"/>
     <use xlink:href="#m44a77a1dcc" x="419.934399" y="204.414502" style="fill: #66c2a5; stroke: #66c2a5"/>
     <use xlink:href="#m44a77a1dcc" x="429.416132" y="151.458105" style="fill: #66c2a5; stroke: #66c2a5"/>
    </g>
   </g>
   <g id="PathCollection_10">
    <g clip-path="url(#pcae196d011)">
     <use xlink:href="#mbaba8e2ad9" x="462.602198" y="223.268622" style="fill: #fc8d62; stroke: #fc8d62"/>
     <use xlink:href="#mbaba8e2ad9" x="476.824798" y="201.24205" style="fill: #fc8d62; stroke: #fc8d62"/>
     <use xlink:href="#mbaba8e2ad9" x="481.565665" y="181.793822" style="fill: #fc8d62; stroke: #fc8d62"/>
     <use xlink:href="#mbaba8e2ad9" x="491.047398" y="151.468365" style="fill: #fc8d62; stroke: #fc8d62"/>
     <use xlink:href="#mbaba8e2ad9" x="457.861332" y="238.263669" style="fill: #fc8d62; stroke: #fc8d62"/>
     <use xlink:href="#mbaba8e2ad9" x="467.343065" y="131.044305" style="fill: #fc8d62; stroke: #fc8d62"/>
     <use xlink:href="#mbaba8e2ad9" x="495.788265" y="177.075577" style="fill: #fc8d62; stroke: #fc8d62"/>
     <use xlink:href="#mbaba8e2ad9" x="472.083932" y="230.987684" style="fill: #fc8d62; stroke: #fc8d62"/>
     <use xlink:href="#mbaba8e2ad9" x="486.306531" y="189.687658" style="fill: #fc8d62; stroke: #fc8d62"/>
    </g>
   </g>
   <g id="PathCollection_11">
    <g clip-path="url(#pcae196d011)">
     <use xlink:href="#m571136678e" x="505.269998" y="240.597285" style="fill: #8da0cb; stroke: #8da0cb"/>
     <use xlink:href="#m571136678e" x="519.492598" y="230.439701" style="fill: #8da0cb; stroke: #8da0cb"/>
     <use xlink:href="#m571136678e" x="528.974331" y="238.897077" style="fill: #8da0cb; stroke: #8da0cb"/>
     <use xlink:href="#m571136678e" x="510.010864" y="185.454398" style="fill: #8da0cb; stroke: #8da0cb"/>
     <use xlink:href="#m571136678e" x="533.715198" y="261.051659" style="fill: #8da0cb; stroke: #8da0cb"/>
     <use xlink:href="#m571136678e" x="524.233464" y="161.973626" style="fill: #8da0cb; stroke: #8da0cb"/>
     <use xlink:href="#m571136678e" x="514.751731" y="190.112705" style="fill: #8da0cb; stroke: #8da0cb"/>
     <use xlink:href="#m571136678e" x="500.529131" y="251.391354" style="fill: #8da0cb; stroke: #8da0cb"/>
     <use xlink:href="#m571136678e" x="538.456064" y="226.78794" style="fill: #8da0cb; stroke: #8da0cb"/>
    </g>
   </g>
   <g id="PathCollection_12">
    <g clip-path="url(#pcae196d011)">
     <use xlink:href="#md29ce8b1db" x="576.382997" y="253.942042" style="fill: #e78ac3; stroke: #e78ac3"/>
     <use xlink:href="#md29ce8b1db" x="557.419531" y="247.911707" style="fill: #e78ac3; stroke: #e78ac3"/>
     <use xlink:href="#md29ce8b1db" x="566.901264" y="256.993197" style="fill: #e78ac3; stroke: #e78ac3"/>
     <use xlink:href="#md29ce8b1db" x="552.678664" y="215.968158" style="fill: #e78ac3; stroke: #e78ac3"/>
     <use xlink:href="#md29ce8b1db" x="571.64213" y="270.623718" style="fill: #e78ac3; stroke: #e78ac3"/>
     <use xlink:href="#md29ce8b1db" x="562.160397" y="189.353813" style="fill: #e78ac3; stroke: #e78ac3"/>
     <use xlink:href="#md29ce8b1db" x="543.196931" y="214.892785" style="fill: #e78ac3; stroke: #e78ac3"/>
     <use xlink:href="#md29ce8b1db" x="547.937797" y="263.733384" style="fill: #e78ac3; stroke: #e78ac3"/>
     <use xlink:href="#md29ce8b1db" x="581.123864" y="247.439744" style="fill: #e78ac3; stroke: #e78ac3"/>
    </g>
   </g>
   <g id="matplotlib.axis_1"/>
   <g id="matplotlib.axis_2">
    <g id="ytick_1">
     <g id="line2d_1">
      <defs>
       <path id="m36afed56e8" d="M 0 0 
L -3.5 0 
" style="stroke: #000000; stroke-width: 0.8"/>
      </defs>
      <g>
       <use xlink:href="#m36afed56e8" x="48.4875" y="283.128679" style="stroke: #000000; stroke-width: 0.8"/>
      </g>
     </g>
     <g id="text_1">
      <!-- 0 -->
      <g transform="translate(35.125 286.927897) scale(0.1 -0.1)">
       <defs>
        <path id="DejaVuSans-30" d="M 2034 4250 
Q 1547 4250 1301 3770 
Q 1056 3291 1056 2328 
Q 1056 1369 1301 889 
Q 1547 409 2034 409 
Q 2525 409 2770 889 
Q 3016 1369 3016 2328 
Q 3016 3291 2770 3770 
Q 2525 4250 2034 4250 
z
M 2034 4750 
Q 2819 4750 3233 4129 
Q 3647 3509 3647 2328 
Q 3647 1150 3233 529 
Q 2819 -91 2034 -91 
Q 1250 -91 836 529 
Q 422 1150 422 2328 
Q 422 3509 836 4129 
Q 1250 4750 2034 4750 
z
" transform="scale(0.015625)"/>
       </defs>
       <use xlink:href="#DejaVuSans-30"/>
      </g>
     </g>
    </g>
    <g id="ytick_2">
     <g id="line2d_2">
      <g>
       <use xlink:href="#m36afed56e8" x="48.4875" y="242.224386" style="stroke: #000000; stroke-width: 0.8"/>
      </g>
     </g>
     <g id="text_2">
      <!-- 50 -->
      <g transform="translate(28.7625 246.023605) scale(0.1 -0.1)">
       <defs>
        <path id="DejaVuSans-35" d="M 691 4666 
L 3169 4666 
L 3169 4134 
L 1269 4134 
L 1269 2991 
Q 1406 3038 1543 3061 
Q 1681 3084 1819 3084 
Q 2600 3084 3056 2656 
Q 3513 2228 3513 1497 
Q 3513 744 3044 326 
Q 2575 -91 1722 -91 
Q 1428 -91 1123 -41 
Q 819 9 494 109 
L 494 744 
Q 775 591 1075 516 
Q 1375 441 1709 441 
Q 2250 441 2565 725 
Q 2881 1009 2881 1497 
Q 2881 1984 2565 2268 
Q 2250 2553 1709 2553 
Q 1456 2553 1204 2497 
Q 953 2441 691 2322 
L 691 4666 
z
" transform="scale(0.015625)"/>
       </defs>
       <use xlink:href="#DejaVuSans-35"/>
       <use xlink:href="#DejaVuSans-30" x="63.623047"/>
      </g>
     </g>
    </g>
    <g id="ytick_3">
     <g id="line2d_3">
      <g>
       <use xlink:href="#m36afed56e8" x="48.4875" y="201.320094" style="stroke: #000000; stroke-width: 0.8"/>
      </g>
     </g>
     <g id="text_3">
      <!-- 100 -->
      <g transform="translate(22.4 205.119313) scale(0.1 -0.1)">
       <defs>
        <path id="DejaVuSans-31" d="M 794 531 
L 1825 531 
L 1825 4091 
L 703 3866 
L 703 4441 
L 1819 4666 
L 2450 4666 
L 2450 531 
L 3481 531 
L 3481 0 
L 794 0 
L 794 531 
z
" transform="scale(0.015625)"/>
       </defs>
       <use xlink:href="#DejaVuSans-31"/>
       <use xlink:href="#DejaVuSans-30" x="63.623047"/>
       <use xlink:href="#DejaVuSans-30" x="127.246094"/>
      </g>
     </g>
    </g>
    <g id="ytick_4">
     <g id="line2d_4">
      <g>
       <use xlink:href="#m36afed56e8" x="48.4875" y="160.415802" style="stroke: #000000; stroke-width: 0.8"/>
      </g>
     </g>
     <g id="text_4">
      <!-- 150 -->
      <g transform="translate(22.4 164.215021) scale(0.1 -0.1)">
       <use xlink:href="#DejaVuSans-31"/>
       <use xlink:href="#DejaVuSans-35" x="63.623047"/>
       <use xlink:href="#DejaVuSans-30" x="127.246094"/>
      </g>
     </g>
    </g>
    <g id="ytick_5">
     <g id="line2d_5">
      <g>
       <use xlink:href="#m36afed56e8" x="48.4875" y="119.51151" style="stroke: #000000; stroke-width: 0.8"/>
      </g>
     </g>
     <g id="text_5">
      <!-- 200 -->
      <g transform="translate(22.4 123.310728) scale(0.1 -0.1)">
       <defs>
        <path id="DejaVuSans-32" d="M 1228 531 
L 3431 531 
L 3431 0 
L 469 0 
L 469 531 
Q 828 903 1448 1529 
Q 2069 2156 2228 2338 
Q 2531 2678 2651 2914 
Q 2772 3150 2772 3378 
Q 2772 3750 2511 3984 
Q 2250 4219 1831 4219 
Q 1534 4219 1204 4116 
Q 875 4013 500 3803 
L 500 4441 
Q 881 4594 1212 4672 
Q 1544 4750 1819 4750 
Q 2544 4750 2975 4387 
Q 3406 4025 3406 3419 
Q 3406 3131 3298 2873 
Q 3191 2616 2906 2266 
Q 2828 2175 2409 1742 
Q 1991 1309 1228 531 
z
" transform="scale(0.015625)"/>
       </defs>
       <use xlink:href="#DejaVuSans-32"/>
       <use xlink:href="#DejaVuSans-30" x="63.623047"/>
       <use xlink:href="#DejaVuSans-30" x="127.246094"/>
      </g>
     </g>
    </g>
    <g id="ytick_6">
     <g id="line2d_6">
      <g>
       <use xlink:href="#m36afed56e8" x="48.4875" y="78.607217" style="stroke: #000000; stroke-width: 0.8"/>
      </g>
     </g>
     <g id="text_6">
      <!-- 250 -->
      <g transform="translate(22.4 82.406436) scale(0.1 -0.1)">
       <use xlink:href="#DejaVuSans-32"/>
       <use xlink:href="#DejaVuSans-35" x="63.623047"/>
       <use xlink:href="#DejaVuSans-30" x="127.246094"/>
      </g>
     </g>
    </g>
    <g id="ytick_7">
     <g id="line2d_7">
      <g>
       <use xlink:href="#m36afed56e8" x="48.4875" y="37.702925" style="stroke: #000000; stroke-width: 0.8"/>
      </g>
     </g>
     <g id="text_7">
      <!-- 300 -->
      <g transform="translate(22.4 41.502144) scale(0.1 -0.1)">
       <defs>
        <path id="DejaVuSans-33" d="M 2597 2516 
Q 3050 2419 3304 2112 
Q 3559 1806 3559 1356 
Q 3559 666 3084 287 
Q 2609 -91 1734 -91 
Q 1441 -91 1130 -33 
Q 819 25 488 141 
L 488 750 
Q 750 597 1062 519 
Q 1375 441 1716 441 
Q 2309 441 2620 675 
Q 2931 909 2931 1356 
Q 2931 1769 2642 2001 
Q 2353 2234 1838 2234 
L 1294 2234 
L 1294 2753 
L 1863 2753 
Q 2328 2753 2575 2939 
Q 2822 3125 2822 3475 
Q 2822 3834 2567 4026 
Q 2313 4219 1838 4219 
Q 1578 4219 1281 4162 
Q 984 4106 628 3988 
L 628 4550 
Q 988 4650 1302 4700 
Q 1616 4750 1894 4750 
Q 2613 4750 3031 4423 
Q 3450 4097 3450 3541 
Q 3450 3153 3228 2886 
Q 3006 2619 2597 2516 
z
" transform="scale(0.015625)"/>
       </defs>
       <use xlink:href="#DejaVuSans-33"/>
       <use xlink:href="#DejaVuSans-30" x="63.623047"/>
       <use xlink:href="#DejaVuSans-30" x="127.246094"/>
      </g>
     </g>
    </g>
    <g id="text_8">
     <!-- Capillary density mm per $mm^3$ -->
     <g transform="translate(16.3 222.85) rotate(-90) scale(0.1 -0.1)">
      <defs>
       <path id="DejaVuSans-43" d="M 4122 4306 
L 4122 3641 
Q 3803 3938 3442 4084 
Q 3081 4231 2675 4231 
Q 1875 4231 1450 3742 
Q 1025 3253 1025 2328 
Q 1025 1406 1450 917 
Q 1875 428 2675 428 
Q 3081 428 3442 575 
Q 3803 722 4122 1019 
L 4122 359 
Q 3791 134 3420 21 
Q 3050 -91 2638 -91 
Q 1578 -91 968 557 
Q 359 1206 359 2328 
Q 359 3453 968 4101 
Q 1578 4750 2638 4750 
Q 3056 4750 3426 4639 
Q 3797 4528 4122 4306 
z
" transform="scale(0.015625)"/>
       <path id="DejaVuSans-61" d="M 2194 1759 
Q 1497 1759 1228 1600 
Q 959 1441 959 1056 
Q 959 750 1161 570 
Q 1363 391 1709 391 
Q 2188 391 2477 730 
Q 2766 1069 2766 1631 
L 2766 1759 
L 2194 1759 
z
M 3341 1997 
L 3341 0 
L 2766 0 
L 2766 531 
Q 2569 213 2275 61 
Q 1981 -91 1556 -91 
Q 1019 -91 701 211 
Q 384 513 384 1019 
Q 384 1609 779 1909 
Q 1175 2209 1959 2209 
L 2766 2209 
L 2766 2266 
Q 2766 2663 2505 2880 
Q 2244 3097 1772 3097 
Q 1472 3097 1187 3025 
Q 903 2953 641 2809 
L 641 3341 
Q 956 3463 1253 3523 
Q 1550 3584 1831 3584 
Q 2591 3584 2966 3190 
Q 3341 2797 3341 1997 
z
" transform="scale(0.015625)"/>
       <path id="DejaVuSans-70" d="M 1159 525 
L 1159 -1331 
L 581 -1331 
L 581 3500 
L 1159 3500 
L 1159 2969 
Q 1341 3281 1617 3432 
Q 1894 3584 2278 3584 
Q 2916 3584 3314 3078 
Q 3713 2572 3713 1747 
Q 3713 922 3314 415 
Q 2916 -91 2278 -91 
Q 1894 -91 1617 61 
Q 1341 213 1159 525 
z
M 3116 1747 
Q 3116 2381 2855 2742 
Q 2594 3103 2138 3103 
Q 1681 3103 1420 2742 
Q 1159 2381 1159 1747 
Q 1159 1113 1420 752 
Q 1681 391 2138 391 
Q 2594 391 2855 752 
Q 3116 1113 3116 1747 
z
" transform="scale(0.015625)"/>
       <path id="DejaVuSans-69" d="M 603 3500 
L 1178 3500 
L 1178 0 
L 603 0 
L 603 3500 
z
M 603 4863 
L 1178 4863 
L 1178 4134 
L 603 4134 
L 603 4863 
z
" transform="scale(0.015625)"/>
       <path id="DejaVuSans-6c" d="M 603 4863 
L 1178 4863 
L 1178 0 
L 603 0 
L 603 4863 
z
" transform="scale(0.015625)"/>
       <path id="DejaVuSans-72" d="M 2631 2963 
Q 2534 3019 2420 3045 
Q 2306 3072 2169 3072 
Q 1681 3072 1420 2755 
Q 1159 2438 1159 1844 
L 1159 0 
L 581 0 
L 581 3500 
L 1159 3500 
L 1159 2956 
Q 1341 3275 1631 3429 
Q 1922 3584 2338 3584 
Q 2397 3584 2469 3576 
Q 2541 3569 2628 3553 
L 2631 2963 
z
" transform="scale(0.015625)"/>
       <path id="DejaVuSans-79" d="M 2059 -325 
Q 1816 -950 1584 -1140 
Q 1353 -1331 966 -1331 
L 506 -1331 
L 506 -850 
L 844 -850 
Q 1081 -850 1212 -737 
Q 1344 -625 1503 -206 
L 1606 56 
L 191 3500 
L 800 3500 
L 1894 763 
L 2988 3500 
L 3597 3500 
L 2059 -325 
z
" transform="scale(0.015625)"/>
       <path id="DejaVuSans-20" transform="scale(0.015625)"/>
       <path id="DejaVuSans-64" d="M 2906 2969 
L 2906 4863 
L 3481 4863 
L 3481 0 
L 2906 0 
L 2906 525 
Q 2725 213 2448 61 
Q 2172 -91 1784 -91 
Q 1150 -91 751 415 
Q 353 922 353 1747 
Q 353 2572 751 3078 
Q 1150 3584 1784 3584 
Q 2172 3584 2448 3432 
Q 2725 3281 2906 2969 
z
M 947 1747 
Q 947 1113 1208 752 
Q 1469 391 1925 391 
Q 2381 391 2643 752 
Q 2906 1113 2906 1747 
Q 2906 2381 2643 2742 
Q 2381 3103 1925 3103 
Q 1469 3103 1208 2742 
Q 947 2381 947 1747 
z
" transform="scale(0.015625)"/>
       <path id="DejaVuSans-65" d="M 3597 1894 
L 3597 1613 
L 953 1613 
Q 991 1019 1311 708 
Q 1631 397 2203 397 
Q 2534 397 2845 478 
Q 3156 559 3463 722 
L 3463 178 
Q 3153 47 2828 -22 
Q 2503 -91 2169 -91 
Q 1331 -91 842 396 
Q 353 884 353 1716 
Q 353 2575 817 3079 
Q 1281 3584 2069 3584 
Q 2775 3584 3186 3129 
Q 3597 2675 3597 1894 
z
M 3022 2063 
Q 3016 2534 2758 2815 
Q 2500 3097 2075 3097 
Q 1594 3097 1305 2825 
Q 1016 2553 972 2059 
L 3022 2063 
z
" transform="scale(0.015625)"/>
       <path id="DejaVuSans-6e" d="M 3513 2113 
L 3513 0 
L 2938 0 
L 2938 2094 
Q 2938 2591 2744 2837 
Q 2550 3084 2163 3084 
Q 1697 3084 1428 2787 
Q 1159 2491 1159 1978 
L 1159 0 
L 581 0 
L 581 3500 
L 1159 3500 
L 1159 2956 
Q 1366 3272 1645 3428 
Q 1925 3584 2291 3584 
Q 2894 3584 3203 3211 
Q 3513 2838 3513 2113 
z
" transform="scale(0.015625)"/>
       <path id="DejaVuSans-73" d="M 2834 3397 
L 2834 2853 
Q 2591 2978 2328 3040 
Q 2066 3103 1784 3103 
Q 1356 3103 1142 2972 
Q 928 2841 928 2578 
Q 928 2378 1081 2264 
Q 1234 2150 1697 2047 
L 1894 2003 
Q 2506 1872 2764 1633 
Q 3022 1394 3022 966 
Q 3022 478 2636 193 
Q 2250 -91 1575 -91 
Q 1294 -91 989 -36 
Q 684 19 347 128 
L 347 722 
Q 666 556 975 473 
Q 1284 391 1588 391 
Q 1994 391 2212 530 
Q 2431 669 2431 922 
Q 2431 1156 2273 1281 
Q 2116 1406 1581 1522 
L 1381 1569 
Q 847 1681 609 1914 
Q 372 2147 372 2553 
Q 372 3047 722 3315 
Q 1072 3584 1716 3584 
Q 2034 3584 2315 3537 
Q 2597 3491 2834 3397 
z
" transform="scale(0.015625)"/>
       <path id="DejaVuSans-74" d="M 1172 4494 
L 1172 3500 
L 2356 3500 
L 2356 3053 
L 1172 3053 
L 1172 1153 
Q 1172 725 1289 603 
Q 1406 481 1766 481 
L 2356 481 
L 2356 0 
L 1766 0 
Q 1100 0 847 248 
Q 594 497 594 1153 
L 594 3053 
L 172 3053 
L 172 3500 
L 594 3500 
L 594 4494 
L 1172 4494 
z
" transform="scale(0.015625)"/>
       <path id="DejaVuSans-6d" d="M 3328 2828 
Q 3544 3216 3844 3400 
Q 4144 3584 4550 3584 
Q 5097 3584 5394 3201 
Q 5691 2819 5691 2113 
L 5691 0 
L 5113 0 
L 5113 2094 
Q 5113 2597 4934 2840 
Q 4756 3084 4391 3084 
Q 3944 3084 3684 2787 
Q 3425 2491 3425 1978 
L 3425 0 
L 2847 0 
L 2847 2094 
Q 2847 2600 2669 2842 
Q 2491 3084 2119 3084 
Q 1678 3084 1418 2786 
Q 1159 2488 1159 1978 
L 1159 0 
L 581 0 
L 581 3500 
L 1159 3500 
L 1159 2956 
Q 1356 3278 1631 3431 
Q 1906 3584 2284 3584 
Q 2666 3584 2933 3390 
Q 3200 3197 3328 2828 
z
" transform="scale(0.015625)"/>
       <path id="DejaVuSans-Oblique-6d" d="M 5747 2113 
L 5338 0 
L 4763 0 
L 5166 2094 
Q 5191 2228 5203 2325 
Q 5216 2422 5216 2491 
Q 5216 2772 5059 2928 
Q 4903 3084 4622 3084 
Q 4203 3084 3875 2770 
Q 3547 2456 3450 1953 
L 3066 0 
L 2491 0 
L 2900 2094 
Q 2925 2209 2937 2307 
Q 2950 2406 2950 2484 
Q 2950 2769 2794 2926 
Q 2638 3084 2363 3084 
Q 1938 3084 1609 2770 
Q 1281 2456 1184 1953 
L 800 0 
L 225 0 
L 909 3500 
L 1484 3500 
L 1375 2956 
Q 1609 3263 1923 3423 
Q 2238 3584 2597 3584 
Q 2978 3584 3223 3384 
Q 3469 3184 3519 2828 
Q 3781 3197 4126 3390 
Q 4472 3584 4856 3584 
Q 5306 3584 5551 3325 
Q 5797 3066 5797 2591 
Q 5797 2488 5784 2364 
Q 5772 2241 5747 2113 
z
" transform="scale(0.015625)"/>
      </defs>
      <use xlink:href="#DejaVuSans-43" transform="translate(0 0.765625)"/>
      <use xlink:href="#DejaVuSans-61" transform="translate(69.824219 0.765625)"/>
      <use xlink:href="#DejaVuSans-70" transform="translate(131.103516 0.765625)"/>
      <use xlink:href="#DejaVuSans-69" transform="translate(194.580078 0.765625)"/>
      <use xlink:href="#DejaVuSans-6c" transform="translate(222.363281 0.765625)"/>
      <use xlink:href="#DejaVuSans-6c" transform="translate(250.146484 0.765625)"/>
      <use xlink:href="#DejaVuSans-61" transform="translate(277.929688 0.765625)"/>
      <use xlink:href="#DejaVuSans-72" transform="translate(339.208984 0.765625)"/>
      <use xlink:href="#DejaVuSans-79" transform="translate(380.322266 0.765625)"/>
      <use xlink:href="#DejaVuSans-20" transform="translate(439.501953 0.765625)"/>
      <use xlink:href="#DejaVuSans-64" transform="translate(471.289062 0.765625)"/>
      <use xlink:href="#DejaVuSans-65" transform="translate(534.765625 0.765625)"/>
      <use xlink:href="#DejaVuSans-6e" transform="translate(596.289062 0.765625)"/>
      <use xlink:href="#DejaVuSans-73" transform="translate(659.667969 0.765625)"/>
      <use xlink:href="#DejaVuSans-69" transform="translate(711.767578 0.765625)"/>
      <use xlink:href="#DejaVuSans-74" transform="translate(739.550781 0.765625)"/>
      <use xlink:href="#DejaVuSans-79" transform="translate(778.759766 0.765625)"/>
      <use xlink:href="#DejaVuSans-20" transform="translate(837.939453 0.765625)"/>
      <use xlink:href="#DejaVuSans-6d" transform="translate(869.726562 0.765625)"/>
      <use xlink:href="#DejaVuSans-6d" transform="translate(967.138672 0.765625)"/>
      <use xlink:href="#DejaVuSans-20" transform="translate(1064.550781 0.765625)"/>
      <use xlink:href="#DejaVuSans-70" transform="translate(1096.337891 0.765625)"/>
      <use xlink:href="#DejaVuSans-65" transform="translate(1159.814453 0.765625)"/>
      <use xlink:href="#DejaVuSans-72" transform="translate(1221.337891 0.765625)"/>
      <use xlink:href="#DejaVuSans-20" transform="translate(1262.451172 0.765625)"/>
      <use xlink:href="#DejaVuSans-Oblique-6d" transform="translate(1294.238281 0.765625)"/>
      <use xlink:href="#DejaVuSans-Oblique-6d" transform="translate(1391.650391 0.765625)"/>
      <use xlink:href="#DejaVuSans-33" transform="translate(1493.712396 39.046875) scale(0.7)"/>
     </g>
    </g>
   </g>
   <g id="patch_3">
    <path d="M 48.4875 284.4 
L 48.4875 7.2 
" style="fill: none; stroke: #000000; stroke-width: 0.8; stroke-linejoin: miter; stroke-linecap: square"/>
   </g>
   <g id="patch_4">
    <path d="M 606.4875 284.4 
L 606.4875 7.2 
" style="fill: none; stroke: #000000; stroke-width: 0.8; stroke-linejoin: miter; stroke-linecap: square"/>
   </g>
   <g id="patch_5">
    <path d="M 48.4875 284.4 
L 606.4875 284.4 
" style="fill: none; stroke: #000000; stroke-width: 0.8; stroke-linejoin: miter; stroke-linecap: square"/>
   </g>
   <g id="patch_6">
    <path d="M 48.4875 7.2 
L 606.4875 7.2 
" style="fill: none; stroke: #000000; stroke-width: 0.8; stroke-linejoin: miter; stroke-linecap: square"/>
   </g>
   <g id="legend_1">
    <g id="PathCollection_13">
     <g>
      <use xlink:href="#m44a77a1dcc" x="67.4875" y="21.173437" style="fill: #66c2a5; stroke: #66c2a5"/>
     </g>
    </g>
    <g id="text_9">
     <!-- Cap1 -->
     <g transform="translate(85.4875 23.798437) scale(0.1 -0.1)">
      <use xlink:href="#DejaVuSans-43"/>
      <use xlink:href="#DejaVuSans-61" x="69.824219"/>
      <use xlink:href="#DejaVuSans-70" x="131.103516"/>
      <use xlink:href="#DejaVuSans-31" x="194.580078"/>
     </g>
    </g>
    <g id="PathCollection_14">
     <g>
      <use xlink:href="#mbaba8e2ad9" x="67.4875" y="35.851562" style="fill: #fc8d62; stroke: #fc8d62"/>
     </g>
    </g>
    <g id="text_10">
     <!-- Cap2 -->
     <g transform="translate(85.4875 38.476562) scale(0.1 -0.1)">
      <use xlink:href="#DejaVuSans-43"/>
      <use xlink:href="#DejaVuSans-61" x="69.824219"/>
      <use xlink:href="#DejaVuSans-70" x="131.103516"/>
      <use xlink:href="#DejaVuSans-32" x="194.580078"/>
     </g>
    </g>
    <g id="PathCollection_15">
     <g>
      <use xlink:href="#m571136678e" x="67.4875" y="50.529687" style="fill: #8da0cb; stroke: #8da0cb"/>
     </g>
    </g>
    <g id="text_11">
     <!-- Cap3 -->
     <g transform="translate(85.4875 53.154687) scale(0.1 -0.1)">
      <use xlink:href="#DejaVuSans-43"/>
      <use xlink:href="#DejaVuSans-61" x="69.824219"/>
      <use xlink:href="#DejaVuSans-70" x="131.103516"/>
      <use xlink:href="#DejaVuSans-33" x="194.580078"/>
     </g>
    </g>
    <g id="PathCollection_16">
     <g>
      <use xlink:href="#md29ce8b1db" x="67.4875" y="65.207812" style="fill: #e78ac3; stroke: #e78ac3"/>
     </g>
    </g>
    <g id="text_12">
     <!-- Cap4 -->
     <g transform="translate(85.4875 67.832812) scale(0.1 -0.1)">
      <defs>
       <path id="DejaVuSans-34" d="M 2419 4116 
L 825 1625 
L 2419 1625 
L 2419 4116 
z
M 2253 4666 
L 3047 4666 
L 3047 1625 
L 3713 1625 
L 3713 1100 
L 3047 1100 
L 3047 0 
L 2419 0 
L 2419 1100 
L 313 1100 
L 313 1709 
L 2253 4666 
z
" transform="scale(0.015625)"/>
      </defs>
      <use xlink:href="#DejaVuSans-43"/>
      <use xlink:href="#DejaVuSans-61" x="69.824219"/>
      <use xlink:href="#DejaVuSans-70" x="131.103516"/>
      <use xlink:href="#DejaVuSans-34" x="194.580078"/>
     </g>
    </g>
    <g id="PathCollection_17">
     <g>
      <use xlink:href="#md9c5c2c183" x="67.4875" y="79.885937" style="fill: #a6d854; stroke: #a6d854"/>
     </g>
    </g>
    <g id="text_13">
     <!-- Cap5 -->
     <g transform="translate(85.4875 82.510937) scale(0.1 -0.1)">
      <use xlink:href="#DejaVuSans-43"/>
      <use xlink:href="#DejaVuSans-61" x="69.824219"/>
      <use xlink:href="#DejaVuSans-70" x="131.103516"/>
      <use xlink:href="#DejaVuSans-35" x="194.580078"/>
     </g>
    </g>
    <g id="PathCollection_18">
     <g>
      <use xlink:href="#mf7dffa7d75" x="141.309375" y="21.173437" style="fill: #ffd92f; stroke: #ffd92f"/>
     </g>
    </g>
    <g id="text_14">
     <!-- Cap6 -->
     <g transform="translate(159.309375 23.798437) scale(0.1 -0.1)">
      <defs>
       <path id="DejaVuSans-36" d="M 2113 2584 
Q 1688 2584 1439 2293 
Q 1191 2003 1191 1497 
Q 1191 994 1439 701 
Q 1688 409 2113 409 
Q 2538 409 2786 701 
Q 3034 994 3034 1497 
Q 3034 2003 2786 2293 
Q 2538 2584 2113 2584 
z
M 3366 4563 
L 3366 3988 
Q 3128 4100 2886 4159 
Q 2644 4219 2406 4219 
Q 1781 4219 1451 3797 
Q 1122 3375 1075 2522 
Q 1259 2794 1537 2939 
Q 1816 3084 2150 3084 
Q 2853 3084 3261 2657 
Q 3669 2231 3669 1497 
Q 3669 778 3244 343 
Q 2819 -91 2113 -91 
Q 1303 -91 875 529 
Q 447 1150 447 2328 
Q 447 3434 972 4092 
Q 1497 4750 2381 4750 
Q 2619 4750 2861 4703 
Q 3103 4656 3366 4563 
z
" transform="scale(0.015625)"/>
      </defs>
      <use xlink:href="#DejaVuSans-43"/>
      <use xlink:href="#DejaVuSans-61" x="69.824219"/>
      <use xlink:href="#DejaVuSans-70" x="131.103516"/>
      <use xlink:href="#DejaVuSans-36" x="194.580078"/>
     </g>
    </g>
    <g id="PathCollection_19">
     <g>
      <use xlink:href="#mc1d44d33f3" x="141.309375" y="35.851562" style="fill: #e5c494; stroke: #e5c494"/>
     </g>
    </g>
    <g id="text_15">
     <!-- Cap7 -->
     <g transform="translate(159.309375 38.476562) scale(0.1 -0.1)">
      <defs>
       <path id="DejaVuSans-37" d="M 525 4666 
L 3525 4666 
L 3525 4397 
L 1831 0 
L 1172 0 
L 2766 4134 
L 525 4134 
L 525 4666 
z
" transform="scale(0.015625)"/>
      </defs>
      <use xlink:href="#DejaVuSans-43"/>
      <use xlink:href="#DejaVuSans-61" x="69.824219"/>
      <use xlink:href="#DejaVuSans-70" x="131.103516"/>
      <use xlink:href="#DejaVuSans-37" x="194.580078"/>
     </g>
    </g>
    <g id="PathCollection_20">
     <g>
      <use xlink:href="#mcb4ee36ead" x="141.309375" y="50.529687" style="fill: #b3b3b3; stroke: #b3b3b3"/>
     </g>
    </g>
    <g id="text_16">
     <!-- Cap8 -->
     <g transform="translate(159.309375 53.154687) scale(0.1 -0.1)">
      <defs>
       <path id="DejaVuSans-38" d="M 2034 2216 
Q 1584 2216 1326 1975 
Q 1069 1734 1069 1313 
Q 1069 891 1326 650 
Q 1584 409 2034 409 
Q 2484 409 2743 651 
Q 3003 894 3003 1313 
Q 3003 1734 2745 1975 
Q 2488 2216 2034 2216 
z
M 1403 2484 
Q 997 2584 770 2862 
Q 544 3141 544 3541 
Q 544 4100 942 4425 
Q 1341 4750 2034 4750 
Q 2731 4750 3128 4425 
Q 3525 4100 3525 3541 
Q 3525 3141 3298 2862 
Q 3072 2584 2669 2484 
Q 3125 2378 3379 2068 
Q 3634 1759 3634 1313 
Q 3634 634 3220 271 
Q 2806 -91 2034 -91 
Q 1263 -91 848 271 
Q 434 634 434 1313 
Q 434 1759 690 2068 
Q 947 2378 1403 2484 
z
M 1172 3481 
Q 1172 3119 1398 2916 
Q 1625 2713 2034 2713 
Q 2441 2713 2670 2916 
Q 2900 3119 2900 3481 
Q 2900 3844 2670 4047 
Q 2441 4250 2034 4250 
Q 1625 4250 1398 4047 
Q 1172 3844 1172 3481 
z
" transform="scale(0.015625)"/>
      </defs>
      <use xlink:href="#DejaVuSans-43"/>
      <use xlink:href="#DejaVuSans-61" x="69.824219"/>
      <use xlink:href="#DejaVuSans-70" x="131.103516"/>
      <use xlink:href="#DejaVuSans-38" x="194.580078"/>
     </g>
    </g>
    <g id="PathCollection_21">
     <g>
      <use xlink:href="#m44a77a1dcc" x="141.309375" y="65.207812" style="fill: #66c2a5; stroke: #66c2a5"/>
     </g>
    </g>
    <g id="text_17">
     <!-- Cap9 -->
     <g transform="translate(159.309375 67.832812) scale(0.1 -0.1)">
      <defs>
       <path id="DejaVuSans-39" d="M 703 97 
L 703 672 
Q 941 559 1184 500 
Q 1428 441 1663 441 
Q 2288 441 2617 861 
Q 2947 1281 2994 2138 
Q 2813 1869 2534 1725 
Q 2256 1581 1919 1581 
Q 1219 1581 811 2004 
Q 403 2428 403 3163 
Q 403 3881 828 4315 
Q 1253 4750 1959 4750 
Q 2769 4750 3195 4129 
Q 3622 3509 3622 2328 
Q 3622 1225 3098 567 
Q 2575 -91 1691 -91 
Q 1453 -91 1209 -44 
Q 966 3 703 97 
z
M 1959 2075 
Q 2384 2075 2632 2365 
Q 2881 2656 2881 3163 
Q 2881 3666 2632 3958 
Q 2384 4250 1959 4250 
Q 1534 4250 1286 3958 
Q 1038 3666 1038 3163 
Q 1038 2656 1286 2365 
Q 1534 2075 1959 2075 
z
" transform="scale(0.015625)"/>
      </defs>
      <use xlink:href="#DejaVuSans-43"/>
      <use xlink:href="#DejaVuSans-61" x="69.824219"/>
      <use xlink:href="#DejaVuSans-70" x="131.103516"/>
      <use xlink:href="#DejaVuSans-39" x="194.580078"/>
     </g>
    </g>
    <g id="PathCollection_22">
     <g>
      <use xlink:href="#mbaba8e2ad9" x="215.13125" y="21.173437" style="fill: #fc8d62; stroke: #fc8d62"/>
     </g>
    </g>
    <g id="text_18">
     <!-- Cap10 -->
     <g transform="translate(233.13125 23.798437) scale(0.1 -0.1)">
      <use xlink:href="#DejaVuSans-43"/>
      <use xlink:href="#DejaVuSans-61" x="69.824219"/>
      <use xlink:href="#DejaVuSans-70" x="131.103516"/>
      <use xlink:href="#DejaVuSans-31" x="194.580078"/>
      <use xlink:href="#DejaVuSans-30" x="258.203125"/>
     </g>
    </g>
    <g id="PathCollection_23">
     <g>
      <use xlink:href="#m571136678e" x="215.13125" y="35.851562" style="fill: #8da0cb; stroke: #8da0cb"/>
     </g>
    </g>
    <g id="text_19">
     <!-- Cap11 -->
     <g transform="translate(233.13125 38.476562) scale(0.1 -0.1)">
      <use xlink:href="#DejaVuSans-43"/>
      <use xlink:href="#DejaVuSans-61" x="69.824219"/>
      <use xlink:href="#DejaVuSans-70" x="131.103516"/>
      <use xlink:href="#DejaVuSans-31" x="194.580078"/>
      <use xlink:href="#DejaVuSans-31" x="258.203125"/>
     </g>
    </g>
    <g id="PathCollection_24">
     <g>
      <use xlink:href="#md29ce8b1db" x="215.13125" y="50.529687" style="fill: #e78ac3; stroke: #e78ac3"/>
     </g>
    </g>
    <g id="text_20">
     <!-- Cap12 -->
     <g transform="translate(233.13125 53.154687) scale(0.1 -0.1)">
      <use xlink:href="#DejaVuSans-43"/>
      <use xlink:href="#DejaVuSans-61" x="69.824219"/>
      <use xlink:href="#DejaVuSans-70" x="131.103516"/>
      <use xlink:href="#DejaVuSans-31" x="194.580078"/>
      <use xlink:href="#DejaVuSans-32" x="258.203125"/>
     </g>
    </g>
    <g id="line2d_8">
     <path d="M 205.13125 64.332812 
L 225.13125 64.332812 
" style="fill: none; stroke: #dcdcdc; stroke-width: 1.5"/>
    </g>
    <g id="text_21">
     <!-- Model -->
     <g transform="translate(233.13125 67.832812) scale(0.1 -0.1)">
      <defs>
       <path id="DejaVuSans-4d" d="M 628 4666 
L 1569 4666 
L 2759 1491 
L 3956 4666 
L 4897 4666 
L 4897 0 
L 4281 0 
L 4281 4097 
L 3078 897 
L 2444 897 
L 1241 4097 
L 1241 0 
L 628 0 
L 628 4666 
z
" transform="scale(0.015625)"/>
       <path id="DejaVuSans-6f" d="M 1959 3097 
Q 1497 3097 1228 2736 
Q 959 2375 959 1747 
Q 959 1119 1226 758 
Q 1494 397 1959 397 
Q 2419 397 2687 759 
Q 2956 1122 2956 1747 
Q 2956 2369 2687 2733 
Q 2419 3097 1959 3097 
z
M 1959 3584 
Q 2709 3584 3137 3096 
Q 3566 2609 3566 1747 
Q 3566 888 3137 398 
Q 2709 -91 1959 -91 
Q 1206 -91 779 398 
Q 353 888 353 1747 
Q 353 2609 779 3096 
Q 1206 3584 1959 3584 
z
" transform="scale(0.015625)"/>
      </defs>
      <use xlink:href="#DejaVuSans-4d"/>
      <use xlink:href="#DejaVuSans-6f" x="86.279297"/>
      <use xlink:href="#DejaVuSans-64" x="147.460938"/>
      <use xlink:href="#DejaVuSans-65" x="210.9375"/>
      <use xlink:href="#DejaVuSans-6c" x="272.460938"/>
     </g>
    </g>
   </g>
  </g>
 </g>
 <defs>
  <clipPath id="pcae196d011">
   <rect x="48.4875" y="7.2" width="558" height="277.2"/>
  </clipPath>
 </defs>
</svg>
