<?xml version="1.0" encoding="utf-8" standalone="no"?>
<!DOCTYPE svg PUBLIC "-//W3C//DTD SVG 1.1//EN"
  "http://www.w3.org/Graphics/SVG/1.1/DTD/svg11.dtd">
<svg xmlns:xlink="http://www.w3.org/1999/xlink" width="460.278125pt" height="252.838125pt" viewBox="0 0 460.278125 252.838125" xmlns="http://www.w3.org/2000/svg" version="1.1">
 <metadata>
  <rdf:RDF xmlns:dc="http://purl.org/dc/elements/1.1/" xmlns:cc="http://creativecommons.org/ns#" xmlns:rdf="http://www.w3.org/1999/02/22-rdf-syntax-ns#">
   <cc:Work>
    <dc:type rdf:resource="http://purl.org/dc/dcmitype/StillImage"/>
    <dc:date>2025-03-14T12:19:43.513957</dc:date>
    <dc:format>image/svg+xml</dc:format>
    <dc:creator>
     <cc:Agent>
      <dc:title>Matplotlib v3.9.2, https://matplotlib.org/</dc:title>
     </cc:Agent>
    </dc:creator>
   </cc:Work>
  </rdf:RDF>
 </metadata>
 <defs>
  <style type="text/css">*{stroke-linejoin: round; stroke-linecap: butt}</style>
 </defs>
 <g id="figure_1">
  <g id="patch_1">
   <path d="M 0 252.838125 
L 460.278125 252.838125 
L 460.278125 0 
L 0 0 
z
" style="fill: #ffffff"/>
  </g>
  <g id="axes_1">
   <g id="patch_2">
    <path d="M 62.478125 228.96 
L 453.078125 228.96 
L 453.078125 7.2 
L 62.478125 7.2 
z
" style="fill: #ffffff"/>
   </g>
   <g id="LineCollection_1">
    <path d="M 80.23267 166.653976 
L 80.23267 25.435625 
" clip-path="url(#pc0d3b4f21b)" style="fill: none; stroke: #dcdcdc; stroke-width: 1.5"/>
    <path d="M 88.302918 170.439691 
L 88.302918 27.889611 
" clip-path="url(#pc0d3b4f21b)" style="fill: none; stroke: #dcdcdc; stroke-width: 1.5"/>
    <path d="M 96.373166 170.375914 
L 96.373166 25.291235 
" clip-path="url(#pc0d3b4f21b)" style="fill: none; stroke: #dcdcdc; stroke-width: 1.5"/>
    <path d="M 104.443414 175.607688 
L 104.443414 26.621485 
" clip-path="url(#pc0d3b4f21b)" style="fill: none; stroke: #dcdcdc; stroke-width: 1.5"/>
    <path d="M 112.513662 172.192687 
L 112.513662 25.163832 
" clip-path="url(#pc0d3b4f21b)" style="fill: none; stroke: #dcdcdc; stroke-width: 1.5"/>
    <path d="M 120.58391 169.495549 
L 120.58391 23.950351 
" clip-path="url(#pc0d3b4f21b)" style="fill: none; stroke: #dcdcdc; stroke-width: 1.5"/>
    <path d="M 128.654158 170.685982 
L 128.654158 23.77974 
" clip-path="url(#pc0d3b4f21b)" style="fill: none; stroke: #dcdcdc; stroke-width: 1.5"/>
    <path d="M 136.724406 172.888746 
L 136.724406 25.253821 
" clip-path="url(#pc0d3b4f21b)" style="fill: none; stroke: #dcdcdc; stroke-width: 1.5"/>
    <path d="M 144.794654 172.633041 
L 144.794654 24.901757 
" clip-path="url(#pc0d3b4f21b)" style="fill: none; stroke: #dcdcdc; stroke-width: 1.5"/>
    <path d="M 152.864902 169.609152 
L 152.864902 21.720324 
" clip-path="url(#pc0d3b4f21b)" style="fill: none; stroke: #dcdcdc; stroke-width: 1.5"/>
    <path d="M 160.93515 169.873211 
L 160.93515 24.968709 
" clip-path="url(#pc0d3b4f21b)" style="fill: none; stroke: #dcdcdc; stroke-width: 1.5"/>
    <path d="M 169.005398 173.889043 
L 169.005398 24.052872 
" clip-path="url(#pc0d3b4f21b)" style="fill: none; stroke: #dcdcdc; stroke-width: 1.5"/>
    <path d="M 177.075646 172.232429 
L 177.075646 23.269259 
" clip-path="url(#pc0d3b4f21b)" style="fill: none; stroke: #dcdcdc; stroke-width: 1.5"/>
    <path d="M 185.145894 174.045356 
L 185.145894 25.695762 
" clip-path="url(#pc0d3b4f21b)" style="fill: none; stroke: #dcdcdc; stroke-width: 1.5"/>
    <path d="M 193.216142 166.946757 
L 193.216142 25.447466 
" clip-path="url(#pc0d3b4f21b)" style="fill: none; stroke: #dcdcdc; stroke-width: 1.5"/>
    <path d="M 201.286389 170.328398 
L 201.286389 24.022305 
" clip-path="url(#pc0d3b4f21b)" style="fill: none; stroke: #dcdcdc; stroke-width: 1.5"/>
    <path d="M 209.356637 171.831198 
L 209.356637 26.09151 
" clip-path="url(#pc0d3b4f21b)" style="fill: none; stroke: #dcdcdc; stroke-width: 1.5"/>
    <path d="M 217.426885 170.118361 
L 217.426885 23.119545 
" clip-path="url(#pc0d3b4f21b)" style="fill: none; stroke: #dcdcdc; stroke-width: 1.5"/>
    <path d="M 225.497133 172.957533 
L 225.497133 24.50573 
" clip-path="url(#pc0d3b4f21b)" style="fill: none; stroke: #dcdcdc; stroke-width: 1.5"/>
    <path d="M 233.567381 172.004307 
L 233.567381 25.512888 
" clip-path="url(#pc0d3b4f21b)" style="fill: none; stroke: #dcdcdc; stroke-width: 1.5"/>
    <path d="M 241.637629 170.957429 
L 241.637629 20.965429 
" clip-path="url(#pc0d3b4f21b)" style="fill: none; stroke: #dcdcdc; stroke-width: 1.5"/>
    <path d="M 249.707877 169.813296 
L 249.707877 29.775798 
" clip-path="url(#pc0d3b4f21b)" style="fill: none; stroke: #dcdcdc; stroke-width: 1.5"/>
    <path d="M 257.778125 169.386643 
L 257.778125 29.577633 
" clip-path="url(#pc0d3b4f21b)" style="fill: none; stroke: #dcdcdc; stroke-width: 1.5"/>
    <path d="M 265.848373 173.763722 
L 265.848373 22.001361 
" clip-path="url(#pc0d3b4f21b)" style="fill: none; stroke: #dcdcdc; stroke-width: 1.5"/>
    <path d="M 273.918621 168.994854 
L 273.918621 22.094952 
" clip-path="url(#pc0d3b4f21b)" style="fill: none; stroke: #dcdcdc; stroke-width: 1.5"/>
    <path d="M 281.988869 172.985339 
L 281.988869 26.422586 
" clip-path="url(#pc0d3b4f21b)" style="fill: none; stroke: #dcdcdc; stroke-width: 1.5"/>
    <path d="M 290.059117 170.03672 
L 290.059117 24.462089 
" clip-path="url(#pc0d3b4f21b)" style="fill: none; stroke: #dcdcdc; stroke-width: 1.5"/>
    <path d="M 298.129365 171.471043 
L 298.129365 22.419577 
" clip-path="url(#pc0d3b4f21b)" style="fill: none; stroke: #dcdcdc; stroke-width: 1.5"/>
    <path d="M 306.199613 173.729846 
L 306.199613 26.615254 
" clip-path="url(#pc0d3b4f21b)" style="fill: none; stroke: #dcdcdc; stroke-width: 1.5"/>
    <path d="M 314.269861 171.552624 
L 314.269861 25.049172 
" clip-path="url(#pc0d3b4f21b)" style="fill: none; stroke: #dcdcdc; stroke-width: 1.5"/>
   </g>
   <g id="LineCollection_2">
    <path d="M 322.340108 214.080429 
L 322.340108 21.83545 
" clip-path="url(#pc0d3b4f21b)" style="fill: none; stroke: #dcdcdc; stroke-width: 1.5"/>
    <path d="M 330.410356 212.377591 
L 330.410356 21.530557 
" clip-path="url(#pc0d3b4f21b)" style="fill: none; stroke: #dcdcdc; stroke-width: 1.5"/>
    <path d="M 338.480604 216.739825 
L 338.480604 22.748277 
" clip-path="url(#pc0d3b4f21b)" style="fill: none; stroke: #dcdcdc; stroke-width: 1.5"/>
    <path d="M 346.550852 214.627836 
L 346.550852 21.516575 
" clip-path="url(#pc0d3b4f21b)" style="fill: none; stroke: #dcdcdc; stroke-width: 1.5"/>
    <path d="M 354.6211 214.88627 
L 354.6211 23.112496 
" clip-path="url(#pc0d3b4f21b)" style="fill: none; stroke: #dcdcdc; stroke-width: 1.5"/>
    <path d="M 362.691348 214.582462 
L 362.691348 23.200832 
" clip-path="url(#pc0d3b4f21b)" style="fill: none; stroke: #dcdcdc; stroke-width: 1.5"/>
    <path d="M 370.761596 215.224971 
L 370.761596 22.238254 
" clip-path="url(#pc0d3b4f21b)" style="fill: none; stroke: #dcdcdc; stroke-width: 1.5"/>
    <path d="M 378.831844 215.985574 
L 378.831844 24.680238 
" clip-path="url(#pc0d3b4f21b)" style="fill: none; stroke: #dcdcdc; stroke-width: 1.5"/>
    <path d="M 386.902092 213.925123 
L 386.902092 17.28 
" clip-path="url(#pc0d3b4f21b)" style="fill: none; stroke: #dcdcdc; stroke-width: 1.5"/>
    <path d="M 394.97234 218.88 
L 394.97234 19.853758 
" clip-path="url(#pc0d3b4f21b)" style="fill: none; stroke: #dcdcdc; stroke-width: 1.5"/>
    <path d="M 403.042588 214.135255 
L 403.042588 26.805951 
" clip-path="url(#pc0d3b4f21b)" style="fill: none; stroke: #dcdcdc; stroke-width: 1.5"/>
    <path d="M 411.112836 213.072641 
L 411.112836 26.381028 
" clip-path="url(#pc0d3b4f21b)" style="fill: none; stroke: #dcdcdc; stroke-width: 1.5"/>
    <path d="M 419.183084 216.065763 
L 419.183084 19.172425 
" clip-path="url(#pc0d3b4f21b)" style="fill: none; stroke: #dcdcdc; stroke-width: 1.5"/>
    <path d="M 427.253332 215.437123 
L 427.253332 22.661506 
" clip-path="url(#pc0d3b4f21b)" style="fill: none; stroke: #dcdcdc; stroke-width: 1.5"/>
    <path d="M 435.32358 215.003644 
L 435.32358 18.715899 
" clip-path="url(#pc0d3b4f21b)" style="fill: none; stroke: #dcdcdc; stroke-width: 1.5"/>
   </g>
   <g id="PathCollection_1">
    <defs>
     <path id="m917eb0b9fb" d="M 0 3 
C 0.795609 3 1.55874 2.683901 2.12132 2.12132 
C 2.683901 1.55874 3 0.795609 3 0 
C 3 -0.795609 2.683901 -1.55874 2.12132 -2.12132 
C 1.55874 -2.683901 0.795609 -3 0 -3 
C -0.795609 -3 -1.55874 -2.683901 -2.12132 -2.12132 
C -2.683901 -1.55874 -3 -0.795609 -3 0 
C -3 0.795609 -2.683901 1.55874 -2.12132 2.12132 
C -1.55874 2.683901 -0.795609 3 0 3 
z
" style="stroke: #66c2a5"/>
    </defs>
    <g clip-path="url(#pc0d3b4f21b)">
     <use xlink:href="#m917eb0b9fb" x="80.23267" y="79.088627" style="fill: #66c2a5; stroke: #66c2a5"/>
     <use xlink:href="#m917eb0b9fb" x="314.269861" y="128.102876" style="fill: #66c2a5; stroke: #66c2a5"/>
     <use xlink:href="#m917eb0b9fb" x="273.918621" y="77.316433" style="fill: #66c2a5; stroke: #66c2a5"/>
     <use xlink:href="#m917eb0b9fb" x="249.707877" y="136.162754" style="fill: #66c2a5; stroke: #66c2a5"/>
     <use xlink:href="#m917eb0b9fb" x="281.988869" y="82.200869" style="fill: #66c2a5; stroke: #66c2a5"/>
     <use xlink:href="#m917eb0b9fb" x="233.567381" y="102.083565" style="fill: #66c2a5; stroke: #66c2a5"/>
     <use xlink:href="#m917eb0b9fb" x="225.497133" y="113.483277" style="fill: #66c2a5; stroke: #66c2a5"/>
     <use xlink:href="#m917eb0b9fb" x="257.778125" y="74.414751" style="fill: #66c2a5; stroke: #66c2a5"/>
     <use xlink:href="#m917eb0b9fb" x="265.848373" y="113.67688" style="fill: #66c2a5; stroke: #66c2a5"/>
     <use xlink:href="#m917eb0b9fb" x="290.059117" y="90.824786" style="fill: #66c2a5; stroke: #66c2a5"/>
     <use xlink:href="#m917eb0b9fb" x="298.129365" y="169.923016" style="fill: #66c2a5; stroke: #66c2a5"/>
     <use xlink:href="#m917eb0b9fb" x="306.199613" y="101.00995" style="fill: #66c2a5; stroke: #66c2a5"/>
     <use xlink:href="#m917eb0b9fb" x="241.637629" y="130.62007" style="fill: #66c2a5; stroke: #66c2a5"/>
     <use xlink:href="#m917eb0b9fb" x="217.426885" y="104.949633" style="fill: #66c2a5; stroke: #66c2a5"/>
     <use xlink:href="#m917eb0b9fb" x="136.724406" y="120.926921" style="fill: #66c2a5; stroke: #66c2a5"/>
     <use xlink:href="#m917eb0b9fb" x="88.302918" y="144.666989" style="fill: #66c2a5; stroke: #66c2a5"/>
     <use xlink:href="#m917eb0b9fb" x="96.373166" y="72.314488" style="fill: #66c2a5; stroke: #66c2a5"/>
     <use xlink:href="#m917eb0b9fb" x="104.443414" y="140.108187" style="fill: #66c2a5; stroke: #66c2a5"/>
     <use xlink:href="#m917eb0b9fb" x="112.513662" y="93.381224" style="fill: #66c2a5; stroke: #66c2a5"/>
     <use xlink:href="#m917eb0b9fb" x="120.58391" y="131.245966" style="fill: #66c2a5; stroke: #66c2a5"/>
     <use xlink:href="#m917eb0b9fb" x="128.654158" y="65.248796" style="fill: #66c2a5; stroke: #66c2a5"/>
     <use xlink:href="#m917eb0b9fb" x="144.794654" y="90.937733" style="fill: #66c2a5; stroke: #66c2a5"/>
     <use xlink:href="#m917eb0b9fb" x="201.286389" y="69.118028" style="fill: #66c2a5; stroke: #66c2a5"/>
     <use xlink:href="#m917eb0b9fb" x="152.864902" y="67.28871" style="fill: #66c2a5; stroke: #66c2a5"/>
     <use xlink:href="#m917eb0b9fb" x="160.93515" y="79.8891" style="fill: #66c2a5; stroke: #66c2a5"/>
     <use xlink:href="#m917eb0b9fb" x="169.005398" y="79.54804" style="fill: #66c2a5; stroke: #66c2a5"/>
     <use xlink:href="#m917eb0b9fb" x="177.075646" y="78.879091" style="fill: #66c2a5; stroke: #66c2a5"/>
     <use xlink:href="#m917eb0b9fb" x="185.145894" y="75.142688" style="fill: #66c2a5; stroke: #66c2a5"/>
     <use xlink:href="#m917eb0b9fb" x="193.216142" y="61.054721" style="fill: #66c2a5; stroke: #66c2a5"/>
     <use xlink:href="#m917eb0b9fb" x="209.356637" y="86.705923" style="fill: #66c2a5; stroke: #66c2a5"/>
    </g>
   </g>
   <g id="PathCollection_2">
    <defs>
     <path id="m49e75c9e22" d="M 0 3 
C 0.795609 3 1.55874 2.683901 2.12132 2.12132 
C 2.683901 1.55874 3 0.795609 3 0 
C 3 -0.795609 2.683901 -1.55874 2.12132 -2.12132 
C 1.55874 -2.683901 0.795609 -3 0 -3 
C -0.795609 -3 -1.55874 -2.683901 -2.12132 -2.12132 
C -2.683901 -1.55874 -3 -0.795609 -3 0 
C -3 0.795609 -2.683901 1.55874 -2.12132 2.12132 
C -1.55874 2.683901 -0.795609 3 0 3 
z
" style="stroke: #fc8d62"/>
    </defs>
    <g clip-path="url(#pc0d3b4f21b)">
     <use xlink:href="#m49e75c9e22" x="338.480604" y="58.543261" style="fill: #fc8d62; stroke: #fc8d62"/>
     <use xlink:href="#m49e75c9e22" x="330.410356" y="80.784525" style="fill: #fc8d62; stroke: #fc8d62"/>
     <use xlink:href="#m49e75c9e22" x="354.6211" y="98.726233" style="fill: #fc8d62; stroke: #fc8d62"/>
     <use xlink:href="#m49e75c9e22" x="427.253332" y="95.02614" style="fill: #fc8d62; stroke: #fc8d62"/>
     <use xlink:href="#m49e75c9e22" x="386.902092" y="195.199431" style="fill: #fc8d62; stroke: #fc8d62"/>
     <use xlink:href="#m49e75c9e22" x="362.691348" y="96.946491" style="fill: #fc8d62; stroke: #fc8d62"/>
     <use xlink:href="#m49e75c9e22" x="419.183084" y="141.957464" style="fill: #fc8d62; stroke: #fc8d62"/>
     <use xlink:href="#m49e75c9e22" x="411.112836" y="132.989448" style="fill: #fc8d62; stroke: #fc8d62"/>
     <use xlink:href="#m49e75c9e22" x="403.042588" y="122.587893" style="fill: #fc8d62; stroke: #fc8d62"/>
     <use xlink:href="#m49e75c9e22" x="394.97234" y="107.165547" style="fill: #fc8d62; stroke: #fc8d62"/>
     <use xlink:href="#m49e75c9e22" x="378.831844" y="115.14286" style="fill: #fc8d62; stroke: #fc8d62"/>
     <use xlink:href="#m49e75c9e22" x="370.761596" y="147.484064" style="fill: #fc8d62; stroke: #fc8d62"/>
     <use xlink:href="#m49e75c9e22" x="346.550852" y="150.900981" style="fill: #fc8d62; stroke: #fc8d62"/>
     <use xlink:href="#m49e75c9e22" x="322.340108" y="146.776348" style="fill: #fc8d62; stroke: #fc8d62"/>
     <use xlink:href="#m49e75c9e22" x="435.32358" y="88.282129" style="fill: #fc8d62; stroke: #fc8d62"/>
    </g>
   </g>
   <g id="matplotlib.axis_1">
    <g id="xtick_1">
     <g id="line2d_1">
      <defs>
       <path id="m7c3032302a" d="M 0 0 
L 0 3.5 
" style="stroke: #000000; stroke-width: 0.8"/>
      </defs>
      <g>
       <use xlink:href="#m7c3032302a" x="80.23267" y="228.96" style="stroke: #000000; stroke-width: 0.8"/>
      </g>
     </g>
     <g id="text_1">
      <!-- 0.0 -->
      <g transform="translate(72.281108 243.558437) scale(0.1 -0.1)">
       <defs>
        <path id="DejaVuSans-30" d="M 2034 4250 
Q 1547 4250 1301 3770 
Q 1056 3291 1056 2328 
Q 1056 1369 1301 889 
Q 1547 409 2034 409 
Q 2525 409 2770 889 
Q 3016 1369 3016 2328 
Q 3016 3291 2770 3770 
Q 2525 4250 2034 4250 
z
M 2034 4750 
Q 2819 4750 3233 4129 
Q 3647 3509 3647 2328 
Q 3647 1150 3233 529 
Q 2819 -91 2034 -91 
Q 1250 -91 836 529 
Q 422 1150 422 2328 
Q 422 3509 836 4129 
Q 1250 4750 2034 4750 
z
" transform="scale(0.015625)"/>
        <path id="DejaVuSans-2e" d="M 684 794 
L 1344 794 
L 1344 0 
L 684 0 
L 684 794 
z
" transform="scale(0.015625)"/>
       </defs>
       <use xlink:href="#DejaVuSans-30"/>
       <use xlink:href="#DejaVuSans-2e" x="63.623047"/>
       <use xlink:href="#DejaVuSans-30" x="95.410156"/>
      </g>
     </g>
    </g>
    <g id="xtick_2">
     <g id="line2d_2">
      <g>
       <use xlink:href="#m7c3032302a" x="151.250852" y="228.96" style="stroke: #000000; stroke-width: 0.8"/>
      </g>
     </g>
     <g id="text_2">
      <!-- 0.2 -->
      <g transform="translate(143.29929 243.558437) scale(0.1 -0.1)">
       <defs>
        <path id="DejaVuSans-32" d="M 1228 531 
L 3431 531 
L 3431 0 
L 469 0 
L 469 531 
Q 828 903 1448 1529 
Q 2069 2156 2228 2338 
Q 2531 2678 2651 2914 
Q 2772 3150 2772 3378 
Q 2772 3750 2511 3984 
Q 2250 4219 1831 4219 
Q 1534 4219 1204 4116 
Q 875 4013 500 3803 
L 500 4441 
Q 881 4594 1212 4672 
Q 1544 4750 1819 4750 
Q 2544 4750 2975 4387 
Q 3406 4025 3406 3419 
Q 3406 3131 3298 2873 
Q 3191 2616 2906 2266 
Q 2828 2175 2409 1742 
Q 1991 1309 1228 531 
z
" transform="scale(0.015625)"/>
       </defs>
       <use xlink:href="#DejaVuSans-30"/>
       <use xlink:href="#DejaVuSans-2e" x="63.623047"/>
       <use xlink:href="#DejaVuSans-32" x="95.410156"/>
      </g>
     </g>
    </g>
    <g id="xtick_3">
     <g id="line2d_3">
      <g>
       <use xlink:href="#m7c3032302a" x="222.269034" y="228.96" style="stroke: #000000; stroke-width: 0.8"/>
      </g>
     </g>
     <g id="text_3">
      <!-- 0.4 -->
      <g transform="translate(214.317472 243.558437) scale(0.1 -0.1)">
       <defs>
        <path id="DejaVuSans-34" d="M 2419 4116 
L 825 1625 
L 2419 1625 
L 2419 4116 
z
M 2253 4666 
L 3047 4666 
L 3047 1625 
L 3713 1625 
L 3713 1100 
L 3047 1100 
L 3047 0 
L 2419 0 
L 2419 1100 
L 313 1100 
L 313 1709 
L 2253 4666 
z
" transform="scale(0.015625)"/>
       </defs>
       <use xlink:href="#DejaVuSans-30"/>
       <use xlink:href="#DejaVuSans-2e" x="63.623047"/>
       <use xlink:href="#DejaVuSans-34" x="95.410156"/>
      </g>
     </g>
    </g>
    <g id="xtick_4">
     <g id="line2d_4">
      <g>
       <use xlink:href="#m7c3032302a" x="293.287216" y="228.96" style="stroke: #000000; stroke-width: 0.8"/>
      </g>
     </g>
     <g id="text_4">
      <!-- 0.6 -->
      <g transform="translate(285.335653 243.558437) scale(0.1 -0.1)">
       <defs>
        <path id="DejaVuSans-36" d="M 2113 2584 
Q 1688 2584 1439 2293 
Q 1191 2003 1191 1497 
Q 1191 994 1439 701 
Q 1688 409 2113 409 
Q 2538 409 2786 701 
Q 3034 994 3034 1497 
Q 3034 2003 2786 2293 
Q 2538 2584 2113 2584 
z
M 3366 4563 
L 3366 3988 
Q 3128 4100 2886 4159 
Q 2644 4219 2406 4219 
Q 1781 4219 1451 3797 
Q 1122 3375 1075 2522 
Q 1259 2794 1537 2939 
Q 1816 3084 2150 3084 
Q 2853 3084 3261 2657 
Q 3669 2231 3669 1497 
Q 3669 778 3244 343 
Q 2819 -91 2113 -91 
Q 1303 -91 875 529 
Q 447 1150 447 2328 
Q 447 3434 972 4092 
Q 1497 4750 2381 4750 
Q 2619 4750 2861 4703 
Q 3103 4656 3366 4563 
z
" transform="scale(0.015625)"/>
       </defs>
       <use xlink:href="#DejaVuSans-30"/>
       <use xlink:href="#DejaVuSans-2e" x="63.623047"/>
       <use xlink:href="#DejaVuSans-36" x="95.410156"/>
      </g>
     </g>
    </g>
    <g id="xtick_5">
     <g id="line2d_5">
      <g>
       <use xlink:href="#m7c3032302a" x="364.305398" y="228.96" style="stroke: #000000; stroke-width: 0.8"/>
      </g>
     </g>
     <g id="text_5">
      <!-- 0.8 -->
      <g transform="translate(356.353835 243.558437) scale(0.1 -0.1)">
       <defs>
        <path id="DejaVuSans-38" d="M 2034 2216 
Q 1584 2216 1326 1975 
Q 1069 1734 1069 1313 
Q 1069 891 1326 650 
Q 1584 409 2034 409 
Q 2484 409 2743 651 
Q 3003 894 3003 1313 
Q 3003 1734 2745 1975 
Q 2488 2216 2034 2216 
z
M 1403 2484 
Q 997 2584 770 2862 
Q 544 3141 544 3541 
Q 544 4100 942 4425 
Q 1341 4750 2034 4750 
Q 2731 4750 3128 4425 
Q 3525 4100 3525 3541 
Q 3525 3141 3298 2862 
Q 3072 2584 2669 2484 
Q 3125 2378 3379 2068 
Q 3634 1759 3634 1313 
Q 3634 634 3220 271 
Q 2806 -91 2034 -91 
Q 1263 -91 848 271 
Q 434 634 434 1313 
Q 434 1759 690 2068 
Q 947 2378 1403 2484 
z
M 1172 3481 
Q 1172 3119 1398 2916 
Q 1625 2713 2034 2713 
Q 2441 2713 2670 2916 
Q 2900 3119 2900 3481 
Q 2900 3844 2670 4047 
Q 2441 4250 2034 4250 
Q 1625 4250 1398 4047 
Q 1172 3844 1172 3481 
z
" transform="scale(0.015625)"/>
       </defs>
       <use xlink:href="#DejaVuSans-30"/>
       <use xlink:href="#DejaVuSans-2e" x="63.623047"/>
       <use xlink:href="#DejaVuSans-38" x="95.410156"/>
      </g>
     </g>
    </g>
    <g id="xtick_6">
     <g id="line2d_6">
      <g>
       <use xlink:href="#m7c3032302a" x="435.32358" y="228.96" style="stroke: #000000; stroke-width: 0.8"/>
      </g>
     </g>
     <g id="text_6">
      <!-- 1.0 -->
      <g transform="translate(427.372017 243.558437) scale(0.1 -0.1)">
       <defs>
        <path id="DejaVuSans-31" d="M 794 531 
L 1825 531 
L 1825 4091 
L 703 3866 
L 703 4441 
L 1819 4666 
L 2450 4666 
L 2450 531 
L 3481 531 
L 3481 0 
L 794 0 
L 794 531 
z
" transform="scale(0.015625)"/>
       </defs>
       <use xlink:href="#DejaVuSans-31"/>
       <use xlink:href="#DejaVuSans-2e" x="63.623047"/>
       <use xlink:href="#DejaVuSans-30" x="95.410156"/>
      </g>
     </g>
    </g>
   </g>
   <g id="matplotlib.axis_2">
    <g id="ytick_1">
     <g id="line2d_7">
      <defs>
       <path id="m778883c2f0" d="M 0 0 
L -2 0 
" style="stroke: #000000; stroke-width: 0.6"/>
      </defs>
      <g>
       <use xlink:href="#m778883c2f0" x="62.478125" y="213.032984" style="stroke: #000000; stroke-width: 0.6"/>
      </g>
     </g>
     <g id="text_7">
      <!-- $\mathdefault{2\times10^{0}}$ -->
      <g transform="translate(20.878125 216.832203) scale(0.1 -0.1)">
       <defs>
        <path id="DejaVuSans-d7" d="M 4488 3438 
L 3059 2003 
L 4488 575 
L 4116 197 
L 2681 1631 
L 1247 197 
L 878 575 
L 2303 2003 
L 878 3438 
L 1247 3816 
L 2681 2381 
L 4116 3816 
L 4488 3438 
z
" transform="scale(0.015625)"/>
       </defs>
       <use xlink:href="#DejaVuSans-32" transform="translate(0 0.765625)"/>
       <use xlink:href="#DejaVuSans-d7" transform="translate(83.105469 0.765625)"/>
       <use xlink:href="#DejaVuSans-31" transform="translate(186.376953 0.765625)"/>
       <use xlink:href="#DejaVuSans-30" transform="translate(250 0.765625)"/>
       <use xlink:href="#DejaVuSans-30" transform="translate(314.580078 39.046875) scale(0.7)"/>
      </g>
     </g>
    </g>
    <g id="ytick_2">
     <g id="line2d_8">
      <g>
       <use xlink:href="#m778883c2f0" x="62.478125" y="57.0786" style="stroke: #000000; stroke-width: 0.6"/>
      </g>
     </g>
     <g id="text_8">
      <!-- $\mathdefault{3\times10^{0}}$ -->
      <g transform="translate(20.878125 60.877819) scale(0.1 -0.1)">
       <defs>
        <path id="DejaVuSans-33" d="M 2597 2516 
Q 3050 2419 3304 2112 
Q 3559 1806 3559 1356 
Q 3559 666 3084 287 
Q 2609 -91 1734 -91 
Q 1441 -91 1130 -33 
Q 819 25 488 141 
L 488 750 
Q 750 597 1062 519 
Q 1375 441 1716 441 
Q 2309 441 2620 675 
Q 2931 909 2931 1356 
Q 2931 1769 2642 2001 
Q 2353 2234 1838 2234 
L 1294 2234 
L 1294 2753 
L 1863 2753 
Q 2328 2753 2575 2939 
Q 2822 3125 2822 3475 
Q 2822 3834 2567 4026 
Q 2313 4219 1838 4219 
Q 1578 4219 1281 4162 
Q 984 4106 628 3988 
L 628 4550 
Q 988 4650 1302 4700 
Q 1616 4750 1894 4750 
Q 2613 4750 3031 4423 
Q 3450 4097 3450 3541 
Q 3450 3153 3228 2886 
Q 3006 2619 2597 2516 
z
" transform="scale(0.015625)"/>
       </defs>
       <use xlink:href="#DejaVuSans-33" transform="translate(0 0.765625)"/>
       <use xlink:href="#DejaVuSans-d7" transform="translate(83.105469 0.765625)"/>
       <use xlink:href="#DejaVuSans-31" transform="translate(186.376953 0.765625)"/>
       <use xlink:href="#DejaVuSans-30" transform="translate(250 0.765625)"/>
       <use xlink:href="#DejaVuSans-30" transform="translate(314.580078 39.046875) scale(0.7)"/>
      </g>
     </g>
    </g>
    <g id="text_9">
     <!-- Craniotomy diameter -->
     <g transform="translate(14.798438 171.412812) rotate(-90) scale(0.1 -0.1)">
      <defs>
       <path id="DejaVuSans-43" d="M 4122 4306 
L 4122 3641 
Q 3803 3938 3442 4084 
Q 3081 4231 2675 4231 
Q 1875 4231 1450 3742 
Q 1025 3253 1025 2328 
Q 1025 1406 1450 917 
Q 1875 428 2675 428 
Q 3081 428 3442 575 
Q 3803 722 4122 1019 
L 4122 359 
Q 3791 134 3420 21 
Q 3050 -91 2638 -91 
Q 1578 -91 968 557 
Q 359 1206 359 2328 
Q 359 3453 968 4101 
Q 1578 4750 2638 4750 
Q 3056 4750 3426 4639 
Q 3797 4528 4122 4306 
z
" transform="scale(0.015625)"/>
       <path id="DejaVuSans-72" d="M 2631 2963 
Q 2534 3019 2420 3045 
Q 2306 3072 2169 3072 
Q 1681 3072 1420 2755 
Q 1159 2438 1159 1844 
L 1159 0 
L 581 0 
L 581 3500 
L 1159 3500 
L 1159 2956 
Q 1341 3275 1631 3429 
Q 1922 3584 2338 3584 
Q 2397 3584 2469 3576 
Q 2541 3569 2628 3553 
L 2631 2963 
z
" transform="scale(0.015625)"/>
       <path id="DejaVuSans-61" d="M 2194 1759 
Q 1497 1759 1228 1600 
Q 959 1441 959 1056 
Q 959 750 1161 570 
Q 1363 391 1709 391 
Q 2188 391 2477 730 
Q 2766 1069 2766 1631 
L 2766 1759 
L 2194 1759 
z
M 3341 1997 
L 3341 0 
L 2766 0 
L 2766 531 
Q 2569 213 2275 61 
Q 1981 -91 1556 -91 
Q 1019 -91 701 211 
Q 384 513 384 1019 
Q 384 1609 779 1909 
Q 1175 2209 1959 2209 
L 2766 2209 
L 2766 2266 
Q 2766 2663 2505 2880 
Q 2244 3097 1772 3097 
Q 1472 3097 1187 3025 
Q 903 2953 641 2809 
L 641 3341 
Q 956 3463 1253 3523 
Q 1550 3584 1831 3584 
Q 2591 3584 2966 3190 
Q 3341 2797 3341 1997 
z
" transform="scale(0.015625)"/>
       <path id="DejaVuSans-6e" d="M 3513 2113 
L 3513 0 
L 2938 0 
L 2938 2094 
Q 2938 2591 2744 2837 
Q 2550 3084 2163 3084 
Q 1697 3084 1428 2787 
Q 1159 2491 1159 1978 
L 1159 0 
L 581 0 
L 581 3500 
L 1159 3500 
L 1159 2956 
Q 1366 3272 1645 3428 
Q 1925 3584 2291 3584 
Q 2894 3584 3203 3211 
Q 3513 2838 3513 2113 
z
" transform="scale(0.015625)"/>
       <path id="DejaVuSans-69" d="M 603 3500 
L 1178 3500 
L 1178 0 
L 603 0 
L 603 3500 
z
M 603 4863 
L 1178 4863 
L 1178 4134 
L 603 4134 
L 603 4863 
z
" transform="scale(0.015625)"/>
       <path id="DejaVuSans-6f" d="M 1959 3097 
Q 1497 3097 1228 2736 
Q 959 2375 959 1747 
Q 959 1119 1226 758 
Q 1494 397 1959 397 
Q 2419 397 2687 759 
Q 2956 1122 2956 1747 
Q 2956 2369 2687 2733 
Q 2419 3097 1959 3097 
z
M 1959 3584 
Q 2709 3584 3137 3096 
Q 3566 2609 3566 1747 
Q 3566 888 3137 398 
Q 2709 -91 1959 -91 
Q 1206 -91 779 398 
Q 353 888 353 1747 
Q 353 2609 779 3096 
Q 1206 3584 1959 3584 
z
" transform="scale(0.015625)"/>
       <path id="DejaVuSans-74" d="M 1172 4494 
L 1172 3500 
L 2356 3500 
L 2356 3053 
L 1172 3053 
L 1172 1153 
Q 1172 725 1289 603 
Q 1406 481 1766 481 
L 2356 481 
L 2356 0 
L 1766 0 
Q 1100 0 847 248 
Q 594 497 594 1153 
L 594 3053 
L 172 3053 
L 172 3500 
L 594 3500 
L 594 4494 
L 1172 4494 
z
" transform="scale(0.015625)"/>
       <path id="DejaVuSans-6d" d="M 3328 2828 
Q 3544 3216 3844 3400 
Q 4144 3584 4550 3584 
Q 5097 3584 5394 3201 
Q 5691 2819 5691 2113 
L 5691 0 
L 5113 0 
L 5113 2094 
Q 5113 2597 4934 2840 
Q 4756 3084 4391 3084 
Q 3944 3084 3684 2787 
Q 3425 2491 3425 1978 
L 3425 0 
L 2847 0 
L 2847 2094 
Q 2847 2600 2669 2842 
Q 2491 3084 2119 3084 
Q 1678 3084 1418 2786 
Q 1159 2488 1159 1978 
L 1159 0 
L 581 0 
L 581 3500 
L 1159 3500 
L 1159 2956 
Q 1356 3278 1631 3431 
Q 1906 3584 2284 3584 
Q 2666 3584 2933 3390 
Q 3200 3197 3328 2828 
z
" transform="scale(0.015625)"/>
       <path id="DejaVuSans-79" d="M 2059 -325 
Q 1816 -950 1584 -1140 
Q 1353 -1331 966 -1331 
L 506 -1331 
L 506 -850 
L 844 -850 
Q 1081 -850 1212 -737 
Q 1344 -625 1503 -206 
L 1606 56 
L 191 3500 
L 800 3500 
L 1894 763 
L 2988 3500 
L 3597 3500 
L 2059 -325 
z
" transform="scale(0.015625)"/>
       <path id="DejaVuSans-20" transform="scale(0.015625)"/>
       <path id="DejaVuSans-64" d="M 2906 2969 
L 2906 4863 
L 3481 4863 
L 3481 0 
L 2906 0 
L 2906 525 
Q 2725 213 2448 61 
Q 2172 -91 1784 -91 
Q 1150 -91 751 415 
Q 353 922 353 1747 
Q 353 2572 751 3078 
Q 1150 3584 1784 3584 
Q 2172 3584 2448 3432 
Q 2725 3281 2906 2969 
z
M 947 1747 
Q 947 1113 1208 752 
Q 1469 391 1925 391 
Q 2381 391 2643 752 
Q 2906 1113 2906 1747 
Q 2906 2381 2643 2742 
Q 2381 3103 1925 3103 
Q 1469 3103 1208 2742 
Q 947 2381 947 1747 
z
" transform="scale(0.015625)"/>
       <path id="DejaVuSans-65" d="M 3597 1894 
L 3597 1613 
L 953 1613 
Q 991 1019 1311 708 
Q 1631 397 2203 397 
Q 2534 397 2845 478 
Q 3156 559 3463 722 
L 3463 178 
Q 3153 47 2828 -22 
Q 2503 -91 2169 -91 
Q 1331 -91 842 396 
Q 353 884 353 1716 
Q 353 2575 817 3079 
Q 1281 3584 2069 3584 
Q 2775 3584 3186 3129 
Q 3597 2675 3597 1894 
z
M 3022 2063 
Q 3016 2534 2758 2815 
Q 2500 3097 2075 3097 
Q 1594 3097 1305 2825 
Q 1016 2553 972 2059 
L 3022 2063 
z
" transform="scale(0.015625)"/>
      </defs>
      <use xlink:href="#DejaVuSans-43"/>
      <use xlink:href="#DejaVuSans-72" x="69.824219"/>
      <use xlink:href="#DejaVuSans-61" x="110.9375"/>
      <use xlink:href="#DejaVuSans-6e" x="172.216797"/>
      <use xlink:href="#DejaVuSans-69" x="235.595703"/>
      <use xlink:href="#DejaVuSans-6f" x="263.378906"/>
      <use xlink:href="#DejaVuSans-74" x="324.560547"/>
      <use xlink:href="#DejaVuSans-6f" x="363.769531"/>
      <use xlink:href="#DejaVuSans-6d" x="424.951172"/>
      <use xlink:href="#DejaVuSans-79" x="522.363281"/>
      <use xlink:href="#DejaVuSans-20" x="581.542969"/>
      <use xlink:href="#DejaVuSans-64" x="613.330078"/>
      <use xlink:href="#DejaVuSans-69" x="676.806641"/>
      <use xlink:href="#DejaVuSans-61" x="704.589844"/>
      <use xlink:href="#DejaVuSans-6d" x="765.869141"/>
      <use xlink:href="#DejaVuSans-65" x="863.28125"/>
      <use xlink:href="#DejaVuSans-74" x="924.804688"/>
      <use xlink:href="#DejaVuSans-65" x="964.013672"/>
      <use xlink:href="#DejaVuSans-72" x="1025.537109"/>
     </g>
    </g>
   </g>
   <g id="patch_3">
    <path d="M 62.478125 228.96 
L 62.478125 7.2 
" style="fill: none; stroke: #000000; stroke-width: 0.8; stroke-linejoin: miter; stroke-linecap: square"/>
   </g>
   <g id="patch_4">
    <path d="M 453.078125 228.96 
L 453.078125 7.2 
" style="fill: none; stroke: #000000; stroke-width: 0.8; stroke-linejoin: miter; stroke-linecap: square"/>
   </g>
   <g id="patch_5">
    <path d="M 62.478125 228.96 
L 453.078125 228.96 
" style="fill: none; stroke: #000000; stroke-width: 0.8; stroke-linejoin: miter; stroke-linecap: square"/>
   </g>
   <g id="patch_6">
    <path d="M 62.478125 7.2 
L 453.078125 7.2 
" style="fill: none; stroke: #000000; stroke-width: 0.8; stroke-linejoin: miter; stroke-linecap: square"/>
   </g>
   <g id="legend_1">
    <g id="PathCollection_3">
     <g>
      <use xlink:href="#m917eb0b9fb" x="257.003125" y="21.173437" style="fill: #66c2a5; stroke: #66c2a5"/>
     </g>
    </g>
    <g id="text_10">
     <!-- Adult -->
     <g transform="translate(275.003125 23.798437) scale(0.1 -0.1)">
      <defs>
       <path id="DejaVuSans-41" d="M 2188 4044 
L 1331 1722 
L 3047 1722 
L 2188 4044 
z
M 1831 4666 
L 2547 4666 
L 4325 0 
L 3669 0 
L 3244 1197 
L 1141 1197 
L 716 0 
L 50 0 
L 1831 4666 
z
" transform="scale(0.015625)"/>
       <path id="DejaVuSans-75" d="M 544 1381 
L 544 3500 
L 1119 3500 
L 1119 1403 
Q 1119 906 1312 657 
Q 1506 409 1894 409 
Q 2359 409 2629 706 
Q 2900 1003 2900 1516 
L 2900 3500 
L 3475 3500 
L 3475 0 
L 2900 0 
L 2900 538 
Q 2691 219 2414 64 
Q 2138 -91 1772 -91 
Q 1169 -91 856 284 
Q 544 659 544 1381 
z
M 1991 3584 
L 1991 3584 
z
" transform="scale(0.015625)"/>
       <path id="DejaVuSans-6c" d="M 603 4863 
L 1178 4863 
L 1178 0 
L 603 0 
L 603 4863 
z
" transform="scale(0.015625)"/>
      </defs>
      <use xlink:href="#DejaVuSans-41"/>
      <use xlink:href="#DejaVuSans-64" x="66.658203"/>
      <use xlink:href="#DejaVuSans-75" x="130.134766"/>
      <use xlink:href="#DejaVuSans-6c" x="193.513672"/>
      <use xlink:href="#DejaVuSans-74" x="221.296875"/>
     </g>
    </g>
    <g id="PathCollection_4">
     <g>
      <use xlink:href="#m49e75c9e22" x="331.053125" y="21.173437" style="fill: #fc8d62; stroke: #fc8d62"/>
     </g>
    </g>
    <g id="text_11">
     <!-- Old -->
     <g transform="translate(349.053125 23.798437) scale(0.1 -0.1)">
      <defs>
       <path id="DejaVuSans-4f" d="M 2522 4238 
Q 1834 4238 1429 3725 
Q 1025 3213 1025 2328 
Q 1025 1447 1429 934 
Q 1834 422 2522 422 
Q 3209 422 3611 934 
Q 4013 1447 4013 2328 
Q 4013 3213 3611 3725 
Q 3209 4238 2522 4238 
z
M 2522 4750 
Q 3503 4750 4090 4092 
Q 4678 3434 4678 2328 
Q 4678 1225 4090 567 
Q 3503 -91 2522 -91 
Q 1538 -91 948 565 
Q 359 1222 359 2328 
Q 359 3434 948 4092 
Q 1538 4750 2522 4750 
z
" transform="scale(0.015625)"/>
      </defs>
      <use xlink:href="#DejaVuSans-4f"/>
      <use xlink:href="#DejaVuSans-6c" x="78.710938"/>
      <use xlink:href="#DejaVuSans-64" x="106.494141"/>
     </g>
    </g>
    <g id="line2d_9">
     <path d="M 386.051563 20.298437 
L 406.051563 20.298437 
" style="fill: none; stroke: #dcdcdc; stroke-width: 1.5"/>
    </g>
    <g id="text_12">
     <!-- Model -->
     <g transform="translate(414.051563 23.798437) scale(0.1 -0.1)">
      <defs>
       <path id="DejaVuSans-4d" d="M 628 4666 
L 1569 4666 
L 2759 1491 
L 3956 4666 
L 4897 4666 
L 4897 0 
L 4281 0 
L 4281 4097 
L 3078 897 
L 2444 897 
L 1241 4097 
L 1241 0 
L 628 0 
L 628 4666 
z
" transform="scale(0.015625)"/>
      </defs>
      <use xlink:href="#DejaVuSans-4d"/>
      <use xlink:href="#DejaVuSans-6f" x="86.279297"/>
      <use xlink:href="#DejaVuSans-64" x="147.460938"/>
      <use xlink:href="#DejaVuSans-65" x="210.9375"/>
      <use xlink:href="#DejaVuSans-6c" x="272.460938"/>
     </g>
    </g>
   </g>
  </g>
 </g>
 <defs>
  <clipPath id="pc0d3b4f21b">
   <rect x="62.478125" y="7.2" width="390.6" height="221.76"/>
  </clipPath>
 </defs>
</svg>
