<?xml version="1.0" encoding="utf-8" standalone="no"?>
<!DOCTYPE svg PUBLIC "-//W3C//DTD SVG 1.1//EN"
  "http://www.w3.org/Graphics/SVG/1.1/DTD/svg11.dtd">
<svg xmlns:xlink="http://www.w3.org/1999/xlink" width="542.717188pt" height="321.95625pt" viewBox="0 0 542.717188 321.95625" xmlns="http://www.w3.org/2000/svg" version="1.1">
 <metadata>
  <rdf:RDF xmlns:dc="http://purl.org/dc/elements/1.1/" xmlns:cc="http://creativecommons.org/ns#" xmlns:rdf="http://www.w3.org/1999/02/22-rdf-syntax-ns#">
   <cc:Work>
    <dc:type rdf:resource="http://purl.org/dc/dcmitype/StillImage"/>
    <dc:date>2025-03-14T10:36:36.268061</dc:date>
    <dc:format>image/svg+xml</dc:format>
    <dc:creator>
     <cc:Agent>
      <dc:title>Matplotlib v3.9.2, https://matplotlib.org/</dc:title>
     </cc:Agent>
    </dc:creator>
   </cc:Work>
  </rdf:RDF>
 </metadata>
 <defs>
  <style type="text/css">*{stroke-linejoin: round; stroke-linecap: butt}</style>
 </defs>
 <g id="figure_1">
  <g id="patch_1">
   <path d="M 0 321.95625 
L 542.717188 321.95625 
L 542.717188 0 
L 0 0 
z
" style="fill: #ffffff"/>
  </g>
  <g id="axes_1">
   <g id="patch_2">
    <path d="M 200.717188 284.4 
L 535.517188 284.4 
L 535.517188 7.2 
L 200.717188 7.2 
z
" style="fill: #ffffff"/>
   </g>
   <g id="matplotlib.axis_1">
    <g id="xtick_1">
     <g id="line2d_1">
      <defs>
       <path id="m9db4e303df" d="M 0 0 
L 0 3.5 
" style="stroke: #000000; stroke-width: 0.8"/>
      </defs>
      <g>
       <use xlink:href="#m9db4e303df" x="212.582907" y="284.4" style="stroke: #000000; stroke-width: 0.8"/>
      </g>
     </g>
     <g id="text_1">
      <!-- −0.4 -->
      <g transform="translate(200.441501 298.998438) scale(0.1 -0.1)">
       <defs>
        <path id="DejaVuSans-2212" d="M 678 2272 
L 4684 2272 
L 4684 1741 
L 678 1741 
L 678 2272 
z
" transform="scale(0.015625)"/>
        <path id="DejaVuSans-30" d="M 2034 4250 
Q 1547 4250 1301 3770 
Q 1056 3291 1056 2328 
Q 1056 1369 1301 889 
Q 1547 409 2034 409 
Q 2525 409 2770 889 
Q 3016 1369 3016 2328 
Q 3016 3291 2770 3770 
Q 2525 4250 2034 4250 
z
M 2034 4750 
Q 2819 4750 3233 4129 
Q 3647 3509 3647 2328 
Q 3647 1150 3233 529 
Q 2819 -91 2034 -91 
Q 1250 -91 836 529 
Q 422 1150 422 2328 
Q 422 3509 836 4129 
Q 1250 4750 2034 4750 
z
" transform="scale(0.015625)"/>
        <path id="DejaVuSans-2e" d="M 684 794 
L 1344 794 
L 1344 0 
L 684 0 
L 684 794 
z
" transform="scale(0.015625)"/>
        <path id="DejaVuSans-34" d="M 2419 4116 
L 825 1625 
L 2419 1625 
L 2419 4116 
z
M 2253 4666 
L 3047 4666 
L 3047 1625 
L 3713 1625 
L 3713 1100 
L 3047 1100 
L 3047 0 
L 2419 0 
L 2419 1100 
L 313 1100 
L 313 1709 
L 2253 4666 
z
" transform="scale(0.015625)"/>
       </defs>
       <use xlink:href="#DejaVuSans-2212"/>
       <use xlink:href="#DejaVuSans-30" x="83.789062"/>
       <use xlink:href="#DejaVuSans-2e" x="147.412109"/>
       <use xlink:href="#DejaVuSans-34" x="179.199219"/>
      </g>
     </g>
    </g>
    <g id="xtick_2">
     <g id="line2d_2">
      <g>
       <use xlink:href="#m9db4e303df" x="251.466477" y="284.4" style="stroke: #000000; stroke-width: 0.8"/>
      </g>
     </g>
     <g id="text_2">
      <!-- −0.3 -->
      <g transform="translate(239.325071 298.998438) scale(0.1 -0.1)">
       <defs>
        <path id="DejaVuSans-33" d="M 2597 2516 
Q 3050 2419 3304 2112 
Q 3559 1806 3559 1356 
Q 3559 666 3084 287 
Q 2609 -91 1734 -91 
Q 1441 -91 1130 -33 
Q 819 25 488 141 
L 488 750 
Q 750 597 1062 519 
Q 1375 441 1716 441 
Q 2309 441 2620 675 
Q 2931 909 2931 1356 
Q 2931 1769 2642 2001 
Q 2353 2234 1838 2234 
L 1294 2234 
L 1294 2753 
L 1863 2753 
Q 2328 2753 2575 2939 
Q 2822 3125 2822 3475 
Q 2822 3834 2567 4026 
Q 2313 4219 1838 4219 
Q 1578 4219 1281 4162 
Q 984 4106 628 3988 
L 628 4550 
Q 988 4650 1302 4700 
Q 1616 4750 1894 4750 
Q 2613 4750 3031 4423 
Q 3450 4097 3450 3541 
Q 3450 3153 3228 2886 
Q 3006 2619 2597 2516 
z
" transform="scale(0.015625)"/>
       </defs>
       <use xlink:href="#DejaVuSans-2212"/>
       <use xlink:href="#DejaVuSans-30" x="83.789062"/>
       <use xlink:href="#DejaVuSans-2e" x="147.412109"/>
       <use xlink:href="#DejaVuSans-33" x="179.199219"/>
      </g>
     </g>
    </g>
    <g id="xtick_3">
     <g id="line2d_3">
      <g>
       <use xlink:href="#m9db4e303df" x="290.350047" y="284.4" style="stroke: #000000; stroke-width: 0.8"/>
      </g>
     </g>
     <g id="text_3">
      <!-- −0.2 -->
      <g transform="translate(278.208641 298.998438) scale(0.1 -0.1)">
       <defs>
        <path id="DejaVuSans-32" d="M 1228 531 
L 3431 531 
L 3431 0 
L 469 0 
L 469 531 
Q 828 903 1448 1529 
Q 2069 2156 2228 2338 
Q 2531 2678 2651 2914 
Q 2772 3150 2772 3378 
Q 2772 3750 2511 3984 
Q 2250 4219 1831 4219 
Q 1534 4219 1204 4116 
Q 875 4013 500 3803 
L 500 4441 
Q 881 4594 1212 4672 
Q 1544 4750 1819 4750 
Q 2544 4750 2975 4387 
Q 3406 4025 3406 3419 
Q 3406 3131 3298 2873 
Q 3191 2616 2906 2266 
Q 2828 2175 2409 1742 
Q 1991 1309 1228 531 
z
" transform="scale(0.015625)"/>
       </defs>
       <use xlink:href="#DejaVuSans-2212"/>
       <use xlink:href="#DejaVuSans-30" x="83.789062"/>
       <use xlink:href="#DejaVuSans-2e" x="147.412109"/>
       <use xlink:href="#DejaVuSans-32" x="179.199219"/>
      </g>
     </g>
    </g>
    <g id="xtick_4">
     <g id="line2d_4">
      <g>
       <use xlink:href="#m9db4e303df" x="329.233617" y="284.4" style="stroke: #000000; stroke-width: 0.8"/>
      </g>
     </g>
     <g id="text_4">
      <!-- −0.1 -->
      <g transform="translate(317.092211 298.998438) scale(0.1 -0.1)">
       <defs>
        <path id="DejaVuSans-31" d="M 794 531 
L 1825 531 
L 1825 4091 
L 703 3866 
L 703 4441 
L 1819 4666 
L 2450 4666 
L 2450 531 
L 3481 531 
L 3481 0 
L 794 0 
L 794 531 
z
" transform="scale(0.015625)"/>
       </defs>
       <use xlink:href="#DejaVuSans-2212"/>
       <use xlink:href="#DejaVuSans-30" x="83.789062"/>
       <use xlink:href="#DejaVuSans-2e" x="147.412109"/>
       <use xlink:href="#DejaVuSans-31" x="179.199219"/>
      </g>
     </g>
    </g>
    <g id="xtick_5">
     <g id="line2d_5">
      <g>
       <use xlink:href="#m9db4e303df" x="368.117188" y="284.4" style="stroke: #000000; stroke-width: 0.8"/>
      </g>
     </g>
     <g id="text_5">
      <!-- 0.0 -->
      <g transform="translate(360.165625 298.998438) scale(0.1 -0.1)">
       <use xlink:href="#DejaVuSans-30"/>
       <use xlink:href="#DejaVuSans-2e" x="63.623047"/>
       <use xlink:href="#DejaVuSans-30" x="95.410156"/>
      </g>
     </g>
    </g>
    <g id="xtick_6">
     <g id="line2d_6">
      <g>
       <use xlink:href="#m9db4e303df" x="407.000758" y="284.4" style="stroke: #000000; stroke-width: 0.8"/>
      </g>
     </g>
     <g id="text_6">
      <!-- 0.1 -->
      <g transform="translate(399.049195 298.998438) scale(0.1 -0.1)">
       <use xlink:href="#DejaVuSans-30"/>
       <use xlink:href="#DejaVuSans-2e" x="63.623047"/>
       <use xlink:href="#DejaVuSans-31" x="95.410156"/>
      </g>
     </g>
    </g>
    <g id="xtick_7">
     <g id="line2d_7">
      <g>
       <use xlink:href="#m9db4e303df" x="445.884328" y="284.4" style="stroke: #000000; stroke-width: 0.8"/>
      </g>
     </g>
     <g id="text_7">
      <!-- 0.2 -->
      <g transform="translate(437.932765 298.998438) scale(0.1 -0.1)">
       <use xlink:href="#DejaVuSans-30"/>
       <use xlink:href="#DejaVuSans-2e" x="63.623047"/>
       <use xlink:href="#DejaVuSans-32" x="95.410156"/>
      </g>
     </g>
    </g>
    <g id="xtick_8">
     <g id="line2d_8">
      <g>
       <use xlink:href="#m9db4e303df" x="484.767898" y="284.4" style="stroke: #000000; stroke-width: 0.8"/>
      </g>
     </g>
     <g id="text_8">
      <!-- 0.3 -->
      <g transform="translate(476.816335 298.998438) scale(0.1 -0.1)">
       <use xlink:href="#DejaVuSans-30"/>
       <use xlink:href="#DejaVuSans-2e" x="63.623047"/>
       <use xlink:href="#DejaVuSans-33" x="95.410156"/>
      </g>
     </g>
    </g>
    <g id="xtick_9">
     <g id="line2d_9">
      <g>
       <use xlink:href="#m9db4e303df" x="523.651468" y="284.4" style="stroke: #000000; stroke-width: 0.8"/>
      </g>
     </g>
     <g id="text_9">
      <!-- 0.4 -->
      <g transform="translate(515.699905 298.998438) scale(0.1 -0.1)">
       <use xlink:href="#DejaVuSans-30"/>
       <use xlink:href="#DejaVuSans-2e" x="63.623047"/>
       <use xlink:href="#DejaVuSans-34" x="95.410156"/>
      </g>
     </g>
    </g>
    <g id="text_10">
     <!-- Test statistic -->
     <g transform="translate(337.001563 312.676562) scale(0.1 -0.1)">
      <defs>
       <path id="DejaVuSans-54" d="M -19 4666 
L 3928 4666 
L 3928 4134 
L 2272 4134 
L 2272 0 
L 1638 0 
L 1638 4134 
L -19 4134 
L -19 4666 
z
" transform="scale(0.015625)"/>
       <path id="DejaVuSans-65" d="M 3597 1894 
L 3597 1613 
L 953 1613 
Q 991 1019 1311 708 
Q 1631 397 2203 397 
Q 2534 397 2845 478 
Q 3156 559 3463 722 
L 3463 178 
Q 3153 47 2828 -22 
Q 2503 -91 2169 -91 
Q 1331 -91 842 396 
Q 353 884 353 1716 
Q 353 2575 817 3079 
Q 1281 3584 2069 3584 
Q 2775 3584 3186 3129 
Q 3597 2675 3597 1894 
z
M 3022 2063 
Q 3016 2534 2758 2815 
Q 2500 3097 2075 3097 
Q 1594 3097 1305 2825 
Q 1016 2553 972 2059 
L 3022 2063 
z
" transform="scale(0.015625)"/>
       <path id="DejaVuSans-73" d="M 2834 3397 
L 2834 2853 
Q 2591 2978 2328 3040 
Q 2066 3103 1784 3103 
Q 1356 3103 1142 2972 
Q 928 2841 928 2578 
Q 928 2378 1081 2264 
Q 1234 2150 1697 2047 
L 1894 2003 
Q 2506 1872 2764 1633 
Q 3022 1394 3022 966 
Q 3022 478 2636 193 
Q 2250 -91 1575 -91 
Q 1294 -91 989 -36 
Q 684 19 347 128 
L 347 722 
Q 666 556 975 473 
Q 1284 391 1588 391 
Q 1994 391 2212 530 
Q 2431 669 2431 922 
Q 2431 1156 2273 1281 
Q 2116 1406 1581 1522 
L 1381 1569 
Q 847 1681 609 1914 
Q 372 2147 372 2553 
Q 372 3047 722 3315 
Q 1072 3584 1716 3584 
Q 2034 3584 2315 3537 
Q 2597 3491 2834 3397 
z
" transform="scale(0.015625)"/>
       <path id="DejaVuSans-74" d="M 1172 4494 
L 1172 3500 
L 2356 3500 
L 2356 3053 
L 1172 3053 
L 1172 1153 
Q 1172 725 1289 603 
Q 1406 481 1766 481 
L 2356 481 
L 2356 0 
L 1766 0 
Q 1100 0 847 248 
Q 594 497 594 1153 
L 594 3053 
L 172 3053 
L 172 3500 
L 594 3500 
L 594 4494 
L 1172 4494 
z
" transform="scale(0.015625)"/>
       <path id="DejaVuSans-20" transform="scale(0.015625)"/>
       <path id="DejaVuSans-61" d="M 2194 1759 
Q 1497 1759 1228 1600 
Q 959 1441 959 1056 
Q 959 750 1161 570 
Q 1363 391 1709 391 
Q 2188 391 2477 730 
Q 2766 1069 2766 1631 
L 2766 1759 
L 2194 1759 
z
M 3341 1997 
L 3341 0 
L 2766 0 
L 2766 531 
Q 2569 213 2275 61 
Q 1981 -91 1556 -91 
Q 1019 -91 701 211 
Q 384 513 384 1019 
Q 384 1609 779 1909 
Q 1175 2209 1959 2209 
L 2766 2209 
L 2766 2266 
Q 2766 2663 2505 2880 
Q 2244 3097 1772 3097 
Q 1472 3097 1187 3025 
Q 903 2953 641 2809 
L 641 3341 
Q 956 3463 1253 3523 
Q 1550 3584 1831 3584 
Q 2591 3584 2966 3190 
Q 3341 2797 3341 1997 
z
" transform="scale(0.015625)"/>
       <path id="DejaVuSans-69" d="M 603 3500 
L 1178 3500 
L 1178 0 
L 603 0 
L 603 3500 
z
M 603 4863 
L 1178 4863 
L 1178 4134 
L 603 4134 
L 603 4863 
z
" transform="scale(0.015625)"/>
       <path id="DejaVuSans-63" d="M 3122 3366 
L 3122 2828 
Q 2878 2963 2633 3030 
Q 2388 3097 2138 3097 
Q 1578 3097 1268 2742 
Q 959 2388 959 1747 
Q 959 1106 1268 751 
Q 1578 397 2138 397 
Q 2388 397 2633 464 
Q 2878 531 3122 666 
L 3122 134 
Q 2881 22 2623 -34 
Q 2366 -91 2075 -91 
Q 1284 -91 818 406 
Q 353 903 353 1747 
Q 353 2603 823 3093 
Q 1294 3584 2113 3584 
Q 2378 3584 2631 3529 
Q 2884 3475 3122 3366 
z
" transform="scale(0.015625)"/>
      </defs>
      <use xlink:href="#DejaVuSans-54"/>
      <use xlink:href="#DejaVuSans-65" x="44.083984"/>
      <use xlink:href="#DejaVuSans-73" x="105.607422"/>
      <use xlink:href="#DejaVuSans-74" x="157.707031"/>
      <use xlink:href="#DejaVuSans-20" x="196.916016"/>
      <use xlink:href="#DejaVuSans-73" x="228.703125"/>
      <use xlink:href="#DejaVuSans-74" x="280.802734"/>
      <use xlink:href="#DejaVuSans-61" x="320.011719"/>
      <use xlink:href="#DejaVuSans-74" x="381.291016"/>
      <use xlink:href="#DejaVuSans-69" x="420.5"/>
      <use xlink:href="#DejaVuSans-73" x="448.283203"/>
      <use xlink:href="#DejaVuSans-74" x="500.382812"/>
      <use xlink:href="#DejaVuSans-69" x="539.591797"/>
      <use xlink:href="#DejaVuSans-63" x="567.375"/>
     </g>
    </g>
   </g>
   <g id="matplotlib.axis_2">
    <g id="ytick_1"/>
    <g id="ytick_2">
     <g id="text_11">
      <!-- Interaction effect Adult:Baseline -->
      <g transform="translate(32.525 248.599219) scale(0.1 -0.1)">
       <defs>
        <path id="DejaVuSans-49" d="M 628 4666 
L 1259 4666 
L 1259 0 
L 628 0 
L 628 4666 
z
" transform="scale(0.015625)"/>
        <path id="DejaVuSans-6e" d="M 3513 2113 
L 3513 0 
L 2938 0 
L 2938 2094 
Q 2938 2591 2744 2837 
Q 2550 3084 2163 3084 
Q 1697 3084 1428 2787 
Q 1159 2491 1159 1978 
L 1159 0 
L 581 0 
L 581 3500 
L 1159 3500 
L 1159 2956 
Q 1366 3272 1645 3428 
Q 1925 3584 2291 3584 
Q 2894 3584 3203 3211 
Q 3513 2838 3513 2113 
z
" transform="scale(0.015625)"/>
        <path id="DejaVuSans-72" d="M 2631 2963 
Q 2534 3019 2420 3045 
Q 2306 3072 2169 3072 
Q 1681 3072 1420 2755 
Q 1159 2438 1159 1844 
L 1159 0 
L 581 0 
L 581 3500 
L 1159 3500 
L 1159 2956 
Q 1341 3275 1631 3429 
Q 1922 3584 2338 3584 
Q 2397 3584 2469 3576 
Q 2541 3569 2628 3553 
L 2631 2963 
z
" transform="scale(0.015625)"/>
        <path id="DejaVuSans-6f" d="M 1959 3097 
Q 1497 3097 1228 2736 
Q 959 2375 959 1747 
Q 959 1119 1226 758 
Q 1494 397 1959 397 
Q 2419 397 2687 759 
Q 2956 1122 2956 1747 
Q 2956 2369 2687 2733 
Q 2419 3097 1959 3097 
z
M 1959 3584 
Q 2709 3584 3137 3096 
Q 3566 2609 3566 1747 
Q 3566 888 3137 398 
Q 2709 -91 1959 -91 
Q 1206 -91 779 398 
Q 353 888 353 1747 
Q 353 2609 779 3096 
Q 1206 3584 1959 3584 
z
" transform="scale(0.015625)"/>
        <path id="DejaVuSans-66" d="M 2375 4863 
L 2375 4384 
L 1825 4384 
Q 1516 4384 1395 4259 
Q 1275 4134 1275 3809 
L 1275 3500 
L 2222 3500 
L 2222 3053 
L 1275 3053 
L 1275 0 
L 697 0 
L 697 3053 
L 147 3053 
L 147 3500 
L 697 3500 
L 697 3744 
Q 697 4328 969 4595 
Q 1241 4863 1831 4863 
L 2375 4863 
z
" transform="scale(0.015625)"/>
        <path id="DejaVuSans-41" d="M 2188 4044 
L 1331 1722 
L 3047 1722 
L 2188 4044 
z
M 1831 4666 
L 2547 4666 
L 4325 0 
L 3669 0 
L 3244 1197 
L 1141 1197 
L 716 0 
L 50 0 
L 1831 4666 
z
" transform="scale(0.015625)"/>
        <path id="DejaVuSans-64" d="M 2906 2969 
L 2906 4863 
L 3481 4863 
L 3481 0 
L 2906 0 
L 2906 525 
Q 2725 213 2448 61 
Q 2172 -91 1784 -91 
Q 1150 -91 751 415 
Q 353 922 353 1747 
Q 353 2572 751 3078 
Q 1150 3584 1784 3584 
Q 2172 3584 2448 3432 
Q 2725 3281 2906 2969 
z
M 947 1747 
Q 947 1113 1208 752 
Q 1469 391 1925 391 
Q 2381 391 2643 752 
Q 2906 1113 2906 1747 
Q 2906 2381 2643 2742 
Q 2381 3103 1925 3103 
Q 1469 3103 1208 2742 
Q 947 2381 947 1747 
z
" transform="scale(0.015625)"/>
        <path id="DejaVuSans-75" d="M 544 1381 
L 544 3500 
L 1119 3500 
L 1119 1403 
Q 1119 906 1312 657 
Q 1506 409 1894 409 
Q 2359 409 2629 706 
Q 2900 1003 2900 1516 
L 2900 3500 
L 3475 3500 
L 3475 0 
L 2900 0 
L 2900 538 
Q 2691 219 2414 64 
Q 2138 -91 1772 -91 
Q 1169 -91 856 284 
Q 544 659 544 1381 
z
M 1991 3584 
L 1991 3584 
z
" transform="scale(0.015625)"/>
        <path id="DejaVuSans-6c" d="M 603 4863 
L 1178 4863 
L 1178 0 
L 603 0 
L 603 4863 
z
" transform="scale(0.015625)"/>
        <path id="DejaVuSans-3a" d="M 750 794 
L 1409 794 
L 1409 0 
L 750 0 
L 750 794 
z
M 750 3309 
L 1409 3309 
L 1409 2516 
L 750 2516 
L 750 3309 
z
" transform="scale(0.015625)"/>
        <path id="DejaVuSans-42" d="M 1259 2228 
L 1259 519 
L 2272 519 
Q 2781 519 3026 730 
Q 3272 941 3272 1375 
Q 3272 1813 3026 2020 
Q 2781 2228 2272 2228 
L 1259 2228 
z
M 1259 4147 
L 1259 2741 
L 2194 2741 
Q 2656 2741 2882 2914 
Q 3109 3088 3109 3444 
Q 3109 3797 2882 3972 
Q 2656 4147 2194 4147 
L 1259 4147 
z
M 628 4666 
L 2241 4666 
Q 2963 4666 3353 4366 
Q 3744 4066 3744 3513 
Q 3744 3084 3544 2831 
Q 3344 2578 2956 2516 
Q 3422 2416 3680 2098 
Q 3938 1781 3938 1306 
Q 3938 681 3513 340 
Q 3088 0 2303 0 
L 628 0 
L 628 4666 
z
" transform="scale(0.015625)"/>
       </defs>
       <use xlink:href="#DejaVuSans-49"/>
       <use xlink:href="#DejaVuSans-6e" x="29.492188"/>
       <use xlink:href="#DejaVuSans-74" x="92.871094"/>
       <use xlink:href="#DejaVuSans-65" x="132.080078"/>
       <use xlink:href="#DejaVuSans-72" x="193.603516"/>
       <use xlink:href="#DejaVuSans-61" x="234.716797"/>
       <use xlink:href="#DejaVuSans-63" x="295.996094"/>
       <use xlink:href="#DejaVuSans-74" x="350.976562"/>
       <use xlink:href="#DejaVuSans-69" x="390.185547"/>
       <use xlink:href="#DejaVuSans-6f" x="417.96875"/>
       <use xlink:href="#DejaVuSans-6e" x="479.150391"/>
       <use xlink:href="#DejaVuSans-20" x="542.529297"/>
       <use xlink:href="#DejaVuSans-65" x="574.316406"/>
       <use xlink:href="#DejaVuSans-66" x="635.839844"/>
       <use xlink:href="#DejaVuSans-66" x="671.044922"/>
       <use xlink:href="#DejaVuSans-65" x="706.25"/>
       <use xlink:href="#DejaVuSans-63" x="767.773438"/>
       <use xlink:href="#DejaVuSans-74" x="822.753906"/>
       <use xlink:href="#DejaVuSans-20" x="861.962891"/>
       <use xlink:href="#DejaVuSans-41" x="893.75"/>
       <use xlink:href="#DejaVuSans-64" x="960.408203"/>
       <use xlink:href="#DejaVuSans-75" x="1023.884766"/>
       <use xlink:href="#DejaVuSans-6c" x="1087.263672"/>
       <use xlink:href="#DejaVuSans-74" x="1115.046875"/>
       <use xlink:href="#DejaVuSans-3a" x="1154.255859"/>
       <use xlink:href="#DejaVuSans-42" x="1187.947266"/>
       <use xlink:href="#DejaVuSans-61" x="1256.550781"/>
       <use xlink:href="#DejaVuSans-73" x="1317.830078"/>
       <use xlink:href="#DejaVuSans-65" x="1369.929688"/>
       <use xlink:href="#DejaVuSans-6c" x="1431.453125"/>
       <use xlink:href="#DejaVuSans-69" x="1459.236328"/>
       <use xlink:href="#DejaVuSans-6e" x="1487.019531"/>
       <use xlink:href="#DejaVuSans-65" x="1550.398438"/>
      </g>
     </g>
    </g>
    <g id="ytick_3">
     <g id="text_12">
      <!-- Interaction effect Adult:After hyper -->
      <g transform="translate(18.86875 208.999219) scale(0.1 -0.1)">
       <defs>
        <path id="DejaVuSans-68" d="M 3513 2113 
L 3513 0 
L 2938 0 
L 2938 2094 
Q 2938 2591 2744 2837 
Q 2550 3084 2163 3084 
Q 1697 3084 1428 2787 
Q 1159 2491 1159 1978 
L 1159 0 
L 581 0 
L 581 4863 
L 1159 4863 
L 1159 2956 
Q 1366 3272 1645 3428 
Q 1925 3584 2291 3584 
Q 2894 3584 3203 3211 
Q 3513 2838 3513 2113 
z
" transform="scale(0.015625)"/>
        <path id="DejaVuSans-79" d="M 2059 -325 
Q 1816 -950 1584 -1140 
Q 1353 -1331 966 -1331 
L 506 -1331 
L 506 -850 
L 844 -850 
Q 1081 -850 1212 -737 
Q 1344 -625 1503 -206 
L 1606 56 
L 191 3500 
L 800 3500 
L 1894 763 
L 2988 3500 
L 3597 3500 
L 2059 -325 
z
" transform="scale(0.015625)"/>
        <path id="DejaVuSans-70" d="M 1159 525 
L 1159 -1331 
L 581 -1331 
L 581 3500 
L 1159 3500 
L 1159 2969 
Q 1341 3281 1617 3432 
Q 1894 3584 2278 3584 
Q 2916 3584 3314 3078 
Q 3713 2572 3713 1747 
Q 3713 922 3314 415 
Q 2916 -91 2278 -91 
Q 1894 -91 1617 61 
Q 1341 213 1159 525 
z
M 3116 1747 
Q 3116 2381 2855 2742 
Q 2594 3103 2138 3103 
Q 1681 3103 1420 2742 
Q 1159 2381 1159 1747 
Q 1159 1113 1420 752 
Q 1681 391 2138 391 
Q 2594 391 2855 752 
Q 3116 1113 3116 1747 
z
" transform="scale(0.015625)"/>
       </defs>
       <use xlink:href="#DejaVuSans-49"/>
       <use xlink:href="#DejaVuSans-6e" x="29.492188"/>
       <use xlink:href="#DejaVuSans-74" x="92.871094"/>
       <use xlink:href="#DejaVuSans-65" x="132.080078"/>
       <use xlink:href="#DejaVuSans-72" x="193.603516"/>
       <use xlink:href="#DejaVuSans-61" x="234.716797"/>
       <use xlink:href="#DejaVuSans-63" x="295.996094"/>
       <use xlink:href="#DejaVuSans-74" x="350.976562"/>
       <use xlink:href="#DejaVuSans-69" x="390.185547"/>
       <use xlink:href="#DejaVuSans-6f" x="417.96875"/>
       <use xlink:href="#DejaVuSans-6e" x="479.150391"/>
       <use xlink:href="#DejaVuSans-20" x="542.529297"/>
       <use xlink:href="#DejaVuSans-65" x="574.316406"/>
       <use xlink:href="#DejaVuSans-66" x="635.839844"/>
       <use xlink:href="#DejaVuSans-66" x="671.044922"/>
       <use xlink:href="#DejaVuSans-65" x="706.25"/>
       <use xlink:href="#DejaVuSans-63" x="767.773438"/>
       <use xlink:href="#DejaVuSans-74" x="822.753906"/>
       <use xlink:href="#DejaVuSans-20" x="861.962891"/>
       <use xlink:href="#DejaVuSans-41" x="893.75"/>
       <use xlink:href="#DejaVuSans-64" x="960.408203"/>
       <use xlink:href="#DejaVuSans-75" x="1023.884766"/>
       <use xlink:href="#DejaVuSans-6c" x="1087.263672"/>
       <use xlink:href="#DejaVuSans-74" x="1115.046875"/>
       <use xlink:href="#DejaVuSans-3a" x="1154.255859"/>
       <use xlink:href="#DejaVuSans-41" x="1187.947266"/>
       <use xlink:href="#DejaVuSans-66" x="1252.730469"/>
       <use xlink:href="#DejaVuSans-74" x="1286.185547"/>
       <use xlink:href="#DejaVuSans-65" x="1325.394531"/>
       <use xlink:href="#DejaVuSans-72" x="1386.917969"/>
       <use xlink:href="#DejaVuSans-20" x="1428.03125"/>
       <use xlink:href="#DejaVuSans-68" x="1459.818359"/>
       <use xlink:href="#DejaVuSans-79" x="1523.197266"/>
       <use xlink:href="#DejaVuSans-70" x="1582.376953"/>
       <use xlink:href="#DejaVuSans-65" x="1645.853516"/>
       <use xlink:href="#DejaVuSans-72" x="1707.376953"/>
      </g>
     </g>
    </g>
    <g id="ytick_4">
     <g id="text_13">
      <!-- Interaction effect Adult:After ablation -->
      <g transform="translate(7.2 169.399219) scale(0.1 -0.1)">
       <defs>
        <path id="DejaVuSans-62" d="M 3116 1747 
Q 3116 2381 2855 2742 
Q 2594 3103 2138 3103 
Q 1681 3103 1420 2742 
Q 1159 2381 1159 1747 
Q 1159 1113 1420 752 
Q 1681 391 2138 391 
Q 2594 391 2855 752 
Q 3116 1113 3116 1747 
z
M 1159 2969 
Q 1341 3281 1617 3432 
Q 1894 3584 2278 3584 
Q 2916 3584 3314 3078 
Q 3713 2572 3713 1747 
Q 3713 922 3314 415 
Q 2916 -91 2278 -91 
Q 1894 -91 1617 61 
Q 1341 213 1159 525 
L 1159 0 
L 581 0 
L 581 4863 
L 1159 4863 
L 1159 2969 
z
" transform="scale(0.015625)"/>
       </defs>
       <use xlink:href="#DejaVuSans-49"/>
       <use xlink:href="#DejaVuSans-6e" x="29.492188"/>
       <use xlink:href="#DejaVuSans-74" x="92.871094"/>
       <use xlink:href="#DejaVuSans-65" x="132.080078"/>
       <use xlink:href="#DejaVuSans-72" x="193.603516"/>
       <use xlink:href="#DejaVuSans-61" x="234.716797"/>
       <use xlink:href="#DejaVuSans-63" x="295.996094"/>
       <use xlink:href="#DejaVuSans-74" x="350.976562"/>
       <use xlink:href="#DejaVuSans-69" x="390.185547"/>
       <use xlink:href="#DejaVuSans-6f" x="417.96875"/>
       <use xlink:href="#DejaVuSans-6e" x="479.150391"/>
       <use xlink:href="#DejaVuSans-20" x="542.529297"/>
       <use xlink:href="#DejaVuSans-65" x="574.316406"/>
       <use xlink:href="#DejaVuSans-66" x="635.839844"/>
       <use xlink:href="#DejaVuSans-66" x="671.044922"/>
       <use xlink:href="#DejaVuSans-65" x="706.25"/>
       <use xlink:href="#DejaVuSans-63" x="767.773438"/>
       <use xlink:href="#DejaVuSans-74" x="822.753906"/>
       <use xlink:href="#DejaVuSans-20" x="861.962891"/>
       <use xlink:href="#DejaVuSans-41" x="893.75"/>
       <use xlink:href="#DejaVuSans-64" x="960.408203"/>
       <use xlink:href="#DejaVuSans-75" x="1023.884766"/>
       <use xlink:href="#DejaVuSans-6c" x="1087.263672"/>
       <use xlink:href="#DejaVuSans-74" x="1115.046875"/>
       <use xlink:href="#DejaVuSans-3a" x="1154.255859"/>
       <use xlink:href="#DejaVuSans-41" x="1187.947266"/>
       <use xlink:href="#DejaVuSans-66" x="1252.730469"/>
       <use xlink:href="#DejaVuSans-74" x="1286.185547"/>
       <use xlink:href="#DejaVuSans-65" x="1325.394531"/>
       <use xlink:href="#DejaVuSans-72" x="1386.917969"/>
       <use xlink:href="#DejaVuSans-20" x="1428.03125"/>
       <use xlink:href="#DejaVuSans-61" x="1459.818359"/>
       <use xlink:href="#DejaVuSans-62" x="1521.097656"/>
       <use xlink:href="#DejaVuSans-6c" x="1584.574219"/>
       <use xlink:href="#DejaVuSans-61" x="1612.357422"/>
       <use xlink:href="#DejaVuSans-74" x="1673.636719"/>
       <use xlink:href="#DejaVuSans-69" x="1712.845703"/>
       <use xlink:href="#DejaVuSans-6f" x="1740.628906"/>
       <use xlink:href="#DejaVuSans-6e" x="1801.810547"/>
      </g>
     </g>
    </g>
    <g id="ytick_5">
     <g id="text_14">
      <!-- Interaction effect Old:Baseline -->
      <g transform="translate(41.576563 129.799219) scale(0.1 -0.1)">
       <defs>
        <path id="DejaVuSans-4f" d="M 2522 4238 
Q 1834 4238 1429 3725 
Q 1025 3213 1025 2328 
Q 1025 1447 1429 934 
Q 1834 422 2522 422 
Q 3209 422 3611 934 
Q 4013 1447 4013 2328 
Q 4013 3213 3611 3725 
Q 3209 4238 2522 4238 
z
M 2522 4750 
Q 3503 4750 4090 4092 
Q 4678 3434 4678 2328 
Q 4678 1225 4090 567 
Q 3503 -91 2522 -91 
Q 1538 -91 948 565 
Q 359 1222 359 2328 
Q 359 3434 948 4092 
Q 1538 4750 2522 4750 
z
" transform="scale(0.015625)"/>
       </defs>
       <use xlink:href="#DejaVuSans-49"/>
       <use xlink:href="#DejaVuSans-6e" x="29.492188"/>
       <use xlink:href="#DejaVuSans-74" x="92.871094"/>
       <use xlink:href="#DejaVuSans-65" x="132.080078"/>
       <use xlink:href="#DejaVuSans-72" x="193.603516"/>
       <use xlink:href="#DejaVuSans-61" x="234.716797"/>
       <use xlink:href="#DejaVuSans-63" x="295.996094"/>
       <use xlink:href="#DejaVuSans-74" x="350.976562"/>
       <use xlink:href="#DejaVuSans-69" x="390.185547"/>
       <use xlink:href="#DejaVuSans-6f" x="417.96875"/>
       <use xlink:href="#DejaVuSans-6e" x="479.150391"/>
       <use xlink:href="#DejaVuSans-20" x="542.529297"/>
       <use xlink:href="#DejaVuSans-65" x="574.316406"/>
       <use xlink:href="#DejaVuSans-66" x="635.839844"/>
       <use xlink:href="#DejaVuSans-66" x="671.044922"/>
       <use xlink:href="#DejaVuSans-65" x="706.25"/>
       <use xlink:href="#DejaVuSans-63" x="767.773438"/>
       <use xlink:href="#DejaVuSans-74" x="822.753906"/>
       <use xlink:href="#DejaVuSans-20" x="861.962891"/>
       <use xlink:href="#DejaVuSans-4f" x="893.75"/>
       <use xlink:href="#DejaVuSans-6c" x="972.460938"/>
       <use xlink:href="#DejaVuSans-64" x="1000.244141"/>
       <use xlink:href="#DejaVuSans-3a" x="1063.720703"/>
       <use xlink:href="#DejaVuSans-42" x="1097.412109"/>
       <use xlink:href="#DejaVuSans-61" x="1166.015625"/>
       <use xlink:href="#DejaVuSans-73" x="1227.294922"/>
       <use xlink:href="#DejaVuSans-65" x="1279.394531"/>
       <use xlink:href="#DejaVuSans-6c" x="1340.917969"/>
       <use xlink:href="#DejaVuSans-69" x="1368.701172"/>
       <use xlink:href="#DejaVuSans-6e" x="1396.484375"/>
       <use xlink:href="#DejaVuSans-65" x="1459.863281"/>
      </g>
     </g>
    </g>
    <g id="ytick_6">
     <g id="text_15">
      <!-- Interaction effect Old:After hyper -->
      <g transform="translate(27.920313 90.199219) scale(0.1 -0.1)">
       <use xlink:href="#DejaVuSans-49"/>
       <use xlink:href="#DejaVuSans-6e" x="29.492188"/>
       <use xlink:href="#DejaVuSans-74" x="92.871094"/>
       <use xlink:href="#DejaVuSans-65" x="132.080078"/>
       <use xlink:href="#DejaVuSans-72" x="193.603516"/>
       <use xlink:href="#DejaVuSans-61" x="234.716797"/>
       <use xlink:href="#DejaVuSans-63" x="295.996094"/>
       <use xlink:href="#DejaVuSans-74" x="350.976562"/>
       <use xlink:href="#DejaVuSans-69" x="390.185547"/>
       <use xlink:href="#DejaVuSans-6f" x="417.96875"/>
       <use xlink:href="#DejaVuSans-6e" x="479.150391"/>
       <use xlink:href="#DejaVuSans-20" x="542.529297"/>
       <use xlink:href="#DejaVuSans-65" x="574.316406"/>
       <use xlink:href="#DejaVuSans-66" x="635.839844"/>
       <use xlink:href="#DejaVuSans-66" x="671.044922"/>
       <use xlink:href="#DejaVuSans-65" x="706.25"/>
       <use xlink:href="#DejaVuSans-63" x="767.773438"/>
       <use xlink:href="#DejaVuSans-74" x="822.753906"/>
       <use xlink:href="#DejaVuSans-20" x="861.962891"/>
       <use xlink:href="#DejaVuSans-4f" x="893.75"/>
       <use xlink:href="#DejaVuSans-6c" x="972.460938"/>
       <use xlink:href="#DejaVuSans-64" x="1000.244141"/>
       <use xlink:href="#DejaVuSans-3a" x="1063.720703"/>
       <use xlink:href="#DejaVuSans-41" x="1097.412109"/>
       <use xlink:href="#DejaVuSans-66" x="1162.195312"/>
       <use xlink:href="#DejaVuSans-74" x="1195.650391"/>
       <use xlink:href="#DejaVuSans-65" x="1234.859375"/>
       <use xlink:href="#DejaVuSans-72" x="1296.382812"/>
       <use xlink:href="#DejaVuSans-20" x="1337.496094"/>
       <use xlink:href="#DejaVuSans-68" x="1369.283203"/>
       <use xlink:href="#DejaVuSans-79" x="1432.662109"/>
       <use xlink:href="#DejaVuSans-70" x="1491.841797"/>
       <use xlink:href="#DejaVuSans-65" x="1555.318359"/>
       <use xlink:href="#DejaVuSans-72" x="1616.841797"/>
      </g>
     </g>
    </g>
    <g id="ytick_7">
     <g id="text_16">
      <!-- Interaction effect Old:After ablation -->
      <g transform="translate(16.251563 50.599219) scale(0.1 -0.1)">
       <use xlink:href="#DejaVuSans-49"/>
       <use xlink:href="#DejaVuSans-6e" x="29.492188"/>
       <use xlink:href="#DejaVuSans-74" x="92.871094"/>
       <use xlink:href="#DejaVuSans-65" x="132.080078"/>
       <use xlink:href="#DejaVuSans-72" x="193.603516"/>
       <use xlink:href="#DejaVuSans-61" x="234.716797"/>
       <use xlink:href="#DejaVuSans-63" x="295.996094"/>
       <use xlink:href="#DejaVuSans-74" x="350.976562"/>
       <use xlink:href="#DejaVuSans-69" x="390.185547"/>
       <use xlink:href="#DejaVuSans-6f" x="417.96875"/>
       <use xlink:href="#DejaVuSans-6e" x="479.150391"/>
       <use xlink:href="#DejaVuSans-20" x="542.529297"/>
       <use xlink:href="#DejaVuSans-65" x="574.316406"/>
       <use xlink:href="#DejaVuSans-66" x="635.839844"/>
       <use xlink:href="#DejaVuSans-66" x="671.044922"/>
       <use xlink:href="#DejaVuSans-65" x="706.25"/>
       <use xlink:href="#DejaVuSans-63" x="767.773438"/>
       <use xlink:href="#DejaVuSans-74" x="822.753906"/>
       <use xlink:href="#DejaVuSans-20" x="861.962891"/>
       <use xlink:href="#DejaVuSans-4f" x="893.75"/>
       <use xlink:href="#DejaVuSans-6c" x="972.460938"/>
       <use xlink:href="#DejaVuSans-64" x="1000.244141"/>
       <use xlink:href="#DejaVuSans-3a" x="1063.720703"/>
       <use xlink:href="#DejaVuSans-41" x="1097.412109"/>
       <use xlink:href="#DejaVuSans-66" x="1162.195312"/>
       <use xlink:href="#DejaVuSans-74" x="1195.650391"/>
       <use xlink:href="#DejaVuSans-65" x="1234.859375"/>
       <use xlink:href="#DejaVuSans-72" x="1296.382812"/>
       <use xlink:href="#DejaVuSans-20" x="1337.496094"/>
       <use xlink:href="#DejaVuSans-61" x="1369.283203"/>
       <use xlink:href="#DejaVuSans-62" x="1430.5625"/>
       <use xlink:href="#DejaVuSans-6c" x="1494.039062"/>
       <use xlink:href="#DejaVuSans-61" x="1521.822266"/>
       <use xlink:href="#DejaVuSans-74" x="1583.101562"/>
       <use xlink:href="#DejaVuSans-69" x="1622.310547"/>
       <use xlink:href="#DejaVuSans-6f" x="1650.09375"/>
       <use xlink:href="#DejaVuSans-6e" x="1711.275391"/>
      </g>
     </g>
    </g>
    <g id="ytick_8"/>
   </g>
   <g id="LineCollection_1">
    <path d="M 315.58808 244.8 
L 496.633617 244.8 
" clip-path="url(#p0917fd1b9c)" style="fill: none; stroke: #66c2a5; stroke-width: 2"/>
   </g>
   <g id="line2d_10">
    <path d="M 382.127025 244.8 
" clip-path="url(#p0917fd1b9c)" style="fill: none; stroke: #66c2a5; stroke-width: 1.5; stroke-linecap: square"/>
    <defs>
     <path id="mf67574830e" d="M 0 3 
C 0.795609 3 1.55874 2.683901 2.12132 2.12132 
C 2.683901 1.55874 3 0.795609 3 0 
C 3 -0.795609 2.683901 -1.55874 2.12132 -2.12132 
C 1.55874 -2.683901 0.795609 -3 0 -3 
C -0.795609 -3 -1.55874 -2.683901 -2.12132 -2.12132 
C -2.683901 -1.55874 -3 -0.795609 -3 0 
C -3 0.795609 -2.683901 1.55874 -2.12132 2.12132 
C -1.55874 2.683901 -0.795609 3 0 3 
z
" style="stroke: #66c2a5"/>
    </defs>
    <g clip-path="url(#p0917fd1b9c)">
     <use xlink:href="#mf67574830e" x="382.127025" y="244.8" style="fill: #66c2a5; stroke: #66c2a5"/>
    </g>
   </g>
   <g id="LineCollection_2">
    <path d="M 288.155741 205.2 
L 448.391783 205.2 
" clip-path="url(#p0917fd1b9c)" style="fill: none; stroke: #66c2a5; stroke-width: 2"/>
   </g>
   <g id="line2d_11">
    <path d="M 370.929325 205.2 
" clip-path="url(#p0917fd1b9c)" style="fill: none; stroke: #66c2a5; stroke-width: 1.5; stroke-linecap: square"/>
    <g clip-path="url(#p0917fd1b9c)">
     <use xlink:href="#mf67574830e" x="370.929325" y="205.2" style="fill: #66c2a5; stroke: #66c2a5"/>
    </g>
   </g>
   <g id="LineCollection_3">
    <path d="M 245.544451 165.6 
L 422.879797 165.6 
" clip-path="url(#p0917fd1b9c)" style="fill: none; stroke: #66c2a5; stroke-width: 2"/>
   </g>
   <g id="line2d_12">
    <path d="M 351.181647 165.6 
" clip-path="url(#p0917fd1b9c)" style="fill: none; stroke: #66c2a5; stroke-width: 1.5; stroke-linecap: square"/>
    <g clip-path="url(#p0917fd1b9c)">
     <use xlink:href="#mf67574830e" x="351.181647" y="165.6" style="fill: #66c2a5; stroke: #66c2a5"/>
    </g>
   </g>
   <g id="LineCollection_4">
    <path d="M 297.918064 126 
L 480.484697 126 
" clip-path="url(#p0917fd1b9c)" style="fill: none; stroke: #66c2a5; stroke-width: 2"/>
   </g>
   <g id="line2d_13">
    <path d="M 373.947208 126 
" clip-path="url(#p0917fd1b9c)" style="fill: none; stroke: #66c2a5; stroke-width: 1.5; stroke-linecap: square"/>
    <g clip-path="url(#p0917fd1b9c)">
     <use xlink:href="#mf67574830e" x="373.947208" y="126" style="fill: #66c2a5; stroke: #66c2a5"/>
    </g>
   </g>
   <g id="LineCollection_5">
    <path d="M 265.106795 86.4 
L 440.358661 86.4 
" clip-path="url(#p0917fd1b9c)" style="fill: none; stroke: #66c2a5; stroke-width: 2"/>
   </g>
   <g id="line2d_14">
    <path d="M 360.874341 86.4 
" clip-path="url(#p0917fd1b9c)" style="fill: none; stroke: #66c2a5; stroke-width: 1.5; stroke-linecap: square"/>
    <g clip-path="url(#p0917fd1b9c)">
     <use xlink:href="#mf67574830e" x="360.874341" y="86.4" style="fill: #66c2a5; stroke: #66c2a5"/>
    </g>
   </g>
   <g id="LineCollection_6">
    <path d="M 264.576695 46.8 
L 442.653822 46.8 
" clip-path="url(#p0917fd1b9c)" style="fill: none; stroke: #66c2a5; stroke-width: 2"/>
   </g>
   <g id="line2d_15">
    <path d="M 366.833004 46.8 
" clip-path="url(#p0917fd1b9c)" style="fill: none; stroke: #66c2a5; stroke-width: 1.5; stroke-linecap: square"/>
    <g clip-path="url(#p0917fd1b9c)">
     <use xlink:href="#mf67574830e" x="366.833004" y="46.8" style="fill: #66c2a5; stroke: #66c2a5"/>
    </g>
   </g>
   <g id="line2d_16">
    <path d="M 368.117188 284.4 
L 368.117188 7.2 
" clip-path="url(#p0917fd1b9c)" style="fill: none; stroke-dasharray: 5.55,2.4; stroke-dashoffset: 0; stroke: #000000; stroke-width: 1.5"/>
   </g>
   <g id="patch_3">
    <path d="M 200.717188 284.4 
L 200.717188 7.2 
" style="fill: none; stroke: #000000; stroke-width: 0.8; stroke-linejoin: miter; stroke-linecap: square"/>
   </g>
   <g id="patch_4">
    <path d="M 535.517188 284.4 
L 535.517188 7.2 
" style="fill: none; stroke: #000000; stroke-width: 0.8; stroke-linejoin: miter; stroke-linecap: square"/>
   </g>
   <g id="patch_5">
    <path d="M 200.717188 284.4 
L 535.517188 284.4 
" style="fill: none; stroke: #000000; stroke-width: 0.8; stroke-linejoin: miter; stroke-linecap: square"/>
   </g>
   <g id="patch_6">
    <path d="M 200.717188 7.2 
L 535.517188 7.2 
" style="fill: none; stroke: #000000; stroke-width: 0.8; stroke-linejoin: miter; stroke-linecap: square"/>
   </g>
  </g>
 </g>
 <defs>
  <clipPath id="p0917fd1b9c">
   <rect x="200.717188" y="7.2" width="334.8" height="277.2"/>
  </clipPath>
 </defs>
</svg>
