<?xml version="1.0" encoding="utf-8" standalone="no"?>
<!DOCTYPE svg PUBLIC "-//W3C//DTD SVG 1.1//EN"
  "http://www.w3.org/Graphics/SVG/1.1/DTD/svg11.dtd">
<svg xmlns:xlink="http://www.w3.org/1999/xlink" width="891.165625pt" height="357.95625pt" viewBox="0 0 891.165625 357.95625" xmlns="http://www.w3.org/2000/svg" version="1.1">
 <metadata>
  <rdf:RDF xmlns:dc="http://purl.org/dc/elements/1.1/" xmlns:cc="http://creativecommons.org/ns#" xmlns:rdf="http://www.w3.org/1999/02/22-rdf-syntax-ns#">
   <cc:Work>
    <dc:type rdf:resource="http://purl.org/dc/dcmitype/StillImage"/>
    <dc:date>2024-11-15T11:49:46.789242</dc:date>
    <dc:format>image/svg+xml</dc:format>
    <dc:creator>
     <cc:Agent>
      <dc:title>Matplotlib v3.9.2, https://matplotlib.org/</dc:title>
     </cc:Agent>
    </dc:creator>
   </cc:Work>
  </rdf:RDF>
 </metadata>
 <defs>
  <style type="text/css">*{stroke-linejoin: round; stroke-linecap: butt}</style>
 </defs>
 <g id="figure_1">
  <g id="patch_1">
   <path d="M 0 357.95625 
L 891.165625 357.95625 
L 891.165625 0 
L 0 0 
z
" style="fill: #ffffff"/>
  </g>
  <g id="axes_1">
   <g id="patch_2">
    <path d="M 46.965625 320.4 
L 427.42017 320.4 
L 427.42017 43.2 
L 46.965625 43.2 
z
" style="fill: #ffffff"/>
   </g>
   <g id="line2d_1">
    <path d="M 410.126782 320.4 
L 410.126782 43.2 
" clip-path="url(#p2630b20f6b)" style="fill: none; stroke-dasharray: 1.85,0.8; stroke-dashoffset: 0; stroke: #000000; stroke-width: 0.5"/>
   </g>
   <g id="patch_3">
    <path d="M 140.931795 320.4 
L 146.849255 320.4 
L 146.849255 318.83787 
L 140.931795 318.83787 
z
" clip-path="url(#p2630b20f6b)" style="fill: #66c2a5"/>
   </g>
   <g id="patch_4">
    <path d="M 146.849255 320.4 
L 152.766716 320.4 
L 152.766716 319.618935 
L 146.849255 319.618935 
z
" clip-path="url(#p2630b20f6b)" style="fill: #66c2a5"/>
   </g>
   <g id="patch_5">
    <path d="M 152.766716 320.4 
L 158.684176 320.4 
L 158.684176 319.618935 
L 152.766716 319.618935 
z
" clip-path="url(#p2630b20f6b)" style="fill: #66c2a5"/>
   </g>
   <g id="patch_6">
    <path d="M 158.684176 320.4 
L 164.601637 320.4 
L 164.601637 320.4 
L 158.684176 320.4 
z
" clip-path="url(#p2630b20f6b)" style="fill: #66c2a5"/>
   </g>
   <g id="patch_7">
    <path d="M 164.601637 320.4 
L 170.519098 320.4 
L 170.519098 318.83787 
L 164.601637 318.83787 
z
" clip-path="url(#p2630b20f6b)" style="fill: #66c2a5"/>
   </g>
   <g id="patch_8">
    <path d="M 170.519098 320.4 
L 176.436558 320.4 
L 176.436558 315.713609 
L 170.519098 315.713609 
z
" clip-path="url(#p2630b20f6b)" style="fill: #66c2a5"/>
   </g>
   <g id="patch_9">
    <path d="M 176.436558 320.4 
L 182.354019 320.4 
L 182.354019 310.246154 
L 176.436558 310.246154 
z
" clip-path="url(#p2630b20f6b)" style="fill: #66c2a5"/>
   </g>
   <g id="patch_10">
    <path d="M 182.354019 320.4 
L 188.27148 320.4 
L 188.27148 314.151479 
L 182.354019 314.151479 
z
" clip-path="url(#p2630b20f6b)" style="fill: #66c2a5"/>
   </g>
   <g id="patch_11">
    <path d="M 188.27148 320.4 
L 194.18894 320.4 
L 194.18894 302.435503 
L 188.27148 302.435503 
z
" clip-path="url(#p2630b20f6b)" style="fill: #66c2a5"/>
   </g>
   <g id="patch_12">
    <path d="M 194.18894 320.4 
L 200.106401 320.4 
L 200.106401 287.595266 
L 194.18894 287.595266 
z
" clip-path="url(#p2630b20f6b)" style="fill: #66c2a5"/>
   </g>
   <g id="patch_13">
    <path d="M 200.106401 320.4 
L 206.023862 320.4 
L 206.023862 267.287574 
L 200.106401 267.287574 
z
" clip-path="url(#p2630b20f6b)" style="fill: #66c2a5"/>
   </g>
   <g id="patch_14">
    <path d="M 206.023862 320.4 
L 211.941322 320.4 
L 211.941322 247.760947 
L 206.023862 247.760947 
z
" clip-path="url(#p2630b20f6b)" style="fill: #66c2a5"/>
   </g>
   <g id="patch_15">
    <path d="M 211.941322 320.4 
L 217.858783 320.4 
L 217.858783 226.672189 
L 211.941322 226.672189 
z
" clip-path="url(#p2630b20f6b)" style="fill: #66c2a5"/>
   </g>
   <g id="patch_16">
    <path d="M 217.858783 320.4 
L 223.776243 320.4 
L 223.776243 209.488757 
L 217.858783 209.488757 
z
" clip-path="url(#p2630b20f6b)" style="fill: #66c2a5"/>
   </g>
   <g id="patch_17">
    <path d="M 223.776243 320.4 
L 229.693704 320.4 
L 229.693704 187.618935 
L 223.776243 187.618935 
z
" clip-path="url(#p2630b20f6b)" style="fill: #66c2a5"/>
   </g>
   <g id="patch_18">
    <path d="M 229.693704 320.4 
L 235.611165 320.4 
L 235.611165 137.630769 
L 229.693704 137.630769 
z
" clip-path="url(#p2630b20f6b)" style="fill: #66c2a5"/>
   </g>
   <g id="patch_19">
    <path d="M 235.611165 320.4 
L 241.528625 320.4 
L 241.528625 121.228402 
L 235.611165 121.228402 
z
" clip-path="url(#p2630b20f6b)" style="fill: #66c2a5"/>
   </g>
   <g id="patch_20">
    <path d="M 241.528625 320.4 
L 247.446086 320.4 
L 247.446086 81.394083 
L 241.528625 81.394083 
z
" clip-path="url(#p2630b20f6b)" style="fill: #66c2a5"/>
   </g>
   <g id="patch_21">
    <path d="M 247.446086 320.4 
L 253.363547 320.4 
L 253.363547 56.4 
L 247.446086 56.4 
z
" clip-path="url(#p2630b20f6b)" style="fill: #66c2a5"/>
   </g>
   <g id="patch_22">
    <path d="M 253.363547 320.4 
L 259.281007 320.4 
L 259.281007 82.956213 
L 253.363547 82.956213 
z
" clip-path="url(#p2630b20f6b)" style="fill: #66c2a5"/>
   </g>
   <g id="patch_23">
    <path d="M 259.281007 320.4 
L 265.198468 320.4 
L 265.198468 73.583432 
L 259.281007 73.583432 
z
" clip-path="url(#p2630b20f6b)" style="fill: #66c2a5"/>
   </g>
   <g id="patch_24">
    <path d="M 265.198468 320.4 
L 271.115929 320.4 
L 271.115929 80.613018 
L 265.198468 80.613018 
z
" clip-path="url(#p2630b20f6b)" style="fill: #66c2a5"/>
   </g>
   <g id="patch_25">
    <path d="M 271.115929 320.4 
L 277.033389 320.4 
L 277.033389 125.133728 
L 271.115929 125.133728 
z
" clip-path="url(#p2630b20f6b)" style="fill: #66c2a5"/>
   </g>
   <g id="patch_26">
    <path d="M 277.033389 320.4 
L 282.95085 320.4 
L 282.95085 132.944379 
L 277.033389 132.944379 
z
" clip-path="url(#p2630b20f6b)" style="fill: #66c2a5"/>
   </g>
   <g id="patch_27">
    <path d="M 282.95085 320.4 
L 288.86831 320.4 
L 288.86831 143.87929 
L 282.95085 143.87929 
z
" clip-path="url(#p2630b20f6b)" style="fill: #66c2a5"/>
   </g>
   <g id="patch_28">
    <path d="M 288.86831 320.4 
L 294.785771 320.4 
L 294.785771 203.240237 
L 288.86831 203.240237 
z
" clip-path="url(#p2630b20f6b)" style="fill: #66c2a5"/>
   </g>
   <g id="patch_29">
    <path d="M 294.785771 320.4 
L 300.703232 320.4 
L 300.703232 219.642604 
L 294.785771 219.642604 
z
" clip-path="url(#p2630b20f6b)" style="fill: #66c2a5"/>
   </g>
   <g id="patch_30">
    <path d="M 300.703232 320.4 
L 306.620692 320.4 
L 306.620692 266.506509 
L 300.703232 266.506509 
z
" clip-path="url(#p2630b20f6b)" style="fill: #66c2a5"/>
   </g>
   <g id="patch_31">
    <path d="M 306.620692 320.4 
L 312.538153 320.4 
L 312.538153 275.87929 
L 306.620692 275.87929 
z
" clip-path="url(#p2630b20f6b)" style="fill: #66c2a5"/>
   </g>
   <g id="patch_32">
    <path d="M 312.538153 320.4 
L 318.455614 320.4 
L 318.455614 282.127811 
L 312.538153 282.127811 
z
" clip-path="url(#p2630b20f6b)" style="fill: #66c2a5"/>
   </g>
   <g id="patch_33">
    <path d="M 318.455614 320.4 
L 324.373074 320.4 
L 324.373074 301.654438 
L 318.455614 301.654438 
z
" clip-path="url(#p2630b20f6b)" style="fill: #66c2a5"/>
   </g>
   <g id="patch_34">
    <path d="M 324.373074 320.4 
L 330.290535 320.4 
L 330.290535 299.311243 
L 324.373074 299.311243 
z
" clip-path="url(#p2630b20f6b)" style="fill: #66c2a5"/>
   </g>
   <g id="patch_35">
    <path d="M 330.290535 320.4 
L 336.207996 320.4 
L 336.207996 312.589349 
L 330.290535 312.589349 
z
" clip-path="url(#p2630b20f6b)" style="fill: #66c2a5"/>
   </g>
   <g id="patch_36">
    <path d="M 336.207996 320.4 
L 342.125456 320.4 
L 342.125456 311.027219 
L 336.207996 311.027219 
z
" clip-path="url(#p2630b20f6b)" style="fill: #66c2a5"/>
   </g>
   <g id="patch_37">
    <path d="M 342.125456 320.4 
L 348.042917 320.4 
L 348.042917 318.83787 
L 342.125456 318.83787 
z
" clip-path="url(#p2630b20f6b)" style="fill: #66c2a5"/>
   </g>
   <g id="patch_38">
    <path d="M 348.042917 320.4 
L 353.960377 320.4 
L 353.960377 318.83787 
L 348.042917 318.83787 
z
" clip-path="url(#p2630b20f6b)" style="fill: #66c2a5"/>
   </g>
   <g id="patch_39">
    <path d="M 353.960377 320.4 
L 359.877838 320.4 
L 359.877838 319.618935 
L 353.960377 319.618935 
z
" clip-path="url(#p2630b20f6b)" style="fill: #66c2a5"/>
   </g>
   <g id="patch_40">
    <path d="M 359.877838 320.4 
L 365.795299 320.4 
L 365.795299 320.4 
L 359.877838 320.4 
z
" clip-path="url(#p2630b20f6b)" style="fill: #66c2a5"/>
   </g>
   <g id="patch_41">
    <path d="M 365.795299 320.4 
L 371.712759 320.4 
L 371.712759 320.4 
L 365.795299 320.4 
z
" clip-path="url(#p2630b20f6b)" style="fill: #66c2a5"/>
   </g>
   <g id="patch_42">
    <path d="M 371.712759 320.4 
L 377.63022 320.4 
L 377.63022 319.618935 
L 371.712759 319.618935 
z
" clip-path="url(#p2630b20f6b)" style="fill: #66c2a5"/>
   </g>
   <g id="matplotlib.axis_1">
    <g id="xtick_1">
     <g id="line2d_2">
      <defs>
       <path id="m45db85b5ad" d="M 0 0 
L 0 3.5 
" style="stroke: #000000; stroke-width: 0.8"/>
      </defs>
      <g>
       <use xlink:href="#m45db85b5ad" x="71.860533" y="320.4" style="stroke: #000000; stroke-width: 0.8"/>
      </g>
     </g>
     <g id="text_1">
      <!-- −0.5 -->
      <g transform="translate(59.719126 334.998437) scale(0.1 -0.1)">
       <defs>
        <path id="DejaVuSans-2212" d="M 678 2272 
L 4684 2272 
L 4684 1741 
L 678 1741 
L 678 2272 
z
" transform="scale(0.015625)"/>
        <path id="DejaVuSans-30" d="M 2034 4250 
Q 1547 4250 1301 3770 
Q 1056 3291 1056 2328 
Q 1056 1369 1301 889 
Q 1547 409 2034 409 
Q 2525 409 2770 889 
Q 3016 1369 3016 2328 
Q 3016 3291 2770 3770 
Q 2525 4250 2034 4250 
z
M 2034 4750 
Q 2819 4750 3233 4129 
Q 3647 3509 3647 2328 
Q 3647 1150 3233 529 
Q 2819 -91 2034 -91 
Q 1250 -91 836 529 
Q 422 1150 422 2328 
Q 422 3509 836 4129 
Q 1250 4750 2034 4750 
z
" transform="scale(0.015625)"/>
        <path id="DejaVuSans-2e" d="M 684 794 
L 1344 794 
L 1344 0 
L 684 0 
L 684 794 
z
" transform="scale(0.015625)"/>
        <path id="DejaVuSans-35" d="M 691 4666 
L 3169 4666 
L 3169 4134 
L 1269 4134 
L 1269 2991 
Q 1406 3038 1543 3061 
Q 1681 3084 1819 3084 
Q 2600 3084 3056 2656 
Q 3513 2228 3513 1497 
Q 3513 744 3044 326 
Q 2575 -91 1722 -91 
Q 1428 -91 1123 -41 
Q 819 9 494 109 
L 494 744 
Q 775 591 1075 516 
Q 1375 441 1709 441 
Q 2250 441 2565 725 
Q 2881 1009 2881 1497 
Q 2881 1984 2565 2268 
Q 2250 2553 1709 2553 
Q 1456 2553 1204 2497 
Q 953 2441 691 2322 
L 691 4666 
z
" transform="scale(0.015625)"/>
       </defs>
       <use xlink:href="#DejaVuSans-2212"/>
       <use xlink:href="#DejaVuSans-30" x="83.789062"/>
       <use xlink:href="#DejaVuSans-2e" x="147.412109"/>
       <use xlink:href="#DejaVuSans-35" x="179.199219"/>
      </g>
     </g>
    </g>
    <g id="xtick_2">
     <g id="line2d_3">
      <g>
       <use xlink:href="#m45db85b5ad" x="139.513782" y="320.4" style="stroke: #000000; stroke-width: 0.8"/>
      </g>
     </g>
     <g id="text_2">
      <!-- −0.4 -->
      <g transform="translate(127.372376 334.998437) scale(0.1 -0.1)">
       <defs>
        <path id="DejaVuSans-34" d="M 2419 4116 
L 825 1625 
L 2419 1625 
L 2419 4116 
z
M 2253 4666 
L 3047 4666 
L 3047 1625 
L 3713 1625 
L 3713 1100 
L 3047 1100 
L 3047 0 
L 2419 0 
L 2419 1100 
L 313 1100 
L 313 1709 
L 2253 4666 
z
" transform="scale(0.015625)"/>
       </defs>
       <use xlink:href="#DejaVuSans-2212"/>
       <use xlink:href="#DejaVuSans-30" x="83.789062"/>
       <use xlink:href="#DejaVuSans-2e" x="147.412109"/>
       <use xlink:href="#DejaVuSans-34" x="179.199219"/>
      </g>
     </g>
    </g>
    <g id="xtick_3">
     <g id="line2d_4">
      <g>
       <use xlink:href="#m45db85b5ad" x="207.167032" y="320.4" style="stroke: #000000; stroke-width: 0.8"/>
      </g>
     </g>
     <g id="text_3">
      <!-- −0.3 -->
      <g transform="translate(195.025626 334.998437) scale(0.1 -0.1)">
       <defs>
        <path id="DejaVuSans-33" d="M 2597 2516 
Q 3050 2419 3304 2112 
Q 3559 1806 3559 1356 
Q 3559 666 3084 287 
Q 2609 -91 1734 -91 
Q 1441 -91 1130 -33 
Q 819 25 488 141 
L 488 750 
Q 750 597 1062 519 
Q 1375 441 1716 441 
Q 2309 441 2620 675 
Q 2931 909 2931 1356 
Q 2931 1769 2642 2001 
Q 2353 2234 1838 2234 
L 1294 2234 
L 1294 2753 
L 1863 2753 
Q 2328 2753 2575 2939 
Q 2822 3125 2822 3475 
Q 2822 3834 2567 4026 
Q 2313 4219 1838 4219 
Q 1578 4219 1281 4162 
Q 984 4106 628 3988 
L 628 4550 
Q 988 4650 1302 4700 
Q 1616 4750 1894 4750 
Q 2613 4750 3031 4423 
Q 3450 4097 3450 3541 
Q 3450 3153 3228 2886 
Q 3006 2619 2597 2516 
z
" transform="scale(0.015625)"/>
       </defs>
       <use xlink:href="#DejaVuSans-2212"/>
       <use xlink:href="#DejaVuSans-30" x="83.789062"/>
       <use xlink:href="#DejaVuSans-2e" x="147.412109"/>
       <use xlink:href="#DejaVuSans-33" x="179.199219"/>
      </g>
     </g>
    </g>
    <g id="xtick_4">
     <g id="line2d_5">
      <g>
       <use xlink:href="#m45db85b5ad" x="274.820282" y="320.4" style="stroke: #000000; stroke-width: 0.8"/>
      </g>
     </g>
     <g id="text_4">
      <!-- −0.2 -->
      <g transform="translate(262.678876 334.998437) scale(0.1 -0.1)">
       <defs>
        <path id="DejaVuSans-32" d="M 1228 531 
L 3431 531 
L 3431 0 
L 469 0 
L 469 531 
Q 828 903 1448 1529 
Q 2069 2156 2228 2338 
Q 2531 2678 2651 2914 
Q 2772 3150 2772 3378 
Q 2772 3750 2511 3984 
Q 2250 4219 1831 4219 
Q 1534 4219 1204 4116 
Q 875 4013 500 3803 
L 500 4441 
Q 881 4594 1212 4672 
Q 1544 4750 1819 4750 
Q 2544 4750 2975 4387 
Q 3406 4025 3406 3419 
Q 3406 3131 3298 2873 
Q 3191 2616 2906 2266 
Q 2828 2175 2409 1742 
Q 1991 1309 1228 531 
z
" transform="scale(0.015625)"/>
       </defs>
       <use xlink:href="#DejaVuSans-2212"/>
       <use xlink:href="#DejaVuSans-30" x="83.789062"/>
       <use xlink:href="#DejaVuSans-2e" x="147.412109"/>
       <use xlink:href="#DejaVuSans-32" x="179.199219"/>
      </g>
     </g>
    </g>
    <g id="xtick_5">
     <g id="line2d_6">
      <g>
       <use xlink:href="#m45db85b5ad" x="342.473532" y="320.4" style="stroke: #000000; stroke-width: 0.8"/>
      </g>
     </g>
     <g id="text_5">
      <!-- −0.1 -->
      <g transform="translate(330.332126 334.998437) scale(0.1 -0.1)">
       <defs>
        <path id="DejaVuSans-31" d="M 794 531 
L 1825 531 
L 1825 4091 
L 703 3866 
L 703 4441 
L 1819 4666 
L 2450 4666 
L 2450 531 
L 3481 531 
L 3481 0 
L 794 0 
L 794 531 
z
" transform="scale(0.015625)"/>
       </defs>
       <use xlink:href="#DejaVuSans-2212"/>
       <use xlink:href="#DejaVuSans-30" x="83.789062"/>
       <use xlink:href="#DejaVuSans-2e" x="147.412109"/>
       <use xlink:href="#DejaVuSans-31" x="179.199219"/>
      </g>
     </g>
    </g>
    <g id="xtick_6">
     <g id="line2d_7">
      <g>
       <use xlink:href="#m45db85b5ad" x="410.126782" y="320.4" style="stroke: #000000; stroke-width: 0.8"/>
      </g>
     </g>
     <g id="text_6">
      <!-- 0.0 -->
      <g transform="translate(402.17522 334.998437) scale(0.1 -0.1)">
       <use xlink:href="#DejaVuSans-30"/>
       <use xlink:href="#DejaVuSans-2e" x="63.623047"/>
       <use xlink:href="#DejaVuSans-30" x="95.410156"/>
      </g>
     </g>
    </g>
    <g id="text_7">
     <!-- Effect relative to baseline (standardised units) -->
     <g transform="translate(121.346023 348.676562) scale(0.1 -0.1)">
      <defs>
       <path id="DejaVuSans-45" d="M 628 4666 
L 3578 4666 
L 3578 4134 
L 1259 4134 
L 1259 2753 
L 3481 2753 
L 3481 2222 
L 1259 2222 
L 1259 531 
L 3634 531 
L 3634 0 
L 628 0 
L 628 4666 
z
" transform="scale(0.015625)"/>
       <path id="DejaVuSans-66" d="M 2375 4863 
L 2375 4384 
L 1825 4384 
Q 1516 4384 1395 4259 
Q 1275 4134 1275 3809 
L 1275 3500 
L 2222 3500 
L 2222 3053 
L 1275 3053 
L 1275 0 
L 697 0 
L 697 3053 
L 147 3053 
L 147 3500 
L 697 3500 
L 697 3744 
Q 697 4328 969 4595 
Q 1241 4863 1831 4863 
L 2375 4863 
z
" transform="scale(0.015625)"/>
       <path id="DejaVuSans-65" d="M 3597 1894 
L 3597 1613 
L 953 1613 
Q 991 1019 1311 708 
Q 1631 397 2203 397 
Q 2534 397 2845 478 
Q 3156 559 3463 722 
L 3463 178 
Q 3153 47 2828 -22 
Q 2503 -91 2169 -91 
Q 1331 -91 842 396 
Q 353 884 353 1716 
Q 353 2575 817 3079 
Q 1281 3584 2069 3584 
Q 2775 3584 3186 3129 
Q 3597 2675 3597 1894 
z
M 3022 2063 
Q 3016 2534 2758 2815 
Q 2500 3097 2075 3097 
Q 1594 3097 1305 2825 
Q 1016 2553 972 2059 
L 3022 2063 
z
" transform="scale(0.015625)"/>
       <path id="DejaVuSans-63" d="M 3122 3366 
L 3122 2828 
Q 2878 2963 2633 3030 
Q 2388 3097 2138 3097 
Q 1578 3097 1268 2742 
Q 959 2388 959 1747 
Q 959 1106 1268 751 
Q 1578 397 2138 397 
Q 2388 397 2633 464 
Q 2878 531 3122 666 
L 3122 134 
Q 2881 22 2623 -34 
Q 2366 -91 2075 -91 
Q 1284 -91 818 406 
Q 353 903 353 1747 
Q 353 2603 823 3093 
Q 1294 3584 2113 3584 
Q 2378 3584 2631 3529 
Q 2884 3475 3122 3366 
z
" transform="scale(0.015625)"/>
       <path id="DejaVuSans-74" d="M 1172 4494 
L 1172 3500 
L 2356 3500 
L 2356 3053 
L 1172 3053 
L 1172 1153 
Q 1172 725 1289 603 
Q 1406 481 1766 481 
L 2356 481 
L 2356 0 
L 1766 0 
Q 1100 0 847 248 
Q 594 497 594 1153 
L 594 3053 
L 172 3053 
L 172 3500 
L 594 3500 
L 594 4494 
L 1172 4494 
z
" transform="scale(0.015625)"/>
       <path id="DejaVuSans-20" transform="scale(0.015625)"/>
       <path id="DejaVuSans-72" d="M 2631 2963 
Q 2534 3019 2420 3045 
Q 2306 3072 2169 3072 
Q 1681 3072 1420 2755 
Q 1159 2438 1159 1844 
L 1159 0 
L 581 0 
L 581 3500 
L 1159 3500 
L 1159 2956 
Q 1341 3275 1631 3429 
Q 1922 3584 2338 3584 
Q 2397 3584 2469 3576 
Q 2541 3569 2628 3553 
L 2631 2963 
z
" transform="scale(0.015625)"/>
       <path id="DejaVuSans-6c" d="M 603 4863 
L 1178 4863 
L 1178 0 
L 603 0 
L 603 4863 
z
" transform="scale(0.015625)"/>
       <path id="DejaVuSans-61" d="M 2194 1759 
Q 1497 1759 1228 1600 
Q 959 1441 959 1056 
Q 959 750 1161 570 
Q 1363 391 1709 391 
Q 2188 391 2477 730 
Q 2766 1069 2766 1631 
L 2766 1759 
L 2194 1759 
z
M 3341 1997 
L 3341 0 
L 2766 0 
L 2766 531 
Q 2569 213 2275 61 
Q 1981 -91 1556 -91 
Q 1019 -91 701 211 
Q 384 513 384 1019 
Q 384 1609 779 1909 
Q 1175 2209 1959 2209 
L 2766 2209 
L 2766 2266 
Q 2766 2663 2505 2880 
Q 2244 3097 1772 3097 
Q 1472 3097 1187 3025 
Q 903 2953 641 2809 
L 641 3341 
Q 956 3463 1253 3523 
Q 1550 3584 1831 3584 
Q 2591 3584 2966 3190 
Q 3341 2797 3341 1997 
z
" transform="scale(0.015625)"/>
       <path id="DejaVuSans-69" d="M 603 3500 
L 1178 3500 
L 1178 0 
L 603 0 
L 603 3500 
z
M 603 4863 
L 1178 4863 
L 1178 4134 
L 603 4134 
L 603 4863 
z
" transform="scale(0.015625)"/>
       <path id="DejaVuSans-76" d="M 191 3500 
L 800 3500 
L 1894 563 
L 2988 3500 
L 3597 3500 
L 2284 0 
L 1503 0 
L 191 3500 
z
" transform="scale(0.015625)"/>
       <path id="DejaVuSans-6f" d="M 1959 3097 
Q 1497 3097 1228 2736 
Q 959 2375 959 1747 
Q 959 1119 1226 758 
Q 1494 397 1959 397 
Q 2419 397 2687 759 
Q 2956 1122 2956 1747 
Q 2956 2369 2687 2733 
Q 2419 3097 1959 3097 
z
M 1959 3584 
Q 2709 3584 3137 3096 
Q 3566 2609 3566 1747 
Q 3566 888 3137 398 
Q 2709 -91 1959 -91 
Q 1206 -91 779 398 
Q 353 888 353 1747 
Q 353 2609 779 3096 
Q 1206 3584 1959 3584 
z
" transform="scale(0.015625)"/>
       <path id="DejaVuSans-62" d="M 3116 1747 
Q 3116 2381 2855 2742 
Q 2594 3103 2138 3103 
Q 1681 3103 1420 2742 
Q 1159 2381 1159 1747 
Q 1159 1113 1420 752 
Q 1681 391 2138 391 
Q 2594 391 2855 752 
Q 3116 1113 3116 1747 
z
M 1159 2969 
Q 1341 3281 1617 3432 
Q 1894 3584 2278 3584 
Q 2916 3584 3314 3078 
Q 3713 2572 3713 1747 
Q 3713 922 3314 415 
Q 2916 -91 2278 -91 
Q 1894 -91 1617 61 
Q 1341 213 1159 525 
L 1159 0 
L 581 0 
L 581 4863 
L 1159 4863 
L 1159 2969 
z
" transform="scale(0.015625)"/>
       <path id="DejaVuSans-73" d="M 2834 3397 
L 2834 2853 
Q 2591 2978 2328 3040 
Q 2066 3103 1784 3103 
Q 1356 3103 1142 2972 
Q 928 2841 928 2578 
Q 928 2378 1081 2264 
Q 1234 2150 1697 2047 
L 1894 2003 
Q 2506 1872 2764 1633 
Q 3022 1394 3022 966 
Q 3022 478 2636 193 
Q 2250 -91 1575 -91 
Q 1294 -91 989 -36 
Q 684 19 347 128 
L 347 722 
Q 666 556 975 473 
Q 1284 391 1588 391 
Q 1994 391 2212 530 
Q 2431 669 2431 922 
Q 2431 1156 2273 1281 
Q 2116 1406 1581 1522 
L 1381 1569 
Q 847 1681 609 1914 
Q 372 2147 372 2553 
Q 372 3047 722 3315 
Q 1072 3584 1716 3584 
Q 2034 3584 2315 3537 
Q 2597 3491 2834 3397 
z
" transform="scale(0.015625)"/>
       <path id="DejaVuSans-6e" d="M 3513 2113 
L 3513 0 
L 2938 0 
L 2938 2094 
Q 2938 2591 2744 2837 
Q 2550 3084 2163 3084 
Q 1697 3084 1428 2787 
Q 1159 2491 1159 1978 
L 1159 0 
L 581 0 
L 581 3500 
L 1159 3500 
L 1159 2956 
Q 1366 3272 1645 3428 
Q 1925 3584 2291 3584 
Q 2894 3584 3203 3211 
Q 3513 2838 3513 2113 
z
" transform="scale(0.015625)"/>
       <path id="DejaVuSans-28" d="M 1984 4856 
Q 1566 4138 1362 3434 
Q 1159 2731 1159 2009 
Q 1159 1288 1364 580 
Q 1569 -128 1984 -844 
L 1484 -844 
Q 1016 -109 783 600 
Q 550 1309 550 2009 
Q 550 2706 781 3412 
Q 1013 4119 1484 4856 
L 1984 4856 
z
" transform="scale(0.015625)"/>
       <path id="DejaVuSans-64" d="M 2906 2969 
L 2906 4863 
L 3481 4863 
L 3481 0 
L 2906 0 
L 2906 525 
Q 2725 213 2448 61 
Q 2172 -91 1784 -91 
Q 1150 -91 751 415 
Q 353 922 353 1747 
Q 353 2572 751 3078 
Q 1150 3584 1784 3584 
Q 2172 3584 2448 3432 
Q 2725 3281 2906 2969 
z
M 947 1747 
Q 947 1113 1208 752 
Q 1469 391 1925 391 
Q 2381 391 2643 752 
Q 2906 1113 2906 1747 
Q 2906 2381 2643 2742 
Q 2381 3103 1925 3103 
Q 1469 3103 1208 2742 
Q 947 2381 947 1747 
z
" transform="scale(0.015625)"/>
       <path id="DejaVuSans-75" d="M 544 1381 
L 544 3500 
L 1119 3500 
L 1119 1403 
Q 1119 906 1312 657 
Q 1506 409 1894 409 
Q 2359 409 2629 706 
Q 2900 1003 2900 1516 
L 2900 3500 
L 3475 3500 
L 3475 0 
L 2900 0 
L 2900 538 
Q 2691 219 2414 64 
Q 2138 -91 1772 -91 
Q 1169 -91 856 284 
Q 544 659 544 1381 
z
M 1991 3584 
L 1991 3584 
z
" transform="scale(0.015625)"/>
       <path id="DejaVuSans-29" d="M 513 4856 
L 1013 4856 
Q 1481 4119 1714 3412 
Q 1947 2706 1947 2009 
Q 1947 1309 1714 600 
Q 1481 -109 1013 -844 
L 513 -844 
Q 928 -128 1133 580 
Q 1338 1288 1338 2009 
Q 1338 2731 1133 3434 
Q 928 4138 513 4856 
z
" transform="scale(0.015625)"/>
      </defs>
      <use xlink:href="#DejaVuSans-45"/>
      <use xlink:href="#DejaVuSans-66" x="63.183594"/>
      <use xlink:href="#DejaVuSans-66" x="98.388672"/>
      <use xlink:href="#DejaVuSans-65" x="133.59375"/>
      <use xlink:href="#DejaVuSans-63" x="195.117188"/>
      <use xlink:href="#DejaVuSans-74" x="250.097656"/>
      <use xlink:href="#DejaVuSans-20" x="289.306641"/>
      <use xlink:href="#DejaVuSans-72" x="321.09375"/>
      <use xlink:href="#DejaVuSans-65" x="359.957031"/>
      <use xlink:href="#DejaVuSans-6c" x="421.480469"/>
      <use xlink:href="#DejaVuSans-61" x="449.263672"/>
      <use xlink:href="#DejaVuSans-74" x="510.542969"/>
      <use xlink:href="#DejaVuSans-69" x="549.751953"/>
      <use xlink:href="#DejaVuSans-76" x="577.535156"/>
      <use xlink:href="#DejaVuSans-65" x="636.714844"/>
      <use xlink:href="#DejaVuSans-20" x="698.238281"/>
      <use xlink:href="#DejaVuSans-74" x="730.025391"/>
      <use xlink:href="#DejaVuSans-6f" x="769.234375"/>
      <use xlink:href="#DejaVuSans-20" x="830.416016"/>
      <use xlink:href="#DejaVuSans-62" x="862.203125"/>
      <use xlink:href="#DejaVuSans-61" x="925.679688"/>
      <use xlink:href="#DejaVuSans-73" x="986.958984"/>
      <use xlink:href="#DejaVuSans-65" x="1039.058594"/>
      <use xlink:href="#DejaVuSans-6c" x="1100.582031"/>
      <use xlink:href="#DejaVuSans-69" x="1128.365234"/>
      <use xlink:href="#DejaVuSans-6e" x="1156.148438"/>
      <use xlink:href="#DejaVuSans-65" x="1219.527344"/>
      <use xlink:href="#DejaVuSans-20" x="1281.050781"/>
      <use xlink:href="#DejaVuSans-28" x="1312.837891"/>
      <use xlink:href="#DejaVuSans-73" x="1351.851562"/>
      <use xlink:href="#DejaVuSans-74" x="1403.951172"/>
      <use xlink:href="#DejaVuSans-61" x="1443.160156"/>
      <use xlink:href="#DejaVuSans-6e" x="1504.439453"/>
      <use xlink:href="#DejaVuSans-64" x="1567.818359"/>
      <use xlink:href="#DejaVuSans-61" x="1631.294922"/>
      <use xlink:href="#DejaVuSans-72" x="1692.574219"/>
      <use xlink:href="#DejaVuSans-64" x="1731.9375"/>
      <use xlink:href="#DejaVuSans-69" x="1795.414062"/>
      <use xlink:href="#DejaVuSans-73" x="1823.197266"/>
      <use xlink:href="#DejaVuSans-65" x="1875.296875"/>
      <use xlink:href="#DejaVuSans-64" x="1936.820312"/>
      <use xlink:href="#DejaVuSans-20" x="2000.296875"/>
      <use xlink:href="#DejaVuSans-75" x="2032.083984"/>
      <use xlink:href="#DejaVuSans-6e" x="2095.462891"/>
      <use xlink:href="#DejaVuSans-69" x="2158.841797"/>
      <use xlink:href="#DejaVuSans-74" x="2186.625"/>
      <use xlink:href="#DejaVuSans-73" x="2225.833984"/>
      <use xlink:href="#DejaVuSans-29" x="2277.933594"/>
     </g>
    </g>
   </g>
   <g id="matplotlib.axis_2">
    <g id="ytick_1">
     <g id="line2d_8">
      <defs>
       <path id="mbef2ea0e99" d="M 0 0 
L -3.5 0 
" style="stroke: #000000; stroke-width: 0.8"/>
      </defs>
      <g>
       <use xlink:href="#mbef2ea0e99" x="46.965625" y="320.4" style="stroke: #000000; stroke-width: 0.8"/>
      </g>
     </g>
     <g id="text_8">
      <!-- 0 -->
      <g transform="translate(33.603125 324.199219) scale(0.1 -0.1)">
       <use xlink:href="#DejaVuSans-30"/>
      </g>
     </g>
    </g>
    <g id="ytick_2">
     <g id="line2d_9">
      <g>
       <use xlink:href="#mbef2ea0e99" x="46.965625" y="281.346746" style="stroke: #000000; stroke-width: 0.8"/>
      </g>
     </g>
     <g id="text_9">
      <!-- 50 -->
      <g transform="translate(27.240625 285.145964) scale(0.1 -0.1)">
       <use xlink:href="#DejaVuSans-35"/>
       <use xlink:href="#DejaVuSans-30" x="63.623047"/>
      </g>
     </g>
    </g>
    <g id="ytick_3">
     <g id="line2d_10">
      <g>
       <use xlink:href="#mbef2ea0e99" x="46.965625" y="242.293491" style="stroke: #000000; stroke-width: 0.8"/>
      </g>
     </g>
     <g id="text_10">
      <!-- 100 -->
      <g transform="translate(20.878125 246.09271) scale(0.1 -0.1)">
       <use xlink:href="#DejaVuSans-31"/>
       <use xlink:href="#DejaVuSans-30" x="63.623047"/>
       <use xlink:href="#DejaVuSans-30" x="127.246094"/>
      </g>
     </g>
    </g>
    <g id="ytick_4">
     <g id="line2d_11">
      <g>
       <use xlink:href="#mbef2ea0e99" x="46.965625" y="203.240237" style="stroke: #000000; stroke-width: 0.8"/>
      </g>
     </g>
     <g id="text_11">
      <!-- 150 -->
      <g transform="translate(20.878125 207.039455) scale(0.1 -0.1)">
       <use xlink:href="#DejaVuSans-31"/>
       <use xlink:href="#DejaVuSans-35" x="63.623047"/>
       <use xlink:href="#DejaVuSans-30" x="127.246094"/>
      </g>
     </g>
    </g>
    <g id="ytick_5">
     <g id="line2d_12">
      <g>
       <use xlink:href="#mbef2ea0e99" x="46.965625" y="164.186982" style="stroke: #000000; stroke-width: 0.8"/>
      </g>
     </g>
     <g id="text_12">
      <!-- 200 -->
      <g transform="translate(20.878125 167.986201) scale(0.1 -0.1)">
       <use xlink:href="#DejaVuSans-32"/>
       <use xlink:href="#DejaVuSans-30" x="63.623047"/>
       <use xlink:href="#DejaVuSans-30" x="127.246094"/>
      </g>
     </g>
    </g>
    <g id="ytick_6">
     <g id="line2d_13">
      <g>
       <use xlink:href="#mbef2ea0e99" x="46.965625" y="125.133728" style="stroke: #000000; stroke-width: 0.8"/>
      </g>
     </g>
     <g id="text_13">
      <!-- 250 -->
      <g transform="translate(20.878125 128.932947) scale(0.1 -0.1)">
       <use xlink:href="#DejaVuSans-32"/>
       <use xlink:href="#DejaVuSans-35" x="63.623047"/>
       <use xlink:href="#DejaVuSans-30" x="127.246094"/>
      </g>
     </g>
    </g>
    <g id="ytick_7">
     <g id="line2d_14">
      <g>
       <use xlink:href="#mbef2ea0e99" x="46.965625" y="86.080473" style="stroke: #000000; stroke-width: 0.8"/>
      </g>
     </g>
     <g id="text_14">
      <!-- 300 -->
      <g transform="translate(20.878125 89.879692) scale(0.1 -0.1)">
       <use xlink:href="#DejaVuSans-33"/>
       <use xlink:href="#DejaVuSans-30" x="63.623047"/>
       <use xlink:href="#DejaVuSans-30" x="127.246094"/>
      </g>
     </g>
    </g>
    <g id="ytick_8">
     <g id="line2d_15">
      <g>
       <use xlink:href="#mbef2ea0e99" x="46.965625" y="47.027219" style="stroke: #000000; stroke-width: 0.8"/>
      </g>
     </g>
     <g id="text_15">
      <!-- 350 -->
      <g transform="translate(20.878125 50.826438) scale(0.1 -0.1)">
       <use xlink:href="#DejaVuSans-33"/>
       <use xlink:href="#DejaVuSans-35" x="63.623047"/>
       <use xlink:href="#DejaVuSans-30" x="127.246094"/>
      </g>
     </g>
    </g>
    <g id="text_16">
     <!-- posterior samples -->
     <g transform="translate(14.798438 226.607031) rotate(-90) scale(0.1 -0.1)">
      <defs>
       <path id="DejaVuSans-70" d="M 1159 525 
L 1159 -1331 
L 581 -1331 
L 581 3500 
L 1159 3500 
L 1159 2969 
Q 1341 3281 1617 3432 
Q 1894 3584 2278 3584 
Q 2916 3584 3314 3078 
Q 3713 2572 3713 1747 
Q 3713 922 3314 415 
Q 2916 -91 2278 -91 
Q 1894 -91 1617 61 
Q 1341 213 1159 525 
z
M 3116 1747 
Q 3116 2381 2855 2742 
Q 2594 3103 2138 3103 
Q 1681 3103 1420 2742 
Q 1159 2381 1159 1747 
Q 1159 1113 1420 752 
Q 1681 391 2138 391 
Q 2594 391 2855 752 
Q 3116 1113 3116 1747 
z
" transform="scale(0.015625)"/>
       <path id="DejaVuSans-6d" d="M 3328 2828 
Q 3544 3216 3844 3400 
Q 4144 3584 4550 3584 
Q 5097 3584 5394 3201 
Q 5691 2819 5691 2113 
L 5691 0 
L 5113 0 
L 5113 2094 
Q 5113 2597 4934 2840 
Q 4756 3084 4391 3084 
Q 3944 3084 3684 2787 
Q 3425 2491 3425 1978 
L 3425 0 
L 2847 0 
L 2847 2094 
Q 2847 2600 2669 2842 
Q 2491 3084 2119 3084 
Q 1678 3084 1418 2786 
Q 1159 2488 1159 1978 
L 1159 0 
L 581 0 
L 581 3500 
L 1159 3500 
L 1159 2956 
Q 1356 3278 1631 3431 
Q 1906 3584 2284 3584 
Q 2666 3584 2933 3390 
Q 3200 3197 3328 2828 
z
" transform="scale(0.015625)"/>
      </defs>
      <use xlink:href="#DejaVuSans-70"/>
      <use xlink:href="#DejaVuSans-6f" x="63.476562"/>
      <use xlink:href="#DejaVuSans-73" x="124.658203"/>
      <use xlink:href="#DejaVuSans-74" x="176.757812"/>
      <use xlink:href="#DejaVuSans-65" x="215.966797"/>
      <use xlink:href="#DejaVuSans-72" x="277.490234"/>
      <use xlink:href="#DejaVuSans-69" x="318.603516"/>
      <use xlink:href="#DejaVuSans-6f" x="346.386719"/>
      <use xlink:href="#DejaVuSans-72" x="407.568359"/>
      <use xlink:href="#DejaVuSans-20" x="448.681641"/>
      <use xlink:href="#DejaVuSans-73" x="480.46875"/>
      <use xlink:href="#DejaVuSans-61" x="532.568359"/>
      <use xlink:href="#DejaVuSans-6d" x="593.847656"/>
      <use xlink:href="#DejaVuSans-70" x="691.259766"/>
      <use xlink:href="#DejaVuSans-6c" x="754.736328"/>
      <use xlink:href="#DejaVuSans-65" x="782.519531"/>
      <use xlink:href="#DejaVuSans-73" x="844.042969"/>
     </g>
    </g>
   </g>
   <g id="patch_43">
    <path d="M 46.965625 320.4 
L 46.965625 43.2 
" style="fill: none; stroke: #000000; stroke-width: 0.8; stroke-linejoin: miter; stroke-linecap: square"/>
   </g>
   <g id="patch_44">
    <path d="M 427.42017 320.4 
L 427.42017 43.2 
" style="fill: none; stroke: #000000; stroke-width: 0.8; stroke-linejoin: miter; stroke-linecap: square"/>
   </g>
   <g id="patch_45">
    <path d="M 46.965625 320.4 
L 427.42017 320.4 
" style="fill: none; stroke: #000000; stroke-width: 0.8; stroke-linejoin: miter; stroke-linecap: square"/>
   </g>
   <g id="patch_46">
    <path d="M 46.965625 43.2 
L 427.42017 43.2 
" style="fill: none; stroke: #000000; stroke-width: 0.8; stroke-linejoin: miter; stroke-linecap: square"/>
   </g>
   <g id="text_17">
    <!-- After hyper -->
    <g transform="translate(203.560085 37.2) scale(0.12 -0.12)">
     <defs>
      <path id="DejaVuSans-41" d="M 2188 4044 
L 1331 1722 
L 3047 1722 
L 2188 4044 
z
M 1831 4666 
L 2547 4666 
L 4325 0 
L 3669 0 
L 3244 1197 
L 1141 1197 
L 716 0 
L 50 0 
L 1831 4666 
z
" transform="scale(0.015625)"/>
      <path id="DejaVuSans-68" d="M 3513 2113 
L 3513 0 
L 2938 0 
L 2938 2094 
Q 2938 2591 2744 2837 
Q 2550 3084 2163 3084 
Q 1697 3084 1428 2787 
Q 1159 2491 1159 1978 
L 1159 0 
L 581 0 
L 581 4863 
L 1159 4863 
L 1159 2956 
Q 1366 3272 1645 3428 
Q 1925 3584 2291 3584 
Q 2894 3584 3203 3211 
Q 3513 2838 3513 2113 
z
" transform="scale(0.015625)"/>
      <path id="DejaVuSans-79" d="M 2059 -325 
Q 1816 -950 1584 -1140 
Q 1353 -1331 966 -1331 
L 506 -1331 
L 506 -850 
L 844 -850 
Q 1081 -850 1212 -737 
Q 1344 -625 1503 -206 
L 1606 56 
L 191 3500 
L 800 3500 
L 1894 763 
L 2988 3500 
L 3597 3500 
L 2059 -325 
z
" transform="scale(0.015625)"/>
     </defs>
     <use xlink:href="#DejaVuSans-41"/>
     <use xlink:href="#DejaVuSans-66" x="64.783203"/>
     <use xlink:href="#DejaVuSans-74" x="98.238281"/>
     <use xlink:href="#DejaVuSans-65" x="137.447266"/>
     <use xlink:href="#DejaVuSans-72" x="198.970703"/>
     <use xlink:href="#DejaVuSans-20" x="240.083984"/>
     <use xlink:href="#DejaVuSans-68" x="271.871094"/>
     <use xlink:href="#DejaVuSans-79" x="335.25"/>
     <use xlink:href="#DejaVuSans-70" x="394.429688"/>
     <use xlink:href="#DejaVuSans-65" x="457.90625"/>
     <use xlink:href="#DejaVuSans-72" x="519.429688"/>
    </g>
   </g>
  </g>
  <g id="axes_2">
   <g id="patch_47">
    <path d="M 503.51108 320.4 
L 883.965625 320.4 
L 883.965625 43.2 
L 503.51108 43.2 
z
" style="fill: #ffffff"/>
   </g>
   <g id="line2d_16">
    <path d="M 866.672237 320.4 
L 866.672237 43.2 
" clip-path="url(#p059f4b55e5)" style="fill: none; stroke-dasharray: 1.85,0.8; stroke-dashoffset: 0; stroke: #000000; stroke-width: 0.5"/>
   </g>
   <g id="patch_48">
    <path d="M 520.804468 320.4 
L 525.334614 320.4 
L 525.334614 318.83787 
L 520.804468 318.83787 
z
" clip-path="url(#p059f4b55e5)" style="fill: #66c2a5"/>
   </g>
   <g id="patch_49">
    <path d="M 525.334614 320.4 
L 529.86476 320.4 
L 529.86476 319.618935 
L 525.334614 319.618935 
z
" clip-path="url(#p059f4b55e5)" style="fill: #66c2a5"/>
   </g>
   <g id="patch_50">
    <path d="M 529.86476 320.4 
L 534.394907 320.4 
L 534.394907 318.056805 
L 529.86476 318.056805 
z
" clip-path="url(#p059f4b55e5)" style="fill: #66c2a5"/>
   </g>
   <g id="patch_51">
    <path d="M 534.394907 320.4 
L 538.925053 320.4 
L 538.925053 317.27574 
L 534.394907 317.27574 
z
" clip-path="url(#p059f4b55e5)" style="fill: #66c2a5"/>
   </g>
   <g id="patch_52">
    <path d="M 538.925053 320.4 
L 543.455199 320.4 
L 543.455199 315.713609 
L 538.925053 315.713609 
z
" clip-path="url(#p059f4b55e5)" style="fill: #66c2a5"/>
   </g>
   <g id="patch_53">
    <path d="M 543.455199 320.4 
L 547.985345 320.4 
L 547.985345 311.027219 
L 543.455199 311.027219 
z
" clip-path="url(#p059f4b55e5)" style="fill: #66c2a5"/>
   </g>
   <g id="patch_54">
    <path d="M 547.985345 320.4 
L 552.515491 320.4 
L 552.515491 305.559763 
L 547.985345 305.559763 
z
" clip-path="url(#p059f4b55e5)" style="fill: #66c2a5"/>
   </g>
   <g id="patch_55">
    <path d="M 552.515491 320.4 
L 557.045637 320.4 
L 557.045637 303.216568 
L 552.515491 303.216568 
z
" clip-path="url(#p059f4b55e5)" style="fill: #66c2a5"/>
   </g>
   <g id="patch_56">
    <path d="M 557.045637 320.4 
L 561.575784 320.4 
L 561.575784 288.376331 
L 557.045637 288.376331 
z
" clip-path="url(#p059f4b55e5)" style="fill: #66c2a5"/>
   </g>
   <g id="patch_57">
    <path d="M 561.575784 320.4 
L 566.10593 320.4 
L 566.10593 284.471006 
L 561.575784 284.471006 
z
" clip-path="url(#p059f4b55e5)" style="fill: #66c2a5"/>
   </g>
   <g id="patch_58">
    <path d="M 566.10593 320.4 
L 570.636076 320.4 
L 570.636076 277.44142 
L 566.10593 277.44142 
z
" clip-path="url(#p059f4b55e5)" style="fill: #66c2a5"/>
   </g>
   <g id="patch_59">
    <path d="M 570.636076 320.4 
L 575.166222 320.4 
L 575.166222 257.133728 
L 570.636076 257.133728 
z
" clip-path="url(#p059f4b55e5)" style="fill: #66c2a5"/>
   </g>
   <g id="patch_60">
    <path d="M 575.166222 320.4 
L 579.696368 320.4 
L 579.696368 239.169231 
L 575.166222 239.169231 
z
" clip-path="url(#p059f4b55e5)" style="fill: #66c2a5"/>
   </g>
   <g id="patch_61">
    <path d="M 579.696368 320.4 
L 584.226514 320.4 
L 584.226514 231.35858 
L 579.696368 231.35858 
z
" clip-path="url(#p059f4b55e5)" style="fill: #66c2a5"/>
   </g>
   <g id="patch_62">
    <path d="M 584.226514 320.4 
L 588.756661 320.4 
L 588.756661 190.743195 
L 584.226514 190.743195 
z
" clip-path="url(#p059f4b55e5)" style="fill: #66c2a5"/>
   </g>
   <g id="patch_63">
    <path d="M 588.756661 320.4 
L 593.286807 320.4 
L 593.286807 188.4 
L 588.756661 188.4 
z
" clip-path="url(#p059f4b55e5)" style="fill: #66c2a5"/>
   </g>
   <g id="patch_64">
    <path d="M 593.286807 320.4 
L 597.816953 320.4 
L 597.816953 152.471006 
L 593.286807 152.471006 
z
" clip-path="url(#p059f4b55e5)" style="fill: #66c2a5"/>
   </g>
   <g id="patch_65">
    <path d="M 597.816953 320.4 
L 602.347099 320.4 
L 602.347099 133.725444 
L 597.816953 133.725444 
z
" clip-path="url(#p059f4b55e5)" style="fill: #66c2a5"/>
   </g>
   <g id="patch_66">
    <path d="M 602.347099 320.4 
L 606.877245 320.4 
L 606.877245 123.571598 
L 602.347099 123.571598 
z
" clip-path="url(#p059f4b55e5)" style="fill: #66c2a5"/>
   </g>
   <g id="patch_67">
    <path d="M 606.877245 320.4 
L 611.407392 320.4 
L 611.407392 100.92071 
L 606.877245 100.92071 
z
" clip-path="url(#p059f4b55e5)" style="fill: #66c2a5"/>
   </g>
   <g id="patch_68">
    <path d="M 611.407392 320.4 
L 615.937538 320.4 
L 615.937538 116.542012 
L 611.407392 116.542012 
z
" clip-path="url(#p059f4b55e5)" style="fill: #66c2a5"/>
   </g>
   <g id="patch_69">
    <path d="M 615.937538 320.4 
L 620.467684 320.4 
L 620.467684 105.607101 
L 615.937538 105.607101 
z
" clip-path="url(#p059f4b55e5)" style="fill: #66c2a5"/>
   </g>
   <g id="patch_70">
    <path d="M 620.467684 320.4 
L 624.99783 320.4 
L 624.99783 113.417751 
L 620.467684 113.417751 
z
" clip-path="url(#p059f4b55e5)" style="fill: #66c2a5"/>
   </g>
   <g id="patch_71">
    <path d="M 624.99783 320.4 
L 629.527976 320.4 
L 629.527976 118.104142 
L 624.99783 118.104142 
z
" clip-path="url(#p059f4b55e5)" style="fill: #66c2a5"/>
   </g>
   <g id="patch_72">
    <path d="M 629.527976 320.4 
L 634.058122 320.4 
L 634.058122 146.222485 
L 629.527976 146.222485 
z
" clip-path="url(#p059f4b55e5)" style="fill: #66c2a5"/>
   </g>
   <g id="patch_73">
    <path d="M 634.058122 320.4 
L 638.588269 320.4 
L 638.588269 173.559763 
L 634.058122 173.559763 
z
" clip-path="url(#p059f4b55e5)" style="fill: #66c2a5"/>
   </g>
   <g id="patch_74">
    <path d="M 638.588269 320.4 
L 643.118415 320.4 
L 643.118415 197.772781 
L 638.588269 197.772781 
z
" clip-path="url(#p059f4b55e5)" style="fill: #66c2a5"/>
   </g>
   <g id="patch_75">
    <path d="M 643.118415 320.4 
L 647.648561 320.4 
L 647.648561 199.334911 
L 643.118415 199.334911 
z
" clip-path="url(#p059f4b55e5)" style="fill: #66c2a5"/>
   </g>
   <g id="patch_76">
    <path d="M 647.648561 320.4 
L 652.178707 320.4 
L 652.178707 235.263905 
L 647.648561 235.263905 
z
" clip-path="url(#p059f4b55e5)" style="fill: #66c2a5"/>
   </g>
   <g id="patch_77">
    <path d="M 652.178707 320.4 
L 656.708853 320.4 
L 656.708853 256.352663 
L 652.178707 256.352663 
z
" clip-path="url(#p059f4b55e5)" style="fill: #66c2a5"/>
   </g>
   <g id="patch_78">
    <path d="M 656.708853 320.4 
L 661.239 320.4 
L 661.239 279.784615 
L 656.708853 279.784615 
z
" clip-path="url(#p059f4b55e5)" style="fill: #66c2a5"/>
   </g>
   <g id="patch_79">
    <path d="M 661.239 320.4 
L 665.769146 320.4 
L 665.769146 279.784615 
L 661.239 279.784615 
z
" clip-path="url(#p059f4b55e5)" style="fill: #66c2a5"/>
   </g>
   <g id="patch_80">
    <path d="M 665.769146 320.4 
L 670.299292 320.4 
L 670.299292 300.092308 
L 665.769146 300.092308 
z
" clip-path="url(#p059f4b55e5)" style="fill: #66c2a5"/>
   </g>
   <g id="patch_81">
    <path d="M 670.299292 320.4 
L 674.829438 320.4 
L 674.829438 301.654438 
L 670.299292 301.654438 
z
" clip-path="url(#p059f4b55e5)" style="fill: #66c2a5"/>
   </g>
   <g id="patch_82">
    <path d="M 674.829438 320.4 
L 679.359584 320.4 
L 679.359584 305.559763 
L 674.829438 305.559763 
z
" clip-path="url(#p059f4b55e5)" style="fill: #66c2a5"/>
   </g>
   <g id="patch_83">
    <path d="M 679.359584 320.4 
L 683.88973 320.4 
L 683.88973 314.932544 
L 679.359584 314.932544 
z
" clip-path="url(#p059f4b55e5)" style="fill: #66c2a5"/>
   </g>
   <g id="patch_84">
    <path d="M 683.88973 320.4 
L 688.419877 320.4 
L 688.419877 314.932544 
L 683.88973 314.932544 
z
" clip-path="url(#p059f4b55e5)" style="fill: #66c2a5"/>
   </g>
   <g id="patch_85">
    <path d="M 688.419877 320.4 
L 692.950023 320.4 
L 692.950023 318.056805 
L 688.419877 318.056805 
z
" clip-path="url(#p059f4b55e5)" style="fill: #66c2a5"/>
   </g>
   <g id="patch_86">
    <path d="M 692.950023 320.4 
L 697.480169 320.4 
L 697.480169 319.618935 
L 692.950023 319.618935 
z
" clip-path="url(#p059f4b55e5)" style="fill: #66c2a5"/>
   </g>
   <g id="patch_87">
    <path d="M 697.480169 320.4 
L 702.010315 320.4 
L 702.010315 318.056805 
L 697.480169 318.056805 
z
" clip-path="url(#p059f4b55e5)" style="fill: #66c2a5"/>
   </g>
   <g id="matplotlib.axis_3">
    <g id="xtick_7">
     <g id="line2d_17">
      <g>
       <use xlink:href="#m45db85b5ad" x="528.405987" y="320.4" style="stroke: #000000; stroke-width: 0.8"/>
      </g>
     </g>
     <g id="text_18">
      <!-- −0.5 -->
      <g transform="translate(516.264581 334.998437) scale(0.1 -0.1)">
       <use xlink:href="#DejaVuSans-2212"/>
       <use xlink:href="#DejaVuSans-30" x="83.789062"/>
       <use xlink:href="#DejaVuSans-2e" x="147.412109"/>
       <use xlink:href="#DejaVuSans-35" x="179.199219"/>
      </g>
     </g>
    </g>
    <g id="xtick_8">
     <g id="line2d_18">
      <g>
       <use xlink:href="#m45db85b5ad" x="596.059237" y="320.4" style="stroke: #000000; stroke-width: 0.8"/>
      </g>
     </g>
     <g id="text_19">
      <!-- −0.4 -->
      <g transform="translate(583.917831 334.998437) scale(0.1 -0.1)">
       <use xlink:href="#DejaVuSans-2212"/>
       <use xlink:href="#DejaVuSans-30" x="83.789062"/>
       <use xlink:href="#DejaVuSans-2e" x="147.412109"/>
       <use xlink:href="#DejaVuSans-34" x="179.199219"/>
      </g>
     </g>
    </g>
    <g id="xtick_9">
     <g id="line2d_19">
      <g>
       <use xlink:href="#m45db85b5ad" x="663.712487" y="320.4" style="stroke: #000000; stroke-width: 0.8"/>
      </g>
     </g>
     <g id="text_20">
      <!-- −0.3 -->
      <g transform="translate(651.571081 334.998437) scale(0.1 -0.1)">
       <use xlink:href="#DejaVuSans-2212"/>
       <use xlink:href="#DejaVuSans-30" x="83.789062"/>
       <use xlink:href="#DejaVuSans-2e" x="147.412109"/>
       <use xlink:href="#DejaVuSans-33" x="179.199219"/>
      </g>
     </g>
    </g>
    <g id="xtick_10">
     <g id="line2d_20">
      <g>
       <use xlink:href="#m45db85b5ad" x="731.365737" y="320.4" style="stroke: #000000; stroke-width: 0.8"/>
      </g>
     </g>
     <g id="text_21">
      <!-- −0.2 -->
      <g transform="translate(719.224331 334.998437) scale(0.1 -0.1)">
       <use xlink:href="#DejaVuSans-2212"/>
       <use xlink:href="#DejaVuSans-30" x="83.789062"/>
       <use xlink:href="#DejaVuSans-2e" x="147.412109"/>
       <use xlink:href="#DejaVuSans-32" x="179.199219"/>
      </g>
     </g>
    </g>
    <g id="xtick_11">
     <g id="line2d_21">
      <g>
       <use xlink:href="#m45db85b5ad" x="799.018987" y="320.4" style="stroke: #000000; stroke-width: 0.8"/>
      </g>
     </g>
     <g id="text_22">
      <!-- −0.1 -->
      <g transform="translate(786.87758 334.998437) scale(0.1 -0.1)">
       <use xlink:href="#DejaVuSans-2212"/>
       <use xlink:href="#DejaVuSans-30" x="83.789062"/>
       <use xlink:href="#DejaVuSans-2e" x="147.412109"/>
       <use xlink:href="#DejaVuSans-31" x="179.199219"/>
      </g>
     </g>
    </g>
    <g id="xtick_12">
     <g id="line2d_22">
      <g>
       <use xlink:href="#m45db85b5ad" x="866.672237" y="320.4" style="stroke: #000000; stroke-width: 0.8"/>
      </g>
     </g>
     <g id="text_23">
      <!-- 0.0 -->
      <g transform="translate(858.720674 334.998437) scale(0.1 -0.1)">
       <use xlink:href="#DejaVuSans-30"/>
       <use xlink:href="#DejaVuSans-2e" x="63.623047"/>
       <use xlink:href="#DejaVuSans-30" x="95.410156"/>
      </g>
     </g>
    </g>
    <g id="text_24">
     <!-- Effect relative to baseline (standardised units) -->
     <g transform="translate(577.891477 348.676562) scale(0.1 -0.1)">
      <use xlink:href="#DejaVuSans-45"/>
      <use xlink:href="#DejaVuSans-66" x="63.183594"/>
      <use xlink:href="#DejaVuSans-66" x="98.388672"/>
      <use xlink:href="#DejaVuSans-65" x="133.59375"/>
      <use xlink:href="#DejaVuSans-63" x="195.117188"/>
      <use xlink:href="#DejaVuSans-74" x="250.097656"/>
      <use xlink:href="#DejaVuSans-20" x="289.306641"/>
      <use xlink:href="#DejaVuSans-72" x="321.09375"/>
      <use xlink:href="#DejaVuSans-65" x="359.957031"/>
      <use xlink:href="#DejaVuSans-6c" x="421.480469"/>
      <use xlink:href="#DejaVuSans-61" x="449.263672"/>
      <use xlink:href="#DejaVuSans-74" x="510.542969"/>
      <use xlink:href="#DejaVuSans-69" x="549.751953"/>
      <use xlink:href="#DejaVuSans-76" x="577.535156"/>
      <use xlink:href="#DejaVuSans-65" x="636.714844"/>
      <use xlink:href="#DejaVuSans-20" x="698.238281"/>
      <use xlink:href="#DejaVuSans-74" x="730.025391"/>
      <use xlink:href="#DejaVuSans-6f" x="769.234375"/>
      <use xlink:href="#DejaVuSans-20" x="830.416016"/>
      <use xlink:href="#DejaVuSans-62" x="862.203125"/>
      <use xlink:href="#DejaVuSans-61" x="925.679688"/>
      <use xlink:href="#DejaVuSans-73" x="986.958984"/>
      <use xlink:href="#DejaVuSans-65" x="1039.058594"/>
      <use xlink:href="#DejaVuSans-6c" x="1100.582031"/>
      <use xlink:href="#DejaVuSans-69" x="1128.365234"/>
      <use xlink:href="#DejaVuSans-6e" x="1156.148438"/>
      <use xlink:href="#DejaVuSans-65" x="1219.527344"/>
      <use xlink:href="#DejaVuSans-20" x="1281.050781"/>
      <use xlink:href="#DejaVuSans-28" x="1312.837891"/>
      <use xlink:href="#DejaVuSans-73" x="1351.851562"/>
      <use xlink:href="#DejaVuSans-74" x="1403.951172"/>
      <use xlink:href="#DejaVuSans-61" x="1443.160156"/>
      <use xlink:href="#DejaVuSans-6e" x="1504.439453"/>
      <use xlink:href="#DejaVuSans-64" x="1567.818359"/>
      <use xlink:href="#DejaVuSans-61" x="1631.294922"/>
      <use xlink:href="#DejaVuSans-72" x="1692.574219"/>
      <use xlink:href="#DejaVuSans-64" x="1731.9375"/>
      <use xlink:href="#DejaVuSans-69" x="1795.414062"/>
      <use xlink:href="#DejaVuSans-73" x="1823.197266"/>
      <use xlink:href="#DejaVuSans-65" x="1875.296875"/>
      <use xlink:href="#DejaVuSans-64" x="1936.820312"/>
      <use xlink:href="#DejaVuSans-20" x="2000.296875"/>
      <use xlink:href="#DejaVuSans-75" x="2032.083984"/>
      <use xlink:href="#DejaVuSans-6e" x="2095.462891"/>
      <use xlink:href="#DejaVuSans-69" x="2158.841797"/>
      <use xlink:href="#DejaVuSans-74" x="2186.625"/>
      <use xlink:href="#DejaVuSans-73" x="2225.833984"/>
      <use xlink:href="#DejaVuSans-29" x="2277.933594"/>
     </g>
    </g>
   </g>
   <g id="matplotlib.axis_4">
    <g id="ytick_9">
     <g id="line2d_23">
      <g>
       <use xlink:href="#mbef2ea0e99" x="503.51108" y="320.4" style="stroke: #000000; stroke-width: 0.8"/>
      </g>
     </g>
    </g>
    <g id="ytick_10">
     <g id="line2d_24">
      <g>
       <use xlink:href="#mbef2ea0e99" x="503.51108" y="281.346746" style="stroke: #000000; stroke-width: 0.8"/>
      </g>
     </g>
    </g>
    <g id="ytick_11">
     <g id="line2d_25">
      <g>
       <use xlink:href="#mbef2ea0e99" x="503.51108" y="242.293491" style="stroke: #000000; stroke-width: 0.8"/>
      </g>
     </g>
    </g>
    <g id="ytick_12">
     <g id="line2d_26">
      <g>
       <use xlink:href="#mbef2ea0e99" x="503.51108" y="203.240237" style="stroke: #000000; stroke-width: 0.8"/>
      </g>
     </g>
    </g>
    <g id="ytick_13">
     <g id="line2d_27">
      <g>
       <use xlink:href="#mbef2ea0e99" x="503.51108" y="164.186982" style="stroke: #000000; stroke-width: 0.8"/>
      </g>
     </g>
    </g>
    <g id="ytick_14">
     <g id="line2d_28">
      <g>
       <use xlink:href="#mbef2ea0e99" x="503.51108" y="125.133728" style="stroke: #000000; stroke-width: 0.8"/>
      </g>
     </g>
    </g>
    <g id="ytick_15">
     <g id="line2d_29">
      <g>
       <use xlink:href="#mbef2ea0e99" x="503.51108" y="86.080473" style="stroke: #000000; stroke-width: 0.8"/>
      </g>
     </g>
    </g>
    <g id="ytick_16">
     <g id="line2d_30">
      <g>
       <use xlink:href="#mbef2ea0e99" x="503.51108" y="47.027219" style="stroke: #000000; stroke-width: 0.8"/>
      </g>
     </g>
    </g>
    <g id="text_25">
     <!-- posterior samples -->
     <g transform="translate(493.931392 226.607031) rotate(-90) scale(0.1 -0.1)">
      <use xlink:href="#DejaVuSans-70"/>
      <use xlink:href="#DejaVuSans-6f" x="63.476562"/>
      <use xlink:href="#DejaVuSans-73" x="124.658203"/>
      <use xlink:href="#DejaVuSans-74" x="176.757812"/>
      <use xlink:href="#DejaVuSans-65" x="215.966797"/>
      <use xlink:href="#DejaVuSans-72" x="277.490234"/>
      <use xlink:href="#DejaVuSans-69" x="318.603516"/>
      <use xlink:href="#DejaVuSans-6f" x="346.386719"/>
      <use xlink:href="#DejaVuSans-72" x="407.568359"/>
      <use xlink:href="#DejaVuSans-20" x="448.681641"/>
      <use xlink:href="#DejaVuSans-73" x="480.46875"/>
      <use xlink:href="#DejaVuSans-61" x="532.568359"/>
      <use xlink:href="#DejaVuSans-6d" x="593.847656"/>
      <use xlink:href="#DejaVuSans-70" x="691.259766"/>
      <use xlink:href="#DejaVuSans-6c" x="754.736328"/>
      <use xlink:href="#DejaVuSans-65" x="782.519531"/>
      <use xlink:href="#DejaVuSans-73" x="844.042969"/>
     </g>
    </g>
   </g>
   <g id="patch_88">
    <path d="M 503.51108 320.4 
L 503.51108 43.2 
" style="fill: none; stroke: #000000; stroke-width: 0.8; stroke-linejoin: miter; stroke-linecap: square"/>
   </g>
   <g id="patch_89">
    <path d="M 883.965625 320.4 
L 883.965625 43.2 
" style="fill: none; stroke: #000000; stroke-width: 0.8; stroke-linejoin: miter; stroke-linecap: square"/>
   </g>
   <g id="patch_90">
    <path d="M 503.51108 320.4 
L 883.965625 320.4 
" style="fill: none; stroke: #000000; stroke-width: 0.8; stroke-linejoin: miter; stroke-linecap: square"/>
   </g>
   <g id="patch_91">
    <path d="M 503.51108 43.2 
L 883.965625 43.2 
" style="fill: none; stroke: #000000; stroke-width: 0.8; stroke-linejoin: miter; stroke-linecap: square"/>
   </g>
   <g id="text_26">
    <!-- After ablation -->
    <g transform="translate(653.10429 37.2) scale(0.12 -0.12)">
     <use xlink:href="#DejaVuSans-41"/>
     <use xlink:href="#DejaVuSans-66" x="64.783203"/>
     <use xlink:href="#DejaVuSans-74" x="98.238281"/>
     <use xlink:href="#DejaVuSans-65" x="137.447266"/>
     <use xlink:href="#DejaVuSans-72" x="198.970703"/>
     <use xlink:href="#DejaVuSans-20" x="240.083984"/>
     <use xlink:href="#DejaVuSans-61" x="271.871094"/>
     <use xlink:href="#DejaVuSans-62" x="333.150391"/>
     <use xlink:href="#DejaVuSans-6c" x="396.626953"/>
     <use xlink:href="#DejaVuSans-61" x="424.410156"/>
     <use xlink:href="#DejaVuSans-74" x="485.689453"/>
     <use xlink:href="#DejaVuSans-69" x="524.898438"/>
     <use xlink:href="#DejaVuSans-6f" x="552.681641"/>
     <use xlink:href="#DejaVuSans-6e" x="613.863281"/>
    </g>
   </g>
  </g>
  <g id="text_27">
   <!-- Effect of treatment on response to whisker stimulation -->
   <g transform="translate(288.087813 16.318125) scale(0.12 -0.12)">
    <defs>
     <path id="DejaVuSans-77" d="M 269 3500 
L 844 3500 
L 1563 769 
L 2278 3500 
L 2956 3500 
L 3675 769 
L 4391 3500 
L 4966 3500 
L 4050 0 
L 3372 0 
L 2619 2869 
L 1863 0 
L 1184 0 
L 269 3500 
z
" transform="scale(0.015625)"/>
     <path id="DejaVuSans-6b" d="M 581 4863 
L 1159 4863 
L 1159 1991 
L 2875 3500 
L 3609 3500 
L 1753 1863 
L 3688 0 
L 2938 0 
L 1159 1709 
L 1159 0 
L 581 0 
L 581 4863 
z
" transform="scale(0.015625)"/>
    </defs>
    <use xlink:href="#DejaVuSans-45"/>
    <use xlink:href="#DejaVuSans-66" x="63.183594"/>
    <use xlink:href="#DejaVuSans-66" x="98.388672"/>
    <use xlink:href="#DejaVuSans-65" x="133.59375"/>
    <use xlink:href="#DejaVuSans-63" x="195.117188"/>
    <use xlink:href="#DejaVuSans-74" x="250.097656"/>
    <use xlink:href="#DejaVuSans-20" x="289.306641"/>
    <use xlink:href="#DejaVuSans-6f" x="321.09375"/>
    <use xlink:href="#DejaVuSans-66" x="382.275391"/>
    <use xlink:href="#DejaVuSans-20" x="417.480469"/>
    <use xlink:href="#DejaVuSans-74" x="449.267578"/>
    <use xlink:href="#DejaVuSans-72" x="488.476562"/>
    <use xlink:href="#DejaVuSans-65" x="527.339844"/>
    <use xlink:href="#DejaVuSans-61" x="588.863281"/>
    <use xlink:href="#DejaVuSans-74" x="650.142578"/>
    <use xlink:href="#DejaVuSans-6d" x="689.351562"/>
    <use xlink:href="#DejaVuSans-65" x="786.763672"/>
    <use xlink:href="#DejaVuSans-6e" x="848.287109"/>
    <use xlink:href="#DejaVuSans-74" x="911.666016"/>
    <use xlink:href="#DejaVuSans-20" x="950.875"/>
    <use xlink:href="#DejaVuSans-6f" x="982.662109"/>
    <use xlink:href="#DejaVuSans-6e" x="1043.84375"/>
    <use xlink:href="#DejaVuSans-20" x="1107.222656"/>
    <use xlink:href="#DejaVuSans-72" x="1139.009766"/>
    <use xlink:href="#DejaVuSans-65" x="1177.873047"/>
    <use xlink:href="#DejaVuSans-73" x="1239.396484"/>
    <use xlink:href="#DejaVuSans-70" x="1291.496094"/>
    <use xlink:href="#DejaVuSans-6f" x="1354.972656"/>
    <use xlink:href="#DejaVuSans-6e" x="1416.154297"/>
    <use xlink:href="#DejaVuSans-73" x="1479.533203"/>
    <use xlink:href="#DejaVuSans-65" x="1531.632812"/>
    <use xlink:href="#DejaVuSans-20" x="1593.15625"/>
    <use xlink:href="#DejaVuSans-74" x="1624.943359"/>
    <use xlink:href="#DejaVuSans-6f" x="1664.152344"/>
    <use xlink:href="#DejaVuSans-20" x="1725.333984"/>
    <use xlink:href="#DejaVuSans-77" x="1757.121094"/>
    <use xlink:href="#DejaVuSans-68" x="1838.908203"/>
    <use xlink:href="#DejaVuSans-69" x="1902.287109"/>
    <use xlink:href="#DejaVuSans-73" x="1930.070312"/>
    <use xlink:href="#DejaVuSans-6b" x="1982.169922"/>
    <use xlink:href="#DejaVuSans-65" x="2036.455078"/>
    <use xlink:href="#DejaVuSans-72" x="2097.978516"/>
    <use xlink:href="#DejaVuSans-20" x="2139.091797"/>
    <use xlink:href="#DejaVuSans-73" x="2170.878906"/>
    <use xlink:href="#DejaVuSans-74" x="2222.978516"/>
    <use xlink:href="#DejaVuSans-69" x="2262.1875"/>
    <use xlink:href="#DejaVuSans-6d" x="2289.970703"/>
    <use xlink:href="#DejaVuSans-75" x="2387.382812"/>
    <use xlink:href="#DejaVuSans-6c" x="2450.761719"/>
    <use xlink:href="#DejaVuSans-61" x="2478.544922"/>
    <use xlink:href="#DejaVuSans-74" x="2539.824219"/>
    <use xlink:href="#DejaVuSans-69" x="2579.033203"/>
    <use xlink:href="#DejaVuSans-6f" x="2606.816406"/>
    <use xlink:href="#DejaVuSans-6e" x="2667.998047"/>
   </g>
  </g>
 </g>
 <defs>
  <clipPath id="p2630b20f6b">
   <rect x="46.965625" y="43.2" width="380.454545" height="277.2"/>
  </clipPath>
  <clipPath id="p059f4b55e5">
   <rect x="503.51108" y="43.2" width="380.454545" height="277.2"/>
  </clipPath>
 </defs>
</svg>
